%TF.GenerationSoftware,KiCad,Pcbnew,(5.1.6-0-10_14)*%
%TF.CreationDate,2020-10-01T17:07:47+07:00*%
%TF.ProjectId,ublox ZED-F9P (Full feature),75626c6f-7820-45a4-9544-2d4639502028,V1*%
%TF.SameCoordinates,Original*%
%TF.FileFunction,Paste,Top*%
%TF.FilePolarity,Positive*%
%FSLAX46Y46*%
G04 Gerber Fmt 4.6, Leading zero omitted, Abs format (unit mm)*
G04 Created by KiCad (PCBNEW (5.1.6-0-10_14)) date 2020-10-01 17:07:47*
%MOMM*%
%LPD*%
G01*
G04 APERTURE LIST*
%ADD10C,0.100000*%
%ADD11R,2.000000X1.250000*%
%ADD12R,1.000000X2.000000*%
%ADD13R,0.270000X1.000000*%
%ADD14R,0.520000X1.000000*%
%ADD15R,0.650000X1.060000*%
%ADD16R,1.520000X0.850000*%
%ADD17R,0.850000X1.520000*%
%ADD18R,1.500000X2.000000*%
%ADD19R,3.800000X2.000000*%
%ADD20R,0.400000X0.700000*%
%ADD21R,0.630000X0.830000*%
%ADD22R,0.850000X0.900000*%
G04 APERTURE END LIST*
D10*
%TO.C,U4*%
G36*
X182904000Y-80375200D02*
G01*
X183804000Y-80375200D01*
X183804000Y-79475200D01*
X182904000Y-79475200D01*
X182904000Y-80375200D01*
G37*
G36*
X180804000Y-80375200D02*
G01*
X181704000Y-80375200D01*
X181704000Y-79475200D01*
X180804000Y-79475200D01*
X180804000Y-80375200D01*
G37*
G36*
X178704000Y-80375200D02*
G01*
X179604000Y-80375200D01*
X179604000Y-79475200D01*
X178704000Y-79475200D01*
X178704000Y-80375200D01*
G37*
G36*
X176604000Y-80375200D02*
G01*
X177504000Y-80375200D01*
X177504000Y-79475200D01*
X176604000Y-79475200D01*
X176604000Y-80375200D01*
G37*
G36*
X182904000Y-78325200D02*
G01*
X183804000Y-78325200D01*
X183804000Y-77425200D01*
X182904000Y-77425200D01*
X182904000Y-78325200D01*
G37*
G36*
X180804000Y-78325200D02*
G01*
X181704000Y-78325200D01*
X181704000Y-77425200D01*
X180804000Y-77425200D01*
X180804000Y-78325200D01*
G37*
G36*
X178704000Y-78325200D02*
G01*
X179604000Y-78325200D01*
X179604000Y-77425200D01*
X178704000Y-77425200D01*
X178704000Y-78325200D01*
G37*
G36*
X176604000Y-78325200D02*
G01*
X177504000Y-78325200D01*
X177504000Y-77425200D01*
X176604000Y-77425200D01*
X176604000Y-78325200D01*
G37*
G36*
X182904000Y-76275200D02*
G01*
X183804000Y-76275200D01*
X183804000Y-75375200D01*
X182904000Y-75375200D01*
X182904000Y-76275200D01*
G37*
G36*
X180804000Y-76275200D02*
G01*
X181704000Y-76275200D01*
X181704000Y-75375200D01*
X180804000Y-75375200D01*
X180804000Y-76275200D01*
G37*
G36*
X178704000Y-76275200D02*
G01*
X179604000Y-76275200D01*
X179604000Y-75375200D01*
X178704000Y-75375200D01*
X178704000Y-76275200D01*
G37*
G36*
X176604000Y-76275200D02*
G01*
X177504000Y-76275200D01*
X177504000Y-75375200D01*
X176604000Y-75375200D01*
X176604000Y-76275200D01*
G37*
G36*
X182904000Y-86575200D02*
G01*
X183804000Y-86575200D01*
X183804000Y-85675200D01*
X182904000Y-85675200D01*
X182904000Y-86575200D01*
G37*
G36*
X180804000Y-86575200D02*
G01*
X181704000Y-86575200D01*
X181704000Y-85675200D01*
X180804000Y-85675200D01*
X180804000Y-86575200D01*
G37*
G36*
X178704000Y-86575200D02*
G01*
X179604000Y-86575200D01*
X179604000Y-85675200D01*
X178704000Y-85675200D01*
X178704000Y-86575200D01*
G37*
G36*
X176604000Y-86575200D02*
G01*
X177504000Y-86575200D01*
X177504000Y-85675200D01*
X176604000Y-85675200D01*
X176604000Y-86575200D01*
G37*
G36*
X182904000Y-84525200D02*
G01*
X183804000Y-84525200D01*
X183804000Y-83625200D01*
X182904000Y-83625200D01*
X182904000Y-84525200D01*
G37*
G36*
X180804000Y-84525200D02*
G01*
X181704000Y-84525200D01*
X181704000Y-83625200D01*
X180804000Y-83625200D01*
X180804000Y-84525200D01*
G37*
G36*
X178704000Y-84525200D02*
G01*
X179604000Y-84525200D01*
X179604000Y-83625200D01*
X178704000Y-83625200D01*
X178704000Y-84525200D01*
G37*
G36*
X176604000Y-84525200D02*
G01*
X177504000Y-84525200D01*
X177504000Y-83625200D01*
X176604000Y-83625200D01*
X176604000Y-84525200D01*
G37*
G36*
X182904000Y-82475200D02*
G01*
X183804000Y-82475200D01*
X183804000Y-81575200D01*
X182904000Y-81575200D01*
X182904000Y-82475200D01*
G37*
G36*
X180804000Y-82475200D02*
G01*
X181704000Y-82475200D01*
X181704000Y-81575200D01*
X180804000Y-81575200D01*
X180804000Y-82475200D01*
G37*
G36*
X178704000Y-82475200D02*
G01*
X179604000Y-82475200D01*
X179604000Y-81575200D01*
X178704000Y-81575200D01*
X178704000Y-82475200D01*
G37*
G36*
X176604000Y-82475200D02*
G01*
X177504000Y-82475200D01*
X177504000Y-81575200D01*
X176604000Y-81575200D01*
X176604000Y-82475200D01*
G37*
G36*
X191304000Y-80375200D02*
G01*
X192204000Y-80375200D01*
X192204000Y-79475200D01*
X191304000Y-79475200D01*
X191304000Y-80375200D01*
G37*
G36*
X189204000Y-80375200D02*
G01*
X190104000Y-80375200D01*
X190104000Y-79475200D01*
X189204000Y-79475200D01*
X189204000Y-80375200D01*
G37*
G36*
X187104000Y-80375200D02*
G01*
X188004000Y-80375200D01*
X188004000Y-79475200D01*
X187104000Y-79475200D01*
X187104000Y-80375200D01*
G37*
G36*
X185004000Y-80375200D02*
G01*
X185904000Y-80375200D01*
X185904000Y-79475200D01*
X185004000Y-79475200D01*
X185004000Y-80375200D01*
G37*
G36*
X191304000Y-78325200D02*
G01*
X192204000Y-78325200D01*
X192204000Y-77425200D01*
X191304000Y-77425200D01*
X191304000Y-78325200D01*
G37*
G36*
X189204000Y-78325200D02*
G01*
X190104000Y-78325200D01*
X190104000Y-77425200D01*
X189204000Y-77425200D01*
X189204000Y-78325200D01*
G37*
G36*
X187104000Y-78325200D02*
G01*
X188004000Y-78325200D01*
X188004000Y-77425200D01*
X187104000Y-77425200D01*
X187104000Y-78325200D01*
G37*
G36*
X185004000Y-78325200D02*
G01*
X185904000Y-78325200D01*
X185904000Y-77425200D01*
X185004000Y-77425200D01*
X185004000Y-78325200D01*
G37*
G36*
X191304000Y-76275200D02*
G01*
X192204000Y-76275200D01*
X192204000Y-75375200D01*
X191304000Y-75375200D01*
X191304000Y-76275200D01*
G37*
G36*
X189204000Y-76275200D02*
G01*
X190104000Y-76275200D01*
X190104000Y-75375200D01*
X189204000Y-75375200D01*
X189204000Y-76275200D01*
G37*
G36*
X187104000Y-76275200D02*
G01*
X188004000Y-76275200D01*
X188004000Y-75375200D01*
X187104000Y-75375200D01*
X187104000Y-76275200D01*
G37*
G36*
X185004000Y-76275200D02*
G01*
X185904000Y-76275200D01*
X185904000Y-75375200D01*
X185004000Y-75375200D01*
X185004000Y-76275200D01*
G37*
G36*
X191304000Y-86575200D02*
G01*
X192204000Y-86575200D01*
X192204000Y-85675200D01*
X191304000Y-85675200D01*
X191304000Y-86575200D01*
G37*
G36*
X189204000Y-86575200D02*
G01*
X190104000Y-86575200D01*
X190104000Y-85675200D01*
X189204000Y-85675200D01*
X189204000Y-86575200D01*
G37*
G36*
X187104000Y-86575200D02*
G01*
X188004000Y-86575200D01*
X188004000Y-85675200D01*
X187104000Y-85675200D01*
X187104000Y-86575200D01*
G37*
G36*
X185004000Y-86575200D02*
G01*
X185904000Y-86575200D01*
X185904000Y-85675200D01*
X185004000Y-85675200D01*
X185004000Y-86575200D01*
G37*
G36*
X191304000Y-84525200D02*
G01*
X192204000Y-84525200D01*
X192204000Y-83625200D01*
X191304000Y-83625200D01*
X191304000Y-84525200D01*
G37*
G36*
X189204000Y-84525200D02*
G01*
X190104000Y-84525200D01*
X190104000Y-83625200D01*
X189204000Y-83625200D01*
X189204000Y-84525200D01*
G37*
G36*
X187104000Y-84525200D02*
G01*
X188004000Y-84525200D01*
X188004000Y-83625200D01*
X187104000Y-83625200D01*
X187104000Y-84525200D01*
G37*
G36*
X185004000Y-84525200D02*
G01*
X185904000Y-84525200D01*
X185904000Y-83625200D01*
X185004000Y-83625200D01*
X185004000Y-84525200D01*
G37*
G36*
X191304000Y-82475200D02*
G01*
X192204000Y-82475200D01*
X192204000Y-81575200D01*
X191304000Y-81575200D01*
X191304000Y-82475200D01*
G37*
G36*
X189204000Y-82475200D02*
G01*
X190104000Y-82475200D01*
X190104000Y-81575200D01*
X189204000Y-81575200D01*
X189204000Y-82475200D01*
G37*
G36*
X187104000Y-82475200D02*
G01*
X188004000Y-82475200D01*
X188004000Y-81575200D01*
X187104000Y-81575200D01*
X187104000Y-82475200D01*
G37*
G36*
X185004000Y-82475200D02*
G01*
X185904000Y-82475200D01*
X185904000Y-81575200D01*
X185004000Y-81575200D01*
X185004000Y-82475200D01*
G37*
%TO.C,BT1*%
G36*
X139277600Y-91412500D02*
G01*
X135077600Y-91412500D01*
X135077600Y-93112500D01*
X139277600Y-93112500D01*
X139277600Y-91412500D01*
G37*
G36*
X137497600Y-96792500D02*
G01*
X135097600Y-96792500D01*
X135097600Y-94392500D01*
X137497600Y-96792500D01*
G37*
%TO.C,U3*%
G36*
X153389200Y-80426000D02*
G01*
X154289200Y-80426000D01*
X154289200Y-79526000D01*
X153389200Y-79526000D01*
X153389200Y-80426000D01*
G37*
G36*
X151289200Y-80426000D02*
G01*
X152189200Y-80426000D01*
X152189200Y-79526000D01*
X151289200Y-79526000D01*
X151289200Y-80426000D01*
G37*
G36*
X149189200Y-80426000D02*
G01*
X150089200Y-80426000D01*
X150089200Y-79526000D01*
X149189200Y-79526000D01*
X149189200Y-80426000D01*
G37*
G36*
X147089200Y-80426000D02*
G01*
X147989200Y-80426000D01*
X147989200Y-79526000D01*
X147089200Y-79526000D01*
X147089200Y-80426000D01*
G37*
G36*
X153389200Y-78376000D02*
G01*
X154289200Y-78376000D01*
X154289200Y-77476000D01*
X153389200Y-77476000D01*
X153389200Y-78376000D01*
G37*
G36*
X151289200Y-78376000D02*
G01*
X152189200Y-78376000D01*
X152189200Y-77476000D01*
X151289200Y-77476000D01*
X151289200Y-78376000D01*
G37*
G36*
X149189200Y-78376000D02*
G01*
X150089200Y-78376000D01*
X150089200Y-77476000D01*
X149189200Y-77476000D01*
X149189200Y-78376000D01*
G37*
G36*
X147089200Y-78376000D02*
G01*
X147989200Y-78376000D01*
X147989200Y-77476000D01*
X147089200Y-77476000D01*
X147089200Y-78376000D01*
G37*
G36*
X153389200Y-76326000D02*
G01*
X154289200Y-76326000D01*
X154289200Y-75426000D01*
X153389200Y-75426000D01*
X153389200Y-76326000D01*
G37*
G36*
X151289200Y-76326000D02*
G01*
X152189200Y-76326000D01*
X152189200Y-75426000D01*
X151289200Y-75426000D01*
X151289200Y-76326000D01*
G37*
G36*
X149189200Y-76326000D02*
G01*
X150089200Y-76326000D01*
X150089200Y-75426000D01*
X149189200Y-75426000D01*
X149189200Y-76326000D01*
G37*
G36*
X147089200Y-76326000D02*
G01*
X147989200Y-76326000D01*
X147989200Y-75426000D01*
X147089200Y-75426000D01*
X147089200Y-76326000D01*
G37*
G36*
X153389200Y-86626000D02*
G01*
X154289200Y-86626000D01*
X154289200Y-85726000D01*
X153389200Y-85726000D01*
X153389200Y-86626000D01*
G37*
G36*
X151289200Y-86626000D02*
G01*
X152189200Y-86626000D01*
X152189200Y-85726000D01*
X151289200Y-85726000D01*
X151289200Y-86626000D01*
G37*
G36*
X149189200Y-86626000D02*
G01*
X150089200Y-86626000D01*
X150089200Y-85726000D01*
X149189200Y-85726000D01*
X149189200Y-86626000D01*
G37*
G36*
X147089200Y-86626000D02*
G01*
X147989200Y-86626000D01*
X147989200Y-85726000D01*
X147089200Y-85726000D01*
X147089200Y-86626000D01*
G37*
G36*
X153389200Y-84576000D02*
G01*
X154289200Y-84576000D01*
X154289200Y-83676000D01*
X153389200Y-83676000D01*
X153389200Y-84576000D01*
G37*
G36*
X151289200Y-84576000D02*
G01*
X152189200Y-84576000D01*
X152189200Y-83676000D01*
X151289200Y-83676000D01*
X151289200Y-84576000D01*
G37*
G36*
X149189200Y-84576000D02*
G01*
X150089200Y-84576000D01*
X150089200Y-83676000D01*
X149189200Y-83676000D01*
X149189200Y-84576000D01*
G37*
G36*
X147089200Y-84576000D02*
G01*
X147989200Y-84576000D01*
X147989200Y-83676000D01*
X147089200Y-83676000D01*
X147089200Y-84576000D01*
G37*
G36*
X153389200Y-82526000D02*
G01*
X154289200Y-82526000D01*
X154289200Y-81626000D01*
X153389200Y-81626000D01*
X153389200Y-82526000D01*
G37*
G36*
X151289200Y-82526000D02*
G01*
X152189200Y-82526000D01*
X152189200Y-81626000D01*
X151289200Y-81626000D01*
X151289200Y-82526000D01*
G37*
G36*
X149189200Y-82526000D02*
G01*
X150089200Y-82526000D01*
X150089200Y-81626000D01*
X149189200Y-81626000D01*
X149189200Y-82526000D01*
G37*
G36*
X147089200Y-82526000D02*
G01*
X147989200Y-82526000D01*
X147989200Y-81626000D01*
X147089200Y-81626000D01*
X147089200Y-82526000D01*
G37*
G36*
X161789200Y-80426000D02*
G01*
X162689200Y-80426000D01*
X162689200Y-79526000D01*
X161789200Y-79526000D01*
X161789200Y-80426000D01*
G37*
G36*
X159689200Y-80426000D02*
G01*
X160589200Y-80426000D01*
X160589200Y-79526000D01*
X159689200Y-79526000D01*
X159689200Y-80426000D01*
G37*
G36*
X157589200Y-80426000D02*
G01*
X158489200Y-80426000D01*
X158489200Y-79526000D01*
X157589200Y-79526000D01*
X157589200Y-80426000D01*
G37*
G36*
X155489200Y-80426000D02*
G01*
X156389200Y-80426000D01*
X156389200Y-79526000D01*
X155489200Y-79526000D01*
X155489200Y-80426000D01*
G37*
G36*
X161789200Y-78376000D02*
G01*
X162689200Y-78376000D01*
X162689200Y-77476000D01*
X161789200Y-77476000D01*
X161789200Y-78376000D01*
G37*
G36*
X159689200Y-78376000D02*
G01*
X160589200Y-78376000D01*
X160589200Y-77476000D01*
X159689200Y-77476000D01*
X159689200Y-78376000D01*
G37*
G36*
X157589200Y-78376000D02*
G01*
X158489200Y-78376000D01*
X158489200Y-77476000D01*
X157589200Y-77476000D01*
X157589200Y-78376000D01*
G37*
G36*
X155489200Y-78376000D02*
G01*
X156389200Y-78376000D01*
X156389200Y-77476000D01*
X155489200Y-77476000D01*
X155489200Y-78376000D01*
G37*
G36*
X161789200Y-76326000D02*
G01*
X162689200Y-76326000D01*
X162689200Y-75426000D01*
X161789200Y-75426000D01*
X161789200Y-76326000D01*
G37*
G36*
X159689200Y-76326000D02*
G01*
X160589200Y-76326000D01*
X160589200Y-75426000D01*
X159689200Y-75426000D01*
X159689200Y-76326000D01*
G37*
G36*
X157589200Y-76326000D02*
G01*
X158489200Y-76326000D01*
X158489200Y-75426000D01*
X157589200Y-75426000D01*
X157589200Y-76326000D01*
G37*
G36*
X155489200Y-76326000D02*
G01*
X156389200Y-76326000D01*
X156389200Y-75426000D01*
X155489200Y-75426000D01*
X155489200Y-76326000D01*
G37*
G36*
X161789200Y-86626000D02*
G01*
X162689200Y-86626000D01*
X162689200Y-85726000D01*
X161789200Y-85726000D01*
X161789200Y-86626000D01*
G37*
G36*
X159689200Y-86626000D02*
G01*
X160589200Y-86626000D01*
X160589200Y-85726000D01*
X159689200Y-85726000D01*
X159689200Y-86626000D01*
G37*
G36*
X157589200Y-86626000D02*
G01*
X158489200Y-86626000D01*
X158489200Y-85726000D01*
X157589200Y-85726000D01*
X157589200Y-86626000D01*
G37*
G36*
X155489200Y-86626000D02*
G01*
X156389200Y-86626000D01*
X156389200Y-85726000D01*
X155489200Y-85726000D01*
X155489200Y-86626000D01*
G37*
G36*
X161789200Y-84576000D02*
G01*
X162689200Y-84576000D01*
X162689200Y-83676000D01*
X161789200Y-83676000D01*
X161789200Y-84576000D01*
G37*
G36*
X159689200Y-84576000D02*
G01*
X160589200Y-84576000D01*
X160589200Y-83676000D01*
X159689200Y-83676000D01*
X159689200Y-84576000D01*
G37*
G36*
X157589200Y-84576000D02*
G01*
X158489200Y-84576000D01*
X158489200Y-83676000D01*
X157589200Y-83676000D01*
X157589200Y-84576000D01*
G37*
G36*
X155489200Y-84576000D02*
G01*
X156389200Y-84576000D01*
X156389200Y-83676000D01*
X155489200Y-83676000D01*
X155489200Y-84576000D01*
G37*
G36*
X161789200Y-82526000D02*
G01*
X162689200Y-82526000D01*
X162689200Y-81626000D01*
X161789200Y-81626000D01*
X161789200Y-82526000D01*
G37*
G36*
X159689200Y-82526000D02*
G01*
X160589200Y-82526000D01*
X160589200Y-81626000D01*
X159689200Y-81626000D01*
X159689200Y-82526000D01*
G37*
G36*
X157589200Y-82526000D02*
G01*
X158489200Y-82526000D01*
X158489200Y-81626000D01*
X157589200Y-81626000D01*
X157589200Y-82526000D01*
G37*
G36*
X155489200Y-82526000D02*
G01*
X156389200Y-82526000D01*
X156389200Y-81626000D01*
X155489200Y-81626000D01*
X155489200Y-82526000D01*
G37*
%TD*%
%TO.C,R5*%
G36*
G01*
X131937200Y-92279000D02*
X131937200Y-92754000D01*
G75*
G02*
X131699700Y-92991500I-237500J0D01*
G01*
X131124700Y-92991500D01*
G75*
G02*
X130887200Y-92754000I0J237500D01*
G01*
X130887200Y-92279000D01*
G75*
G02*
X131124700Y-92041500I237500J0D01*
G01*
X131699700Y-92041500D01*
G75*
G02*
X131937200Y-92279000I0J-237500D01*
G01*
G37*
G36*
G01*
X133687200Y-92279000D02*
X133687200Y-92754000D01*
G75*
G02*
X133449700Y-92991500I-237500J0D01*
G01*
X132874700Y-92991500D01*
G75*
G02*
X132637200Y-92754000I0J237500D01*
G01*
X132637200Y-92279000D01*
G75*
G02*
X132874700Y-92041500I237500J0D01*
G01*
X133449700Y-92041500D01*
G75*
G02*
X133687200Y-92279000I0J-237500D01*
G01*
G37*
%TD*%
%TO.C,R14*%
G36*
G01*
X152850000Y-91737500D02*
X152850000Y-91262500D01*
G75*
G02*
X153087500Y-91025000I237500J0D01*
G01*
X153662500Y-91025000D01*
G75*
G02*
X153900000Y-91262500I0J-237500D01*
G01*
X153900000Y-91737500D01*
G75*
G02*
X153662500Y-91975000I-237500J0D01*
G01*
X153087500Y-91975000D01*
G75*
G02*
X152850000Y-91737500I0J237500D01*
G01*
G37*
G36*
G01*
X151100000Y-91737500D02*
X151100000Y-91262500D01*
G75*
G02*
X151337500Y-91025000I237500J0D01*
G01*
X151912500Y-91025000D01*
G75*
G02*
X152150000Y-91262500I0J-237500D01*
G01*
X152150000Y-91737500D01*
G75*
G02*
X151912500Y-91975000I-237500J0D01*
G01*
X151337500Y-91975000D01*
G75*
G02*
X151100000Y-91737500I0J237500D01*
G01*
G37*
%TD*%
%TO.C,R7*%
G36*
G01*
X182150000Y-90962500D02*
X182150000Y-90487500D01*
G75*
G02*
X182387500Y-90250000I237500J0D01*
G01*
X182962500Y-90250000D01*
G75*
G02*
X183200000Y-90487500I0J-237500D01*
G01*
X183200000Y-90962500D01*
G75*
G02*
X182962500Y-91200000I-237500J0D01*
G01*
X182387500Y-91200000D01*
G75*
G02*
X182150000Y-90962500I0J237500D01*
G01*
G37*
G36*
G01*
X180400000Y-90962500D02*
X180400000Y-90487500D01*
G75*
G02*
X180637500Y-90250000I237500J0D01*
G01*
X181212500Y-90250000D01*
G75*
G02*
X181450000Y-90487500I0J-237500D01*
G01*
X181450000Y-90962500D01*
G75*
G02*
X181212500Y-91200000I-237500J0D01*
G01*
X180637500Y-91200000D01*
G75*
G02*
X180400000Y-90962500I0J237500D01*
G01*
G37*
%TD*%
%TO.C,R27*%
G36*
G01*
X181200000Y-70937500D02*
X181200000Y-70462500D01*
G75*
G02*
X181437500Y-70225000I237500J0D01*
G01*
X182012500Y-70225000D01*
G75*
G02*
X182250000Y-70462500I0J-237500D01*
G01*
X182250000Y-70937500D01*
G75*
G02*
X182012500Y-71175000I-237500J0D01*
G01*
X181437500Y-71175000D01*
G75*
G02*
X181200000Y-70937500I0J237500D01*
G01*
G37*
G36*
G01*
X179450000Y-70937500D02*
X179450000Y-70462500D01*
G75*
G02*
X179687500Y-70225000I237500J0D01*
G01*
X180262500Y-70225000D01*
G75*
G02*
X180500000Y-70462500I0J-237500D01*
G01*
X180500000Y-70937500D01*
G75*
G02*
X180262500Y-71175000I-237500J0D01*
G01*
X179687500Y-71175000D01*
G75*
G02*
X179450000Y-70937500I0J237500D01*
G01*
G37*
%TD*%
%TO.C,C11*%
G36*
G01*
X187651200Y-69260900D02*
X187651200Y-69735900D01*
G75*
G02*
X187413700Y-69973400I-237500J0D01*
G01*
X186838700Y-69973400D01*
G75*
G02*
X186601200Y-69735900I0J237500D01*
G01*
X186601200Y-69260900D01*
G75*
G02*
X186838700Y-69023400I237500J0D01*
G01*
X187413700Y-69023400D01*
G75*
G02*
X187651200Y-69260900I0J-237500D01*
G01*
G37*
G36*
G01*
X189401200Y-69260900D02*
X189401200Y-69735900D01*
G75*
G02*
X189163700Y-69973400I-237500J0D01*
G01*
X188588700Y-69973400D01*
G75*
G02*
X188351200Y-69735900I0J237500D01*
G01*
X188351200Y-69260900D01*
G75*
G02*
X188588700Y-69023400I237500J0D01*
G01*
X189163700Y-69023400D01*
G75*
G02*
X189401200Y-69260900I0J-237500D01*
G01*
G37*
%TD*%
%TO.C,C10*%
G36*
G01*
X188327600Y-71412300D02*
X188327600Y-70937300D01*
G75*
G02*
X188565100Y-70699800I237500J0D01*
G01*
X189140100Y-70699800D01*
G75*
G02*
X189377600Y-70937300I0J-237500D01*
G01*
X189377600Y-71412300D01*
G75*
G02*
X189140100Y-71649800I-237500J0D01*
G01*
X188565100Y-71649800D01*
G75*
G02*
X188327600Y-71412300I0J237500D01*
G01*
G37*
G36*
G01*
X186577600Y-71412300D02*
X186577600Y-70937300D01*
G75*
G02*
X186815100Y-70699800I237500J0D01*
G01*
X187390100Y-70699800D01*
G75*
G02*
X187627600Y-70937300I0J-237500D01*
G01*
X187627600Y-71412300D01*
G75*
G02*
X187390100Y-71649800I-237500J0D01*
G01*
X186815100Y-71649800D01*
G75*
G02*
X186577600Y-71412300I0J237500D01*
G01*
G37*
%TD*%
%TO.C,C5*%
G36*
G01*
X184037500Y-69550000D02*
X183562500Y-69550000D01*
G75*
G02*
X183325000Y-69312500I0J237500D01*
G01*
X183325000Y-68737500D01*
G75*
G02*
X183562500Y-68500000I237500J0D01*
G01*
X184037500Y-68500000D01*
G75*
G02*
X184275000Y-68737500I0J-237500D01*
G01*
X184275000Y-69312500D01*
G75*
G02*
X184037500Y-69550000I-237500J0D01*
G01*
G37*
G36*
G01*
X184037500Y-71300000D02*
X183562500Y-71300000D01*
G75*
G02*
X183325000Y-71062500I0J237500D01*
G01*
X183325000Y-70487500D01*
G75*
G02*
X183562500Y-70250000I237500J0D01*
G01*
X184037500Y-70250000D01*
G75*
G02*
X184275000Y-70487500I0J-237500D01*
G01*
X184275000Y-71062500D01*
G75*
G02*
X184037500Y-71300000I-237500J0D01*
G01*
G37*
%TD*%
%TO.C,C4*%
G36*
G01*
X181200000Y-69337500D02*
X181200000Y-68862500D01*
G75*
G02*
X181437500Y-68625000I237500J0D01*
G01*
X182012500Y-68625000D01*
G75*
G02*
X182250000Y-68862500I0J-237500D01*
G01*
X182250000Y-69337500D01*
G75*
G02*
X182012500Y-69575000I-237500J0D01*
G01*
X181437500Y-69575000D01*
G75*
G02*
X181200000Y-69337500I0J237500D01*
G01*
G37*
G36*
G01*
X179450000Y-69337500D02*
X179450000Y-68862500D01*
G75*
G02*
X179687500Y-68625000I237500J0D01*
G01*
X180262500Y-68625000D01*
G75*
G02*
X180500000Y-68862500I0J-237500D01*
G01*
X180500000Y-69337500D01*
G75*
G02*
X180262500Y-69575000I-237500J0D01*
G01*
X179687500Y-69575000D01*
G75*
G02*
X179450000Y-69337500I0J237500D01*
G01*
G37*
%TD*%
%TO.C,C3*%
G36*
G01*
X131937200Y-94565000D02*
X131937200Y-95040000D01*
G75*
G02*
X131699700Y-95277500I-237500J0D01*
G01*
X131124700Y-95277500D01*
G75*
G02*
X130887200Y-95040000I0J237500D01*
G01*
X130887200Y-94565000D01*
G75*
G02*
X131124700Y-94327500I237500J0D01*
G01*
X131699700Y-94327500D01*
G75*
G02*
X131937200Y-94565000I0J-237500D01*
G01*
G37*
G36*
G01*
X133687200Y-94565000D02*
X133687200Y-95040000D01*
G75*
G02*
X133449700Y-95277500I-237500J0D01*
G01*
X132874700Y-95277500D01*
G75*
G02*
X132637200Y-95040000I0J237500D01*
G01*
X132637200Y-94565000D01*
G75*
G02*
X132874700Y-94327500I237500J0D01*
G01*
X133449700Y-94327500D01*
G75*
G02*
X133687200Y-94565000I0J-237500D01*
G01*
G37*
%TD*%
%TO.C,R13*%
G36*
G01*
X123737200Y-58551900D02*
X123737200Y-59026900D01*
G75*
G02*
X123499700Y-59264400I-237500J0D01*
G01*
X122924700Y-59264400D01*
G75*
G02*
X122687200Y-59026900I0J237500D01*
G01*
X122687200Y-58551900D01*
G75*
G02*
X122924700Y-58314400I237500J0D01*
G01*
X123499700Y-58314400D01*
G75*
G02*
X123737200Y-58551900I0J-237500D01*
G01*
G37*
G36*
G01*
X125487200Y-58551900D02*
X125487200Y-59026900D01*
G75*
G02*
X125249700Y-59264400I-237500J0D01*
G01*
X124674700Y-59264400D01*
G75*
G02*
X124437200Y-59026900I0J237500D01*
G01*
X124437200Y-58551900D01*
G75*
G02*
X124674700Y-58314400I237500J0D01*
G01*
X125249700Y-58314400D01*
G75*
G02*
X125487200Y-58551900I0J-237500D01*
G01*
G37*
%TD*%
%TO.C,R12*%
G36*
G01*
X123737200Y-61441100D02*
X123737200Y-61916100D01*
G75*
G02*
X123499700Y-62153600I-237500J0D01*
G01*
X122924700Y-62153600D01*
G75*
G02*
X122687200Y-61916100I0J237500D01*
G01*
X122687200Y-61441100D01*
G75*
G02*
X122924700Y-61203600I237500J0D01*
G01*
X123499700Y-61203600D01*
G75*
G02*
X123737200Y-61441100I0J-237500D01*
G01*
G37*
G36*
G01*
X125487200Y-61441100D02*
X125487200Y-61916100D01*
G75*
G02*
X125249700Y-62153600I-237500J0D01*
G01*
X124674700Y-62153600D01*
G75*
G02*
X124437200Y-61916100I0J237500D01*
G01*
X124437200Y-61441100D01*
G75*
G02*
X124674700Y-61203600I237500J0D01*
G01*
X125249700Y-61203600D01*
G75*
G02*
X125487200Y-61441100I0J-237500D01*
G01*
G37*
%TD*%
%TO.C,R11*%
G36*
G01*
X123737200Y-64131100D02*
X123737200Y-64606100D01*
G75*
G02*
X123499700Y-64843600I-237500J0D01*
G01*
X122924700Y-64843600D01*
G75*
G02*
X122687200Y-64606100I0J237500D01*
G01*
X122687200Y-64131100D01*
G75*
G02*
X122924700Y-63893600I237500J0D01*
G01*
X123499700Y-63893600D01*
G75*
G02*
X123737200Y-64131100I0J-237500D01*
G01*
G37*
G36*
G01*
X125487200Y-64131100D02*
X125487200Y-64606100D01*
G75*
G02*
X125249700Y-64843600I-237500J0D01*
G01*
X124674700Y-64843600D01*
G75*
G02*
X124437200Y-64606100I0J237500D01*
G01*
X124437200Y-64131100D01*
G75*
G02*
X124674700Y-63893600I237500J0D01*
G01*
X125249700Y-63893600D01*
G75*
G02*
X125487200Y-64131100I0J-237500D01*
G01*
G37*
%TD*%
%TO.C,R21*%
G36*
G01*
X126409600Y-72406500D02*
X126409600Y-72881500D01*
G75*
G02*
X126172100Y-73119000I-237500J0D01*
G01*
X125597100Y-73119000D01*
G75*
G02*
X125359600Y-72881500I0J237500D01*
G01*
X125359600Y-72406500D01*
G75*
G02*
X125597100Y-72169000I237500J0D01*
G01*
X126172100Y-72169000D01*
G75*
G02*
X126409600Y-72406500I0J-237500D01*
G01*
G37*
G36*
G01*
X128159600Y-72406500D02*
X128159600Y-72881500D01*
G75*
G02*
X127922100Y-73119000I-237500J0D01*
G01*
X127347100Y-73119000D01*
G75*
G02*
X127109600Y-72881500I0J237500D01*
G01*
X127109600Y-72406500D01*
G75*
G02*
X127347100Y-72169000I237500J0D01*
G01*
X127922100Y-72169000D01*
G75*
G02*
X128159600Y-72406500I0J-237500D01*
G01*
G37*
%TD*%
%TO.C,R20*%
G36*
G01*
X126409600Y-77486500D02*
X126409600Y-77961500D01*
G75*
G02*
X126172100Y-78199000I-237500J0D01*
G01*
X125597100Y-78199000D01*
G75*
G02*
X125359600Y-77961500I0J237500D01*
G01*
X125359600Y-77486500D01*
G75*
G02*
X125597100Y-77249000I237500J0D01*
G01*
X126172100Y-77249000D01*
G75*
G02*
X126409600Y-77486500I0J-237500D01*
G01*
G37*
G36*
G01*
X128159600Y-77486500D02*
X128159600Y-77961500D01*
G75*
G02*
X127922100Y-78199000I-237500J0D01*
G01*
X127347100Y-78199000D01*
G75*
G02*
X127109600Y-77961500I0J237500D01*
G01*
X127109600Y-77486500D01*
G75*
G02*
X127347100Y-77249000I237500J0D01*
G01*
X127922100Y-77249000D01*
G75*
G02*
X128159600Y-77486500I0J-237500D01*
G01*
G37*
%TD*%
%TO.C,R19*%
G36*
G01*
X126409600Y-74946500D02*
X126409600Y-75421500D01*
G75*
G02*
X126172100Y-75659000I-237500J0D01*
G01*
X125597100Y-75659000D01*
G75*
G02*
X125359600Y-75421500I0J237500D01*
G01*
X125359600Y-74946500D01*
G75*
G02*
X125597100Y-74709000I237500J0D01*
G01*
X126172100Y-74709000D01*
G75*
G02*
X126409600Y-74946500I0J-237500D01*
G01*
G37*
G36*
G01*
X128159600Y-74946500D02*
X128159600Y-75421500D01*
G75*
G02*
X127922100Y-75659000I-237500J0D01*
G01*
X127347100Y-75659000D01*
G75*
G02*
X127109600Y-75421500I0J237500D01*
G01*
X127109600Y-74946500D01*
G75*
G02*
X127347100Y-74709000I237500J0D01*
G01*
X127922100Y-74709000D01*
G75*
G02*
X128159600Y-74946500I0J-237500D01*
G01*
G37*
%TD*%
%TO.C,R18*%
G36*
G01*
X126409600Y-80026500D02*
X126409600Y-80501500D01*
G75*
G02*
X126172100Y-80739000I-237500J0D01*
G01*
X125597100Y-80739000D01*
G75*
G02*
X125359600Y-80501500I0J237500D01*
G01*
X125359600Y-80026500D01*
G75*
G02*
X125597100Y-79789000I237500J0D01*
G01*
X126172100Y-79789000D01*
G75*
G02*
X126409600Y-80026500I0J-237500D01*
G01*
G37*
G36*
G01*
X128159600Y-80026500D02*
X128159600Y-80501500D01*
G75*
G02*
X127922100Y-80739000I-237500J0D01*
G01*
X127347100Y-80739000D01*
G75*
G02*
X127109600Y-80501500I0J237500D01*
G01*
X127109600Y-80026500D01*
G75*
G02*
X127347100Y-79789000I237500J0D01*
G01*
X127922100Y-79789000D01*
G75*
G02*
X128159600Y-80026500I0J-237500D01*
G01*
G37*
%TD*%
%TO.C,R6*%
G36*
G01*
X198916300Y-68622800D02*
X198441300Y-68622800D01*
G75*
G02*
X198203800Y-68385300I0J237500D01*
G01*
X198203800Y-67810300D01*
G75*
G02*
X198441300Y-67572800I237500J0D01*
G01*
X198916300Y-67572800D01*
G75*
G02*
X199153800Y-67810300I0J-237500D01*
G01*
X199153800Y-68385300D01*
G75*
G02*
X198916300Y-68622800I-237500J0D01*
G01*
G37*
G36*
G01*
X198916300Y-70372800D02*
X198441300Y-70372800D01*
G75*
G02*
X198203800Y-70135300I0J237500D01*
G01*
X198203800Y-69560300D01*
G75*
G02*
X198441300Y-69322800I237500J0D01*
G01*
X198916300Y-69322800D01*
G75*
G02*
X199153800Y-69560300I0J-237500D01*
G01*
X199153800Y-70135300D01*
G75*
G02*
X198916300Y-70372800I-237500J0D01*
G01*
G37*
%TD*%
%TO.C,R4*%
G36*
G01*
X197138300Y-68622800D02*
X196663300Y-68622800D01*
G75*
G02*
X196425800Y-68385300I0J237500D01*
G01*
X196425800Y-67810300D01*
G75*
G02*
X196663300Y-67572800I237500J0D01*
G01*
X197138300Y-67572800D01*
G75*
G02*
X197375800Y-67810300I0J-237500D01*
G01*
X197375800Y-68385300D01*
G75*
G02*
X197138300Y-68622800I-237500J0D01*
G01*
G37*
G36*
G01*
X197138300Y-70372800D02*
X196663300Y-70372800D01*
G75*
G02*
X196425800Y-70135300I0J237500D01*
G01*
X196425800Y-69560300D01*
G75*
G02*
X196663300Y-69322800I237500J0D01*
G01*
X197138300Y-69322800D01*
G75*
G02*
X197375800Y-69560300I0J-237500D01*
G01*
X197375800Y-70135300D01*
G75*
G02*
X197138300Y-70372800I-237500J0D01*
G01*
G37*
%TD*%
%TO.C,C6*%
G36*
G01*
X144187500Y-68400000D02*
X144662500Y-68400000D01*
G75*
G02*
X144900000Y-68637500I0J-237500D01*
G01*
X144900000Y-69212500D01*
G75*
G02*
X144662500Y-69450000I-237500J0D01*
G01*
X144187500Y-69450000D01*
G75*
G02*
X143950000Y-69212500I0J237500D01*
G01*
X143950000Y-68637500D01*
G75*
G02*
X144187500Y-68400000I237500J0D01*
G01*
G37*
G36*
G01*
X144187500Y-66650000D02*
X144662500Y-66650000D01*
G75*
G02*
X144900000Y-66887500I0J-237500D01*
G01*
X144900000Y-67462500D01*
G75*
G02*
X144662500Y-67700000I-237500J0D01*
G01*
X144187500Y-67700000D01*
G75*
G02*
X143950000Y-67462500I0J237500D01*
G01*
X143950000Y-66887500D01*
G75*
G02*
X144187500Y-66650000I237500J0D01*
G01*
G37*
%TD*%
%TO.C,R32*%
G36*
G01*
X203883280Y-85429100D02*
X203883280Y-84954100D01*
G75*
G02*
X204120780Y-84716600I237500J0D01*
G01*
X204695780Y-84716600D01*
G75*
G02*
X204933280Y-84954100I0J-237500D01*
G01*
X204933280Y-85429100D01*
G75*
G02*
X204695780Y-85666600I-237500J0D01*
G01*
X204120780Y-85666600D01*
G75*
G02*
X203883280Y-85429100I0J237500D01*
G01*
G37*
G36*
G01*
X202133280Y-85429100D02*
X202133280Y-84954100D01*
G75*
G02*
X202370780Y-84716600I237500J0D01*
G01*
X202945780Y-84716600D01*
G75*
G02*
X203183280Y-84954100I0J-237500D01*
G01*
X203183280Y-85429100D01*
G75*
G02*
X202945780Y-85666600I-237500J0D01*
G01*
X202370780Y-85666600D01*
G75*
G02*
X202133280Y-85429100I0J237500D01*
G01*
G37*
%TD*%
%TO.C,R8*%
G36*
G01*
X159846000Y-67138000D02*
X160321000Y-67138000D01*
G75*
G02*
X160558500Y-67375500I0J-237500D01*
G01*
X160558500Y-67950500D01*
G75*
G02*
X160321000Y-68188000I-237500J0D01*
G01*
X159846000Y-68188000D01*
G75*
G02*
X159608500Y-67950500I0J237500D01*
G01*
X159608500Y-67375500D01*
G75*
G02*
X159846000Y-67138000I237500J0D01*
G01*
G37*
G36*
G01*
X159846000Y-65388000D02*
X160321000Y-65388000D01*
G75*
G02*
X160558500Y-65625500I0J-237500D01*
G01*
X160558500Y-66200500D01*
G75*
G02*
X160321000Y-66438000I-237500J0D01*
G01*
X159846000Y-66438000D01*
G75*
G02*
X159608500Y-66200500I0J237500D01*
G01*
X159608500Y-65625500D01*
G75*
G02*
X159846000Y-65388000I237500J0D01*
G01*
G37*
%TD*%
%TO.C,R25*%
G36*
G01*
X126409600Y-67326500D02*
X126409600Y-67801500D01*
G75*
G02*
X126172100Y-68039000I-237500J0D01*
G01*
X125597100Y-68039000D01*
G75*
G02*
X125359600Y-67801500I0J237500D01*
G01*
X125359600Y-67326500D01*
G75*
G02*
X125597100Y-67089000I237500J0D01*
G01*
X126172100Y-67089000D01*
G75*
G02*
X126409600Y-67326500I0J-237500D01*
G01*
G37*
G36*
G01*
X128159600Y-67326500D02*
X128159600Y-67801500D01*
G75*
G02*
X127922100Y-68039000I-237500J0D01*
G01*
X127347100Y-68039000D01*
G75*
G02*
X127109600Y-67801500I0J237500D01*
G01*
X127109600Y-67326500D01*
G75*
G02*
X127347100Y-67089000I237500J0D01*
G01*
X127922100Y-67089000D01*
G75*
G02*
X128159600Y-67326500I0J-237500D01*
G01*
G37*
%TD*%
%TO.C,R24*%
G36*
G01*
X126409600Y-69866500D02*
X126409600Y-70341500D01*
G75*
G02*
X126172100Y-70579000I-237500J0D01*
G01*
X125597100Y-70579000D01*
G75*
G02*
X125359600Y-70341500I0J237500D01*
G01*
X125359600Y-69866500D01*
G75*
G02*
X125597100Y-69629000I237500J0D01*
G01*
X126172100Y-69629000D01*
G75*
G02*
X126409600Y-69866500I0J-237500D01*
G01*
G37*
G36*
G01*
X128159600Y-69866500D02*
X128159600Y-70341500D01*
G75*
G02*
X127922100Y-70579000I-237500J0D01*
G01*
X127347100Y-70579000D01*
G75*
G02*
X127109600Y-70341500I0J237500D01*
G01*
X127109600Y-69866500D01*
G75*
G02*
X127347100Y-69629000I237500J0D01*
G01*
X127922100Y-69629000D01*
G75*
G02*
X128159600Y-69866500I0J-237500D01*
G01*
G37*
%TD*%
%TO.C,R33*%
G36*
G01*
X204014640Y-80349100D02*
X204014640Y-79874100D01*
G75*
G02*
X204252140Y-79636600I237500J0D01*
G01*
X204827140Y-79636600D01*
G75*
G02*
X205064640Y-79874100I0J-237500D01*
G01*
X205064640Y-80349100D01*
G75*
G02*
X204827140Y-80586600I-237500J0D01*
G01*
X204252140Y-80586600D01*
G75*
G02*
X204014640Y-80349100I0J237500D01*
G01*
G37*
G36*
G01*
X202264640Y-80349100D02*
X202264640Y-79874100D01*
G75*
G02*
X202502140Y-79636600I237500J0D01*
G01*
X203077140Y-79636600D01*
G75*
G02*
X203314640Y-79874100I0J-237500D01*
G01*
X203314640Y-80349100D01*
G75*
G02*
X203077140Y-80586600I-237500J0D01*
G01*
X202502140Y-80586600D01*
G75*
G02*
X202264640Y-80349100I0J237500D01*
G01*
G37*
%TD*%
%TO.C,R29*%
G36*
G01*
X203817600Y-87969100D02*
X203817600Y-87494100D01*
G75*
G02*
X204055100Y-87256600I237500J0D01*
G01*
X204630100Y-87256600D01*
G75*
G02*
X204867600Y-87494100I0J-237500D01*
G01*
X204867600Y-87969100D01*
G75*
G02*
X204630100Y-88206600I-237500J0D01*
G01*
X204055100Y-88206600D01*
G75*
G02*
X203817600Y-87969100I0J237500D01*
G01*
G37*
G36*
G01*
X202067600Y-87969100D02*
X202067600Y-87494100D01*
G75*
G02*
X202305100Y-87256600I237500J0D01*
G01*
X202880100Y-87256600D01*
G75*
G02*
X203117600Y-87494100I0J-237500D01*
G01*
X203117600Y-87969100D01*
G75*
G02*
X202880100Y-88206600I-237500J0D01*
G01*
X202305100Y-88206600D01*
G75*
G02*
X202067600Y-87969100I0J237500D01*
G01*
G37*
%TD*%
%TO.C,R28*%
G36*
G01*
X203948960Y-82889100D02*
X203948960Y-82414100D01*
G75*
G02*
X204186460Y-82176600I237500J0D01*
G01*
X204761460Y-82176600D01*
G75*
G02*
X204998960Y-82414100I0J-237500D01*
G01*
X204998960Y-82889100D01*
G75*
G02*
X204761460Y-83126600I-237500J0D01*
G01*
X204186460Y-83126600D01*
G75*
G02*
X203948960Y-82889100I0J237500D01*
G01*
G37*
G36*
G01*
X202198960Y-82889100D02*
X202198960Y-82414100D01*
G75*
G02*
X202436460Y-82176600I237500J0D01*
G01*
X203011460Y-82176600D01*
G75*
G02*
X203248960Y-82414100I0J-237500D01*
G01*
X203248960Y-82889100D01*
G75*
G02*
X203011460Y-83126600I-237500J0D01*
G01*
X202436460Y-83126600D01*
G75*
G02*
X202198960Y-82889100I0J237500D01*
G01*
G37*
%TD*%
%TO.C,R1*%
G36*
G01*
X202683200Y-61004300D02*
X202683200Y-61479300D01*
G75*
G02*
X202445700Y-61716800I-237500J0D01*
G01*
X201870700Y-61716800D01*
G75*
G02*
X201633200Y-61479300I0J237500D01*
G01*
X201633200Y-61004300D01*
G75*
G02*
X201870700Y-60766800I237500J0D01*
G01*
X202445700Y-60766800D01*
G75*
G02*
X202683200Y-61004300I0J-237500D01*
G01*
G37*
G36*
G01*
X204433200Y-61004300D02*
X204433200Y-61479300D01*
G75*
G02*
X204195700Y-61716800I-237500J0D01*
G01*
X203620700Y-61716800D01*
G75*
G02*
X203383200Y-61479300I0J237500D01*
G01*
X203383200Y-61004300D01*
G75*
G02*
X203620700Y-60766800I237500J0D01*
G01*
X204195700Y-60766800D01*
G75*
G02*
X204433200Y-61004300I0J-237500D01*
G01*
G37*
%TD*%
%TO.C,R37*%
G36*
G01*
X202833200Y-63865000D02*
X202833200Y-64340000D01*
G75*
G02*
X202595700Y-64577500I-237500J0D01*
G01*
X202020700Y-64577500D01*
G75*
G02*
X201783200Y-64340000I0J237500D01*
G01*
X201783200Y-63865000D01*
G75*
G02*
X202020700Y-63627500I237500J0D01*
G01*
X202595700Y-63627500D01*
G75*
G02*
X202833200Y-63865000I0J-237500D01*
G01*
G37*
G36*
G01*
X204583200Y-63865000D02*
X204583200Y-64340000D01*
G75*
G02*
X204345700Y-64577500I-237500J0D01*
G01*
X203770700Y-64577500D01*
G75*
G02*
X203533200Y-64340000I0J237500D01*
G01*
X203533200Y-63865000D01*
G75*
G02*
X203770700Y-63627500I237500J0D01*
G01*
X204345700Y-63627500D01*
G75*
G02*
X204583200Y-63865000I0J-237500D01*
G01*
G37*
%TD*%
%TO.C,R36*%
G36*
G01*
X202872200Y-67294000D02*
X202872200Y-67769000D01*
G75*
G02*
X202634700Y-68006500I-237500J0D01*
G01*
X202059700Y-68006500D01*
G75*
G02*
X201822200Y-67769000I0J237500D01*
G01*
X201822200Y-67294000D01*
G75*
G02*
X202059700Y-67056500I237500J0D01*
G01*
X202634700Y-67056500D01*
G75*
G02*
X202872200Y-67294000I0J-237500D01*
G01*
G37*
G36*
G01*
X204622200Y-67294000D02*
X204622200Y-67769000D01*
G75*
G02*
X204384700Y-68006500I-237500J0D01*
G01*
X203809700Y-68006500D01*
G75*
G02*
X203572200Y-67769000I0J237500D01*
G01*
X203572200Y-67294000D01*
G75*
G02*
X203809700Y-67056500I237500J0D01*
G01*
X204384700Y-67056500D01*
G75*
G02*
X204622200Y-67294000I0J-237500D01*
G01*
G37*
%TD*%
%TO.C,R35*%
G36*
G01*
X202833200Y-70596000D02*
X202833200Y-71071000D01*
G75*
G02*
X202595700Y-71308500I-237500J0D01*
G01*
X202020700Y-71308500D01*
G75*
G02*
X201783200Y-71071000I0J237500D01*
G01*
X201783200Y-70596000D01*
G75*
G02*
X202020700Y-70358500I237500J0D01*
G01*
X202595700Y-70358500D01*
G75*
G02*
X202833200Y-70596000I0J-237500D01*
G01*
G37*
G36*
G01*
X204583200Y-70596000D02*
X204583200Y-71071000D01*
G75*
G02*
X204345700Y-71308500I-237500J0D01*
G01*
X203770700Y-71308500D01*
G75*
G02*
X203533200Y-71071000I0J237500D01*
G01*
X203533200Y-70596000D01*
G75*
G02*
X203770700Y-70358500I237500J0D01*
G01*
X204345700Y-70358500D01*
G75*
G02*
X204583200Y-70596000I0J-237500D01*
G01*
G37*
%TD*%
%TO.C,R31*%
G36*
G01*
X204080320Y-75269100D02*
X204080320Y-74794100D01*
G75*
G02*
X204317820Y-74556600I237500J0D01*
G01*
X204892820Y-74556600D01*
G75*
G02*
X205130320Y-74794100I0J-237500D01*
G01*
X205130320Y-75269100D01*
G75*
G02*
X204892820Y-75506600I-237500J0D01*
G01*
X204317820Y-75506600D01*
G75*
G02*
X204080320Y-75269100I0J237500D01*
G01*
G37*
G36*
G01*
X202330320Y-75269100D02*
X202330320Y-74794100D01*
G75*
G02*
X202567820Y-74556600I237500J0D01*
G01*
X203142820Y-74556600D01*
G75*
G02*
X203380320Y-74794100I0J-237500D01*
G01*
X203380320Y-75269100D01*
G75*
G02*
X203142820Y-75506600I-237500J0D01*
G01*
X202567820Y-75506600D01*
G75*
G02*
X202330320Y-75269100I0J237500D01*
G01*
G37*
%TD*%
%TO.C,R30*%
G36*
G01*
X204146000Y-77809100D02*
X204146000Y-77334100D01*
G75*
G02*
X204383500Y-77096600I237500J0D01*
G01*
X204958500Y-77096600D01*
G75*
G02*
X205196000Y-77334100I0J-237500D01*
G01*
X205196000Y-77809100D01*
G75*
G02*
X204958500Y-78046600I-237500J0D01*
G01*
X204383500Y-78046600D01*
G75*
G02*
X204146000Y-77809100I0J237500D01*
G01*
G37*
G36*
G01*
X202396000Y-77809100D02*
X202396000Y-77334100D01*
G75*
G02*
X202633500Y-77096600I237500J0D01*
G01*
X203208500Y-77096600D01*
G75*
G02*
X203446000Y-77334100I0J-237500D01*
G01*
X203446000Y-77809100D01*
G75*
G02*
X203208500Y-78046600I-237500J0D01*
G01*
X202633500Y-78046600D01*
G75*
G02*
X202396000Y-77809100I0J237500D01*
G01*
G37*
%TD*%
%TO.C,R39*%
G36*
G01*
X140700000Y-75762500D02*
X140700000Y-76237500D01*
G75*
G02*
X140462500Y-76475000I-237500J0D01*
G01*
X139887500Y-76475000D01*
G75*
G02*
X139650000Y-76237500I0J237500D01*
G01*
X139650000Y-75762500D01*
G75*
G02*
X139887500Y-75525000I237500J0D01*
G01*
X140462500Y-75525000D01*
G75*
G02*
X140700000Y-75762500I0J-237500D01*
G01*
G37*
G36*
G01*
X142450000Y-75762500D02*
X142450000Y-76237500D01*
G75*
G02*
X142212500Y-76475000I-237500J0D01*
G01*
X141637500Y-76475000D01*
G75*
G02*
X141400000Y-76237500I0J237500D01*
G01*
X141400000Y-75762500D01*
G75*
G02*
X141637500Y-75525000I237500J0D01*
G01*
X142212500Y-75525000D01*
G75*
G02*
X142450000Y-75762500I0J-237500D01*
G01*
G37*
%TD*%
%TO.C,R38*%
G36*
G01*
X140700000Y-74012500D02*
X140700000Y-74487500D01*
G75*
G02*
X140462500Y-74725000I-237500J0D01*
G01*
X139887500Y-74725000D01*
G75*
G02*
X139650000Y-74487500I0J237500D01*
G01*
X139650000Y-74012500D01*
G75*
G02*
X139887500Y-73775000I237500J0D01*
G01*
X140462500Y-73775000D01*
G75*
G02*
X140700000Y-74012500I0J-237500D01*
G01*
G37*
G36*
G01*
X142450000Y-74012500D02*
X142450000Y-74487500D01*
G75*
G02*
X142212500Y-74725000I-237500J0D01*
G01*
X141637500Y-74725000D01*
G75*
G02*
X141400000Y-74487500I0J237500D01*
G01*
X141400000Y-74012500D01*
G75*
G02*
X141637500Y-73775000I237500J0D01*
G01*
X142212500Y-73775000D01*
G75*
G02*
X142450000Y-74012500I0J-237500D01*
G01*
G37*
%TD*%
%TO.C,R23*%
G36*
G01*
X168737500Y-72300000D02*
X168262500Y-72300000D01*
G75*
G02*
X168025000Y-72062500I0J237500D01*
G01*
X168025000Y-71487500D01*
G75*
G02*
X168262500Y-71250000I237500J0D01*
G01*
X168737500Y-71250000D01*
G75*
G02*
X168975000Y-71487500I0J-237500D01*
G01*
X168975000Y-72062500D01*
G75*
G02*
X168737500Y-72300000I-237500J0D01*
G01*
G37*
G36*
G01*
X168737500Y-74050000D02*
X168262500Y-74050000D01*
G75*
G02*
X168025000Y-73812500I0J237500D01*
G01*
X168025000Y-73237500D01*
G75*
G02*
X168262500Y-73000000I237500J0D01*
G01*
X168737500Y-73000000D01*
G75*
G02*
X168975000Y-73237500I0J-237500D01*
G01*
X168975000Y-73812500D01*
G75*
G02*
X168737500Y-74050000I-237500J0D01*
G01*
G37*
%TD*%
%TO.C,R22*%
G36*
G01*
X170637500Y-72250000D02*
X170162500Y-72250000D01*
G75*
G02*
X169925000Y-72012500I0J237500D01*
G01*
X169925000Y-71437500D01*
G75*
G02*
X170162500Y-71200000I237500J0D01*
G01*
X170637500Y-71200000D01*
G75*
G02*
X170875000Y-71437500I0J-237500D01*
G01*
X170875000Y-72012500D01*
G75*
G02*
X170637500Y-72250000I-237500J0D01*
G01*
G37*
G36*
G01*
X170637500Y-74000000D02*
X170162500Y-74000000D01*
G75*
G02*
X169925000Y-73762500I0J237500D01*
G01*
X169925000Y-73187500D01*
G75*
G02*
X170162500Y-72950000I237500J0D01*
G01*
X170637500Y-72950000D01*
G75*
G02*
X170875000Y-73187500I0J-237500D01*
G01*
X170875000Y-73762500D01*
G75*
G02*
X170637500Y-74000000I-237500J0D01*
G01*
G37*
%TD*%
D11*
%TO.C,D1*%
X187450000Y-61975000D03*
X187450000Y-65725000D03*
%TD*%
%TO.C,R17*%
G36*
G01*
X149777600Y-62398900D02*
X149777600Y-62873900D01*
G75*
G02*
X149540100Y-63111400I-237500J0D01*
G01*
X148965100Y-63111400D01*
G75*
G02*
X148727600Y-62873900I0J237500D01*
G01*
X148727600Y-62398900D01*
G75*
G02*
X148965100Y-62161400I237500J0D01*
G01*
X149540100Y-62161400D01*
G75*
G02*
X149777600Y-62398900I0J-237500D01*
G01*
G37*
G36*
G01*
X151527600Y-62398900D02*
X151527600Y-62873900D01*
G75*
G02*
X151290100Y-63111400I-237500J0D01*
G01*
X150715100Y-63111400D01*
G75*
G02*
X150477600Y-62873900I0J237500D01*
G01*
X150477600Y-62398900D01*
G75*
G02*
X150715100Y-62161400I237500J0D01*
G01*
X151290100Y-62161400D01*
G75*
G02*
X151527600Y-62398900I0J-237500D01*
G01*
G37*
%TD*%
%TO.C,R16*%
G36*
G01*
X141080500Y-63060200D02*
X140605500Y-63060200D01*
G75*
G02*
X140368000Y-62822700I0J237500D01*
G01*
X140368000Y-62247700D01*
G75*
G02*
X140605500Y-62010200I237500J0D01*
G01*
X141080500Y-62010200D01*
G75*
G02*
X141318000Y-62247700I0J-237500D01*
G01*
X141318000Y-62822700D01*
G75*
G02*
X141080500Y-63060200I-237500J0D01*
G01*
G37*
G36*
G01*
X141080500Y-64810200D02*
X140605500Y-64810200D01*
G75*
G02*
X140368000Y-64572700I0J237500D01*
G01*
X140368000Y-63997700D01*
G75*
G02*
X140605500Y-63760200I237500J0D01*
G01*
X141080500Y-63760200D01*
G75*
G02*
X141318000Y-63997700I0J-237500D01*
G01*
X141318000Y-64572700D01*
G75*
G02*
X141080500Y-64810200I-237500J0D01*
G01*
G37*
%TD*%
%TO.C,R3*%
G36*
G01*
X165478100Y-62048000D02*
X165478100Y-62523000D01*
G75*
G02*
X165240600Y-62760500I-237500J0D01*
G01*
X164665600Y-62760500D01*
G75*
G02*
X164428100Y-62523000I0J237500D01*
G01*
X164428100Y-62048000D01*
G75*
G02*
X164665600Y-61810500I237500J0D01*
G01*
X165240600Y-61810500D01*
G75*
G02*
X165478100Y-62048000I0J-237500D01*
G01*
G37*
G36*
G01*
X167228100Y-62048000D02*
X167228100Y-62523000D01*
G75*
G02*
X166990600Y-62760500I-237500J0D01*
G01*
X166415600Y-62760500D01*
G75*
G02*
X166178100Y-62523000I0J237500D01*
G01*
X166178100Y-62048000D01*
G75*
G02*
X166415600Y-61810500I237500J0D01*
G01*
X166990600Y-61810500D01*
G75*
G02*
X167228100Y-62048000I0J-237500D01*
G01*
G37*
%TD*%
%TO.C,R2*%
G36*
G01*
X158835100Y-62412500D02*
X158360100Y-62412500D01*
G75*
G02*
X158122600Y-62175000I0J237500D01*
G01*
X158122600Y-61600000D01*
G75*
G02*
X158360100Y-61362500I237500J0D01*
G01*
X158835100Y-61362500D01*
G75*
G02*
X159072600Y-61600000I0J-237500D01*
G01*
X159072600Y-62175000D01*
G75*
G02*
X158835100Y-62412500I-237500J0D01*
G01*
G37*
G36*
G01*
X158835100Y-64162500D02*
X158360100Y-64162500D01*
G75*
G02*
X158122600Y-63925000I0J237500D01*
G01*
X158122600Y-63350000D01*
G75*
G02*
X158360100Y-63112500I237500J0D01*
G01*
X158835100Y-63112500D01*
G75*
G02*
X159072600Y-63350000I0J-237500D01*
G01*
X159072600Y-63925000D01*
G75*
G02*
X158835100Y-64162500I-237500J0D01*
G01*
G37*
%TD*%
%TO.C,C9*%
G36*
G01*
X161687500Y-67152000D02*
X162162500Y-67152000D01*
G75*
G02*
X162400000Y-67389500I0J-237500D01*
G01*
X162400000Y-67964500D01*
G75*
G02*
X162162500Y-68202000I-237500J0D01*
G01*
X161687500Y-68202000D01*
G75*
G02*
X161450000Y-67964500I0J237500D01*
G01*
X161450000Y-67389500D01*
G75*
G02*
X161687500Y-67152000I237500J0D01*
G01*
G37*
G36*
G01*
X161687500Y-65402000D02*
X162162500Y-65402000D01*
G75*
G02*
X162400000Y-65639500I0J-237500D01*
G01*
X162400000Y-66214500D01*
G75*
G02*
X162162500Y-66452000I-237500J0D01*
G01*
X161687500Y-66452000D01*
G75*
G02*
X161450000Y-66214500I0J237500D01*
G01*
X161450000Y-65639500D01*
G75*
G02*
X161687500Y-65402000I237500J0D01*
G01*
G37*
%TD*%
%TO.C,D12*%
X190500000Y-65725000D03*
X190500000Y-61975000D03*
%TD*%
%TO.C,C2*%
G36*
G01*
X152650000Y-70837500D02*
X152650000Y-70362500D01*
G75*
G02*
X152887500Y-70125000I237500J0D01*
G01*
X153462500Y-70125000D01*
G75*
G02*
X153700000Y-70362500I0J-237500D01*
G01*
X153700000Y-70837500D01*
G75*
G02*
X153462500Y-71075000I-237500J0D01*
G01*
X152887500Y-71075000D01*
G75*
G02*
X152650000Y-70837500I0J237500D01*
G01*
G37*
G36*
G01*
X150900000Y-70837500D02*
X150900000Y-70362500D01*
G75*
G02*
X151137500Y-70125000I237500J0D01*
G01*
X151712500Y-70125000D01*
G75*
G02*
X151950000Y-70362500I0J-237500D01*
G01*
X151950000Y-70837500D01*
G75*
G02*
X151712500Y-71075000I-237500J0D01*
G01*
X151137500Y-71075000D01*
G75*
G02*
X150900000Y-70837500I0J237500D01*
G01*
G37*
%TD*%
%TO.C,C7*%
G36*
G01*
X151950000Y-68612500D02*
X151950000Y-69087500D01*
G75*
G02*
X151712500Y-69325000I-237500J0D01*
G01*
X151137500Y-69325000D01*
G75*
G02*
X150900000Y-69087500I0J237500D01*
G01*
X150900000Y-68612500D01*
G75*
G02*
X151137500Y-68375000I237500J0D01*
G01*
X151712500Y-68375000D01*
G75*
G02*
X151950000Y-68612500I0J-237500D01*
G01*
G37*
G36*
G01*
X153700000Y-68612500D02*
X153700000Y-69087500D01*
G75*
G02*
X153462500Y-69325000I-237500J0D01*
G01*
X152887500Y-69325000D01*
G75*
G02*
X152650000Y-69087500I0J237500D01*
G01*
X152650000Y-68612500D01*
G75*
G02*
X152887500Y-68375000I237500J0D01*
G01*
X153462500Y-68375000D01*
G75*
G02*
X153700000Y-68612500I0J-237500D01*
G01*
G37*
%TD*%
%TO.C,R26*%
G36*
G01*
X163402000Y-67138000D02*
X163877000Y-67138000D01*
G75*
G02*
X164114500Y-67375500I0J-237500D01*
G01*
X164114500Y-67950500D01*
G75*
G02*
X163877000Y-68188000I-237500J0D01*
G01*
X163402000Y-68188000D01*
G75*
G02*
X163164500Y-67950500I0J237500D01*
G01*
X163164500Y-67375500D01*
G75*
G02*
X163402000Y-67138000I237500J0D01*
G01*
G37*
G36*
G01*
X163402000Y-65388000D02*
X163877000Y-65388000D01*
G75*
G02*
X164114500Y-65625500I0J-237500D01*
G01*
X164114500Y-66200500D01*
G75*
G02*
X163877000Y-66438000I-237500J0D01*
G01*
X163402000Y-66438000D01*
G75*
G02*
X163164500Y-66200500I0J237500D01*
G01*
X163164500Y-65625500D01*
G75*
G02*
X163402000Y-65388000I237500J0D01*
G01*
G37*
%TD*%
%TO.C,D8*%
X173250000Y-66375000D03*
X173250000Y-62625000D03*
%TD*%
%TO.C,D7*%
X173250000Y-56550000D03*
X173250000Y-60300000D03*
%TD*%
%TO.C,R15*%
G36*
G01*
X151950000Y-66837500D02*
X151950000Y-67312500D01*
G75*
G02*
X151712500Y-67550000I-237500J0D01*
G01*
X151137500Y-67550000D01*
G75*
G02*
X150900000Y-67312500I0J237500D01*
G01*
X150900000Y-66837500D01*
G75*
G02*
X151137500Y-66600000I237500J0D01*
G01*
X151712500Y-66600000D01*
G75*
G02*
X151950000Y-66837500I0J-237500D01*
G01*
G37*
G36*
G01*
X153700000Y-66837500D02*
X153700000Y-67312500D01*
G75*
G02*
X153462500Y-67550000I-237500J0D01*
G01*
X152887500Y-67550000D01*
G75*
G02*
X152650000Y-67312500I0J237500D01*
G01*
X152650000Y-66837500D01*
G75*
G02*
X152887500Y-66600000I237500J0D01*
G01*
X153462500Y-66600000D01*
G75*
G02*
X153700000Y-66837500I0J-237500D01*
G01*
G37*
%TD*%
%TO.C,R9*%
G36*
G01*
X142437500Y-68400000D02*
X142912500Y-68400000D01*
G75*
G02*
X143150000Y-68637500I0J-237500D01*
G01*
X143150000Y-69212500D01*
G75*
G02*
X142912500Y-69450000I-237500J0D01*
G01*
X142437500Y-69450000D01*
G75*
G02*
X142200000Y-69212500I0J237500D01*
G01*
X142200000Y-68637500D01*
G75*
G02*
X142437500Y-68400000I237500J0D01*
G01*
G37*
G36*
G01*
X142437500Y-66650000D02*
X142912500Y-66650000D01*
G75*
G02*
X143150000Y-66887500I0J-237500D01*
G01*
X143150000Y-67462500D01*
G75*
G02*
X142912500Y-67700000I-237500J0D01*
G01*
X142437500Y-67700000D01*
G75*
G02*
X142200000Y-67462500I0J237500D01*
G01*
X142200000Y-66887500D01*
G75*
G02*
X142437500Y-66650000I237500J0D01*
G01*
G37*
%TD*%
D12*
%TO.C,P2*%
X162436000Y-53178900D03*
X159636000Y-53178900D03*
D13*
X161286000Y-57378900D03*
X159286000Y-57378900D03*
X159786000Y-57378900D03*
X160286000Y-57378900D03*
X160786000Y-57378900D03*
X161786000Y-57378900D03*
X162286000Y-57378900D03*
X162786000Y-57378900D03*
D14*
X157936000Y-57378900D03*
X158686000Y-57378900D03*
X163386000Y-57378900D03*
X164136000Y-57378900D03*
X164136000Y-57378900D03*
X163386000Y-57378900D03*
X158686000Y-57378900D03*
X157936000Y-57378900D03*
%TD*%
D12*
%TO.C,P1*%
X146662600Y-53178900D03*
X143862600Y-53178900D03*
D13*
X145512600Y-57378900D03*
X143512600Y-57378900D03*
X144012600Y-57378900D03*
X144512600Y-57378900D03*
X145012600Y-57378900D03*
X146012600Y-57378900D03*
X146512600Y-57378900D03*
X147012600Y-57378900D03*
D14*
X142162600Y-57378900D03*
X142912600Y-57378900D03*
X147612600Y-57378900D03*
X148362600Y-57378900D03*
X148362600Y-57378900D03*
X147612600Y-57378900D03*
X142912600Y-57378900D03*
X142162600Y-57378900D03*
%TD*%
%TO.C,R10*%
G36*
G01*
X145937500Y-68375000D02*
X146412500Y-68375000D01*
G75*
G02*
X146650000Y-68612500I0J-237500D01*
G01*
X146650000Y-69187500D01*
G75*
G02*
X146412500Y-69425000I-237500J0D01*
G01*
X145937500Y-69425000D01*
G75*
G02*
X145700000Y-69187500I0J237500D01*
G01*
X145700000Y-68612500D01*
G75*
G02*
X145937500Y-68375000I237500J0D01*
G01*
G37*
G36*
G01*
X145937500Y-66625000D02*
X146412500Y-66625000D01*
G75*
G02*
X146650000Y-66862500I0J-237500D01*
G01*
X146650000Y-67437500D01*
G75*
G02*
X146412500Y-67675000I-237500J0D01*
G01*
X145937500Y-67675000D01*
G75*
G02*
X145700000Y-67437500I0J237500D01*
G01*
X145700000Y-66862500D01*
G75*
G02*
X145937500Y-66625000I237500J0D01*
G01*
G37*
%TD*%
D15*
%TO.C,D5*%
X161950400Y-63901500D03*
X162900400Y-63901500D03*
X161000400Y-63901500D03*
X161000400Y-61701500D03*
X161950400Y-61701500D03*
X162900400Y-61701500D03*
%TD*%
%TO.C,D6*%
X144490400Y-64760200D03*
X145440400Y-64760200D03*
X143540400Y-64760200D03*
X143540400Y-62560200D03*
X144490400Y-62560200D03*
X145440400Y-62560200D03*
%TD*%
D16*
%TO.C,U4*%
X174454000Y-87575200D03*
X174454000Y-86475200D03*
X174454000Y-85375200D03*
X174454000Y-84275200D03*
X174454000Y-83175200D03*
X174454000Y-82075200D03*
X174454000Y-80975200D03*
X174454000Y-79875200D03*
X174454000Y-78775200D03*
X174454000Y-77675200D03*
X174454000Y-76575200D03*
X174454000Y-75475200D03*
X174454000Y-74375200D03*
D17*
X177254000Y-73525200D03*
X178354000Y-73525200D03*
X179454000Y-73525200D03*
X180554000Y-73525200D03*
X181654000Y-73525200D03*
X182754000Y-73525200D03*
X183854000Y-73525200D03*
X184954000Y-73525200D03*
X186054000Y-73525200D03*
X187154000Y-73525200D03*
X188254000Y-73525200D03*
X189354000Y-73525200D03*
X190454000Y-73525200D03*
X191554000Y-73525200D03*
D16*
X194354000Y-74375200D03*
X194354000Y-75475200D03*
X194354000Y-76575200D03*
X194354000Y-77675200D03*
X194354000Y-78775200D03*
X194354000Y-79875200D03*
X194354000Y-80975200D03*
X194354000Y-82075200D03*
X194354000Y-83175200D03*
X194354000Y-84275200D03*
X194354000Y-85375200D03*
X194354000Y-86475200D03*
X194354000Y-87575200D03*
D17*
X191554000Y-88425200D03*
X190454000Y-88425200D03*
X189354000Y-88425200D03*
X188254000Y-88425200D03*
X187154000Y-88425200D03*
X186054000Y-88425200D03*
X184954000Y-88425200D03*
X183854000Y-88425200D03*
X182754000Y-88425200D03*
X181654000Y-88425200D03*
X180554000Y-88425200D03*
X179454000Y-88425200D03*
X178354000Y-88425200D03*
X177254000Y-88425200D03*
%TD*%
D16*
%TO.C,U3*%
X144939200Y-87626000D03*
X144939200Y-86526000D03*
X144939200Y-85426000D03*
X144939200Y-84326000D03*
X144939200Y-83226000D03*
X144939200Y-82126000D03*
X144939200Y-81026000D03*
X144939200Y-79926000D03*
X144939200Y-78826000D03*
X144939200Y-77726000D03*
X144939200Y-76626000D03*
X144939200Y-75526000D03*
X144939200Y-74426000D03*
D17*
X147739200Y-73576000D03*
X148839200Y-73576000D03*
X149939200Y-73576000D03*
X151039200Y-73576000D03*
X152139200Y-73576000D03*
X153239200Y-73576000D03*
X154339200Y-73576000D03*
X155439200Y-73576000D03*
X156539200Y-73576000D03*
X157639200Y-73576000D03*
X158739200Y-73576000D03*
X159839200Y-73576000D03*
X160939200Y-73576000D03*
X162039200Y-73576000D03*
D16*
X164839200Y-74426000D03*
X164839200Y-75526000D03*
X164839200Y-76626000D03*
X164839200Y-77726000D03*
X164839200Y-78826000D03*
X164839200Y-79926000D03*
X164839200Y-81026000D03*
X164839200Y-82126000D03*
X164839200Y-83226000D03*
X164839200Y-84326000D03*
X164839200Y-85426000D03*
X164839200Y-86526000D03*
X164839200Y-87626000D03*
D17*
X162039200Y-88476000D03*
X160939200Y-88476000D03*
X159839200Y-88476000D03*
X158739200Y-88476000D03*
X157639200Y-88476000D03*
X156539200Y-88476000D03*
X155439200Y-88476000D03*
X154339200Y-88476000D03*
X153239200Y-88476000D03*
X152139200Y-88476000D03*
X151039200Y-88476000D03*
X149939200Y-88476000D03*
X148839200Y-88476000D03*
X147739200Y-88476000D03*
%TD*%
D18*
%TO.C,U1*%
X179200000Y-66800000D03*
X183800000Y-66800000D03*
X181500000Y-66800000D03*
D19*
X181500000Y-60500000D03*
%TD*%
%TO.C,LED1*%
G36*
G01*
X205390000Y-60714000D02*
X206090000Y-60714000D01*
G75*
G02*
X206240000Y-60864000I0J-150000D01*
G01*
X206240000Y-61564000D01*
G75*
G02*
X206090000Y-61714000I-150000J0D01*
G01*
X205390000Y-61714000D01*
G75*
G02*
X205240000Y-61564000I0J150000D01*
G01*
X205240000Y-60864000D01*
G75*
G02*
X205390000Y-60714000I150000J0D01*
G01*
G37*
G36*
G01*
X207144000Y-60714000D02*
X207844000Y-60714000D01*
G75*
G02*
X207994000Y-60864000I0J-150000D01*
G01*
X207994000Y-61564000D01*
G75*
G02*
X207844000Y-61714000I-150000J0D01*
G01*
X207144000Y-61714000D01*
G75*
G02*
X206994000Y-61564000I0J150000D01*
G01*
X206994000Y-60864000D01*
G75*
G02*
X207144000Y-60714000I150000J0D01*
G01*
G37*
%TD*%
%TO.C,J7*%
G36*
G01*
X177084200Y-50766800D02*
X177084200Y-52966800D01*
G75*
G02*
X176834200Y-53216800I-250000J0D01*
G01*
X176334200Y-53216800D01*
G75*
G02*
X176084200Y-52966800I0J250000D01*
G01*
X176084200Y-50766800D01*
G75*
G02*
X176334200Y-50516800I250000J0D01*
G01*
X176834200Y-50516800D01*
G75*
G02*
X177084200Y-50766800I0J-250000D01*
G01*
G37*
G36*
G01*
X187034200Y-50766800D02*
X187034200Y-52966800D01*
G75*
G02*
X186784200Y-53216800I-250000J0D01*
G01*
X186284200Y-53216800D01*
G75*
G02*
X186034200Y-52966800I0J250000D01*
G01*
X186034200Y-50766800D01*
G75*
G02*
X186284200Y-50516800I250000J0D01*
G01*
X186784200Y-50516800D01*
G75*
G02*
X187034200Y-50766800I0J-250000D01*
G01*
G37*
G36*
G01*
X178734200Y-54366800D02*
X178734200Y-55766800D01*
G75*
G02*
X178584200Y-55916800I-150000J0D01*
G01*
X178284200Y-55916800D01*
G75*
G02*
X178134200Y-55766800I0J150000D01*
G01*
X178134200Y-54366800D01*
G75*
G02*
X178284200Y-54216800I150000J0D01*
G01*
X178584200Y-54216800D01*
G75*
G02*
X178734200Y-54366800I0J-150000D01*
G01*
G37*
G36*
G01*
X179984200Y-54366800D02*
X179984200Y-55766800D01*
G75*
G02*
X179834200Y-55916800I-150000J0D01*
G01*
X179534200Y-55916800D01*
G75*
G02*
X179384200Y-55766800I0J150000D01*
G01*
X179384200Y-54366800D01*
G75*
G02*
X179534200Y-54216800I150000J0D01*
G01*
X179834200Y-54216800D01*
G75*
G02*
X179984200Y-54366800I0J-150000D01*
G01*
G37*
G36*
G01*
X181234200Y-54366800D02*
X181234200Y-55766800D01*
G75*
G02*
X181084200Y-55916800I-150000J0D01*
G01*
X180784200Y-55916800D01*
G75*
G02*
X180634200Y-55766800I0J150000D01*
G01*
X180634200Y-54366800D01*
G75*
G02*
X180784200Y-54216800I150000J0D01*
G01*
X181084200Y-54216800D01*
G75*
G02*
X181234200Y-54366800I0J-150000D01*
G01*
G37*
G36*
G01*
X182484200Y-54366800D02*
X182484200Y-55766800D01*
G75*
G02*
X182334200Y-55916800I-150000J0D01*
G01*
X182034200Y-55916800D01*
G75*
G02*
X181884200Y-55766800I0J150000D01*
G01*
X181884200Y-54366800D01*
G75*
G02*
X182034200Y-54216800I150000J0D01*
G01*
X182334200Y-54216800D01*
G75*
G02*
X182484200Y-54366800I0J-150000D01*
G01*
G37*
G36*
G01*
X183734200Y-54366800D02*
X183734200Y-55766800D01*
G75*
G02*
X183584200Y-55916800I-150000J0D01*
G01*
X183284200Y-55916800D01*
G75*
G02*
X183134200Y-55766800I0J150000D01*
G01*
X183134200Y-54366800D01*
G75*
G02*
X183284200Y-54216800I150000J0D01*
G01*
X183584200Y-54216800D01*
G75*
G02*
X183734200Y-54366800I0J-150000D01*
G01*
G37*
G36*
G01*
X184984200Y-54366800D02*
X184984200Y-55766800D01*
G75*
G02*
X184834200Y-55916800I-150000J0D01*
G01*
X184534200Y-55916800D01*
G75*
G02*
X184384200Y-55766800I0J150000D01*
G01*
X184384200Y-54366800D01*
G75*
G02*
X184534200Y-54216800I150000J0D01*
G01*
X184834200Y-54216800D01*
G75*
G02*
X184984200Y-54366800I0J-150000D01*
G01*
G37*
%TD*%
%TO.C,J4*%
G36*
G01*
X190737200Y-51378800D02*
X190737200Y-53878800D01*
G75*
G02*
X190487200Y-54128800I-250000J0D01*
G01*
X188887200Y-54128800D01*
G75*
G02*
X188637200Y-53878800I0J250000D01*
G01*
X188637200Y-51378800D01*
G75*
G02*
X188887200Y-51128800I250000J0D01*
G01*
X190487200Y-51128800D01*
G75*
G02*
X190737200Y-51378800I0J-250000D01*
G01*
G37*
G36*
G01*
X202087200Y-51378800D02*
X202087200Y-53878800D01*
G75*
G02*
X201837200Y-54128800I-250000J0D01*
G01*
X200237200Y-54128800D01*
G75*
G02*
X199987200Y-53878800I0J250000D01*
G01*
X199987200Y-51378800D01*
G75*
G02*
X200237200Y-51128800I250000J0D01*
G01*
X201837200Y-51128800D01*
G75*
G02*
X202087200Y-51378800I0J-250000D01*
G01*
G37*
G36*
G01*
X192637200Y-54928800D02*
X192637200Y-56128800D01*
G75*
G02*
X192437200Y-56328800I-200000J0D01*
G01*
X192037200Y-56328800D01*
G75*
G02*
X191837200Y-56128800I0J200000D01*
G01*
X191837200Y-54928800D01*
G75*
G02*
X192037200Y-54728800I200000J0D01*
G01*
X192437200Y-54728800D01*
G75*
G02*
X192637200Y-54928800I0J-200000D01*
G01*
G37*
G36*
G01*
X193887200Y-54928800D02*
X193887200Y-56128800D01*
G75*
G02*
X193687200Y-56328800I-200000J0D01*
G01*
X193287200Y-56328800D01*
G75*
G02*
X193087200Y-56128800I0J200000D01*
G01*
X193087200Y-54928800D01*
G75*
G02*
X193287200Y-54728800I200000J0D01*
G01*
X193687200Y-54728800D01*
G75*
G02*
X193887200Y-54928800I0J-200000D01*
G01*
G37*
G36*
G01*
X195137200Y-54928800D02*
X195137200Y-56128800D01*
G75*
G02*
X194937200Y-56328800I-200000J0D01*
G01*
X194537200Y-56328800D01*
G75*
G02*
X194337200Y-56128800I0J200000D01*
G01*
X194337200Y-54928800D01*
G75*
G02*
X194537200Y-54728800I200000J0D01*
G01*
X194937200Y-54728800D01*
G75*
G02*
X195137200Y-54928800I0J-200000D01*
G01*
G37*
G36*
G01*
X196387200Y-54928800D02*
X196387200Y-56128800D01*
G75*
G02*
X196187200Y-56328800I-200000J0D01*
G01*
X195787200Y-56328800D01*
G75*
G02*
X195587200Y-56128800I0J200000D01*
G01*
X195587200Y-54928800D01*
G75*
G02*
X195787200Y-54728800I200000J0D01*
G01*
X196187200Y-54728800D01*
G75*
G02*
X196387200Y-54928800I0J-200000D01*
G01*
G37*
G36*
G01*
X197637200Y-54928800D02*
X197637200Y-56128800D01*
G75*
G02*
X197437200Y-56328800I-200000J0D01*
G01*
X197037200Y-56328800D01*
G75*
G02*
X196837200Y-56128800I0J200000D01*
G01*
X196837200Y-54928800D01*
G75*
G02*
X197037200Y-54728800I200000J0D01*
G01*
X197437200Y-54728800D01*
G75*
G02*
X197637200Y-54928800I0J-200000D01*
G01*
G37*
G36*
G01*
X198887200Y-54928800D02*
X198887200Y-56128800D01*
G75*
G02*
X198687200Y-56328800I-200000J0D01*
G01*
X198287200Y-56328800D01*
G75*
G02*
X198087200Y-56128800I0J200000D01*
G01*
X198087200Y-54928800D01*
G75*
G02*
X198287200Y-54728800I200000J0D01*
G01*
X198687200Y-54728800D01*
G75*
G02*
X198887200Y-54928800I0J-200000D01*
G01*
G37*
%TD*%
D20*
%TO.C,FB2*%
X179225000Y-90725000D03*
X178425000Y-90725000D03*
%TD*%
%TO.C,FB1*%
X149700000Y-91450000D03*
X148900000Y-91450000D03*
%TD*%
%TO.C,LED7*%
G36*
G01*
X205275000Y-63602500D02*
X205975000Y-63602500D01*
G75*
G02*
X206125000Y-63752500I0J-150000D01*
G01*
X206125000Y-64452500D01*
G75*
G02*
X205975000Y-64602500I-150000J0D01*
G01*
X205275000Y-64602500D01*
G75*
G02*
X205125000Y-64452500I0J150000D01*
G01*
X205125000Y-63752500D01*
G75*
G02*
X205275000Y-63602500I150000J0D01*
G01*
G37*
G36*
G01*
X207029000Y-63602500D02*
X207729000Y-63602500D01*
G75*
G02*
X207879000Y-63752500I0J-150000D01*
G01*
X207879000Y-64452500D01*
G75*
G02*
X207729000Y-64602500I-150000J0D01*
G01*
X207029000Y-64602500D01*
G75*
G02*
X206879000Y-64452500I0J150000D01*
G01*
X206879000Y-63752500D01*
G75*
G02*
X207029000Y-63602500I150000J0D01*
G01*
G37*
%TD*%
%TO.C,LED6*%
G36*
G01*
X205414000Y-67031500D02*
X206114000Y-67031500D01*
G75*
G02*
X206264000Y-67181500I0J-150000D01*
G01*
X206264000Y-67881500D01*
G75*
G02*
X206114000Y-68031500I-150000J0D01*
G01*
X205414000Y-68031500D01*
G75*
G02*
X205264000Y-67881500I0J150000D01*
G01*
X205264000Y-67181500D01*
G75*
G02*
X205414000Y-67031500I150000J0D01*
G01*
G37*
G36*
G01*
X207168000Y-67031500D02*
X207868000Y-67031500D01*
G75*
G02*
X208018000Y-67181500I0J-150000D01*
G01*
X208018000Y-67881500D01*
G75*
G02*
X207868000Y-68031500I-150000J0D01*
G01*
X207168000Y-68031500D01*
G75*
G02*
X207018000Y-67881500I0J150000D01*
G01*
X207018000Y-67181500D01*
G75*
G02*
X207168000Y-67031500I150000J0D01*
G01*
G37*
%TD*%
%TO.C,LED5*%
G36*
G01*
X205414000Y-70333500D02*
X206114000Y-70333500D01*
G75*
G02*
X206264000Y-70483500I0J-150000D01*
G01*
X206264000Y-71183500D01*
G75*
G02*
X206114000Y-71333500I-150000J0D01*
G01*
X205414000Y-71333500D01*
G75*
G02*
X205264000Y-71183500I0J150000D01*
G01*
X205264000Y-70483500D01*
G75*
G02*
X205414000Y-70333500I150000J0D01*
G01*
G37*
G36*
G01*
X207168000Y-70333500D02*
X207868000Y-70333500D01*
G75*
G02*
X208018000Y-70483500I0J-150000D01*
G01*
X208018000Y-71183500D01*
G75*
G02*
X207868000Y-71333500I-150000J0D01*
G01*
X207168000Y-71333500D01*
G75*
G02*
X207018000Y-71183500I0J150000D01*
G01*
X207018000Y-70483500D01*
G75*
G02*
X207168000Y-70333500I150000J0D01*
G01*
G37*
%TD*%
%TO.C,LED4*%
G36*
G01*
X126504200Y-58289400D02*
X127204200Y-58289400D01*
G75*
G02*
X127354200Y-58439400I0J-150000D01*
G01*
X127354200Y-59139400D01*
G75*
G02*
X127204200Y-59289400I-150000J0D01*
G01*
X126504200Y-59289400D01*
G75*
G02*
X126354200Y-59139400I0J150000D01*
G01*
X126354200Y-58439400D01*
G75*
G02*
X126504200Y-58289400I150000J0D01*
G01*
G37*
G36*
G01*
X128258200Y-58289400D02*
X128958200Y-58289400D01*
G75*
G02*
X129108200Y-58439400I0J-150000D01*
G01*
X129108200Y-59139400D01*
G75*
G02*
X128958200Y-59289400I-150000J0D01*
G01*
X128258200Y-59289400D01*
G75*
G02*
X128108200Y-59139400I0J150000D01*
G01*
X128108200Y-58439400D01*
G75*
G02*
X128258200Y-58289400I150000J0D01*
G01*
G37*
%TD*%
%TO.C,LED3*%
G36*
G01*
X126504200Y-61178600D02*
X127204200Y-61178600D01*
G75*
G02*
X127354200Y-61328600I0J-150000D01*
G01*
X127354200Y-62028600D01*
G75*
G02*
X127204200Y-62178600I-150000J0D01*
G01*
X126504200Y-62178600D01*
G75*
G02*
X126354200Y-62028600I0J150000D01*
G01*
X126354200Y-61328600D01*
G75*
G02*
X126504200Y-61178600I150000J0D01*
G01*
G37*
G36*
G01*
X128258200Y-61178600D02*
X128958200Y-61178600D01*
G75*
G02*
X129108200Y-61328600I0J-150000D01*
G01*
X129108200Y-62028600D01*
G75*
G02*
X128958200Y-62178600I-150000J0D01*
G01*
X128258200Y-62178600D01*
G75*
G02*
X128108200Y-62028600I0J150000D01*
G01*
X128108200Y-61328600D01*
G75*
G02*
X128258200Y-61178600I150000J0D01*
G01*
G37*
%TD*%
D21*
%TO.C,D2*%
X133647000Y-90332100D03*
X131347000Y-90332100D03*
%TD*%
%TO.C,LED2*%
G36*
G01*
X126479600Y-63868600D02*
X127179600Y-63868600D01*
G75*
G02*
X127329600Y-64018600I0J-150000D01*
G01*
X127329600Y-64718600D01*
G75*
G02*
X127179600Y-64868600I-150000J0D01*
G01*
X126479600Y-64868600D01*
G75*
G02*
X126329600Y-64718600I0J150000D01*
G01*
X126329600Y-64018600D01*
G75*
G02*
X126479600Y-63868600I150000J0D01*
G01*
G37*
G36*
G01*
X128233600Y-63868600D02*
X128933600Y-63868600D01*
G75*
G02*
X129083600Y-64018600I0J-150000D01*
G01*
X129083600Y-64718600D01*
G75*
G02*
X128933600Y-64868600I-150000J0D01*
G01*
X128233600Y-64868600D01*
G75*
G02*
X128083600Y-64718600I0J150000D01*
G01*
X128083600Y-64018600D01*
G75*
G02*
X128233600Y-63868600I150000J0D01*
G01*
G37*
%TD*%
D22*
%TO.C,C8*%
X185705000Y-90700000D03*
X184545000Y-90700000D03*
%TD*%
%TO.C,C1*%
X156280000Y-91500000D03*
X155120000Y-91500000D03*
%TD*%
M02*
