%TF.GenerationSoftware,KiCad,Pcbnew,(5.1.6-0-10_14)*%
%TF.CreationDate,2020-10-01T17:07:47+07:00*%
%TF.ProjectId,ublox ZED-F9P (Full feature),75626c6f-7820-45a4-9544-2d4639502028,V1*%
%TF.SameCoordinates,Original*%
%TF.FileFunction,Legend,Bot*%
%TF.FilePolarity,Positive*%
%FSLAX46Y46*%
G04 Gerber Fmt 4.6, Leading zero omitted, Abs format (unit mm)*
G04 Created by KiCad (PCBNEW (5.1.6-0-10_14)) date 2020-10-01 17:07:47*
%MOMM*%
%LPD*%
G01*
G04 APERTURE LIST*
%ADD10C,0.125000*%
%ADD11C,0.203200*%
%ADD12C,0.115824*%
%ADD13C,0.100000*%
%ADD14O,1.000000X2.300000*%
%ADD15O,0.850000X0.600000*%
%ADD16C,0.600000*%
%ADD17O,1.000000X2.000000*%
%ADD18R,0.863600X1.473200*%
%ADD19C,3.200000*%
%ADD20C,2.082800*%
%ADD21R,1.703200X4.203200*%
%ADD22R,4.203200X1.703200*%
G04 APERTURE END LIST*
D10*
X204210714Y-61451190D02*
X204210714Y-60951190D01*
X204020238Y-60951190D01*
X203972619Y-60975000D01*
X203948809Y-60998809D01*
X203925000Y-61046428D01*
X203925000Y-61117857D01*
X203948809Y-61165476D01*
X203972619Y-61189285D01*
X204020238Y-61213095D01*
X204210714Y-61213095D01*
X203758333Y-60951190D02*
X203639285Y-61451190D01*
X203544047Y-61094047D01*
X203448809Y-61451190D01*
X203329761Y-60951190D01*
X202853571Y-61451190D02*
X203020238Y-61213095D01*
X203139285Y-61451190D02*
X203139285Y-60951190D01*
X202948809Y-60951190D01*
X202901190Y-60975000D01*
X202877380Y-60998809D01*
X202853571Y-61046428D01*
X202853571Y-61117857D01*
X202877380Y-61165476D01*
X202901190Y-61189285D01*
X202948809Y-61213095D01*
X203139285Y-61213095D01*
X202020238Y-61451190D02*
X202258333Y-61451190D01*
X202258333Y-60951190D01*
X201853571Y-61189285D02*
X201686904Y-61189285D01*
X201615476Y-61451190D02*
X201853571Y-61451190D01*
X201853571Y-60951190D01*
X201615476Y-60951190D01*
X201401190Y-61451190D02*
X201401190Y-60951190D01*
X201282142Y-60951190D01*
X201210714Y-60975000D01*
X201163095Y-61022619D01*
X201139285Y-61070238D01*
X201115476Y-61165476D01*
X201115476Y-61236904D01*
X201139285Y-61332142D01*
X201163095Y-61379761D01*
X201210714Y-61427380D01*
X201282142Y-61451190D01*
X201401190Y-61451190D01*
D11*
%TO.C,PPS2*%
X202679300Y-81178400D02*
X204203300Y-81178400D01*
X202222100Y-80721200D02*
X202222100Y-79603600D01*
X204660500Y-80721200D02*
X204660500Y-79603600D01*
X204203300Y-79146400D02*
X202679300Y-79146400D01*
X202222100Y-80721200D02*
G75*
G03*
X202679300Y-81178400I457200J0D01*
G01*
X204203300Y-81178400D02*
G75*
G03*
X204660500Y-80721200I0J457200D01*
G01*
X204203300Y-79146400D02*
G75*
G02*
X204660500Y-79603600I0J-457200D01*
G01*
X202222100Y-79603600D02*
G75*
G02*
X202679300Y-79146400I457200J0D01*
G01*
%TO.C,RTK2*%
X204059500Y-66515500D02*
X202535500Y-66515500D01*
X204516700Y-66972700D02*
X204516700Y-68090300D01*
X202078300Y-66972700D02*
X202078300Y-68090300D01*
X202535500Y-68547500D02*
X204059500Y-68547500D01*
X204516700Y-66972700D02*
G75*
G03*
X204059500Y-66515500I-457200J0D01*
G01*
X202535500Y-66515500D02*
G75*
G03*
X202078300Y-66972700I0J-457200D01*
G01*
X202535500Y-68547500D02*
G75*
G02*
X202078300Y-68090300I0J457200D01*
G01*
X204516700Y-68090300D02*
G75*
G02*
X204059500Y-68547500I-457200J0D01*
G01*
%TO.C,RTK1*%
X125153800Y-60662600D02*
X123629800Y-60662600D01*
X125611000Y-61119800D02*
X125611000Y-62237400D01*
X123172600Y-61119800D02*
X123172600Y-62237400D01*
X123629800Y-62694600D02*
X125153800Y-62694600D01*
X125611000Y-61119800D02*
G75*
G03*
X125153800Y-60662600I-457200J0D01*
G01*
X123629800Y-60662600D02*
G75*
G03*
X123172600Y-61119800I0J-457200D01*
G01*
X123629800Y-62694600D02*
G75*
G02*
X123172600Y-62237400I0J457200D01*
G01*
X125611000Y-62237400D02*
G75*
G02*
X125153800Y-62694600I-457200J0D01*
G01*
%TO.C,PPS_LED2*%
X204059500Y-69817500D02*
X202535500Y-69817500D01*
X204516700Y-70274700D02*
X204516700Y-71392300D01*
X202078300Y-70274700D02*
X202078300Y-71392300D01*
X202535500Y-71849500D02*
X204059500Y-71849500D01*
X204516700Y-70274700D02*
G75*
G03*
X204059500Y-69817500I-457200J0D01*
G01*
X202535500Y-69817500D02*
G75*
G03*
X202078300Y-70274700I0J-457200D01*
G01*
X202535500Y-71849500D02*
G75*
G02*
X202078300Y-71392300I0J457200D01*
G01*
X204516700Y-71392300D02*
G75*
G02*
X204059500Y-71849500I-457200J0D01*
G01*
%TO.C,PPS_LED1*%
X125129200Y-63352600D02*
X123605200Y-63352600D01*
X125586400Y-63809800D02*
X125586400Y-64927400D01*
X123148000Y-63809800D02*
X123148000Y-64927400D01*
X123605200Y-65384600D02*
X125129200Y-65384600D01*
X125586400Y-63809800D02*
G75*
G03*
X125129200Y-63352600I-457200J0D01*
G01*
X123605200Y-63352600D02*
G75*
G03*
X123148000Y-63809800I0J-457200D01*
G01*
X123605200Y-65384600D02*
G75*
G02*
X123148000Y-64927400I0J457200D01*
G01*
X125586400Y-64927400D02*
G75*
G02*
X125129200Y-65384600I-457200J0D01*
G01*
%TO.C,FENCE2*%
X204059500Y-63086500D02*
X202535500Y-63086500D01*
X204516700Y-63543700D02*
X204516700Y-64661300D01*
X202078300Y-63543700D02*
X202078300Y-64661300D01*
X202535500Y-65118500D02*
X204059500Y-65118500D01*
X204516700Y-63543700D02*
G75*
G03*
X204059500Y-63086500I-457200J0D01*
G01*
X202535500Y-63086500D02*
G75*
G03*
X202078300Y-63543700I0J-457200D01*
G01*
X202535500Y-65118500D02*
G75*
G02*
X202078300Y-64661300I0J457200D01*
G01*
X204516700Y-64661300D02*
G75*
G02*
X204059500Y-65118500I-457200J0D01*
G01*
%TO.C,FENCE1*%
X125153800Y-57773400D02*
X123629800Y-57773400D01*
X125611000Y-58230600D02*
X125611000Y-59348200D01*
X123172600Y-58230600D02*
X123172600Y-59348200D01*
X123629800Y-59805400D02*
X125153800Y-59805400D01*
X125611000Y-58230600D02*
G75*
G03*
X125153800Y-57773400I-457200J0D01*
G01*
X123629800Y-57773400D02*
G75*
G03*
X123172600Y-58230600I0J-457200D01*
G01*
X123629800Y-59805400D02*
G75*
G02*
X123172600Y-59348200I0J457200D01*
G01*
X125611000Y-59348200D02*
G75*
G02*
X125153800Y-59805400I-457200J0D01*
G01*
%TO.C,PPS2*%
D12*
X201922777Y-80522422D02*
X201922777Y-79943302D01*
X201702160Y-79943302D01*
X201647005Y-79970880D01*
X201619428Y-79998457D01*
X201591851Y-80053611D01*
X201591851Y-80136342D01*
X201619428Y-80191497D01*
X201647005Y-80219074D01*
X201702160Y-80246651D01*
X201922777Y-80246651D01*
X201343657Y-80522422D02*
X201343657Y-79943302D01*
X201123040Y-79943302D01*
X201067885Y-79970880D01*
X201040308Y-79998457D01*
X201012731Y-80053611D01*
X201012731Y-80136342D01*
X201040308Y-80191497D01*
X201067885Y-80219074D01*
X201123040Y-80246651D01*
X201343657Y-80246651D01*
X200792114Y-80494845D02*
X200709382Y-80522422D01*
X200571497Y-80522422D01*
X200516342Y-80494845D01*
X200488765Y-80467268D01*
X200461188Y-80412114D01*
X200461188Y-80356960D01*
X200488765Y-80301805D01*
X200516342Y-80274228D01*
X200571497Y-80246651D01*
X200681805Y-80219074D01*
X200736960Y-80191497D01*
X200764537Y-80163920D01*
X200792114Y-80108765D01*
X200792114Y-80053611D01*
X200764537Y-79998457D01*
X200736960Y-79970880D01*
X200681805Y-79943302D01*
X200543920Y-79943302D01*
X200461188Y-79970880D01*
X200240571Y-79998457D02*
X200212994Y-79970880D01*
X200157840Y-79943302D01*
X200019954Y-79943302D01*
X199964800Y-79970880D01*
X199937222Y-79998457D01*
X199909645Y-80053611D01*
X199909645Y-80108765D01*
X199937222Y-80191497D01*
X200268148Y-80522422D01*
X199909645Y-80522422D01*
%TO.C,RTK2*%
X200946697Y-67842422D02*
X201139737Y-67566651D01*
X201277622Y-67842422D02*
X201277622Y-67263302D01*
X201057005Y-67263302D01*
X201001851Y-67290880D01*
X200974274Y-67318457D01*
X200946697Y-67373611D01*
X200946697Y-67456342D01*
X200974274Y-67511497D01*
X201001851Y-67539074D01*
X201057005Y-67566651D01*
X201277622Y-67566651D01*
X200781234Y-67263302D02*
X200450308Y-67263302D01*
X200615771Y-67842422D02*
X200615771Y-67263302D01*
X200257268Y-67842422D02*
X200257268Y-67263302D01*
X199926342Y-67842422D02*
X200174537Y-67511497D01*
X199926342Y-67263302D02*
X200257268Y-67594228D01*
X199705725Y-67318457D02*
X199678148Y-67290880D01*
X199622994Y-67263302D01*
X199485108Y-67263302D01*
X199429954Y-67290880D01*
X199402377Y-67318457D01*
X199374800Y-67373611D01*
X199374800Y-67428765D01*
X199402377Y-67511497D01*
X199733302Y-67842422D01*
X199374800Y-67842422D01*
%TO.C,RTK1*%
X127756697Y-61942422D02*
X127949737Y-61666651D01*
X128087622Y-61942422D02*
X128087622Y-61363302D01*
X127867005Y-61363302D01*
X127811851Y-61390880D01*
X127784274Y-61418457D01*
X127756697Y-61473611D01*
X127756697Y-61556342D01*
X127784274Y-61611497D01*
X127811851Y-61639074D01*
X127867005Y-61666651D01*
X128087622Y-61666651D01*
X127591234Y-61363302D02*
X127260308Y-61363302D01*
X127425771Y-61942422D02*
X127425771Y-61363302D01*
X127067268Y-61942422D02*
X127067268Y-61363302D01*
X126736342Y-61942422D02*
X126984537Y-61611497D01*
X126736342Y-61363302D02*
X127067268Y-61694228D01*
X126184800Y-61942422D02*
X126515725Y-61942422D01*
X126350262Y-61942422D02*
X126350262Y-61363302D01*
X126405417Y-61446034D01*
X126460571Y-61501188D01*
X126515725Y-61528765D01*
%TO.C,PPS_LED2*%
X201479342Y-71122422D02*
X201479342Y-70543302D01*
X201258725Y-70543302D01*
X201203571Y-70570880D01*
X201175994Y-70598457D01*
X201148417Y-70653611D01*
X201148417Y-70736342D01*
X201175994Y-70791497D01*
X201203571Y-70819074D01*
X201258725Y-70846651D01*
X201479342Y-70846651D01*
X200900222Y-71122422D02*
X200900222Y-70543302D01*
X200679605Y-70543302D01*
X200624451Y-70570880D01*
X200596874Y-70598457D01*
X200569297Y-70653611D01*
X200569297Y-70736342D01*
X200596874Y-70791497D01*
X200624451Y-70819074D01*
X200679605Y-70846651D01*
X200900222Y-70846651D01*
X200348680Y-71094845D02*
X200265948Y-71122422D01*
X200128062Y-71122422D01*
X200072908Y-71094845D01*
X200045331Y-71067268D01*
X200017754Y-71012114D01*
X200017754Y-70956960D01*
X200045331Y-70901805D01*
X200072908Y-70874228D01*
X200128062Y-70846651D01*
X200238371Y-70819074D01*
X200293525Y-70791497D01*
X200321102Y-70763920D01*
X200348680Y-70708765D01*
X200348680Y-70653611D01*
X200321102Y-70598457D01*
X200293525Y-70570880D01*
X200238371Y-70543302D01*
X200100485Y-70543302D01*
X200017754Y-70570880D01*
X199907445Y-71177577D02*
X199466211Y-71177577D01*
X199052554Y-71122422D02*
X199328325Y-71122422D01*
X199328325Y-70543302D01*
X198859514Y-70819074D02*
X198666474Y-70819074D01*
X198583742Y-71122422D02*
X198859514Y-71122422D01*
X198859514Y-70543302D01*
X198583742Y-70543302D01*
X198335548Y-71122422D02*
X198335548Y-70543302D01*
X198197662Y-70543302D01*
X198114931Y-70570880D01*
X198059777Y-70626034D01*
X198032200Y-70681188D01*
X198004622Y-70791497D01*
X198004622Y-70874228D01*
X198032200Y-70984537D01*
X198059777Y-71039691D01*
X198114931Y-71094845D01*
X198197662Y-71122422D01*
X198335548Y-71122422D01*
X197784005Y-70598457D02*
X197756428Y-70570880D01*
X197701274Y-70543302D01*
X197563388Y-70543302D01*
X197508234Y-70570880D01*
X197480657Y-70598457D01*
X197453080Y-70653611D01*
X197453080Y-70708765D01*
X197480657Y-70791497D01*
X197811582Y-71122422D01*
X197453080Y-71122422D01*
%TO.C,PPS_LED1*%
X130319342Y-64572422D02*
X130319342Y-63993302D01*
X130098725Y-63993302D01*
X130043571Y-64020880D01*
X130015994Y-64048457D01*
X129988417Y-64103611D01*
X129988417Y-64186342D01*
X130015994Y-64241497D01*
X130043571Y-64269074D01*
X130098725Y-64296651D01*
X130319342Y-64296651D01*
X129740222Y-64572422D02*
X129740222Y-63993302D01*
X129519605Y-63993302D01*
X129464451Y-64020880D01*
X129436874Y-64048457D01*
X129409297Y-64103611D01*
X129409297Y-64186342D01*
X129436874Y-64241497D01*
X129464451Y-64269074D01*
X129519605Y-64296651D01*
X129740222Y-64296651D01*
X129188680Y-64544845D02*
X129105948Y-64572422D01*
X128968062Y-64572422D01*
X128912908Y-64544845D01*
X128885331Y-64517268D01*
X128857754Y-64462114D01*
X128857754Y-64406960D01*
X128885331Y-64351805D01*
X128912908Y-64324228D01*
X128968062Y-64296651D01*
X129078371Y-64269074D01*
X129133525Y-64241497D01*
X129161102Y-64213920D01*
X129188680Y-64158765D01*
X129188680Y-64103611D01*
X129161102Y-64048457D01*
X129133525Y-64020880D01*
X129078371Y-63993302D01*
X128940485Y-63993302D01*
X128857754Y-64020880D01*
X128747445Y-64627577D02*
X128306211Y-64627577D01*
X127892554Y-64572422D02*
X128168325Y-64572422D01*
X128168325Y-63993302D01*
X127699514Y-64269074D02*
X127506474Y-64269074D01*
X127423742Y-64572422D02*
X127699514Y-64572422D01*
X127699514Y-63993302D01*
X127423742Y-63993302D01*
X127175548Y-64572422D02*
X127175548Y-63993302D01*
X127037662Y-63993302D01*
X126954931Y-64020880D01*
X126899777Y-64076034D01*
X126872200Y-64131188D01*
X126844622Y-64241497D01*
X126844622Y-64324228D01*
X126872200Y-64434537D01*
X126899777Y-64489691D01*
X126954931Y-64544845D01*
X127037662Y-64572422D01*
X127175548Y-64572422D01*
X126293080Y-64572422D02*
X126624005Y-64572422D01*
X126458542Y-64572422D02*
X126458542Y-63993302D01*
X126513697Y-64076034D01*
X126568851Y-64131188D01*
X126624005Y-64158765D01*
%TO.C,J6*%
X121493302Y-65085285D02*
X121906960Y-65085285D01*
X121989691Y-65057708D01*
X122044845Y-65002554D01*
X122072422Y-64919822D01*
X122072422Y-64864668D01*
X121493302Y-65609251D02*
X121493302Y-65498942D01*
X121520880Y-65443788D01*
X121548457Y-65416211D01*
X121631188Y-65361057D01*
X121741497Y-65333480D01*
X121962114Y-65333480D01*
X122017268Y-65361057D01*
X122044845Y-65388634D01*
X122072422Y-65443788D01*
X122072422Y-65554097D01*
X122044845Y-65609251D01*
X122017268Y-65636828D01*
X121962114Y-65664405D01*
X121824228Y-65664405D01*
X121769074Y-65636828D01*
X121741497Y-65609251D01*
X121713920Y-65554097D01*
X121713920Y-65443788D01*
X121741497Y-65388634D01*
X121769074Y-65361057D01*
X121824228Y-65333480D01*
%TO.C,FENCE2*%
X201259914Y-64239074D02*
X201452954Y-64239074D01*
X201452954Y-64542422D02*
X201452954Y-63963302D01*
X201177182Y-63963302D01*
X200956565Y-64239074D02*
X200763525Y-64239074D01*
X200680794Y-64542422D02*
X200956565Y-64542422D01*
X200956565Y-63963302D01*
X200680794Y-63963302D01*
X200432600Y-64542422D02*
X200432600Y-63963302D01*
X200101674Y-64542422D01*
X200101674Y-63963302D01*
X199494977Y-64487268D02*
X199522554Y-64514845D01*
X199605285Y-64542422D01*
X199660440Y-64542422D01*
X199743171Y-64514845D01*
X199798325Y-64459691D01*
X199825902Y-64404537D01*
X199853480Y-64294228D01*
X199853480Y-64211497D01*
X199825902Y-64101188D01*
X199798325Y-64046034D01*
X199743171Y-63990880D01*
X199660440Y-63963302D01*
X199605285Y-63963302D01*
X199522554Y-63990880D01*
X199494977Y-64018457D01*
X199246782Y-64239074D02*
X199053742Y-64239074D01*
X198971011Y-64542422D02*
X199246782Y-64542422D01*
X199246782Y-63963302D01*
X198971011Y-63963302D01*
X198750394Y-64018457D02*
X198722817Y-63990880D01*
X198667662Y-63963302D01*
X198529777Y-63963302D01*
X198474622Y-63990880D01*
X198447045Y-64018457D01*
X198419468Y-64073611D01*
X198419468Y-64128765D01*
X198447045Y-64211497D01*
X198777971Y-64542422D01*
X198419468Y-64542422D01*
%TO.C,FENCE1*%
X128879914Y-58639074D02*
X129072954Y-58639074D01*
X129072954Y-58942422D02*
X129072954Y-58363302D01*
X128797182Y-58363302D01*
X128576565Y-58639074D02*
X128383525Y-58639074D01*
X128300794Y-58942422D02*
X128576565Y-58942422D01*
X128576565Y-58363302D01*
X128300794Y-58363302D01*
X128052600Y-58942422D02*
X128052600Y-58363302D01*
X127721674Y-58942422D01*
X127721674Y-58363302D01*
X127114977Y-58887268D02*
X127142554Y-58914845D01*
X127225285Y-58942422D01*
X127280440Y-58942422D01*
X127363171Y-58914845D01*
X127418325Y-58859691D01*
X127445902Y-58804537D01*
X127473480Y-58694228D01*
X127473480Y-58611497D01*
X127445902Y-58501188D01*
X127418325Y-58446034D01*
X127363171Y-58390880D01*
X127280440Y-58363302D01*
X127225285Y-58363302D01*
X127142554Y-58390880D01*
X127114977Y-58418457D01*
X126866782Y-58639074D02*
X126673742Y-58639074D01*
X126591011Y-58942422D02*
X126866782Y-58942422D01*
X126866782Y-58363302D01*
X126591011Y-58363302D01*
X126039468Y-58942422D02*
X126370394Y-58942422D01*
X126204931Y-58942422D02*
X126204931Y-58363302D01*
X126260085Y-58446034D01*
X126315240Y-58501188D01*
X126370394Y-58528765D01*
%TD*%
%LPC*%
D13*
%TO.C,PPS2*%
G36*
X203631800Y-80035400D02*
G01*
X203250800Y-80035400D01*
X203250800Y-80289400D01*
X203631800Y-80289400D01*
X203631800Y-80035400D01*
G37*
%TO.C,RTK2*%
G36*
X203107000Y-67658500D02*
G01*
X203488000Y-67658500D01*
X203488000Y-67404500D01*
X203107000Y-67404500D01*
X203107000Y-67658500D01*
G37*
%TO.C,RTK1*%
G36*
X124201300Y-61805600D02*
G01*
X124582300Y-61805600D01*
X124582300Y-61551600D01*
X124201300Y-61551600D01*
X124201300Y-61805600D01*
G37*
%TO.C,PPS_LED2*%
G36*
X203107000Y-70960500D02*
G01*
X203488000Y-70960500D01*
X203488000Y-70706500D01*
X203107000Y-70706500D01*
X203107000Y-70960500D01*
G37*
%TO.C,PPS_LED1*%
G36*
X124176700Y-64495600D02*
G01*
X124557700Y-64495600D01*
X124557700Y-64241600D01*
X124176700Y-64241600D01*
X124176700Y-64495600D01*
G37*
%TO.C,FENCE2*%
G36*
X203107000Y-64229500D02*
G01*
X203488000Y-64229500D01*
X203488000Y-63975500D01*
X203107000Y-63975500D01*
X203107000Y-64229500D01*
G37*
%TO.C,FENCE1*%
G36*
X124201300Y-58916400D02*
G01*
X124582300Y-58916400D01*
X124582300Y-58662400D01*
X124201300Y-58662400D01*
X124201300Y-58916400D01*
G37*
%TD*%
D14*
%TO.C,P2*%
X156716000Y-53178900D03*
D15*
X158036000Y-56278900D03*
D14*
X165356000Y-53178900D03*
D16*
X164036000Y-56278900D03*
D17*
X165356000Y-57003900D03*
X156716000Y-57003900D03*
%TD*%
D14*
%TO.C,P1*%
X140942600Y-53178900D03*
D15*
X142262600Y-56278900D03*
D14*
X149582600Y-53178900D03*
D16*
X148262600Y-56278900D03*
D17*
X149582600Y-57003900D03*
X140942600Y-57003900D03*
%TD*%
D18*
%TO.C,PPS2*%
X202920600Y-80162400D03*
X203962000Y-80162400D03*
%TD*%
D19*
%TO.C,H4*%
X206500000Y-96500000D03*
%TD*%
%TO.C,H3*%
X206500000Y-53500000D03*
%TD*%
%TO.C,H2*%
X123500000Y-96500000D03*
%TD*%
%TO.C,H1*%
X123500000Y-53500000D03*
%TD*%
D18*
%TO.C,RTK2*%
X203818200Y-67531500D03*
X202776800Y-67531500D03*
%TD*%
%TO.C,RTK1*%
X124912500Y-61678600D03*
X123871100Y-61678600D03*
%TD*%
%TO.C,PPS_LED2*%
X203818200Y-70833500D03*
X202776800Y-70833500D03*
%TD*%
%TO.C,PPS_LED1*%
X124887900Y-64368600D03*
X123846500Y-64368600D03*
%TD*%
D20*
%TO.C,J6*%
X122110500Y-80264000D03*
X122110500Y-77724000D03*
X122110500Y-75184000D03*
X122110500Y-72644000D03*
X122110500Y-70104000D03*
X122110500Y-67564000D03*
%TD*%
%TO.C,J2*%
X208127600Y-87731600D03*
X208127600Y-85191600D03*
X208127600Y-82651600D03*
X208127600Y-80111600D03*
X208127600Y-77571600D03*
X208127600Y-75031600D03*
%TD*%
D18*
%TO.C,FENCE2*%
X203818200Y-64102500D03*
X202776800Y-64102500D03*
%TD*%
%TO.C,FENCE1*%
X124912500Y-58789400D03*
X123871100Y-58789400D03*
%TD*%
D21*
%TO.C,E3*%
X175860000Y-97800000D03*
X180940000Y-97800000D03*
%TD*%
D22*
%TO.C,E2*%
X122200000Y-83566000D03*
X122200000Y-88646000D03*
%TD*%
D21*
%TO.C,E1*%
X146260000Y-97800000D03*
X151340000Y-97800000D03*
%TD*%
M02*
