M48
; DRILL file {KiCad (5.1.7)-1} date 10/06/20 15:51:43
; FORMAT={-:-/ absolute / inch / decimal}
; #@! TF.CreationDate,2020-10-06T15:51:43+07:00
; #@! TF.GenerationSoftware,Kicad,Pcbnew,(5.1.7)-1
; #@! TF.FileFunction,Plated,1,4,PTH
FMAT,2
INCH
T1C0.0160
T2C0.0236
T3C0.0400
%
G90
G05
T1
X4.7579Y-3.2315
X4.7579Y-3.5563
X4.7953Y-2.311
X4.7953Y-2.5354
X4.7992Y-2.4252
X4.812Y-3.2318
X4.812Y-3.5566
X4.8661Y-3.2313
X4.8661Y-3.5561
X4.9409Y-3.2913
X4.9567Y-2.7106
X4.9606Y-2.811
X4.9732Y-2.6137
X5.0823Y-2.9691
X5.0866Y-3.1535
X5.0945Y-3.063
X5.1181Y-3.7323
X5.3361Y-3.2244
X5.3361Y-3.2776
X5.3361Y-3.3248
X5.3701Y-3.4449
X5.4055Y-3.5472
X5.4213Y-2.6614
X5.4252Y-2.7087
X5.4291Y-3.4449
X5.486Y-2.528
X5.505Y-2.8603
X5.5333Y-2.832
X5.5535Y-2.316
X5.6191Y-3.4843
X5.625Y-3.3622
X5.626Y-3.0925
X5.626Y-3.1437
X5.627Y-3.5384
X5.628Y-3.1959
X5.6289Y-3.0443
X5.6319Y-2.8868
X5.6905Y-3.8504
X5.6907Y-3.7963
X5.6909Y-3.9045
X5.6919Y-3.5581
X5.696Y-2.4197
X5.7057Y-2.7963
X5.7618Y-3.4301
X5.7638Y-3.5551
X5.7648Y-3.0276
X5.7657Y-3.19
X5.7657Y-3.3533
X5.7667Y-2.9508
X5.7667Y-3.1083
X5.7677Y-3.2707
X5.7677Y-3.4715
X5.7677Y-3.5118
X5.7992Y-2.7126
X5.812Y-3.5945
X5.812Y-3.6394
X5.812Y-3.6844
X5.812Y-3.7293
X5.8189Y-3.5531
X5.8494Y-3.0276
X5.8504Y-3.19
X5.8504Y-3.3533
X5.8504Y-3.4291
X5.8514Y-2.9508
X5.8514Y-3.1083
X5.8524Y-3.2707
X5.8671Y-2.3543
X5.875Y-2.3085
X5.9016Y-3.6457
X5.9016Y-3.689
X5.9055Y-3.5512
X5.9075Y-3.7333
X5.9311Y-3.0276
X5.9321Y-3.19
X5.9321Y-3.3533
X5.9331Y-2.9508
X5.9331Y-3.1083
X5.9341Y-3.2707
X5.935Y-3.4291
X5.9449Y-2.5197
X5.9488Y-3.5512
X5.9587Y-3.6575
X5.9882Y-3.5512
X6.0079Y-2.8307
X6.0138Y-3.0276
X6.0148Y-3.19
X6.0148Y-3.3533
X6.0157Y-2.9508
X6.0157Y-3.1083
X6.0157Y-3.4281
X6.0167Y-3.2707
X6.0242Y-3.8504
X6.0244Y-3.7963
X6.0246Y-3.9045
X6.0669Y-3.6762
X6.0699Y-2.6334
X6.0787Y-2.7165
X6.0827Y-2.7992
X6.0974Y-3.0276
X6.0984Y-3.19
X6.0984Y-3.3533
X6.0984Y-3.4281
X6.0994Y-2.9508
X6.0994Y-3.1083
X6.1004Y-3.2707
X6.1801Y-2.3031
X6.1811Y-3.0276
X6.1821Y-3.19
X6.1821Y-3.3533
X6.1821Y-3.4291
X6.1831Y-2.9508
X6.1831Y-3.1083
X6.1831Y-3.6398
X6.1841Y-3.2707
X6.1879Y-2.5841
X6.1929Y-3.5433
X6.1945Y-2.4795
X6.2402Y-3.5433
X6.2638Y-3.4291
X6.2648Y-3.0276
X6.2657Y-3.19
X6.2657Y-3.3533
X6.2667Y-2.9508
X6.2667Y-3.1083
X6.2677Y-3.2707
X6.2835Y-3.5433
X6.3268Y-3.5433
X6.3455Y-3.0276
X6.3465Y-3.19
X6.3465Y-3.3533
X6.3474Y-2.9508
X6.3474Y-3.1083
X6.3474Y-3.4291
X6.3484Y-3.2707
X6.3701Y-3.5433
X6.3736Y-2.3877
X6.378Y-2.7165
X6.4165Y-2.7591
X6.4291Y-3.4301
X6.4291Y-3.4803
X6.4291Y-3.5177
X6.4311Y-3.56
X6.4321Y-3.0276
X6.4331Y-3.19
X6.4331Y-3.3533
X6.4341Y-2.9508
X6.4341Y-3.1083
X6.435Y-3.2707
X6.4528Y-2.8711
X6.4636Y-2.7884
X6.4783Y-3.5069
X6.4865Y-2.3085
X6.5039Y-2.875
X6.5128Y-3.56
X6.5512Y-2.7835
X6.562Y-3.0118
X6.562Y-3.0669
X6.562Y-3.122
X6.562Y-3.1742
X6.562Y-3.3199
X6.562Y-3.3789
X6.562Y-3.439
X6.562Y-3.4921
X6.562Y-3.5482
X6.565Y-2.5
X6.5709Y-2.8622
X6.5742Y-2.9058
X6.5866Y-3.2205
X6.5906Y-2.7756
X6.6181Y-3.2598
X6.6382Y-2.772
X6.7077Y-2.772
X6.7205Y-3.4094
X6.7559Y-3.2283
X6.7756Y-3.2992
X6.7835Y-3.1732
X6.7982Y-3.0591
X6.7982Y-3.1181
X6.8012Y-3.0
X6.8504Y-2.5236
X6.8519Y-3.8494
X6.8521Y-3.7953
X6.8524Y-3.9035
X6.9085Y-2.8553
X6.9262Y-3.0266
X6.9272Y-3.189
X6.9272Y-3.3524
X6.9272Y-3.5226
X6.9281Y-2.9498
X6.9281Y-3.1073
X6.9281Y-3.4281
X6.9291Y-3.2697
X6.9301Y-3.4744
X6.9774Y-3.5413
X6.9783Y-3.5837
X6.9783Y-3.6299
X6.9783Y-3.6841
X6.9823Y-3.7293
X6.9882Y-2.1752
X7.0108Y-2.9488
X7.0108Y-3.4272
X7.0118Y-3.189
X7.0118Y-3.3524
X7.0128Y-3.1073
X7.0138Y-3.0256
X7.0138Y-3.2697
X7.0354Y-2.2608
X7.0512Y-2.5669
X7.061Y-3.6329
X7.061Y-3.7313
X7.063Y-3.6841
X7.0935Y-3.1083
X7.0935Y-3.189
X7.0935Y-3.3524
X7.0955Y-2.9488
X7.0955Y-3.2697
X7.0955Y-3.4272
X7.0974Y-3.0266
X7.1083Y-3.627
X7.1752Y-2.2411
X7.1762Y-3.189
X7.1762Y-3.3524
X7.1772Y-2.9498
X7.1772Y-3.1073
X7.1781Y-3.0266
X7.1781Y-3.2697
X7.1781Y-3.4262
X7.185Y-2.815
X7.1905Y-3.8494
X7.1907Y-3.7953
X7.1909Y-3.9035
X7.1939Y-3.6457
X7.2234Y-2.2392
X7.2343Y-2.284
X7.2589Y-3.0266
X7.2589Y-3.4262
X7.2598Y-3.189
X7.2598Y-3.3524
X7.2608Y-2.9498
X7.2608Y-3.1073
X7.2618Y-3.2697
X7.2726Y-3.622
X7.2913Y-2.8346
X7.2964Y-2.7682
X7.3071Y-2.6339
X7.313Y-2.3533
X7.3337Y-3.6181
X7.3425Y-3.0266
X7.3425Y-3.4272
X7.3435Y-3.189
X7.3435Y-3.3504
X7.3445Y-2.9498
X7.3445Y-3.1073
X7.3455Y-3.2697
X7.3661Y-3.5709
X7.4242Y-3.4272
X7.4252Y-3.1073
X7.4262Y-3.0266
X7.4262Y-3.3504
X7.4262Y-3.5561
X7.4272Y-3.189
X7.4272Y-3.2687
X7.4281Y-2.9498
X7.4843Y-2.7756
X7.5069Y-3.0266
X7.5079Y-3.189
X7.5079Y-3.3524
X7.5079Y-3.4272
X7.5089Y-2.9498
X7.5098Y-3.1073
X7.5098Y-3.2697
X7.5148Y-2.8346
X7.5177Y-3.5591
X7.5295Y-2.185
X7.5778Y-2.8386
X7.5906Y-3.4291
X7.5906Y-3.5591
X7.5935Y-3.0266
X7.5945Y-2.44
X7.5945Y-3.189
X7.5945Y-3.3524
X7.5955Y-2.9498
X7.5955Y-3.1073
X7.5965Y-3.2697
X7.6033Y-2.4833
X7.6043Y-2.5423
X7.6329Y-3.5039
X7.6378Y-2.8711
X7.6683Y-2.4833
X7.6781Y-3.5551
X7.685Y-2.5423
X7.69Y-2.8356
X7.7028Y-2.3494
X7.7087Y-2.6024
X7.7126Y-2.8002
X7.7205Y-2.998
X7.7205Y-3.0404
X7.7205Y-3.0837
X7.7205Y-3.1348
X7.7205Y-3.1919
X7.7264Y-3.312
X7.7264Y-3.3593
X7.7264Y-3.4262
X7.7264Y-3.4803
X7.7274Y-2.4518
X7.7313Y-2.2421
X7.7362Y-2.8839
X7.7451Y-2.9596
X7.7717Y-2.2589
X7.7795Y-3.3189
X7.7864Y-2.6122
X7.7874Y-2.3917
X7.7913Y-2.4528
X7.8179Y-2.2559
X7.8189Y-3.3543
X7.8533Y-2.3917
X7.8543Y-2.5856
X7.8673Y-3.4177
X7.8701Y-2.4409
X7.9449Y-2.4764
X7.9488Y-2.6102
X7.9528Y-2.7402
X7.992Y-3.098
X8.0551Y-3.0059
X8.08Y-3.1102
X8.1422Y-2.9016
T3
X8.185Y-2.9528
X8.185Y-3.0528
X8.185Y-3.1528
X8.185Y-3.2528
X8.185Y-3.3528
X8.185Y-3.4528
X4.8075Y-2.66
X4.8075Y-2.76
X4.8075Y-2.86
X4.8075Y-2.96
X4.8075Y-3.06
X4.8075Y-3.16
T2
G00X5.5489Y-2.1192
M15
G01X5.5489Y-2.0681
M16
G05
G00X5.5489Y-2.2639
M15
G01X5.5489Y-2.2246
M16
G05
G00X5.8891Y-2.1192
M15
G01X5.8891Y-2.0681
M16
G05
G00X5.8891Y-2.2639
M15
G01X5.8891Y-2.2246
M16
G05
G00X6.1699Y-2.1192
M15
G01X6.1699Y-2.0681
M16
G05
G00X6.1699Y-2.2639
M15
G01X6.1699Y-2.2246
M16
G05
G00X6.5101Y-2.1192
M15
G01X6.5101Y-2.0681
M16
G05
G00X6.5101Y-2.2639
M15
G01X6.5101Y-2.2246
M16
G05
T0
M30
