%TF.GenerationSoftware,KiCad,Pcbnew,(5.1.7)-1*%
%TF.CreationDate,2020-10-06T17:18:09+07:00*%
%TF.ProjectId,ublox ZED-F9P (Full feature),75626c6f-7820-45a4-9544-2d4639502028,V1*%
%TF.SameCoordinates,Original*%
%TF.FileFunction,Copper,L3,Inr*%
%TF.FilePolarity,Positive*%
%FSLAX46Y46*%
G04 Gerber Fmt 4.6, Leading zero omitted, Abs format (unit mm)*
G04 Created by KiCad (PCBNEW (5.1.7)-1) date 2020-10-06 17:18:09*
%MOMM*%
%LPD*%
G01*
G04 APERTURE LIST*
%TA.AperFunction,ComponentPad*%
%ADD10O,1.000000X2.300000*%
%TD*%
%TA.AperFunction,ComponentPad*%
%ADD11O,1.000000X2.000000*%
%TD*%
%TA.AperFunction,ComponentPad*%
%ADD12C,1.879600*%
%TD*%
%TA.AperFunction,Conductor*%
%ADD13R,1.500000X4.000000*%
%TD*%
%TA.AperFunction,Conductor*%
%ADD14R,4.000000X1.500000*%
%TD*%
%TA.AperFunction,ViaPad*%
%ADD15C,0.812800*%
%TD*%
%TA.AperFunction,Conductor*%
%ADD16C,0.254000*%
%TD*%
%TA.AperFunction,Conductor*%
%ADD17C,0.100000*%
%TD*%
G04 APERTURE END LIST*
D10*
%TO.N,GND*%
%TO.C,P2*%
X156716000Y-53178900D03*
X165356000Y-53178900D03*
D11*
X165356000Y-57003900D03*
X156716000Y-57003900D03*
%TD*%
D10*
%TO.N,GND*%
%TO.C,P1*%
X140942600Y-53178900D03*
X149582600Y-53178900D03*
D11*
X149582600Y-57003900D03*
X140942600Y-57003900D03*
%TD*%
D12*
%TO.N,/INT_P*%
%TO.C,J6*%
X122110500Y-80264000D03*
%TO.N,/~SAFE_P*%
X122110500Y-77724000D03*
%TO.N,/~RESET_P*%
X122110500Y-75184000D03*
%TO.N,/PPS_STAT_P*%
X122110500Y-72644000D03*
%TO.N,/RTK_STAT_P*%
X122110500Y-70104000D03*
%TO.N,/FENCE_STAT_P*%
X122110500Y-67564000D03*
%TD*%
%TO.N,/INT_H*%
%TO.C,J2*%
X207900000Y-87700000D03*
%TO.N,/~SAFE_H*%
X207900000Y-85160000D03*
%TO.N,/~RESET_H*%
X207900000Y-82620000D03*
%TO.N,/PPS_STAT_H*%
X207900000Y-80080000D03*
%TO.N,/RTK_STAT_H*%
X207900000Y-77540000D03*
%TO.N,/FENCE_STAT_H*%
X207900000Y-75000000D03*
%TD*%
D13*
%TO.N,GND*%
%TO.C,E3*%
X175860000Y-97800000D03*
X180940000Y-97800000D03*
%TD*%
D14*
%TO.N,GND*%
%TO.C,E2*%
X122200000Y-83566000D03*
X122200000Y-88646000D03*
%TD*%
D13*
%TO.N,GND*%
%TO.C,E1*%
X146260000Y-97800000D03*
X151340000Y-97800000D03*
%TD*%
D15*
%TO.N,/BACKUP*%
X137900000Y-87500000D03*
X152600000Y-71900000D03*
X185600000Y-66899998D03*
%TO.N,GND*%
X139344400Y-64211200D03*
X144678390Y-61459702D03*
X141058900Y-58826400D03*
X164757100Y-58635900D03*
X149225000Y-58635900D03*
X157340300Y-62979300D03*
X161890003Y-60648107D03*
X166750000Y-63499998D03*
X151000000Y-63999988D03*
X177500000Y-55250000D03*
X147625000Y-93583332D03*
X147625000Y-92441666D03*
X147625000Y-91300000D03*
X147800000Y-90250000D03*
X149900000Y-93700000D03*
X149900000Y-92600000D03*
X150000000Y-90200000D03*
X151100000Y-90200000D03*
X152100000Y-90200000D03*
X157050000Y-92450000D03*
X157300000Y-90000000D03*
X158500000Y-90000000D03*
X159600000Y-90000000D03*
X160700000Y-90000000D03*
X161800000Y-90000000D03*
X156975000Y-58500000D03*
X179100000Y-65200000D03*
X137300000Y-90100000D03*
X154400000Y-69000000D03*
X190100000Y-70500000D03*
X154500000Y-71100000D03*
X130000000Y-94800000D03*
X187100000Y-90700000D03*
X185327346Y-70311210D03*
X125500000Y-83600000D03*
X191250004Y-55500000D03*
X148600000Y-85175000D03*
X150675000Y-85175000D03*
X152775000Y-85175000D03*
X154900000Y-85175000D03*
X157025000Y-85175000D03*
X159150000Y-85175000D03*
X161200000Y-85175000D03*
X163400000Y-85175000D03*
X163300000Y-88400000D03*
X163300000Y-89350000D03*
X164550000Y-89075000D03*
X146450000Y-85175000D03*
X150725000Y-83075000D03*
X146500000Y-83075000D03*
X148650000Y-83075000D03*
X161250000Y-83075000D03*
X157075000Y-83075000D03*
X159200000Y-83075000D03*
X154950000Y-83075000D03*
X163450000Y-83075000D03*
X152825000Y-83075000D03*
X161200000Y-81025000D03*
X152775000Y-81025000D03*
X146450000Y-81025000D03*
X154900000Y-81025000D03*
X157025000Y-81025000D03*
X163400000Y-81025000D03*
X159150000Y-81025000D03*
X148600000Y-81025000D03*
X150675000Y-81025000D03*
X163425000Y-78950000D03*
X148625000Y-78950000D03*
X157050000Y-78950000D03*
X146475000Y-78950000D03*
X161225000Y-78950000D03*
X159175000Y-78950000D03*
X152800000Y-78950000D03*
X154925000Y-78950000D03*
X150700000Y-78950000D03*
X150650000Y-76900000D03*
X161175000Y-76900000D03*
X157000000Y-76900000D03*
X163375000Y-76900000D03*
X148575000Y-76900000D03*
X152750000Y-76900000D03*
X154875000Y-76900000D03*
X159125000Y-76900000D03*
X146425000Y-76900000D03*
X150700000Y-74950000D03*
X148625000Y-74950000D03*
X161225000Y-74950000D03*
X152800000Y-74950000D03*
X157050000Y-74950000D03*
X159175000Y-74950000D03*
X146475000Y-74950000D03*
X154925000Y-74950000D03*
X163425000Y-74950000D03*
X150750000Y-87100000D03*
X146350000Y-87125000D03*
X148600000Y-87100000D03*
X161225000Y-87100000D03*
X157025000Y-87100000D03*
X159100000Y-87100000D03*
X154900000Y-87075000D03*
X163300000Y-87125000D03*
X152800000Y-87075000D03*
X192900000Y-81000000D03*
X178100000Y-81000000D03*
X190750000Y-83050000D03*
X182325000Y-83050000D03*
X176000000Y-83050000D03*
X186525000Y-81000000D03*
X175950000Y-81000000D03*
X190700000Y-81000000D03*
X188650000Y-81000000D03*
X184450000Y-83050000D03*
X180175000Y-85150000D03*
X182275000Y-81000000D03*
X186575000Y-83050000D03*
X175950000Y-85150000D03*
X192950000Y-83050000D03*
X188650000Y-83025000D03*
X184400000Y-81000000D03*
X178150000Y-83050000D03*
X180225000Y-83050000D03*
X180175000Y-81000000D03*
X186550000Y-74925000D03*
X182300000Y-74925000D03*
X180225000Y-74900000D03*
X178075000Y-74900000D03*
X192925000Y-74925000D03*
X188675000Y-74925000D03*
X184425000Y-74925000D03*
X175975000Y-74925000D03*
X190725000Y-74925000D03*
X178100000Y-85150000D03*
X180175000Y-78950000D03*
X190750000Y-78925000D03*
X180275000Y-76875000D03*
X178150000Y-76850000D03*
X190675000Y-76875000D03*
X186550000Y-78925000D03*
X182325000Y-76875000D03*
X186500000Y-76875000D03*
X192925000Y-78925000D03*
X188625000Y-76875000D03*
X190700000Y-85150000D03*
X178125000Y-78925000D03*
X175925000Y-76875000D03*
X182300000Y-78925000D03*
X184375000Y-76875000D03*
X192875000Y-76875000D03*
X184425000Y-78925000D03*
X188600000Y-78925000D03*
X175975000Y-78925000D03*
X186525000Y-85100000D03*
X175975000Y-87075000D03*
X178075000Y-87050000D03*
X188575000Y-87050000D03*
X180225000Y-87050000D03*
X188625000Y-85100000D03*
X190700000Y-87050000D03*
X186500000Y-87050000D03*
X182325000Y-87025000D03*
X184400000Y-85150000D03*
X184375000Y-87025000D03*
X192900000Y-85150000D03*
X182275000Y-85150000D03*
X192800000Y-87100000D03*
X177350000Y-94725000D03*
X177250000Y-93575000D03*
X177250000Y-92200000D03*
X177250000Y-91025000D03*
X177225000Y-89950000D03*
X179350000Y-94775000D03*
X179400000Y-93575000D03*
X179350000Y-92275000D03*
X180550000Y-92125000D03*
X182725000Y-92600000D03*
X184725000Y-92000000D03*
X186275000Y-91900000D03*
X151350000Y-92900000D03*
X154100000Y-93375000D03*
X146400000Y-90300000D03*
X144575000Y-90375000D03*
X142925000Y-89875000D03*
X142725000Y-88500000D03*
X142875000Y-85400000D03*
X142950000Y-81175000D03*
X142900000Y-79850000D03*
X142900000Y-78550000D03*
X142975000Y-77325000D03*
X143050000Y-73325000D03*
X163900000Y-72925000D03*
X165200000Y-73025000D03*
X166675000Y-76500000D03*
X166675000Y-77900000D03*
X166675000Y-79300000D03*
X166675000Y-80625000D03*
X166675000Y-84325000D03*
X166675000Y-85825000D03*
X166675000Y-87350000D03*
X166675000Y-88700000D03*
X165425000Y-90425000D03*
X163350000Y-90425000D03*
X166675000Y-90125000D03*
X188625000Y-90325000D03*
X190950000Y-90400000D03*
X192800000Y-90400000D03*
X195025000Y-90300000D03*
X193875000Y-89000000D03*
X196250000Y-88400000D03*
X196250000Y-87025000D03*
X196250000Y-85325000D03*
X196250000Y-84125000D03*
X196100000Y-81075000D03*
X196100000Y-79625000D03*
X196100000Y-78325000D03*
X196100000Y-77225000D03*
X196100000Y-76150000D03*
X196500000Y-73250000D03*
X194000000Y-72925000D03*
X192475000Y-72100000D03*
X190875000Y-72000000D03*
X175475000Y-72525000D03*
X172750000Y-76200000D03*
X172675000Y-77700000D03*
X172675000Y-79200000D03*
X147625000Y-94725000D03*
X150050000Y-94825000D03*
X146500000Y-89200000D03*
X146500000Y-88175000D03*
X175950000Y-89475000D03*
X176025000Y-88250000D03*
X144544240Y-96425000D03*
X144538480Y-97800000D03*
X144550000Y-99175000D03*
X162000000Y-69000000D03*
X154175000Y-66888790D03*
X195650000Y-59675000D03*
X196275000Y-62275000D03*
X178700000Y-57425000D03*
X185750000Y-59775000D03*
X193125000Y-63075000D03*
X194775000Y-63075000D03*
X193150000Y-64575000D03*
X195200000Y-64575000D03*
X199475000Y-60750000D03*
X199500000Y-65675000D03*
X197775000Y-66350000D03*
X195900000Y-71125000D03*
X195325000Y-72025000D03*
X196725000Y-75175000D03*
X197800000Y-60750000D03*
X197900000Y-62300000D03*
X153019240Y-96425000D03*
X153013480Y-97800000D03*
X153025000Y-99175000D03*
X174044240Y-96400000D03*
X174050000Y-99150000D03*
X174038480Y-97775000D03*
X182644240Y-96400000D03*
X182638480Y-97775000D03*
X182650000Y-99150000D03*
X120850000Y-90330760D03*
X122225000Y-90336520D03*
X123600000Y-90325000D03*
X122225000Y-82086520D03*
X120850000Y-82080760D03*
X123600000Y-82075000D03*
X144925000Y-71025000D03*
%TO.N,/FENCE_STAT_P*%
X126318937Y-66386866D03*
%TO.N,Net-(FENCE1-Pad1)*%
X121800000Y-58700000D03*
%TO.N,/FENCE_STAT_H*%
X206811210Y-73700000D03*
%TO.N,Net-(FENCE2-Pad1)*%
X201800000Y-62900000D03*
%TO.N,/PPS_STAT_H*%
X205232002Y-79000000D03*
%TO.N,/RTK_STAT_H*%
X204600000Y-76350000D03*
%TO.N,/PPS_STAT_P*%
X126000000Y-71400000D03*
%TO.N,/RTK_STAT_P*%
X125900000Y-68850000D03*
%TO.N,Net-(PPS2-Pad2)*%
X170700000Y-86600000D03*
%TO.N,Net-(PPS2-Pad1)*%
X202995902Y-78690098D03*
%TO.N,Net-(PPS_LED1-Pad1)*%
X121800000Y-64400000D03*
%TO.N,Net-(PPS_LED2-Pad1)*%
X202000000Y-69600000D03*
%TO.N,Net-(R12-Pad2)*%
X121900000Y-61600000D03*
%TO.N,Net-(R18-Pad1)*%
X129200000Y-80100000D03*
X135536390Y-84450532D03*
%TO.N,Net-(R19-Pad1)*%
X129091448Y-75414995D03*
X135536390Y-81900000D03*
%TO.N,Net-(R20-Pad1)*%
X129400000Y-77800000D03*
X135536390Y-83249878D03*
%TO.N,/RX2_P*%
X183475000Y-56875000D03*
X197400000Y-57375000D03*
X170375000Y-70408821D03*
%TO.N,/TX2_P*%
X182250000Y-56925000D03*
X196375000Y-56950000D03*
X183750000Y-58013790D03*
X168610940Y-70408821D03*
%TO.N,Net-(R24-Pad1)*%
X137800000Y-68800000D03*
X166400000Y-70700000D03*
X166900000Y-72700000D03*
X167300000Y-81800000D03*
%TO.N,Net-(R25-Pad1)*%
X137700000Y-67600000D03*
X168099998Y-82800000D03*
X167400000Y-70499998D03*
X166985473Y-73808176D03*
%TO.N,Net-(R28-Pad1)*%
X197600000Y-84300000D03*
X172300000Y-80600000D03*
%TO.N,Net-(R29-Pad1)*%
X172100000Y-83800000D03*
X199830000Y-86810000D03*
%TO.N,Net-(R32-Pad1)*%
X198600000Y-85200000D03*
X171600000Y-82000000D03*
%TO.N,Net-(R36-Pad2)*%
X201900000Y-66300000D03*
%TO.N,/RX1*%
X139827391Y-72651279D03*
X162978410Y-70079973D03*
%TO.N,/TX1*%
X140545820Y-71932851D03*
X164175000Y-70825004D03*
%TO.N,+3V3*%
X199900000Y-62000000D03*
X195800000Y-66100000D03*
X136400000Y-87500000D03*
X147300000Y-68900000D03*
X174000000Y-64100000D03*
X182500000Y-71500000D03*
X185200000Y-72000000D03*
X157172412Y-65636390D03*
%TO.N,Net-(C6-Pad1)*%
X149025000Y-59800000D03*
%TO.N,Net-(D1-Pad2)*%
X198575000Y-57300000D03*
X192900000Y-61975000D03*
%TD*%
D16*
%TO.N,GND*%
X207851897Y-50722789D02*
X208190393Y-50824987D01*
X208502588Y-50990984D01*
X208776597Y-51214460D01*
X209001980Y-51486902D01*
X209170153Y-51797931D01*
X209274712Y-52135708D01*
X209315001Y-52519031D01*
X209315001Y-74300961D01*
X209295570Y-74254052D01*
X209123227Y-73996123D01*
X208903877Y-73776773D01*
X208645948Y-73604430D01*
X208359352Y-73485718D01*
X208055104Y-73425200D01*
X207818351Y-73425200D01*
X207812590Y-73396235D01*
X207734087Y-73206712D01*
X207620118Y-73036146D01*
X207475064Y-72891092D01*
X207304498Y-72777123D01*
X207114975Y-72698620D01*
X206913779Y-72658600D01*
X206708641Y-72658600D01*
X206507445Y-72698620D01*
X206317922Y-72777123D01*
X206147356Y-72891092D01*
X206002302Y-73036146D01*
X205888333Y-73206712D01*
X205809830Y-73396235D01*
X205769810Y-73597431D01*
X205769810Y-73802569D01*
X205809830Y-74003765D01*
X205888333Y-74193288D01*
X206002302Y-74363854D01*
X206147356Y-74508908D01*
X206317922Y-74622877D01*
X206365446Y-74642562D01*
X206325200Y-74844896D01*
X206325200Y-75155104D01*
X206385718Y-75459352D01*
X206504430Y-75745948D01*
X206676773Y-76003877D01*
X206896123Y-76223227D01*
X206966124Y-76270000D01*
X206896123Y-76316773D01*
X206676773Y-76536123D01*
X206504430Y-76794052D01*
X206385718Y-77080648D01*
X206325200Y-77384896D01*
X206325200Y-77695104D01*
X206385718Y-77999352D01*
X206504430Y-78285948D01*
X206676773Y-78543877D01*
X206896123Y-78763227D01*
X206966124Y-78810000D01*
X206896123Y-78856773D01*
X206676773Y-79076123D01*
X206504430Y-79334052D01*
X206385718Y-79620648D01*
X206325200Y-79924896D01*
X206325200Y-80235104D01*
X206385718Y-80539352D01*
X206504430Y-80825948D01*
X206676773Y-81083877D01*
X206896123Y-81303227D01*
X206966124Y-81350000D01*
X206896123Y-81396773D01*
X206676773Y-81616123D01*
X206504430Y-81874052D01*
X206385718Y-82160648D01*
X206325200Y-82464896D01*
X206325200Y-82775104D01*
X206385718Y-83079352D01*
X206504430Y-83365948D01*
X206676773Y-83623877D01*
X206896123Y-83843227D01*
X206966124Y-83890000D01*
X206896123Y-83936773D01*
X206676773Y-84156123D01*
X206504430Y-84414052D01*
X206385718Y-84700648D01*
X206325200Y-85004896D01*
X206325200Y-85315104D01*
X206385718Y-85619352D01*
X206504430Y-85905948D01*
X206676773Y-86163877D01*
X206896123Y-86383227D01*
X206966124Y-86430000D01*
X206896123Y-86476773D01*
X206676773Y-86696123D01*
X206504430Y-86954052D01*
X206385718Y-87240648D01*
X206325200Y-87544896D01*
X206325200Y-87855104D01*
X206385718Y-88159352D01*
X206504430Y-88445948D01*
X206676773Y-88703877D01*
X206896123Y-88923227D01*
X207154052Y-89095570D01*
X207440648Y-89214282D01*
X207744896Y-89274800D01*
X208055104Y-89274800D01*
X208359352Y-89214282D01*
X208645948Y-89095570D01*
X208903877Y-88923227D01*
X209123227Y-88703877D01*
X209295570Y-88445948D01*
X209315000Y-88399039D01*
X209315000Y-97466495D01*
X209277211Y-97851897D01*
X209175013Y-98190392D01*
X209009016Y-98502588D01*
X208785539Y-98776599D01*
X208513098Y-99001980D01*
X208202069Y-99170153D01*
X207864296Y-99274711D01*
X207480977Y-99315000D01*
X182327203Y-99315000D01*
X182325000Y-98085750D01*
X182166250Y-97927000D01*
X181067000Y-97927000D01*
X181067000Y-97947000D01*
X180813000Y-97947000D01*
X180813000Y-97927000D01*
X179713750Y-97927000D01*
X179555000Y-98085750D01*
X179552797Y-99315000D01*
X177247203Y-99315000D01*
X177245000Y-98085750D01*
X177086250Y-97927000D01*
X175987000Y-97927000D01*
X175987000Y-97947000D01*
X175733000Y-97947000D01*
X175733000Y-97927000D01*
X174633750Y-97927000D01*
X174475000Y-98085750D01*
X174472797Y-99315000D01*
X152727203Y-99315000D01*
X152725000Y-98085750D01*
X152566250Y-97927000D01*
X151467000Y-97927000D01*
X151467000Y-97947000D01*
X151213000Y-97947000D01*
X151213000Y-97927000D01*
X150113750Y-97927000D01*
X149955000Y-98085750D01*
X149952797Y-99315000D01*
X147647203Y-99315000D01*
X147645000Y-98085750D01*
X147486250Y-97927000D01*
X146387000Y-97927000D01*
X146387000Y-97947000D01*
X146133000Y-97947000D01*
X146133000Y-97927000D01*
X145033750Y-97927000D01*
X144875000Y-98085750D01*
X144872797Y-99315000D01*
X122533505Y-99315000D01*
X122148103Y-99277211D01*
X121809608Y-99175013D01*
X121497412Y-99009016D01*
X121223401Y-98785539D01*
X120998020Y-98513098D01*
X120829847Y-98202069D01*
X120725289Y-97864296D01*
X120685000Y-97480977D01*
X120685000Y-96279872D01*
X121265000Y-96279872D01*
X121265000Y-96720128D01*
X121350890Y-97151925D01*
X121519369Y-97558669D01*
X121763962Y-97924729D01*
X122075271Y-98236038D01*
X122441331Y-98480631D01*
X122848075Y-98649110D01*
X123279872Y-98735000D01*
X123720128Y-98735000D01*
X124151925Y-98649110D01*
X124558669Y-98480631D01*
X124924729Y-98236038D01*
X125236038Y-97924729D01*
X125480631Y-97558669D01*
X125649110Y-97151925D01*
X125735000Y-96720128D01*
X125735000Y-96279872D01*
X125649110Y-95848075D01*
X125629197Y-95800000D01*
X144871928Y-95800000D01*
X144875000Y-97514250D01*
X145033750Y-97673000D01*
X146133000Y-97673000D01*
X146133000Y-95323750D01*
X146387000Y-95323750D01*
X146387000Y-97673000D01*
X147486250Y-97673000D01*
X147645000Y-97514250D01*
X147648072Y-95800000D01*
X149951928Y-95800000D01*
X149955000Y-97514250D01*
X150113750Y-97673000D01*
X151213000Y-97673000D01*
X151213000Y-95323750D01*
X151467000Y-95323750D01*
X151467000Y-97673000D01*
X152566250Y-97673000D01*
X152725000Y-97514250D01*
X152728072Y-95800000D01*
X174471928Y-95800000D01*
X174475000Y-97514250D01*
X174633750Y-97673000D01*
X175733000Y-97673000D01*
X175733000Y-95323750D01*
X175987000Y-95323750D01*
X175987000Y-97673000D01*
X177086250Y-97673000D01*
X177245000Y-97514250D01*
X177248072Y-95800000D01*
X179551928Y-95800000D01*
X179555000Y-97514250D01*
X179713750Y-97673000D01*
X180813000Y-97673000D01*
X180813000Y-95323750D01*
X181067000Y-95323750D01*
X181067000Y-97673000D01*
X182166250Y-97673000D01*
X182325000Y-97514250D01*
X182327212Y-96279872D01*
X204265000Y-96279872D01*
X204265000Y-96720128D01*
X204350890Y-97151925D01*
X204519369Y-97558669D01*
X204763962Y-97924729D01*
X205075271Y-98236038D01*
X205441331Y-98480631D01*
X205848075Y-98649110D01*
X206279872Y-98735000D01*
X206720128Y-98735000D01*
X207151925Y-98649110D01*
X207558669Y-98480631D01*
X207924729Y-98236038D01*
X208236038Y-97924729D01*
X208480631Y-97558669D01*
X208649110Y-97151925D01*
X208735000Y-96720128D01*
X208735000Y-96279872D01*
X208649110Y-95848075D01*
X208480631Y-95441331D01*
X208236038Y-95075271D01*
X207924729Y-94763962D01*
X207558669Y-94519369D01*
X207151925Y-94350890D01*
X206720128Y-94265000D01*
X206279872Y-94265000D01*
X205848075Y-94350890D01*
X205441331Y-94519369D01*
X205075271Y-94763962D01*
X204763962Y-95075271D01*
X204519369Y-95441331D01*
X204350890Y-95848075D01*
X204265000Y-96279872D01*
X182327212Y-96279872D01*
X182328072Y-95800000D01*
X182315812Y-95675518D01*
X182279502Y-95555820D01*
X182220537Y-95445506D01*
X182141185Y-95348815D01*
X182044494Y-95269463D01*
X181934180Y-95210498D01*
X181814482Y-95174188D01*
X181690000Y-95161928D01*
X181225750Y-95165000D01*
X181067000Y-95323750D01*
X180813000Y-95323750D01*
X180654250Y-95165000D01*
X180190000Y-95161928D01*
X180065518Y-95174188D01*
X179945820Y-95210498D01*
X179835506Y-95269463D01*
X179738815Y-95348815D01*
X179659463Y-95445506D01*
X179600498Y-95555820D01*
X179564188Y-95675518D01*
X179551928Y-95800000D01*
X177248072Y-95800000D01*
X177235812Y-95675518D01*
X177199502Y-95555820D01*
X177140537Y-95445506D01*
X177061185Y-95348815D01*
X176964494Y-95269463D01*
X176854180Y-95210498D01*
X176734482Y-95174188D01*
X176610000Y-95161928D01*
X176145750Y-95165000D01*
X175987000Y-95323750D01*
X175733000Y-95323750D01*
X175574250Y-95165000D01*
X175110000Y-95161928D01*
X174985518Y-95174188D01*
X174865820Y-95210498D01*
X174755506Y-95269463D01*
X174658815Y-95348815D01*
X174579463Y-95445506D01*
X174520498Y-95555820D01*
X174484188Y-95675518D01*
X174471928Y-95800000D01*
X152728072Y-95800000D01*
X152715812Y-95675518D01*
X152679502Y-95555820D01*
X152620537Y-95445506D01*
X152541185Y-95348815D01*
X152444494Y-95269463D01*
X152334180Y-95210498D01*
X152214482Y-95174188D01*
X152090000Y-95161928D01*
X151625750Y-95165000D01*
X151467000Y-95323750D01*
X151213000Y-95323750D01*
X151054250Y-95165000D01*
X150590000Y-95161928D01*
X150465518Y-95174188D01*
X150345820Y-95210498D01*
X150235506Y-95269463D01*
X150138815Y-95348815D01*
X150059463Y-95445506D01*
X150000498Y-95555820D01*
X149964188Y-95675518D01*
X149951928Y-95800000D01*
X147648072Y-95800000D01*
X147635812Y-95675518D01*
X147599502Y-95555820D01*
X147540537Y-95445506D01*
X147461185Y-95348815D01*
X147364494Y-95269463D01*
X147254180Y-95210498D01*
X147134482Y-95174188D01*
X147010000Y-95161928D01*
X146545750Y-95165000D01*
X146387000Y-95323750D01*
X146133000Y-95323750D01*
X145974250Y-95165000D01*
X145510000Y-95161928D01*
X145385518Y-95174188D01*
X145265820Y-95210498D01*
X145155506Y-95269463D01*
X145058815Y-95348815D01*
X144979463Y-95445506D01*
X144920498Y-95555820D01*
X144884188Y-95675518D01*
X144871928Y-95800000D01*
X125629197Y-95800000D01*
X125480631Y-95441331D01*
X125236038Y-95075271D01*
X124924729Y-94763962D01*
X124558669Y-94519369D01*
X124151925Y-94350890D01*
X123720128Y-94265000D01*
X123279872Y-94265000D01*
X122848075Y-94350890D01*
X122441331Y-94519369D01*
X122075271Y-94763962D01*
X121763962Y-95075271D01*
X121519369Y-95441331D01*
X121350890Y-95848075D01*
X121265000Y-96279872D01*
X120685000Y-96279872D01*
X120685000Y-90033203D01*
X121914250Y-90031000D01*
X122073000Y-89872250D01*
X122073000Y-88773000D01*
X122327000Y-88773000D01*
X122327000Y-89872250D01*
X122485750Y-90031000D01*
X124200000Y-90034072D01*
X124324482Y-90021812D01*
X124444180Y-89985502D01*
X124554494Y-89926537D01*
X124651185Y-89847185D01*
X124730537Y-89750494D01*
X124789502Y-89640180D01*
X124825812Y-89520482D01*
X124838072Y-89396000D01*
X124835000Y-88931750D01*
X124676250Y-88773000D01*
X122327000Y-88773000D01*
X122073000Y-88773000D01*
X122053000Y-88773000D01*
X122053000Y-88519000D01*
X122073000Y-88519000D01*
X122073000Y-87419750D01*
X122327000Y-87419750D01*
X122327000Y-88519000D01*
X124676250Y-88519000D01*
X124835000Y-88360250D01*
X124838072Y-87896000D01*
X124825812Y-87771518D01*
X124789502Y-87651820D01*
X124730537Y-87541506D01*
X124651185Y-87444815D01*
X124593448Y-87397431D01*
X135358600Y-87397431D01*
X135358600Y-87602569D01*
X135398620Y-87803765D01*
X135477123Y-87993288D01*
X135591092Y-88163854D01*
X135736146Y-88308908D01*
X135906712Y-88422877D01*
X136096235Y-88501380D01*
X136297431Y-88541400D01*
X136502569Y-88541400D01*
X136703765Y-88501380D01*
X136893288Y-88422877D01*
X137063854Y-88308908D01*
X137150000Y-88222762D01*
X137236146Y-88308908D01*
X137406712Y-88422877D01*
X137596235Y-88501380D01*
X137797431Y-88541400D01*
X138002569Y-88541400D01*
X138203765Y-88501380D01*
X138393288Y-88422877D01*
X138563854Y-88308908D01*
X138708908Y-88163854D01*
X138822877Y-87993288D01*
X138901380Y-87803765D01*
X138941400Y-87602569D01*
X138941400Y-87397431D01*
X138901380Y-87196235D01*
X138822877Y-87006712D01*
X138708908Y-86836146D01*
X138563854Y-86691092D01*
X138393288Y-86577123D01*
X138203765Y-86498620D01*
X138197788Y-86497431D01*
X169658600Y-86497431D01*
X169658600Y-86702569D01*
X169698620Y-86903765D01*
X169777123Y-87093288D01*
X169891092Y-87263854D01*
X170036146Y-87408908D01*
X170206712Y-87522877D01*
X170396235Y-87601380D01*
X170597431Y-87641400D01*
X170802569Y-87641400D01*
X171003765Y-87601380D01*
X171193288Y-87522877D01*
X171363854Y-87408908D01*
X171508908Y-87263854D01*
X171622877Y-87093288D01*
X171701380Y-86903765D01*
X171741400Y-86702569D01*
X171741400Y-86497431D01*
X171701380Y-86296235D01*
X171622877Y-86106712D01*
X171508908Y-85936146D01*
X171363854Y-85791092D01*
X171193288Y-85677123D01*
X171003765Y-85598620D01*
X170802569Y-85558600D01*
X170597431Y-85558600D01*
X170396235Y-85598620D01*
X170206712Y-85677123D01*
X170036146Y-85791092D01*
X169891092Y-85936146D01*
X169777123Y-86106712D01*
X169698620Y-86296235D01*
X169658600Y-86497431D01*
X138197788Y-86497431D01*
X138002569Y-86458600D01*
X137797431Y-86458600D01*
X137596235Y-86498620D01*
X137406712Y-86577123D01*
X137236146Y-86691092D01*
X137150000Y-86777238D01*
X137063854Y-86691092D01*
X136893288Y-86577123D01*
X136703765Y-86498620D01*
X136502569Y-86458600D01*
X136297431Y-86458600D01*
X136096235Y-86498620D01*
X135906712Y-86577123D01*
X135736146Y-86691092D01*
X135591092Y-86836146D01*
X135477123Y-87006712D01*
X135398620Y-87196235D01*
X135358600Y-87397431D01*
X124593448Y-87397431D01*
X124554494Y-87365463D01*
X124444180Y-87306498D01*
X124324482Y-87270188D01*
X124200000Y-87257928D01*
X122485750Y-87261000D01*
X122327000Y-87419750D01*
X122073000Y-87419750D01*
X121914250Y-87261000D01*
X120685000Y-87258797D01*
X120685000Y-84953203D01*
X121914250Y-84951000D01*
X122073000Y-84792250D01*
X122073000Y-83693000D01*
X122327000Y-83693000D01*
X122327000Y-84792250D01*
X122485750Y-84951000D01*
X124200000Y-84954072D01*
X124324482Y-84941812D01*
X124444180Y-84905502D01*
X124554494Y-84846537D01*
X124651185Y-84767185D01*
X124730537Y-84670494D01*
X124789502Y-84560180D01*
X124825812Y-84440482D01*
X124838072Y-84316000D01*
X124835000Y-83851750D01*
X124676250Y-83693000D01*
X122327000Y-83693000D01*
X122073000Y-83693000D01*
X122053000Y-83693000D01*
X122053000Y-83439000D01*
X122073000Y-83439000D01*
X122073000Y-82339750D01*
X122327000Y-82339750D01*
X122327000Y-83439000D01*
X124676250Y-83439000D01*
X124835000Y-83280250D01*
X124838072Y-82816000D01*
X124825812Y-82691518D01*
X124789502Y-82571820D01*
X124730537Y-82461506D01*
X124651185Y-82364815D01*
X124554494Y-82285463D01*
X124444180Y-82226498D01*
X124324482Y-82190188D01*
X124200000Y-82177928D01*
X122485750Y-82181000D01*
X122327000Y-82339750D01*
X122073000Y-82339750D01*
X121914250Y-82181000D01*
X120685000Y-82178797D01*
X120685000Y-80937691D01*
X120714930Y-81009948D01*
X120887273Y-81267877D01*
X121106623Y-81487227D01*
X121364552Y-81659570D01*
X121651148Y-81778282D01*
X121955396Y-81838800D01*
X122265604Y-81838800D01*
X122473582Y-81797431D01*
X134494990Y-81797431D01*
X134494990Y-82002569D01*
X134535010Y-82203765D01*
X134613513Y-82393288D01*
X134727482Y-82563854D01*
X134738567Y-82574939D01*
X134727482Y-82586024D01*
X134613513Y-82756590D01*
X134535010Y-82946113D01*
X134494990Y-83147309D01*
X134494990Y-83352447D01*
X134535010Y-83553643D01*
X134613513Y-83743166D01*
X134685034Y-83850205D01*
X134613513Y-83957244D01*
X134535010Y-84146767D01*
X134494990Y-84347963D01*
X134494990Y-84553101D01*
X134535010Y-84754297D01*
X134613513Y-84943820D01*
X134727482Y-85114386D01*
X134872536Y-85259440D01*
X135043102Y-85373409D01*
X135232625Y-85451912D01*
X135433821Y-85491932D01*
X135638959Y-85491932D01*
X135840155Y-85451912D01*
X136029678Y-85373409D01*
X136200244Y-85259440D01*
X136345298Y-85114386D01*
X136459267Y-84943820D01*
X136537770Y-84754297D01*
X136577790Y-84553101D01*
X136577790Y-84347963D01*
X136537770Y-84146767D01*
X136459267Y-83957244D01*
X136387746Y-83850205D01*
X136459267Y-83743166D01*
X136537770Y-83553643D01*
X136577790Y-83352447D01*
X136577790Y-83147309D01*
X136537770Y-82946113D01*
X136459267Y-82756590D01*
X136345298Y-82586024D01*
X136334213Y-82574939D01*
X136345298Y-82563854D01*
X136459267Y-82393288D01*
X136537770Y-82203765D01*
X136577790Y-82002569D01*
X136577790Y-81797431D01*
X136557899Y-81697431D01*
X166258600Y-81697431D01*
X166258600Y-81902569D01*
X166298620Y-82103765D01*
X166377123Y-82293288D01*
X166491092Y-82463854D01*
X166636146Y-82608908D01*
X166806712Y-82722877D01*
X166996235Y-82801380D01*
X167058598Y-82813785D01*
X167058598Y-82902569D01*
X167098618Y-83103765D01*
X167177121Y-83293288D01*
X167291090Y-83463854D01*
X167436144Y-83608908D01*
X167606710Y-83722877D01*
X167796233Y-83801380D01*
X167997429Y-83841400D01*
X168202567Y-83841400D01*
X168403763Y-83801380D01*
X168593286Y-83722877D01*
X168763852Y-83608908D01*
X168908906Y-83463854D01*
X169022875Y-83293288D01*
X169101378Y-83103765D01*
X169141398Y-82902569D01*
X169141398Y-82697431D01*
X169101378Y-82496235D01*
X169022875Y-82306712D01*
X168908906Y-82136146D01*
X168763852Y-81991092D01*
X168623679Y-81897431D01*
X170558600Y-81897431D01*
X170558600Y-82102569D01*
X170598620Y-82303765D01*
X170677123Y-82493288D01*
X170791092Y-82663854D01*
X170936146Y-82808908D01*
X171106712Y-82922877D01*
X171296235Y-83001380D01*
X171404352Y-83022886D01*
X171291092Y-83136146D01*
X171177123Y-83306712D01*
X171098620Y-83496235D01*
X171058600Y-83697431D01*
X171058600Y-83902569D01*
X171098620Y-84103765D01*
X171177123Y-84293288D01*
X171291092Y-84463854D01*
X171436146Y-84608908D01*
X171606712Y-84722877D01*
X171796235Y-84801380D01*
X171997431Y-84841400D01*
X172202569Y-84841400D01*
X172403765Y-84801380D01*
X172593288Y-84722877D01*
X172763854Y-84608908D01*
X172908908Y-84463854D01*
X173022877Y-84293288D01*
X173062582Y-84197431D01*
X196558600Y-84197431D01*
X196558600Y-84402569D01*
X196598620Y-84603765D01*
X196677123Y-84793288D01*
X196791092Y-84963854D01*
X196936146Y-85108908D01*
X197106712Y-85222877D01*
X197296235Y-85301380D01*
X197497431Y-85341400D01*
X197566324Y-85341400D01*
X197598620Y-85503765D01*
X197677123Y-85693288D01*
X197791092Y-85863854D01*
X197936146Y-86008908D01*
X198106712Y-86122877D01*
X198296235Y-86201380D01*
X198497431Y-86241400D01*
X198702569Y-86241400D01*
X198903765Y-86201380D01*
X199014962Y-86155321D01*
X198907123Y-86316712D01*
X198828620Y-86506235D01*
X198788600Y-86707431D01*
X198788600Y-86912569D01*
X198828620Y-87113765D01*
X198907123Y-87303288D01*
X199021092Y-87473854D01*
X199166146Y-87618908D01*
X199336712Y-87732877D01*
X199526235Y-87811380D01*
X199727431Y-87851400D01*
X199932569Y-87851400D01*
X200133765Y-87811380D01*
X200323288Y-87732877D01*
X200493854Y-87618908D01*
X200638908Y-87473854D01*
X200752877Y-87303288D01*
X200831380Y-87113765D01*
X200871400Y-86912569D01*
X200871400Y-86707431D01*
X200831380Y-86506235D01*
X200752877Y-86316712D01*
X200638908Y-86146146D01*
X200493854Y-86001092D01*
X200323288Y-85887123D01*
X200133765Y-85808620D01*
X199932569Y-85768600D01*
X199727431Y-85768600D01*
X199526235Y-85808620D01*
X199415038Y-85854679D01*
X199522877Y-85693288D01*
X199601380Y-85503765D01*
X199641400Y-85302569D01*
X199641400Y-85097431D01*
X199601380Y-84896235D01*
X199522877Y-84706712D01*
X199408908Y-84536146D01*
X199263854Y-84391092D01*
X199093288Y-84277123D01*
X198903765Y-84198620D01*
X198702569Y-84158600D01*
X198633676Y-84158600D01*
X198601380Y-83996235D01*
X198522877Y-83806712D01*
X198408908Y-83636146D01*
X198263854Y-83491092D01*
X198093288Y-83377123D01*
X197903765Y-83298620D01*
X197702569Y-83258600D01*
X197497431Y-83258600D01*
X197296235Y-83298620D01*
X197106712Y-83377123D01*
X196936146Y-83491092D01*
X196791092Y-83636146D01*
X196677123Y-83806712D01*
X196598620Y-83996235D01*
X196558600Y-84197431D01*
X173062582Y-84197431D01*
X173101380Y-84103765D01*
X173141400Y-83902569D01*
X173141400Y-83697431D01*
X173101380Y-83496235D01*
X173022877Y-83306712D01*
X172908908Y-83136146D01*
X172763854Y-82991092D01*
X172593288Y-82877123D01*
X172403765Y-82798620D01*
X172295648Y-82777114D01*
X172408908Y-82663854D01*
X172522877Y-82493288D01*
X172601380Y-82303765D01*
X172641400Y-82102569D01*
X172641400Y-81897431D01*
X172601380Y-81696235D01*
X172565262Y-81609039D01*
X172603765Y-81601380D01*
X172793288Y-81522877D01*
X172963854Y-81408908D01*
X173108908Y-81263854D01*
X173222877Y-81093288D01*
X173301380Y-80903765D01*
X173341400Y-80702569D01*
X173341400Y-80497431D01*
X173301380Y-80296235D01*
X173222877Y-80106712D01*
X173108908Y-79936146D01*
X172963854Y-79791092D01*
X172793288Y-79677123D01*
X172603765Y-79598620D01*
X172402569Y-79558600D01*
X172197431Y-79558600D01*
X171996235Y-79598620D01*
X171806712Y-79677123D01*
X171636146Y-79791092D01*
X171491092Y-79936146D01*
X171377123Y-80106712D01*
X171298620Y-80296235D01*
X171258600Y-80497431D01*
X171258600Y-80702569D01*
X171298620Y-80903765D01*
X171334738Y-80990961D01*
X171296235Y-80998620D01*
X171106712Y-81077123D01*
X170936146Y-81191092D01*
X170791092Y-81336146D01*
X170677123Y-81506712D01*
X170598620Y-81696235D01*
X170558600Y-81897431D01*
X168623679Y-81897431D01*
X168593286Y-81877123D01*
X168403763Y-81798620D01*
X168341400Y-81786215D01*
X168341400Y-81697431D01*
X168301380Y-81496235D01*
X168222877Y-81306712D01*
X168108908Y-81136146D01*
X167963854Y-80991092D01*
X167793288Y-80877123D01*
X167603765Y-80798620D01*
X167402569Y-80758600D01*
X167197431Y-80758600D01*
X166996235Y-80798620D01*
X166806712Y-80877123D01*
X166636146Y-80991092D01*
X166491092Y-81136146D01*
X166377123Y-81306712D01*
X166298620Y-81496235D01*
X166258600Y-81697431D01*
X136557899Y-81697431D01*
X136537770Y-81596235D01*
X136459267Y-81406712D01*
X136345298Y-81236146D01*
X136200244Y-81091092D01*
X136029678Y-80977123D01*
X135840155Y-80898620D01*
X135638959Y-80858600D01*
X135433821Y-80858600D01*
X135232625Y-80898620D01*
X135043102Y-80977123D01*
X134872536Y-81091092D01*
X134727482Y-81236146D01*
X134613513Y-81406712D01*
X134535010Y-81596235D01*
X134494990Y-81797431D01*
X122473582Y-81797431D01*
X122569852Y-81778282D01*
X122856448Y-81659570D01*
X123114377Y-81487227D01*
X123333727Y-81267877D01*
X123506070Y-81009948D01*
X123624782Y-80723352D01*
X123685300Y-80419104D01*
X123685300Y-80108896D01*
X123663129Y-79997431D01*
X128158600Y-79997431D01*
X128158600Y-80202569D01*
X128198620Y-80403765D01*
X128277123Y-80593288D01*
X128391092Y-80763854D01*
X128536146Y-80908908D01*
X128706712Y-81022877D01*
X128896235Y-81101380D01*
X129097431Y-81141400D01*
X129302569Y-81141400D01*
X129503765Y-81101380D01*
X129693288Y-81022877D01*
X129863854Y-80908908D01*
X130008908Y-80763854D01*
X130122877Y-80593288D01*
X130201380Y-80403765D01*
X130241400Y-80202569D01*
X130241400Y-79997431D01*
X130201380Y-79796235D01*
X130122877Y-79606712D01*
X130008908Y-79436146D01*
X129863854Y-79291092D01*
X129693288Y-79177123D01*
X129503765Y-79098620D01*
X129302569Y-79058600D01*
X129097431Y-79058600D01*
X128896235Y-79098620D01*
X128706712Y-79177123D01*
X128536146Y-79291092D01*
X128391092Y-79436146D01*
X128277123Y-79606712D01*
X128198620Y-79796235D01*
X128158600Y-79997431D01*
X123663129Y-79997431D01*
X123624782Y-79804648D01*
X123506070Y-79518052D01*
X123333727Y-79260123D01*
X123114377Y-79040773D01*
X123044376Y-78994000D01*
X123114377Y-78947227D01*
X123333727Y-78727877D01*
X123506070Y-78469948D01*
X123624782Y-78183352D01*
X123685300Y-77879104D01*
X123685300Y-77697431D01*
X128358600Y-77697431D01*
X128358600Y-77902569D01*
X128398620Y-78103765D01*
X128477123Y-78293288D01*
X128591092Y-78463854D01*
X128736146Y-78608908D01*
X128906712Y-78722877D01*
X129096235Y-78801380D01*
X129297431Y-78841400D01*
X129502569Y-78841400D01*
X129703765Y-78801380D01*
X129893288Y-78722877D01*
X130063854Y-78608908D01*
X130085233Y-78587529D01*
X201954502Y-78587529D01*
X201954502Y-78792667D01*
X201994522Y-78993863D01*
X202073025Y-79183386D01*
X202186994Y-79353952D01*
X202332048Y-79499006D01*
X202502614Y-79612975D01*
X202692137Y-79691478D01*
X202893333Y-79731498D01*
X203098471Y-79731498D01*
X203299667Y-79691478D01*
X203489190Y-79612975D01*
X203659756Y-79499006D01*
X203804810Y-79353952D01*
X203918779Y-79183386D01*
X203997282Y-78993863D01*
X204016463Y-78897431D01*
X204190602Y-78897431D01*
X204190602Y-79102569D01*
X204230622Y-79303765D01*
X204309125Y-79493288D01*
X204423094Y-79663854D01*
X204568148Y-79808908D01*
X204738714Y-79922877D01*
X204928237Y-80001380D01*
X205129433Y-80041400D01*
X205334571Y-80041400D01*
X205535767Y-80001380D01*
X205725290Y-79922877D01*
X205895856Y-79808908D01*
X206040910Y-79663854D01*
X206154879Y-79493288D01*
X206233382Y-79303765D01*
X206273402Y-79102569D01*
X206273402Y-78897431D01*
X206233382Y-78696235D01*
X206154879Y-78506712D01*
X206040910Y-78336146D01*
X205895856Y-78191092D01*
X205725290Y-78077123D01*
X205535767Y-77998620D01*
X205334571Y-77958600D01*
X205129433Y-77958600D01*
X204928237Y-77998620D01*
X204738714Y-78077123D01*
X204568148Y-78191092D01*
X204423094Y-78336146D01*
X204309125Y-78506712D01*
X204230622Y-78696235D01*
X204190602Y-78897431D01*
X204016463Y-78897431D01*
X204037302Y-78792667D01*
X204037302Y-78587529D01*
X203997282Y-78386333D01*
X203918779Y-78196810D01*
X203804810Y-78026244D01*
X203659756Y-77881190D01*
X203489190Y-77767221D01*
X203299667Y-77688718D01*
X203098471Y-77648698D01*
X202893333Y-77648698D01*
X202692137Y-77688718D01*
X202502614Y-77767221D01*
X202332048Y-77881190D01*
X202186994Y-78026244D01*
X202073025Y-78196810D01*
X201994522Y-78386333D01*
X201954502Y-78587529D01*
X130085233Y-78587529D01*
X130208908Y-78463854D01*
X130322877Y-78293288D01*
X130401380Y-78103765D01*
X130441400Y-77902569D01*
X130441400Y-77697431D01*
X130401380Y-77496235D01*
X130322877Y-77306712D01*
X130208908Y-77136146D01*
X130063854Y-76991092D01*
X129893288Y-76877123D01*
X129703765Y-76798620D01*
X129502569Y-76758600D01*
X129297431Y-76758600D01*
X129096235Y-76798620D01*
X128906712Y-76877123D01*
X128736146Y-76991092D01*
X128591092Y-77136146D01*
X128477123Y-77306712D01*
X128398620Y-77496235D01*
X128358600Y-77697431D01*
X123685300Y-77697431D01*
X123685300Y-77568896D01*
X123624782Y-77264648D01*
X123506070Y-76978052D01*
X123333727Y-76720123D01*
X123114377Y-76500773D01*
X123044376Y-76454000D01*
X123114377Y-76407227D01*
X123333727Y-76187877D01*
X123506070Y-75929948D01*
X123624782Y-75643352D01*
X123685300Y-75339104D01*
X123685300Y-75312426D01*
X128050048Y-75312426D01*
X128050048Y-75517564D01*
X128090068Y-75718760D01*
X128168571Y-75908283D01*
X128282540Y-76078849D01*
X128427594Y-76223903D01*
X128598160Y-76337872D01*
X128787683Y-76416375D01*
X128988879Y-76456395D01*
X129194017Y-76456395D01*
X129395213Y-76416375D01*
X129584736Y-76337872D01*
X129720089Y-76247431D01*
X203558600Y-76247431D01*
X203558600Y-76452569D01*
X203598620Y-76653765D01*
X203677123Y-76843288D01*
X203791092Y-77013854D01*
X203936146Y-77158908D01*
X204106712Y-77272877D01*
X204296235Y-77351380D01*
X204497431Y-77391400D01*
X204702569Y-77391400D01*
X204903765Y-77351380D01*
X205093288Y-77272877D01*
X205263854Y-77158908D01*
X205408908Y-77013854D01*
X205522877Y-76843288D01*
X205601380Y-76653765D01*
X205641400Y-76452569D01*
X205641400Y-76247431D01*
X205601380Y-76046235D01*
X205522877Y-75856712D01*
X205408908Y-75686146D01*
X205263854Y-75541092D01*
X205093288Y-75427123D01*
X204903765Y-75348620D01*
X204702569Y-75308600D01*
X204497431Y-75308600D01*
X204296235Y-75348620D01*
X204106712Y-75427123D01*
X203936146Y-75541092D01*
X203791092Y-75686146D01*
X203677123Y-75856712D01*
X203598620Y-76046235D01*
X203558600Y-76247431D01*
X129720089Y-76247431D01*
X129755302Y-76223903D01*
X129900356Y-76078849D01*
X130014325Y-75908283D01*
X130092828Y-75718760D01*
X130132848Y-75517564D01*
X130132848Y-75312426D01*
X130092828Y-75111230D01*
X130014325Y-74921707D01*
X129900356Y-74751141D01*
X129755302Y-74606087D01*
X129584736Y-74492118D01*
X129395213Y-74413615D01*
X129194017Y-74373595D01*
X128988879Y-74373595D01*
X128787683Y-74413615D01*
X128598160Y-74492118D01*
X128427594Y-74606087D01*
X128282540Y-74751141D01*
X128168571Y-74921707D01*
X128090068Y-75111230D01*
X128050048Y-75312426D01*
X123685300Y-75312426D01*
X123685300Y-75028896D01*
X123624782Y-74724648D01*
X123506070Y-74438052D01*
X123333727Y-74180123D01*
X123114377Y-73960773D01*
X123044376Y-73914000D01*
X123114377Y-73867227D01*
X123333727Y-73647877D01*
X123506070Y-73389948D01*
X123624782Y-73103352D01*
X123685300Y-72799104D01*
X123685300Y-72548710D01*
X138785991Y-72548710D01*
X138785991Y-72753848D01*
X138826011Y-72955044D01*
X138904514Y-73144567D01*
X139018483Y-73315133D01*
X139163537Y-73460187D01*
X139334103Y-73574156D01*
X139523626Y-73652659D01*
X139724822Y-73692679D01*
X139929960Y-73692679D01*
X140131156Y-73652659D01*
X140320679Y-73574156D01*
X140491245Y-73460187D01*
X140636299Y-73315133D01*
X140750268Y-73144567D01*
X140828771Y-72955044D01*
X140832224Y-72937684D01*
X140849585Y-72934231D01*
X141039108Y-72855728D01*
X141209674Y-72741759D01*
X141354728Y-72596705D01*
X141468697Y-72426139D01*
X141547200Y-72236616D01*
X141587220Y-72035420D01*
X141587220Y-71830282D01*
X141580686Y-71797431D01*
X151558600Y-71797431D01*
X151558600Y-72002569D01*
X151598620Y-72203765D01*
X151677123Y-72393288D01*
X151791092Y-72563854D01*
X151936146Y-72708908D01*
X152106712Y-72822877D01*
X152296235Y-72901380D01*
X152497431Y-72941400D01*
X152702569Y-72941400D01*
X152903765Y-72901380D01*
X153093288Y-72822877D01*
X153263854Y-72708908D01*
X153408908Y-72563854D01*
X153522877Y-72393288D01*
X153601380Y-72203765D01*
X153641400Y-72002569D01*
X153641400Y-71797431D01*
X153601380Y-71596235D01*
X153522877Y-71406712D01*
X153408908Y-71236146D01*
X153263854Y-71091092D01*
X153093288Y-70977123D01*
X152903765Y-70898620D01*
X152702569Y-70858600D01*
X152497431Y-70858600D01*
X152296235Y-70898620D01*
X152106712Y-70977123D01*
X151936146Y-71091092D01*
X151791092Y-71236146D01*
X151677123Y-71406712D01*
X151598620Y-71596235D01*
X151558600Y-71797431D01*
X141580686Y-71797431D01*
X141547200Y-71629086D01*
X141468697Y-71439563D01*
X141354728Y-71268997D01*
X141209674Y-71123943D01*
X141039108Y-71009974D01*
X140849585Y-70931471D01*
X140648389Y-70891451D01*
X140443251Y-70891451D01*
X140242055Y-70931471D01*
X140052532Y-71009974D01*
X139881966Y-71123943D01*
X139736912Y-71268997D01*
X139622943Y-71439563D01*
X139544440Y-71629086D01*
X139540987Y-71646446D01*
X139523626Y-71649899D01*
X139334103Y-71728402D01*
X139163537Y-71842371D01*
X139018483Y-71987425D01*
X138904514Y-72157991D01*
X138826011Y-72347514D01*
X138785991Y-72548710D01*
X123685300Y-72548710D01*
X123685300Y-72488896D01*
X123624782Y-72184648D01*
X123506070Y-71898052D01*
X123333727Y-71640123D01*
X123114377Y-71420773D01*
X123044376Y-71374000D01*
X123114377Y-71327227D01*
X123144173Y-71297431D01*
X124958600Y-71297431D01*
X124958600Y-71502569D01*
X124998620Y-71703765D01*
X125077123Y-71893288D01*
X125191092Y-72063854D01*
X125336146Y-72208908D01*
X125506712Y-72322877D01*
X125696235Y-72401380D01*
X125897431Y-72441400D01*
X126102569Y-72441400D01*
X126303765Y-72401380D01*
X126493288Y-72322877D01*
X126663854Y-72208908D01*
X126808908Y-72063854D01*
X126922877Y-71893288D01*
X127001380Y-71703765D01*
X127041400Y-71502569D01*
X127041400Y-71297431D01*
X127001380Y-71096235D01*
X126922877Y-70906712D01*
X126808908Y-70736146D01*
X126663854Y-70591092D01*
X126493288Y-70477123D01*
X126303765Y-70398620D01*
X126102569Y-70358600D01*
X125897431Y-70358600D01*
X125696235Y-70398620D01*
X125506712Y-70477123D01*
X125336146Y-70591092D01*
X125191092Y-70736146D01*
X125077123Y-70906712D01*
X124998620Y-71096235D01*
X124958600Y-71297431D01*
X123144173Y-71297431D01*
X123333727Y-71107877D01*
X123506070Y-70849948D01*
X123624782Y-70563352D01*
X123685300Y-70259104D01*
X123685300Y-69977404D01*
X161937010Y-69977404D01*
X161937010Y-70182542D01*
X161977030Y-70383738D01*
X162055533Y-70573261D01*
X162169502Y-70743827D01*
X162314556Y-70888881D01*
X162485122Y-71002850D01*
X162674645Y-71081353D01*
X162875841Y-71121373D01*
X163080979Y-71121373D01*
X163168679Y-71103929D01*
X163173620Y-71128769D01*
X163252123Y-71318292D01*
X163366092Y-71488858D01*
X163511146Y-71633912D01*
X163681712Y-71747881D01*
X163871235Y-71826384D01*
X164072431Y-71866404D01*
X164277569Y-71866404D01*
X164478765Y-71826384D01*
X164668288Y-71747881D01*
X164838854Y-71633912D01*
X164983908Y-71488858D01*
X165097877Y-71318292D01*
X165176380Y-71128769D01*
X165216400Y-70927573D01*
X165216400Y-70722435D01*
X165191536Y-70597431D01*
X165358600Y-70597431D01*
X165358600Y-70802569D01*
X165398620Y-71003765D01*
X165477123Y-71193288D01*
X165591092Y-71363854D01*
X165736146Y-71508908D01*
X165906712Y-71622877D01*
X166096235Y-71701380D01*
X166297431Y-71741400D01*
X166492955Y-71741400D01*
X166406712Y-71777123D01*
X166236146Y-71891092D01*
X166091092Y-72036146D01*
X165977123Y-72206712D01*
X165898620Y-72396235D01*
X165858600Y-72597431D01*
X165858600Y-72802569D01*
X165898620Y-73003765D01*
X165977123Y-73193288D01*
X166060980Y-73318789D01*
X165984093Y-73504411D01*
X165944073Y-73705607D01*
X165944073Y-73910745D01*
X165984093Y-74111941D01*
X166062596Y-74301464D01*
X166176565Y-74472030D01*
X166321619Y-74617084D01*
X166492185Y-74731053D01*
X166681708Y-74809556D01*
X166882904Y-74849576D01*
X167088042Y-74849576D01*
X167289238Y-74809556D01*
X167478761Y-74731053D01*
X167649327Y-74617084D01*
X167794381Y-74472030D01*
X167908350Y-74301464D01*
X167986853Y-74111941D01*
X168026873Y-73910745D01*
X168026873Y-73705607D01*
X167986853Y-73504411D01*
X167908350Y-73314888D01*
X167824493Y-73189387D01*
X167901380Y-73003765D01*
X167941400Y-72802569D01*
X167941400Y-72597431D01*
X167901380Y-72396235D01*
X167822877Y-72206712D01*
X167708908Y-72036146D01*
X167563854Y-71891092D01*
X167393288Y-71777123D01*
X167203765Y-71698620D01*
X167002569Y-71658600D01*
X166807045Y-71658600D01*
X166893288Y-71622877D01*
X167063854Y-71508908D01*
X167078663Y-71494099D01*
X167096235Y-71501378D01*
X167297431Y-71541398D01*
X167502569Y-71541398D01*
X167703765Y-71501378D01*
X167893288Y-71422875D01*
X168063854Y-71308906D01*
X168071740Y-71301020D01*
X168117652Y-71331698D01*
X168307175Y-71410201D01*
X168508371Y-71450221D01*
X168713509Y-71450221D01*
X168914705Y-71410201D01*
X169104228Y-71331698D01*
X169274794Y-71217729D01*
X169419848Y-71072675D01*
X169492970Y-70963241D01*
X169566092Y-71072675D01*
X169711146Y-71217729D01*
X169881712Y-71331698D01*
X170071235Y-71410201D01*
X170272431Y-71450221D01*
X170477569Y-71450221D01*
X170678765Y-71410201D01*
X170709594Y-71397431D01*
X181458600Y-71397431D01*
X181458600Y-71602569D01*
X181498620Y-71803765D01*
X181577123Y-71993288D01*
X181691092Y-72163854D01*
X181836146Y-72308908D01*
X182006712Y-72422877D01*
X182196235Y-72501380D01*
X182397431Y-72541400D01*
X182602569Y-72541400D01*
X182803765Y-72501380D01*
X182993288Y-72422877D01*
X183163854Y-72308908D01*
X183308908Y-72163854D01*
X183422877Y-71993288D01*
X183462582Y-71897431D01*
X184158600Y-71897431D01*
X184158600Y-72102569D01*
X184198620Y-72303765D01*
X184277123Y-72493288D01*
X184391092Y-72663854D01*
X184536146Y-72808908D01*
X184706712Y-72922877D01*
X184896235Y-73001380D01*
X185097431Y-73041400D01*
X185302569Y-73041400D01*
X185503765Y-73001380D01*
X185693288Y-72922877D01*
X185863854Y-72808908D01*
X186008908Y-72663854D01*
X186122877Y-72493288D01*
X186201380Y-72303765D01*
X186241400Y-72102569D01*
X186241400Y-71897431D01*
X186201380Y-71696235D01*
X186122877Y-71506712D01*
X186008908Y-71336146D01*
X185863854Y-71191092D01*
X185693288Y-71077123D01*
X185503765Y-70998620D01*
X185302569Y-70958600D01*
X185097431Y-70958600D01*
X184896235Y-70998620D01*
X184706712Y-71077123D01*
X184536146Y-71191092D01*
X184391092Y-71336146D01*
X184277123Y-71506712D01*
X184198620Y-71696235D01*
X184158600Y-71897431D01*
X183462582Y-71897431D01*
X183501380Y-71803765D01*
X183541400Y-71602569D01*
X183541400Y-71397431D01*
X183501380Y-71196235D01*
X183422877Y-71006712D01*
X183308908Y-70836146D01*
X183163854Y-70691092D01*
X182993288Y-70577123D01*
X182803765Y-70498620D01*
X182602569Y-70458600D01*
X182397431Y-70458600D01*
X182196235Y-70498620D01*
X182006712Y-70577123D01*
X181836146Y-70691092D01*
X181691092Y-70836146D01*
X181577123Y-71006712D01*
X181498620Y-71196235D01*
X181458600Y-71397431D01*
X170709594Y-71397431D01*
X170868288Y-71331698D01*
X171038854Y-71217729D01*
X171183908Y-71072675D01*
X171297877Y-70902109D01*
X171376380Y-70712586D01*
X171416400Y-70511390D01*
X171416400Y-70306252D01*
X171376380Y-70105056D01*
X171297877Y-69915533D01*
X171183908Y-69744967D01*
X171038854Y-69599913D01*
X170885480Y-69497431D01*
X200958600Y-69497431D01*
X200958600Y-69702569D01*
X200998620Y-69903765D01*
X201077123Y-70093288D01*
X201191092Y-70263854D01*
X201336146Y-70408908D01*
X201506712Y-70522877D01*
X201696235Y-70601380D01*
X201897431Y-70641400D01*
X202102569Y-70641400D01*
X202303765Y-70601380D01*
X202493288Y-70522877D01*
X202663854Y-70408908D01*
X202808908Y-70263854D01*
X202922877Y-70093288D01*
X203001380Y-69903765D01*
X203041400Y-69702569D01*
X203041400Y-69497431D01*
X203001380Y-69296235D01*
X202922877Y-69106712D01*
X202808908Y-68936146D01*
X202663854Y-68791092D01*
X202493288Y-68677123D01*
X202303765Y-68598620D01*
X202102569Y-68558600D01*
X201897431Y-68558600D01*
X201696235Y-68598620D01*
X201506712Y-68677123D01*
X201336146Y-68791092D01*
X201191092Y-68936146D01*
X201077123Y-69106712D01*
X200998620Y-69296235D01*
X200958600Y-69497431D01*
X170885480Y-69497431D01*
X170868288Y-69485944D01*
X170678765Y-69407441D01*
X170477569Y-69367421D01*
X170272431Y-69367421D01*
X170071235Y-69407441D01*
X169881712Y-69485944D01*
X169711146Y-69599913D01*
X169566092Y-69744967D01*
X169492970Y-69854401D01*
X169419848Y-69744967D01*
X169274794Y-69599913D01*
X169104228Y-69485944D01*
X168914705Y-69407441D01*
X168713509Y-69367421D01*
X168508371Y-69367421D01*
X168307175Y-69407441D01*
X168117652Y-69485944D01*
X167947086Y-69599913D01*
X167939200Y-69607799D01*
X167893288Y-69577121D01*
X167703765Y-69498618D01*
X167502569Y-69458598D01*
X167297431Y-69458598D01*
X167096235Y-69498618D01*
X166906712Y-69577121D01*
X166736146Y-69691090D01*
X166721337Y-69705899D01*
X166703765Y-69698620D01*
X166502569Y-69658600D01*
X166297431Y-69658600D01*
X166096235Y-69698620D01*
X165906712Y-69777123D01*
X165736146Y-69891092D01*
X165591092Y-70036146D01*
X165477123Y-70206712D01*
X165398620Y-70396235D01*
X165358600Y-70597431D01*
X165191536Y-70597431D01*
X165176380Y-70521239D01*
X165097877Y-70331716D01*
X164983908Y-70161150D01*
X164838854Y-70016096D01*
X164668288Y-69902127D01*
X164478765Y-69823624D01*
X164277569Y-69783604D01*
X164072431Y-69783604D01*
X163984731Y-69801048D01*
X163979790Y-69776208D01*
X163901287Y-69586685D01*
X163787318Y-69416119D01*
X163642264Y-69271065D01*
X163471698Y-69157096D01*
X163282175Y-69078593D01*
X163080979Y-69038573D01*
X162875841Y-69038573D01*
X162674645Y-69078593D01*
X162485122Y-69157096D01*
X162314556Y-69271065D01*
X162169502Y-69416119D01*
X162055533Y-69586685D01*
X161977030Y-69776208D01*
X161937010Y-69977404D01*
X123685300Y-69977404D01*
X123685300Y-69948896D01*
X123624782Y-69644648D01*
X123506070Y-69358052D01*
X123333727Y-69100123D01*
X123114377Y-68880773D01*
X123044376Y-68834000D01*
X123114377Y-68787227D01*
X123154173Y-68747431D01*
X124858600Y-68747431D01*
X124858600Y-68952569D01*
X124898620Y-69153765D01*
X124977123Y-69343288D01*
X125091092Y-69513854D01*
X125236146Y-69658908D01*
X125406712Y-69772877D01*
X125596235Y-69851380D01*
X125797431Y-69891400D01*
X126002569Y-69891400D01*
X126203765Y-69851380D01*
X126393288Y-69772877D01*
X126563854Y-69658908D01*
X126708908Y-69513854D01*
X126822877Y-69343288D01*
X126901380Y-69153765D01*
X126941400Y-68952569D01*
X126941400Y-68747431D01*
X126901380Y-68546235D01*
X126822877Y-68356712D01*
X126708908Y-68186146D01*
X126563854Y-68041092D01*
X126393288Y-67927123D01*
X126203765Y-67848620D01*
X126002569Y-67808600D01*
X125797431Y-67808600D01*
X125596235Y-67848620D01*
X125406712Y-67927123D01*
X125236146Y-68041092D01*
X125091092Y-68186146D01*
X124977123Y-68356712D01*
X124898620Y-68546235D01*
X124858600Y-68747431D01*
X123154173Y-68747431D01*
X123333727Y-68567877D01*
X123506070Y-68309948D01*
X123624782Y-68023352D01*
X123685300Y-67719104D01*
X123685300Y-67497431D01*
X136658600Y-67497431D01*
X136658600Y-67702569D01*
X136698620Y-67903765D01*
X136777123Y-68093288D01*
X136891092Y-68263854D01*
X136899885Y-68272647D01*
X136877123Y-68306712D01*
X136798620Y-68496235D01*
X136758600Y-68697431D01*
X136758600Y-68902569D01*
X136798620Y-69103765D01*
X136877123Y-69293288D01*
X136991092Y-69463854D01*
X137136146Y-69608908D01*
X137306712Y-69722877D01*
X137496235Y-69801380D01*
X137697431Y-69841400D01*
X137902569Y-69841400D01*
X138103765Y-69801380D01*
X138293288Y-69722877D01*
X138463854Y-69608908D01*
X138608908Y-69463854D01*
X138722877Y-69293288D01*
X138801380Y-69103765D01*
X138841400Y-68902569D01*
X138841400Y-68797431D01*
X146258600Y-68797431D01*
X146258600Y-69002569D01*
X146298620Y-69203765D01*
X146377123Y-69393288D01*
X146491092Y-69563854D01*
X146636146Y-69708908D01*
X146806712Y-69822877D01*
X146996235Y-69901380D01*
X147197431Y-69941400D01*
X147402569Y-69941400D01*
X147603765Y-69901380D01*
X147793288Y-69822877D01*
X147963854Y-69708908D01*
X148108908Y-69563854D01*
X148222877Y-69393288D01*
X148301380Y-69203765D01*
X148341400Y-69002569D01*
X148341400Y-68797431D01*
X148301380Y-68596235D01*
X148222877Y-68406712D01*
X148108908Y-68236146D01*
X147963854Y-68091092D01*
X147793288Y-67977123D01*
X147603765Y-67898620D01*
X147402569Y-67858600D01*
X147197431Y-67858600D01*
X146996235Y-67898620D01*
X146806712Y-67977123D01*
X146636146Y-68091092D01*
X146491092Y-68236146D01*
X146377123Y-68406712D01*
X146298620Y-68596235D01*
X146258600Y-68797431D01*
X138841400Y-68797431D01*
X138841400Y-68697431D01*
X138801380Y-68496235D01*
X138722877Y-68306712D01*
X138608908Y-68136146D01*
X138600115Y-68127353D01*
X138622877Y-68093288D01*
X138701380Y-67903765D01*
X138741400Y-67702569D01*
X138741400Y-67497431D01*
X138701380Y-67296235D01*
X138622877Y-67106712D01*
X138508908Y-66936146D01*
X138370191Y-66797429D01*
X184558600Y-66797429D01*
X184558600Y-67002567D01*
X184598620Y-67203763D01*
X184677123Y-67393286D01*
X184791092Y-67563852D01*
X184936146Y-67708906D01*
X185106712Y-67822875D01*
X185296235Y-67901378D01*
X185497431Y-67941398D01*
X185702569Y-67941398D01*
X185903765Y-67901378D01*
X186093288Y-67822875D01*
X186263854Y-67708906D01*
X186408908Y-67563852D01*
X186522877Y-67393286D01*
X186601380Y-67203763D01*
X186641400Y-67002567D01*
X186641400Y-66797429D01*
X186601380Y-66596233D01*
X186522877Y-66406710D01*
X186408908Y-66236144D01*
X186263854Y-66091090D01*
X186123684Y-65997431D01*
X194758600Y-65997431D01*
X194758600Y-66202569D01*
X194798620Y-66403765D01*
X194877123Y-66593288D01*
X194991092Y-66763854D01*
X195136146Y-66908908D01*
X195306712Y-67022877D01*
X195496235Y-67101380D01*
X195697431Y-67141400D01*
X195902569Y-67141400D01*
X196103765Y-67101380D01*
X196293288Y-67022877D01*
X196463854Y-66908908D01*
X196608908Y-66763854D01*
X196722877Y-66593288D01*
X196801380Y-66403765D01*
X196841400Y-66202569D01*
X196841400Y-66197431D01*
X200858600Y-66197431D01*
X200858600Y-66402569D01*
X200898620Y-66603765D01*
X200977123Y-66793288D01*
X201091092Y-66963854D01*
X201236146Y-67108908D01*
X201406712Y-67222877D01*
X201596235Y-67301380D01*
X201797431Y-67341400D01*
X202002569Y-67341400D01*
X202203765Y-67301380D01*
X202393288Y-67222877D01*
X202563854Y-67108908D01*
X202708908Y-66963854D01*
X202822877Y-66793288D01*
X202901380Y-66603765D01*
X202941400Y-66402569D01*
X202941400Y-66197431D01*
X202901380Y-65996235D01*
X202822877Y-65806712D01*
X202708908Y-65636146D01*
X202563854Y-65491092D01*
X202393288Y-65377123D01*
X202203765Y-65298620D01*
X202002569Y-65258600D01*
X201797431Y-65258600D01*
X201596235Y-65298620D01*
X201406712Y-65377123D01*
X201236146Y-65491092D01*
X201091092Y-65636146D01*
X200977123Y-65806712D01*
X200898620Y-65996235D01*
X200858600Y-66197431D01*
X196841400Y-66197431D01*
X196841400Y-65997431D01*
X196801380Y-65796235D01*
X196722877Y-65606712D01*
X196608908Y-65436146D01*
X196463854Y-65291092D01*
X196293288Y-65177123D01*
X196103765Y-65098620D01*
X195902569Y-65058600D01*
X195697431Y-65058600D01*
X195496235Y-65098620D01*
X195306712Y-65177123D01*
X195136146Y-65291092D01*
X194991092Y-65436146D01*
X194877123Y-65606712D01*
X194798620Y-65796235D01*
X194758600Y-65997431D01*
X186123684Y-65997431D01*
X186093288Y-65977121D01*
X185903765Y-65898618D01*
X185702569Y-65858598D01*
X185497431Y-65858598D01*
X185296235Y-65898618D01*
X185106712Y-65977121D01*
X184936146Y-66091090D01*
X184791092Y-66236144D01*
X184677123Y-66406710D01*
X184598620Y-66596233D01*
X184558600Y-66797429D01*
X138370191Y-66797429D01*
X138363854Y-66791092D01*
X138193288Y-66677123D01*
X138003765Y-66598620D01*
X137802569Y-66558600D01*
X137597431Y-66558600D01*
X137396235Y-66598620D01*
X137206712Y-66677123D01*
X137036146Y-66791092D01*
X136891092Y-66936146D01*
X136777123Y-67106712D01*
X136698620Y-67296235D01*
X136658600Y-67497431D01*
X123685300Y-67497431D01*
X123685300Y-67408896D01*
X123624782Y-67104648D01*
X123506070Y-66818052D01*
X123333727Y-66560123D01*
X123114377Y-66340773D01*
X123029855Y-66284297D01*
X125277537Y-66284297D01*
X125277537Y-66489435D01*
X125317557Y-66690631D01*
X125396060Y-66880154D01*
X125510029Y-67050720D01*
X125655083Y-67195774D01*
X125825649Y-67309743D01*
X126015172Y-67388246D01*
X126216368Y-67428266D01*
X126421506Y-67428266D01*
X126622702Y-67388246D01*
X126812225Y-67309743D01*
X126982791Y-67195774D01*
X127127845Y-67050720D01*
X127241814Y-66880154D01*
X127320317Y-66690631D01*
X127360337Y-66489435D01*
X127360337Y-66284297D01*
X127320317Y-66083101D01*
X127241814Y-65893578D01*
X127127845Y-65723012D01*
X126982791Y-65577958D01*
X126916736Y-65533821D01*
X156131012Y-65533821D01*
X156131012Y-65738959D01*
X156171032Y-65940155D01*
X156249535Y-66129678D01*
X156363504Y-66300244D01*
X156508558Y-66445298D01*
X156679124Y-66559267D01*
X156868647Y-66637770D01*
X157069843Y-66677790D01*
X157274981Y-66677790D01*
X157476177Y-66637770D01*
X157665700Y-66559267D01*
X157836266Y-66445298D01*
X157981320Y-66300244D01*
X158095289Y-66129678D01*
X158173792Y-65940155D01*
X158213812Y-65738959D01*
X158213812Y-65533821D01*
X158173792Y-65332625D01*
X158095289Y-65143102D01*
X157981320Y-64972536D01*
X157836266Y-64827482D01*
X157665700Y-64713513D01*
X157476177Y-64635010D01*
X157274981Y-64594990D01*
X157069843Y-64594990D01*
X156868647Y-64635010D01*
X156679124Y-64713513D01*
X156508558Y-64827482D01*
X156363504Y-64972536D01*
X156249535Y-65143102D01*
X156171032Y-65332625D01*
X156131012Y-65533821D01*
X126916736Y-65533821D01*
X126812225Y-65463989D01*
X126622702Y-65385486D01*
X126421506Y-65345466D01*
X126216368Y-65345466D01*
X126015172Y-65385486D01*
X125825649Y-65463989D01*
X125655083Y-65577958D01*
X125510029Y-65723012D01*
X125396060Y-65893578D01*
X125317557Y-66083101D01*
X125277537Y-66284297D01*
X123029855Y-66284297D01*
X122856448Y-66168430D01*
X122569852Y-66049718D01*
X122265604Y-65989200D01*
X121955396Y-65989200D01*
X121651148Y-66049718D01*
X121364552Y-66168430D01*
X121106623Y-66340773D01*
X120887273Y-66560123D01*
X120714930Y-66818052D01*
X120685000Y-66890309D01*
X120685000Y-64297431D01*
X120758600Y-64297431D01*
X120758600Y-64502569D01*
X120798620Y-64703765D01*
X120877123Y-64893288D01*
X120991092Y-65063854D01*
X121136146Y-65208908D01*
X121306712Y-65322877D01*
X121496235Y-65401380D01*
X121697431Y-65441400D01*
X121902569Y-65441400D01*
X122103765Y-65401380D01*
X122293288Y-65322877D01*
X122463854Y-65208908D01*
X122608908Y-65063854D01*
X122722877Y-64893288D01*
X122801380Y-64703765D01*
X122841400Y-64502569D01*
X122841400Y-64297431D01*
X122801380Y-64096235D01*
X122760455Y-63997431D01*
X172958600Y-63997431D01*
X172958600Y-64202569D01*
X172998620Y-64403765D01*
X173077123Y-64593288D01*
X173191092Y-64763854D01*
X173336146Y-64908908D01*
X173506712Y-65022877D01*
X173696235Y-65101380D01*
X173897431Y-65141400D01*
X174102569Y-65141400D01*
X174303765Y-65101380D01*
X174493288Y-65022877D01*
X174663854Y-64908908D01*
X174808908Y-64763854D01*
X174922877Y-64593288D01*
X175001380Y-64403765D01*
X175041400Y-64202569D01*
X175041400Y-63997431D01*
X175001380Y-63796235D01*
X174922877Y-63606712D01*
X174808908Y-63436146D01*
X174663854Y-63291092D01*
X174493288Y-63177123D01*
X174303765Y-63098620D01*
X174102569Y-63058600D01*
X173897431Y-63058600D01*
X173696235Y-63098620D01*
X173506712Y-63177123D01*
X173336146Y-63291092D01*
X173191092Y-63436146D01*
X173077123Y-63606712D01*
X172998620Y-63796235D01*
X172958600Y-63997431D01*
X122760455Y-63997431D01*
X122722877Y-63906712D01*
X122608908Y-63736146D01*
X122463854Y-63591092D01*
X122293288Y-63477123D01*
X122103765Y-63398620D01*
X121902569Y-63358600D01*
X121697431Y-63358600D01*
X121496235Y-63398620D01*
X121306712Y-63477123D01*
X121136146Y-63591092D01*
X120991092Y-63736146D01*
X120877123Y-63906712D01*
X120798620Y-64096235D01*
X120758600Y-64297431D01*
X120685000Y-64297431D01*
X120685000Y-61497431D01*
X120858600Y-61497431D01*
X120858600Y-61702569D01*
X120898620Y-61903765D01*
X120977123Y-62093288D01*
X121091092Y-62263854D01*
X121236146Y-62408908D01*
X121406712Y-62522877D01*
X121596235Y-62601380D01*
X121797431Y-62641400D01*
X122002569Y-62641400D01*
X122203765Y-62601380D01*
X122393288Y-62522877D01*
X122563854Y-62408908D01*
X122708908Y-62263854D01*
X122822877Y-62093288D01*
X122901380Y-61903765D01*
X122907612Y-61872431D01*
X191858600Y-61872431D01*
X191858600Y-62077569D01*
X191898620Y-62278765D01*
X191977123Y-62468288D01*
X192091092Y-62638854D01*
X192236146Y-62783908D01*
X192406712Y-62897877D01*
X192596235Y-62976380D01*
X192797431Y-63016400D01*
X193002569Y-63016400D01*
X193203765Y-62976380D01*
X193393288Y-62897877D01*
X193563854Y-62783908D01*
X193708908Y-62638854D01*
X193822877Y-62468288D01*
X193901380Y-62278765D01*
X193941400Y-62077569D01*
X193941400Y-61897431D01*
X198858600Y-61897431D01*
X198858600Y-62102569D01*
X198898620Y-62303765D01*
X198977123Y-62493288D01*
X199091092Y-62663854D01*
X199236146Y-62808908D01*
X199406712Y-62922877D01*
X199596235Y-63001380D01*
X199797431Y-63041400D01*
X200002569Y-63041400D01*
X200203765Y-63001380D01*
X200393288Y-62922877D01*
X200563854Y-62808908D01*
X200575331Y-62797431D01*
X200758600Y-62797431D01*
X200758600Y-63002569D01*
X200798620Y-63203765D01*
X200877123Y-63393288D01*
X200991092Y-63563854D01*
X201136146Y-63708908D01*
X201306712Y-63822877D01*
X201496235Y-63901380D01*
X201697431Y-63941400D01*
X201902569Y-63941400D01*
X202103765Y-63901380D01*
X202293288Y-63822877D01*
X202463854Y-63708908D01*
X202608908Y-63563854D01*
X202722877Y-63393288D01*
X202801380Y-63203765D01*
X202841400Y-63002569D01*
X202841400Y-62797431D01*
X202801380Y-62596235D01*
X202722877Y-62406712D01*
X202608908Y-62236146D01*
X202463854Y-62091092D01*
X202293288Y-61977123D01*
X202103765Y-61898620D01*
X201902569Y-61858600D01*
X201697431Y-61858600D01*
X201496235Y-61898620D01*
X201306712Y-61977123D01*
X201136146Y-62091092D01*
X200991092Y-62236146D01*
X200877123Y-62406712D01*
X200798620Y-62596235D01*
X200758600Y-62797431D01*
X200575331Y-62797431D01*
X200708908Y-62663854D01*
X200822877Y-62493288D01*
X200901380Y-62303765D01*
X200941400Y-62102569D01*
X200941400Y-61897431D01*
X200901380Y-61696235D01*
X200822877Y-61506712D01*
X200708908Y-61336146D01*
X200563854Y-61191092D01*
X200393288Y-61077123D01*
X200203765Y-60998620D01*
X200002569Y-60958600D01*
X199797431Y-60958600D01*
X199596235Y-60998620D01*
X199406712Y-61077123D01*
X199236146Y-61191092D01*
X199091092Y-61336146D01*
X198977123Y-61506712D01*
X198898620Y-61696235D01*
X198858600Y-61897431D01*
X193941400Y-61897431D01*
X193941400Y-61872431D01*
X193901380Y-61671235D01*
X193822877Y-61481712D01*
X193708908Y-61311146D01*
X193563854Y-61166092D01*
X193393288Y-61052123D01*
X193203765Y-60973620D01*
X193002569Y-60933600D01*
X192797431Y-60933600D01*
X192596235Y-60973620D01*
X192406712Y-61052123D01*
X192236146Y-61166092D01*
X192091092Y-61311146D01*
X191977123Y-61481712D01*
X191898620Y-61671235D01*
X191858600Y-61872431D01*
X122907612Y-61872431D01*
X122941400Y-61702569D01*
X122941400Y-61497431D01*
X122901380Y-61296235D01*
X122822877Y-61106712D01*
X122708908Y-60936146D01*
X122563854Y-60791092D01*
X122393288Y-60677123D01*
X122203765Y-60598620D01*
X122002569Y-60558600D01*
X121797431Y-60558600D01*
X121596235Y-60598620D01*
X121406712Y-60677123D01*
X121236146Y-60791092D01*
X121091092Y-60936146D01*
X120977123Y-61106712D01*
X120898620Y-61296235D01*
X120858600Y-61497431D01*
X120685000Y-61497431D01*
X120685000Y-58597431D01*
X120758600Y-58597431D01*
X120758600Y-58802569D01*
X120798620Y-59003765D01*
X120877123Y-59193288D01*
X120991092Y-59363854D01*
X121136146Y-59508908D01*
X121306712Y-59622877D01*
X121496235Y-59701380D01*
X121697431Y-59741400D01*
X121902569Y-59741400D01*
X122103765Y-59701380D01*
X122113298Y-59697431D01*
X147983600Y-59697431D01*
X147983600Y-59902569D01*
X148023620Y-60103765D01*
X148102123Y-60293288D01*
X148216092Y-60463854D01*
X148361146Y-60608908D01*
X148531712Y-60722877D01*
X148721235Y-60801380D01*
X148922431Y-60841400D01*
X149127569Y-60841400D01*
X149328765Y-60801380D01*
X149518288Y-60722877D01*
X149688854Y-60608908D01*
X149833908Y-60463854D01*
X149947877Y-60293288D01*
X150026380Y-60103765D01*
X150066400Y-59902569D01*
X150066400Y-59697431D01*
X150026380Y-59496235D01*
X149947877Y-59306712D01*
X149833908Y-59136146D01*
X149688854Y-58991092D01*
X149518288Y-58877123D01*
X149328765Y-58798620D01*
X149127569Y-58758600D01*
X148922431Y-58758600D01*
X148721235Y-58798620D01*
X148531712Y-58877123D01*
X148361146Y-58991092D01*
X148216092Y-59136146D01*
X148102123Y-59306712D01*
X148023620Y-59496235D01*
X147983600Y-59697431D01*
X122113298Y-59697431D01*
X122293288Y-59622877D01*
X122463854Y-59508908D01*
X122608908Y-59363854D01*
X122722877Y-59193288D01*
X122801380Y-59003765D01*
X122841400Y-58802569D01*
X122841400Y-58597431D01*
X122801380Y-58396235D01*
X122722877Y-58206712D01*
X122608908Y-58036146D01*
X122463854Y-57891092D01*
X122293288Y-57777123D01*
X122103765Y-57698620D01*
X121902569Y-57658600D01*
X121697431Y-57658600D01*
X121496235Y-57698620D01*
X121306712Y-57777123D01*
X121136146Y-57891092D01*
X120991092Y-58036146D01*
X120877123Y-58206712D01*
X120798620Y-58396235D01*
X120758600Y-58597431D01*
X120685000Y-58597431D01*
X120685000Y-57130900D01*
X139807600Y-57130900D01*
X139807600Y-57630900D01*
X139854185Y-57849887D01*
X139942597Y-58055578D01*
X140069439Y-58240069D01*
X140229836Y-58396269D01*
X140417624Y-58518176D01*
X140640726Y-58598019D01*
X140815600Y-58471854D01*
X140815600Y-57130900D01*
X139807600Y-57130900D01*
X120685000Y-57130900D01*
X120685000Y-56376900D01*
X139807600Y-56376900D01*
X139807600Y-56876900D01*
X140815600Y-56876900D01*
X140815600Y-55535946D01*
X141069600Y-55535946D01*
X141069600Y-56876900D01*
X141089600Y-56876900D01*
X141089600Y-57130900D01*
X141069600Y-57130900D01*
X141069600Y-58471854D01*
X141244474Y-58598019D01*
X141467576Y-58518176D01*
X141655364Y-58396269D01*
X141815761Y-58240069D01*
X141942603Y-58055578D01*
X142031015Y-57849887D01*
X142077600Y-57630900D01*
X142077600Y-57212514D01*
X142091668Y-57213900D01*
X142433532Y-57213900D01*
X142570892Y-57200371D01*
X142747140Y-57146907D01*
X142909572Y-57060086D01*
X143051944Y-56943244D01*
X143168786Y-56800872D01*
X143255607Y-56638440D01*
X143309071Y-56462192D01*
X143327124Y-56278900D01*
X143318054Y-56186811D01*
X147327600Y-56186811D01*
X147327600Y-56370989D01*
X147363532Y-56551629D01*
X147434014Y-56721789D01*
X147536338Y-56874928D01*
X147666572Y-57005162D01*
X147819711Y-57107486D01*
X147989871Y-57177968D01*
X148170511Y-57213900D01*
X148354689Y-57213900D01*
X148447600Y-57195419D01*
X148447600Y-57630900D01*
X148494185Y-57849887D01*
X148582597Y-58055578D01*
X148709439Y-58240069D01*
X148869836Y-58396269D01*
X149057624Y-58518176D01*
X149280726Y-58598019D01*
X149455600Y-58471854D01*
X149455600Y-57130900D01*
X149709600Y-57130900D01*
X149709600Y-58471854D01*
X149884474Y-58598019D01*
X150107576Y-58518176D01*
X150295364Y-58396269D01*
X150455761Y-58240069D01*
X150582603Y-58055578D01*
X150671015Y-57849887D01*
X150717600Y-57630900D01*
X150717600Y-57130900D01*
X155581000Y-57130900D01*
X155581000Y-57630900D01*
X155627585Y-57849887D01*
X155715997Y-58055578D01*
X155842839Y-58240069D01*
X156003236Y-58396269D01*
X156191024Y-58518176D01*
X156414126Y-58598019D01*
X156589000Y-58471854D01*
X156589000Y-57130900D01*
X155581000Y-57130900D01*
X150717600Y-57130900D01*
X149709600Y-57130900D01*
X149455600Y-57130900D01*
X149435600Y-57130900D01*
X149435600Y-56876900D01*
X149455600Y-56876900D01*
X149455600Y-55535946D01*
X149709600Y-55535946D01*
X149709600Y-56876900D01*
X150717600Y-56876900D01*
X150717600Y-56376900D01*
X155581000Y-56376900D01*
X155581000Y-56876900D01*
X156589000Y-56876900D01*
X156589000Y-55535946D01*
X156843000Y-55535946D01*
X156843000Y-56876900D01*
X156863000Y-56876900D01*
X156863000Y-57130900D01*
X156843000Y-57130900D01*
X156843000Y-58471854D01*
X157017874Y-58598019D01*
X157240976Y-58518176D01*
X157428764Y-58396269D01*
X157589161Y-58240069D01*
X157716003Y-58055578D01*
X157804415Y-57849887D01*
X157851000Y-57630900D01*
X157851000Y-57212514D01*
X157865068Y-57213900D01*
X158206932Y-57213900D01*
X158344292Y-57200371D01*
X158520540Y-57146907D01*
X158682972Y-57060086D01*
X158825344Y-56943244D01*
X158942186Y-56800872D01*
X159029007Y-56638440D01*
X159082471Y-56462192D01*
X159100524Y-56278900D01*
X159091454Y-56186811D01*
X163101000Y-56186811D01*
X163101000Y-56370989D01*
X163136932Y-56551629D01*
X163207414Y-56721789D01*
X163309738Y-56874928D01*
X163439972Y-57005162D01*
X163593111Y-57107486D01*
X163763271Y-57177968D01*
X163943911Y-57213900D01*
X164128089Y-57213900D01*
X164221000Y-57195419D01*
X164221000Y-57630900D01*
X164267585Y-57849887D01*
X164355997Y-58055578D01*
X164482839Y-58240069D01*
X164643236Y-58396269D01*
X164831024Y-58518176D01*
X165054126Y-58598019D01*
X165229000Y-58471854D01*
X165229000Y-57130900D01*
X165483000Y-57130900D01*
X165483000Y-58471854D01*
X165657874Y-58598019D01*
X165880976Y-58518176D01*
X166068764Y-58396269D01*
X166229161Y-58240069D01*
X166356003Y-58055578D01*
X166444415Y-57849887D01*
X166491000Y-57630900D01*
X166491000Y-57130900D01*
X165483000Y-57130900D01*
X165229000Y-57130900D01*
X165209000Y-57130900D01*
X165209000Y-56876900D01*
X165229000Y-56876900D01*
X165229000Y-55535946D01*
X165483000Y-55535946D01*
X165483000Y-56876900D01*
X166491000Y-56876900D01*
X166491000Y-56822431D01*
X181208600Y-56822431D01*
X181208600Y-57027569D01*
X181248620Y-57228765D01*
X181327123Y-57418288D01*
X181441092Y-57588854D01*
X181586146Y-57733908D01*
X181756712Y-57847877D01*
X181946235Y-57926380D01*
X182147431Y-57966400D01*
X182352569Y-57966400D01*
X182553765Y-57926380D01*
X182719217Y-57857848D01*
X182708600Y-57911221D01*
X182708600Y-58116359D01*
X182748620Y-58317555D01*
X182827123Y-58507078D01*
X182941092Y-58677644D01*
X183086146Y-58822698D01*
X183256712Y-58936667D01*
X183446235Y-59015170D01*
X183647431Y-59055190D01*
X183852569Y-59055190D01*
X184053765Y-59015170D01*
X184243288Y-58936667D01*
X184413854Y-58822698D01*
X184558908Y-58677644D01*
X184672877Y-58507078D01*
X184751380Y-58317555D01*
X184791400Y-58116359D01*
X184791400Y-57911221D01*
X184751380Y-57710025D01*
X184672877Y-57520502D01*
X184558908Y-57349936D01*
X184450417Y-57241445D01*
X184476380Y-57178765D01*
X184516400Y-56977569D01*
X184516400Y-56847431D01*
X195333600Y-56847431D01*
X195333600Y-57052569D01*
X195373620Y-57253765D01*
X195452123Y-57443288D01*
X195566092Y-57613854D01*
X195711146Y-57758908D01*
X195881712Y-57872877D01*
X196071235Y-57951380D01*
X196272431Y-57991400D01*
X196477569Y-57991400D01*
X196549786Y-57977035D01*
X196591092Y-58038854D01*
X196736146Y-58183908D01*
X196906712Y-58297877D01*
X197096235Y-58376380D01*
X197297431Y-58416400D01*
X197502569Y-58416400D01*
X197703765Y-58376380D01*
X197893288Y-58297877D01*
X198043622Y-58197426D01*
X198081712Y-58222877D01*
X198271235Y-58301380D01*
X198472431Y-58341400D01*
X198677569Y-58341400D01*
X198878765Y-58301380D01*
X199068288Y-58222877D01*
X199238854Y-58108908D01*
X199383908Y-57963854D01*
X199497877Y-57793288D01*
X199576380Y-57603765D01*
X199616400Y-57402569D01*
X199616400Y-57197431D01*
X199576380Y-56996235D01*
X199497877Y-56806712D01*
X199383908Y-56636146D01*
X199238854Y-56491092D01*
X199068288Y-56377123D01*
X198878765Y-56298620D01*
X198677569Y-56258600D01*
X198472431Y-56258600D01*
X198271235Y-56298620D01*
X198081712Y-56377123D01*
X197931378Y-56477574D01*
X197893288Y-56452123D01*
X197703765Y-56373620D01*
X197502569Y-56333600D01*
X197297431Y-56333600D01*
X197225214Y-56347965D01*
X197183908Y-56286146D01*
X197038854Y-56141092D01*
X196868288Y-56027123D01*
X196678765Y-55948620D01*
X196477569Y-55908600D01*
X196272431Y-55908600D01*
X196071235Y-55948620D01*
X195881712Y-56027123D01*
X195711146Y-56141092D01*
X195566092Y-56286146D01*
X195452123Y-56456712D01*
X195373620Y-56646235D01*
X195333600Y-56847431D01*
X184516400Y-56847431D01*
X184516400Y-56772431D01*
X184476380Y-56571235D01*
X184397877Y-56381712D01*
X184283908Y-56211146D01*
X184138854Y-56066092D01*
X183968288Y-55952123D01*
X183778765Y-55873620D01*
X183577569Y-55833600D01*
X183372431Y-55833600D01*
X183171235Y-55873620D01*
X182981712Y-55952123D01*
X182825085Y-56056778D01*
X182743288Y-56002123D01*
X182553765Y-55923620D01*
X182352569Y-55883600D01*
X182147431Y-55883600D01*
X181946235Y-55923620D01*
X181756712Y-56002123D01*
X181586146Y-56116092D01*
X181441092Y-56261146D01*
X181327123Y-56431712D01*
X181248620Y-56621235D01*
X181208600Y-56822431D01*
X166491000Y-56822431D01*
X166491000Y-56376900D01*
X166444415Y-56157913D01*
X166356003Y-55952222D01*
X166229161Y-55767731D01*
X166068764Y-55611531D01*
X165880976Y-55489624D01*
X165657874Y-55409781D01*
X165483000Y-55535946D01*
X165229000Y-55535946D01*
X165054126Y-55409781D01*
X164831024Y-55489624D01*
X164672150Y-55592760D01*
X164632028Y-55552638D01*
X164478889Y-55450314D01*
X164308729Y-55379832D01*
X164128089Y-55343900D01*
X163943911Y-55343900D01*
X163763271Y-55379832D01*
X163593111Y-55450314D01*
X163439972Y-55552638D01*
X163309738Y-55682872D01*
X163207414Y-55836011D01*
X163136932Y-56006171D01*
X163101000Y-56186811D01*
X159091454Y-56186811D01*
X159082471Y-56095608D01*
X159029007Y-55919360D01*
X158942186Y-55756928D01*
X158825344Y-55614556D01*
X158682972Y-55497714D01*
X158520540Y-55410893D01*
X158344292Y-55357429D01*
X158206932Y-55343900D01*
X157865068Y-55343900D01*
X157727708Y-55357429D01*
X157551460Y-55410893D01*
X157389028Y-55497714D01*
X157329144Y-55546860D01*
X157240976Y-55489624D01*
X157017874Y-55409781D01*
X156843000Y-55535946D01*
X156589000Y-55535946D01*
X156414126Y-55409781D01*
X156191024Y-55489624D01*
X156003236Y-55611531D01*
X155842839Y-55767731D01*
X155715997Y-55952222D01*
X155627585Y-56157913D01*
X155581000Y-56376900D01*
X150717600Y-56376900D01*
X150671015Y-56157913D01*
X150582603Y-55952222D01*
X150455761Y-55767731D01*
X150295364Y-55611531D01*
X150107576Y-55489624D01*
X149884474Y-55409781D01*
X149709600Y-55535946D01*
X149455600Y-55535946D01*
X149280726Y-55409781D01*
X149057624Y-55489624D01*
X148898750Y-55592760D01*
X148858628Y-55552638D01*
X148705489Y-55450314D01*
X148535329Y-55379832D01*
X148354689Y-55343900D01*
X148170511Y-55343900D01*
X147989871Y-55379832D01*
X147819711Y-55450314D01*
X147666572Y-55552638D01*
X147536338Y-55682872D01*
X147434014Y-55836011D01*
X147363532Y-56006171D01*
X147327600Y-56186811D01*
X143318054Y-56186811D01*
X143309071Y-56095608D01*
X143255607Y-55919360D01*
X143168786Y-55756928D01*
X143051944Y-55614556D01*
X142909572Y-55497714D01*
X142747140Y-55410893D01*
X142570892Y-55357429D01*
X142433532Y-55343900D01*
X142091668Y-55343900D01*
X141954308Y-55357429D01*
X141778060Y-55410893D01*
X141615628Y-55497714D01*
X141555744Y-55546860D01*
X141467576Y-55489624D01*
X141244474Y-55409781D01*
X141069600Y-55535946D01*
X140815600Y-55535946D01*
X140640726Y-55409781D01*
X140417624Y-55489624D01*
X140229836Y-55611531D01*
X140069439Y-55767731D01*
X139942597Y-55952222D01*
X139854185Y-56157913D01*
X139807600Y-56376900D01*
X120685000Y-56376900D01*
X120685000Y-53279872D01*
X121265000Y-53279872D01*
X121265000Y-53720128D01*
X121350890Y-54151925D01*
X121519369Y-54558669D01*
X121763962Y-54924729D01*
X122075271Y-55236038D01*
X122441331Y-55480631D01*
X122848075Y-55649110D01*
X123279872Y-55735000D01*
X123720128Y-55735000D01*
X124151925Y-55649110D01*
X124558669Y-55480631D01*
X124924729Y-55236038D01*
X125236038Y-54924729D01*
X125480631Y-54558669D01*
X125649110Y-54151925D01*
X125735000Y-53720128D01*
X125735000Y-53305900D01*
X139807600Y-53305900D01*
X139807600Y-53955900D01*
X139854185Y-54174887D01*
X139942597Y-54380578D01*
X140069439Y-54565069D01*
X140229836Y-54721269D01*
X140417624Y-54843176D01*
X140640726Y-54923019D01*
X140815600Y-54796854D01*
X140815600Y-53305900D01*
X141069600Y-53305900D01*
X141069600Y-54796854D01*
X141244474Y-54923019D01*
X141467576Y-54843176D01*
X141655364Y-54721269D01*
X141815761Y-54565069D01*
X141942603Y-54380578D01*
X142031015Y-54174887D01*
X142077600Y-53955900D01*
X142077600Y-53305900D01*
X148447600Y-53305900D01*
X148447600Y-53955900D01*
X148494185Y-54174887D01*
X148582597Y-54380578D01*
X148709439Y-54565069D01*
X148869836Y-54721269D01*
X149057624Y-54843176D01*
X149280726Y-54923019D01*
X149455600Y-54796854D01*
X149455600Y-53305900D01*
X149709600Y-53305900D01*
X149709600Y-54796854D01*
X149884474Y-54923019D01*
X150107576Y-54843176D01*
X150295364Y-54721269D01*
X150455761Y-54565069D01*
X150582603Y-54380578D01*
X150671015Y-54174887D01*
X150717600Y-53955900D01*
X150717600Y-53305900D01*
X155581000Y-53305900D01*
X155581000Y-53955900D01*
X155627585Y-54174887D01*
X155715997Y-54380578D01*
X155842839Y-54565069D01*
X156003236Y-54721269D01*
X156191024Y-54843176D01*
X156414126Y-54923019D01*
X156589000Y-54796854D01*
X156589000Y-53305900D01*
X156843000Y-53305900D01*
X156843000Y-54796854D01*
X157017874Y-54923019D01*
X157240976Y-54843176D01*
X157428764Y-54721269D01*
X157589161Y-54565069D01*
X157716003Y-54380578D01*
X157804415Y-54174887D01*
X157851000Y-53955900D01*
X157851000Y-53305900D01*
X164221000Y-53305900D01*
X164221000Y-53955900D01*
X164267585Y-54174887D01*
X164355997Y-54380578D01*
X164482839Y-54565069D01*
X164643236Y-54721269D01*
X164831024Y-54843176D01*
X165054126Y-54923019D01*
X165229000Y-54796854D01*
X165229000Y-53305900D01*
X165483000Y-53305900D01*
X165483000Y-54796854D01*
X165657874Y-54923019D01*
X165880976Y-54843176D01*
X166068764Y-54721269D01*
X166229161Y-54565069D01*
X166356003Y-54380578D01*
X166444415Y-54174887D01*
X166491000Y-53955900D01*
X166491000Y-53305900D01*
X165483000Y-53305900D01*
X165229000Y-53305900D01*
X164221000Y-53305900D01*
X157851000Y-53305900D01*
X156843000Y-53305900D01*
X156589000Y-53305900D01*
X155581000Y-53305900D01*
X150717600Y-53305900D01*
X149709600Y-53305900D01*
X149455600Y-53305900D01*
X148447600Y-53305900D01*
X142077600Y-53305900D01*
X141069600Y-53305900D01*
X140815600Y-53305900D01*
X139807600Y-53305900D01*
X125735000Y-53305900D01*
X125735000Y-53279872D01*
X204265000Y-53279872D01*
X204265000Y-53720128D01*
X204350890Y-54151925D01*
X204519369Y-54558669D01*
X204763962Y-54924729D01*
X205075271Y-55236038D01*
X205441331Y-55480631D01*
X205848075Y-55649110D01*
X206279872Y-55735000D01*
X206720128Y-55735000D01*
X207151925Y-55649110D01*
X207558669Y-55480631D01*
X207924729Y-55236038D01*
X208236038Y-54924729D01*
X208480631Y-54558669D01*
X208649110Y-54151925D01*
X208735000Y-53720128D01*
X208735000Y-53279872D01*
X208649110Y-52848075D01*
X208480631Y-52441331D01*
X208236038Y-52075271D01*
X207924729Y-51763962D01*
X207558669Y-51519369D01*
X207151925Y-51350890D01*
X206720128Y-51265000D01*
X206279872Y-51265000D01*
X205848075Y-51350890D01*
X205441331Y-51519369D01*
X205075271Y-51763962D01*
X204763962Y-52075271D01*
X204519369Y-52441331D01*
X204350890Y-52848075D01*
X204265000Y-53279872D01*
X125735000Y-53279872D01*
X125649110Y-52848075D01*
X125480631Y-52441331D01*
X125454285Y-52401900D01*
X139807600Y-52401900D01*
X139807600Y-53051900D01*
X140815600Y-53051900D01*
X140815600Y-51560946D01*
X141069600Y-51560946D01*
X141069600Y-53051900D01*
X142077600Y-53051900D01*
X142077600Y-52401900D01*
X148447600Y-52401900D01*
X148447600Y-53051900D01*
X149455600Y-53051900D01*
X149455600Y-51560946D01*
X149709600Y-51560946D01*
X149709600Y-53051900D01*
X150717600Y-53051900D01*
X150717600Y-52401900D01*
X155581000Y-52401900D01*
X155581000Y-53051900D01*
X156589000Y-53051900D01*
X156589000Y-51560946D01*
X156843000Y-51560946D01*
X156843000Y-53051900D01*
X157851000Y-53051900D01*
X157851000Y-52401900D01*
X164221000Y-52401900D01*
X164221000Y-53051900D01*
X165229000Y-53051900D01*
X165229000Y-51560946D01*
X165483000Y-51560946D01*
X165483000Y-53051900D01*
X166491000Y-53051900D01*
X166491000Y-52401900D01*
X166444415Y-52182913D01*
X166356003Y-51977222D01*
X166229161Y-51792731D01*
X166068764Y-51636531D01*
X165880976Y-51514624D01*
X165657874Y-51434781D01*
X165483000Y-51560946D01*
X165229000Y-51560946D01*
X165054126Y-51434781D01*
X164831024Y-51514624D01*
X164643236Y-51636531D01*
X164482839Y-51792731D01*
X164355997Y-51977222D01*
X164267585Y-52182913D01*
X164221000Y-52401900D01*
X157851000Y-52401900D01*
X157804415Y-52182913D01*
X157716003Y-51977222D01*
X157589161Y-51792731D01*
X157428764Y-51636531D01*
X157240976Y-51514624D01*
X157017874Y-51434781D01*
X156843000Y-51560946D01*
X156589000Y-51560946D01*
X156414126Y-51434781D01*
X156191024Y-51514624D01*
X156003236Y-51636531D01*
X155842839Y-51792731D01*
X155715997Y-51977222D01*
X155627585Y-52182913D01*
X155581000Y-52401900D01*
X150717600Y-52401900D01*
X150671015Y-52182913D01*
X150582603Y-51977222D01*
X150455761Y-51792731D01*
X150295364Y-51636531D01*
X150107576Y-51514624D01*
X149884474Y-51434781D01*
X149709600Y-51560946D01*
X149455600Y-51560946D01*
X149280726Y-51434781D01*
X149057624Y-51514624D01*
X148869836Y-51636531D01*
X148709439Y-51792731D01*
X148582597Y-51977222D01*
X148494185Y-52182913D01*
X148447600Y-52401900D01*
X142077600Y-52401900D01*
X142031015Y-52182913D01*
X141942603Y-51977222D01*
X141815761Y-51792731D01*
X141655364Y-51636531D01*
X141467576Y-51514624D01*
X141244474Y-51434781D01*
X141069600Y-51560946D01*
X140815600Y-51560946D01*
X140640726Y-51434781D01*
X140417624Y-51514624D01*
X140229836Y-51636531D01*
X140069439Y-51792731D01*
X139942597Y-51977222D01*
X139854185Y-52182913D01*
X139807600Y-52401900D01*
X125454285Y-52401900D01*
X125236038Y-52075271D01*
X124924729Y-51763962D01*
X124558669Y-51519369D01*
X124151925Y-51350890D01*
X123720128Y-51265000D01*
X123279872Y-51265000D01*
X122848075Y-51350890D01*
X122441331Y-51519369D01*
X122075271Y-51763962D01*
X121763962Y-52075271D01*
X121519369Y-52441331D01*
X121350890Y-52848075D01*
X121265000Y-53279872D01*
X120685000Y-53279872D01*
X120685000Y-52533504D01*
X120722789Y-52148103D01*
X120824987Y-51809607D01*
X120990984Y-51497412D01*
X121214460Y-51223403D01*
X121486902Y-50998020D01*
X121797931Y-50829847D01*
X122135708Y-50725288D01*
X122519022Y-50685000D01*
X207466496Y-50685000D01*
X207851897Y-50722789D01*
%TA.AperFunction,Conductor*%
D17*
G36*
X207851897Y-50722789D02*
G01*
X208190393Y-50824987D01*
X208502588Y-50990984D01*
X208776597Y-51214460D01*
X209001980Y-51486902D01*
X209170153Y-51797931D01*
X209274712Y-52135708D01*
X209315001Y-52519031D01*
X209315001Y-74300961D01*
X209295570Y-74254052D01*
X209123227Y-73996123D01*
X208903877Y-73776773D01*
X208645948Y-73604430D01*
X208359352Y-73485718D01*
X208055104Y-73425200D01*
X207818351Y-73425200D01*
X207812590Y-73396235D01*
X207734087Y-73206712D01*
X207620118Y-73036146D01*
X207475064Y-72891092D01*
X207304498Y-72777123D01*
X207114975Y-72698620D01*
X206913779Y-72658600D01*
X206708641Y-72658600D01*
X206507445Y-72698620D01*
X206317922Y-72777123D01*
X206147356Y-72891092D01*
X206002302Y-73036146D01*
X205888333Y-73206712D01*
X205809830Y-73396235D01*
X205769810Y-73597431D01*
X205769810Y-73802569D01*
X205809830Y-74003765D01*
X205888333Y-74193288D01*
X206002302Y-74363854D01*
X206147356Y-74508908D01*
X206317922Y-74622877D01*
X206365446Y-74642562D01*
X206325200Y-74844896D01*
X206325200Y-75155104D01*
X206385718Y-75459352D01*
X206504430Y-75745948D01*
X206676773Y-76003877D01*
X206896123Y-76223227D01*
X206966124Y-76270000D01*
X206896123Y-76316773D01*
X206676773Y-76536123D01*
X206504430Y-76794052D01*
X206385718Y-77080648D01*
X206325200Y-77384896D01*
X206325200Y-77695104D01*
X206385718Y-77999352D01*
X206504430Y-78285948D01*
X206676773Y-78543877D01*
X206896123Y-78763227D01*
X206966124Y-78810000D01*
X206896123Y-78856773D01*
X206676773Y-79076123D01*
X206504430Y-79334052D01*
X206385718Y-79620648D01*
X206325200Y-79924896D01*
X206325200Y-80235104D01*
X206385718Y-80539352D01*
X206504430Y-80825948D01*
X206676773Y-81083877D01*
X206896123Y-81303227D01*
X206966124Y-81350000D01*
X206896123Y-81396773D01*
X206676773Y-81616123D01*
X206504430Y-81874052D01*
X206385718Y-82160648D01*
X206325200Y-82464896D01*
X206325200Y-82775104D01*
X206385718Y-83079352D01*
X206504430Y-83365948D01*
X206676773Y-83623877D01*
X206896123Y-83843227D01*
X206966124Y-83890000D01*
X206896123Y-83936773D01*
X206676773Y-84156123D01*
X206504430Y-84414052D01*
X206385718Y-84700648D01*
X206325200Y-85004896D01*
X206325200Y-85315104D01*
X206385718Y-85619352D01*
X206504430Y-85905948D01*
X206676773Y-86163877D01*
X206896123Y-86383227D01*
X206966124Y-86430000D01*
X206896123Y-86476773D01*
X206676773Y-86696123D01*
X206504430Y-86954052D01*
X206385718Y-87240648D01*
X206325200Y-87544896D01*
X206325200Y-87855104D01*
X206385718Y-88159352D01*
X206504430Y-88445948D01*
X206676773Y-88703877D01*
X206896123Y-88923227D01*
X207154052Y-89095570D01*
X207440648Y-89214282D01*
X207744896Y-89274800D01*
X208055104Y-89274800D01*
X208359352Y-89214282D01*
X208645948Y-89095570D01*
X208903877Y-88923227D01*
X209123227Y-88703877D01*
X209295570Y-88445948D01*
X209315000Y-88399039D01*
X209315000Y-97466495D01*
X209277211Y-97851897D01*
X209175013Y-98190392D01*
X209009016Y-98502588D01*
X208785539Y-98776599D01*
X208513098Y-99001980D01*
X208202069Y-99170153D01*
X207864296Y-99274711D01*
X207480977Y-99315000D01*
X182327203Y-99315000D01*
X182325000Y-98085750D01*
X182166250Y-97927000D01*
X181067000Y-97927000D01*
X181067000Y-97947000D01*
X180813000Y-97947000D01*
X180813000Y-97927000D01*
X179713750Y-97927000D01*
X179555000Y-98085750D01*
X179552797Y-99315000D01*
X177247203Y-99315000D01*
X177245000Y-98085750D01*
X177086250Y-97927000D01*
X175987000Y-97927000D01*
X175987000Y-97947000D01*
X175733000Y-97947000D01*
X175733000Y-97927000D01*
X174633750Y-97927000D01*
X174475000Y-98085750D01*
X174472797Y-99315000D01*
X152727203Y-99315000D01*
X152725000Y-98085750D01*
X152566250Y-97927000D01*
X151467000Y-97927000D01*
X151467000Y-97947000D01*
X151213000Y-97947000D01*
X151213000Y-97927000D01*
X150113750Y-97927000D01*
X149955000Y-98085750D01*
X149952797Y-99315000D01*
X147647203Y-99315000D01*
X147645000Y-98085750D01*
X147486250Y-97927000D01*
X146387000Y-97927000D01*
X146387000Y-97947000D01*
X146133000Y-97947000D01*
X146133000Y-97927000D01*
X145033750Y-97927000D01*
X144875000Y-98085750D01*
X144872797Y-99315000D01*
X122533505Y-99315000D01*
X122148103Y-99277211D01*
X121809608Y-99175013D01*
X121497412Y-99009016D01*
X121223401Y-98785539D01*
X120998020Y-98513098D01*
X120829847Y-98202069D01*
X120725289Y-97864296D01*
X120685000Y-97480977D01*
X120685000Y-96279872D01*
X121265000Y-96279872D01*
X121265000Y-96720128D01*
X121350890Y-97151925D01*
X121519369Y-97558669D01*
X121763962Y-97924729D01*
X122075271Y-98236038D01*
X122441331Y-98480631D01*
X122848075Y-98649110D01*
X123279872Y-98735000D01*
X123720128Y-98735000D01*
X124151925Y-98649110D01*
X124558669Y-98480631D01*
X124924729Y-98236038D01*
X125236038Y-97924729D01*
X125480631Y-97558669D01*
X125649110Y-97151925D01*
X125735000Y-96720128D01*
X125735000Y-96279872D01*
X125649110Y-95848075D01*
X125629197Y-95800000D01*
X144871928Y-95800000D01*
X144875000Y-97514250D01*
X145033750Y-97673000D01*
X146133000Y-97673000D01*
X146133000Y-95323750D01*
X146387000Y-95323750D01*
X146387000Y-97673000D01*
X147486250Y-97673000D01*
X147645000Y-97514250D01*
X147648072Y-95800000D01*
X149951928Y-95800000D01*
X149955000Y-97514250D01*
X150113750Y-97673000D01*
X151213000Y-97673000D01*
X151213000Y-95323750D01*
X151467000Y-95323750D01*
X151467000Y-97673000D01*
X152566250Y-97673000D01*
X152725000Y-97514250D01*
X152728072Y-95800000D01*
X174471928Y-95800000D01*
X174475000Y-97514250D01*
X174633750Y-97673000D01*
X175733000Y-97673000D01*
X175733000Y-95323750D01*
X175987000Y-95323750D01*
X175987000Y-97673000D01*
X177086250Y-97673000D01*
X177245000Y-97514250D01*
X177248072Y-95800000D01*
X179551928Y-95800000D01*
X179555000Y-97514250D01*
X179713750Y-97673000D01*
X180813000Y-97673000D01*
X180813000Y-95323750D01*
X181067000Y-95323750D01*
X181067000Y-97673000D01*
X182166250Y-97673000D01*
X182325000Y-97514250D01*
X182327212Y-96279872D01*
X204265000Y-96279872D01*
X204265000Y-96720128D01*
X204350890Y-97151925D01*
X204519369Y-97558669D01*
X204763962Y-97924729D01*
X205075271Y-98236038D01*
X205441331Y-98480631D01*
X205848075Y-98649110D01*
X206279872Y-98735000D01*
X206720128Y-98735000D01*
X207151925Y-98649110D01*
X207558669Y-98480631D01*
X207924729Y-98236038D01*
X208236038Y-97924729D01*
X208480631Y-97558669D01*
X208649110Y-97151925D01*
X208735000Y-96720128D01*
X208735000Y-96279872D01*
X208649110Y-95848075D01*
X208480631Y-95441331D01*
X208236038Y-95075271D01*
X207924729Y-94763962D01*
X207558669Y-94519369D01*
X207151925Y-94350890D01*
X206720128Y-94265000D01*
X206279872Y-94265000D01*
X205848075Y-94350890D01*
X205441331Y-94519369D01*
X205075271Y-94763962D01*
X204763962Y-95075271D01*
X204519369Y-95441331D01*
X204350890Y-95848075D01*
X204265000Y-96279872D01*
X182327212Y-96279872D01*
X182328072Y-95800000D01*
X182315812Y-95675518D01*
X182279502Y-95555820D01*
X182220537Y-95445506D01*
X182141185Y-95348815D01*
X182044494Y-95269463D01*
X181934180Y-95210498D01*
X181814482Y-95174188D01*
X181690000Y-95161928D01*
X181225750Y-95165000D01*
X181067000Y-95323750D01*
X180813000Y-95323750D01*
X180654250Y-95165000D01*
X180190000Y-95161928D01*
X180065518Y-95174188D01*
X179945820Y-95210498D01*
X179835506Y-95269463D01*
X179738815Y-95348815D01*
X179659463Y-95445506D01*
X179600498Y-95555820D01*
X179564188Y-95675518D01*
X179551928Y-95800000D01*
X177248072Y-95800000D01*
X177235812Y-95675518D01*
X177199502Y-95555820D01*
X177140537Y-95445506D01*
X177061185Y-95348815D01*
X176964494Y-95269463D01*
X176854180Y-95210498D01*
X176734482Y-95174188D01*
X176610000Y-95161928D01*
X176145750Y-95165000D01*
X175987000Y-95323750D01*
X175733000Y-95323750D01*
X175574250Y-95165000D01*
X175110000Y-95161928D01*
X174985518Y-95174188D01*
X174865820Y-95210498D01*
X174755506Y-95269463D01*
X174658815Y-95348815D01*
X174579463Y-95445506D01*
X174520498Y-95555820D01*
X174484188Y-95675518D01*
X174471928Y-95800000D01*
X152728072Y-95800000D01*
X152715812Y-95675518D01*
X152679502Y-95555820D01*
X152620537Y-95445506D01*
X152541185Y-95348815D01*
X152444494Y-95269463D01*
X152334180Y-95210498D01*
X152214482Y-95174188D01*
X152090000Y-95161928D01*
X151625750Y-95165000D01*
X151467000Y-95323750D01*
X151213000Y-95323750D01*
X151054250Y-95165000D01*
X150590000Y-95161928D01*
X150465518Y-95174188D01*
X150345820Y-95210498D01*
X150235506Y-95269463D01*
X150138815Y-95348815D01*
X150059463Y-95445506D01*
X150000498Y-95555820D01*
X149964188Y-95675518D01*
X149951928Y-95800000D01*
X147648072Y-95800000D01*
X147635812Y-95675518D01*
X147599502Y-95555820D01*
X147540537Y-95445506D01*
X147461185Y-95348815D01*
X147364494Y-95269463D01*
X147254180Y-95210498D01*
X147134482Y-95174188D01*
X147010000Y-95161928D01*
X146545750Y-95165000D01*
X146387000Y-95323750D01*
X146133000Y-95323750D01*
X145974250Y-95165000D01*
X145510000Y-95161928D01*
X145385518Y-95174188D01*
X145265820Y-95210498D01*
X145155506Y-95269463D01*
X145058815Y-95348815D01*
X144979463Y-95445506D01*
X144920498Y-95555820D01*
X144884188Y-95675518D01*
X144871928Y-95800000D01*
X125629197Y-95800000D01*
X125480631Y-95441331D01*
X125236038Y-95075271D01*
X124924729Y-94763962D01*
X124558669Y-94519369D01*
X124151925Y-94350890D01*
X123720128Y-94265000D01*
X123279872Y-94265000D01*
X122848075Y-94350890D01*
X122441331Y-94519369D01*
X122075271Y-94763962D01*
X121763962Y-95075271D01*
X121519369Y-95441331D01*
X121350890Y-95848075D01*
X121265000Y-96279872D01*
X120685000Y-96279872D01*
X120685000Y-90033203D01*
X121914250Y-90031000D01*
X122073000Y-89872250D01*
X122073000Y-88773000D01*
X122327000Y-88773000D01*
X122327000Y-89872250D01*
X122485750Y-90031000D01*
X124200000Y-90034072D01*
X124324482Y-90021812D01*
X124444180Y-89985502D01*
X124554494Y-89926537D01*
X124651185Y-89847185D01*
X124730537Y-89750494D01*
X124789502Y-89640180D01*
X124825812Y-89520482D01*
X124838072Y-89396000D01*
X124835000Y-88931750D01*
X124676250Y-88773000D01*
X122327000Y-88773000D01*
X122073000Y-88773000D01*
X122053000Y-88773000D01*
X122053000Y-88519000D01*
X122073000Y-88519000D01*
X122073000Y-87419750D01*
X122327000Y-87419750D01*
X122327000Y-88519000D01*
X124676250Y-88519000D01*
X124835000Y-88360250D01*
X124838072Y-87896000D01*
X124825812Y-87771518D01*
X124789502Y-87651820D01*
X124730537Y-87541506D01*
X124651185Y-87444815D01*
X124593448Y-87397431D01*
X135358600Y-87397431D01*
X135358600Y-87602569D01*
X135398620Y-87803765D01*
X135477123Y-87993288D01*
X135591092Y-88163854D01*
X135736146Y-88308908D01*
X135906712Y-88422877D01*
X136096235Y-88501380D01*
X136297431Y-88541400D01*
X136502569Y-88541400D01*
X136703765Y-88501380D01*
X136893288Y-88422877D01*
X137063854Y-88308908D01*
X137150000Y-88222762D01*
X137236146Y-88308908D01*
X137406712Y-88422877D01*
X137596235Y-88501380D01*
X137797431Y-88541400D01*
X138002569Y-88541400D01*
X138203765Y-88501380D01*
X138393288Y-88422877D01*
X138563854Y-88308908D01*
X138708908Y-88163854D01*
X138822877Y-87993288D01*
X138901380Y-87803765D01*
X138941400Y-87602569D01*
X138941400Y-87397431D01*
X138901380Y-87196235D01*
X138822877Y-87006712D01*
X138708908Y-86836146D01*
X138563854Y-86691092D01*
X138393288Y-86577123D01*
X138203765Y-86498620D01*
X138197788Y-86497431D01*
X169658600Y-86497431D01*
X169658600Y-86702569D01*
X169698620Y-86903765D01*
X169777123Y-87093288D01*
X169891092Y-87263854D01*
X170036146Y-87408908D01*
X170206712Y-87522877D01*
X170396235Y-87601380D01*
X170597431Y-87641400D01*
X170802569Y-87641400D01*
X171003765Y-87601380D01*
X171193288Y-87522877D01*
X171363854Y-87408908D01*
X171508908Y-87263854D01*
X171622877Y-87093288D01*
X171701380Y-86903765D01*
X171741400Y-86702569D01*
X171741400Y-86497431D01*
X171701380Y-86296235D01*
X171622877Y-86106712D01*
X171508908Y-85936146D01*
X171363854Y-85791092D01*
X171193288Y-85677123D01*
X171003765Y-85598620D01*
X170802569Y-85558600D01*
X170597431Y-85558600D01*
X170396235Y-85598620D01*
X170206712Y-85677123D01*
X170036146Y-85791092D01*
X169891092Y-85936146D01*
X169777123Y-86106712D01*
X169698620Y-86296235D01*
X169658600Y-86497431D01*
X138197788Y-86497431D01*
X138002569Y-86458600D01*
X137797431Y-86458600D01*
X137596235Y-86498620D01*
X137406712Y-86577123D01*
X137236146Y-86691092D01*
X137150000Y-86777238D01*
X137063854Y-86691092D01*
X136893288Y-86577123D01*
X136703765Y-86498620D01*
X136502569Y-86458600D01*
X136297431Y-86458600D01*
X136096235Y-86498620D01*
X135906712Y-86577123D01*
X135736146Y-86691092D01*
X135591092Y-86836146D01*
X135477123Y-87006712D01*
X135398620Y-87196235D01*
X135358600Y-87397431D01*
X124593448Y-87397431D01*
X124554494Y-87365463D01*
X124444180Y-87306498D01*
X124324482Y-87270188D01*
X124200000Y-87257928D01*
X122485750Y-87261000D01*
X122327000Y-87419750D01*
X122073000Y-87419750D01*
X121914250Y-87261000D01*
X120685000Y-87258797D01*
X120685000Y-84953203D01*
X121914250Y-84951000D01*
X122073000Y-84792250D01*
X122073000Y-83693000D01*
X122327000Y-83693000D01*
X122327000Y-84792250D01*
X122485750Y-84951000D01*
X124200000Y-84954072D01*
X124324482Y-84941812D01*
X124444180Y-84905502D01*
X124554494Y-84846537D01*
X124651185Y-84767185D01*
X124730537Y-84670494D01*
X124789502Y-84560180D01*
X124825812Y-84440482D01*
X124838072Y-84316000D01*
X124835000Y-83851750D01*
X124676250Y-83693000D01*
X122327000Y-83693000D01*
X122073000Y-83693000D01*
X122053000Y-83693000D01*
X122053000Y-83439000D01*
X122073000Y-83439000D01*
X122073000Y-82339750D01*
X122327000Y-82339750D01*
X122327000Y-83439000D01*
X124676250Y-83439000D01*
X124835000Y-83280250D01*
X124838072Y-82816000D01*
X124825812Y-82691518D01*
X124789502Y-82571820D01*
X124730537Y-82461506D01*
X124651185Y-82364815D01*
X124554494Y-82285463D01*
X124444180Y-82226498D01*
X124324482Y-82190188D01*
X124200000Y-82177928D01*
X122485750Y-82181000D01*
X122327000Y-82339750D01*
X122073000Y-82339750D01*
X121914250Y-82181000D01*
X120685000Y-82178797D01*
X120685000Y-80937691D01*
X120714930Y-81009948D01*
X120887273Y-81267877D01*
X121106623Y-81487227D01*
X121364552Y-81659570D01*
X121651148Y-81778282D01*
X121955396Y-81838800D01*
X122265604Y-81838800D01*
X122473582Y-81797431D01*
X134494990Y-81797431D01*
X134494990Y-82002569D01*
X134535010Y-82203765D01*
X134613513Y-82393288D01*
X134727482Y-82563854D01*
X134738567Y-82574939D01*
X134727482Y-82586024D01*
X134613513Y-82756590D01*
X134535010Y-82946113D01*
X134494990Y-83147309D01*
X134494990Y-83352447D01*
X134535010Y-83553643D01*
X134613513Y-83743166D01*
X134685034Y-83850205D01*
X134613513Y-83957244D01*
X134535010Y-84146767D01*
X134494990Y-84347963D01*
X134494990Y-84553101D01*
X134535010Y-84754297D01*
X134613513Y-84943820D01*
X134727482Y-85114386D01*
X134872536Y-85259440D01*
X135043102Y-85373409D01*
X135232625Y-85451912D01*
X135433821Y-85491932D01*
X135638959Y-85491932D01*
X135840155Y-85451912D01*
X136029678Y-85373409D01*
X136200244Y-85259440D01*
X136345298Y-85114386D01*
X136459267Y-84943820D01*
X136537770Y-84754297D01*
X136577790Y-84553101D01*
X136577790Y-84347963D01*
X136537770Y-84146767D01*
X136459267Y-83957244D01*
X136387746Y-83850205D01*
X136459267Y-83743166D01*
X136537770Y-83553643D01*
X136577790Y-83352447D01*
X136577790Y-83147309D01*
X136537770Y-82946113D01*
X136459267Y-82756590D01*
X136345298Y-82586024D01*
X136334213Y-82574939D01*
X136345298Y-82563854D01*
X136459267Y-82393288D01*
X136537770Y-82203765D01*
X136577790Y-82002569D01*
X136577790Y-81797431D01*
X136557899Y-81697431D01*
X166258600Y-81697431D01*
X166258600Y-81902569D01*
X166298620Y-82103765D01*
X166377123Y-82293288D01*
X166491092Y-82463854D01*
X166636146Y-82608908D01*
X166806712Y-82722877D01*
X166996235Y-82801380D01*
X167058598Y-82813785D01*
X167058598Y-82902569D01*
X167098618Y-83103765D01*
X167177121Y-83293288D01*
X167291090Y-83463854D01*
X167436144Y-83608908D01*
X167606710Y-83722877D01*
X167796233Y-83801380D01*
X167997429Y-83841400D01*
X168202567Y-83841400D01*
X168403763Y-83801380D01*
X168593286Y-83722877D01*
X168763852Y-83608908D01*
X168908906Y-83463854D01*
X169022875Y-83293288D01*
X169101378Y-83103765D01*
X169141398Y-82902569D01*
X169141398Y-82697431D01*
X169101378Y-82496235D01*
X169022875Y-82306712D01*
X168908906Y-82136146D01*
X168763852Y-81991092D01*
X168623679Y-81897431D01*
X170558600Y-81897431D01*
X170558600Y-82102569D01*
X170598620Y-82303765D01*
X170677123Y-82493288D01*
X170791092Y-82663854D01*
X170936146Y-82808908D01*
X171106712Y-82922877D01*
X171296235Y-83001380D01*
X171404352Y-83022886D01*
X171291092Y-83136146D01*
X171177123Y-83306712D01*
X171098620Y-83496235D01*
X171058600Y-83697431D01*
X171058600Y-83902569D01*
X171098620Y-84103765D01*
X171177123Y-84293288D01*
X171291092Y-84463854D01*
X171436146Y-84608908D01*
X171606712Y-84722877D01*
X171796235Y-84801380D01*
X171997431Y-84841400D01*
X172202569Y-84841400D01*
X172403765Y-84801380D01*
X172593288Y-84722877D01*
X172763854Y-84608908D01*
X172908908Y-84463854D01*
X173022877Y-84293288D01*
X173062582Y-84197431D01*
X196558600Y-84197431D01*
X196558600Y-84402569D01*
X196598620Y-84603765D01*
X196677123Y-84793288D01*
X196791092Y-84963854D01*
X196936146Y-85108908D01*
X197106712Y-85222877D01*
X197296235Y-85301380D01*
X197497431Y-85341400D01*
X197566324Y-85341400D01*
X197598620Y-85503765D01*
X197677123Y-85693288D01*
X197791092Y-85863854D01*
X197936146Y-86008908D01*
X198106712Y-86122877D01*
X198296235Y-86201380D01*
X198497431Y-86241400D01*
X198702569Y-86241400D01*
X198903765Y-86201380D01*
X199014962Y-86155321D01*
X198907123Y-86316712D01*
X198828620Y-86506235D01*
X198788600Y-86707431D01*
X198788600Y-86912569D01*
X198828620Y-87113765D01*
X198907123Y-87303288D01*
X199021092Y-87473854D01*
X199166146Y-87618908D01*
X199336712Y-87732877D01*
X199526235Y-87811380D01*
X199727431Y-87851400D01*
X199932569Y-87851400D01*
X200133765Y-87811380D01*
X200323288Y-87732877D01*
X200493854Y-87618908D01*
X200638908Y-87473854D01*
X200752877Y-87303288D01*
X200831380Y-87113765D01*
X200871400Y-86912569D01*
X200871400Y-86707431D01*
X200831380Y-86506235D01*
X200752877Y-86316712D01*
X200638908Y-86146146D01*
X200493854Y-86001092D01*
X200323288Y-85887123D01*
X200133765Y-85808620D01*
X199932569Y-85768600D01*
X199727431Y-85768600D01*
X199526235Y-85808620D01*
X199415038Y-85854679D01*
X199522877Y-85693288D01*
X199601380Y-85503765D01*
X199641400Y-85302569D01*
X199641400Y-85097431D01*
X199601380Y-84896235D01*
X199522877Y-84706712D01*
X199408908Y-84536146D01*
X199263854Y-84391092D01*
X199093288Y-84277123D01*
X198903765Y-84198620D01*
X198702569Y-84158600D01*
X198633676Y-84158600D01*
X198601380Y-83996235D01*
X198522877Y-83806712D01*
X198408908Y-83636146D01*
X198263854Y-83491092D01*
X198093288Y-83377123D01*
X197903765Y-83298620D01*
X197702569Y-83258600D01*
X197497431Y-83258600D01*
X197296235Y-83298620D01*
X197106712Y-83377123D01*
X196936146Y-83491092D01*
X196791092Y-83636146D01*
X196677123Y-83806712D01*
X196598620Y-83996235D01*
X196558600Y-84197431D01*
X173062582Y-84197431D01*
X173101380Y-84103765D01*
X173141400Y-83902569D01*
X173141400Y-83697431D01*
X173101380Y-83496235D01*
X173022877Y-83306712D01*
X172908908Y-83136146D01*
X172763854Y-82991092D01*
X172593288Y-82877123D01*
X172403765Y-82798620D01*
X172295648Y-82777114D01*
X172408908Y-82663854D01*
X172522877Y-82493288D01*
X172601380Y-82303765D01*
X172641400Y-82102569D01*
X172641400Y-81897431D01*
X172601380Y-81696235D01*
X172565262Y-81609039D01*
X172603765Y-81601380D01*
X172793288Y-81522877D01*
X172963854Y-81408908D01*
X173108908Y-81263854D01*
X173222877Y-81093288D01*
X173301380Y-80903765D01*
X173341400Y-80702569D01*
X173341400Y-80497431D01*
X173301380Y-80296235D01*
X173222877Y-80106712D01*
X173108908Y-79936146D01*
X172963854Y-79791092D01*
X172793288Y-79677123D01*
X172603765Y-79598620D01*
X172402569Y-79558600D01*
X172197431Y-79558600D01*
X171996235Y-79598620D01*
X171806712Y-79677123D01*
X171636146Y-79791092D01*
X171491092Y-79936146D01*
X171377123Y-80106712D01*
X171298620Y-80296235D01*
X171258600Y-80497431D01*
X171258600Y-80702569D01*
X171298620Y-80903765D01*
X171334738Y-80990961D01*
X171296235Y-80998620D01*
X171106712Y-81077123D01*
X170936146Y-81191092D01*
X170791092Y-81336146D01*
X170677123Y-81506712D01*
X170598620Y-81696235D01*
X170558600Y-81897431D01*
X168623679Y-81897431D01*
X168593286Y-81877123D01*
X168403763Y-81798620D01*
X168341400Y-81786215D01*
X168341400Y-81697431D01*
X168301380Y-81496235D01*
X168222877Y-81306712D01*
X168108908Y-81136146D01*
X167963854Y-80991092D01*
X167793288Y-80877123D01*
X167603765Y-80798620D01*
X167402569Y-80758600D01*
X167197431Y-80758600D01*
X166996235Y-80798620D01*
X166806712Y-80877123D01*
X166636146Y-80991092D01*
X166491092Y-81136146D01*
X166377123Y-81306712D01*
X166298620Y-81496235D01*
X166258600Y-81697431D01*
X136557899Y-81697431D01*
X136537770Y-81596235D01*
X136459267Y-81406712D01*
X136345298Y-81236146D01*
X136200244Y-81091092D01*
X136029678Y-80977123D01*
X135840155Y-80898620D01*
X135638959Y-80858600D01*
X135433821Y-80858600D01*
X135232625Y-80898620D01*
X135043102Y-80977123D01*
X134872536Y-81091092D01*
X134727482Y-81236146D01*
X134613513Y-81406712D01*
X134535010Y-81596235D01*
X134494990Y-81797431D01*
X122473582Y-81797431D01*
X122569852Y-81778282D01*
X122856448Y-81659570D01*
X123114377Y-81487227D01*
X123333727Y-81267877D01*
X123506070Y-81009948D01*
X123624782Y-80723352D01*
X123685300Y-80419104D01*
X123685300Y-80108896D01*
X123663129Y-79997431D01*
X128158600Y-79997431D01*
X128158600Y-80202569D01*
X128198620Y-80403765D01*
X128277123Y-80593288D01*
X128391092Y-80763854D01*
X128536146Y-80908908D01*
X128706712Y-81022877D01*
X128896235Y-81101380D01*
X129097431Y-81141400D01*
X129302569Y-81141400D01*
X129503765Y-81101380D01*
X129693288Y-81022877D01*
X129863854Y-80908908D01*
X130008908Y-80763854D01*
X130122877Y-80593288D01*
X130201380Y-80403765D01*
X130241400Y-80202569D01*
X130241400Y-79997431D01*
X130201380Y-79796235D01*
X130122877Y-79606712D01*
X130008908Y-79436146D01*
X129863854Y-79291092D01*
X129693288Y-79177123D01*
X129503765Y-79098620D01*
X129302569Y-79058600D01*
X129097431Y-79058600D01*
X128896235Y-79098620D01*
X128706712Y-79177123D01*
X128536146Y-79291092D01*
X128391092Y-79436146D01*
X128277123Y-79606712D01*
X128198620Y-79796235D01*
X128158600Y-79997431D01*
X123663129Y-79997431D01*
X123624782Y-79804648D01*
X123506070Y-79518052D01*
X123333727Y-79260123D01*
X123114377Y-79040773D01*
X123044376Y-78994000D01*
X123114377Y-78947227D01*
X123333727Y-78727877D01*
X123506070Y-78469948D01*
X123624782Y-78183352D01*
X123685300Y-77879104D01*
X123685300Y-77697431D01*
X128358600Y-77697431D01*
X128358600Y-77902569D01*
X128398620Y-78103765D01*
X128477123Y-78293288D01*
X128591092Y-78463854D01*
X128736146Y-78608908D01*
X128906712Y-78722877D01*
X129096235Y-78801380D01*
X129297431Y-78841400D01*
X129502569Y-78841400D01*
X129703765Y-78801380D01*
X129893288Y-78722877D01*
X130063854Y-78608908D01*
X130085233Y-78587529D01*
X201954502Y-78587529D01*
X201954502Y-78792667D01*
X201994522Y-78993863D01*
X202073025Y-79183386D01*
X202186994Y-79353952D01*
X202332048Y-79499006D01*
X202502614Y-79612975D01*
X202692137Y-79691478D01*
X202893333Y-79731498D01*
X203098471Y-79731498D01*
X203299667Y-79691478D01*
X203489190Y-79612975D01*
X203659756Y-79499006D01*
X203804810Y-79353952D01*
X203918779Y-79183386D01*
X203997282Y-78993863D01*
X204016463Y-78897431D01*
X204190602Y-78897431D01*
X204190602Y-79102569D01*
X204230622Y-79303765D01*
X204309125Y-79493288D01*
X204423094Y-79663854D01*
X204568148Y-79808908D01*
X204738714Y-79922877D01*
X204928237Y-80001380D01*
X205129433Y-80041400D01*
X205334571Y-80041400D01*
X205535767Y-80001380D01*
X205725290Y-79922877D01*
X205895856Y-79808908D01*
X206040910Y-79663854D01*
X206154879Y-79493288D01*
X206233382Y-79303765D01*
X206273402Y-79102569D01*
X206273402Y-78897431D01*
X206233382Y-78696235D01*
X206154879Y-78506712D01*
X206040910Y-78336146D01*
X205895856Y-78191092D01*
X205725290Y-78077123D01*
X205535767Y-77998620D01*
X205334571Y-77958600D01*
X205129433Y-77958600D01*
X204928237Y-77998620D01*
X204738714Y-78077123D01*
X204568148Y-78191092D01*
X204423094Y-78336146D01*
X204309125Y-78506712D01*
X204230622Y-78696235D01*
X204190602Y-78897431D01*
X204016463Y-78897431D01*
X204037302Y-78792667D01*
X204037302Y-78587529D01*
X203997282Y-78386333D01*
X203918779Y-78196810D01*
X203804810Y-78026244D01*
X203659756Y-77881190D01*
X203489190Y-77767221D01*
X203299667Y-77688718D01*
X203098471Y-77648698D01*
X202893333Y-77648698D01*
X202692137Y-77688718D01*
X202502614Y-77767221D01*
X202332048Y-77881190D01*
X202186994Y-78026244D01*
X202073025Y-78196810D01*
X201994522Y-78386333D01*
X201954502Y-78587529D01*
X130085233Y-78587529D01*
X130208908Y-78463854D01*
X130322877Y-78293288D01*
X130401380Y-78103765D01*
X130441400Y-77902569D01*
X130441400Y-77697431D01*
X130401380Y-77496235D01*
X130322877Y-77306712D01*
X130208908Y-77136146D01*
X130063854Y-76991092D01*
X129893288Y-76877123D01*
X129703765Y-76798620D01*
X129502569Y-76758600D01*
X129297431Y-76758600D01*
X129096235Y-76798620D01*
X128906712Y-76877123D01*
X128736146Y-76991092D01*
X128591092Y-77136146D01*
X128477123Y-77306712D01*
X128398620Y-77496235D01*
X128358600Y-77697431D01*
X123685300Y-77697431D01*
X123685300Y-77568896D01*
X123624782Y-77264648D01*
X123506070Y-76978052D01*
X123333727Y-76720123D01*
X123114377Y-76500773D01*
X123044376Y-76454000D01*
X123114377Y-76407227D01*
X123333727Y-76187877D01*
X123506070Y-75929948D01*
X123624782Y-75643352D01*
X123685300Y-75339104D01*
X123685300Y-75312426D01*
X128050048Y-75312426D01*
X128050048Y-75517564D01*
X128090068Y-75718760D01*
X128168571Y-75908283D01*
X128282540Y-76078849D01*
X128427594Y-76223903D01*
X128598160Y-76337872D01*
X128787683Y-76416375D01*
X128988879Y-76456395D01*
X129194017Y-76456395D01*
X129395213Y-76416375D01*
X129584736Y-76337872D01*
X129720089Y-76247431D01*
X203558600Y-76247431D01*
X203558600Y-76452569D01*
X203598620Y-76653765D01*
X203677123Y-76843288D01*
X203791092Y-77013854D01*
X203936146Y-77158908D01*
X204106712Y-77272877D01*
X204296235Y-77351380D01*
X204497431Y-77391400D01*
X204702569Y-77391400D01*
X204903765Y-77351380D01*
X205093288Y-77272877D01*
X205263854Y-77158908D01*
X205408908Y-77013854D01*
X205522877Y-76843288D01*
X205601380Y-76653765D01*
X205641400Y-76452569D01*
X205641400Y-76247431D01*
X205601380Y-76046235D01*
X205522877Y-75856712D01*
X205408908Y-75686146D01*
X205263854Y-75541092D01*
X205093288Y-75427123D01*
X204903765Y-75348620D01*
X204702569Y-75308600D01*
X204497431Y-75308600D01*
X204296235Y-75348620D01*
X204106712Y-75427123D01*
X203936146Y-75541092D01*
X203791092Y-75686146D01*
X203677123Y-75856712D01*
X203598620Y-76046235D01*
X203558600Y-76247431D01*
X129720089Y-76247431D01*
X129755302Y-76223903D01*
X129900356Y-76078849D01*
X130014325Y-75908283D01*
X130092828Y-75718760D01*
X130132848Y-75517564D01*
X130132848Y-75312426D01*
X130092828Y-75111230D01*
X130014325Y-74921707D01*
X129900356Y-74751141D01*
X129755302Y-74606087D01*
X129584736Y-74492118D01*
X129395213Y-74413615D01*
X129194017Y-74373595D01*
X128988879Y-74373595D01*
X128787683Y-74413615D01*
X128598160Y-74492118D01*
X128427594Y-74606087D01*
X128282540Y-74751141D01*
X128168571Y-74921707D01*
X128090068Y-75111230D01*
X128050048Y-75312426D01*
X123685300Y-75312426D01*
X123685300Y-75028896D01*
X123624782Y-74724648D01*
X123506070Y-74438052D01*
X123333727Y-74180123D01*
X123114377Y-73960773D01*
X123044376Y-73914000D01*
X123114377Y-73867227D01*
X123333727Y-73647877D01*
X123506070Y-73389948D01*
X123624782Y-73103352D01*
X123685300Y-72799104D01*
X123685300Y-72548710D01*
X138785991Y-72548710D01*
X138785991Y-72753848D01*
X138826011Y-72955044D01*
X138904514Y-73144567D01*
X139018483Y-73315133D01*
X139163537Y-73460187D01*
X139334103Y-73574156D01*
X139523626Y-73652659D01*
X139724822Y-73692679D01*
X139929960Y-73692679D01*
X140131156Y-73652659D01*
X140320679Y-73574156D01*
X140491245Y-73460187D01*
X140636299Y-73315133D01*
X140750268Y-73144567D01*
X140828771Y-72955044D01*
X140832224Y-72937684D01*
X140849585Y-72934231D01*
X141039108Y-72855728D01*
X141209674Y-72741759D01*
X141354728Y-72596705D01*
X141468697Y-72426139D01*
X141547200Y-72236616D01*
X141587220Y-72035420D01*
X141587220Y-71830282D01*
X141580686Y-71797431D01*
X151558600Y-71797431D01*
X151558600Y-72002569D01*
X151598620Y-72203765D01*
X151677123Y-72393288D01*
X151791092Y-72563854D01*
X151936146Y-72708908D01*
X152106712Y-72822877D01*
X152296235Y-72901380D01*
X152497431Y-72941400D01*
X152702569Y-72941400D01*
X152903765Y-72901380D01*
X153093288Y-72822877D01*
X153263854Y-72708908D01*
X153408908Y-72563854D01*
X153522877Y-72393288D01*
X153601380Y-72203765D01*
X153641400Y-72002569D01*
X153641400Y-71797431D01*
X153601380Y-71596235D01*
X153522877Y-71406712D01*
X153408908Y-71236146D01*
X153263854Y-71091092D01*
X153093288Y-70977123D01*
X152903765Y-70898620D01*
X152702569Y-70858600D01*
X152497431Y-70858600D01*
X152296235Y-70898620D01*
X152106712Y-70977123D01*
X151936146Y-71091092D01*
X151791092Y-71236146D01*
X151677123Y-71406712D01*
X151598620Y-71596235D01*
X151558600Y-71797431D01*
X141580686Y-71797431D01*
X141547200Y-71629086D01*
X141468697Y-71439563D01*
X141354728Y-71268997D01*
X141209674Y-71123943D01*
X141039108Y-71009974D01*
X140849585Y-70931471D01*
X140648389Y-70891451D01*
X140443251Y-70891451D01*
X140242055Y-70931471D01*
X140052532Y-71009974D01*
X139881966Y-71123943D01*
X139736912Y-71268997D01*
X139622943Y-71439563D01*
X139544440Y-71629086D01*
X139540987Y-71646446D01*
X139523626Y-71649899D01*
X139334103Y-71728402D01*
X139163537Y-71842371D01*
X139018483Y-71987425D01*
X138904514Y-72157991D01*
X138826011Y-72347514D01*
X138785991Y-72548710D01*
X123685300Y-72548710D01*
X123685300Y-72488896D01*
X123624782Y-72184648D01*
X123506070Y-71898052D01*
X123333727Y-71640123D01*
X123114377Y-71420773D01*
X123044376Y-71374000D01*
X123114377Y-71327227D01*
X123144173Y-71297431D01*
X124958600Y-71297431D01*
X124958600Y-71502569D01*
X124998620Y-71703765D01*
X125077123Y-71893288D01*
X125191092Y-72063854D01*
X125336146Y-72208908D01*
X125506712Y-72322877D01*
X125696235Y-72401380D01*
X125897431Y-72441400D01*
X126102569Y-72441400D01*
X126303765Y-72401380D01*
X126493288Y-72322877D01*
X126663854Y-72208908D01*
X126808908Y-72063854D01*
X126922877Y-71893288D01*
X127001380Y-71703765D01*
X127041400Y-71502569D01*
X127041400Y-71297431D01*
X127001380Y-71096235D01*
X126922877Y-70906712D01*
X126808908Y-70736146D01*
X126663854Y-70591092D01*
X126493288Y-70477123D01*
X126303765Y-70398620D01*
X126102569Y-70358600D01*
X125897431Y-70358600D01*
X125696235Y-70398620D01*
X125506712Y-70477123D01*
X125336146Y-70591092D01*
X125191092Y-70736146D01*
X125077123Y-70906712D01*
X124998620Y-71096235D01*
X124958600Y-71297431D01*
X123144173Y-71297431D01*
X123333727Y-71107877D01*
X123506070Y-70849948D01*
X123624782Y-70563352D01*
X123685300Y-70259104D01*
X123685300Y-69977404D01*
X161937010Y-69977404D01*
X161937010Y-70182542D01*
X161977030Y-70383738D01*
X162055533Y-70573261D01*
X162169502Y-70743827D01*
X162314556Y-70888881D01*
X162485122Y-71002850D01*
X162674645Y-71081353D01*
X162875841Y-71121373D01*
X163080979Y-71121373D01*
X163168679Y-71103929D01*
X163173620Y-71128769D01*
X163252123Y-71318292D01*
X163366092Y-71488858D01*
X163511146Y-71633912D01*
X163681712Y-71747881D01*
X163871235Y-71826384D01*
X164072431Y-71866404D01*
X164277569Y-71866404D01*
X164478765Y-71826384D01*
X164668288Y-71747881D01*
X164838854Y-71633912D01*
X164983908Y-71488858D01*
X165097877Y-71318292D01*
X165176380Y-71128769D01*
X165216400Y-70927573D01*
X165216400Y-70722435D01*
X165191536Y-70597431D01*
X165358600Y-70597431D01*
X165358600Y-70802569D01*
X165398620Y-71003765D01*
X165477123Y-71193288D01*
X165591092Y-71363854D01*
X165736146Y-71508908D01*
X165906712Y-71622877D01*
X166096235Y-71701380D01*
X166297431Y-71741400D01*
X166492955Y-71741400D01*
X166406712Y-71777123D01*
X166236146Y-71891092D01*
X166091092Y-72036146D01*
X165977123Y-72206712D01*
X165898620Y-72396235D01*
X165858600Y-72597431D01*
X165858600Y-72802569D01*
X165898620Y-73003765D01*
X165977123Y-73193288D01*
X166060980Y-73318789D01*
X165984093Y-73504411D01*
X165944073Y-73705607D01*
X165944073Y-73910745D01*
X165984093Y-74111941D01*
X166062596Y-74301464D01*
X166176565Y-74472030D01*
X166321619Y-74617084D01*
X166492185Y-74731053D01*
X166681708Y-74809556D01*
X166882904Y-74849576D01*
X167088042Y-74849576D01*
X167289238Y-74809556D01*
X167478761Y-74731053D01*
X167649327Y-74617084D01*
X167794381Y-74472030D01*
X167908350Y-74301464D01*
X167986853Y-74111941D01*
X168026873Y-73910745D01*
X168026873Y-73705607D01*
X167986853Y-73504411D01*
X167908350Y-73314888D01*
X167824493Y-73189387D01*
X167901380Y-73003765D01*
X167941400Y-72802569D01*
X167941400Y-72597431D01*
X167901380Y-72396235D01*
X167822877Y-72206712D01*
X167708908Y-72036146D01*
X167563854Y-71891092D01*
X167393288Y-71777123D01*
X167203765Y-71698620D01*
X167002569Y-71658600D01*
X166807045Y-71658600D01*
X166893288Y-71622877D01*
X167063854Y-71508908D01*
X167078663Y-71494099D01*
X167096235Y-71501378D01*
X167297431Y-71541398D01*
X167502569Y-71541398D01*
X167703765Y-71501378D01*
X167893288Y-71422875D01*
X168063854Y-71308906D01*
X168071740Y-71301020D01*
X168117652Y-71331698D01*
X168307175Y-71410201D01*
X168508371Y-71450221D01*
X168713509Y-71450221D01*
X168914705Y-71410201D01*
X169104228Y-71331698D01*
X169274794Y-71217729D01*
X169419848Y-71072675D01*
X169492970Y-70963241D01*
X169566092Y-71072675D01*
X169711146Y-71217729D01*
X169881712Y-71331698D01*
X170071235Y-71410201D01*
X170272431Y-71450221D01*
X170477569Y-71450221D01*
X170678765Y-71410201D01*
X170709594Y-71397431D01*
X181458600Y-71397431D01*
X181458600Y-71602569D01*
X181498620Y-71803765D01*
X181577123Y-71993288D01*
X181691092Y-72163854D01*
X181836146Y-72308908D01*
X182006712Y-72422877D01*
X182196235Y-72501380D01*
X182397431Y-72541400D01*
X182602569Y-72541400D01*
X182803765Y-72501380D01*
X182993288Y-72422877D01*
X183163854Y-72308908D01*
X183308908Y-72163854D01*
X183422877Y-71993288D01*
X183462582Y-71897431D01*
X184158600Y-71897431D01*
X184158600Y-72102569D01*
X184198620Y-72303765D01*
X184277123Y-72493288D01*
X184391092Y-72663854D01*
X184536146Y-72808908D01*
X184706712Y-72922877D01*
X184896235Y-73001380D01*
X185097431Y-73041400D01*
X185302569Y-73041400D01*
X185503765Y-73001380D01*
X185693288Y-72922877D01*
X185863854Y-72808908D01*
X186008908Y-72663854D01*
X186122877Y-72493288D01*
X186201380Y-72303765D01*
X186241400Y-72102569D01*
X186241400Y-71897431D01*
X186201380Y-71696235D01*
X186122877Y-71506712D01*
X186008908Y-71336146D01*
X185863854Y-71191092D01*
X185693288Y-71077123D01*
X185503765Y-70998620D01*
X185302569Y-70958600D01*
X185097431Y-70958600D01*
X184896235Y-70998620D01*
X184706712Y-71077123D01*
X184536146Y-71191092D01*
X184391092Y-71336146D01*
X184277123Y-71506712D01*
X184198620Y-71696235D01*
X184158600Y-71897431D01*
X183462582Y-71897431D01*
X183501380Y-71803765D01*
X183541400Y-71602569D01*
X183541400Y-71397431D01*
X183501380Y-71196235D01*
X183422877Y-71006712D01*
X183308908Y-70836146D01*
X183163854Y-70691092D01*
X182993288Y-70577123D01*
X182803765Y-70498620D01*
X182602569Y-70458600D01*
X182397431Y-70458600D01*
X182196235Y-70498620D01*
X182006712Y-70577123D01*
X181836146Y-70691092D01*
X181691092Y-70836146D01*
X181577123Y-71006712D01*
X181498620Y-71196235D01*
X181458600Y-71397431D01*
X170709594Y-71397431D01*
X170868288Y-71331698D01*
X171038854Y-71217729D01*
X171183908Y-71072675D01*
X171297877Y-70902109D01*
X171376380Y-70712586D01*
X171416400Y-70511390D01*
X171416400Y-70306252D01*
X171376380Y-70105056D01*
X171297877Y-69915533D01*
X171183908Y-69744967D01*
X171038854Y-69599913D01*
X170885480Y-69497431D01*
X200958600Y-69497431D01*
X200958600Y-69702569D01*
X200998620Y-69903765D01*
X201077123Y-70093288D01*
X201191092Y-70263854D01*
X201336146Y-70408908D01*
X201506712Y-70522877D01*
X201696235Y-70601380D01*
X201897431Y-70641400D01*
X202102569Y-70641400D01*
X202303765Y-70601380D01*
X202493288Y-70522877D01*
X202663854Y-70408908D01*
X202808908Y-70263854D01*
X202922877Y-70093288D01*
X203001380Y-69903765D01*
X203041400Y-69702569D01*
X203041400Y-69497431D01*
X203001380Y-69296235D01*
X202922877Y-69106712D01*
X202808908Y-68936146D01*
X202663854Y-68791092D01*
X202493288Y-68677123D01*
X202303765Y-68598620D01*
X202102569Y-68558600D01*
X201897431Y-68558600D01*
X201696235Y-68598620D01*
X201506712Y-68677123D01*
X201336146Y-68791092D01*
X201191092Y-68936146D01*
X201077123Y-69106712D01*
X200998620Y-69296235D01*
X200958600Y-69497431D01*
X170885480Y-69497431D01*
X170868288Y-69485944D01*
X170678765Y-69407441D01*
X170477569Y-69367421D01*
X170272431Y-69367421D01*
X170071235Y-69407441D01*
X169881712Y-69485944D01*
X169711146Y-69599913D01*
X169566092Y-69744967D01*
X169492970Y-69854401D01*
X169419848Y-69744967D01*
X169274794Y-69599913D01*
X169104228Y-69485944D01*
X168914705Y-69407441D01*
X168713509Y-69367421D01*
X168508371Y-69367421D01*
X168307175Y-69407441D01*
X168117652Y-69485944D01*
X167947086Y-69599913D01*
X167939200Y-69607799D01*
X167893288Y-69577121D01*
X167703765Y-69498618D01*
X167502569Y-69458598D01*
X167297431Y-69458598D01*
X167096235Y-69498618D01*
X166906712Y-69577121D01*
X166736146Y-69691090D01*
X166721337Y-69705899D01*
X166703765Y-69698620D01*
X166502569Y-69658600D01*
X166297431Y-69658600D01*
X166096235Y-69698620D01*
X165906712Y-69777123D01*
X165736146Y-69891092D01*
X165591092Y-70036146D01*
X165477123Y-70206712D01*
X165398620Y-70396235D01*
X165358600Y-70597431D01*
X165191536Y-70597431D01*
X165176380Y-70521239D01*
X165097877Y-70331716D01*
X164983908Y-70161150D01*
X164838854Y-70016096D01*
X164668288Y-69902127D01*
X164478765Y-69823624D01*
X164277569Y-69783604D01*
X164072431Y-69783604D01*
X163984731Y-69801048D01*
X163979790Y-69776208D01*
X163901287Y-69586685D01*
X163787318Y-69416119D01*
X163642264Y-69271065D01*
X163471698Y-69157096D01*
X163282175Y-69078593D01*
X163080979Y-69038573D01*
X162875841Y-69038573D01*
X162674645Y-69078593D01*
X162485122Y-69157096D01*
X162314556Y-69271065D01*
X162169502Y-69416119D01*
X162055533Y-69586685D01*
X161977030Y-69776208D01*
X161937010Y-69977404D01*
X123685300Y-69977404D01*
X123685300Y-69948896D01*
X123624782Y-69644648D01*
X123506070Y-69358052D01*
X123333727Y-69100123D01*
X123114377Y-68880773D01*
X123044376Y-68834000D01*
X123114377Y-68787227D01*
X123154173Y-68747431D01*
X124858600Y-68747431D01*
X124858600Y-68952569D01*
X124898620Y-69153765D01*
X124977123Y-69343288D01*
X125091092Y-69513854D01*
X125236146Y-69658908D01*
X125406712Y-69772877D01*
X125596235Y-69851380D01*
X125797431Y-69891400D01*
X126002569Y-69891400D01*
X126203765Y-69851380D01*
X126393288Y-69772877D01*
X126563854Y-69658908D01*
X126708908Y-69513854D01*
X126822877Y-69343288D01*
X126901380Y-69153765D01*
X126941400Y-68952569D01*
X126941400Y-68747431D01*
X126901380Y-68546235D01*
X126822877Y-68356712D01*
X126708908Y-68186146D01*
X126563854Y-68041092D01*
X126393288Y-67927123D01*
X126203765Y-67848620D01*
X126002569Y-67808600D01*
X125797431Y-67808600D01*
X125596235Y-67848620D01*
X125406712Y-67927123D01*
X125236146Y-68041092D01*
X125091092Y-68186146D01*
X124977123Y-68356712D01*
X124898620Y-68546235D01*
X124858600Y-68747431D01*
X123154173Y-68747431D01*
X123333727Y-68567877D01*
X123506070Y-68309948D01*
X123624782Y-68023352D01*
X123685300Y-67719104D01*
X123685300Y-67497431D01*
X136658600Y-67497431D01*
X136658600Y-67702569D01*
X136698620Y-67903765D01*
X136777123Y-68093288D01*
X136891092Y-68263854D01*
X136899885Y-68272647D01*
X136877123Y-68306712D01*
X136798620Y-68496235D01*
X136758600Y-68697431D01*
X136758600Y-68902569D01*
X136798620Y-69103765D01*
X136877123Y-69293288D01*
X136991092Y-69463854D01*
X137136146Y-69608908D01*
X137306712Y-69722877D01*
X137496235Y-69801380D01*
X137697431Y-69841400D01*
X137902569Y-69841400D01*
X138103765Y-69801380D01*
X138293288Y-69722877D01*
X138463854Y-69608908D01*
X138608908Y-69463854D01*
X138722877Y-69293288D01*
X138801380Y-69103765D01*
X138841400Y-68902569D01*
X138841400Y-68797431D01*
X146258600Y-68797431D01*
X146258600Y-69002569D01*
X146298620Y-69203765D01*
X146377123Y-69393288D01*
X146491092Y-69563854D01*
X146636146Y-69708908D01*
X146806712Y-69822877D01*
X146996235Y-69901380D01*
X147197431Y-69941400D01*
X147402569Y-69941400D01*
X147603765Y-69901380D01*
X147793288Y-69822877D01*
X147963854Y-69708908D01*
X148108908Y-69563854D01*
X148222877Y-69393288D01*
X148301380Y-69203765D01*
X148341400Y-69002569D01*
X148341400Y-68797431D01*
X148301380Y-68596235D01*
X148222877Y-68406712D01*
X148108908Y-68236146D01*
X147963854Y-68091092D01*
X147793288Y-67977123D01*
X147603765Y-67898620D01*
X147402569Y-67858600D01*
X147197431Y-67858600D01*
X146996235Y-67898620D01*
X146806712Y-67977123D01*
X146636146Y-68091092D01*
X146491092Y-68236146D01*
X146377123Y-68406712D01*
X146298620Y-68596235D01*
X146258600Y-68797431D01*
X138841400Y-68797431D01*
X138841400Y-68697431D01*
X138801380Y-68496235D01*
X138722877Y-68306712D01*
X138608908Y-68136146D01*
X138600115Y-68127353D01*
X138622877Y-68093288D01*
X138701380Y-67903765D01*
X138741400Y-67702569D01*
X138741400Y-67497431D01*
X138701380Y-67296235D01*
X138622877Y-67106712D01*
X138508908Y-66936146D01*
X138370191Y-66797429D01*
X184558600Y-66797429D01*
X184558600Y-67002567D01*
X184598620Y-67203763D01*
X184677123Y-67393286D01*
X184791092Y-67563852D01*
X184936146Y-67708906D01*
X185106712Y-67822875D01*
X185296235Y-67901378D01*
X185497431Y-67941398D01*
X185702569Y-67941398D01*
X185903765Y-67901378D01*
X186093288Y-67822875D01*
X186263854Y-67708906D01*
X186408908Y-67563852D01*
X186522877Y-67393286D01*
X186601380Y-67203763D01*
X186641400Y-67002567D01*
X186641400Y-66797429D01*
X186601380Y-66596233D01*
X186522877Y-66406710D01*
X186408908Y-66236144D01*
X186263854Y-66091090D01*
X186123684Y-65997431D01*
X194758600Y-65997431D01*
X194758600Y-66202569D01*
X194798620Y-66403765D01*
X194877123Y-66593288D01*
X194991092Y-66763854D01*
X195136146Y-66908908D01*
X195306712Y-67022877D01*
X195496235Y-67101380D01*
X195697431Y-67141400D01*
X195902569Y-67141400D01*
X196103765Y-67101380D01*
X196293288Y-67022877D01*
X196463854Y-66908908D01*
X196608908Y-66763854D01*
X196722877Y-66593288D01*
X196801380Y-66403765D01*
X196841400Y-66202569D01*
X196841400Y-66197431D01*
X200858600Y-66197431D01*
X200858600Y-66402569D01*
X200898620Y-66603765D01*
X200977123Y-66793288D01*
X201091092Y-66963854D01*
X201236146Y-67108908D01*
X201406712Y-67222877D01*
X201596235Y-67301380D01*
X201797431Y-67341400D01*
X202002569Y-67341400D01*
X202203765Y-67301380D01*
X202393288Y-67222877D01*
X202563854Y-67108908D01*
X202708908Y-66963854D01*
X202822877Y-66793288D01*
X202901380Y-66603765D01*
X202941400Y-66402569D01*
X202941400Y-66197431D01*
X202901380Y-65996235D01*
X202822877Y-65806712D01*
X202708908Y-65636146D01*
X202563854Y-65491092D01*
X202393288Y-65377123D01*
X202203765Y-65298620D01*
X202002569Y-65258600D01*
X201797431Y-65258600D01*
X201596235Y-65298620D01*
X201406712Y-65377123D01*
X201236146Y-65491092D01*
X201091092Y-65636146D01*
X200977123Y-65806712D01*
X200898620Y-65996235D01*
X200858600Y-66197431D01*
X196841400Y-66197431D01*
X196841400Y-65997431D01*
X196801380Y-65796235D01*
X196722877Y-65606712D01*
X196608908Y-65436146D01*
X196463854Y-65291092D01*
X196293288Y-65177123D01*
X196103765Y-65098620D01*
X195902569Y-65058600D01*
X195697431Y-65058600D01*
X195496235Y-65098620D01*
X195306712Y-65177123D01*
X195136146Y-65291092D01*
X194991092Y-65436146D01*
X194877123Y-65606712D01*
X194798620Y-65796235D01*
X194758600Y-65997431D01*
X186123684Y-65997431D01*
X186093288Y-65977121D01*
X185903765Y-65898618D01*
X185702569Y-65858598D01*
X185497431Y-65858598D01*
X185296235Y-65898618D01*
X185106712Y-65977121D01*
X184936146Y-66091090D01*
X184791092Y-66236144D01*
X184677123Y-66406710D01*
X184598620Y-66596233D01*
X184558600Y-66797429D01*
X138370191Y-66797429D01*
X138363854Y-66791092D01*
X138193288Y-66677123D01*
X138003765Y-66598620D01*
X137802569Y-66558600D01*
X137597431Y-66558600D01*
X137396235Y-66598620D01*
X137206712Y-66677123D01*
X137036146Y-66791092D01*
X136891092Y-66936146D01*
X136777123Y-67106712D01*
X136698620Y-67296235D01*
X136658600Y-67497431D01*
X123685300Y-67497431D01*
X123685300Y-67408896D01*
X123624782Y-67104648D01*
X123506070Y-66818052D01*
X123333727Y-66560123D01*
X123114377Y-66340773D01*
X123029855Y-66284297D01*
X125277537Y-66284297D01*
X125277537Y-66489435D01*
X125317557Y-66690631D01*
X125396060Y-66880154D01*
X125510029Y-67050720D01*
X125655083Y-67195774D01*
X125825649Y-67309743D01*
X126015172Y-67388246D01*
X126216368Y-67428266D01*
X126421506Y-67428266D01*
X126622702Y-67388246D01*
X126812225Y-67309743D01*
X126982791Y-67195774D01*
X127127845Y-67050720D01*
X127241814Y-66880154D01*
X127320317Y-66690631D01*
X127360337Y-66489435D01*
X127360337Y-66284297D01*
X127320317Y-66083101D01*
X127241814Y-65893578D01*
X127127845Y-65723012D01*
X126982791Y-65577958D01*
X126916736Y-65533821D01*
X156131012Y-65533821D01*
X156131012Y-65738959D01*
X156171032Y-65940155D01*
X156249535Y-66129678D01*
X156363504Y-66300244D01*
X156508558Y-66445298D01*
X156679124Y-66559267D01*
X156868647Y-66637770D01*
X157069843Y-66677790D01*
X157274981Y-66677790D01*
X157476177Y-66637770D01*
X157665700Y-66559267D01*
X157836266Y-66445298D01*
X157981320Y-66300244D01*
X158095289Y-66129678D01*
X158173792Y-65940155D01*
X158213812Y-65738959D01*
X158213812Y-65533821D01*
X158173792Y-65332625D01*
X158095289Y-65143102D01*
X157981320Y-64972536D01*
X157836266Y-64827482D01*
X157665700Y-64713513D01*
X157476177Y-64635010D01*
X157274981Y-64594990D01*
X157069843Y-64594990D01*
X156868647Y-64635010D01*
X156679124Y-64713513D01*
X156508558Y-64827482D01*
X156363504Y-64972536D01*
X156249535Y-65143102D01*
X156171032Y-65332625D01*
X156131012Y-65533821D01*
X126916736Y-65533821D01*
X126812225Y-65463989D01*
X126622702Y-65385486D01*
X126421506Y-65345466D01*
X126216368Y-65345466D01*
X126015172Y-65385486D01*
X125825649Y-65463989D01*
X125655083Y-65577958D01*
X125510029Y-65723012D01*
X125396060Y-65893578D01*
X125317557Y-66083101D01*
X125277537Y-66284297D01*
X123029855Y-66284297D01*
X122856448Y-66168430D01*
X122569852Y-66049718D01*
X122265604Y-65989200D01*
X121955396Y-65989200D01*
X121651148Y-66049718D01*
X121364552Y-66168430D01*
X121106623Y-66340773D01*
X120887273Y-66560123D01*
X120714930Y-66818052D01*
X120685000Y-66890309D01*
X120685000Y-64297431D01*
X120758600Y-64297431D01*
X120758600Y-64502569D01*
X120798620Y-64703765D01*
X120877123Y-64893288D01*
X120991092Y-65063854D01*
X121136146Y-65208908D01*
X121306712Y-65322877D01*
X121496235Y-65401380D01*
X121697431Y-65441400D01*
X121902569Y-65441400D01*
X122103765Y-65401380D01*
X122293288Y-65322877D01*
X122463854Y-65208908D01*
X122608908Y-65063854D01*
X122722877Y-64893288D01*
X122801380Y-64703765D01*
X122841400Y-64502569D01*
X122841400Y-64297431D01*
X122801380Y-64096235D01*
X122760455Y-63997431D01*
X172958600Y-63997431D01*
X172958600Y-64202569D01*
X172998620Y-64403765D01*
X173077123Y-64593288D01*
X173191092Y-64763854D01*
X173336146Y-64908908D01*
X173506712Y-65022877D01*
X173696235Y-65101380D01*
X173897431Y-65141400D01*
X174102569Y-65141400D01*
X174303765Y-65101380D01*
X174493288Y-65022877D01*
X174663854Y-64908908D01*
X174808908Y-64763854D01*
X174922877Y-64593288D01*
X175001380Y-64403765D01*
X175041400Y-64202569D01*
X175041400Y-63997431D01*
X175001380Y-63796235D01*
X174922877Y-63606712D01*
X174808908Y-63436146D01*
X174663854Y-63291092D01*
X174493288Y-63177123D01*
X174303765Y-63098620D01*
X174102569Y-63058600D01*
X173897431Y-63058600D01*
X173696235Y-63098620D01*
X173506712Y-63177123D01*
X173336146Y-63291092D01*
X173191092Y-63436146D01*
X173077123Y-63606712D01*
X172998620Y-63796235D01*
X172958600Y-63997431D01*
X122760455Y-63997431D01*
X122722877Y-63906712D01*
X122608908Y-63736146D01*
X122463854Y-63591092D01*
X122293288Y-63477123D01*
X122103765Y-63398620D01*
X121902569Y-63358600D01*
X121697431Y-63358600D01*
X121496235Y-63398620D01*
X121306712Y-63477123D01*
X121136146Y-63591092D01*
X120991092Y-63736146D01*
X120877123Y-63906712D01*
X120798620Y-64096235D01*
X120758600Y-64297431D01*
X120685000Y-64297431D01*
X120685000Y-61497431D01*
X120858600Y-61497431D01*
X120858600Y-61702569D01*
X120898620Y-61903765D01*
X120977123Y-62093288D01*
X121091092Y-62263854D01*
X121236146Y-62408908D01*
X121406712Y-62522877D01*
X121596235Y-62601380D01*
X121797431Y-62641400D01*
X122002569Y-62641400D01*
X122203765Y-62601380D01*
X122393288Y-62522877D01*
X122563854Y-62408908D01*
X122708908Y-62263854D01*
X122822877Y-62093288D01*
X122901380Y-61903765D01*
X122907612Y-61872431D01*
X191858600Y-61872431D01*
X191858600Y-62077569D01*
X191898620Y-62278765D01*
X191977123Y-62468288D01*
X192091092Y-62638854D01*
X192236146Y-62783908D01*
X192406712Y-62897877D01*
X192596235Y-62976380D01*
X192797431Y-63016400D01*
X193002569Y-63016400D01*
X193203765Y-62976380D01*
X193393288Y-62897877D01*
X193563854Y-62783908D01*
X193708908Y-62638854D01*
X193822877Y-62468288D01*
X193901380Y-62278765D01*
X193941400Y-62077569D01*
X193941400Y-61897431D01*
X198858600Y-61897431D01*
X198858600Y-62102569D01*
X198898620Y-62303765D01*
X198977123Y-62493288D01*
X199091092Y-62663854D01*
X199236146Y-62808908D01*
X199406712Y-62922877D01*
X199596235Y-63001380D01*
X199797431Y-63041400D01*
X200002569Y-63041400D01*
X200203765Y-63001380D01*
X200393288Y-62922877D01*
X200563854Y-62808908D01*
X200575331Y-62797431D01*
X200758600Y-62797431D01*
X200758600Y-63002569D01*
X200798620Y-63203765D01*
X200877123Y-63393288D01*
X200991092Y-63563854D01*
X201136146Y-63708908D01*
X201306712Y-63822877D01*
X201496235Y-63901380D01*
X201697431Y-63941400D01*
X201902569Y-63941400D01*
X202103765Y-63901380D01*
X202293288Y-63822877D01*
X202463854Y-63708908D01*
X202608908Y-63563854D01*
X202722877Y-63393288D01*
X202801380Y-63203765D01*
X202841400Y-63002569D01*
X202841400Y-62797431D01*
X202801380Y-62596235D01*
X202722877Y-62406712D01*
X202608908Y-62236146D01*
X202463854Y-62091092D01*
X202293288Y-61977123D01*
X202103765Y-61898620D01*
X201902569Y-61858600D01*
X201697431Y-61858600D01*
X201496235Y-61898620D01*
X201306712Y-61977123D01*
X201136146Y-62091092D01*
X200991092Y-62236146D01*
X200877123Y-62406712D01*
X200798620Y-62596235D01*
X200758600Y-62797431D01*
X200575331Y-62797431D01*
X200708908Y-62663854D01*
X200822877Y-62493288D01*
X200901380Y-62303765D01*
X200941400Y-62102569D01*
X200941400Y-61897431D01*
X200901380Y-61696235D01*
X200822877Y-61506712D01*
X200708908Y-61336146D01*
X200563854Y-61191092D01*
X200393288Y-61077123D01*
X200203765Y-60998620D01*
X200002569Y-60958600D01*
X199797431Y-60958600D01*
X199596235Y-60998620D01*
X199406712Y-61077123D01*
X199236146Y-61191092D01*
X199091092Y-61336146D01*
X198977123Y-61506712D01*
X198898620Y-61696235D01*
X198858600Y-61897431D01*
X193941400Y-61897431D01*
X193941400Y-61872431D01*
X193901380Y-61671235D01*
X193822877Y-61481712D01*
X193708908Y-61311146D01*
X193563854Y-61166092D01*
X193393288Y-61052123D01*
X193203765Y-60973620D01*
X193002569Y-60933600D01*
X192797431Y-60933600D01*
X192596235Y-60973620D01*
X192406712Y-61052123D01*
X192236146Y-61166092D01*
X192091092Y-61311146D01*
X191977123Y-61481712D01*
X191898620Y-61671235D01*
X191858600Y-61872431D01*
X122907612Y-61872431D01*
X122941400Y-61702569D01*
X122941400Y-61497431D01*
X122901380Y-61296235D01*
X122822877Y-61106712D01*
X122708908Y-60936146D01*
X122563854Y-60791092D01*
X122393288Y-60677123D01*
X122203765Y-60598620D01*
X122002569Y-60558600D01*
X121797431Y-60558600D01*
X121596235Y-60598620D01*
X121406712Y-60677123D01*
X121236146Y-60791092D01*
X121091092Y-60936146D01*
X120977123Y-61106712D01*
X120898620Y-61296235D01*
X120858600Y-61497431D01*
X120685000Y-61497431D01*
X120685000Y-58597431D01*
X120758600Y-58597431D01*
X120758600Y-58802569D01*
X120798620Y-59003765D01*
X120877123Y-59193288D01*
X120991092Y-59363854D01*
X121136146Y-59508908D01*
X121306712Y-59622877D01*
X121496235Y-59701380D01*
X121697431Y-59741400D01*
X121902569Y-59741400D01*
X122103765Y-59701380D01*
X122113298Y-59697431D01*
X147983600Y-59697431D01*
X147983600Y-59902569D01*
X148023620Y-60103765D01*
X148102123Y-60293288D01*
X148216092Y-60463854D01*
X148361146Y-60608908D01*
X148531712Y-60722877D01*
X148721235Y-60801380D01*
X148922431Y-60841400D01*
X149127569Y-60841400D01*
X149328765Y-60801380D01*
X149518288Y-60722877D01*
X149688854Y-60608908D01*
X149833908Y-60463854D01*
X149947877Y-60293288D01*
X150026380Y-60103765D01*
X150066400Y-59902569D01*
X150066400Y-59697431D01*
X150026380Y-59496235D01*
X149947877Y-59306712D01*
X149833908Y-59136146D01*
X149688854Y-58991092D01*
X149518288Y-58877123D01*
X149328765Y-58798620D01*
X149127569Y-58758600D01*
X148922431Y-58758600D01*
X148721235Y-58798620D01*
X148531712Y-58877123D01*
X148361146Y-58991092D01*
X148216092Y-59136146D01*
X148102123Y-59306712D01*
X148023620Y-59496235D01*
X147983600Y-59697431D01*
X122113298Y-59697431D01*
X122293288Y-59622877D01*
X122463854Y-59508908D01*
X122608908Y-59363854D01*
X122722877Y-59193288D01*
X122801380Y-59003765D01*
X122841400Y-58802569D01*
X122841400Y-58597431D01*
X122801380Y-58396235D01*
X122722877Y-58206712D01*
X122608908Y-58036146D01*
X122463854Y-57891092D01*
X122293288Y-57777123D01*
X122103765Y-57698620D01*
X121902569Y-57658600D01*
X121697431Y-57658600D01*
X121496235Y-57698620D01*
X121306712Y-57777123D01*
X121136146Y-57891092D01*
X120991092Y-58036146D01*
X120877123Y-58206712D01*
X120798620Y-58396235D01*
X120758600Y-58597431D01*
X120685000Y-58597431D01*
X120685000Y-57130900D01*
X139807600Y-57130900D01*
X139807600Y-57630900D01*
X139854185Y-57849887D01*
X139942597Y-58055578D01*
X140069439Y-58240069D01*
X140229836Y-58396269D01*
X140417624Y-58518176D01*
X140640726Y-58598019D01*
X140815600Y-58471854D01*
X140815600Y-57130900D01*
X139807600Y-57130900D01*
X120685000Y-57130900D01*
X120685000Y-56376900D01*
X139807600Y-56376900D01*
X139807600Y-56876900D01*
X140815600Y-56876900D01*
X140815600Y-55535946D01*
X141069600Y-55535946D01*
X141069600Y-56876900D01*
X141089600Y-56876900D01*
X141089600Y-57130900D01*
X141069600Y-57130900D01*
X141069600Y-58471854D01*
X141244474Y-58598019D01*
X141467576Y-58518176D01*
X141655364Y-58396269D01*
X141815761Y-58240069D01*
X141942603Y-58055578D01*
X142031015Y-57849887D01*
X142077600Y-57630900D01*
X142077600Y-57212514D01*
X142091668Y-57213900D01*
X142433532Y-57213900D01*
X142570892Y-57200371D01*
X142747140Y-57146907D01*
X142909572Y-57060086D01*
X143051944Y-56943244D01*
X143168786Y-56800872D01*
X143255607Y-56638440D01*
X143309071Y-56462192D01*
X143327124Y-56278900D01*
X143318054Y-56186811D01*
X147327600Y-56186811D01*
X147327600Y-56370989D01*
X147363532Y-56551629D01*
X147434014Y-56721789D01*
X147536338Y-56874928D01*
X147666572Y-57005162D01*
X147819711Y-57107486D01*
X147989871Y-57177968D01*
X148170511Y-57213900D01*
X148354689Y-57213900D01*
X148447600Y-57195419D01*
X148447600Y-57630900D01*
X148494185Y-57849887D01*
X148582597Y-58055578D01*
X148709439Y-58240069D01*
X148869836Y-58396269D01*
X149057624Y-58518176D01*
X149280726Y-58598019D01*
X149455600Y-58471854D01*
X149455600Y-57130900D01*
X149709600Y-57130900D01*
X149709600Y-58471854D01*
X149884474Y-58598019D01*
X150107576Y-58518176D01*
X150295364Y-58396269D01*
X150455761Y-58240069D01*
X150582603Y-58055578D01*
X150671015Y-57849887D01*
X150717600Y-57630900D01*
X150717600Y-57130900D01*
X155581000Y-57130900D01*
X155581000Y-57630900D01*
X155627585Y-57849887D01*
X155715997Y-58055578D01*
X155842839Y-58240069D01*
X156003236Y-58396269D01*
X156191024Y-58518176D01*
X156414126Y-58598019D01*
X156589000Y-58471854D01*
X156589000Y-57130900D01*
X155581000Y-57130900D01*
X150717600Y-57130900D01*
X149709600Y-57130900D01*
X149455600Y-57130900D01*
X149435600Y-57130900D01*
X149435600Y-56876900D01*
X149455600Y-56876900D01*
X149455600Y-55535946D01*
X149709600Y-55535946D01*
X149709600Y-56876900D01*
X150717600Y-56876900D01*
X150717600Y-56376900D01*
X155581000Y-56376900D01*
X155581000Y-56876900D01*
X156589000Y-56876900D01*
X156589000Y-55535946D01*
X156843000Y-55535946D01*
X156843000Y-56876900D01*
X156863000Y-56876900D01*
X156863000Y-57130900D01*
X156843000Y-57130900D01*
X156843000Y-58471854D01*
X157017874Y-58598019D01*
X157240976Y-58518176D01*
X157428764Y-58396269D01*
X157589161Y-58240069D01*
X157716003Y-58055578D01*
X157804415Y-57849887D01*
X157851000Y-57630900D01*
X157851000Y-57212514D01*
X157865068Y-57213900D01*
X158206932Y-57213900D01*
X158344292Y-57200371D01*
X158520540Y-57146907D01*
X158682972Y-57060086D01*
X158825344Y-56943244D01*
X158942186Y-56800872D01*
X159029007Y-56638440D01*
X159082471Y-56462192D01*
X159100524Y-56278900D01*
X159091454Y-56186811D01*
X163101000Y-56186811D01*
X163101000Y-56370989D01*
X163136932Y-56551629D01*
X163207414Y-56721789D01*
X163309738Y-56874928D01*
X163439972Y-57005162D01*
X163593111Y-57107486D01*
X163763271Y-57177968D01*
X163943911Y-57213900D01*
X164128089Y-57213900D01*
X164221000Y-57195419D01*
X164221000Y-57630900D01*
X164267585Y-57849887D01*
X164355997Y-58055578D01*
X164482839Y-58240069D01*
X164643236Y-58396269D01*
X164831024Y-58518176D01*
X165054126Y-58598019D01*
X165229000Y-58471854D01*
X165229000Y-57130900D01*
X165483000Y-57130900D01*
X165483000Y-58471854D01*
X165657874Y-58598019D01*
X165880976Y-58518176D01*
X166068764Y-58396269D01*
X166229161Y-58240069D01*
X166356003Y-58055578D01*
X166444415Y-57849887D01*
X166491000Y-57630900D01*
X166491000Y-57130900D01*
X165483000Y-57130900D01*
X165229000Y-57130900D01*
X165209000Y-57130900D01*
X165209000Y-56876900D01*
X165229000Y-56876900D01*
X165229000Y-55535946D01*
X165483000Y-55535946D01*
X165483000Y-56876900D01*
X166491000Y-56876900D01*
X166491000Y-56822431D01*
X181208600Y-56822431D01*
X181208600Y-57027569D01*
X181248620Y-57228765D01*
X181327123Y-57418288D01*
X181441092Y-57588854D01*
X181586146Y-57733908D01*
X181756712Y-57847877D01*
X181946235Y-57926380D01*
X182147431Y-57966400D01*
X182352569Y-57966400D01*
X182553765Y-57926380D01*
X182719217Y-57857848D01*
X182708600Y-57911221D01*
X182708600Y-58116359D01*
X182748620Y-58317555D01*
X182827123Y-58507078D01*
X182941092Y-58677644D01*
X183086146Y-58822698D01*
X183256712Y-58936667D01*
X183446235Y-59015170D01*
X183647431Y-59055190D01*
X183852569Y-59055190D01*
X184053765Y-59015170D01*
X184243288Y-58936667D01*
X184413854Y-58822698D01*
X184558908Y-58677644D01*
X184672877Y-58507078D01*
X184751380Y-58317555D01*
X184791400Y-58116359D01*
X184791400Y-57911221D01*
X184751380Y-57710025D01*
X184672877Y-57520502D01*
X184558908Y-57349936D01*
X184450417Y-57241445D01*
X184476380Y-57178765D01*
X184516400Y-56977569D01*
X184516400Y-56847431D01*
X195333600Y-56847431D01*
X195333600Y-57052569D01*
X195373620Y-57253765D01*
X195452123Y-57443288D01*
X195566092Y-57613854D01*
X195711146Y-57758908D01*
X195881712Y-57872877D01*
X196071235Y-57951380D01*
X196272431Y-57991400D01*
X196477569Y-57991400D01*
X196549786Y-57977035D01*
X196591092Y-58038854D01*
X196736146Y-58183908D01*
X196906712Y-58297877D01*
X197096235Y-58376380D01*
X197297431Y-58416400D01*
X197502569Y-58416400D01*
X197703765Y-58376380D01*
X197893288Y-58297877D01*
X198043622Y-58197426D01*
X198081712Y-58222877D01*
X198271235Y-58301380D01*
X198472431Y-58341400D01*
X198677569Y-58341400D01*
X198878765Y-58301380D01*
X199068288Y-58222877D01*
X199238854Y-58108908D01*
X199383908Y-57963854D01*
X199497877Y-57793288D01*
X199576380Y-57603765D01*
X199616400Y-57402569D01*
X199616400Y-57197431D01*
X199576380Y-56996235D01*
X199497877Y-56806712D01*
X199383908Y-56636146D01*
X199238854Y-56491092D01*
X199068288Y-56377123D01*
X198878765Y-56298620D01*
X198677569Y-56258600D01*
X198472431Y-56258600D01*
X198271235Y-56298620D01*
X198081712Y-56377123D01*
X197931378Y-56477574D01*
X197893288Y-56452123D01*
X197703765Y-56373620D01*
X197502569Y-56333600D01*
X197297431Y-56333600D01*
X197225214Y-56347965D01*
X197183908Y-56286146D01*
X197038854Y-56141092D01*
X196868288Y-56027123D01*
X196678765Y-55948620D01*
X196477569Y-55908600D01*
X196272431Y-55908600D01*
X196071235Y-55948620D01*
X195881712Y-56027123D01*
X195711146Y-56141092D01*
X195566092Y-56286146D01*
X195452123Y-56456712D01*
X195373620Y-56646235D01*
X195333600Y-56847431D01*
X184516400Y-56847431D01*
X184516400Y-56772431D01*
X184476380Y-56571235D01*
X184397877Y-56381712D01*
X184283908Y-56211146D01*
X184138854Y-56066092D01*
X183968288Y-55952123D01*
X183778765Y-55873620D01*
X183577569Y-55833600D01*
X183372431Y-55833600D01*
X183171235Y-55873620D01*
X182981712Y-55952123D01*
X182825085Y-56056778D01*
X182743288Y-56002123D01*
X182553765Y-55923620D01*
X182352569Y-55883600D01*
X182147431Y-55883600D01*
X181946235Y-55923620D01*
X181756712Y-56002123D01*
X181586146Y-56116092D01*
X181441092Y-56261146D01*
X181327123Y-56431712D01*
X181248620Y-56621235D01*
X181208600Y-56822431D01*
X166491000Y-56822431D01*
X166491000Y-56376900D01*
X166444415Y-56157913D01*
X166356003Y-55952222D01*
X166229161Y-55767731D01*
X166068764Y-55611531D01*
X165880976Y-55489624D01*
X165657874Y-55409781D01*
X165483000Y-55535946D01*
X165229000Y-55535946D01*
X165054126Y-55409781D01*
X164831024Y-55489624D01*
X164672150Y-55592760D01*
X164632028Y-55552638D01*
X164478889Y-55450314D01*
X164308729Y-55379832D01*
X164128089Y-55343900D01*
X163943911Y-55343900D01*
X163763271Y-55379832D01*
X163593111Y-55450314D01*
X163439972Y-55552638D01*
X163309738Y-55682872D01*
X163207414Y-55836011D01*
X163136932Y-56006171D01*
X163101000Y-56186811D01*
X159091454Y-56186811D01*
X159082471Y-56095608D01*
X159029007Y-55919360D01*
X158942186Y-55756928D01*
X158825344Y-55614556D01*
X158682972Y-55497714D01*
X158520540Y-55410893D01*
X158344292Y-55357429D01*
X158206932Y-55343900D01*
X157865068Y-55343900D01*
X157727708Y-55357429D01*
X157551460Y-55410893D01*
X157389028Y-55497714D01*
X157329144Y-55546860D01*
X157240976Y-55489624D01*
X157017874Y-55409781D01*
X156843000Y-55535946D01*
X156589000Y-55535946D01*
X156414126Y-55409781D01*
X156191024Y-55489624D01*
X156003236Y-55611531D01*
X155842839Y-55767731D01*
X155715997Y-55952222D01*
X155627585Y-56157913D01*
X155581000Y-56376900D01*
X150717600Y-56376900D01*
X150671015Y-56157913D01*
X150582603Y-55952222D01*
X150455761Y-55767731D01*
X150295364Y-55611531D01*
X150107576Y-55489624D01*
X149884474Y-55409781D01*
X149709600Y-55535946D01*
X149455600Y-55535946D01*
X149280726Y-55409781D01*
X149057624Y-55489624D01*
X148898750Y-55592760D01*
X148858628Y-55552638D01*
X148705489Y-55450314D01*
X148535329Y-55379832D01*
X148354689Y-55343900D01*
X148170511Y-55343900D01*
X147989871Y-55379832D01*
X147819711Y-55450314D01*
X147666572Y-55552638D01*
X147536338Y-55682872D01*
X147434014Y-55836011D01*
X147363532Y-56006171D01*
X147327600Y-56186811D01*
X143318054Y-56186811D01*
X143309071Y-56095608D01*
X143255607Y-55919360D01*
X143168786Y-55756928D01*
X143051944Y-55614556D01*
X142909572Y-55497714D01*
X142747140Y-55410893D01*
X142570892Y-55357429D01*
X142433532Y-55343900D01*
X142091668Y-55343900D01*
X141954308Y-55357429D01*
X141778060Y-55410893D01*
X141615628Y-55497714D01*
X141555744Y-55546860D01*
X141467576Y-55489624D01*
X141244474Y-55409781D01*
X141069600Y-55535946D01*
X140815600Y-55535946D01*
X140640726Y-55409781D01*
X140417624Y-55489624D01*
X140229836Y-55611531D01*
X140069439Y-55767731D01*
X139942597Y-55952222D01*
X139854185Y-56157913D01*
X139807600Y-56376900D01*
X120685000Y-56376900D01*
X120685000Y-53279872D01*
X121265000Y-53279872D01*
X121265000Y-53720128D01*
X121350890Y-54151925D01*
X121519369Y-54558669D01*
X121763962Y-54924729D01*
X122075271Y-55236038D01*
X122441331Y-55480631D01*
X122848075Y-55649110D01*
X123279872Y-55735000D01*
X123720128Y-55735000D01*
X124151925Y-55649110D01*
X124558669Y-55480631D01*
X124924729Y-55236038D01*
X125236038Y-54924729D01*
X125480631Y-54558669D01*
X125649110Y-54151925D01*
X125735000Y-53720128D01*
X125735000Y-53305900D01*
X139807600Y-53305900D01*
X139807600Y-53955900D01*
X139854185Y-54174887D01*
X139942597Y-54380578D01*
X140069439Y-54565069D01*
X140229836Y-54721269D01*
X140417624Y-54843176D01*
X140640726Y-54923019D01*
X140815600Y-54796854D01*
X140815600Y-53305900D01*
X141069600Y-53305900D01*
X141069600Y-54796854D01*
X141244474Y-54923019D01*
X141467576Y-54843176D01*
X141655364Y-54721269D01*
X141815761Y-54565069D01*
X141942603Y-54380578D01*
X142031015Y-54174887D01*
X142077600Y-53955900D01*
X142077600Y-53305900D01*
X148447600Y-53305900D01*
X148447600Y-53955900D01*
X148494185Y-54174887D01*
X148582597Y-54380578D01*
X148709439Y-54565069D01*
X148869836Y-54721269D01*
X149057624Y-54843176D01*
X149280726Y-54923019D01*
X149455600Y-54796854D01*
X149455600Y-53305900D01*
X149709600Y-53305900D01*
X149709600Y-54796854D01*
X149884474Y-54923019D01*
X150107576Y-54843176D01*
X150295364Y-54721269D01*
X150455761Y-54565069D01*
X150582603Y-54380578D01*
X150671015Y-54174887D01*
X150717600Y-53955900D01*
X150717600Y-53305900D01*
X155581000Y-53305900D01*
X155581000Y-53955900D01*
X155627585Y-54174887D01*
X155715997Y-54380578D01*
X155842839Y-54565069D01*
X156003236Y-54721269D01*
X156191024Y-54843176D01*
X156414126Y-54923019D01*
X156589000Y-54796854D01*
X156589000Y-53305900D01*
X156843000Y-53305900D01*
X156843000Y-54796854D01*
X157017874Y-54923019D01*
X157240976Y-54843176D01*
X157428764Y-54721269D01*
X157589161Y-54565069D01*
X157716003Y-54380578D01*
X157804415Y-54174887D01*
X157851000Y-53955900D01*
X157851000Y-53305900D01*
X164221000Y-53305900D01*
X164221000Y-53955900D01*
X164267585Y-54174887D01*
X164355997Y-54380578D01*
X164482839Y-54565069D01*
X164643236Y-54721269D01*
X164831024Y-54843176D01*
X165054126Y-54923019D01*
X165229000Y-54796854D01*
X165229000Y-53305900D01*
X165483000Y-53305900D01*
X165483000Y-54796854D01*
X165657874Y-54923019D01*
X165880976Y-54843176D01*
X166068764Y-54721269D01*
X166229161Y-54565069D01*
X166356003Y-54380578D01*
X166444415Y-54174887D01*
X166491000Y-53955900D01*
X166491000Y-53305900D01*
X165483000Y-53305900D01*
X165229000Y-53305900D01*
X164221000Y-53305900D01*
X157851000Y-53305900D01*
X156843000Y-53305900D01*
X156589000Y-53305900D01*
X155581000Y-53305900D01*
X150717600Y-53305900D01*
X149709600Y-53305900D01*
X149455600Y-53305900D01*
X148447600Y-53305900D01*
X142077600Y-53305900D01*
X141069600Y-53305900D01*
X140815600Y-53305900D01*
X139807600Y-53305900D01*
X125735000Y-53305900D01*
X125735000Y-53279872D01*
X204265000Y-53279872D01*
X204265000Y-53720128D01*
X204350890Y-54151925D01*
X204519369Y-54558669D01*
X204763962Y-54924729D01*
X205075271Y-55236038D01*
X205441331Y-55480631D01*
X205848075Y-55649110D01*
X206279872Y-55735000D01*
X206720128Y-55735000D01*
X207151925Y-55649110D01*
X207558669Y-55480631D01*
X207924729Y-55236038D01*
X208236038Y-54924729D01*
X208480631Y-54558669D01*
X208649110Y-54151925D01*
X208735000Y-53720128D01*
X208735000Y-53279872D01*
X208649110Y-52848075D01*
X208480631Y-52441331D01*
X208236038Y-52075271D01*
X207924729Y-51763962D01*
X207558669Y-51519369D01*
X207151925Y-51350890D01*
X206720128Y-51265000D01*
X206279872Y-51265000D01*
X205848075Y-51350890D01*
X205441331Y-51519369D01*
X205075271Y-51763962D01*
X204763962Y-52075271D01*
X204519369Y-52441331D01*
X204350890Y-52848075D01*
X204265000Y-53279872D01*
X125735000Y-53279872D01*
X125649110Y-52848075D01*
X125480631Y-52441331D01*
X125454285Y-52401900D01*
X139807600Y-52401900D01*
X139807600Y-53051900D01*
X140815600Y-53051900D01*
X140815600Y-51560946D01*
X141069600Y-51560946D01*
X141069600Y-53051900D01*
X142077600Y-53051900D01*
X142077600Y-52401900D01*
X148447600Y-52401900D01*
X148447600Y-53051900D01*
X149455600Y-53051900D01*
X149455600Y-51560946D01*
X149709600Y-51560946D01*
X149709600Y-53051900D01*
X150717600Y-53051900D01*
X150717600Y-52401900D01*
X155581000Y-52401900D01*
X155581000Y-53051900D01*
X156589000Y-53051900D01*
X156589000Y-51560946D01*
X156843000Y-51560946D01*
X156843000Y-53051900D01*
X157851000Y-53051900D01*
X157851000Y-52401900D01*
X164221000Y-52401900D01*
X164221000Y-53051900D01*
X165229000Y-53051900D01*
X165229000Y-51560946D01*
X165483000Y-51560946D01*
X165483000Y-53051900D01*
X166491000Y-53051900D01*
X166491000Y-52401900D01*
X166444415Y-52182913D01*
X166356003Y-51977222D01*
X166229161Y-51792731D01*
X166068764Y-51636531D01*
X165880976Y-51514624D01*
X165657874Y-51434781D01*
X165483000Y-51560946D01*
X165229000Y-51560946D01*
X165054126Y-51434781D01*
X164831024Y-51514624D01*
X164643236Y-51636531D01*
X164482839Y-51792731D01*
X164355997Y-51977222D01*
X164267585Y-52182913D01*
X164221000Y-52401900D01*
X157851000Y-52401900D01*
X157804415Y-52182913D01*
X157716003Y-51977222D01*
X157589161Y-51792731D01*
X157428764Y-51636531D01*
X157240976Y-51514624D01*
X157017874Y-51434781D01*
X156843000Y-51560946D01*
X156589000Y-51560946D01*
X156414126Y-51434781D01*
X156191024Y-51514624D01*
X156003236Y-51636531D01*
X155842839Y-51792731D01*
X155715997Y-51977222D01*
X155627585Y-52182913D01*
X155581000Y-52401900D01*
X150717600Y-52401900D01*
X150671015Y-52182913D01*
X150582603Y-51977222D01*
X150455761Y-51792731D01*
X150295364Y-51636531D01*
X150107576Y-51514624D01*
X149884474Y-51434781D01*
X149709600Y-51560946D01*
X149455600Y-51560946D01*
X149280726Y-51434781D01*
X149057624Y-51514624D01*
X148869836Y-51636531D01*
X148709439Y-51792731D01*
X148582597Y-51977222D01*
X148494185Y-52182913D01*
X148447600Y-52401900D01*
X142077600Y-52401900D01*
X142031015Y-52182913D01*
X141942603Y-51977222D01*
X141815761Y-51792731D01*
X141655364Y-51636531D01*
X141467576Y-51514624D01*
X141244474Y-51434781D01*
X141069600Y-51560946D01*
X140815600Y-51560946D01*
X140640726Y-51434781D01*
X140417624Y-51514624D01*
X140229836Y-51636531D01*
X140069439Y-51792731D01*
X139942597Y-51977222D01*
X139854185Y-52182913D01*
X139807600Y-52401900D01*
X125454285Y-52401900D01*
X125236038Y-52075271D01*
X124924729Y-51763962D01*
X124558669Y-51519369D01*
X124151925Y-51350890D01*
X123720128Y-51265000D01*
X123279872Y-51265000D01*
X122848075Y-51350890D01*
X122441331Y-51519369D01*
X122075271Y-51763962D01*
X121763962Y-52075271D01*
X121519369Y-52441331D01*
X121350890Y-52848075D01*
X121265000Y-53279872D01*
X120685000Y-53279872D01*
X120685000Y-52533504D01*
X120722789Y-52148103D01*
X120824987Y-51809607D01*
X120990984Y-51497412D01*
X121214460Y-51223403D01*
X121486902Y-50998020D01*
X121797931Y-50829847D01*
X122135708Y-50725288D01*
X122519022Y-50685000D01*
X207466496Y-50685000D01*
X207851897Y-50722789D01*
G37*
%TD.AperFunction*%
%TD*%
M02*
