%TF.GenerationSoftware,KiCad,Pcbnew,(5.1.6-0-10_14)*%
%TF.CreationDate,2020-10-02T15:43:10+07:00*%
%TF.ProjectId,ublox ZED-F9P (Full feature),75626c6f-7820-45a4-9544-2d4639502028,V1*%
%TF.SameCoordinates,Original*%
%TF.FileFunction,Soldermask,Bot*%
%TF.FilePolarity,Negative*%
%FSLAX46Y46*%
G04 Gerber Fmt 4.6, Leading zero omitted, Abs format (unit mm)*
G04 Created by KiCad (PCBNEW (5.1.6-0-10_14)) date 2020-10-02 15:43:10*
%MOMM*%
%LPD*%
G01*
G04 APERTURE LIST*
%ADD10C,0.100000*%
%ADD11O,1.000000X2.300000*%
%ADD12O,0.850000X0.600000*%
%ADD13C,0.600000*%
%ADD14O,1.000000X2.000000*%
%ADD15R,0.863600X1.473200*%
%ADD16C,3.200000*%
%ADD17C,2.082800*%
%ADD18R,1.703200X4.203200*%
%ADD19R,4.203200X1.703200*%
G04 APERTURE END LIST*
D10*
%TO.C,PPS2*%
G36*
X203631800Y-80035400D02*
G01*
X203250800Y-80035400D01*
X203250800Y-80289400D01*
X203631800Y-80289400D01*
X203631800Y-80035400D01*
G37*
%TO.C,RTK2*%
G36*
X203107000Y-67658500D02*
G01*
X203488000Y-67658500D01*
X203488000Y-67404500D01*
X203107000Y-67404500D01*
X203107000Y-67658500D01*
G37*
%TO.C,RTK1*%
G36*
X124201300Y-61805600D02*
G01*
X124582300Y-61805600D01*
X124582300Y-61551600D01*
X124201300Y-61551600D01*
X124201300Y-61805600D01*
G37*
%TO.C,PPS_LED2*%
G36*
X203107000Y-70960500D02*
G01*
X203488000Y-70960500D01*
X203488000Y-70706500D01*
X203107000Y-70706500D01*
X203107000Y-70960500D01*
G37*
%TO.C,PPS_LED1*%
G36*
X124176700Y-64495600D02*
G01*
X124557700Y-64495600D01*
X124557700Y-64241600D01*
X124176700Y-64241600D01*
X124176700Y-64495600D01*
G37*
%TO.C,FENCE2*%
G36*
X203107000Y-64229500D02*
G01*
X203488000Y-64229500D01*
X203488000Y-63975500D01*
X203107000Y-63975500D01*
X203107000Y-64229500D01*
G37*
%TO.C,FENCE1*%
G36*
X124201300Y-58916400D02*
G01*
X124582300Y-58916400D01*
X124582300Y-58662400D01*
X124201300Y-58662400D01*
X124201300Y-58916400D01*
G37*
%TD*%
D11*
%TO.C,P2*%
X156716000Y-53178900D03*
D12*
X158036000Y-56278900D03*
D11*
X165356000Y-53178900D03*
D13*
X164036000Y-56278900D03*
D14*
X165356000Y-57003900D03*
X156716000Y-57003900D03*
%TD*%
D11*
%TO.C,P1*%
X140942600Y-53178900D03*
D12*
X142262600Y-56278900D03*
D11*
X149582600Y-53178900D03*
D13*
X148262600Y-56278900D03*
D14*
X149582600Y-57003900D03*
X140942600Y-57003900D03*
%TD*%
D15*
%TO.C,PPS2*%
X202920600Y-80162400D03*
X203962000Y-80162400D03*
%TD*%
D16*
%TO.C,H4*%
X206500000Y-96500000D03*
%TD*%
%TO.C,H3*%
X206500000Y-53500000D03*
%TD*%
%TO.C,H2*%
X123500000Y-96500000D03*
%TD*%
%TO.C,H1*%
X123500000Y-53500000D03*
%TD*%
D15*
%TO.C,RTK2*%
X203818200Y-67531500D03*
X202776800Y-67531500D03*
%TD*%
%TO.C,RTK1*%
X124912500Y-61678600D03*
X123871100Y-61678600D03*
%TD*%
%TO.C,PPS_LED2*%
X203818200Y-70833500D03*
X202776800Y-70833500D03*
%TD*%
%TO.C,PPS_LED1*%
X124887900Y-64368600D03*
X123846500Y-64368600D03*
%TD*%
D17*
%TO.C,J6*%
X122110500Y-80264000D03*
X122110500Y-77724000D03*
X122110500Y-75184000D03*
X122110500Y-72644000D03*
X122110500Y-70104000D03*
X122110500Y-67564000D03*
%TD*%
%TO.C,J2*%
X208127600Y-87731600D03*
X208127600Y-85191600D03*
X208127600Y-82651600D03*
X208127600Y-80111600D03*
X208127600Y-77571600D03*
X208127600Y-75031600D03*
%TD*%
D15*
%TO.C,FENCE2*%
X203818200Y-64102500D03*
X202776800Y-64102500D03*
%TD*%
%TO.C,FENCE1*%
X124912500Y-58789400D03*
X123871100Y-58789400D03*
%TD*%
D18*
%TO.C,E3*%
X175860000Y-97800000D03*
X180940000Y-97800000D03*
%TD*%
D19*
%TO.C,E2*%
X122200000Y-83566000D03*
X122200000Y-88646000D03*
%TD*%
D18*
%TO.C,E1*%
X146260000Y-97800000D03*
X151340000Y-97800000D03*
%TD*%
M02*
