%TF.GenerationSoftware,KiCad,Pcbnew,(5.1.7)-1*%
%TF.CreationDate,2020-10-06T17:18:09+07:00*%
%TF.ProjectId,ublox ZED-F9P (Full feature),75626c6f-7820-45a4-9544-2d4639502028,V1*%
%TF.SameCoordinates,Original*%
%TF.FileFunction,Copper,L4,Bot*%
%TF.FilePolarity,Positive*%
%FSLAX46Y46*%
G04 Gerber Fmt 4.6, Leading zero omitted, Abs format (unit mm)*
G04 Created by KiCad (PCBNEW (5.1.7)-1) date 2020-10-06 17:18:09*
%MOMM*%
%LPD*%
G01*
G04 APERTURE LIST*
%TA.AperFunction,EtchedComponent*%
%ADD10C,0.100000*%
%TD*%
%TA.AperFunction,ComponentPad*%
%ADD11O,1.000000X2.300000*%
%TD*%
%TA.AperFunction,ComponentPad*%
%ADD12O,1.000000X2.000000*%
%TD*%
%TA.AperFunction,SMDPad,CuDef*%
%ADD13R,0.660400X1.270000*%
%TD*%
%TA.AperFunction,ComponentPad*%
%ADD14C,1.879600*%
%TD*%
%TA.AperFunction,SMDPad,CuDef*%
%ADD15R,1.500000X4.000000*%
%TD*%
%TA.AperFunction,SMDPad,CuDef*%
%ADD16R,4.000000X1.500000*%
%TD*%
%TA.AperFunction,ViaPad*%
%ADD17C,0.812800*%
%TD*%
%TA.AperFunction,Conductor*%
%ADD18C,0.254000*%
%TD*%
%TA.AperFunction,Conductor*%
%ADD19C,0.203200*%
%TD*%
%TA.AperFunction,Conductor*%
%ADD20C,0.508000*%
%TD*%
%TA.AperFunction,Conductor*%
%ADD21C,0.304800*%
%TD*%
%TA.AperFunction,Conductor*%
%ADD22C,0.100000*%
%TD*%
G04 APERTURE END LIST*
D10*
%TO.C,PPS2*%
G36*
X204139800Y-80035400D02*
G01*
X203257150Y-80035400D01*
X203257150Y-80289400D01*
X204139800Y-80289400D01*
X204139800Y-80035400D01*
G37*
%TO.C,RTK2*%
G36*
X202599000Y-67658500D02*
G01*
X203481650Y-67658500D01*
X203481650Y-67404500D01*
X202599000Y-67404500D01*
X202599000Y-67658500D01*
G37*
%TO.C,RTK1*%
G36*
X123693300Y-61805600D02*
G01*
X124575950Y-61805600D01*
X124575950Y-61551600D01*
X123693300Y-61551600D01*
X123693300Y-61805600D01*
G37*
%TO.C,PPS_LED2*%
G36*
X202599000Y-70960500D02*
G01*
X203481650Y-70960500D01*
X203481650Y-70706500D01*
X202599000Y-70706500D01*
X202599000Y-70960500D01*
G37*
%TO.C,PPS_LED1*%
G36*
X123668700Y-64495600D02*
G01*
X124551350Y-64495600D01*
X124551350Y-64241600D01*
X123668700Y-64241600D01*
X123668700Y-64495600D01*
G37*
%TO.C,FENCE2*%
G36*
X202599000Y-64229500D02*
G01*
X203481650Y-64229500D01*
X203481650Y-63975500D01*
X202599000Y-63975500D01*
X202599000Y-64229500D01*
G37*
%TO.C,FENCE1*%
G36*
X123693300Y-58916400D02*
G01*
X124575950Y-58916400D01*
X124575950Y-58662400D01*
X123693300Y-58662400D01*
X123693300Y-58916400D01*
G37*
%TD*%
D11*
%TO.P,P2,S1*%
%TO.N,GND*%
X156716000Y-53178900D03*
X165356000Y-53178900D03*
D12*
X165356000Y-57003900D03*
X156716000Y-57003900D03*
%TD*%
D11*
%TO.P,P1,S1*%
%TO.N,GND*%
X140942600Y-53178900D03*
X149582600Y-53178900D03*
D12*
X149582600Y-57003900D03*
X140942600Y-57003900D03*
%TD*%
D13*
%TO.P,PPS2,2*%
%TO.N,Net-(PPS2-Pad2)*%
X202920600Y-80162400D03*
%TO.P,PPS2,1*%
%TO.N,Net-(PPS2-Pad1)*%
X203962000Y-80162400D03*
%TD*%
%TO.P,RTK2,2*%
%TO.N,/RTK_STAT_H*%
X203818200Y-67531500D03*
%TO.P,RTK2,1*%
%TO.N,Net-(R36-Pad2)*%
X202776800Y-67531500D03*
%TD*%
%TO.P,RTK1,2*%
%TO.N,/RTK_STAT_P*%
X124912500Y-61678600D03*
%TO.P,RTK1,1*%
%TO.N,Net-(R12-Pad2)*%
X123871100Y-61678600D03*
%TD*%
%TO.P,PPS_LED2,2*%
%TO.N,/PPS_STAT_H*%
X203818200Y-70833500D03*
%TO.P,PPS_LED2,1*%
%TO.N,Net-(PPS_LED2-Pad1)*%
X202776800Y-70833500D03*
%TD*%
%TO.P,PPS_LED1,2*%
%TO.N,/PPS_STAT_P*%
X124887900Y-64368600D03*
%TO.P,PPS_LED1,1*%
%TO.N,Net-(PPS_LED1-Pad1)*%
X123846500Y-64368600D03*
%TD*%
D14*
%TO.P,J6,6*%
%TO.N,/INT_P*%
X122110500Y-80264000D03*
%TO.P,J6,5*%
%TO.N,/~SAFE_P*%
X122110500Y-77724000D03*
%TO.P,J6,4*%
%TO.N,/~RESET_P*%
X122110500Y-75184000D03*
%TO.P,J6,3*%
%TO.N,/PPS_STAT_P*%
X122110500Y-72644000D03*
%TO.P,J6,2*%
%TO.N,/RTK_STAT_P*%
X122110500Y-70104000D03*
%TO.P,J6,1*%
%TO.N,/FENCE_STAT_P*%
X122110500Y-67564000D03*
%TD*%
%TO.P,J2,6*%
%TO.N,/INT_H*%
X207900000Y-87700000D03*
%TO.P,J2,5*%
%TO.N,/~SAFE_H*%
X207900000Y-85160000D03*
%TO.P,J2,4*%
%TO.N,/~RESET_H*%
X207900000Y-82620000D03*
%TO.P,J2,3*%
%TO.N,/PPS_STAT_H*%
X207900000Y-80080000D03*
%TO.P,J2,2*%
%TO.N,/RTK_STAT_H*%
X207900000Y-77540000D03*
%TO.P,J2,1*%
%TO.N,/FENCE_STAT_H*%
X207900000Y-75000000D03*
%TD*%
D13*
%TO.P,FENCE2,2*%
%TO.N,/FENCE_STAT_H*%
X203818200Y-64102500D03*
%TO.P,FENCE2,1*%
%TO.N,Net-(FENCE2-Pad1)*%
X202776800Y-64102500D03*
%TD*%
%TO.P,FENCE1,2*%
%TO.N,/FENCE_STAT_P*%
X124912500Y-58789400D03*
%TO.P,FENCE1,1*%
%TO.N,Net-(FENCE1-Pad1)*%
X123871100Y-58789400D03*
%TD*%
D15*
%TO.P,E3,GND@3*%
%TO.N,GND*%
X175860000Y-97800000D03*
%TO.P,E3,GND@2*%
X180940000Y-97800000D03*
%TD*%
D16*
%TO.P,E2,GND@3*%
%TO.N,GND*%
X122200000Y-83566000D03*
%TO.P,E2,GND@2*%
X122200000Y-88646000D03*
%TD*%
D15*
%TO.P,E1,GND@3*%
%TO.N,GND*%
X146260000Y-97800000D03*
%TO.P,E1,GND@2*%
X151340000Y-97800000D03*
%TD*%
D17*
%TO.N,/BACKUP*%
X137900000Y-87500000D03*
X152600000Y-71900000D03*
X185600000Y-66899998D03*
%TO.N,GND*%
X139344400Y-64211200D03*
X144678390Y-61459702D03*
X141058900Y-58826400D03*
X164757100Y-58635900D03*
X149225000Y-58635900D03*
X157340300Y-62979300D03*
X161890003Y-60648107D03*
X166750000Y-63499998D03*
X151000000Y-63999988D03*
X177500000Y-55250000D03*
X147625000Y-93583332D03*
X147625000Y-92441666D03*
X147625000Y-91300000D03*
X147800000Y-90250000D03*
X149900000Y-93700000D03*
X149900000Y-92600000D03*
X150000000Y-90200000D03*
X151100000Y-90200000D03*
X152100000Y-90200000D03*
X157050000Y-92450000D03*
X157300000Y-90000000D03*
X158500000Y-90000000D03*
X159600000Y-90000000D03*
X160700000Y-90000000D03*
X161800000Y-90000000D03*
X156975000Y-58500000D03*
X179100000Y-65200000D03*
X137300000Y-90100000D03*
X154400000Y-69000000D03*
X190100000Y-70500000D03*
X154500000Y-71100000D03*
X130000000Y-94800000D03*
X187100000Y-90700000D03*
X185327346Y-70311210D03*
X125500000Y-83600000D03*
X191250004Y-55500000D03*
X148600000Y-85175000D03*
X150675000Y-85175000D03*
X152775000Y-85175000D03*
X154900000Y-85175000D03*
X157025000Y-85175000D03*
X159150000Y-85175000D03*
X161200000Y-85175000D03*
X163400000Y-85175000D03*
X163300000Y-88400000D03*
X163300000Y-89350000D03*
X164550000Y-89075000D03*
X146450000Y-85175000D03*
X150725000Y-83075000D03*
X146500000Y-83075000D03*
X148650000Y-83075000D03*
X161250000Y-83075000D03*
X157075000Y-83075000D03*
X159200000Y-83075000D03*
X154950000Y-83075000D03*
X163450000Y-83075000D03*
X152825000Y-83075000D03*
X161200000Y-81025000D03*
X152775000Y-81025000D03*
X146450000Y-81025000D03*
X154900000Y-81025000D03*
X157025000Y-81025000D03*
X163400000Y-81025000D03*
X159150000Y-81025000D03*
X148600000Y-81025000D03*
X150675000Y-81025000D03*
X163425000Y-78950000D03*
X148625000Y-78950000D03*
X157050000Y-78950000D03*
X146475000Y-78950000D03*
X161225000Y-78950000D03*
X159175000Y-78950000D03*
X152800000Y-78950000D03*
X154925000Y-78950000D03*
X150700000Y-78950000D03*
X150650000Y-76900000D03*
X161175000Y-76900000D03*
X157000000Y-76900000D03*
X163375000Y-76900000D03*
X148575000Y-76900000D03*
X152750000Y-76900000D03*
X154875000Y-76900000D03*
X159125000Y-76900000D03*
X146425000Y-76900000D03*
X150700000Y-74950000D03*
X148625000Y-74950000D03*
X161225000Y-74950000D03*
X152800000Y-74950000D03*
X157050000Y-74950000D03*
X159175000Y-74950000D03*
X146475000Y-74950000D03*
X154925000Y-74950000D03*
X163425000Y-74950000D03*
X150750000Y-87100000D03*
X146350000Y-87125000D03*
X148600000Y-87100000D03*
X161225000Y-87100000D03*
X157025000Y-87100000D03*
X159100000Y-87100000D03*
X154900000Y-87075000D03*
X163300000Y-87125000D03*
X152800000Y-87075000D03*
X192900000Y-81000000D03*
X178100000Y-81000000D03*
X190750000Y-83050000D03*
X182325000Y-83050000D03*
X176000000Y-83050000D03*
X186525000Y-81000000D03*
X175950000Y-81000000D03*
X190700000Y-81000000D03*
X188650000Y-81000000D03*
X184450000Y-83050000D03*
X180175000Y-85150000D03*
X182275000Y-81000000D03*
X186575000Y-83050000D03*
X175950000Y-85150000D03*
X192950000Y-83050000D03*
X188650000Y-83025000D03*
X184400000Y-81000000D03*
X178150000Y-83050000D03*
X180225000Y-83050000D03*
X180175000Y-81000000D03*
X186550000Y-74925000D03*
X182300000Y-74925000D03*
X180225000Y-74900000D03*
X178075000Y-74900000D03*
X192925000Y-74925000D03*
X188675000Y-74925000D03*
X184425000Y-74925000D03*
X175975000Y-74925000D03*
X190725000Y-74925000D03*
X178100000Y-85150000D03*
X180175000Y-78950000D03*
X190750000Y-78925000D03*
X180275000Y-76875000D03*
X178150000Y-76850000D03*
X190675000Y-76875000D03*
X186550000Y-78925000D03*
X182325000Y-76875000D03*
X186500000Y-76875000D03*
X192925000Y-78925000D03*
X188625000Y-76875000D03*
X190700000Y-85150000D03*
X178125000Y-78925000D03*
X175925000Y-76875000D03*
X182300000Y-78925000D03*
X184375000Y-76875000D03*
X192875000Y-76875000D03*
X184425000Y-78925000D03*
X188600000Y-78925000D03*
X175975000Y-78925000D03*
X186525000Y-85100000D03*
X175975000Y-87075000D03*
X178075000Y-87050000D03*
X188575000Y-87050000D03*
X180225000Y-87050000D03*
X188625000Y-85100000D03*
X190700000Y-87050000D03*
X186500000Y-87050000D03*
X182325000Y-87025000D03*
X184400000Y-85150000D03*
X184375000Y-87025000D03*
X192900000Y-85150000D03*
X182275000Y-85150000D03*
X192800000Y-87100000D03*
X177350000Y-94725000D03*
X177250000Y-93575000D03*
X177250000Y-92200000D03*
X177250000Y-91025000D03*
X177225000Y-89950000D03*
X179350000Y-94775000D03*
X179400000Y-93575000D03*
X179350000Y-92275000D03*
X180550000Y-92125000D03*
X182725000Y-92600000D03*
X184725000Y-92000000D03*
X186275000Y-91900000D03*
X151350000Y-92900000D03*
X154100000Y-93375000D03*
X146400000Y-90300000D03*
X144575000Y-90375000D03*
X142925000Y-89875000D03*
X142725000Y-88500000D03*
X142875000Y-85400000D03*
X142950000Y-81175000D03*
X142900000Y-79850000D03*
X142900000Y-78550000D03*
X142975000Y-77325000D03*
X143050000Y-73325000D03*
X163900000Y-72925000D03*
X165200000Y-73025000D03*
X166675000Y-76500000D03*
X166675000Y-77900000D03*
X166675000Y-79300000D03*
X166675000Y-80625000D03*
X166675000Y-84325000D03*
X166675000Y-85825000D03*
X166675000Y-87350000D03*
X166675000Y-88700000D03*
X165425000Y-90425000D03*
X163350000Y-90425000D03*
X166675000Y-90125000D03*
X188625000Y-90325000D03*
X190950000Y-90400000D03*
X192800000Y-90400000D03*
X195025000Y-90300000D03*
X193875000Y-89000000D03*
X196250000Y-88400000D03*
X196250000Y-87025000D03*
X196250000Y-85325000D03*
X196250000Y-84125000D03*
X196100000Y-81075000D03*
X196100000Y-79625000D03*
X196100000Y-78325000D03*
X196100000Y-77225000D03*
X196100000Y-76150000D03*
X196500000Y-73250000D03*
X194000000Y-72925000D03*
X192475000Y-72100000D03*
X190875000Y-72000000D03*
X175475000Y-72525000D03*
X172750000Y-76200000D03*
X172675000Y-77700000D03*
X172675000Y-79200000D03*
X147625000Y-94725000D03*
X150050000Y-94825000D03*
X146500000Y-89200000D03*
X146500000Y-88175000D03*
X175950000Y-89475000D03*
X176025000Y-88250000D03*
X144544240Y-96425000D03*
X144538480Y-97800000D03*
X144550000Y-99175000D03*
X162000000Y-69000000D03*
X154175000Y-66888790D03*
X195650000Y-59675000D03*
X196275000Y-62275000D03*
X178700000Y-57425000D03*
X185750000Y-59775000D03*
X193125000Y-63075000D03*
X194775000Y-63075000D03*
X193150000Y-64575000D03*
X195200000Y-64575000D03*
X199475000Y-60750000D03*
X199500000Y-65675000D03*
X197775000Y-66350000D03*
X195900000Y-71125000D03*
X195325000Y-72025000D03*
X196725000Y-75175000D03*
X197800000Y-60750000D03*
X197900000Y-62300000D03*
X153019240Y-96425000D03*
X153013480Y-97800000D03*
X153025000Y-99175000D03*
X174044240Y-96400000D03*
X174050000Y-99150000D03*
X174038480Y-97775000D03*
X182644240Y-96400000D03*
X182638480Y-97775000D03*
X182650000Y-99150000D03*
X120850000Y-90330760D03*
X122225000Y-90336520D03*
X123600000Y-90325000D03*
X122225000Y-82086520D03*
X120850000Y-82080760D03*
X123600000Y-82075000D03*
X144925000Y-71025000D03*
%TO.N,/FENCE_STAT_P*%
X126318937Y-66386866D03*
%TO.N,Net-(FENCE1-Pad1)*%
X121800000Y-58700000D03*
%TO.N,/FENCE_STAT_H*%
X206811210Y-73700000D03*
%TO.N,Net-(FENCE2-Pad1)*%
X201800000Y-62900000D03*
%TO.N,/PPS_STAT_H*%
X205232002Y-79000000D03*
%TO.N,/RTK_STAT_H*%
X204600000Y-76350000D03*
%TO.N,/PPS_STAT_P*%
X126000000Y-71400000D03*
%TO.N,/RTK_STAT_P*%
X125900000Y-68850000D03*
%TO.N,Net-(PPS2-Pad2)*%
X170700000Y-86600000D03*
%TO.N,Net-(PPS2-Pad1)*%
X202995902Y-78690098D03*
%TO.N,Net-(PPS_LED1-Pad1)*%
X121800000Y-64400000D03*
%TO.N,Net-(PPS_LED2-Pad1)*%
X202000000Y-69600000D03*
%TO.N,Net-(R12-Pad2)*%
X121900000Y-61600000D03*
%TO.N,Net-(R18-Pad1)*%
X129200000Y-80100000D03*
X135536390Y-84450532D03*
%TO.N,Net-(R19-Pad1)*%
X129091448Y-75414995D03*
X135536390Y-81900000D03*
%TO.N,Net-(R20-Pad1)*%
X129400000Y-77800000D03*
X135536390Y-83249878D03*
%TO.N,/RX2_P*%
X183475000Y-56875000D03*
X197400000Y-57375000D03*
X170375000Y-70408821D03*
%TO.N,/TX2_P*%
X182250000Y-56925000D03*
X196375000Y-56950000D03*
X183750000Y-58013790D03*
X168610940Y-70408821D03*
%TO.N,Net-(R24-Pad1)*%
X137800000Y-68800000D03*
X166400000Y-70700000D03*
X166900000Y-72700000D03*
X167300000Y-81800000D03*
%TO.N,Net-(R25-Pad1)*%
X137700000Y-67600000D03*
X168099998Y-82800000D03*
X167400000Y-70499998D03*
X166985473Y-73808176D03*
%TO.N,Net-(R28-Pad1)*%
X197600000Y-84300000D03*
X172300000Y-80600000D03*
%TO.N,Net-(R29-Pad1)*%
X172100000Y-83800000D03*
X199830000Y-86810000D03*
%TO.N,Net-(R32-Pad1)*%
X198600000Y-85200000D03*
X171600000Y-82000000D03*
%TO.N,Net-(R36-Pad2)*%
X201900000Y-66300000D03*
%TO.N,/RX1*%
X139827391Y-72651279D03*
X162978410Y-70079973D03*
%TO.N,/TX1*%
X140545820Y-71932851D03*
X164175000Y-70825004D03*
%TO.N,+3V3*%
X199900000Y-62000000D03*
X195800000Y-66100000D03*
X136400000Y-87500000D03*
X147300000Y-68900000D03*
X174000000Y-64100000D03*
X182500000Y-71500000D03*
X185200000Y-72000000D03*
X157172412Y-65636390D03*
%TO.N,Net-(C6-Pad1)*%
X149025000Y-59800000D03*
%TO.N,Net-(D1-Pad2)*%
X198575000Y-57300000D03*
X192900000Y-61975000D03*
%TD*%
D18*
%TO.N,/BACKUP*%
X137900000Y-76900000D02*
X142900000Y-71900000D01*
X137900000Y-87500000D02*
X137900000Y-76900000D01*
X142900000Y-71900000D02*
X152600000Y-71900000D01*
D19*
X175150002Y-66899998D02*
X185600000Y-66899998D01*
X170150000Y-71900000D02*
X175150002Y-66899998D01*
X152600000Y-71900000D02*
X170150000Y-71900000D01*
%TO.N,/FENCE_STAT_P*%
X128050000Y-64655803D02*
X126318937Y-66386866D01*
X124912500Y-58789400D02*
X127289400Y-58789400D01*
X127289400Y-58789400D02*
X128050000Y-59550000D01*
X128050000Y-59550000D02*
X128050000Y-64655803D01*
D20*
%TO.N,Net-(FENCE1-Pad1)*%
X123781700Y-58700000D02*
X123871100Y-58789400D01*
X121800000Y-58700000D02*
X123781700Y-58700000D01*
D19*
%TO.N,/FENCE_STAT_H*%
X203818200Y-64102500D02*
X205902500Y-64102500D01*
X205902500Y-64102500D02*
X206811210Y-65011210D01*
X206811210Y-65011210D02*
X206811210Y-73700000D01*
%TO.N,Net-(FENCE2-Pad1)*%
X201800000Y-63125700D02*
X202776800Y-64102500D01*
X201800000Y-62900000D02*
X201800000Y-63125700D01*
%TO.N,/PPS_STAT_H*%
X203818200Y-70833500D02*
X203818200Y-77586198D01*
X203818200Y-77586198D02*
X205232002Y-79000000D01*
%TO.N,/RTK_STAT_H*%
X204600000Y-76350000D02*
X206100000Y-74850000D01*
X206100000Y-74850000D02*
X206100000Y-68200000D01*
X206100000Y-68200000D02*
X205400000Y-67500000D01*
X203849700Y-67500000D02*
X203818200Y-67531500D01*
X205400000Y-67500000D02*
X203849700Y-67500000D01*
%TO.N,/PPS_STAT_P*%
X126000000Y-71400000D02*
X124700000Y-70100000D01*
X124700000Y-64556500D02*
X124887900Y-64368600D01*
X124700000Y-70100000D02*
X124700000Y-64556500D01*
%TO.N,/RTK_STAT_P*%
X125900000Y-68850000D02*
X125350000Y-68300000D01*
X125350000Y-68300000D02*
X125350000Y-66350000D01*
X125350000Y-66350000D02*
X127250000Y-64450000D01*
X127250000Y-64450000D02*
X127250000Y-62050000D01*
X126878600Y-61678600D02*
X124912500Y-61678600D01*
X127250000Y-62050000D02*
X126878600Y-61678600D01*
%TO.N,Net-(PPS2-Pad2)*%
X170900000Y-86600000D02*
X170700000Y-86600000D01*
X170300000Y-86000000D02*
X170900000Y-86600000D01*
X174800000Y-67900000D02*
X170300000Y-72400000D01*
X199300000Y-67900000D02*
X174800000Y-67900000D01*
X200200000Y-68800000D02*
X199300000Y-67900000D01*
X201862400Y-80162400D02*
X200200000Y-78500000D01*
X170300000Y-72400000D02*
X170300000Y-86000000D01*
X200200000Y-78500000D02*
X200200000Y-68800000D01*
X202920600Y-80162400D02*
X201862400Y-80162400D01*
%TO.N,Net-(PPS2-Pad1)*%
X203962000Y-80162400D02*
X203962000Y-79324200D01*
X203962000Y-79324200D02*
X203327898Y-78690098D01*
X203327898Y-78690098D02*
X202995902Y-78690098D01*
D20*
%TO.N,Net-(PPS_LED1-Pad1)*%
X123815100Y-64400000D02*
X123846500Y-64368600D01*
X121800000Y-64400000D02*
X123815100Y-64400000D01*
D19*
%TO.N,Net-(PPS_LED2-Pad1)*%
X202000000Y-70056700D02*
X202776800Y-70833500D01*
X202000000Y-69600000D02*
X202000000Y-70056700D01*
D20*
%TO.N,Net-(R12-Pad2)*%
X123792500Y-61600000D02*
X123871100Y-61678600D01*
X121900000Y-61600000D02*
X123792500Y-61600000D01*
D21*
%TO.N,Net-(R18-Pad1)*%
X133550532Y-84450532D02*
X135536390Y-84450532D01*
X129200000Y-80100000D02*
X133550532Y-84450532D01*
%TO.N,Net-(R19-Pad1)*%
X135536390Y-81859937D02*
X135536390Y-81900000D01*
X129091448Y-75414995D02*
X135536390Y-81859937D01*
%TO.N,Net-(R20-Pad1)*%
X134849878Y-83249878D02*
X135536390Y-83249878D01*
X129400000Y-77800000D02*
X134849878Y-83249878D01*
D19*
%TO.N,/RX2_P*%
X197400000Y-57375000D02*
X196050000Y-58725000D01*
X196050000Y-58725000D02*
X181625000Y-58725000D01*
X183475000Y-56875000D02*
X181625000Y-58725000D01*
X170375000Y-69975000D02*
X170375000Y-70408821D01*
X181625000Y-58725000D02*
X170375000Y-69975000D01*
%TO.N,/TX2_P*%
X196375000Y-56950000D02*
X195311210Y-58013790D01*
X195311210Y-58013790D02*
X183750000Y-58013790D01*
X168766179Y-70408821D02*
X168610940Y-70408821D01*
X182250000Y-56925000D02*
X168766179Y-70408821D01*
%TO.N,Net-(R24-Pad1)*%
X166900000Y-72700000D02*
X166200000Y-73400000D01*
X166200000Y-73400000D02*
X166200000Y-74100000D01*
X166200000Y-74100000D02*
X167500000Y-75400000D01*
X167500000Y-75400000D02*
X167500000Y-81500000D01*
X167500000Y-81600000D02*
X167300000Y-81800000D01*
X167500000Y-81500000D02*
X167500000Y-81600000D01*
X138500000Y-68100000D02*
X161597422Y-68100000D01*
X161908623Y-67788799D02*
X163488799Y-67788799D01*
X163488799Y-67788799D02*
X166400000Y-70700000D01*
X137800000Y-68800000D02*
X138500000Y-68100000D01*
X161597422Y-68100000D02*
X161908623Y-67788799D01*
%TO.N,Net-(R25-Pad1)*%
X168099998Y-74922701D02*
X166985473Y-73808176D01*
X168099998Y-82800000D02*
X168099998Y-74922701D01*
X137700000Y-67600000D02*
X161522671Y-67600000D01*
X161522671Y-67600000D02*
X161740283Y-67382388D01*
X161740283Y-67382388D02*
X164282390Y-67382388D01*
X164282390Y-67382388D02*
X167400000Y-70499998D01*
%TO.N,Net-(R28-Pad1)*%
X171750000Y-80050000D02*
X172300000Y-80600000D01*
X171750000Y-72950000D02*
X171750000Y-80050000D01*
X175100000Y-69600000D02*
X171750000Y-72950000D01*
X196700000Y-69600000D02*
X175100000Y-69600000D01*
X197600000Y-70500000D02*
X196700000Y-69600000D01*
X197600000Y-84300000D02*
X197600000Y-70500000D01*
%TO.N,Net-(R29-Pad1)*%
X172100000Y-83800000D02*
X170800000Y-82500000D01*
X170800000Y-82500000D02*
X170800000Y-72500000D01*
X170800000Y-72500000D02*
X174900000Y-68400000D01*
X199423601Y-86403601D02*
X199830000Y-86810000D01*
X174900000Y-68400000D02*
X198800000Y-68400000D01*
X199423601Y-69023601D02*
X199423601Y-86403601D01*
X198800000Y-68400000D02*
X199423601Y-69023601D01*
%TO.N,Net-(R32-Pad1)*%
X171250000Y-81650000D02*
X171600000Y-82000000D01*
X198600000Y-85200000D02*
X198600000Y-69500000D01*
X171250000Y-72700000D02*
X171250000Y-81650000D01*
X174950000Y-69000000D02*
X171250000Y-72700000D01*
X198600000Y-69500000D02*
X198100000Y-69000000D01*
X198100000Y-69000000D02*
X174950000Y-69000000D01*
%TO.N,Net-(R36-Pad2)*%
X201900000Y-66654700D02*
X202776800Y-67531500D01*
X201900000Y-66300000D02*
X201900000Y-66654700D01*
%TO.N,/RX1*%
X145359717Y-69707388D02*
X145634715Y-69982387D01*
X162880824Y-69982387D02*
X162978410Y-70079973D01*
X144065285Y-69982387D02*
X144340283Y-69707388D01*
X139827391Y-71598700D02*
X141443704Y-69982387D01*
X141443704Y-69982387D02*
X144065285Y-69982387D01*
X144340283Y-69707388D02*
X145359717Y-69707388D01*
X139827391Y-72651279D02*
X139827391Y-71598700D01*
X145634715Y-69982387D02*
X162880824Y-69982387D01*
%TO.N,/TX1*%
X162214062Y-70388798D02*
X162650268Y-70825004D01*
X144233624Y-70388798D02*
X144508623Y-70113799D01*
X140545820Y-71932851D02*
X142089873Y-70388798D01*
X145466376Y-70388798D02*
X162214062Y-70388798D01*
X145191377Y-70113799D02*
X145466376Y-70388798D01*
X142089873Y-70388798D02*
X144233624Y-70388798D01*
X162650268Y-70825004D02*
X164175000Y-70825004D01*
X144508623Y-70113799D02*
X145191377Y-70113799D01*
D20*
%TO.N,+3V3*%
X199900000Y-62000000D02*
X195800000Y-66100000D01*
X136400000Y-87500000D02*
X136400000Y-74100000D01*
X141600000Y-68900000D02*
X147300000Y-68900000D01*
X136400000Y-74100000D02*
X141600000Y-68900000D01*
X184700000Y-71500000D02*
X185200000Y-72000000D01*
X182500000Y-71500000D02*
X184700000Y-71500000D01*
X174000000Y-64100000D02*
X172463610Y-65636390D01*
X172463610Y-65636390D02*
X157172412Y-65636390D01*
%TO.N,Net-(D1-Pad2)*%
X198575000Y-57300000D02*
X198575000Y-58175000D01*
X194775000Y-61975000D02*
X192900000Y-61975000D01*
X198575000Y-58175000D02*
X194775000Y-61975000D01*
%TD*%
D18*
%TO.N,GND*%
X207851897Y-50722789D02*
X208190393Y-50824987D01*
X208502588Y-50990984D01*
X208776597Y-51214460D01*
X209001980Y-51486902D01*
X209170153Y-51797931D01*
X209274712Y-52135708D01*
X209315001Y-52519031D01*
X209315001Y-74300961D01*
X209295570Y-74254052D01*
X209123227Y-73996123D01*
X208903877Y-73776773D01*
X208645948Y-73604430D01*
X208359352Y-73485718D01*
X208055104Y-73425200D01*
X207818351Y-73425200D01*
X207812590Y-73396235D01*
X207734087Y-73206712D01*
X207620118Y-73036146D01*
X207547810Y-72963838D01*
X207547810Y-65047393D01*
X207551374Y-65011209D01*
X207547810Y-64975024D01*
X207537152Y-64866811D01*
X207495032Y-64727961D01*
X207436759Y-64618939D01*
X207426634Y-64599996D01*
X207357652Y-64515942D01*
X207357647Y-64515937D01*
X207334584Y-64487835D01*
X207306483Y-64464773D01*
X206448945Y-63607236D01*
X206425875Y-63579125D01*
X206313713Y-63487076D01*
X206185749Y-63418678D01*
X206046899Y-63376558D01*
X205938686Y-63365900D01*
X205938683Y-63365900D01*
X205902500Y-63362336D01*
X205866317Y-63365900D01*
X204776466Y-63365900D01*
X204774212Y-63343018D01*
X204737902Y-63223320D01*
X204678937Y-63113006D01*
X204599585Y-63016315D01*
X204502894Y-62936963D01*
X204392580Y-62877998D01*
X204272882Y-62841688D01*
X204148400Y-62829428D01*
X203488000Y-62829428D01*
X203363518Y-62841688D01*
X203297500Y-62861714D01*
X203231482Y-62841688D01*
X203107000Y-62829428D01*
X202841400Y-62829428D01*
X202841400Y-62797431D01*
X202801380Y-62596235D01*
X202722877Y-62406712D01*
X202608908Y-62236146D01*
X202463854Y-62091092D01*
X202293288Y-61977123D01*
X202103765Y-61898620D01*
X201902569Y-61858600D01*
X201697431Y-61858600D01*
X201496235Y-61898620D01*
X201306712Y-61977123D01*
X201136146Y-62091092D01*
X200991092Y-62236146D01*
X200877123Y-62406712D01*
X200798620Y-62596235D01*
X200758600Y-62797431D01*
X200758600Y-63002569D01*
X200798620Y-63203765D01*
X200877123Y-63393288D01*
X200991092Y-63563854D01*
X201136146Y-63708908D01*
X201306712Y-63822877D01*
X201496235Y-63901380D01*
X201543340Y-63910750D01*
X201808528Y-64175938D01*
X201808528Y-64737500D01*
X201820788Y-64861982D01*
X201857098Y-64981680D01*
X201916063Y-65091994D01*
X201995415Y-65188685D01*
X202092106Y-65268037D01*
X202117054Y-65281372D01*
X202002569Y-65258600D01*
X201797431Y-65258600D01*
X201596235Y-65298620D01*
X201406712Y-65377123D01*
X201236146Y-65491092D01*
X201091092Y-65636146D01*
X200977123Y-65806712D01*
X200898620Y-65996235D01*
X200858600Y-66197431D01*
X200858600Y-66402569D01*
X200898620Y-66603765D01*
X200977123Y-66793288D01*
X201091092Y-66963854D01*
X201236146Y-67108908D01*
X201406712Y-67222877D01*
X201440438Y-67236847D01*
X201808528Y-67604937D01*
X201808528Y-68166500D01*
X201820788Y-68290982D01*
X201857098Y-68410680D01*
X201916063Y-68520994D01*
X201946925Y-68558600D01*
X201897431Y-68558600D01*
X201696235Y-68598620D01*
X201506712Y-68677123D01*
X201336146Y-68791092D01*
X201191092Y-68936146D01*
X201077123Y-69106712D01*
X200998620Y-69296235D01*
X200958600Y-69497431D01*
X200958600Y-69702569D01*
X200998620Y-69903765D01*
X201077123Y-70093288D01*
X201191092Y-70263854D01*
X201336146Y-70408908D01*
X201362422Y-70426465D01*
X201384576Y-70467913D01*
X201476626Y-70580075D01*
X201504732Y-70603141D01*
X201808528Y-70906937D01*
X201808528Y-71468500D01*
X201820788Y-71592982D01*
X201857098Y-71712680D01*
X201916063Y-71822994D01*
X201995415Y-71919685D01*
X202092106Y-71999037D01*
X202202420Y-72058002D01*
X202322118Y-72094312D01*
X202446600Y-72106572D01*
X203081600Y-72106572D01*
X203081601Y-77550005D01*
X203078036Y-77586198D01*
X203084192Y-77648698D01*
X202893333Y-77648698D01*
X202692137Y-77688718D01*
X202502614Y-77767221D01*
X202332048Y-77881190D01*
X202186994Y-78026244D01*
X202073025Y-78196810D01*
X201994522Y-78386333D01*
X201954502Y-78587529D01*
X201954502Y-78792667D01*
X201994522Y-78993863D01*
X202065725Y-79165763D01*
X202059863Y-79172906D01*
X202009269Y-79267559D01*
X200936600Y-78194891D01*
X200936600Y-68836175D01*
X200940163Y-68799999D01*
X200936600Y-68763823D01*
X200936600Y-68763814D01*
X200925942Y-68655601D01*
X200883822Y-68516751D01*
X200815424Y-68388787D01*
X200772595Y-68336600D01*
X200746442Y-68304732D01*
X200746441Y-68304731D01*
X200723375Y-68276625D01*
X200695269Y-68253559D01*
X199846445Y-67404736D01*
X199823375Y-67376625D01*
X199711213Y-67284576D01*
X199583249Y-67216178D01*
X199444399Y-67174058D01*
X199336186Y-67163400D01*
X199336183Y-67163400D01*
X199300000Y-67159836D01*
X199263817Y-67163400D01*
X186609409Y-67163400D01*
X186641400Y-67002567D01*
X186641400Y-66797429D01*
X186601380Y-66596233D01*
X186522877Y-66406710D01*
X186408908Y-66236144D01*
X186263854Y-66091090D01*
X186123684Y-65997431D01*
X194758600Y-65997431D01*
X194758600Y-66202569D01*
X194798620Y-66403765D01*
X194877123Y-66593288D01*
X194991092Y-66763854D01*
X195136146Y-66908908D01*
X195306712Y-67022877D01*
X195496235Y-67101380D01*
X195697431Y-67141400D01*
X195902569Y-67141400D01*
X196103765Y-67101380D01*
X196293288Y-67022877D01*
X196463854Y-66908908D01*
X196608908Y-66763854D01*
X196722877Y-66593288D01*
X196801380Y-66403765D01*
X196813276Y-66343959D01*
X200143960Y-63013276D01*
X200203765Y-63001380D01*
X200393288Y-62922877D01*
X200563854Y-62808908D01*
X200708908Y-62663854D01*
X200822877Y-62493288D01*
X200901380Y-62303765D01*
X200941400Y-62102569D01*
X200941400Y-61897431D01*
X200901380Y-61696235D01*
X200822877Y-61506712D01*
X200708908Y-61336146D01*
X200563854Y-61191092D01*
X200393288Y-61077123D01*
X200203765Y-60998620D01*
X200002569Y-60958600D01*
X199797431Y-60958600D01*
X199596235Y-60998620D01*
X199406712Y-61077123D01*
X199236146Y-61191092D01*
X199091092Y-61336146D01*
X198977123Y-61506712D01*
X198898620Y-61696235D01*
X198886724Y-61756040D01*
X195556041Y-65086724D01*
X195496235Y-65098620D01*
X195306712Y-65177123D01*
X195136146Y-65291092D01*
X194991092Y-65436146D01*
X194877123Y-65606712D01*
X194798620Y-65796235D01*
X194758600Y-65997431D01*
X186123684Y-65997431D01*
X186093288Y-65977121D01*
X185903765Y-65898618D01*
X185702569Y-65858598D01*
X185497431Y-65858598D01*
X185296235Y-65898618D01*
X185106712Y-65977121D01*
X184936146Y-66091090D01*
X184863838Y-66163398D01*
X175228311Y-66163398D01*
X181930110Y-59461600D01*
X196013817Y-59461600D01*
X196029609Y-59463156D01*
X194406765Y-61086000D01*
X193443988Y-61086000D01*
X193393288Y-61052123D01*
X193203765Y-60973620D01*
X193002569Y-60933600D01*
X192797431Y-60933600D01*
X192596235Y-60973620D01*
X192406712Y-61052123D01*
X192236146Y-61166092D01*
X192091092Y-61311146D01*
X191977123Y-61481712D01*
X191898620Y-61671235D01*
X191858600Y-61872431D01*
X191858600Y-62077569D01*
X191898620Y-62278765D01*
X191977123Y-62468288D01*
X192091092Y-62638854D01*
X192236146Y-62783908D01*
X192406712Y-62897877D01*
X192596235Y-62976380D01*
X192797431Y-63016400D01*
X193002569Y-63016400D01*
X193203765Y-62976380D01*
X193393288Y-62897877D01*
X193443988Y-62864000D01*
X194731340Y-62864000D01*
X194775000Y-62868300D01*
X194818660Y-62864000D01*
X194818667Y-62864000D01*
X194949274Y-62851136D01*
X195116851Y-62800303D01*
X195271291Y-62717753D01*
X195406659Y-62606659D01*
X195434499Y-62572736D01*
X199172742Y-58834494D01*
X199206659Y-58806659D01*
X199317753Y-58671291D01*
X199400303Y-58516851D01*
X199435716Y-58400108D01*
X199451136Y-58349275D01*
X199468301Y-58175000D01*
X199464000Y-58131332D01*
X199464000Y-57843988D01*
X199497877Y-57793288D01*
X199576380Y-57603765D01*
X199616400Y-57402569D01*
X199616400Y-57197431D01*
X199576380Y-56996235D01*
X199497877Y-56806712D01*
X199383908Y-56636146D01*
X199238854Y-56491092D01*
X199068288Y-56377123D01*
X198878765Y-56298620D01*
X198677569Y-56258600D01*
X198472431Y-56258600D01*
X198271235Y-56298620D01*
X198081712Y-56377123D01*
X197931378Y-56477574D01*
X197893288Y-56452123D01*
X197703765Y-56373620D01*
X197502569Y-56333600D01*
X197297431Y-56333600D01*
X197225214Y-56347965D01*
X197183908Y-56286146D01*
X197038854Y-56141092D01*
X196868288Y-56027123D01*
X196678765Y-55948620D01*
X196477569Y-55908600D01*
X196272431Y-55908600D01*
X196071235Y-55948620D01*
X195881712Y-56027123D01*
X195711146Y-56141092D01*
X195566092Y-56286146D01*
X195452123Y-56456712D01*
X195373620Y-56646235D01*
X195333600Y-56847431D01*
X195333600Y-56949690D01*
X195006101Y-57277190D01*
X184486162Y-57277190D01*
X184450417Y-57241445D01*
X184476380Y-57178765D01*
X184516400Y-56977569D01*
X184516400Y-56772431D01*
X184476380Y-56571235D01*
X184397877Y-56381712D01*
X184283908Y-56211146D01*
X184138854Y-56066092D01*
X183968288Y-55952123D01*
X183778765Y-55873620D01*
X183577569Y-55833600D01*
X183372431Y-55833600D01*
X183171235Y-55873620D01*
X182981712Y-55952123D01*
X182825085Y-56056778D01*
X182743288Y-56002123D01*
X182553765Y-55923620D01*
X182352569Y-55883600D01*
X182147431Y-55883600D01*
X181946235Y-55923620D01*
X181756712Y-56002123D01*
X181586146Y-56116092D01*
X181441092Y-56261146D01*
X181327123Y-56431712D01*
X181248620Y-56621235D01*
X181208600Y-56822431D01*
X181208600Y-56924690D01*
X174753026Y-63380264D01*
X174663854Y-63291092D01*
X174493288Y-63177123D01*
X174303765Y-63098620D01*
X174102569Y-63058600D01*
X173897431Y-63058600D01*
X173696235Y-63098620D01*
X173506712Y-63177123D01*
X173336146Y-63291092D01*
X173191092Y-63436146D01*
X173077123Y-63606712D01*
X172998620Y-63796235D01*
X172986724Y-63856040D01*
X172095375Y-64747390D01*
X157716400Y-64747390D01*
X157665700Y-64713513D01*
X157476177Y-64635010D01*
X157274981Y-64594990D01*
X157069843Y-64594990D01*
X156868647Y-64635010D01*
X156679124Y-64713513D01*
X156508558Y-64827482D01*
X156363504Y-64972536D01*
X156249535Y-65143102D01*
X156171032Y-65332625D01*
X156131012Y-65533821D01*
X156131012Y-65738959D01*
X156171032Y-65940155D01*
X156249535Y-66129678D01*
X156363504Y-66300244D01*
X156508558Y-66445298D01*
X156679124Y-66559267D01*
X156868647Y-66637770D01*
X157069843Y-66677790D01*
X157274981Y-66677790D01*
X157476177Y-66637770D01*
X157665700Y-66559267D01*
X157716400Y-66525390D01*
X171607901Y-66525390D01*
X168757183Y-69376108D01*
X168713509Y-69367421D01*
X168508371Y-69367421D01*
X168307175Y-69407441D01*
X168117652Y-69485944D01*
X167947086Y-69599913D01*
X167939200Y-69607799D01*
X167893288Y-69577121D01*
X167703765Y-69498618D01*
X167502569Y-69458598D01*
X167400309Y-69458598D01*
X164828836Y-66887125D01*
X164805765Y-66859013D01*
X164693603Y-66766964D01*
X164565639Y-66698566D01*
X164426789Y-66656446D01*
X164318576Y-66645788D01*
X164318573Y-66645788D01*
X164282390Y-66642224D01*
X164246207Y-66645788D01*
X161776469Y-66645788D01*
X161740283Y-66642224D01*
X161704097Y-66645788D01*
X161595884Y-66656446D01*
X161457034Y-66698566D01*
X161329070Y-66766964D01*
X161216908Y-66859013D01*
X161213308Y-66863400D01*
X138436162Y-66863400D01*
X138363854Y-66791092D01*
X138193288Y-66677123D01*
X138003765Y-66598620D01*
X137802569Y-66558600D01*
X137597431Y-66558600D01*
X137396235Y-66598620D01*
X137206712Y-66677123D01*
X137036146Y-66791092D01*
X136891092Y-66936146D01*
X136777123Y-67106712D01*
X136698620Y-67296235D01*
X136658600Y-67497431D01*
X136658600Y-67702569D01*
X136698620Y-67903765D01*
X136777123Y-68093288D01*
X136891092Y-68263854D01*
X136899885Y-68272647D01*
X136877123Y-68306712D01*
X136798620Y-68496235D01*
X136758600Y-68697431D01*
X136758600Y-68902569D01*
X136798620Y-69103765D01*
X136877123Y-69293288D01*
X136991092Y-69463854D01*
X137136146Y-69608908D01*
X137306712Y-69722877D01*
X137496235Y-69801380D01*
X137697431Y-69841400D01*
X137902569Y-69841400D01*
X138103765Y-69801380D01*
X138293288Y-69722877D01*
X138463854Y-69608908D01*
X138608908Y-69463854D01*
X138722877Y-69293288D01*
X138801380Y-69103765D01*
X138841400Y-68902569D01*
X138841400Y-68836600D01*
X140406164Y-68836600D01*
X135802259Y-73440506D01*
X135768342Y-73468341D01*
X135740507Y-73502258D01*
X135740505Y-73502260D01*
X135657248Y-73603709D01*
X135574698Y-73758148D01*
X135523864Y-73925726D01*
X135506700Y-74100000D01*
X135511001Y-74143670D01*
X135511001Y-80720996D01*
X130132848Y-75342845D01*
X130132848Y-75312426D01*
X130092828Y-75111230D01*
X130014325Y-74921707D01*
X129900356Y-74751141D01*
X129755302Y-74606087D01*
X129584736Y-74492118D01*
X129395213Y-74413615D01*
X129194017Y-74373595D01*
X128988879Y-74373595D01*
X128787683Y-74413615D01*
X128598160Y-74492118D01*
X128427594Y-74606087D01*
X128282540Y-74751141D01*
X128168571Y-74921707D01*
X128090068Y-75111230D01*
X128050048Y-75312426D01*
X128050048Y-75517564D01*
X128090068Y-75718760D01*
X128168571Y-75908283D01*
X128282540Y-76078849D01*
X128427594Y-76223903D01*
X128598160Y-76337872D01*
X128787683Y-76416375D01*
X128988879Y-76456395D01*
X129019298Y-76456395D01*
X129321503Y-76758600D01*
X129297431Y-76758600D01*
X129096235Y-76798620D01*
X128906712Y-76877123D01*
X128736146Y-76991092D01*
X128591092Y-77136146D01*
X128477123Y-77306712D01*
X128398620Y-77496235D01*
X128358600Y-77697431D01*
X128358600Y-77902569D01*
X128398620Y-78103765D01*
X128477123Y-78293288D01*
X128591092Y-78463854D01*
X128736146Y-78608908D01*
X128906712Y-78722877D01*
X129096235Y-78801380D01*
X129297431Y-78841400D01*
X129327850Y-78841400D01*
X129642561Y-79156111D01*
X129503765Y-79098620D01*
X129302569Y-79058600D01*
X129097431Y-79058600D01*
X128896235Y-79098620D01*
X128706712Y-79177123D01*
X128536146Y-79291092D01*
X128391092Y-79436146D01*
X128277123Y-79606712D01*
X128198620Y-79796235D01*
X128158600Y-79997431D01*
X128158600Y-80202569D01*
X128198620Y-80403765D01*
X128277123Y-80593288D01*
X128391092Y-80763854D01*
X128536146Y-80908908D01*
X128706712Y-81022877D01*
X128896235Y-81101380D01*
X129097431Y-81141400D01*
X129127850Y-81141400D01*
X132966413Y-84979965D01*
X132991063Y-85010001D01*
X133021099Y-85034651D01*
X133021101Y-85034653D01*
X133084587Y-85086754D01*
X133110960Y-85108398D01*
X133247749Y-85181514D01*
X133396175Y-85226538D01*
X133511859Y-85237932D01*
X133511868Y-85237932D01*
X133550531Y-85241740D01*
X133589194Y-85237932D01*
X134851028Y-85237932D01*
X134872536Y-85259440D01*
X135043102Y-85373409D01*
X135232625Y-85451912D01*
X135433821Y-85491932D01*
X135511000Y-85491932D01*
X135511000Y-86956012D01*
X135477123Y-87006712D01*
X135398620Y-87196235D01*
X135358600Y-87397431D01*
X135358600Y-87602569D01*
X135398620Y-87803765D01*
X135477123Y-87993288D01*
X135591092Y-88163854D01*
X135736146Y-88308908D01*
X135906712Y-88422877D01*
X136096235Y-88501380D01*
X136297431Y-88541400D01*
X136502569Y-88541400D01*
X136703765Y-88501380D01*
X136893288Y-88422877D01*
X137063854Y-88308908D01*
X137150000Y-88222762D01*
X137236146Y-88308908D01*
X137406712Y-88422877D01*
X137596235Y-88501380D01*
X137797431Y-88541400D01*
X138002569Y-88541400D01*
X138203765Y-88501380D01*
X138393288Y-88422877D01*
X138563854Y-88308908D01*
X138708908Y-88163854D01*
X138822877Y-87993288D01*
X138901380Y-87803765D01*
X138941400Y-87602569D01*
X138941400Y-87397431D01*
X138901380Y-87196235D01*
X138822877Y-87006712D01*
X138708908Y-86836146D01*
X138662000Y-86789238D01*
X138662000Y-77215630D01*
X143215631Y-72662000D01*
X151889238Y-72662000D01*
X151936146Y-72708908D01*
X152106712Y-72822877D01*
X152296235Y-72901380D01*
X152497431Y-72941400D01*
X152702569Y-72941400D01*
X152903765Y-72901380D01*
X153093288Y-72822877D01*
X153263854Y-72708908D01*
X153336162Y-72636600D01*
X165858600Y-72636600D01*
X165858600Y-72699691D01*
X165704732Y-72853559D01*
X165676625Y-72876626D01*
X165653559Y-72904732D01*
X165653558Y-72904733D01*
X165646105Y-72913815D01*
X165584576Y-72988788D01*
X165516178Y-73116752D01*
X165474058Y-73255602D01*
X165463400Y-73363814D01*
X165459836Y-73400000D01*
X165463400Y-73436183D01*
X165463400Y-74063817D01*
X165459836Y-74100000D01*
X165463400Y-74136183D01*
X165463400Y-74136186D01*
X165474058Y-74244399D01*
X165495604Y-74315424D01*
X165516178Y-74383247D01*
X165584576Y-74511212D01*
X165630158Y-74566753D01*
X165676626Y-74623375D01*
X165704732Y-74646441D01*
X166763400Y-75705110D01*
X166763401Y-80906063D01*
X166636146Y-80991092D01*
X166491092Y-81136146D01*
X166377123Y-81306712D01*
X166298620Y-81496235D01*
X166258600Y-81697431D01*
X166258600Y-81902569D01*
X166298620Y-82103765D01*
X166377123Y-82293288D01*
X166491092Y-82463854D01*
X166636146Y-82608908D01*
X166806712Y-82722877D01*
X166996235Y-82801380D01*
X167058598Y-82813785D01*
X167058598Y-82902569D01*
X167098618Y-83103765D01*
X167177121Y-83293288D01*
X167291090Y-83463854D01*
X167436144Y-83608908D01*
X167606710Y-83722877D01*
X167796233Y-83801380D01*
X167997429Y-83841400D01*
X168202567Y-83841400D01*
X168403763Y-83801380D01*
X168593286Y-83722877D01*
X168763852Y-83608908D01*
X168908906Y-83463854D01*
X169022875Y-83293288D01*
X169101378Y-83103765D01*
X169141398Y-82902569D01*
X169141398Y-82697431D01*
X169101378Y-82496235D01*
X169022875Y-82306712D01*
X168908906Y-82136146D01*
X168836598Y-82063838D01*
X168836598Y-74958876D01*
X168840161Y-74922700D01*
X168836598Y-74886524D01*
X168836598Y-74886515D01*
X168825940Y-74778302D01*
X168783820Y-74639452D01*
X168715422Y-74511488D01*
X168623373Y-74399326D01*
X168595261Y-74376255D01*
X168026873Y-73807867D01*
X168026873Y-73705607D01*
X167986853Y-73504411D01*
X167908350Y-73314888D01*
X167824493Y-73189387D01*
X167901380Y-73003765D01*
X167941400Y-72802569D01*
X167941400Y-72636600D01*
X169563400Y-72636600D01*
X169563401Y-85963807D01*
X169559836Y-86000000D01*
X169574059Y-86144398D01*
X169616178Y-86283247D01*
X169678144Y-86399178D01*
X169658600Y-86497431D01*
X169658600Y-86702569D01*
X169698620Y-86903765D01*
X169777123Y-87093288D01*
X169891092Y-87263854D01*
X170036146Y-87408908D01*
X170206712Y-87522877D01*
X170396235Y-87601380D01*
X170597431Y-87641400D01*
X170802569Y-87641400D01*
X171003765Y-87601380D01*
X171193288Y-87522877D01*
X171363854Y-87408908D01*
X171508908Y-87263854D01*
X171622877Y-87093288D01*
X171701380Y-86903765D01*
X171741400Y-86702569D01*
X171741400Y-86497431D01*
X171701380Y-86296235D01*
X171622877Y-86106712D01*
X171508908Y-85936146D01*
X171363854Y-85791092D01*
X171193288Y-85677123D01*
X171036600Y-85612221D01*
X171036600Y-83778310D01*
X171058600Y-83800310D01*
X171058600Y-83902569D01*
X171098620Y-84103765D01*
X171177123Y-84293288D01*
X171291092Y-84463854D01*
X171436146Y-84608908D01*
X171606712Y-84722877D01*
X171796235Y-84801380D01*
X171997431Y-84841400D01*
X172202569Y-84841400D01*
X172403765Y-84801380D01*
X172593288Y-84722877D01*
X172763854Y-84608908D01*
X172908908Y-84463854D01*
X173022877Y-84293288D01*
X173101380Y-84103765D01*
X173141400Y-83902569D01*
X173141400Y-83697431D01*
X173101380Y-83496235D01*
X173022877Y-83306712D01*
X172908908Y-83136146D01*
X172763854Y-82991092D01*
X172593288Y-82877123D01*
X172403765Y-82798620D01*
X172295648Y-82777114D01*
X172408908Y-82663854D01*
X172522877Y-82493288D01*
X172601380Y-82303765D01*
X172641400Y-82102569D01*
X172641400Y-81897431D01*
X172601380Y-81696235D01*
X172565262Y-81609039D01*
X172603765Y-81601380D01*
X172793288Y-81522877D01*
X172963854Y-81408908D01*
X173108908Y-81263854D01*
X173222877Y-81093288D01*
X173301380Y-80903765D01*
X173341400Y-80702569D01*
X173341400Y-80497431D01*
X173301380Y-80296235D01*
X173222877Y-80106712D01*
X173108908Y-79936146D01*
X172963854Y-79791092D01*
X172793288Y-79677123D01*
X172603765Y-79598620D01*
X172486600Y-79575315D01*
X172486600Y-73255109D01*
X174344278Y-71397431D01*
X181458600Y-71397431D01*
X181458600Y-71602569D01*
X181498620Y-71803765D01*
X181577123Y-71993288D01*
X181691092Y-72163854D01*
X181836146Y-72308908D01*
X182006712Y-72422877D01*
X182196235Y-72501380D01*
X182397431Y-72541400D01*
X182602569Y-72541400D01*
X182803765Y-72501380D01*
X182993288Y-72422877D01*
X183043988Y-72389000D01*
X184233925Y-72389000D01*
X184277123Y-72493288D01*
X184391092Y-72663854D01*
X184536146Y-72808908D01*
X184706712Y-72922877D01*
X184896235Y-73001380D01*
X185097431Y-73041400D01*
X185302569Y-73041400D01*
X185503765Y-73001380D01*
X185693288Y-72922877D01*
X185863854Y-72808908D01*
X186008908Y-72663854D01*
X186122877Y-72493288D01*
X186201380Y-72303765D01*
X186241400Y-72102569D01*
X186241400Y-71897431D01*
X186201380Y-71696235D01*
X186122877Y-71506712D01*
X186008908Y-71336146D01*
X185863854Y-71191092D01*
X185693288Y-71077123D01*
X185503765Y-70998620D01*
X185443959Y-70986724D01*
X185359499Y-70902264D01*
X185331659Y-70868341D01*
X185196291Y-70757247D01*
X185041851Y-70674697D01*
X184874274Y-70623864D01*
X184743667Y-70611000D01*
X184743660Y-70611000D01*
X184700000Y-70606700D01*
X184656340Y-70611000D01*
X183043988Y-70611000D01*
X182993288Y-70577123D01*
X182803765Y-70498620D01*
X182602569Y-70458600D01*
X182397431Y-70458600D01*
X182196235Y-70498620D01*
X182006712Y-70577123D01*
X181836146Y-70691092D01*
X181691092Y-70836146D01*
X181577123Y-71006712D01*
X181498620Y-71196235D01*
X181458600Y-71397431D01*
X174344278Y-71397431D01*
X175405109Y-70336600D01*
X196394891Y-70336600D01*
X196863401Y-70805111D01*
X196863400Y-83563838D01*
X196791092Y-83636146D01*
X196677123Y-83806712D01*
X196598620Y-83996235D01*
X196558600Y-84197431D01*
X196558600Y-84402569D01*
X196598620Y-84603765D01*
X196677123Y-84793288D01*
X196791092Y-84963854D01*
X196936146Y-85108908D01*
X197106712Y-85222877D01*
X197296235Y-85301380D01*
X197497431Y-85341400D01*
X197566324Y-85341400D01*
X197598620Y-85503765D01*
X197677123Y-85693288D01*
X197791092Y-85863854D01*
X197936146Y-86008908D01*
X198106712Y-86122877D01*
X198296235Y-86201380D01*
X198497431Y-86241400D01*
X198687002Y-86241400D01*
X198687002Y-86367408D01*
X198683437Y-86403601D01*
X198695235Y-86523375D01*
X198697660Y-86548000D01*
X198713434Y-86599999D01*
X198739779Y-86686848D01*
X198788600Y-86778187D01*
X198788600Y-86912569D01*
X198828620Y-87113765D01*
X198907123Y-87303288D01*
X199021092Y-87473854D01*
X199166146Y-87618908D01*
X199336712Y-87732877D01*
X199526235Y-87811380D01*
X199727431Y-87851400D01*
X199932569Y-87851400D01*
X200133765Y-87811380D01*
X200323288Y-87732877D01*
X200493854Y-87618908D01*
X200638908Y-87473854D01*
X200752877Y-87303288D01*
X200831380Y-87113765D01*
X200871400Y-86912569D01*
X200871400Y-86707431D01*
X200831380Y-86506235D01*
X200752877Y-86316712D01*
X200638908Y-86146146D01*
X200493854Y-86001092D01*
X200323288Y-85887123D01*
X200160201Y-85819570D01*
X200160201Y-79501910D01*
X201315959Y-80657669D01*
X201339025Y-80685775D01*
X201367131Y-80708841D01*
X201367132Y-80708842D01*
X201446598Y-80774058D01*
X201451187Y-80777824D01*
X201579151Y-80846222D01*
X201701205Y-80883247D01*
X201718001Y-80888342D01*
X201862400Y-80902564D01*
X201898586Y-80899000D01*
X201962334Y-80899000D01*
X201964588Y-80921882D01*
X202000898Y-81041580D01*
X202059863Y-81151894D01*
X202139215Y-81248585D01*
X202235906Y-81327937D01*
X202346220Y-81386902D01*
X202465918Y-81423212D01*
X202590400Y-81435472D01*
X203250800Y-81435472D01*
X203375282Y-81423212D01*
X203441300Y-81403186D01*
X203507318Y-81423212D01*
X203631800Y-81435472D01*
X204292200Y-81435472D01*
X204416682Y-81423212D01*
X204536380Y-81386902D01*
X204646694Y-81327937D01*
X204743385Y-81248585D01*
X204822737Y-81151894D01*
X204881702Y-81041580D01*
X204918012Y-80921882D01*
X204930272Y-80797400D01*
X204930272Y-80001785D01*
X205129433Y-80041400D01*
X205334571Y-80041400D01*
X205535767Y-80001380D01*
X205725290Y-79922877D01*
X205895856Y-79808908D01*
X206040910Y-79663854D01*
X206154879Y-79493288D01*
X206233382Y-79303765D01*
X206273402Y-79102569D01*
X206273402Y-78897431D01*
X206233382Y-78696235D01*
X206154879Y-78506712D01*
X206040910Y-78336146D01*
X205895856Y-78191092D01*
X205725290Y-78077123D01*
X205535767Y-77998620D01*
X205334571Y-77958600D01*
X205232312Y-77958600D01*
X204665111Y-77391400D01*
X204702569Y-77391400D01*
X204903765Y-77351380D01*
X205093288Y-77272877D01*
X205263854Y-77158908D01*
X205408908Y-77013854D01*
X205522877Y-76843288D01*
X205601380Y-76653765D01*
X205641400Y-76452569D01*
X205641400Y-76350309D01*
X206428668Y-75563041D01*
X206504430Y-75745948D01*
X206676773Y-76003877D01*
X206896123Y-76223227D01*
X206966124Y-76270000D01*
X206896123Y-76316773D01*
X206676773Y-76536123D01*
X206504430Y-76794052D01*
X206385718Y-77080648D01*
X206325200Y-77384896D01*
X206325200Y-77695104D01*
X206385718Y-77999352D01*
X206504430Y-78285948D01*
X206676773Y-78543877D01*
X206896123Y-78763227D01*
X206966124Y-78810000D01*
X206896123Y-78856773D01*
X206676773Y-79076123D01*
X206504430Y-79334052D01*
X206385718Y-79620648D01*
X206325200Y-79924896D01*
X206325200Y-80235104D01*
X206385718Y-80539352D01*
X206504430Y-80825948D01*
X206676773Y-81083877D01*
X206896123Y-81303227D01*
X206966124Y-81350000D01*
X206896123Y-81396773D01*
X206676773Y-81616123D01*
X206504430Y-81874052D01*
X206385718Y-82160648D01*
X206325200Y-82464896D01*
X206325200Y-82775104D01*
X206385718Y-83079352D01*
X206504430Y-83365948D01*
X206676773Y-83623877D01*
X206896123Y-83843227D01*
X206966124Y-83890000D01*
X206896123Y-83936773D01*
X206676773Y-84156123D01*
X206504430Y-84414052D01*
X206385718Y-84700648D01*
X206325200Y-85004896D01*
X206325200Y-85315104D01*
X206385718Y-85619352D01*
X206504430Y-85905948D01*
X206676773Y-86163877D01*
X206896123Y-86383227D01*
X206966124Y-86430000D01*
X206896123Y-86476773D01*
X206676773Y-86696123D01*
X206504430Y-86954052D01*
X206385718Y-87240648D01*
X206325200Y-87544896D01*
X206325200Y-87855104D01*
X206385718Y-88159352D01*
X206504430Y-88445948D01*
X206676773Y-88703877D01*
X206896123Y-88923227D01*
X207154052Y-89095570D01*
X207440648Y-89214282D01*
X207744896Y-89274800D01*
X208055104Y-89274800D01*
X208359352Y-89214282D01*
X208645948Y-89095570D01*
X208903877Y-88923227D01*
X209123227Y-88703877D01*
X209295570Y-88445948D01*
X209315000Y-88399039D01*
X209315000Y-97466495D01*
X209277211Y-97851897D01*
X209175013Y-98190392D01*
X209009016Y-98502588D01*
X208785539Y-98776599D01*
X208513098Y-99001980D01*
X208202069Y-99170153D01*
X207864296Y-99274711D01*
X207480977Y-99315000D01*
X182327203Y-99315000D01*
X182325000Y-98085750D01*
X182166250Y-97927000D01*
X181067000Y-97927000D01*
X181067000Y-97947000D01*
X180813000Y-97947000D01*
X180813000Y-97927000D01*
X179713750Y-97927000D01*
X179555000Y-98085750D01*
X179552797Y-99315000D01*
X177247203Y-99315000D01*
X177245000Y-98085750D01*
X177086250Y-97927000D01*
X175987000Y-97927000D01*
X175987000Y-97947000D01*
X175733000Y-97947000D01*
X175733000Y-97927000D01*
X174633750Y-97927000D01*
X174475000Y-98085750D01*
X174472797Y-99315000D01*
X152727203Y-99315000D01*
X152725000Y-98085750D01*
X152566250Y-97927000D01*
X151467000Y-97927000D01*
X151467000Y-97947000D01*
X151213000Y-97947000D01*
X151213000Y-97927000D01*
X150113750Y-97927000D01*
X149955000Y-98085750D01*
X149952797Y-99315000D01*
X147647203Y-99315000D01*
X147645000Y-98085750D01*
X147486250Y-97927000D01*
X146387000Y-97927000D01*
X146387000Y-97947000D01*
X146133000Y-97947000D01*
X146133000Y-97927000D01*
X145033750Y-97927000D01*
X144875000Y-98085750D01*
X144872797Y-99315000D01*
X122533505Y-99315000D01*
X122148103Y-99277211D01*
X121809608Y-99175013D01*
X121497412Y-99009016D01*
X121223401Y-98785539D01*
X120998020Y-98513098D01*
X120829847Y-98202069D01*
X120725289Y-97864296D01*
X120685000Y-97480977D01*
X120685000Y-96279872D01*
X121265000Y-96279872D01*
X121265000Y-96720128D01*
X121350890Y-97151925D01*
X121519369Y-97558669D01*
X121763962Y-97924729D01*
X122075271Y-98236038D01*
X122441331Y-98480631D01*
X122848075Y-98649110D01*
X123279872Y-98735000D01*
X123720128Y-98735000D01*
X124151925Y-98649110D01*
X124558669Y-98480631D01*
X124924729Y-98236038D01*
X125236038Y-97924729D01*
X125480631Y-97558669D01*
X125649110Y-97151925D01*
X125735000Y-96720128D01*
X125735000Y-96279872D01*
X125649110Y-95848075D01*
X125629197Y-95800000D01*
X144871928Y-95800000D01*
X144875000Y-97514250D01*
X145033750Y-97673000D01*
X146133000Y-97673000D01*
X146133000Y-95323750D01*
X146387000Y-95323750D01*
X146387000Y-97673000D01*
X147486250Y-97673000D01*
X147645000Y-97514250D01*
X147648072Y-95800000D01*
X149951928Y-95800000D01*
X149955000Y-97514250D01*
X150113750Y-97673000D01*
X151213000Y-97673000D01*
X151213000Y-95323750D01*
X151467000Y-95323750D01*
X151467000Y-97673000D01*
X152566250Y-97673000D01*
X152725000Y-97514250D01*
X152728072Y-95800000D01*
X174471928Y-95800000D01*
X174475000Y-97514250D01*
X174633750Y-97673000D01*
X175733000Y-97673000D01*
X175733000Y-95323750D01*
X175987000Y-95323750D01*
X175987000Y-97673000D01*
X177086250Y-97673000D01*
X177245000Y-97514250D01*
X177248072Y-95800000D01*
X179551928Y-95800000D01*
X179555000Y-97514250D01*
X179713750Y-97673000D01*
X180813000Y-97673000D01*
X180813000Y-95323750D01*
X181067000Y-95323750D01*
X181067000Y-97673000D01*
X182166250Y-97673000D01*
X182325000Y-97514250D01*
X182327212Y-96279872D01*
X204265000Y-96279872D01*
X204265000Y-96720128D01*
X204350890Y-97151925D01*
X204519369Y-97558669D01*
X204763962Y-97924729D01*
X205075271Y-98236038D01*
X205441331Y-98480631D01*
X205848075Y-98649110D01*
X206279872Y-98735000D01*
X206720128Y-98735000D01*
X207151925Y-98649110D01*
X207558669Y-98480631D01*
X207924729Y-98236038D01*
X208236038Y-97924729D01*
X208480631Y-97558669D01*
X208649110Y-97151925D01*
X208735000Y-96720128D01*
X208735000Y-96279872D01*
X208649110Y-95848075D01*
X208480631Y-95441331D01*
X208236038Y-95075271D01*
X207924729Y-94763962D01*
X207558669Y-94519369D01*
X207151925Y-94350890D01*
X206720128Y-94265000D01*
X206279872Y-94265000D01*
X205848075Y-94350890D01*
X205441331Y-94519369D01*
X205075271Y-94763962D01*
X204763962Y-95075271D01*
X204519369Y-95441331D01*
X204350890Y-95848075D01*
X204265000Y-96279872D01*
X182327212Y-96279872D01*
X182328072Y-95800000D01*
X182315812Y-95675518D01*
X182279502Y-95555820D01*
X182220537Y-95445506D01*
X182141185Y-95348815D01*
X182044494Y-95269463D01*
X181934180Y-95210498D01*
X181814482Y-95174188D01*
X181690000Y-95161928D01*
X181225750Y-95165000D01*
X181067000Y-95323750D01*
X180813000Y-95323750D01*
X180654250Y-95165000D01*
X180190000Y-95161928D01*
X180065518Y-95174188D01*
X179945820Y-95210498D01*
X179835506Y-95269463D01*
X179738815Y-95348815D01*
X179659463Y-95445506D01*
X179600498Y-95555820D01*
X179564188Y-95675518D01*
X179551928Y-95800000D01*
X177248072Y-95800000D01*
X177235812Y-95675518D01*
X177199502Y-95555820D01*
X177140537Y-95445506D01*
X177061185Y-95348815D01*
X176964494Y-95269463D01*
X176854180Y-95210498D01*
X176734482Y-95174188D01*
X176610000Y-95161928D01*
X176145750Y-95165000D01*
X175987000Y-95323750D01*
X175733000Y-95323750D01*
X175574250Y-95165000D01*
X175110000Y-95161928D01*
X174985518Y-95174188D01*
X174865820Y-95210498D01*
X174755506Y-95269463D01*
X174658815Y-95348815D01*
X174579463Y-95445506D01*
X174520498Y-95555820D01*
X174484188Y-95675518D01*
X174471928Y-95800000D01*
X152728072Y-95800000D01*
X152715812Y-95675518D01*
X152679502Y-95555820D01*
X152620537Y-95445506D01*
X152541185Y-95348815D01*
X152444494Y-95269463D01*
X152334180Y-95210498D01*
X152214482Y-95174188D01*
X152090000Y-95161928D01*
X151625750Y-95165000D01*
X151467000Y-95323750D01*
X151213000Y-95323750D01*
X151054250Y-95165000D01*
X150590000Y-95161928D01*
X150465518Y-95174188D01*
X150345820Y-95210498D01*
X150235506Y-95269463D01*
X150138815Y-95348815D01*
X150059463Y-95445506D01*
X150000498Y-95555820D01*
X149964188Y-95675518D01*
X149951928Y-95800000D01*
X147648072Y-95800000D01*
X147635812Y-95675518D01*
X147599502Y-95555820D01*
X147540537Y-95445506D01*
X147461185Y-95348815D01*
X147364494Y-95269463D01*
X147254180Y-95210498D01*
X147134482Y-95174188D01*
X147010000Y-95161928D01*
X146545750Y-95165000D01*
X146387000Y-95323750D01*
X146133000Y-95323750D01*
X145974250Y-95165000D01*
X145510000Y-95161928D01*
X145385518Y-95174188D01*
X145265820Y-95210498D01*
X145155506Y-95269463D01*
X145058815Y-95348815D01*
X144979463Y-95445506D01*
X144920498Y-95555820D01*
X144884188Y-95675518D01*
X144871928Y-95800000D01*
X125629197Y-95800000D01*
X125480631Y-95441331D01*
X125236038Y-95075271D01*
X124924729Y-94763962D01*
X124558669Y-94519369D01*
X124151925Y-94350890D01*
X123720128Y-94265000D01*
X123279872Y-94265000D01*
X122848075Y-94350890D01*
X122441331Y-94519369D01*
X122075271Y-94763962D01*
X121763962Y-95075271D01*
X121519369Y-95441331D01*
X121350890Y-95848075D01*
X121265000Y-96279872D01*
X120685000Y-96279872D01*
X120685000Y-90033203D01*
X121914250Y-90031000D01*
X122073000Y-89872250D01*
X122073000Y-88773000D01*
X122327000Y-88773000D01*
X122327000Y-89872250D01*
X122485750Y-90031000D01*
X124200000Y-90034072D01*
X124324482Y-90021812D01*
X124444180Y-89985502D01*
X124554494Y-89926537D01*
X124651185Y-89847185D01*
X124730537Y-89750494D01*
X124789502Y-89640180D01*
X124825812Y-89520482D01*
X124838072Y-89396000D01*
X124835000Y-88931750D01*
X124676250Y-88773000D01*
X122327000Y-88773000D01*
X122073000Y-88773000D01*
X122053000Y-88773000D01*
X122053000Y-88519000D01*
X122073000Y-88519000D01*
X122073000Y-87419750D01*
X122327000Y-87419750D01*
X122327000Y-88519000D01*
X124676250Y-88519000D01*
X124835000Y-88360250D01*
X124838072Y-87896000D01*
X124825812Y-87771518D01*
X124789502Y-87651820D01*
X124730537Y-87541506D01*
X124651185Y-87444815D01*
X124554494Y-87365463D01*
X124444180Y-87306498D01*
X124324482Y-87270188D01*
X124200000Y-87257928D01*
X122485750Y-87261000D01*
X122327000Y-87419750D01*
X122073000Y-87419750D01*
X121914250Y-87261000D01*
X120685000Y-87258797D01*
X120685000Y-84953203D01*
X121914250Y-84951000D01*
X122073000Y-84792250D01*
X122073000Y-83693000D01*
X122327000Y-83693000D01*
X122327000Y-84792250D01*
X122485750Y-84951000D01*
X124200000Y-84954072D01*
X124324482Y-84941812D01*
X124444180Y-84905502D01*
X124554494Y-84846537D01*
X124651185Y-84767185D01*
X124730537Y-84670494D01*
X124789502Y-84560180D01*
X124825812Y-84440482D01*
X124838072Y-84316000D01*
X124835000Y-83851750D01*
X124676250Y-83693000D01*
X122327000Y-83693000D01*
X122073000Y-83693000D01*
X122053000Y-83693000D01*
X122053000Y-83439000D01*
X122073000Y-83439000D01*
X122073000Y-82339750D01*
X122327000Y-82339750D01*
X122327000Y-83439000D01*
X124676250Y-83439000D01*
X124835000Y-83280250D01*
X124838072Y-82816000D01*
X124825812Y-82691518D01*
X124789502Y-82571820D01*
X124730537Y-82461506D01*
X124651185Y-82364815D01*
X124554494Y-82285463D01*
X124444180Y-82226498D01*
X124324482Y-82190188D01*
X124200000Y-82177928D01*
X122485750Y-82181000D01*
X122327000Y-82339750D01*
X122073000Y-82339750D01*
X121914250Y-82181000D01*
X120685000Y-82178797D01*
X120685000Y-80937691D01*
X120714930Y-81009948D01*
X120887273Y-81267877D01*
X121106623Y-81487227D01*
X121364552Y-81659570D01*
X121651148Y-81778282D01*
X121955396Y-81838800D01*
X122265604Y-81838800D01*
X122569852Y-81778282D01*
X122856448Y-81659570D01*
X123114377Y-81487227D01*
X123333727Y-81267877D01*
X123506070Y-81009948D01*
X123624782Y-80723352D01*
X123685300Y-80419104D01*
X123685300Y-80108896D01*
X123624782Y-79804648D01*
X123506070Y-79518052D01*
X123333727Y-79260123D01*
X123114377Y-79040773D01*
X123044376Y-78994000D01*
X123114377Y-78947227D01*
X123333727Y-78727877D01*
X123506070Y-78469948D01*
X123624782Y-78183352D01*
X123685300Y-77879104D01*
X123685300Y-77568896D01*
X123624782Y-77264648D01*
X123506070Y-76978052D01*
X123333727Y-76720123D01*
X123114377Y-76500773D01*
X123044376Y-76454000D01*
X123114377Y-76407227D01*
X123333727Y-76187877D01*
X123506070Y-75929948D01*
X123624782Y-75643352D01*
X123685300Y-75339104D01*
X123685300Y-75028896D01*
X123624782Y-74724648D01*
X123506070Y-74438052D01*
X123333727Y-74180123D01*
X123114377Y-73960773D01*
X123044376Y-73914000D01*
X123114377Y-73867227D01*
X123333727Y-73647877D01*
X123506070Y-73389948D01*
X123624782Y-73103352D01*
X123685300Y-72799104D01*
X123685300Y-72488896D01*
X123624782Y-72184648D01*
X123506070Y-71898052D01*
X123333727Y-71640123D01*
X123114377Y-71420773D01*
X123044376Y-71374000D01*
X123114377Y-71327227D01*
X123333727Y-71107877D01*
X123506070Y-70849948D01*
X123624782Y-70563352D01*
X123685300Y-70259104D01*
X123685300Y-69948896D01*
X123624782Y-69644648D01*
X123506070Y-69358052D01*
X123333727Y-69100123D01*
X123114377Y-68880773D01*
X123044376Y-68834000D01*
X123114377Y-68787227D01*
X123333727Y-68567877D01*
X123506070Y-68309948D01*
X123624782Y-68023352D01*
X123685300Y-67719104D01*
X123685300Y-67408896D01*
X123624782Y-67104648D01*
X123506070Y-66818052D01*
X123333727Y-66560123D01*
X123114377Y-66340773D01*
X122856448Y-66168430D01*
X122569852Y-66049718D01*
X122265604Y-65989200D01*
X121955396Y-65989200D01*
X121651148Y-66049718D01*
X121364552Y-66168430D01*
X121106623Y-66340773D01*
X120887273Y-66560123D01*
X120714930Y-66818052D01*
X120685000Y-66890309D01*
X120685000Y-58597431D01*
X120758600Y-58597431D01*
X120758600Y-58802569D01*
X120798620Y-59003765D01*
X120877123Y-59193288D01*
X120991092Y-59363854D01*
X121136146Y-59508908D01*
X121306712Y-59622877D01*
X121496235Y-59701380D01*
X121697431Y-59741400D01*
X121902569Y-59741400D01*
X122103765Y-59701380D01*
X122293288Y-59622877D01*
X122343988Y-59589000D01*
X122927258Y-59589000D01*
X122951398Y-59668580D01*
X123010363Y-59778894D01*
X123089715Y-59875585D01*
X123186406Y-59954937D01*
X123296720Y-60013902D01*
X123416418Y-60050212D01*
X123540900Y-60062472D01*
X124201300Y-60062472D01*
X124325782Y-60050212D01*
X124391800Y-60030186D01*
X124457818Y-60050212D01*
X124582300Y-60062472D01*
X125242700Y-60062472D01*
X125367182Y-60050212D01*
X125486880Y-60013902D01*
X125597194Y-59954937D01*
X125693885Y-59875585D01*
X125773237Y-59778894D01*
X125832202Y-59668580D01*
X125868512Y-59548882D01*
X125870766Y-59526000D01*
X126984291Y-59526000D01*
X127313400Y-59855110D01*
X127313400Y-61082534D01*
X127289813Y-61063176D01*
X127161849Y-60994778D01*
X127022999Y-60952658D01*
X126914786Y-60942000D01*
X126914783Y-60942000D01*
X126878600Y-60938436D01*
X126842417Y-60942000D01*
X125870766Y-60942000D01*
X125868512Y-60919118D01*
X125832202Y-60799420D01*
X125773237Y-60689106D01*
X125693885Y-60592415D01*
X125597194Y-60513063D01*
X125486880Y-60454098D01*
X125367182Y-60417788D01*
X125242700Y-60405528D01*
X124582300Y-60405528D01*
X124457818Y-60417788D01*
X124391800Y-60437814D01*
X124325782Y-60417788D01*
X124201300Y-60405528D01*
X123540900Y-60405528D01*
X123416418Y-60417788D01*
X123296720Y-60454098D01*
X123186406Y-60513063D01*
X123089715Y-60592415D01*
X123010363Y-60689106D01*
X122998660Y-60711000D01*
X122443988Y-60711000D01*
X122393288Y-60677123D01*
X122203765Y-60598620D01*
X122002569Y-60558600D01*
X121797431Y-60558600D01*
X121596235Y-60598620D01*
X121406712Y-60677123D01*
X121236146Y-60791092D01*
X121091092Y-60936146D01*
X120977123Y-61106712D01*
X120898620Y-61296235D01*
X120858600Y-61497431D01*
X120858600Y-61702569D01*
X120898620Y-61903765D01*
X120977123Y-62093288D01*
X121091092Y-62263854D01*
X121236146Y-62408908D01*
X121406712Y-62522877D01*
X121596235Y-62601380D01*
X121797431Y-62641400D01*
X122002569Y-62641400D01*
X122203765Y-62601380D01*
X122393288Y-62522877D01*
X122443988Y-62489000D01*
X122930534Y-62489000D01*
X122951398Y-62557780D01*
X123010363Y-62668094D01*
X123089715Y-62764785D01*
X123186406Y-62844137D01*
X123296720Y-62903102D01*
X123416418Y-62939412D01*
X123540900Y-62951672D01*
X124201300Y-62951672D01*
X124325782Y-62939412D01*
X124391800Y-62919386D01*
X124457818Y-62939412D01*
X124582300Y-62951672D01*
X125242700Y-62951672D01*
X125367182Y-62939412D01*
X125486880Y-62903102D01*
X125597194Y-62844137D01*
X125693885Y-62764785D01*
X125773237Y-62668094D01*
X125832202Y-62557780D01*
X125868512Y-62438082D01*
X125870766Y-62415200D01*
X126513401Y-62415200D01*
X126513400Y-64144890D01*
X125856172Y-64802118D01*
X125856172Y-63733600D01*
X125843912Y-63609118D01*
X125807602Y-63489420D01*
X125748637Y-63379106D01*
X125669285Y-63282415D01*
X125572594Y-63203063D01*
X125462280Y-63144098D01*
X125342582Y-63107788D01*
X125218100Y-63095528D01*
X124557700Y-63095528D01*
X124433218Y-63107788D01*
X124367200Y-63127814D01*
X124301182Y-63107788D01*
X124176700Y-63095528D01*
X123516300Y-63095528D01*
X123391818Y-63107788D01*
X123272120Y-63144098D01*
X123161806Y-63203063D01*
X123065115Y-63282415D01*
X122985763Y-63379106D01*
X122926798Y-63489420D01*
X122920252Y-63511000D01*
X122343988Y-63511000D01*
X122293288Y-63477123D01*
X122103765Y-63398620D01*
X121902569Y-63358600D01*
X121697431Y-63358600D01*
X121496235Y-63398620D01*
X121306712Y-63477123D01*
X121136146Y-63591092D01*
X120991092Y-63736146D01*
X120877123Y-63906712D01*
X120798620Y-64096235D01*
X120758600Y-64297431D01*
X120758600Y-64502569D01*
X120798620Y-64703765D01*
X120877123Y-64893288D01*
X120991092Y-65063854D01*
X121136146Y-65208908D01*
X121306712Y-65322877D01*
X121496235Y-65401380D01*
X121697431Y-65441400D01*
X121902569Y-65441400D01*
X122103765Y-65401380D01*
X122293288Y-65322877D01*
X122343988Y-65289000D01*
X122948831Y-65289000D01*
X122985763Y-65358094D01*
X123065115Y-65454785D01*
X123161806Y-65534137D01*
X123272120Y-65593102D01*
X123391818Y-65629412D01*
X123516300Y-65641672D01*
X123963401Y-65641672D01*
X123963400Y-70063817D01*
X123959836Y-70100000D01*
X123963400Y-70136183D01*
X123963400Y-70136185D01*
X123974058Y-70244398D01*
X124016178Y-70383248D01*
X124078583Y-70499999D01*
X124084576Y-70511212D01*
X124149584Y-70590424D01*
X124176625Y-70623374D01*
X124204732Y-70646441D01*
X124958600Y-71400310D01*
X124958600Y-71502569D01*
X124998620Y-71703765D01*
X125077123Y-71893288D01*
X125191092Y-72063854D01*
X125336146Y-72208908D01*
X125506712Y-72322877D01*
X125696235Y-72401380D01*
X125897431Y-72441400D01*
X126102569Y-72441400D01*
X126303765Y-72401380D01*
X126493288Y-72322877D01*
X126663854Y-72208908D01*
X126808908Y-72063854D01*
X126922877Y-71893288D01*
X127001380Y-71703765D01*
X127041400Y-71502569D01*
X127041400Y-71297431D01*
X127001380Y-71096235D01*
X126922877Y-70906712D01*
X126808908Y-70736146D01*
X126663854Y-70591092D01*
X126493288Y-70477123D01*
X126303765Y-70398620D01*
X126102569Y-70358600D01*
X126000310Y-70358600D01*
X125436600Y-69794891D01*
X125436600Y-69785257D01*
X125596235Y-69851380D01*
X125797431Y-69891400D01*
X126002569Y-69891400D01*
X126203765Y-69851380D01*
X126393288Y-69772877D01*
X126563854Y-69658908D01*
X126708908Y-69513854D01*
X126822877Y-69343288D01*
X126901380Y-69153765D01*
X126941400Y-68952569D01*
X126941400Y-68747431D01*
X126901380Y-68546235D01*
X126822877Y-68356712D01*
X126708908Y-68186146D01*
X126563854Y-68041092D01*
X126393288Y-67927123D01*
X126203765Y-67848620D01*
X126086600Y-67825315D01*
X126086600Y-67402454D01*
X126216368Y-67428266D01*
X126421506Y-67428266D01*
X126622702Y-67388246D01*
X126812225Y-67309743D01*
X126982791Y-67195774D01*
X127127845Y-67050720D01*
X127241814Y-66880154D01*
X127320317Y-66690631D01*
X127360337Y-66489435D01*
X127360337Y-66387175D01*
X128545269Y-65202244D01*
X128573375Y-65179178D01*
X128615309Y-65128082D01*
X128665424Y-65067016D01*
X128686842Y-65026945D01*
X128733822Y-64939052D01*
X128775942Y-64800202D01*
X128786600Y-64691989D01*
X128790164Y-64655803D01*
X128786600Y-64619617D01*
X128786600Y-59697431D01*
X147983600Y-59697431D01*
X147983600Y-59902569D01*
X148023620Y-60103765D01*
X148102123Y-60293288D01*
X148216092Y-60463854D01*
X148361146Y-60608908D01*
X148531712Y-60722877D01*
X148721235Y-60801380D01*
X148922431Y-60841400D01*
X149127569Y-60841400D01*
X149328765Y-60801380D01*
X149518288Y-60722877D01*
X149688854Y-60608908D01*
X149833908Y-60463854D01*
X149947877Y-60293288D01*
X150026380Y-60103765D01*
X150066400Y-59902569D01*
X150066400Y-59697431D01*
X150026380Y-59496235D01*
X149947877Y-59306712D01*
X149833908Y-59136146D01*
X149688854Y-58991092D01*
X149518288Y-58877123D01*
X149328765Y-58798620D01*
X149127569Y-58758600D01*
X148922431Y-58758600D01*
X148721235Y-58798620D01*
X148531712Y-58877123D01*
X148361146Y-58991092D01*
X148216092Y-59136146D01*
X148102123Y-59306712D01*
X148023620Y-59496235D01*
X147983600Y-59697431D01*
X128786600Y-59697431D01*
X128786600Y-59586186D01*
X128790164Y-59550000D01*
X128775942Y-59405601D01*
X128762317Y-59360686D01*
X128733822Y-59266751D01*
X128665424Y-59138787D01*
X128639079Y-59106686D01*
X128596442Y-59054732D01*
X128596437Y-59054727D01*
X128573374Y-59026625D01*
X128545273Y-59003563D01*
X127835845Y-58294136D01*
X127812775Y-58266025D01*
X127700613Y-58173976D01*
X127572649Y-58105578D01*
X127433799Y-58063458D01*
X127325586Y-58052800D01*
X127325583Y-58052800D01*
X127289400Y-58049236D01*
X127253217Y-58052800D01*
X125870766Y-58052800D01*
X125868512Y-58029918D01*
X125832202Y-57910220D01*
X125773237Y-57799906D01*
X125693885Y-57703215D01*
X125597194Y-57623863D01*
X125486880Y-57564898D01*
X125367182Y-57528588D01*
X125242700Y-57516328D01*
X124582300Y-57516328D01*
X124457818Y-57528588D01*
X124391800Y-57548614D01*
X124325782Y-57528588D01*
X124201300Y-57516328D01*
X123540900Y-57516328D01*
X123416418Y-57528588D01*
X123296720Y-57564898D01*
X123186406Y-57623863D01*
X123089715Y-57703215D01*
X123010363Y-57799906D01*
X123004433Y-57811000D01*
X122343988Y-57811000D01*
X122293288Y-57777123D01*
X122103765Y-57698620D01*
X121902569Y-57658600D01*
X121697431Y-57658600D01*
X121496235Y-57698620D01*
X121306712Y-57777123D01*
X121136146Y-57891092D01*
X120991092Y-58036146D01*
X120877123Y-58206712D01*
X120798620Y-58396235D01*
X120758600Y-58597431D01*
X120685000Y-58597431D01*
X120685000Y-57130900D01*
X139807600Y-57130900D01*
X139807600Y-57630900D01*
X139854185Y-57849887D01*
X139942597Y-58055578D01*
X140069439Y-58240069D01*
X140229836Y-58396269D01*
X140417624Y-58518176D01*
X140640726Y-58598019D01*
X140815600Y-58471854D01*
X140815600Y-57130900D01*
X139807600Y-57130900D01*
X120685000Y-57130900D01*
X120685000Y-56376900D01*
X139807600Y-56376900D01*
X139807600Y-56876900D01*
X140815600Y-56876900D01*
X140815600Y-55535946D01*
X141069600Y-55535946D01*
X141069600Y-56876900D01*
X141089600Y-56876900D01*
X141089600Y-57130900D01*
X141069600Y-57130900D01*
X141069600Y-58471854D01*
X141244474Y-58598019D01*
X141467576Y-58518176D01*
X141655364Y-58396269D01*
X141815761Y-58240069D01*
X141942603Y-58055578D01*
X142031015Y-57849887D01*
X142077600Y-57630900D01*
X142077600Y-57212514D01*
X142091668Y-57213900D01*
X142433532Y-57213900D01*
X142570892Y-57200371D01*
X142747140Y-57146907D01*
X142909572Y-57060086D01*
X143051944Y-56943244D01*
X143168786Y-56800872D01*
X143255607Y-56638440D01*
X143309071Y-56462192D01*
X143327124Y-56278900D01*
X143318054Y-56186811D01*
X147327600Y-56186811D01*
X147327600Y-56370989D01*
X147363532Y-56551629D01*
X147434014Y-56721789D01*
X147536338Y-56874928D01*
X147666572Y-57005162D01*
X147819711Y-57107486D01*
X147989871Y-57177968D01*
X148170511Y-57213900D01*
X148354689Y-57213900D01*
X148447600Y-57195419D01*
X148447600Y-57630900D01*
X148494185Y-57849887D01*
X148582597Y-58055578D01*
X148709439Y-58240069D01*
X148869836Y-58396269D01*
X149057624Y-58518176D01*
X149280726Y-58598019D01*
X149455600Y-58471854D01*
X149455600Y-57130900D01*
X149709600Y-57130900D01*
X149709600Y-58471854D01*
X149884474Y-58598019D01*
X150107576Y-58518176D01*
X150295364Y-58396269D01*
X150455761Y-58240069D01*
X150582603Y-58055578D01*
X150671015Y-57849887D01*
X150717600Y-57630900D01*
X150717600Y-57130900D01*
X155581000Y-57130900D01*
X155581000Y-57630900D01*
X155627585Y-57849887D01*
X155715997Y-58055578D01*
X155842839Y-58240069D01*
X156003236Y-58396269D01*
X156191024Y-58518176D01*
X156414126Y-58598019D01*
X156589000Y-58471854D01*
X156589000Y-57130900D01*
X155581000Y-57130900D01*
X150717600Y-57130900D01*
X149709600Y-57130900D01*
X149455600Y-57130900D01*
X149435600Y-57130900D01*
X149435600Y-56876900D01*
X149455600Y-56876900D01*
X149455600Y-55535946D01*
X149709600Y-55535946D01*
X149709600Y-56876900D01*
X150717600Y-56876900D01*
X150717600Y-56376900D01*
X155581000Y-56376900D01*
X155581000Y-56876900D01*
X156589000Y-56876900D01*
X156589000Y-55535946D01*
X156843000Y-55535946D01*
X156843000Y-56876900D01*
X156863000Y-56876900D01*
X156863000Y-57130900D01*
X156843000Y-57130900D01*
X156843000Y-58471854D01*
X157017874Y-58598019D01*
X157240976Y-58518176D01*
X157428764Y-58396269D01*
X157589161Y-58240069D01*
X157716003Y-58055578D01*
X157804415Y-57849887D01*
X157851000Y-57630900D01*
X157851000Y-57212514D01*
X157865068Y-57213900D01*
X158206932Y-57213900D01*
X158344292Y-57200371D01*
X158520540Y-57146907D01*
X158682972Y-57060086D01*
X158825344Y-56943244D01*
X158942186Y-56800872D01*
X159029007Y-56638440D01*
X159082471Y-56462192D01*
X159100524Y-56278900D01*
X159091454Y-56186811D01*
X163101000Y-56186811D01*
X163101000Y-56370989D01*
X163136932Y-56551629D01*
X163207414Y-56721789D01*
X163309738Y-56874928D01*
X163439972Y-57005162D01*
X163593111Y-57107486D01*
X163763271Y-57177968D01*
X163943911Y-57213900D01*
X164128089Y-57213900D01*
X164221000Y-57195419D01*
X164221000Y-57630900D01*
X164267585Y-57849887D01*
X164355997Y-58055578D01*
X164482839Y-58240069D01*
X164643236Y-58396269D01*
X164831024Y-58518176D01*
X165054126Y-58598019D01*
X165229000Y-58471854D01*
X165229000Y-57130900D01*
X165483000Y-57130900D01*
X165483000Y-58471854D01*
X165657874Y-58598019D01*
X165880976Y-58518176D01*
X166068764Y-58396269D01*
X166229161Y-58240069D01*
X166356003Y-58055578D01*
X166444415Y-57849887D01*
X166491000Y-57630900D01*
X166491000Y-57130900D01*
X165483000Y-57130900D01*
X165229000Y-57130900D01*
X165209000Y-57130900D01*
X165209000Y-56876900D01*
X165229000Y-56876900D01*
X165229000Y-55535946D01*
X165483000Y-55535946D01*
X165483000Y-56876900D01*
X166491000Y-56876900D01*
X166491000Y-56376900D01*
X166444415Y-56157913D01*
X166356003Y-55952222D01*
X166229161Y-55767731D01*
X166068764Y-55611531D01*
X165880976Y-55489624D01*
X165657874Y-55409781D01*
X165483000Y-55535946D01*
X165229000Y-55535946D01*
X165054126Y-55409781D01*
X164831024Y-55489624D01*
X164672150Y-55592760D01*
X164632028Y-55552638D01*
X164478889Y-55450314D01*
X164308729Y-55379832D01*
X164128089Y-55343900D01*
X163943911Y-55343900D01*
X163763271Y-55379832D01*
X163593111Y-55450314D01*
X163439972Y-55552638D01*
X163309738Y-55682872D01*
X163207414Y-55836011D01*
X163136932Y-56006171D01*
X163101000Y-56186811D01*
X159091454Y-56186811D01*
X159082471Y-56095608D01*
X159029007Y-55919360D01*
X158942186Y-55756928D01*
X158825344Y-55614556D01*
X158682972Y-55497714D01*
X158520540Y-55410893D01*
X158344292Y-55357429D01*
X158206932Y-55343900D01*
X157865068Y-55343900D01*
X157727708Y-55357429D01*
X157551460Y-55410893D01*
X157389028Y-55497714D01*
X157329144Y-55546860D01*
X157240976Y-55489624D01*
X157017874Y-55409781D01*
X156843000Y-55535946D01*
X156589000Y-55535946D01*
X156414126Y-55409781D01*
X156191024Y-55489624D01*
X156003236Y-55611531D01*
X155842839Y-55767731D01*
X155715997Y-55952222D01*
X155627585Y-56157913D01*
X155581000Y-56376900D01*
X150717600Y-56376900D01*
X150671015Y-56157913D01*
X150582603Y-55952222D01*
X150455761Y-55767731D01*
X150295364Y-55611531D01*
X150107576Y-55489624D01*
X149884474Y-55409781D01*
X149709600Y-55535946D01*
X149455600Y-55535946D01*
X149280726Y-55409781D01*
X149057624Y-55489624D01*
X148898750Y-55592760D01*
X148858628Y-55552638D01*
X148705489Y-55450314D01*
X148535329Y-55379832D01*
X148354689Y-55343900D01*
X148170511Y-55343900D01*
X147989871Y-55379832D01*
X147819711Y-55450314D01*
X147666572Y-55552638D01*
X147536338Y-55682872D01*
X147434014Y-55836011D01*
X147363532Y-56006171D01*
X147327600Y-56186811D01*
X143318054Y-56186811D01*
X143309071Y-56095608D01*
X143255607Y-55919360D01*
X143168786Y-55756928D01*
X143051944Y-55614556D01*
X142909572Y-55497714D01*
X142747140Y-55410893D01*
X142570892Y-55357429D01*
X142433532Y-55343900D01*
X142091668Y-55343900D01*
X141954308Y-55357429D01*
X141778060Y-55410893D01*
X141615628Y-55497714D01*
X141555744Y-55546860D01*
X141467576Y-55489624D01*
X141244474Y-55409781D01*
X141069600Y-55535946D01*
X140815600Y-55535946D01*
X140640726Y-55409781D01*
X140417624Y-55489624D01*
X140229836Y-55611531D01*
X140069439Y-55767731D01*
X139942597Y-55952222D01*
X139854185Y-56157913D01*
X139807600Y-56376900D01*
X120685000Y-56376900D01*
X120685000Y-53279872D01*
X121265000Y-53279872D01*
X121265000Y-53720128D01*
X121350890Y-54151925D01*
X121519369Y-54558669D01*
X121763962Y-54924729D01*
X122075271Y-55236038D01*
X122441331Y-55480631D01*
X122848075Y-55649110D01*
X123279872Y-55735000D01*
X123720128Y-55735000D01*
X124151925Y-55649110D01*
X124558669Y-55480631D01*
X124924729Y-55236038D01*
X125236038Y-54924729D01*
X125480631Y-54558669D01*
X125649110Y-54151925D01*
X125735000Y-53720128D01*
X125735000Y-53305900D01*
X139807600Y-53305900D01*
X139807600Y-53955900D01*
X139854185Y-54174887D01*
X139942597Y-54380578D01*
X140069439Y-54565069D01*
X140229836Y-54721269D01*
X140417624Y-54843176D01*
X140640726Y-54923019D01*
X140815600Y-54796854D01*
X140815600Y-53305900D01*
X141069600Y-53305900D01*
X141069600Y-54796854D01*
X141244474Y-54923019D01*
X141467576Y-54843176D01*
X141655364Y-54721269D01*
X141815761Y-54565069D01*
X141942603Y-54380578D01*
X142031015Y-54174887D01*
X142077600Y-53955900D01*
X142077600Y-53305900D01*
X148447600Y-53305900D01*
X148447600Y-53955900D01*
X148494185Y-54174887D01*
X148582597Y-54380578D01*
X148709439Y-54565069D01*
X148869836Y-54721269D01*
X149057624Y-54843176D01*
X149280726Y-54923019D01*
X149455600Y-54796854D01*
X149455600Y-53305900D01*
X149709600Y-53305900D01*
X149709600Y-54796854D01*
X149884474Y-54923019D01*
X150107576Y-54843176D01*
X150295364Y-54721269D01*
X150455761Y-54565069D01*
X150582603Y-54380578D01*
X150671015Y-54174887D01*
X150717600Y-53955900D01*
X150717600Y-53305900D01*
X155581000Y-53305900D01*
X155581000Y-53955900D01*
X155627585Y-54174887D01*
X155715997Y-54380578D01*
X155842839Y-54565069D01*
X156003236Y-54721269D01*
X156191024Y-54843176D01*
X156414126Y-54923019D01*
X156589000Y-54796854D01*
X156589000Y-53305900D01*
X156843000Y-53305900D01*
X156843000Y-54796854D01*
X157017874Y-54923019D01*
X157240976Y-54843176D01*
X157428764Y-54721269D01*
X157589161Y-54565069D01*
X157716003Y-54380578D01*
X157804415Y-54174887D01*
X157851000Y-53955900D01*
X157851000Y-53305900D01*
X164221000Y-53305900D01*
X164221000Y-53955900D01*
X164267585Y-54174887D01*
X164355997Y-54380578D01*
X164482839Y-54565069D01*
X164643236Y-54721269D01*
X164831024Y-54843176D01*
X165054126Y-54923019D01*
X165229000Y-54796854D01*
X165229000Y-53305900D01*
X165483000Y-53305900D01*
X165483000Y-54796854D01*
X165657874Y-54923019D01*
X165880976Y-54843176D01*
X166068764Y-54721269D01*
X166229161Y-54565069D01*
X166356003Y-54380578D01*
X166444415Y-54174887D01*
X166491000Y-53955900D01*
X166491000Y-53305900D01*
X165483000Y-53305900D01*
X165229000Y-53305900D01*
X164221000Y-53305900D01*
X157851000Y-53305900D01*
X156843000Y-53305900D01*
X156589000Y-53305900D01*
X155581000Y-53305900D01*
X150717600Y-53305900D01*
X149709600Y-53305900D01*
X149455600Y-53305900D01*
X148447600Y-53305900D01*
X142077600Y-53305900D01*
X141069600Y-53305900D01*
X140815600Y-53305900D01*
X139807600Y-53305900D01*
X125735000Y-53305900D01*
X125735000Y-53279872D01*
X204265000Y-53279872D01*
X204265000Y-53720128D01*
X204350890Y-54151925D01*
X204519369Y-54558669D01*
X204763962Y-54924729D01*
X205075271Y-55236038D01*
X205441331Y-55480631D01*
X205848075Y-55649110D01*
X206279872Y-55735000D01*
X206720128Y-55735000D01*
X207151925Y-55649110D01*
X207558669Y-55480631D01*
X207924729Y-55236038D01*
X208236038Y-54924729D01*
X208480631Y-54558669D01*
X208649110Y-54151925D01*
X208735000Y-53720128D01*
X208735000Y-53279872D01*
X208649110Y-52848075D01*
X208480631Y-52441331D01*
X208236038Y-52075271D01*
X207924729Y-51763962D01*
X207558669Y-51519369D01*
X207151925Y-51350890D01*
X206720128Y-51265000D01*
X206279872Y-51265000D01*
X205848075Y-51350890D01*
X205441331Y-51519369D01*
X205075271Y-51763962D01*
X204763962Y-52075271D01*
X204519369Y-52441331D01*
X204350890Y-52848075D01*
X204265000Y-53279872D01*
X125735000Y-53279872D01*
X125649110Y-52848075D01*
X125480631Y-52441331D01*
X125454285Y-52401900D01*
X139807600Y-52401900D01*
X139807600Y-53051900D01*
X140815600Y-53051900D01*
X140815600Y-51560946D01*
X141069600Y-51560946D01*
X141069600Y-53051900D01*
X142077600Y-53051900D01*
X142077600Y-52401900D01*
X148447600Y-52401900D01*
X148447600Y-53051900D01*
X149455600Y-53051900D01*
X149455600Y-51560946D01*
X149709600Y-51560946D01*
X149709600Y-53051900D01*
X150717600Y-53051900D01*
X150717600Y-52401900D01*
X155581000Y-52401900D01*
X155581000Y-53051900D01*
X156589000Y-53051900D01*
X156589000Y-51560946D01*
X156843000Y-51560946D01*
X156843000Y-53051900D01*
X157851000Y-53051900D01*
X157851000Y-52401900D01*
X164221000Y-52401900D01*
X164221000Y-53051900D01*
X165229000Y-53051900D01*
X165229000Y-51560946D01*
X165483000Y-51560946D01*
X165483000Y-53051900D01*
X166491000Y-53051900D01*
X166491000Y-52401900D01*
X166444415Y-52182913D01*
X166356003Y-51977222D01*
X166229161Y-51792731D01*
X166068764Y-51636531D01*
X165880976Y-51514624D01*
X165657874Y-51434781D01*
X165483000Y-51560946D01*
X165229000Y-51560946D01*
X165054126Y-51434781D01*
X164831024Y-51514624D01*
X164643236Y-51636531D01*
X164482839Y-51792731D01*
X164355997Y-51977222D01*
X164267585Y-52182913D01*
X164221000Y-52401900D01*
X157851000Y-52401900D01*
X157804415Y-52182913D01*
X157716003Y-51977222D01*
X157589161Y-51792731D01*
X157428764Y-51636531D01*
X157240976Y-51514624D01*
X157017874Y-51434781D01*
X156843000Y-51560946D01*
X156589000Y-51560946D01*
X156414126Y-51434781D01*
X156191024Y-51514624D01*
X156003236Y-51636531D01*
X155842839Y-51792731D01*
X155715997Y-51977222D01*
X155627585Y-52182913D01*
X155581000Y-52401900D01*
X150717600Y-52401900D01*
X150671015Y-52182913D01*
X150582603Y-51977222D01*
X150455761Y-51792731D01*
X150295364Y-51636531D01*
X150107576Y-51514624D01*
X149884474Y-51434781D01*
X149709600Y-51560946D01*
X149455600Y-51560946D01*
X149280726Y-51434781D01*
X149057624Y-51514624D01*
X148869836Y-51636531D01*
X148709439Y-51792731D01*
X148582597Y-51977222D01*
X148494185Y-52182913D01*
X148447600Y-52401900D01*
X142077600Y-52401900D01*
X142031015Y-52182913D01*
X141942603Y-51977222D01*
X141815761Y-51792731D01*
X141655364Y-51636531D01*
X141467576Y-51514624D01*
X141244474Y-51434781D01*
X141069600Y-51560946D01*
X140815600Y-51560946D01*
X140640726Y-51434781D01*
X140417624Y-51514624D01*
X140229836Y-51636531D01*
X140069439Y-51792731D01*
X139942597Y-51977222D01*
X139854185Y-52182913D01*
X139807600Y-52401900D01*
X125454285Y-52401900D01*
X125236038Y-52075271D01*
X124924729Y-51763962D01*
X124558669Y-51519369D01*
X124151925Y-51350890D01*
X123720128Y-51265000D01*
X123279872Y-51265000D01*
X122848075Y-51350890D01*
X122441331Y-51519369D01*
X122075271Y-51763962D01*
X121763962Y-52075271D01*
X121519369Y-52441331D01*
X121350890Y-52848075D01*
X121265000Y-53279872D01*
X120685000Y-53279872D01*
X120685000Y-52533504D01*
X120722789Y-52148103D01*
X120824987Y-51809607D01*
X120990984Y-51497412D01*
X121214460Y-51223403D01*
X121486902Y-50998020D01*
X121797931Y-50829847D01*
X122135708Y-50725288D01*
X122519022Y-50685000D01*
X207466496Y-50685000D01*
X207851897Y-50722789D01*
%TA.AperFunction,Conductor*%
D22*
G36*
X207851897Y-50722789D02*
G01*
X208190393Y-50824987D01*
X208502588Y-50990984D01*
X208776597Y-51214460D01*
X209001980Y-51486902D01*
X209170153Y-51797931D01*
X209274712Y-52135708D01*
X209315001Y-52519031D01*
X209315001Y-74300961D01*
X209295570Y-74254052D01*
X209123227Y-73996123D01*
X208903877Y-73776773D01*
X208645948Y-73604430D01*
X208359352Y-73485718D01*
X208055104Y-73425200D01*
X207818351Y-73425200D01*
X207812590Y-73396235D01*
X207734087Y-73206712D01*
X207620118Y-73036146D01*
X207547810Y-72963838D01*
X207547810Y-65047393D01*
X207551374Y-65011209D01*
X207547810Y-64975024D01*
X207537152Y-64866811D01*
X207495032Y-64727961D01*
X207436759Y-64618939D01*
X207426634Y-64599996D01*
X207357652Y-64515942D01*
X207357647Y-64515937D01*
X207334584Y-64487835D01*
X207306483Y-64464773D01*
X206448945Y-63607236D01*
X206425875Y-63579125D01*
X206313713Y-63487076D01*
X206185749Y-63418678D01*
X206046899Y-63376558D01*
X205938686Y-63365900D01*
X205938683Y-63365900D01*
X205902500Y-63362336D01*
X205866317Y-63365900D01*
X204776466Y-63365900D01*
X204774212Y-63343018D01*
X204737902Y-63223320D01*
X204678937Y-63113006D01*
X204599585Y-63016315D01*
X204502894Y-62936963D01*
X204392580Y-62877998D01*
X204272882Y-62841688D01*
X204148400Y-62829428D01*
X203488000Y-62829428D01*
X203363518Y-62841688D01*
X203297500Y-62861714D01*
X203231482Y-62841688D01*
X203107000Y-62829428D01*
X202841400Y-62829428D01*
X202841400Y-62797431D01*
X202801380Y-62596235D01*
X202722877Y-62406712D01*
X202608908Y-62236146D01*
X202463854Y-62091092D01*
X202293288Y-61977123D01*
X202103765Y-61898620D01*
X201902569Y-61858600D01*
X201697431Y-61858600D01*
X201496235Y-61898620D01*
X201306712Y-61977123D01*
X201136146Y-62091092D01*
X200991092Y-62236146D01*
X200877123Y-62406712D01*
X200798620Y-62596235D01*
X200758600Y-62797431D01*
X200758600Y-63002569D01*
X200798620Y-63203765D01*
X200877123Y-63393288D01*
X200991092Y-63563854D01*
X201136146Y-63708908D01*
X201306712Y-63822877D01*
X201496235Y-63901380D01*
X201543340Y-63910750D01*
X201808528Y-64175938D01*
X201808528Y-64737500D01*
X201820788Y-64861982D01*
X201857098Y-64981680D01*
X201916063Y-65091994D01*
X201995415Y-65188685D01*
X202092106Y-65268037D01*
X202117054Y-65281372D01*
X202002569Y-65258600D01*
X201797431Y-65258600D01*
X201596235Y-65298620D01*
X201406712Y-65377123D01*
X201236146Y-65491092D01*
X201091092Y-65636146D01*
X200977123Y-65806712D01*
X200898620Y-65996235D01*
X200858600Y-66197431D01*
X200858600Y-66402569D01*
X200898620Y-66603765D01*
X200977123Y-66793288D01*
X201091092Y-66963854D01*
X201236146Y-67108908D01*
X201406712Y-67222877D01*
X201440438Y-67236847D01*
X201808528Y-67604937D01*
X201808528Y-68166500D01*
X201820788Y-68290982D01*
X201857098Y-68410680D01*
X201916063Y-68520994D01*
X201946925Y-68558600D01*
X201897431Y-68558600D01*
X201696235Y-68598620D01*
X201506712Y-68677123D01*
X201336146Y-68791092D01*
X201191092Y-68936146D01*
X201077123Y-69106712D01*
X200998620Y-69296235D01*
X200958600Y-69497431D01*
X200958600Y-69702569D01*
X200998620Y-69903765D01*
X201077123Y-70093288D01*
X201191092Y-70263854D01*
X201336146Y-70408908D01*
X201362422Y-70426465D01*
X201384576Y-70467913D01*
X201476626Y-70580075D01*
X201504732Y-70603141D01*
X201808528Y-70906937D01*
X201808528Y-71468500D01*
X201820788Y-71592982D01*
X201857098Y-71712680D01*
X201916063Y-71822994D01*
X201995415Y-71919685D01*
X202092106Y-71999037D01*
X202202420Y-72058002D01*
X202322118Y-72094312D01*
X202446600Y-72106572D01*
X203081600Y-72106572D01*
X203081601Y-77550005D01*
X203078036Y-77586198D01*
X203084192Y-77648698D01*
X202893333Y-77648698D01*
X202692137Y-77688718D01*
X202502614Y-77767221D01*
X202332048Y-77881190D01*
X202186994Y-78026244D01*
X202073025Y-78196810D01*
X201994522Y-78386333D01*
X201954502Y-78587529D01*
X201954502Y-78792667D01*
X201994522Y-78993863D01*
X202065725Y-79165763D01*
X202059863Y-79172906D01*
X202009269Y-79267559D01*
X200936600Y-78194891D01*
X200936600Y-68836175D01*
X200940163Y-68799999D01*
X200936600Y-68763823D01*
X200936600Y-68763814D01*
X200925942Y-68655601D01*
X200883822Y-68516751D01*
X200815424Y-68388787D01*
X200772595Y-68336600D01*
X200746442Y-68304732D01*
X200746441Y-68304731D01*
X200723375Y-68276625D01*
X200695269Y-68253559D01*
X199846445Y-67404736D01*
X199823375Y-67376625D01*
X199711213Y-67284576D01*
X199583249Y-67216178D01*
X199444399Y-67174058D01*
X199336186Y-67163400D01*
X199336183Y-67163400D01*
X199300000Y-67159836D01*
X199263817Y-67163400D01*
X186609409Y-67163400D01*
X186641400Y-67002567D01*
X186641400Y-66797429D01*
X186601380Y-66596233D01*
X186522877Y-66406710D01*
X186408908Y-66236144D01*
X186263854Y-66091090D01*
X186123684Y-65997431D01*
X194758600Y-65997431D01*
X194758600Y-66202569D01*
X194798620Y-66403765D01*
X194877123Y-66593288D01*
X194991092Y-66763854D01*
X195136146Y-66908908D01*
X195306712Y-67022877D01*
X195496235Y-67101380D01*
X195697431Y-67141400D01*
X195902569Y-67141400D01*
X196103765Y-67101380D01*
X196293288Y-67022877D01*
X196463854Y-66908908D01*
X196608908Y-66763854D01*
X196722877Y-66593288D01*
X196801380Y-66403765D01*
X196813276Y-66343959D01*
X200143960Y-63013276D01*
X200203765Y-63001380D01*
X200393288Y-62922877D01*
X200563854Y-62808908D01*
X200708908Y-62663854D01*
X200822877Y-62493288D01*
X200901380Y-62303765D01*
X200941400Y-62102569D01*
X200941400Y-61897431D01*
X200901380Y-61696235D01*
X200822877Y-61506712D01*
X200708908Y-61336146D01*
X200563854Y-61191092D01*
X200393288Y-61077123D01*
X200203765Y-60998620D01*
X200002569Y-60958600D01*
X199797431Y-60958600D01*
X199596235Y-60998620D01*
X199406712Y-61077123D01*
X199236146Y-61191092D01*
X199091092Y-61336146D01*
X198977123Y-61506712D01*
X198898620Y-61696235D01*
X198886724Y-61756040D01*
X195556041Y-65086724D01*
X195496235Y-65098620D01*
X195306712Y-65177123D01*
X195136146Y-65291092D01*
X194991092Y-65436146D01*
X194877123Y-65606712D01*
X194798620Y-65796235D01*
X194758600Y-65997431D01*
X186123684Y-65997431D01*
X186093288Y-65977121D01*
X185903765Y-65898618D01*
X185702569Y-65858598D01*
X185497431Y-65858598D01*
X185296235Y-65898618D01*
X185106712Y-65977121D01*
X184936146Y-66091090D01*
X184863838Y-66163398D01*
X175228311Y-66163398D01*
X181930110Y-59461600D01*
X196013817Y-59461600D01*
X196029609Y-59463156D01*
X194406765Y-61086000D01*
X193443988Y-61086000D01*
X193393288Y-61052123D01*
X193203765Y-60973620D01*
X193002569Y-60933600D01*
X192797431Y-60933600D01*
X192596235Y-60973620D01*
X192406712Y-61052123D01*
X192236146Y-61166092D01*
X192091092Y-61311146D01*
X191977123Y-61481712D01*
X191898620Y-61671235D01*
X191858600Y-61872431D01*
X191858600Y-62077569D01*
X191898620Y-62278765D01*
X191977123Y-62468288D01*
X192091092Y-62638854D01*
X192236146Y-62783908D01*
X192406712Y-62897877D01*
X192596235Y-62976380D01*
X192797431Y-63016400D01*
X193002569Y-63016400D01*
X193203765Y-62976380D01*
X193393288Y-62897877D01*
X193443988Y-62864000D01*
X194731340Y-62864000D01*
X194775000Y-62868300D01*
X194818660Y-62864000D01*
X194818667Y-62864000D01*
X194949274Y-62851136D01*
X195116851Y-62800303D01*
X195271291Y-62717753D01*
X195406659Y-62606659D01*
X195434499Y-62572736D01*
X199172742Y-58834494D01*
X199206659Y-58806659D01*
X199317753Y-58671291D01*
X199400303Y-58516851D01*
X199435716Y-58400108D01*
X199451136Y-58349275D01*
X199468301Y-58175000D01*
X199464000Y-58131332D01*
X199464000Y-57843988D01*
X199497877Y-57793288D01*
X199576380Y-57603765D01*
X199616400Y-57402569D01*
X199616400Y-57197431D01*
X199576380Y-56996235D01*
X199497877Y-56806712D01*
X199383908Y-56636146D01*
X199238854Y-56491092D01*
X199068288Y-56377123D01*
X198878765Y-56298620D01*
X198677569Y-56258600D01*
X198472431Y-56258600D01*
X198271235Y-56298620D01*
X198081712Y-56377123D01*
X197931378Y-56477574D01*
X197893288Y-56452123D01*
X197703765Y-56373620D01*
X197502569Y-56333600D01*
X197297431Y-56333600D01*
X197225214Y-56347965D01*
X197183908Y-56286146D01*
X197038854Y-56141092D01*
X196868288Y-56027123D01*
X196678765Y-55948620D01*
X196477569Y-55908600D01*
X196272431Y-55908600D01*
X196071235Y-55948620D01*
X195881712Y-56027123D01*
X195711146Y-56141092D01*
X195566092Y-56286146D01*
X195452123Y-56456712D01*
X195373620Y-56646235D01*
X195333600Y-56847431D01*
X195333600Y-56949690D01*
X195006101Y-57277190D01*
X184486162Y-57277190D01*
X184450417Y-57241445D01*
X184476380Y-57178765D01*
X184516400Y-56977569D01*
X184516400Y-56772431D01*
X184476380Y-56571235D01*
X184397877Y-56381712D01*
X184283908Y-56211146D01*
X184138854Y-56066092D01*
X183968288Y-55952123D01*
X183778765Y-55873620D01*
X183577569Y-55833600D01*
X183372431Y-55833600D01*
X183171235Y-55873620D01*
X182981712Y-55952123D01*
X182825085Y-56056778D01*
X182743288Y-56002123D01*
X182553765Y-55923620D01*
X182352569Y-55883600D01*
X182147431Y-55883600D01*
X181946235Y-55923620D01*
X181756712Y-56002123D01*
X181586146Y-56116092D01*
X181441092Y-56261146D01*
X181327123Y-56431712D01*
X181248620Y-56621235D01*
X181208600Y-56822431D01*
X181208600Y-56924690D01*
X174753026Y-63380264D01*
X174663854Y-63291092D01*
X174493288Y-63177123D01*
X174303765Y-63098620D01*
X174102569Y-63058600D01*
X173897431Y-63058600D01*
X173696235Y-63098620D01*
X173506712Y-63177123D01*
X173336146Y-63291092D01*
X173191092Y-63436146D01*
X173077123Y-63606712D01*
X172998620Y-63796235D01*
X172986724Y-63856040D01*
X172095375Y-64747390D01*
X157716400Y-64747390D01*
X157665700Y-64713513D01*
X157476177Y-64635010D01*
X157274981Y-64594990D01*
X157069843Y-64594990D01*
X156868647Y-64635010D01*
X156679124Y-64713513D01*
X156508558Y-64827482D01*
X156363504Y-64972536D01*
X156249535Y-65143102D01*
X156171032Y-65332625D01*
X156131012Y-65533821D01*
X156131012Y-65738959D01*
X156171032Y-65940155D01*
X156249535Y-66129678D01*
X156363504Y-66300244D01*
X156508558Y-66445298D01*
X156679124Y-66559267D01*
X156868647Y-66637770D01*
X157069843Y-66677790D01*
X157274981Y-66677790D01*
X157476177Y-66637770D01*
X157665700Y-66559267D01*
X157716400Y-66525390D01*
X171607901Y-66525390D01*
X168757183Y-69376108D01*
X168713509Y-69367421D01*
X168508371Y-69367421D01*
X168307175Y-69407441D01*
X168117652Y-69485944D01*
X167947086Y-69599913D01*
X167939200Y-69607799D01*
X167893288Y-69577121D01*
X167703765Y-69498618D01*
X167502569Y-69458598D01*
X167400309Y-69458598D01*
X164828836Y-66887125D01*
X164805765Y-66859013D01*
X164693603Y-66766964D01*
X164565639Y-66698566D01*
X164426789Y-66656446D01*
X164318576Y-66645788D01*
X164318573Y-66645788D01*
X164282390Y-66642224D01*
X164246207Y-66645788D01*
X161776469Y-66645788D01*
X161740283Y-66642224D01*
X161704097Y-66645788D01*
X161595884Y-66656446D01*
X161457034Y-66698566D01*
X161329070Y-66766964D01*
X161216908Y-66859013D01*
X161213308Y-66863400D01*
X138436162Y-66863400D01*
X138363854Y-66791092D01*
X138193288Y-66677123D01*
X138003765Y-66598620D01*
X137802569Y-66558600D01*
X137597431Y-66558600D01*
X137396235Y-66598620D01*
X137206712Y-66677123D01*
X137036146Y-66791092D01*
X136891092Y-66936146D01*
X136777123Y-67106712D01*
X136698620Y-67296235D01*
X136658600Y-67497431D01*
X136658600Y-67702569D01*
X136698620Y-67903765D01*
X136777123Y-68093288D01*
X136891092Y-68263854D01*
X136899885Y-68272647D01*
X136877123Y-68306712D01*
X136798620Y-68496235D01*
X136758600Y-68697431D01*
X136758600Y-68902569D01*
X136798620Y-69103765D01*
X136877123Y-69293288D01*
X136991092Y-69463854D01*
X137136146Y-69608908D01*
X137306712Y-69722877D01*
X137496235Y-69801380D01*
X137697431Y-69841400D01*
X137902569Y-69841400D01*
X138103765Y-69801380D01*
X138293288Y-69722877D01*
X138463854Y-69608908D01*
X138608908Y-69463854D01*
X138722877Y-69293288D01*
X138801380Y-69103765D01*
X138841400Y-68902569D01*
X138841400Y-68836600D01*
X140406164Y-68836600D01*
X135802259Y-73440506D01*
X135768342Y-73468341D01*
X135740507Y-73502258D01*
X135740505Y-73502260D01*
X135657248Y-73603709D01*
X135574698Y-73758148D01*
X135523864Y-73925726D01*
X135506700Y-74100000D01*
X135511001Y-74143670D01*
X135511001Y-80720996D01*
X130132848Y-75342845D01*
X130132848Y-75312426D01*
X130092828Y-75111230D01*
X130014325Y-74921707D01*
X129900356Y-74751141D01*
X129755302Y-74606087D01*
X129584736Y-74492118D01*
X129395213Y-74413615D01*
X129194017Y-74373595D01*
X128988879Y-74373595D01*
X128787683Y-74413615D01*
X128598160Y-74492118D01*
X128427594Y-74606087D01*
X128282540Y-74751141D01*
X128168571Y-74921707D01*
X128090068Y-75111230D01*
X128050048Y-75312426D01*
X128050048Y-75517564D01*
X128090068Y-75718760D01*
X128168571Y-75908283D01*
X128282540Y-76078849D01*
X128427594Y-76223903D01*
X128598160Y-76337872D01*
X128787683Y-76416375D01*
X128988879Y-76456395D01*
X129019298Y-76456395D01*
X129321503Y-76758600D01*
X129297431Y-76758600D01*
X129096235Y-76798620D01*
X128906712Y-76877123D01*
X128736146Y-76991092D01*
X128591092Y-77136146D01*
X128477123Y-77306712D01*
X128398620Y-77496235D01*
X128358600Y-77697431D01*
X128358600Y-77902569D01*
X128398620Y-78103765D01*
X128477123Y-78293288D01*
X128591092Y-78463854D01*
X128736146Y-78608908D01*
X128906712Y-78722877D01*
X129096235Y-78801380D01*
X129297431Y-78841400D01*
X129327850Y-78841400D01*
X129642561Y-79156111D01*
X129503765Y-79098620D01*
X129302569Y-79058600D01*
X129097431Y-79058600D01*
X128896235Y-79098620D01*
X128706712Y-79177123D01*
X128536146Y-79291092D01*
X128391092Y-79436146D01*
X128277123Y-79606712D01*
X128198620Y-79796235D01*
X128158600Y-79997431D01*
X128158600Y-80202569D01*
X128198620Y-80403765D01*
X128277123Y-80593288D01*
X128391092Y-80763854D01*
X128536146Y-80908908D01*
X128706712Y-81022877D01*
X128896235Y-81101380D01*
X129097431Y-81141400D01*
X129127850Y-81141400D01*
X132966413Y-84979965D01*
X132991063Y-85010001D01*
X133021099Y-85034651D01*
X133021101Y-85034653D01*
X133084587Y-85086754D01*
X133110960Y-85108398D01*
X133247749Y-85181514D01*
X133396175Y-85226538D01*
X133511859Y-85237932D01*
X133511868Y-85237932D01*
X133550531Y-85241740D01*
X133589194Y-85237932D01*
X134851028Y-85237932D01*
X134872536Y-85259440D01*
X135043102Y-85373409D01*
X135232625Y-85451912D01*
X135433821Y-85491932D01*
X135511000Y-85491932D01*
X135511000Y-86956012D01*
X135477123Y-87006712D01*
X135398620Y-87196235D01*
X135358600Y-87397431D01*
X135358600Y-87602569D01*
X135398620Y-87803765D01*
X135477123Y-87993288D01*
X135591092Y-88163854D01*
X135736146Y-88308908D01*
X135906712Y-88422877D01*
X136096235Y-88501380D01*
X136297431Y-88541400D01*
X136502569Y-88541400D01*
X136703765Y-88501380D01*
X136893288Y-88422877D01*
X137063854Y-88308908D01*
X137150000Y-88222762D01*
X137236146Y-88308908D01*
X137406712Y-88422877D01*
X137596235Y-88501380D01*
X137797431Y-88541400D01*
X138002569Y-88541400D01*
X138203765Y-88501380D01*
X138393288Y-88422877D01*
X138563854Y-88308908D01*
X138708908Y-88163854D01*
X138822877Y-87993288D01*
X138901380Y-87803765D01*
X138941400Y-87602569D01*
X138941400Y-87397431D01*
X138901380Y-87196235D01*
X138822877Y-87006712D01*
X138708908Y-86836146D01*
X138662000Y-86789238D01*
X138662000Y-77215630D01*
X143215631Y-72662000D01*
X151889238Y-72662000D01*
X151936146Y-72708908D01*
X152106712Y-72822877D01*
X152296235Y-72901380D01*
X152497431Y-72941400D01*
X152702569Y-72941400D01*
X152903765Y-72901380D01*
X153093288Y-72822877D01*
X153263854Y-72708908D01*
X153336162Y-72636600D01*
X165858600Y-72636600D01*
X165858600Y-72699691D01*
X165704732Y-72853559D01*
X165676625Y-72876626D01*
X165653559Y-72904732D01*
X165653558Y-72904733D01*
X165646105Y-72913815D01*
X165584576Y-72988788D01*
X165516178Y-73116752D01*
X165474058Y-73255602D01*
X165463400Y-73363814D01*
X165459836Y-73400000D01*
X165463400Y-73436183D01*
X165463400Y-74063817D01*
X165459836Y-74100000D01*
X165463400Y-74136183D01*
X165463400Y-74136186D01*
X165474058Y-74244399D01*
X165495604Y-74315424D01*
X165516178Y-74383247D01*
X165584576Y-74511212D01*
X165630158Y-74566753D01*
X165676626Y-74623375D01*
X165704732Y-74646441D01*
X166763400Y-75705110D01*
X166763401Y-80906063D01*
X166636146Y-80991092D01*
X166491092Y-81136146D01*
X166377123Y-81306712D01*
X166298620Y-81496235D01*
X166258600Y-81697431D01*
X166258600Y-81902569D01*
X166298620Y-82103765D01*
X166377123Y-82293288D01*
X166491092Y-82463854D01*
X166636146Y-82608908D01*
X166806712Y-82722877D01*
X166996235Y-82801380D01*
X167058598Y-82813785D01*
X167058598Y-82902569D01*
X167098618Y-83103765D01*
X167177121Y-83293288D01*
X167291090Y-83463854D01*
X167436144Y-83608908D01*
X167606710Y-83722877D01*
X167796233Y-83801380D01*
X167997429Y-83841400D01*
X168202567Y-83841400D01*
X168403763Y-83801380D01*
X168593286Y-83722877D01*
X168763852Y-83608908D01*
X168908906Y-83463854D01*
X169022875Y-83293288D01*
X169101378Y-83103765D01*
X169141398Y-82902569D01*
X169141398Y-82697431D01*
X169101378Y-82496235D01*
X169022875Y-82306712D01*
X168908906Y-82136146D01*
X168836598Y-82063838D01*
X168836598Y-74958876D01*
X168840161Y-74922700D01*
X168836598Y-74886524D01*
X168836598Y-74886515D01*
X168825940Y-74778302D01*
X168783820Y-74639452D01*
X168715422Y-74511488D01*
X168623373Y-74399326D01*
X168595261Y-74376255D01*
X168026873Y-73807867D01*
X168026873Y-73705607D01*
X167986853Y-73504411D01*
X167908350Y-73314888D01*
X167824493Y-73189387D01*
X167901380Y-73003765D01*
X167941400Y-72802569D01*
X167941400Y-72636600D01*
X169563400Y-72636600D01*
X169563401Y-85963807D01*
X169559836Y-86000000D01*
X169574059Y-86144398D01*
X169616178Y-86283247D01*
X169678144Y-86399178D01*
X169658600Y-86497431D01*
X169658600Y-86702569D01*
X169698620Y-86903765D01*
X169777123Y-87093288D01*
X169891092Y-87263854D01*
X170036146Y-87408908D01*
X170206712Y-87522877D01*
X170396235Y-87601380D01*
X170597431Y-87641400D01*
X170802569Y-87641400D01*
X171003765Y-87601380D01*
X171193288Y-87522877D01*
X171363854Y-87408908D01*
X171508908Y-87263854D01*
X171622877Y-87093288D01*
X171701380Y-86903765D01*
X171741400Y-86702569D01*
X171741400Y-86497431D01*
X171701380Y-86296235D01*
X171622877Y-86106712D01*
X171508908Y-85936146D01*
X171363854Y-85791092D01*
X171193288Y-85677123D01*
X171036600Y-85612221D01*
X171036600Y-83778310D01*
X171058600Y-83800310D01*
X171058600Y-83902569D01*
X171098620Y-84103765D01*
X171177123Y-84293288D01*
X171291092Y-84463854D01*
X171436146Y-84608908D01*
X171606712Y-84722877D01*
X171796235Y-84801380D01*
X171997431Y-84841400D01*
X172202569Y-84841400D01*
X172403765Y-84801380D01*
X172593288Y-84722877D01*
X172763854Y-84608908D01*
X172908908Y-84463854D01*
X173022877Y-84293288D01*
X173101380Y-84103765D01*
X173141400Y-83902569D01*
X173141400Y-83697431D01*
X173101380Y-83496235D01*
X173022877Y-83306712D01*
X172908908Y-83136146D01*
X172763854Y-82991092D01*
X172593288Y-82877123D01*
X172403765Y-82798620D01*
X172295648Y-82777114D01*
X172408908Y-82663854D01*
X172522877Y-82493288D01*
X172601380Y-82303765D01*
X172641400Y-82102569D01*
X172641400Y-81897431D01*
X172601380Y-81696235D01*
X172565262Y-81609039D01*
X172603765Y-81601380D01*
X172793288Y-81522877D01*
X172963854Y-81408908D01*
X173108908Y-81263854D01*
X173222877Y-81093288D01*
X173301380Y-80903765D01*
X173341400Y-80702569D01*
X173341400Y-80497431D01*
X173301380Y-80296235D01*
X173222877Y-80106712D01*
X173108908Y-79936146D01*
X172963854Y-79791092D01*
X172793288Y-79677123D01*
X172603765Y-79598620D01*
X172486600Y-79575315D01*
X172486600Y-73255109D01*
X174344278Y-71397431D01*
X181458600Y-71397431D01*
X181458600Y-71602569D01*
X181498620Y-71803765D01*
X181577123Y-71993288D01*
X181691092Y-72163854D01*
X181836146Y-72308908D01*
X182006712Y-72422877D01*
X182196235Y-72501380D01*
X182397431Y-72541400D01*
X182602569Y-72541400D01*
X182803765Y-72501380D01*
X182993288Y-72422877D01*
X183043988Y-72389000D01*
X184233925Y-72389000D01*
X184277123Y-72493288D01*
X184391092Y-72663854D01*
X184536146Y-72808908D01*
X184706712Y-72922877D01*
X184896235Y-73001380D01*
X185097431Y-73041400D01*
X185302569Y-73041400D01*
X185503765Y-73001380D01*
X185693288Y-72922877D01*
X185863854Y-72808908D01*
X186008908Y-72663854D01*
X186122877Y-72493288D01*
X186201380Y-72303765D01*
X186241400Y-72102569D01*
X186241400Y-71897431D01*
X186201380Y-71696235D01*
X186122877Y-71506712D01*
X186008908Y-71336146D01*
X185863854Y-71191092D01*
X185693288Y-71077123D01*
X185503765Y-70998620D01*
X185443959Y-70986724D01*
X185359499Y-70902264D01*
X185331659Y-70868341D01*
X185196291Y-70757247D01*
X185041851Y-70674697D01*
X184874274Y-70623864D01*
X184743667Y-70611000D01*
X184743660Y-70611000D01*
X184700000Y-70606700D01*
X184656340Y-70611000D01*
X183043988Y-70611000D01*
X182993288Y-70577123D01*
X182803765Y-70498620D01*
X182602569Y-70458600D01*
X182397431Y-70458600D01*
X182196235Y-70498620D01*
X182006712Y-70577123D01*
X181836146Y-70691092D01*
X181691092Y-70836146D01*
X181577123Y-71006712D01*
X181498620Y-71196235D01*
X181458600Y-71397431D01*
X174344278Y-71397431D01*
X175405109Y-70336600D01*
X196394891Y-70336600D01*
X196863401Y-70805111D01*
X196863400Y-83563838D01*
X196791092Y-83636146D01*
X196677123Y-83806712D01*
X196598620Y-83996235D01*
X196558600Y-84197431D01*
X196558600Y-84402569D01*
X196598620Y-84603765D01*
X196677123Y-84793288D01*
X196791092Y-84963854D01*
X196936146Y-85108908D01*
X197106712Y-85222877D01*
X197296235Y-85301380D01*
X197497431Y-85341400D01*
X197566324Y-85341400D01*
X197598620Y-85503765D01*
X197677123Y-85693288D01*
X197791092Y-85863854D01*
X197936146Y-86008908D01*
X198106712Y-86122877D01*
X198296235Y-86201380D01*
X198497431Y-86241400D01*
X198687002Y-86241400D01*
X198687002Y-86367408D01*
X198683437Y-86403601D01*
X198695235Y-86523375D01*
X198697660Y-86548000D01*
X198713434Y-86599999D01*
X198739779Y-86686848D01*
X198788600Y-86778187D01*
X198788600Y-86912569D01*
X198828620Y-87113765D01*
X198907123Y-87303288D01*
X199021092Y-87473854D01*
X199166146Y-87618908D01*
X199336712Y-87732877D01*
X199526235Y-87811380D01*
X199727431Y-87851400D01*
X199932569Y-87851400D01*
X200133765Y-87811380D01*
X200323288Y-87732877D01*
X200493854Y-87618908D01*
X200638908Y-87473854D01*
X200752877Y-87303288D01*
X200831380Y-87113765D01*
X200871400Y-86912569D01*
X200871400Y-86707431D01*
X200831380Y-86506235D01*
X200752877Y-86316712D01*
X200638908Y-86146146D01*
X200493854Y-86001092D01*
X200323288Y-85887123D01*
X200160201Y-85819570D01*
X200160201Y-79501910D01*
X201315959Y-80657669D01*
X201339025Y-80685775D01*
X201367131Y-80708841D01*
X201367132Y-80708842D01*
X201446598Y-80774058D01*
X201451187Y-80777824D01*
X201579151Y-80846222D01*
X201701205Y-80883247D01*
X201718001Y-80888342D01*
X201862400Y-80902564D01*
X201898586Y-80899000D01*
X201962334Y-80899000D01*
X201964588Y-80921882D01*
X202000898Y-81041580D01*
X202059863Y-81151894D01*
X202139215Y-81248585D01*
X202235906Y-81327937D01*
X202346220Y-81386902D01*
X202465918Y-81423212D01*
X202590400Y-81435472D01*
X203250800Y-81435472D01*
X203375282Y-81423212D01*
X203441300Y-81403186D01*
X203507318Y-81423212D01*
X203631800Y-81435472D01*
X204292200Y-81435472D01*
X204416682Y-81423212D01*
X204536380Y-81386902D01*
X204646694Y-81327937D01*
X204743385Y-81248585D01*
X204822737Y-81151894D01*
X204881702Y-81041580D01*
X204918012Y-80921882D01*
X204930272Y-80797400D01*
X204930272Y-80001785D01*
X205129433Y-80041400D01*
X205334571Y-80041400D01*
X205535767Y-80001380D01*
X205725290Y-79922877D01*
X205895856Y-79808908D01*
X206040910Y-79663854D01*
X206154879Y-79493288D01*
X206233382Y-79303765D01*
X206273402Y-79102569D01*
X206273402Y-78897431D01*
X206233382Y-78696235D01*
X206154879Y-78506712D01*
X206040910Y-78336146D01*
X205895856Y-78191092D01*
X205725290Y-78077123D01*
X205535767Y-77998620D01*
X205334571Y-77958600D01*
X205232312Y-77958600D01*
X204665111Y-77391400D01*
X204702569Y-77391400D01*
X204903765Y-77351380D01*
X205093288Y-77272877D01*
X205263854Y-77158908D01*
X205408908Y-77013854D01*
X205522877Y-76843288D01*
X205601380Y-76653765D01*
X205641400Y-76452569D01*
X205641400Y-76350309D01*
X206428668Y-75563041D01*
X206504430Y-75745948D01*
X206676773Y-76003877D01*
X206896123Y-76223227D01*
X206966124Y-76270000D01*
X206896123Y-76316773D01*
X206676773Y-76536123D01*
X206504430Y-76794052D01*
X206385718Y-77080648D01*
X206325200Y-77384896D01*
X206325200Y-77695104D01*
X206385718Y-77999352D01*
X206504430Y-78285948D01*
X206676773Y-78543877D01*
X206896123Y-78763227D01*
X206966124Y-78810000D01*
X206896123Y-78856773D01*
X206676773Y-79076123D01*
X206504430Y-79334052D01*
X206385718Y-79620648D01*
X206325200Y-79924896D01*
X206325200Y-80235104D01*
X206385718Y-80539352D01*
X206504430Y-80825948D01*
X206676773Y-81083877D01*
X206896123Y-81303227D01*
X206966124Y-81350000D01*
X206896123Y-81396773D01*
X206676773Y-81616123D01*
X206504430Y-81874052D01*
X206385718Y-82160648D01*
X206325200Y-82464896D01*
X206325200Y-82775104D01*
X206385718Y-83079352D01*
X206504430Y-83365948D01*
X206676773Y-83623877D01*
X206896123Y-83843227D01*
X206966124Y-83890000D01*
X206896123Y-83936773D01*
X206676773Y-84156123D01*
X206504430Y-84414052D01*
X206385718Y-84700648D01*
X206325200Y-85004896D01*
X206325200Y-85315104D01*
X206385718Y-85619352D01*
X206504430Y-85905948D01*
X206676773Y-86163877D01*
X206896123Y-86383227D01*
X206966124Y-86430000D01*
X206896123Y-86476773D01*
X206676773Y-86696123D01*
X206504430Y-86954052D01*
X206385718Y-87240648D01*
X206325200Y-87544896D01*
X206325200Y-87855104D01*
X206385718Y-88159352D01*
X206504430Y-88445948D01*
X206676773Y-88703877D01*
X206896123Y-88923227D01*
X207154052Y-89095570D01*
X207440648Y-89214282D01*
X207744896Y-89274800D01*
X208055104Y-89274800D01*
X208359352Y-89214282D01*
X208645948Y-89095570D01*
X208903877Y-88923227D01*
X209123227Y-88703877D01*
X209295570Y-88445948D01*
X209315000Y-88399039D01*
X209315000Y-97466495D01*
X209277211Y-97851897D01*
X209175013Y-98190392D01*
X209009016Y-98502588D01*
X208785539Y-98776599D01*
X208513098Y-99001980D01*
X208202069Y-99170153D01*
X207864296Y-99274711D01*
X207480977Y-99315000D01*
X182327203Y-99315000D01*
X182325000Y-98085750D01*
X182166250Y-97927000D01*
X181067000Y-97927000D01*
X181067000Y-97947000D01*
X180813000Y-97947000D01*
X180813000Y-97927000D01*
X179713750Y-97927000D01*
X179555000Y-98085750D01*
X179552797Y-99315000D01*
X177247203Y-99315000D01*
X177245000Y-98085750D01*
X177086250Y-97927000D01*
X175987000Y-97927000D01*
X175987000Y-97947000D01*
X175733000Y-97947000D01*
X175733000Y-97927000D01*
X174633750Y-97927000D01*
X174475000Y-98085750D01*
X174472797Y-99315000D01*
X152727203Y-99315000D01*
X152725000Y-98085750D01*
X152566250Y-97927000D01*
X151467000Y-97927000D01*
X151467000Y-97947000D01*
X151213000Y-97947000D01*
X151213000Y-97927000D01*
X150113750Y-97927000D01*
X149955000Y-98085750D01*
X149952797Y-99315000D01*
X147647203Y-99315000D01*
X147645000Y-98085750D01*
X147486250Y-97927000D01*
X146387000Y-97927000D01*
X146387000Y-97947000D01*
X146133000Y-97947000D01*
X146133000Y-97927000D01*
X145033750Y-97927000D01*
X144875000Y-98085750D01*
X144872797Y-99315000D01*
X122533505Y-99315000D01*
X122148103Y-99277211D01*
X121809608Y-99175013D01*
X121497412Y-99009016D01*
X121223401Y-98785539D01*
X120998020Y-98513098D01*
X120829847Y-98202069D01*
X120725289Y-97864296D01*
X120685000Y-97480977D01*
X120685000Y-96279872D01*
X121265000Y-96279872D01*
X121265000Y-96720128D01*
X121350890Y-97151925D01*
X121519369Y-97558669D01*
X121763962Y-97924729D01*
X122075271Y-98236038D01*
X122441331Y-98480631D01*
X122848075Y-98649110D01*
X123279872Y-98735000D01*
X123720128Y-98735000D01*
X124151925Y-98649110D01*
X124558669Y-98480631D01*
X124924729Y-98236038D01*
X125236038Y-97924729D01*
X125480631Y-97558669D01*
X125649110Y-97151925D01*
X125735000Y-96720128D01*
X125735000Y-96279872D01*
X125649110Y-95848075D01*
X125629197Y-95800000D01*
X144871928Y-95800000D01*
X144875000Y-97514250D01*
X145033750Y-97673000D01*
X146133000Y-97673000D01*
X146133000Y-95323750D01*
X146387000Y-95323750D01*
X146387000Y-97673000D01*
X147486250Y-97673000D01*
X147645000Y-97514250D01*
X147648072Y-95800000D01*
X149951928Y-95800000D01*
X149955000Y-97514250D01*
X150113750Y-97673000D01*
X151213000Y-97673000D01*
X151213000Y-95323750D01*
X151467000Y-95323750D01*
X151467000Y-97673000D01*
X152566250Y-97673000D01*
X152725000Y-97514250D01*
X152728072Y-95800000D01*
X174471928Y-95800000D01*
X174475000Y-97514250D01*
X174633750Y-97673000D01*
X175733000Y-97673000D01*
X175733000Y-95323750D01*
X175987000Y-95323750D01*
X175987000Y-97673000D01*
X177086250Y-97673000D01*
X177245000Y-97514250D01*
X177248072Y-95800000D01*
X179551928Y-95800000D01*
X179555000Y-97514250D01*
X179713750Y-97673000D01*
X180813000Y-97673000D01*
X180813000Y-95323750D01*
X181067000Y-95323750D01*
X181067000Y-97673000D01*
X182166250Y-97673000D01*
X182325000Y-97514250D01*
X182327212Y-96279872D01*
X204265000Y-96279872D01*
X204265000Y-96720128D01*
X204350890Y-97151925D01*
X204519369Y-97558669D01*
X204763962Y-97924729D01*
X205075271Y-98236038D01*
X205441331Y-98480631D01*
X205848075Y-98649110D01*
X206279872Y-98735000D01*
X206720128Y-98735000D01*
X207151925Y-98649110D01*
X207558669Y-98480631D01*
X207924729Y-98236038D01*
X208236038Y-97924729D01*
X208480631Y-97558669D01*
X208649110Y-97151925D01*
X208735000Y-96720128D01*
X208735000Y-96279872D01*
X208649110Y-95848075D01*
X208480631Y-95441331D01*
X208236038Y-95075271D01*
X207924729Y-94763962D01*
X207558669Y-94519369D01*
X207151925Y-94350890D01*
X206720128Y-94265000D01*
X206279872Y-94265000D01*
X205848075Y-94350890D01*
X205441331Y-94519369D01*
X205075271Y-94763962D01*
X204763962Y-95075271D01*
X204519369Y-95441331D01*
X204350890Y-95848075D01*
X204265000Y-96279872D01*
X182327212Y-96279872D01*
X182328072Y-95800000D01*
X182315812Y-95675518D01*
X182279502Y-95555820D01*
X182220537Y-95445506D01*
X182141185Y-95348815D01*
X182044494Y-95269463D01*
X181934180Y-95210498D01*
X181814482Y-95174188D01*
X181690000Y-95161928D01*
X181225750Y-95165000D01*
X181067000Y-95323750D01*
X180813000Y-95323750D01*
X180654250Y-95165000D01*
X180190000Y-95161928D01*
X180065518Y-95174188D01*
X179945820Y-95210498D01*
X179835506Y-95269463D01*
X179738815Y-95348815D01*
X179659463Y-95445506D01*
X179600498Y-95555820D01*
X179564188Y-95675518D01*
X179551928Y-95800000D01*
X177248072Y-95800000D01*
X177235812Y-95675518D01*
X177199502Y-95555820D01*
X177140537Y-95445506D01*
X177061185Y-95348815D01*
X176964494Y-95269463D01*
X176854180Y-95210498D01*
X176734482Y-95174188D01*
X176610000Y-95161928D01*
X176145750Y-95165000D01*
X175987000Y-95323750D01*
X175733000Y-95323750D01*
X175574250Y-95165000D01*
X175110000Y-95161928D01*
X174985518Y-95174188D01*
X174865820Y-95210498D01*
X174755506Y-95269463D01*
X174658815Y-95348815D01*
X174579463Y-95445506D01*
X174520498Y-95555820D01*
X174484188Y-95675518D01*
X174471928Y-95800000D01*
X152728072Y-95800000D01*
X152715812Y-95675518D01*
X152679502Y-95555820D01*
X152620537Y-95445506D01*
X152541185Y-95348815D01*
X152444494Y-95269463D01*
X152334180Y-95210498D01*
X152214482Y-95174188D01*
X152090000Y-95161928D01*
X151625750Y-95165000D01*
X151467000Y-95323750D01*
X151213000Y-95323750D01*
X151054250Y-95165000D01*
X150590000Y-95161928D01*
X150465518Y-95174188D01*
X150345820Y-95210498D01*
X150235506Y-95269463D01*
X150138815Y-95348815D01*
X150059463Y-95445506D01*
X150000498Y-95555820D01*
X149964188Y-95675518D01*
X149951928Y-95800000D01*
X147648072Y-95800000D01*
X147635812Y-95675518D01*
X147599502Y-95555820D01*
X147540537Y-95445506D01*
X147461185Y-95348815D01*
X147364494Y-95269463D01*
X147254180Y-95210498D01*
X147134482Y-95174188D01*
X147010000Y-95161928D01*
X146545750Y-95165000D01*
X146387000Y-95323750D01*
X146133000Y-95323750D01*
X145974250Y-95165000D01*
X145510000Y-95161928D01*
X145385518Y-95174188D01*
X145265820Y-95210498D01*
X145155506Y-95269463D01*
X145058815Y-95348815D01*
X144979463Y-95445506D01*
X144920498Y-95555820D01*
X144884188Y-95675518D01*
X144871928Y-95800000D01*
X125629197Y-95800000D01*
X125480631Y-95441331D01*
X125236038Y-95075271D01*
X124924729Y-94763962D01*
X124558669Y-94519369D01*
X124151925Y-94350890D01*
X123720128Y-94265000D01*
X123279872Y-94265000D01*
X122848075Y-94350890D01*
X122441331Y-94519369D01*
X122075271Y-94763962D01*
X121763962Y-95075271D01*
X121519369Y-95441331D01*
X121350890Y-95848075D01*
X121265000Y-96279872D01*
X120685000Y-96279872D01*
X120685000Y-90033203D01*
X121914250Y-90031000D01*
X122073000Y-89872250D01*
X122073000Y-88773000D01*
X122327000Y-88773000D01*
X122327000Y-89872250D01*
X122485750Y-90031000D01*
X124200000Y-90034072D01*
X124324482Y-90021812D01*
X124444180Y-89985502D01*
X124554494Y-89926537D01*
X124651185Y-89847185D01*
X124730537Y-89750494D01*
X124789502Y-89640180D01*
X124825812Y-89520482D01*
X124838072Y-89396000D01*
X124835000Y-88931750D01*
X124676250Y-88773000D01*
X122327000Y-88773000D01*
X122073000Y-88773000D01*
X122053000Y-88773000D01*
X122053000Y-88519000D01*
X122073000Y-88519000D01*
X122073000Y-87419750D01*
X122327000Y-87419750D01*
X122327000Y-88519000D01*
X124676250Y-88519000D01*
X124835000Y-88360250D01*
X124838072Y-87896000D01*
X124825812Y-87771518D01*
X124789502Y-87651820D01*
X124730537Y-87541506D01*
X124651185Y-87444815D01*
X124554494Y-87365463D01*
X124444180Y-87306498D01*
X124324482Y-87270188D01*
X124200000Y-87257928D01*
X122485750Y-87261000D01*
X122327000Y-87419750D01*
X122073000Y-87419750D01*
X121914250Y-87261000D01*
X120685000Y-87258797D01*
X120685000Y-84953203D01*
X121914250Y-84951000D01*
X122073000Y-84792250D01*
X122073000Y-83693000D01*
X122327000Y-83693000D01*
X122327000Y-84792250D01*
X122485750Y-84951000D01*
X124200000Y-84954072D01*
X124324482Y-84941812D01*
X124444180Y-84905502D01*
X124554494Y-84846537D01*
X124651185Y-84767185D01*
X124730537Y-84670494D01*
X124789502Y-84560180D01*
X124825812Y-84440482D01*
X124838072Y-84316000D01*
X124835000Y-83851750D01*
X124676250Y-83693000D01*
X122327000Y-83693000D01*
X122073000Y-83693000D01*
X122053000Y-83693000D01*
X122053000Y-83439000D01*
X122073000Y-83439000D01*
X122073000Y-82339750D01*
X122327000Y-82339750D01*
X122327000Y-83439000D01*
X124676250Y-83439000D01*
X124835000Y-83280250D01*
X124838072Y-82816000D01*
X124825812Y-82691518D01*
X124789502Y-82571820D01*
X124730537Y-82461506D01*
X124651185Y-82364815D01*
X124554494Y-82285463D01*
X124444180Y-82226498D01*
X124324482Y-82190188D01*
X124200000Y-82177928D01*
X122485750Y-82181000D01*
X122327000Y-82339750D01*
X122073000Y-82339750D01*
X121914250Y-82181000D01*
X120685000Y-82178797D01*
X120685000Y-80937691D01*
X120714930Y-81009948D01*
X120887273Y-81267877D01*
X121106623Y-81487227D01*
X121364552Y-81659570D01*
X121651148Y-81778282D01*
X121955396Y-81838800D01*
X122265604Y-81838800D01*
X122569852Y-81778282D01*
X122856448Y-81659570D01*
X123114377Y-81487227D01*
X123333727Y-81267877D01*
X123506070Y-81009948D01*
X123624782Y-80723352D01*
X123685300Y-80419104D01*
X123685300Y-80108896D01*
X123624782Y-79804648D01*
X123506070Y-79518052D01*
X123333727Y-79260123D01*
X123114377Y-79040773D01*
X123044376Y-78994000D01*
X123114377Y-78947227D01*
X123333727Y-78727877D01*
X123506070Y-78469948D01*
X123624782Y-78183352D01*
X123685300Y-77879104D01*
X123685300Y-77568896D01*
X123624782Y-77264648D01*
X123506070Y-76978052D01*
X123333727Y-76720123D01*
X123114377Y-76500773D01*
X123044376Y-76454000D01*
X123114377Y-76407227D01*
X123333727Y-76187877D01*
X123506070Y-75929948D01*
X123624782Y-75643352D01*
X123685300Y-75339104D01*
X123685300Y-75028896D01*
X123624782Y-74724648D01*
X123506070Y-74438052D01*
X123333727Y-74180123D01*
X123114377Y-73960773D01*
X123044376Y-73914000D01*
X123114377Y-73867227D01*
X123333727Y-73647877D01*
X123506070Y-73389948D01*
X123624782Y-73103352D01*
X123685300Y-72799104D01*
X123685300Y-72488896D01*
X123624782Y-72184648D01*
X123506070Y-71898052D01*
X123333727Y-71640123D01*
X123114377Y-71420773D01*
X123044376Y-71374000D01*
X123114377Y-71327227D01*
X123333727Y-71107877D01*
X123506070Y-70849948D01*
X123624782Y-70563352D01*
X123685300Y-70259104D01*
X123685300Y-69948896D01*
X123624782Y-69644648D01*
X123506070Y-69358052D01*
X123333727Y-69100123D01*
X123114377Y-68880773D01*
X123044376Y-68834000D01*
X123114377Y-68787227D01*
X123333727Y-68567877D01*
X123506070Y-68309948D01*
X123624782Y-68023352D01*
X123685300Y-67719104D01*
X123685300Y-67408896D01*
X123624782Y-67104648D01*
X123506070Y-66818052D01*
X123333727Y-66560123D01*
X123114377Y-66340773D01*
X122856448Y-66168430D01*
X122569852Y-66049718D01*
X122265604Y-65989200D01*
X121955396Y-65989200D01*
X121651148Y-66049718D01*
X121364552Y-66168430D01*
X121106623Y-66340773D01*
X120887273Y-66560123D01*
X120714930Y-66818052D01*
X120685000Y-66890309D01*
X120685000Y-58597431D01*
X120758600Y-58597431D01*
X120758600Y-58802569D01*
X120798620Y-59003765D01*
X120877123Y-59193288D01*
X120991092Y-59363854D01*
X121136146Y-59508908D01*
X121306712Y-59622877D01*
X121496235Y-59701380D01*
X121697431Y-59741400D01*
X121902569Y-59741400D01*
X122103765Y-59701380D01*
X122293288Y-59622877D01*
X122343988Y-59589000D01*
X122927258Y-59589000D01*
X122951398Y-59668580D01*
X123010363Y-59778894D01*
X123089715Y-59875585D01*
X123186406Y-59954937D01*
X123296720Y-60013902D01*
X123416418Y-60050212D01*
X123540900Y-60062472D01*
X124201300Y-60062472D01*
X124325782Y-60050212D01*
X124391800Y-60030186D01*
X124457818Y-60050212D01*
X124582300Y-60062472D01*
X125242700Y-60062472D01*
X125367182Y-60050212D01*
X125486880Y-60013902D01*
X125597194Y-59954937D01*
X125693885Y-59875585D01*
X125773237Y-59778894D01*
X125832202Y-59668580D01*
X125868512Y-59548882D01*
X125870766Y-59526000D01*
X126984291Y-59526000D01*
X127313400Y-59855110D01*
X127313400Y-61082534D01*
X127289813Y-61063176D01*
X127161849Y-60994778D01*
X127022999Y-60952658D01*
X126914786Y-60942000D01*
X126914783Y-60942000D01*
X126878600Y-60938436D01*
X126842417Y-60942000D01*
X125870766Y-60942000D01*
X125868512Y-60919118D01*
X125832202Y-60799420D01*
X125773237Y-60689106D01*
X125693885Y-60592415D01*
X125597194Y-60513063D01*
X125486880Y-60454098D01*
X125367182Y-60417788D01*
X125242700Y-60405528D01*
X124582300Y-60405528D01*
X124457818Y-60417788D01*
X124391800Y-60437814D01*
X124325782Y-60417788D01*
X124201300Y-60405528D01*
X123540900Y-60405528D01*
X123416418Y-60417788D01*
X123296720Y-60454098D01*
X123186406Y-60513063D01*
X123089715Y-60592415D01*
X123010363Y-60689106D01*
X122998660Y-60711000D01*
X122443988Y-60711000D01*
X122393288Y-60677123D01*
X122203765Y-60598620D01*
X122002569Y-60558600D01*
X121797431Y-60558600D01*
X121596235Y-60598620D01*
X121406712Y-60677123D01*
X121236146Y-60791092D01*
X121091092Y-60936146D01*
X120977123Y-61106712D01*
X120898620Y-61296235D01*
X120858600Y-61497431D01*
X120858600Y-61702569D01*
X120898620Y-61903765D01*
X120977123Y-62093288D01*
X121091092Y-62263854D01*
X121236146Y-62408908D01*
X121406712Y-62522877D01*
X121596235Y-62601380D01*
X121797431Y-62641400D01*
X122002569Y-62641400D01*
X122203765Y-62601380D01*
X122393288Y-62522877D01*
X122443988Y-62489000D01*
X122930534Y-62489000D01*
X122951398Y-62557780D01*
X123010363Y-62668094D01*
X123089715Y-62764785D01*
X123186406Y-62844137D01*
X123296720Y-62903102D01*
X123416418Y-62939412D01*
X123540900Y-62951672D01*
X124201300Y-62951672D01*
X124325782Y-62939412D01*
X124391800Y-62919386D01*
X124457818Y-62939412D01*
X124582300Y-62951672D01*
X125242700Y-62951672D01*
X125367182Y-62939412D01*
X125486880Y-62903102D01*
X125597194Y-62844137D01*
X125693885Y-62764785D01*
X125773237Y-62668094D01*
X125832202Y-62557780D01*
X125868512Y-62438082D01*
X125870766Y-62415200D01*
X126513401Y-62415200D01*
X126513400Y-64144890D01*
X125856172Y-64802118D01*
X125856172Y-63733600D01*
X125843912Y-63609118D01*
X125807602Y-63489420D01*
X125748637Y-63379106D01*
X125669285Y-63282415D01*
X125572594Y-63203063D01*
X125462280Y-63144098D01*
X125342582Y-63107788D01*
X125218100Y-63095528D01*
X124557700Y-63095528D01*
X124433218Y-63107788D01*
X124367200Y-63127814D01*
X124301182Y-63107788D01*
X124176700Y-63095528D01*
X123516300Y-63095528D01*
X123391818Y-63107788D01*
X123272120Y-63144098D01*
X123161806Y-63203063D01*
X123065115Y-63282415D01*
X122985763Y-63379106D01*
X122926798Y-63489420D01*
X122920252Y-63511000D01*
X122343988Y-63511000D01*
X122293288Y-63477123D01*
X122103765Y-63398620D01*
X121902569Y-63358600D01*
X121697431Y-63358600D01*
X121496235Y-63398620D01*
X121306712Y-63477123D01*
X121136146Y-63591092D01*
X120991092Y-63736146D01*
X120877123Y-63906712D01*
X120798620Y-64096235D01*
X120758600Y-64297431D01*
X120758600Y-64502569D01*
X120798620Y-64703765D01*
X120877123Y-64893288D01*
X120991092Y-65063854D01*
X121136146Y-65208908D01*
X121306712Y-65322877D01*
X121496235Y-65401380D01*
X121697431Y-65441400D01*
X121902569Y-65441400D01*
X122103765Y-65401380D01*
X122293288Y-65322877D01*
X122343988Y-65289000D01*
X122948831Y-65289000D01*
X122985763Y-65358094D01*
X123065115Y-65454785D01*
X123161806Y-65534137D01*
X123272120Y-65593102D01*
X123391818Y-65629412D01*
X123516300Y-65641672D01*
X123963401Y-65641672D01*
X123963400Y-70063817D01*
X123959836Y-70100000D01*
X123963400Y-70136183D01*
X123963400Y-70136185D01*
X123974058Y-70244398D01*
X124016178Y-70383248D01*
X124078583Y-70499999D01*
X124084576Y-70511212D01*
X124149584Y-70590424D01*
X124176625Y-70623374D01*
X124204732Y-70646441D01*
X124958600Y-71400310D01*
X124958600Y-71502569D01*
X124998620Y-71703765D01*
X125077123Y-71893288D01*
X125191092Y-72063854D01*
X125336146Y-72208908D01*
X125506712Y-72322877D01*
X125696235Y-72401380D01*
X125897431Y-72441400D01*
X126102569Y-72441400D01*
X126303765Y-72401380D01*
X126493288Y-72322877D01*
X126663854Y-72208908D01*
X126808908Y-72063854D01*
X126922877Y-71893288D01*
X127001380Y-71703765D01*
X127041400Y-71502569D01*
X127041400Y-71297431D01*
X127001380Y-71096235D01*
X126922877Y-70906712D01*
X126808908Y-70736146D01*
X126663854Y-70591092D01*
X126493288Y-70477123D01*
X126303765Y-70398620D01*
X126102569Y-70358600D01*
X126000310Y-70358600D01*
X125436600Y-69794891D01*
X125436600Y-69785257D01*
X125596235Y-69851380D01*
X125797431Y-69891400D01*
X126002569Y-69891400D01*
X126203765Y-69851380D01*
X126393288Y-69772877D01*
X126563854Y-69658908D01*
X126708908Y-69513854D01*
X126822877Y-69343288D01*
X126901380Y-69153765D01*
X126941400Y-68952569D01*
X126941400Y-68747431D01*
X126901380Y-68546235D01*
X126822877Y-68356712D01*
X126708908Y-68186146D01*
X126563854Y-68041092D01*
X126393288Y-67927123D01*
X126203765Y-67848620D01*
X126086600Y-67825315D01*
X126086600Y-67402454D01*
X126216368Y-67428266D01*
X126421506Y-67428266D01*
X126622702Y-67388246D01*
X126812225Y-67309743D01*
X126982791Y-67195774D01*
X127127845Y-67050720D01*
X127241814Y-66880154D01*
X127320317Y-66690631D01*
X127360337Y-66489435D01*
X127360337Y-66387175D01*
X128545269Y-65202244D01*
X128573375Y-65179178D01*
X128615309Y-65128082D01*
X128665424Y-65067016D01*
X128686842Y-65026945D01*
X128733822Y-64939052D01*
X128775942Y-64800202D01*
X128786600Y-64691989D01*
X128790164Y-64655803D01*
X128786600Y-64619617D01*
X128786600Y-59697431D01*
X147983600Y-59697431D01*
X147983600Y-59902569D01*
X148023620Y-60103765D01*
X148102123Y-60293288D01*
X148216092Y-60463854D01*
X148361146Y-60608908D01*
X148531712Y-60722877D01*
X148721235Y-60801380D01*
X148922431Y-60841400D01*
X149127569Y-60841400D01*
X149328765Y-60801380D01*
X149518288Y-60722877D01*
X149688854Y-60608908D01*
X149833908Y-60463854D01*
X149947877Y-60293288D01*
X150026380Y-60103765D01*
X150066400Y-59902569D01*
X150066400Y-59697431D01*
X150026380Y-59496235D01*
X149947877Y-59306712D01*
X149833908Y-59136146D01*
X149688854Y-58991092D01*
X149518288Y-58877123D01*
X149328765Y-58798620D01*
X149127569Y-58758600D01*
X148922431Y-58758600D01*
X148721235Y-58798620D01*
X148531712Y-58877123D01*
X148361146Y-58991092D01*
X148216092Y-59136146D01*
X148102123Y-59306712D01*
X148023620Y-59496235D01*
X147983600Y-59697431D01*
X128786600Y-59697431D01*
X128786600Y-59586186D01*
X128790164Y-59550000D01*
X128775942Y-59405601D01*
X128762317Y-59360686D01*
X128733822Y-59266751D01*
X128665424Y-59138787D01*
X128639079Y-59106686D01*
X128596442Y-59054732D01*
X128596437Y-59054727D01*
X128573374Y-59026625D01*
X128545273Y-59003563D01*
X127835845Y-58294136D01*
X127812775Y-58266025D01*
X127700613Y-58173976D01*
X127572649Y-58105578D01*
X127433799Y-58063458D01*
X127325586Y-58052800D01*
X127325583Y-58052800D01*
X127289400Y-58049236D01*
X127253217Y-58052800D01*
X125870766Y-58052800D01*
X125868512Y-58029918D01*
X125832202Y-57910220D01*
X125773237Y-57799906D01*
X125693885Y-57703215D01*
X125597194Y-57623863D01*
X125486880Y-57564898D01*
X125367182Y-57528588D01*
X125242700Y-57516328D01*
X124582300Y-57516328D01*
X124457818Y-57528588D01*
X124391800Y-57548614D01*
X124325782Y-57528588D01*
X124201300Y-57516328D01*
X123540900Y-57516328D01*
X123416418Y-57528588D01*
X123296720Y-57564898D01*
X123186406Y-57623863D01*
X123089715Y-57703215D01*
X123010363Y-57799906D01*
X123004433Y-57811000D01*
X122343988Y-57811000D01*
X122293288Y-57777123D01*
X122103765Y-57698620D01*
X121902569Y-57658600D01*
X121697431Y-57658600D01*
X121496235Y-57698620D01*
X121306712Y-57777123D01*
X121136146Y-57891092D01*
X120991092Y-58036146D01*
X120877123Y-58206712D01*
X120798620Y-58396235D01*
X120758600Y-58597431D01*
X120685000Y-58597431D01*
X120685000Y-57130900D01*
X139807600Y-57130900D01*
X139807600Y-57630900D01*
X139854185Y-57849887D01*
X139942597Y-58055578D01*
X140069439Y-58240069D01*
X140229836Y-58396269D01*
X140417624Y-58518176D01*
X140640726Y-58598019D01*
X140815600Y-58471854D01*
X140815600Y-57130900D01*
X139807600Y-57130900D01*
X120685000Y-57130900D01*
X120685000Y-56376900D01*
X139807600Y-56376900D01*
X139807600Y-56876900D01*
X140815600Y-56876900D01*
X140815600Y-55535946D01*
X141069600Y-55535946D01*
X141069600Y-56876900D01*
X141089600Y-56876900D01*
X141089600Y-57130900D01*
X141069600Y-57130900D01*
X141069600Y-58471854D01*
X141244474Y-58598019D01*
X141467576Y-58518176D01*
X141655364Y-58396269D01*
X141815761Y-58240069D01*
X141942603Y-58055578D01*
X142031015Y-57849887D01*
X142077600Y-57630900D01*
X142077600Y-57212514D01*
X142091668Y-57213900D01*
X142433532Y-57213900D01*
X142570892Y-57200371D01*
X142747140Y-57146907D01*
X142909572Y-57060086D01*
X143051944Y-56943244D01*
X143168786Y-56800872D01*
X143255607Y-56638440D01*
X143309071Y-56462192D01*
X143327124Y-56278900D01*
X143318054Y-56186811D01*
X147327600Y-56186811D01*
X147327600Y-56370989D01*
X147363532Y-56551629D01*
X147434014Y-56721789D01*
X147536338Y-56874928D01*
X147666572Y-57005162D01*
X147819711Y-57107486D01*
X147989871Y-57177968D01*
X148170511Y-57213900D01*
X148354689Y-57213900D01*
X148447600Y-57195419D01*
X148447600Y-57630900D01*
X148494185Y-57849887D01*
X148582597Y-58055578D01*
X148709439Y-58240069D01*
X148869836Y-58396269D01*
X149057624Y-58518176D01*
X149280726Y-58598019D01*
X149455600Y-58471854D01*
X149455600Y-57130900D01*
X149709600Y-57130900D01*
X149709600Y-58471854D01*
X149884474Y-58598019D01*
X150107576Y-58518176D01*
X150295364Y-58396269D01*
X150455761Y-58240069D01*
X150582603Y-58055578D01*
X150671015Y-57849887D01*
X150717600Y-57630900D01*
X150717600Y-57130900D01*
X155581000Y-57130900D01*
X155581000Y-57630900D01*
X155627585Y-57849887D01*
X155715997Y-58055578D01*
X155842839Y-58240069D01*
X156003236Y-58396269D01*
X156191024Y-58518176D01*
X156414126Y-58598019D01*
X156589000Y-58471854D01*
X156589000Y-57130900D01*
X155581000Y-57130900D01*
X150717600Y-57130900D01*
X149709600Y-57130900D01*
X149455600Y-57130900D01*
X149435600Y-57130900D01*
X149435600Y-56876900D01*
X149455600Y-56876900D01*
X149455600Y-55535946D01*
X149709600Y-55535946D01*
X149709600Y-56876900D01*
X150717600Y-56876900D01*
X150717600Y-56376900D01*
X155581000Y-56376900D01*
X155581000Y-56876900D01*
X156589000Y-56876900D01*
X156589000Y-55535946D01*
X156843000Y-55535946D01*
X156843000Y-56876900D01*
X156863000Y-56876900D01*
X156863000Y-57130900D01*
X156843000Y-57130900D01*
X156843000Y-58471854D01*
X157017874Y-58598019D01*
X157240976Y-58518176D01*
X157428764Y-58396269D01*
X157589161Y-58240069D01*
X157716003Y-58055578D01*
X157804415Y-57849887D01*
X157851000Y-57630900D01*
X157851000Y-57212514D01*
X157865068Y-57213900D01*
X158206932Y-57213900D01*
X158344292Y-57200371D01*
X158520540Y-57146907D01*
X158682972Y-57060086D01*
X158825344Y-56943244D01*
X158942186Y-56800872D01*
X159029007Y-56638440D01*
X159082471Y-56462192D01*
X159100524Y-56278900D01*
X159091454Y-56186811D01*
X163101000Y-56186811D01*
X163101000Y-56370989D01*
X163136932Y-56551629D01*
X163207414Y-56721789D01*
X163309738Y-56874928D01*
X163439972Y-57005162D01*
X163593111Y-57107486D01*
X163763271Y-57177968D01*
X163943911Y-57213900D01*
X164128089Y-57213900D01*
X164221000Y-57195419D01*
X164221000Y-57630900D01*
X164267585Y-57849887D01*
X164355997Y-58055578D01*
X164482839Y-58240069D01*
X164643236Y-58396269D01*
X164831024Y-58518176D01*
X165054126Y-58598019D01*
X165229000Y-58471854D01*
X165229000Y-57130900D01*
X165483000Y-57130900D01*
X165483000Y-58471854D01*
X165657874Y-58598019D01*
X165880976Y-58518176D01*
X166068764Y-58396269D01*
X166229161Y-58240069D01*
X166356003Y-58055578D01*
X166444415Y-57849887D01*
X166491000Y-57630900D01*
X166491000Y-57130900D01*
X165483000Y-57130900D01*
X165229000Y-57130900D01*
X165209000Y-57130900D01*
X165209000Y-56876900D01*
X165229000Y-56876900D01*
X165229000Y-55535946D01*
X165483000Y-55535946D01*
X165483000Y-56876900D01*
X166491000Y-56876900D01*
X166491000Y-56376900D01*
X166444415Y-56157913D01*
X166356003Y-55952222D01*
X166229161Y-55767731D01*
X166068764Y-55611531D01*
X165880976Y-55489624D01*
X165657874Y-55409781D01*
X165483000Y-55535946D01*
X165229000Y-55535946D01*
X165054126Y-55409781D01*
X164831024Y-55489624D01*
X164672150Y-55592760D01*
X164632028Y-55552638D01*
X164478889Y-55450314D01*
X164308729Y-55379832D01*
X164128089Y-55343900D01*
X163943911Y-55343900D01*
X163763271Y-55379832D01*
X163593111Y-55450314D01*
X163439972Y-55552638D01*
X163309738Y-55682872D01*
X163207414Y-55836011D01*
X163136932Y-56006171D01*
X163101000Y-56186811D01*
X159091454Y-56186811D01*
X159082471Y-56095608D01*
X159029007Y-55919360D01*
X158942186Y-55756928D01*
X158825344Y-55614556D01*
X158682972Y-55497714D01*
X158520540Y-55410893D01*
X158344292Y-55357429D01*
X158206932Y-55343900D01*
X157865068Y-55343900D01*
X157727708Y-55357429D01*
X157551460Y-55410893D01*
X157389028Y-55497714D01*
X157329144Y-55546860D01*
X157240976Y-55489624D01*
X157017874Y-55409781D01*
X156843000Y-55535946D01*
X156589000Y-55535946D01*
X156414126Y-55409781D01*
X156191024Y-55489624D01*
X156003236Y-55611531D01*
X155842839Y-55767731D01*
X155715997Y-55952222D01*
X155627585Y-56157913D01*
X155581000Y-56376900D01*
X150717600Y-56376900D01*
X150671015Y-56157913D01*
X150582603Y-55952222D01*
X150455761Y-55767731D01*
X150295364Y-55611531D01*
X150107576Y-55489624D01*
X149884474Y-55409781D01*
X149709600Y-55535946D01*
X149455600Y-55535946D01*
X149280726Y-55409781D01*
X149057624Y-55489624D01*
X148898750Y-55592760D01*
X148858628Y-55552638D01*
X148705489Y-55450314D01*
X148535329Y-55379832D01*
X148354689Y-55343900D01*
X148170511Y-55343900D01*
X147989871Y-55379832D01*
X147819711Y-55450314D01*
X147666572Y-55552638D01*
X147536338Y-55682872D01*
X147434014Y-55836011D01*
X147363532Y-56006171D01*
X147327600Y-56186811D01*
X143318054Y-56186811D01*
X143309071Y-56095608D01*
X143255607Y-55919360D01*
X143168786Y-55756928D01*
X143051944Y-55614556D01*
X142909572Y-55497714D01*
X142747140Y-55410893D01*
X142570892Y-55357429D01*
X142433532Y-55343900D01*
X142091668Y-55343900D01*
X141954308Y-55357429D01*
X141778060Y-55410893D01*
X141615628Y-55497714D01*
X141555744Y-55546860D01*
X141467576Y-55489624D01*
X141244474Y-55409781D01*
X141069600Y-55535946D01*
X140815600Y-55535946D01*
X140640726Y-55409781D01*
X140417624Y-55489624D01*
X140229836Y-55611531D01*
X140069439Y-55767731D01*
X139942597Y-55952222D01*
X139854185Y-56157913D01*
X139807600Y-56376900D01*
X120685000Y-56376900D01*
X120685000Y-53279872D01*
X121265000Y-53279872D01*
X121265000Y-53720128D01*
X121350890Y-54151925D01*
X121519369Y-54558669D01*
X121763962Y-54924729D01*
X122075271Y-55236038D01*
X122441331Y-55480631D01*
X122848075Y-55649110D01*
X123279872Y-55735000D01*
X123720128Y-55735000D01*
X124151925Y-55649110D01*
X124558669Y-55480631D01*
X124924729Y-55236038D01*
X125236038Y-54924729D01*
X125480631Y-54558669D01*
X125649110Y-54151925D01*
X125735000Y-53720128D01*
X125735000Y-53305900D01*
X139807600Y-53305900D01*
X139807600Y-53955900D01*
X139854185Y-54174887D01*
X139942597Y-54380578D01*
X140069439Y-54565069D01*
X140229836Y-54721269D01*
X140417624Y-54843176D01*
X140640726Y-54923019D01*
X140815600Y-54796854D01*
X140815600Y-53305900D01*
X141069600Y-53305900D01*
X141069600Y-54796854D01*
X141244474Y-54923019D01*
X141467576Y-54843176D01*
X141655364Y-54721269D01*
X141815761Y-54565069D01*
X141942603Y-54380578D01*
X142031015Y-54174887D01*
X142077600Y-53955900D01*
X142077600Y-53305900D01*
X148447600Y-53305900D01*
X148447600Y-53955900D01*
X148494185Y-54174887D01*
X148582597Y-54380578D01*
X148709439Y-54565069D01*
X148869836Y-54721269D01*
X149057624Y-54843176D01*
X149280726Y-54923019D01*
X149455600Y-54796854D01*
X149455600Y-53305900D01*
X149709600Y-53305900D01*
X149709600Y-54796854D01*
X149884474Y-54923019D01*
X150107576Y-54843176D01*
X150295364Y-54721269D01*
X150455761Y-54565069D01*
X150582603Y-54380578D01*
X150671015Y-54174887D01*
X150717600Y-53955900D01*
X150717600Y-53305900D01*
X155581000Y-53305900D01*
X155581000Y-53955900D01*
X155627585Y-54174887D01*
X155715997Y-54380578D01*
X155842839Y-54565069D01*
X156003236Y-54721269D01*
X156191024Y-54843176D01*
X156414126Y-54923019D01*
X156589000Y-54796854D01*
X156589000Y-53305900D01*
X156843000Y-53305900D01*
X156843000Y-54796854D01*
X157017874Y-54923019D01*
X157240976Y-54843176D01*
X157428764Y-54721269D01*
X157589161Y-54565069D01*
X157716003Y-54380578D01*
X157804415Y-54174887D01*
X157851000Y-53955900D01*
X157851000Y-53305900D01*
X164221000Y-53305900D01*
X164221000Y-53955900D01*
X164267585Y-54174887D01*
X164355997Y-54380578D01*
X164482839Y-54565069D01*
X164643236Y-54721269D01*
X164831024Y-54843176D01*
X165054126Y-54923019D01*
X165229000Y-54796854D01*
X165229000Y-53305900D01*
X165483000Y-53305900D01*
X165483000Y-54796854D01*
X165657874Y-54923019D01*
X165880976Y-54843176D01*
X166068764Y-54721269D01*
X166229161Y-54565069D01*
X166356003Y-54380578D01*
X166444415Y-54174887D01*
X166491000Y-53955900D01*
X166491000Y-53305900D01*
X165483000Y-53305900D01*
X165229000Y-53305900D01*
X164221000Y-53305900D01*
X157851000Y-53305900D01*
X156843000Y-53305900D01*
X156589000Y-53305900D01*
X155581000Y-53305900D01*
X150717600Y-53305900D01*
X149709600Y-53305900D01*
X149455600Y-53305900D01*
X148447600Y-53305900D01*
X142077600Y-53305900D01*
X141069600Y-53305900D01*
X140815600Y-53305900D01*
X139807600Y-53305900D01*
X125735000Y-53305900D01*
X125735000Y-53279872D01*
X204265000Y-53279872D01*
X204265000Y-53720128D01*
X204350890Y-54151925D01*
X204519369Y-54558669D01*
X204763962Y-54924729D01*
X205075271Y-55236038D01*
X205441331Y-55480631D01*
X205848075Y-55649110D01*
X206279872Y-55735000D01*
X206720128Y-55735000D01*
X207151925Y-55649110D01*
X207558669Y-55480631D01*
X207924729Y-55236038D01*
X208236038Y-54924729D01*
X208480631Y-54558669D01*
X208649110Y-54151925D01*
X208735000Y-53720128D01*
X208735000Y-53279872D01*
X208649110Y-52848075D01*
X208480631Y-52441331D01*
X208236038Y-52075271D01*
X207924729Y-51763962D01*
X207558669Y-51519369D01*
X207151925Y-51350890D01*
X206720128Y-51265000D01*
X206279872Y-51265000D01*
X205848075Y-51350890D01*
X205441331Y-51519369D01*
X205075271Y-51763962D01*
X204763962Y-52075271D01*
X204519369Y-52441331D01*
X204350890Y-52848075D01*
X204265000Y-53279872D01*
X125735000Y-53279872D01*
X125649110Y-52848075D01*
X125480631Y-52441331D01*
X125454285Y-52401900D01*
X139807600Y-52401900D01*
X139807600Y-53051900D01*
X140815600Y-53051900D01*
X140815600Y-51560946D01*
X141069600Y-51560946D01*
X141069600Y-53051900D01*
X142077600Y-53051900D01*
X142077600Y-52401900D01*
X148447600Y-52401900D01*
X148447600Y-53051900D01*
X149455600Y-53051900D01*
X149455600Y-51560946D01*
X149709600Y-51560946D01*
X149709600Y-53051900D01*
X150717600Y-53051900D01*
X150717600Y-52401900D01*
X155581000Y-52401900D01*
X155581000Y-53051900D01*
X156589000Y-53051900D01*
X156589000Y-51560946D01*
X156843000Y-51560946D01*
X156843000Y-53051900D01*
X157851000Y-53051900D01*
X157851000Y-52401900D01*
X164221000Y-52401900D01*
X164221000Y-53051900D01*
X165229000Y-53051900D01*
X165229000Y-51560946D01*
X165483000Y-51560946D01*
X165483000Y-53051900D01*
X166491000Y-53051900D01*
X166491000Y-52401900D01*
X166444415Y-52182913D01*
X166356003Y-51977222D01*
X166229161Y-51792731D01*
X166068764Y-51636531D01*
X165880976Y-51514624D01*
X165657874Y-51434781D01*
X165483000Y-51560946D01*
X165229000Y-51560946D01*
X165054126Y-51434781D01*
X164831024Y-51514624D01*
X164643236Y-51636531D01*
X164482839Y-51792731D01*
X164355997Y-51977222D01*
X164267585Y-52182913D01*
X164221000Y-52401900D01*
X157851000Y-52401900D01*
X157804415Y-52182913D01*
X157716003Y-51977222D01*
X157589161Y-51792731D01*
X157428764Y-51636531D01*
X157240976Y-51514624D01*
X157017874Y-51434781D01*
X156843000Y-51560946D01*
X156589000Y-51560946D01*
X156414126Y-51434781D01*
X156191024Y-51514624D01*
X156003236Y-51636531D01*
X155842839Y-51792731D01*
X155715997Y-51977222D01*
X155627585Y-52182913D01*
X155581000Y-52401900D01*
X150717600Y-52401900D01*
X150671015Y-52182913D01*
X150582603Y-51977222D01*
X150455761Y-51792731D01*
X150295364Y-51636531D01*
X150107576Y-51514624D01*
X149884474Y-51434781D01*
X149709600Y-51560946D01*
X149455600Y-51560946D01*
X149280726Y-51434781D01*
X149057624Y-51514624D01*
X148869836Y-51636531D01*
X148709439Y-51792731D01*
X148582597Y-51977222D01*
X148494185Y-52182913D01*
X148447600Y-52401900D01*
X142077600Y-52401900D01*
X142031015Y-52182913D01*
X141942603Y-51977222D01*
X141815761Y-51792731D01*
X141655364Y-51636531D01*
X141467576Y-51514624D01*
X141244474Y-51434781D01*
X141069600Y-51560946D01*
X140815600Y-51560946D01*
X140640726Y-51434781D01*
X140417624Y-51514624D01*
X140229836Y-51636531D01*
X140069439Y-51792731D01*
X139942597Y-51977222D01*
X139854185Y-52182913D01*
X139807600Y-52401900D01*
X125454285Y-52401900D01*
X125236038Y-52075271D01*
X124924729Y-51763962D01*
X124558669Y-51519369D01*
X124151925Y-51350890D01*
X123720128Y-51265000D01*
X123279872Y-51265000D01*
X122848075Y-51350890D01*
X122441331Y-51519369D01*
X122075271Y-51763962D01*
X121763962Y-52075271D01*
X121519369Y-52441331D01*
X121350890Y-52848075D01*
X121265000Y-53279872D01*
X120685000Y-53279872D01*
X120685000Y-52533504D01*
X120722789Y-52148103D01*
X120824987Y-51809607D01*
X120990984Y-51497412D01*
X121214460Y-51223403D01*
X121486902Y-50998020D01*
X121797931Y-50829847D01*
X122135708Y-50725288D01*
X122519022Y-50685000D01*
X207466496Y-50685000D01*
X207851897Y-50722789D01*
G37*
%TD.AperFunction*%
D18*
X144919927Y-70884057D02*
X144943001Y-70912173D01*
X145055163Y-71004222D01*
X145183127Y-71072620D01*
X145321977Y-71114740D01*
X145430190Y-71125398D01*
X145430199Y-71125398D01*
X145466375Y-71128961D01*
X145502551Y-71125398D01*
X151901840Y-71125398D01*
X151889238Y-71138000D01*
X142937423Y-71138000D01*
X142900000Y-71134314D01*
X142862577Y-71138000D01*
X142862574Y-71138000D01*
X142750622Y-71149026D01*
X142606985Y-71192598D01*
X142562870Y-71216178D01*
X142474607Y-71263355D01*
X142398608Y-71325726D01*
X142358578Y-71358578D01*
X142334721Y-71387648D01*
X141562457Y-72159912D01*
X141587220Y-72035420D01*
X141587220Y-71933160D01*
X142394983Y-71125398D01*
X144197441Y-71125398D01*
X144233624Y-71128962D01*
X144269807Y-71125398D01*
X144269810Y-71125398D01*
X144378023Y-71114740D01*
X144516873Y-71072620D01*
X144644837Y-71004222D01*
X144756999Y-70912173D01*
X144780070Y-70884061D01*
X144813732Y-70850399D01*
X144886269Y-70850399D01*
X144919927Y-70884057D01*
%TA.AperFunction,Conductor*%
D22*
G36*
X144919927Y-70884057D02*
G01*
X144943001Y-70912173D01*
X145055163Y-71004222D01*
X145183127Y-71072620D01*
X145321977Y-71114740D01*
X145430190Y-71125398D01*
X145430199Y-71125398D01*
X145466375Y-71128961D01*
X145502551Y-71125398D01*
X151901840Y-71125398D01*
X151889238Y-71138000D01*
X142937423Y-71138000D01*
X142900000Y-71134314D01*
X142862577Y-71138000D01*
X142862574Y-71138000D01*
X142750622Y-71149026D01*
X142606985Y-71192598D01*
X142562870Y-71216178D01*
X142474607Y-71263355D01*
X142398608Y-71325726D01*
X142358578Y-71358578D01*
X142334721Y-71387648D01*
X141562457Y-72159912D01*
X141587220Y-72035420D01*
X141587220Y-71933160D01*
X142394983Y-71125398D01*
X144197441Y-71125398D01*
X144233624Y-71128962D01*
X144269807Y-71125398D01*
X144269810Y-71125398D01*
X144378023Y-71114740D01*
X144516873Y-71072620D01*
X144644837Y-71004222D01*
X144756999Y-70912173D01*
X144780070Y-70884061D01*
X144813732Y-70850399D01*
X144886269Y-70850399D01*
X144919927Y-70884057D01*
G37*
%TD.AperFunction*%
D18*
X164484141Y-69825851D02*
X164478765Y-69823624D01*
X164277569Y-69783604D01*
X164072431Y-69783604D01*
X163984731Y-69801048D01*
X163979790Y-69776208D01*
X163901287Y-69586685D01*
X163787318Y-69416119D01*
X163642264Y-69271065D01*
X163471698Y-69157096D01*
X163282175Y-69078593D01*
X163080979Y-69038573D01*
X162875841Y-69038573D01*
X162674645Y-69078593D01*
X162485122Y-69157096D01*
X162352387Y-69245787D01*
X148283974Y-69245787D01*
X148301380Y-69203765D01*
X148341400Y-69002569D01*
X148341400Y-68836600D01*
X161561239Y-68836600D01*
X161597422Y-68840164D01*
X161633605Y-68836600D01*
X161633608Y-68836600D01*
X161741821Y-68825942D01*
X161880671Y-68783822D01*
X162008635Y-68715424D01*
X162120797Y-68623375D01*
X162143868Y-68595263D01*
X162213732Y-68525399D01*
X163183690Y-68525399D01*
X164484141Y-69825851D01*
%TA.AperFunction,Conductor*%
D22*
G36*
X164484141Y-69825851D02*
G01*
X164478765Y-69823624D01*
X164277569Y-69783604D01*
X164072431Y-69783604D01*
X163984731Y-69801048D01*
X163979790Y-69776208D01*
X163901287Y-69586685D01*
X163787318Y-69416119D01*
X163642264Y-69271065D01*
X163471698Y-69157096D01*
X163282175Y-69078593D01*
X163080979Y-69038573D01*
X162875841Y-69038573D01*
X162674645Y-69078593D01*
X162485122Y-69157096D01*
X162352387Y-69245787D01*
X148283974Y-69245787D01*
X148301380Y-69203765D01*
X148341400Y-69002569D01*
X148341400Y-68836600D01*
X161561239Y-68836600D01*
X161597422Y-68840164D01*
X161633605Y-68836600D01*
X161633608Y-68836600D01*
X161741821Y-68825942D01*
X161880671Y-68783822D01*
X162008635Y-68715424D01*
X162120797Y-68623375D01*
X162143868Y-68595263D01*
X162213732Y-68525399D01*
X163183690Y-68525399D01*
X164484141Y-69825851D01*
G37*
%TD.AperFunction*%
%TD*%
M02*
