%TF.GenerationSoftware,KiCad,Pcbnew,(5.1.6-0-10_14)*%
%TF.CreationDate,2020-10-02T15:43:10+07:00*%
%TF.ProjectId,ublox ZED-F9P (Full feature),75626c6f-7820-45a4-9544-2d4639502028,V1*%
%TF.SameCoordinates,Original*%
%TF.FileFunction,Legend,Top*%
%TF.FilePolarity,Positive*%
%FSLAX46Y46*%
G04 Gerber Fmt 4.6, Leading zero omitted, Abs format (unit mm)*
G04 Created by KiCad (PCBNEW (5.1.6-0-10_14)) date 2020-10-02 15:43:10*
%MOMM*%
%LPD*%
G01*
G04 APERTURE LIST*
%ADD10C,0.125000*%
%ADD11C,0.190500*%
%ADD12C,0.120000*%
%ADD13C,0.150000*%
%ADD14C,0.141418*%
%ADD15C,0.177800*%
%ADD16C,0.152400*%
%ADD17C,0.203200*%
%ADD18C,0.115824*%
%ADD19C,0.100000*%
%ADD20C,0.108585*%
%ADD21C,0.050000*%
%ADD22R,1.303200X1.203200*%
%ADD23C,1.000000*%
%ADD24R,2.000000X1.250000*%
%ADD25R,1.000000X2.000000*%
%ADD26O,1.000000X2.300000*%
%ADD27O,0.850000X0.600000*%
%ADD28C,0.600000*%
%ADD29O,1.000000X2.000000*%
%ADD30R,0.270000X1.000000*%
%ADD31R,0.520000X1.000000*%
%ADD32R,0.650000X1.060000*%
%ADD33R,1.303200X1.303200*%
%ADD34R,1.723200X1.053200*%
%ADD35R,1.053200X1.723200*%
%ADD36C,3.200000*%
%ADD37R,1.203200X1.203200*%
%ADD38R,4.403200X1.903200*%
%ADD39R,1.500000X2.000000*%
%ADD40R,3.800000X2.000000*%
%ADD41C,2.082800*%
%ADD42R,0.603200X0.903200*%
%ADD43R,1.703200X4.203200*%
%ADD44R,4.203200X1.703200*%
%ADD45R,0.833200X1.033200*%
%ADD46R,1.053200X1.103200*%
G04 APERTURE END LIST*
D10*
X205017857Y-69851190D02*
X205017857Y-69351190D01*
X205208333Y-69351190D01*
X205255952Y-69375000D01*
X205279761Y-69398809D01*
X205303571Y-69446428D01*
X205303571Y-69517857D01*
X205279761Y-69565476D01*
X205255952Y-69589285D01*
X205208333Y-69613095D01*
X205017857Y-69613095D01*
X205517857Y-69851190D02*
X205517857Y-69351190D01*
X205708333Y-69351190D01*
X205755952Y-69375000D01*
X205779761Y-69398809D01*
X205803571Y-69446428D01*
X205803571Y-69517857D01*
X205779761Y-69565476D01*
X205755952Y-69589285D01*
X205708333Y-69613095D01*
X205517857Y-69613095D01*
X205994047Y-69827380D02*
X206065476Y-69851190D01*
X206184523Y-69851190D01*
X206232142Y-69827380D01*
X206255952Y-69803571D01*
X206279761Y-69755952D01*
X206279761Y-69708333D01*
X206255952Y-69660714D01*
X206232142Y-69636904D01*
X206184523Y-69613095D01*
X206089285Y-69589285D01*
X206041666Y-69565476D01*
X206017857Y-69541666D01*
X205994047Y-69494047D01*
X205994047Y-69446428D01*
X206017857Y-69398809D01*
X206041666Y-69375000D01*
X206089285Y-69351190D01*
X206208333Y-69351190D01*
X206279761Y-69375000D01*
X207017857Y-70041666D02*
X206994047Y-70017857D01*
X206946428Y-69946428D01*
X206922619Y-69898809D01*
X206898809Y-69827380D01*
X206875000Y-69708333D01*
X206875000Y-69613095D01*
X206898809Y-69494047D01*
X206922619Y-69422619D01*
X206946428Y-69375000D01*
X206994047Y-69303571D01*
X207017857Y-69279761D01*
X207375000Y-69589285D02*
X207208333Y-69589285D01*
X207208333Y-69851190D02*
X207208333Y-69351190D01*
X207446428Y-69351190D01*
X207660714Y-69851190D02*
X207755952Y-69851190D01*
X207803571Y-69827380D01*
X207827380Y-69803571D01*
X207875000Y-69732142D01*
X207898809Y-69636904D01*
X207898809Y-69446428D01*
X207875000Y-69398809D01*
X207851190Y-69375000D01*
X207803571Y-69351190D01*
X207708333Y-69351190D01*
X207660714Y-69375000D01*
X207636904Y-69398809D01*
X207613095Y-69446428D01*
X207613095Y-69565476D01*
X207636904Y-69613095D01*
X207660714Y-69636904D01*
X207708333Y-69660714D01*
X207803571Y-69660714D01*
X207851190Y-69636904D01*
X207875000Y-69613095D01*
X207898809Y-69565476D01*
X208113095Y-69851190D02*
X208113095Y-69351190D01*
X208113095Y-69589285D02*
X208398809Y-69589285D01*
X208398809Y-69851190D02*
X208398809Y-69351190D01*
X208589285Y-70041666D02*
X208613095Y-70017857D01*
X208660714Y-69946428D01*
X208684523Y-69898809D01*
X208708333Y-69827380D01*
X208732142Y-69708333D01*
X208732142Y-69613095D01*
X208708333Y-69494047D01*
X208684523Y-69422619D01*
X208660714Y-69375000D01*
X208613095Y-69303571D01*
X208589285Y-69279761D01*
X205585714Y-59767857D02*
X205585714Y-60267857D01*
X205585714Y-59791666D02*
X205633333Y-59767857D01*
X205728571Y-59767857D01*
X205776190Y-59791666D01*
X205800000Y-59815476D01*
X205823809Y-59863095D01*
X205823809Y-60005952D01*
X205800000Y-60053571D01*
X205776190Y-60077380D01*
X205728571Y-60101190D01*
X205633333Y-60101190D01*
X205585714Y-60077380D01*
X206109523Y-60101190D02*
X206061904Y-60077380D01*
X206038095Y-60053571D01*
X206014285Y-60005952D01*
X206014285Y-59863095D01*
X206038095Y-59815476D01*
X206061904Y-59791666D01*
X206109523Y-59767857D01*
X206180952Y-59767857D01*
X206228571Y-59791666D01*
X206252380Y-59815476D01*
X206276190Y-59863095D01*
X206276190Y-60005952D01*
X206252380Y-60053571D01*
X206228571Y-60077380D01*
X206180952Y-60101190D01*
X206109523Y-60101190D01*
X206442857Y-59767857D02*
X206538095Y-60101190D01*
X206633333Y-59863095D01*
X206728571Y-60101190D01*
X206823809Y-59767857D01*
X207204761Y-60077380D02*
X207157142Y-60101190D01*
X207061904Y-60101190D01*
X207014285Y-60077380D01*
X206990476Y-60029761D01*
X206990476Y-59839285D01*
X207014285Y-59791666D01*
X207061904Y-59767857D01*
X207157142Y-59767857D01*
X207204761Y-59791666D01*
X207228571Y-59839285D01*
X207228571Y-59886904D01*
X206990476Y-59934523D01*
X207442857Y-60101190D02*
X207442857Y-59767857D01*
X207442857Y-59863095D02*
X207466666Y-59815476D01*
X207490476Y-59791666D01*
X207538095Y-59767857D01*
X207585714Y-59767857D01*
X205226190Y-66526190D02*
X205059523Y-66288095D01*
X204940476Y-66526190D02*
X204940476Y-66026190D01*
X205130952Y-66026190D01*
X205178571Y-66050000D01*
X205202380Y-66073809D01*
X205226190Y-66121428D01*
X205226190Y-66192857D01*
X205202380Y-66240476D01*
X205178571Y-66264285D01*
X205130952Y-66288095D01*
X204940476Y-66288095D01*
X205369047Y-66026190D02*
X205654761Y-66026190D01*
X205511904Y-66526190D02*
X205511904Y-66026190D01*
X205821428Y-66526190D02*
X205821428Y-66026190D01*
X206107142Y-66526190D02*
X205892857Y-66240476D01*
X206107142Y-66026190D02*
X205821428Y-66311904D01*
X206845238Y-66716666D02*
X206821428Y-66692857D01*
X206773809Y-66621428D01*
X206750000Y-66573809D01*
X206726190Y-66502380D01*
X206702380Y-66383333D01*
X206702380Y-66288095D01*
X206726190Y-66169047D01*
X206750000Y-66097619D01*
X206773809Y-66050000D01*
X206821428Y-65978571D01*
X206845238Y-65954761D01*
X207202380Y-66264285D02*
X207035714Y-66264285D01*
X207035714Y-66526190D02*
X207035714Y-66026190D01*
X207273809Y-66026190D01*
X207488095Y-66526190D02*
X207583333Y-66526190D01*
X207630952Y-66502380D01*
X207654761Y-66478571D01*
X207702380Y-66407142D01*
X207726190Y-66311904D01*
X207726190Y-66121428D01*
X207702380Y-66073809D01*
X207678571Y-66050000D01*
X207630952Y-66026190D01*
X207535714Y-66026190D01*
X207488095Y-66050000D01*
X207464285Y-66073809D01*
X207440476Y-66121428D01*
X207440476Y-66240476D01*
X207464285Y-66288095D01*
X207488095Y-66311904D01*
X207535714Y-66335714D01*
X207630952Y-66335714D01*
X207678571Y-66311904D01*
X207702380Y-66288095D01*
X207726190Y-66240476D01*
X207940476Y-66526190D02*
X207940476Y-66026190D01*
X207940476Y-66264285D02*
X208226190Y-66264285D01*
X208226190Y-66526190D02*
X208226190Y-66026190D01*
X208416666Y-66716666D02*
X208440476Y-66692857D01*
X208488095Y-66621428D01*
X208511904Y-66573809D01*
X208535714Y-66502380D01*
X208559523Y-66383333D01*
X208559523Y-66288095D01*
X208535714Y-66169047D01*
X208511904Y-66097619D01*
X208488095Y-66050000D01*
X208440476Y-65978571D01*
X208416666Y-65954761D01*
X202442857Y-62867857D02*
X202633333Y-62867857D01*
X202514285Y-63201190D02*
X202514285Y-62772619D01*
X202538095Y-62725000D01*
X202585714Y-62701190D01*
X202633333Y-62701190D01*
X202990476Y-63177380D02*
X202942857Y-63201190D01*
X202847619Y-63201190D01*
X202800000Y-63177380D01*
X202776190Y-63129761D01*
X202776190Y-62939285D01*
X202800000Y-62891666D01*
X202847619Y-62867857D01*
X202942857Y-62867857D01*
X202990476Y-62891666D01*
X203014285Y-62939285D01*
X203014285Y-62986904D01*
X202776190Y-63034523D01*
X203228571Y-62867857D02*
X203228571Y-63201190D01*
X203228571Y-62915476D02*
X203252380Y-62891666D01*
X203300000Y-62867857D01*
X203371428Y-62867857D01*
X203419047Y-62891666D01*
X203442857Y-62939285D01*
X203442857Y-63201190D01*
X203895238Y-63177380D02*
X203847619Y-63201190D01*
X203752380Y-63201190D01*
X203704761Y-63177380D01*
X203680952Y-63153571D01*
X203657142Y-63105952D01*
X203657142Y-62963095D01*
X203680952Y-62915476D01*
X203704761Y-62891666D01*
X203752380Y-62867857D01*
X203847619Y-62867857D01*
X203895238Y-62891666D01*
X204300000Y-63177380D02*
X204252380Y-63201190D01*
X204157142Y-63201190D01*
X204109523Y-63177380D01*
X204085714Y-63129761D01*
X204085714Y-62939285D01*
X204109523Y-62891666D01*
X204157142Y-62867857D01*
X204252380Y-62867857D01*
X204300000Y-62891666D01*
X204323809Y-62939285D01*
X204323809Y-62986904D01*
X204085714Y-63034523D01*
X204895238Y-63177380D02*
X204942857Y-63201190D01*
X205038095Y-63201190D01*
X205085714Y-63177380D01*
X205109523Y-63129761D01*
X205109523Y-63105952D01*
X205085714Y-63058333D01*
X205038095Y-63034523D01*
X204966666Y-63034523D01*
X204919047Y-63010714D01*
X204895238Y-62963095D01*
X204895238Y-62939285D01*
X204919047Y-62891666D01*
X204966666Y-62867857D01*
X205038095Y-62867857D01*
X205085714Y-62891666D01*
X205252380Y-62867857D02*
X205442857Y-62867857D01*
X205323809Y-62701190D02*
X205323809Y-63129761D01*
X205347619Y-63177380D01*
X205395238Y-63201190D01*
X205442857Y-63201190D01*
X205823809Y-63201190D02*
X205823809Y-62939285D01*
X205800000Y-62891666D01*
X205752380Y-62867857D01*
X205657142Y-62867857D01*
X205609523Y-62891666D01*
X205823809Y-63177380D02*
X205776190Y-63201190D01*
X205657142Y-63201190D01*
X205609523Y-63177380D01*
X205585714Y-63129761D01*
X205585714Y-63082142D01*
X205609523Y-63034523D01*
X205657142Y-63010714D01*
X205776190Y-63010714D01*
X205823809Y-62986904D01*
X205990476Y-62867857D02*
X206180952Y-62867857D01*
X206061904Y-62701190D02*
X206061904Y-63129761D01*
X206085714Y-63177380D01*
X206133333Y-63201190D01*
X206180952Y-63201190D01*
X206871428Y-63391666D02*
X206847619Y-63367857D01*
X206800000Y-63296428D01*
X206776190Y-63248809D01*
X206752380Y-63177380D01*
X206728571Y-63058333D01*
X206728571Y-62963095D01*
X206752380Y-62844047D01*
X206776190Y-62772619D01*
X206800000Y-62725000D01*
X206847619Y-62653571D01*
X206871428Y-62629761D01*
X207228571Y-62939285D02*
X207061904Y-62939285D01*
X207061904Y-63201190D02*
X207061904Y-62701190D01*
X207300000Y-62701190D01*
X207514285Y-63201190D02*
X207609523Y-63201190D01*
X207657142Y-63177380D01*
X207680952Y-63153571D01*
X207728571Y-63082142D01*
X207752380Y-62986904D01*
X207752380Y-62796428D01*
X207728571Y-62748809D01*
X207704761Y-62725000D01*
X207657142Y-62701190D01*
X207561904Y-62701190D01*
X207514285Y-62725000D01*
X207490476Y-62748809D01*
X207466666Y-62796428D01*
X207466666Y-62915476D01*
X207490476Y-62963095D01*
X207514285Y-62986904D01*
X207561904Y-63010714D01*
X207657142Y-63010714D01*
X207704761Y-62986904D01*
X207728571Y-62963095D01*
X207752380Y-62915476D01*
X207966666Y-63201190D02*
X207966666Y-62701190D01*
X207966666Y-62939285D02*
X208252380Y-62939285D01*
X208252380Y-63201190D02*
X208252380Y-62701190D01*
X208442857Y-63391666D02*
X208466666Y-63367857D01*
X208514285Y-63296428D01*
X208538095Y-63248809D01*
X208561904Y-63177380D01*
X208585714Y-63058333D01*
X208585714Y-62963095D01*
X208561904Y-62844047D01*
X208538095Y-62772619D01*
X208514285Y-62725000D01*
X208466666Y-62653571D01*
X208442857Y-62629761D01*
X130129761Y-64626190D02*
X130129761Y-64126190D01*
X130320238Y-64126190D01*
X130367857Y-64150000D01*
X130391666Y-64173809D01*
X130415476Y-64221428D01*
X130415476Y-64292857D01*
X130391666Y-64340476D01*
X130367857Y-64364285D01*
X130320238Y-64388095D01*
X130129761Y-64388095D01*
X130629761Y-64626190D02*
X130629761Y-64126190D01*
X130820238Y-64126190D01*
X130867857Y-64150000D01*
X130891666Y-64173809D01*
X130915476Y-64221428D01*
X130915476Y-64292857D01*
X130891666Y-64340476D01*
X130867857Y-64364285D01*
X130820238Y-64388095D01*
X130629761Y-64388095D01*
X131105952Y-64602380D02*
X131177380Y-64626190D01*
X131296428Y-64626190D01*
X131344047Y-64602380D01*
X131367857Y-64578571D01*
X131391666Y-64530952D01*
X131391666Y-64483333D01*
X131367857Y-64435714D01*
X131344047Y-64411904D01*
X131296428Y-64388095D01*
X131201190Y-64364285D01*
X131153571Y-64340476D01*
X131129761Y-64316666D01*
X131105952Y-64269047D01*
X131105952Y-64221428D01*
X131129761Y-64173809D01*
X131153571Y-64150000D01*
X131201190Y-64126190D01*
X131320238Y-64126190D01*
X131391666Y-64150000D01*
X132129761Y-64816666D02*
X132105952Y-64792857D01*
X132058333Y-64721428D01*
X132034523Y-64673809D01*
X132010714Y-64602380D01*
X131986904Y-64483333D01*
X131986904Y-64388095D01*
X132010714Y-64269047D01*
X132034523Y-64197619D01*
X132058333Y-64150000D01*
X132105952Y-64078571D01*
X132129761Y-64054761D01*
X132486904Y-64364285D02*
X132320238Y-64364285D01*
X132320238Y-64626190D02*
X132320238Y-64126190D01*
X132558333Y-64126190D01*
X132772619Y-64626190D02*
X132867857Y-64626190D01*
X132915476Y-64602380D01*
X132939285Y-64578571D01*
X132986904Y-64507142D01*
X133010714Y-64411904D01*
X133010714Y-64221428D01*
X132986904Y-64173809D01*
X132963095Y-64150000D01*
X132915476Y-64126190D01*
X132820238Y-64126190D01*
X132772619Y-64150000D01*
X132748809Y-64173809D01*
X132725000Y-64221428D01*
X132725000Y-64340476D01*
X132748809Y-64388095D01*
X132772619Y-64411904D01*
X132820238Y-64435714D01*
X132915476Y-64435714D01*
X132963095Y-64411904D01*
X132986904Y-64388095D01*
X133010714Y-64340476D01*
X133225000Y-64626190D02*
X133225000Y-64126190D01*
X133415476Y-64126190D01*
X133463095Y-64150000D01*
X133486904Y-64173809D01*
X133510714Y-64221428D01*
X133510714Y-64292857D01*
X133486904Y-64340476D01*
X133463095Y-64364285D01*
X133415476Y-64388095D01*
X133225000Y-64388095D01*
X133677380Y-64816666D02*
X133701190Y-64792857D01*
X133748809Y-64721428D01*
X133772619Y-64673809D01*
X133796428Y-64602380D01*
X133820238Y-64483333D01*
X133820238Y-64388095D01*
X133796428Y-64269047D01*
X133772619Y-64197619D01*
X133748809Y-64150000D01*
X133701190Y-64078571D01*
X133677380Y-64054761D01*
X130363095Y-62101190D02*
X130196428Y-61863095D01*
X130077380Y-62101190D02*
X130077380Y-61601190D01*
X130267857Y-61601190D01*
X130315476Y-61625000D01*
X130339285Y-61648809D01*
X130363095Y-61696428D01*
X130363095Y-61767857D01*
X130339285Y-61815476D01*
X130315476Y-61839285D01*
X130267857Y-61863095D01*
X130077380Y-61863095D01*
X130505952Y-61601190D02*
X130791666Y-61601190D01*
X130648809Y-62101190D02*
X130648809Y-61601190D01*
X130958333Y-62101190D02*
X130958333Y-61601190D01*
X131244047Y-62101190D02*
X131029761Y-61815476D01*
X131244047Y-61601190D02*
X130958333Y-61886904D01*
X131982142Y-62291666D02*
X131958333Y-62267857D01*
X131910714Y-62196428D01*
X131886904Y-62148809D01*
X131863095Y-62077380D01*
X131839285Y-61958333D01*
X131839285Y-61863095D01*
X131863095Y-61744047D01*
X131886904Y-61672619D01*
X131910714Y-61625000D01*
X131958333Y-61553571D01*
X131982142Y-61529761D01*
X132339285Y-61839285D02*
X132172619Y-61839285D01*
X132172619Y-62101190D02*
X132172619Y-61601190D01*
X132410714Y-61601190D01*
X132625000Y-62101190D02*
X132720238Y-62101190D01*
X132767857Y-62077380D01*
X132791666Y-62053571D01*
X132839285Y-61982142D01*
X132863095Y-61886904D01*
X132863095Y-61696428D01*
X132839285Y-61648809D01*
X132815476Y-61625000D01*
X132767857Y-61601190D01*
X132672619Y-61601190D01*
X132625000Y-61625000D01*
X132601190Y-61648809D01*
X132577380Y-61696428D01*
X132577380Y-61815476D01*
X132601190Y-61863095D01*
X132625000Y-61886904D01*
X132672619Y-61910714D01*
X132767857Y-61910714D01*
X132815476Y-61886904D01*
X132839285Y-61863095D01*
X132863095Y-61815476D01*
X133077380Y-62101190D02*
X133077380Y-61601190D01*
X133267857Y-61601190D01*
X133315476Y-61625000D01*
X133339285Y-61648809D01*
X133363095Y-61696428D01*
X133363095Y-61767857D01*
X133339285Y-61815476D01*
X133315476Y-61839285D01*
X133267857Y-61863095D01*
X133077380Y-61863095D01*
X133529761Y-62291666D02*
X133553571Y-62267857D01*
X133601190Y-62196428D01*
X133625000Y-62148809D01*
X133648809Y-62077380D01*
X133672619Y-61958333D01*
X133672619Y-61863095D01*
X133648809Y-61744047D01*
X133625000Y-61672619D01*
X133601190Y-61625000D01*
X133553571Y-61553571D01*
X133529761Y-61529761D01*
X129854761Y-58742857D02*
X130045238Y-58742857D01*
X129926190Y-59076190D02*
X129926190Y-58647619D01*
X129950000Y-58600000D01*
X129997619Y-58576190D01*
X130045238Y-58576190D01*
X130402380Y-59052380D02*
X130354761Y-59076190D01*
X130259523Y-59076190D01*
X130211904Y-59052380D01*
X130188095Y-59004761D01*
X130188095Y-58814285D01*
X130211904Y-58766666D01*
X130259523Y-58742857D01*
X130354761Y-58742857D01*
X130402380Y-58766666D01*
X130426190Y-58814285D01*
X130426190Y-58861904D01*
X130188095Y-58909523D01*
X130640476Y-58742857D02*
X130640476Y-59076190D01*
X130640476Y-58790476D02*
X130664285Y-58766666D01*
X130711904Y-58742857D01*
X130783333Y-58742857D01*
X130830952Y-58766666D01*
X130854761Y-58814285D01*
X130854761Y-59076190D01*
X131307142Y-59052380D02*
X131259523Y-59076190D01*
X131164285Y-59076190D01*
X131116666Y-59052380D01*
X131092857Y-59028571D01*
X131069047Y-58980952D01*
X131069047Y-58838095D01*
X131092857Y-58790476D01*
X131116666Y-58766666D01*
X131164285Y-58742857D01*
X131259523Y-58742857D01*
X131307142Y-58766666D01*
X131711904Y-59052380D02*
X131664285Y-59076190D01*
X131569047Y-59076190D01*
X131521428Y-59052380D01*
X131497619Y-59004761D01*
X131497619Y-58814285D01*
X131521428Y-58766666D01*
X131569047Y-58742857D01*
X131664285Y-58742857D01*
X131711904Y-58766666D01*
X131735714Y-58814285D01*
X131735714Y-58861904D01*
X131497619Y-58909523D01*
X132307142Y-59052380D02*
X132354761Y-59076190D01*
X132450000Y-59076190D01*
X132497619Y-59052380D01*
X132521428Y-59004761D01*
X132521428Y-58980952D01*
X132497619Y-58933333D01*
X132450000Y-58909523D01*
X132378571Y-58909523D01*
X132330952Y-58885714D01*
X132307142Y-58838095D01*
X132307142Y-58814285D01*
X132330952Y-58766666D01*
X132378571Y-58742857D01*
X132450000Y-58742857D01*
X132497619Y-58766666D01*
X132664285Y-58742857D02*
X132854761Y-58742857D01*
X132735714Y-58576190D02*
X132735714Y-59004761D01*
X132759523Y-59052380D01*
X132807142Y-59076190D01*
X132854761Y-59076190D01*
X133235714Y-59076190D02*
X133235714Y-58814285D01*
X133211904Y-58766666D01*
X133164285Y-58742857D01*
X133069047Y-58742857D01*
X133021428Y-58766666D01*
X133235714Y-59052380D02*
X133188095Y-59076190D01*
X133069047Y-59076190D01*
X133021428Y-59052380D01*
X132997619Y-59004761D01*
X132997619Y-58957142D01*
X133021428Y-58909523D01*
X133069047Y-58885714D01*
X133188095Y-58885714D01*
X133235714Y-58861904D01*
X133402380Y-58742857D02*
X133592857Y-58742857D01*
X133473809Y-58576190D02*
X133473809Y-59004761D01*
X133497619Y-59052380D01*
X133545238Y-59076190D01*
X133592857Y-59076190D01*
X134283333Y-59266666D02*
X134259523Y-59242857D01*
X134211904Y-59171428D01*
X134188095Y-59123809D01*
X134164285Y-59052380D01*
X134140476Y-58933333D01*
X134140476Y-58838095D01*
X134164285Y-58719047D01*
X134188095Y-58647619D01*
X134211904Y-58600000D01*
X134259523Y-58528571D01*
X134283333Y-58504761D01*
X134640476Y-58814285D02*
X134473809Y-58814285D01*
X134473809Y-59076190D02*
X134473809Y-58576190D01*
X134711904Y-58576190D01*
X134926190Y-59076190D02*
X135021428Y-59076190D01*
X135069047Y-59052380D01*
X135092857Y-59028571D01*
X135140476Y-58957142D01*
X135164285Y-58861904D01*
X135164285Y-58671428D01*
X135140476Y-58623809D01*
X135116666Y-58600000D01*
X135069047Y-58576190D01*
X134973809Y-58576190D01*
X134926190Y-58600000D01*
X134902380Y-58623809D01*
X134878571Y-58671428D01*
X134878571Y-58790476D01*
X134902380Y-58838095D01*
X134926190Y-58861904D01*
X134973809Y-58885714D01*
X135069047Y-58885714D01*
X135116666Y-58861904D01*
X135140476Y-58838095D01*
X135164285Y-58790476D01*
X135378571Y-59076190D02*
X135378571Y-58576190D01*
X135569047Y-58576190D01*
X135616666Y-58600000D01*
X135640476Y-58623809D01*
X135664285Y-58671428D01*
X135664285Y-58742857D01*
X135640476Y-58790476D01*
X135616666Y-58814285D01*
X135569047Y-58838095D01*
X135378571Y-58838095D01*
X135830952Y-59266666D02*
X135854761Y-59242857D01*
X135902380Y-59171428D01*
X135926190Y-59123809D01*
X135950000Y-59052380D01*
X135973809Y-58933333D01*
X135973809Y-58838095D01*
X135950000Y-58719047D01*
X135926190Y-58647619D01*
X135902380Y-58600000D01*
X135854761Y-58528571D01*
X135830952Y-58504761D01*
D11*
X155584071Y-96991714D02*
X156092071Y-96991714D01*
X155584071Y-97753714D01*
X156092071Y-97753714D01*
X156382357Y-97354571D02*
X156636357Y-97354571D01*
X156745214Y-97753714D02*
X156382357Y-97753714D01*
X156382357Y-96991714D01*
X156745214Y-96991714D01*
X157071785Y-97753714D02*
X157071785Y-96991714D01*
X157253214Y-96991714D01*
X157362071Y-97028000D01*
X157434642Y-97100571D01*
X157470928Y-97173142D01*
X157507214Y-97318285D01*
X157507214Y-97427142D01*
X157470928Y-97572285D01*
X157434642Y-97644857D01*
X157362071Y-97717428D01*
X157253214Y-97753714D01*
X157071785Y-97753714D01*
X157833785Y-97463428D02*
X158414357Y-97463428D01*
X159031214Y-97354571D02*
X158777214Y-97354571D01*
X158777214Y-97753714D02*
X158777214Y-96991714D01*
X159140071Y-96991714D01*
X159466642Y-97753714D02*
X159611785Y-97753714D01*
X159684357Y-97717428D01*
X159720642Y-97681142D01*
X159793214Y-97572285D01*
X159829500Y-97427142D01*
X159829500Y-97136857D01*
X159793214Y-97064285D01*
X159756928Y-97028000D01*
X159684357Y-96991714D01*
X159539214Y-96991714D01*
X159466642Y-97028000D01*
X159430357Y-97064285D01*
X159394071Y-97136857D01*
X159394071Y-97318285D01*
X159430357Y-97390857D01*
X159466642Y-97427142D01*
X159539214Y-97463428D01*
X159684357Y-97463428D01*
X159756928Y-97427142D01*
X159793214Y-97390857D01*
X159829500Y-97318285D01*
X160083500Y-97753714D02*
X160482642Y-97245714D01*
X160083500Y-97245714D02*
X160482642Y-97753714D01*
X161752642Y-97028000D02*
X161680071Y-96991714D01*
X161571214Y-96991714D01*
X161462357Y-97028000D01*
X161389785Y-97100571D01*
X161353500Y-97173142D01*
X161317214Y-97318285D01*
X161317214Y-97427142D01*
X161353500Y-97572285D01*
X161389785Y-97644857D01*
X161462357Y-97717428D01*
X161571214Y-97753714D01*
X161643785Y-97753714D01*
X161752642Y-97717428D01*
X161788928Y-97681142D01*
X161788928Y-97427142D01*
X161643785Y-97427142D01*
X162115500Y-97753714D02*
X162115500Y-96991714D01*
X162550928Y-97753714D01*
X162550928Y-96991714D01*
X162877500Y-97717428D02*
X162986357Y-97753714D01*
X163167785Y-97753714D01*
X163240357Y-97717428D01*
X163276642Y-97681142D01*
X163312928Y-97608571D01*
X163312928Y-97536000D01*
X163276642Y-97463428D01*
X163240357Y-97427142D01*
X163167785Y-97390857D01*
X163022642Y-97354571D01*
X162950071Y-97318285D01*
X162913785Y-97282000D01*
X162877500Y-97209428D01*
X162877500Y-97136857D01*
X162913785Y-97064285D01*
X162950071Y-97028000D01*
X163022642Y-96991714D01*
X163204071Y-96991714D01*
X163312928Y-97028000D01*
X163603214Y-97717428D02*
X163712071Y-97753714D01*
X163893500Y-97753714D01*
X163966071Y-97717428D01*
X164002357Y-97681142D01*
X164038642Y-97608571D01*
X164038642Y-97536000D01*
X164002357Y-97463428D01*
X163966071Y-97427142D01*
X163893500Y-97390857D01*
X163748357Y-97354571D01*
X163675785Y-97318285D01*
X163639500Y-97282000D01*
X163603214Y-97209428D01*
X163603214Y-97136857D01*
X163639500Y-97064285D01*
X163675785Y-97028000D01*
X163748357Y-96991714D01*
X163929785Y-96991714D01*
X164038642Y-97028000D01*
X164945785Y-97753714D02*
X164945785Y-96991714D01*
X165199785Y-97536000D01*
X165453785Y-96991714D01*
X165453785Y-97753714D01*
X165925500Y-97753714D02*
X165852928Y-97717428D01*
X165816642Y-97681142D01*
X165780357Y-97608571D01*
X165780357Y-97390857D01*
X165816642Y-97318285D01*
X165852928Y-97282000D01*
X165925500Y-97245714D01*
X166034357Y-97245714D01*
X166106928Y-97282000D01*
X166143214Y-97318285D01*
X166179500Y-97390857D01*
X166179500Y-97608571D01*
X166143214Y-97681142D01*
X166106928Y-97717428D01*
X166034357Y-97753714D01*
X165925500Y-97753714D01*
X166832642Y-97753714D02*
X166832642Y-96991714D01*
X166832642Y-97717428D02*
X166760071Y-97753714D01*
X166614928Y-97753714D01*
X166542357Y-97717428D01*
X166506071Y-97681142D01*
X166469785Y-97608571D01*
X166469785Y-97390857D01*
X166506071Y-97318285D01*
X166542357Y-97282000D01*
X166614928Y-97245714D01*
X166760071Y-97245714D01*
X166832642Y-97282000D01*
X167522071Y-97245714D02*
X167522071Y-97753714D01*
X167195500Y-97245714D02*
X167195500Y-97644857D01*
X167231785Y-97717428D01*
X167304357Y-97753714D01*
X167413214Y-97753714D01*
X167485785Y-97717428D01*
X167522071Y-97681142D01*
X167993785Y-97753714D02*
X167921214Y-97717428D01*
X167884928Y-97644857D01*
X167884928Y-96991714D01*
X168574357Y-97717428D02*
X168501785Y-97753714D01*
X168356642Y-97753714D01*
X168284071Y-97717428D01*
X168247785Y-97644857D01*
X168247785Y-97354571D01*
X168284071Y-97282000D01*
X168356642Y-97245714D01*
X168501785Y-97245714D01*
X168574357Y-97282000D01*
X168610642Y-97354571D01*
X168610642Y-97427142D01*
X168247785Y-97499714D01*
X169408928Y-96991714D02*
X169662928Y-97753714D01*
X169916928Y-96991714D01*
X170570071Y-97753714D02*
X170134642Y-97753714D01*
X170352357Y-97753714D02*
X170352357Y-96991714D01*
X170279785Y-97100571D01*
X170207214Y-97173142D01*
X170134642Y-97209428D01*
X170896642Y-97681142D02*
X170932928Y-97717428D01*
X170896642Y-97753714D01*
X170860357Y-97717428D01*
X170896642Y-97681142D01*
X170896642Y-97753714D01*
X171404642Y-96991714D02*
X171477214Y-96991714D01*
X171549785Y-97028000D01*
X171586071Y-97064285D01*
X171622357Y-97136857D01*
X171658642Y-97282000D01*
X171658642Y-97463428D01*
X171622357Y-97608571D01*
X171586071Y-97681142D01*
X171549785Y-97717428D01*
X171477214Y-97753714D01*
X171404642Y-97753714D01*
X171332071Y-97717428D01*
X171295785Y-97681142D01*
X171259500Y-97608571D01*
X171223214Y-97463428D01*
X171223214Y-97282000D01*
X171259500Y-97136857D01*
X171295785Y-97064285D01*
X171332071Y-97028000D01*
X171404642Y-96991714D01*
D12*
%TO.C,R14*%
X152328733Y-92010000D02*
X152671267Y-92010000D01*
X152328733Y-90990000D02*
X152671267Y-90990000D01*
%TO.C,R7*%
X181628733Y-91235000D02*
X181971267Y-91235000D01*
X181628733Y-90215000D02*
X181971267Y-90215000D01*
%TO.C,R27*%
X180678733Y-71210000D02*
X181021267Y-71210000D01*
X180678733Y-70190000D02*
X181021267Y-70190000D01*
%TO.C,C11*%
X188172467Y-68988400D02*
X187829933Y-68988400D01*
X188172467Y-70008400D02*
X187829933Y-70008400D01*
%TO.C,C10*%
X187806333Y-71684800D02*
X188148867Y-71684800D01*
X187806333Y-70664800D02*
X188148867Y-70664800D01*
%TO.C,C5*%
X184310000Y-70071267D02*
X184310000Y-69728733D01*
X183290000Y-70071267D02*
X183290000Y-69728733D01*
%TO.C,C4*%
X180678733Y-69610000D02*
X181021267Y-69610000D01*
X180678733Y-68590000D02*
X181021267Y-68590000D01*
%TO.C,C3*%
X132458467Y-94292500D02*
X132115933Y-94292500D01*
X132458467Y-95312500D02*
X132115933Y-95312500D01*
%TO.C,R13*%
X124258467Y-58279400D02*
X123915933Y-58279400D01*
X124258467Y-59299400D02*
X123915933Y-59299400D01*
%TO.C,R12*%
X124258467Y-61168600D02*
X123915933Y-61168600D01*
X124258467Y-62188600D02*
X123915933Y-62188600D01*
%TO.C,R11*%
X124258467Y-63858600D02*
X123915933Y-63858600D01*
X124258467Y-64878600D02*
X123915933Y-64878600D01*
%TO.C,TP4*%
X176800000Y-60300000D02*
G75*
G03*
X176800000Y-60300000I-700000J0D01*
G01*
%TO.C,R21*%
X126930867Y-72134000D02*
X126588333Y-72134000D01*
X126930867Y-73154000D02*
X126588333Y-73154000D01*
%TO.C,R20*%
X126930867Y-77214000D02*
X126588333Y-77214000D01*
X126930867Y-78234000D02*
X126588333Y-78234000D01*
%TO.C,R19*%
X126930867Y-74674000D02*
X126588333Y-74674000D01*
X126930867Y-75694000D02*
X126588333Y-75694000D01*
%TO.C,R18*%
X126930867Y-79754000D02*
X126588333Y-79754000D01*
X126930867Y-80774000D02*
X126588333Y-80774000D01*
%TO.C,R6*%
X199188800Y-69144067D02*
X199188800Y-68801533D01*
X198168800Y-69144067D02*
X198168800Y-68801533D01*
%TO.C,R4*%
X197410800Y-69144067D02*
X197410800Y-68801533D01*
X196390800Y-69144067D02*
X196390800Y-68801533D01*
%TO.C,C6*%
X144935000Y-67878733D02*
X144935000Y-68221267D01*
X143915000Y-67878733D02*
X143915000Y-68221267D01*
%TO.C,R32*%
X203362013Y-84681600D02*
X203704547Y-84681600D01*
X203362013Y-85701600D02*
X203704547Y-85701600D01*
%TO.C,R8*%
X160593500Y-66616733D02*
X160593500Y-66959267D01*
X159573500Y-66616733D02*
X159573500Y-66959267D01*
%TO.C,R25*%
X126930867Y-68074000D02*
X126588333Y-68074000D01*
X126930867Y-67054000D02*
X126588333Y-67054000D01*
%TO.C,R24*%
X126930867Y-70614000D02*
X126588333Y-70614000D01*
X126930867Y-69594000D02*
X126588333Y-69594000D01*
%TO.C,R33*%
X203493373Y-79601600D02*
X203835907Y-79601600D01*
X203493373Y-80621600D02*
X203835907Y-80621600D01*
%TO.C,R29*%
X203296333Y-87221600D02*
X203638867Y-87221600D01*
X203296333Y-88241600D02*
X203638867Y-88241600D01*
%TO.C,R28*%
X203427693Y-82141600D02*
X203770227Y-82141600D01*
X203427693Y-83161600D02*
X203770227Y-83161600D01*
%TO.C,R1*%
X203204467Y-61751800D02*
X202861933Y-61751800D01*
X203204467Y-60731800D02*
X202861933Y-60731800D01*
%TO.C,R37*%
X203354467Y-64612500D02*
X203011933Y-64612500D01*
X203354467Y-63592500D02*
X203011933Y-63592500D01*
%TO.C,R36*%
X203393467Y-68041500D02*
X203050933Y-68041500D01*
X203393467Y-67021500D02*
X203050933Y-67021500D01*
%TO.C,R35*%
X203354467Y-71343500D02*
X203011933Y-71343500D01*
X203354467Y-70323500D02*
X203011933Y-70323500D01*
%TO.C,R31*%
X203559053Y-74521600D02*
X203901587Y-74521600D01*
X203559053Y-75541600D02*
X203901587Y-75541600D01*
%TO.C,R30*%
X203624733Y-77061600D02*
X203967267Y-77061600D01*
X203624733Y-78081600D02*
X203967267Y-78081600D01*
%TO.C,R39*%
X141221267Y-76510000D02*
X140878733Y-76510000D01*
X141221267Y-75490000D02*
X140878733Y-75490000D01*
%TO.C,R38*%
X141221267Y-74760000D02*
X140878733Y-74760000D01*
X141221267Y-73740000D02*
X140878733Y-73740000D01*
%TO.C,R23*%
X167990000Y-72821267D02*
X167990000Y-72478733D01*
X169010000Y-72821267D02*
X169010000Y-72478733D01*
%TO.C,R22*%
X169890000Y-72771267D02*
X169890000Y-72428733D01*
X170910000Y-72771267D02*
X170910000Y-72428733D01*
%TO.C,R17*%
X150298867Y-63146400D02*
X149956333Y-63146400D01*
X150298867Y-62126400D02*
X149956333Y-62126400D01*
%TO.C,R16*%
X140333000Y-63581467D02*
X140333000Y-63238933D01*
X141353000Y-63581467D02*
X141353000Y-63238933D01*
%TO.C,R3*%
X165999367Y-62795500D02*
X165656833Y-62795500D01*
X165999367Y-61775500D02*
X165656833Y-61775500D01*
%TO.C,R2*%
X158087600Y-62933767D02*
X158087600Y-62591233D01*
X159107600Y-62933767D02*
X159107600Y-62591233D01*
%TO.C,C9*%
X162435000Y-66630733D02*
X162435000Y-66973267D01*
X161415000Y-66630733D02*
X161415000Y-66973267D01*
D13*
%TO.C,D1*%
X189850000Y-64850000D02*
X189850000Y-62850000D01*
X191150000Y-62850000D02*
X191150000Y-64850000D01*
X191150000Y-64650000D02*
X189850000Y-64650000D01*
X189850000Y-64450000D02*
X191150000Y-64450000D01*
X191150000Y-64850000D02*
X189850000Y-64850000D01*
X191750000Y-66600000D02*
X189250000Y-66600000D01*
D12*
%TO.C,C2*%
X152128733Y-70090000D02*
X152471267Y-70090000D01*
X152128733Y-71110000D02*
X152471267Y-71110000D01*
%TO.C,C7*%
X152471267Y-69360000D02*
X152128733Y-69360000D01*
X152471267Y-68340000D02*
X152128733Y-68340000D01*
%TO.C,R26*%
X164149500Y-66616733D02*
X164149500Y-66959267D01*
X163129500Y-66616733D02*
X163129500Y-66959267D01*
D13*
%TO.C,D8*%
X172000000Y-61750000D02*
X174500000Y-61750000D01*
X172600000Y-63500000D02*
X173900000Y-63500000D01*
X173900000Y-63900000D02*
X172600000Y-63900000D01*
X172600000Y-63700000D02*
X173900000Y-63700000D01*
X172600000Y-65500000D02*
X172600000Y-63500000D01*
X173900000Y-63500000D02*
X173900000Y-65500000D01*
%TO.C,D7*%
X174500000Y-61175000D02*
X172000000Y-61175000D01*
X173900000Y-59425000D02*
X172600000Y-59425000D01*
X172600000Y-59025000D02*
X173900000Y-59025000D01*
X173900000Y-59225000D02*
X172600000Y-59225000D01*
X173900000Y-57425000D02*
X173900000Y-59425000D01*
X172600000Y-59425000D02*
X172600000Y-57425000D01*
D12*
%TO.C,R15*%
X152471267Y-67585000D02*
X152128733Y-67585000D01*
X152471267Y-66565000D02*
X152128733Y-66565000D01*
%TO.C,R9*%
X143185000Y-67878733D02*
X143185000Y-68221267D01*
X142165000Y-67878733D02*
X142165000Y-68221267D01*
%TO.C,P2*%
X156036000Y-58576400D02*
X156036000Y-56178900D01*
X156036000Y-54828900D02*
X156036000Y-51778900D01*
X166036000Y-58576400D02*
X166036000Y-56178900D01*
X166036000Y-54828900D02*
X166036000Y-51778900D01*
X164247803Y-58576400D02*
G75*
G03*
X164247803Y-58576400I-111803J0D01*
G01*
X166036000Y-58576400D02*
X164936000Y-58576400D01*
X157136000Y-58576400D02*
X156036000Y-58576400D01*
%TO.C,P1*%
X140262600Y-58576400D02*
X140262600Y-56178900D01*
X140262600Y-54828900D02*
X140262600Y-51778900D01*
X150262600Y-58576400D02*
X150262600Y-56178900D01*
X150262600Y-54828900D02*
X150262600Y-51778900D01*
X148474403Y-58576400D02*
G75*
G03*
X148474403Y-58576400I-111803J0D01*
G01*
X150262600Y-58576400D02*
X149162600Y-58576400D01*
X141362600Y-58576400D02*
X140262600Y-58576400D01*
%TO.C,R10*%
X146685000Y-67853733D02*
X146685000Y-68196267D01*
X145665000Y-67853733D02*
X145665000Y-68196267D01*
%TO.C,D5*%
X160340400Y-61901500D02*
X160340400Y-63701500D01*
X163560400Y-63701500D02*
X163560400Y-61251500D01*
%TO.C,TP3*%
X139104600Y-60883800D02*
G75*
G03*
X139104600Y-60883800I-700000J0D01*
G01*
%TO.C,TP2*%
X157049700Y-60553600D02*
G75*
G03*
X157049700Y-60553600I-700000J0D01*
G01*
%TO.C,TP1*%
X194500000Y-68300000D02*
G75*
G03*
X194500000Y-68300000I-700000J0D01*
G01*
%TO.C,D6*%
X142880400Y-62760200D02*
X142880400Y-64560200D01*
X146100400Y-64560200D02*
X146100400Y-62110200D01*
D14*
%TO.C,U4*%
X172874709Y-89475200D02*
G75*
G03*
X172874709Y-89475200I-70709J0D01*
G01*
D15*
X193204000Y-72225200D02*
X195654000Y-72225200D01*
X195654000Y-72225200D02*
X195654000Y-74175200D01*
X195654000Y-87775200D02*
X195654000Y-89725200D01*
X195654000Y-89725200D02*
X193204000Y-89725200D01*
X175604000Y-89725200D02*
X173154000Y-89725200D01*
X173154000Y-89725200D02*
X173154000Y-87775200D01*
X173154000Y-74175200D02*
X173154000Y-72225200D01*
X173154000Y-72225200D02*
X175604000Y-72225200D01*
D16*
%TO.C,BT1*%
X135517001Y-93299700D02*
G75*
G03*
X135390000Y-94442700I1562856J-752207D01*
G01*
X139530198Y-92486898D02*
G75*
G02*
X137599800Y-96500100I-1733173J-1637196D01*
G01*
D14*
%TO.C,U3*%
X143359909Y-89526000D02*
G75*
G03*
X143359909Y-89526000I-70709J0D01*
G01*
D15*
X163689200Y-72276000D02*
X166139200Y-72276000D01*
X166139200Y-72276000D02*
X166139200Y-74226000D01*
X166139200Y-87826000D02*
X166139200Y-89776000D01*
X166139200Y-89776000D02*
X163689200Y-89776000D01*
X146089200Y-89776000D02*
X143639200Y-89776000D01*
X143639200Y-89776000D02*
X143639200Y-87826000D01*
X143639200Y-74226000D02*
X143639200Y-72276000D01*
X143639200Y-72276000D02*
X146089200Y-72276000D01*
D12*
%TO.C,U1*%
X184910000Y-61740000D02*
X183650000Y-61740000D01*
X178090000Y-61740000D02*
X179350000Y-61740000D01*
X184910000Y-65500000D02*
X184910000Y-61740000D01*
X178090000Y-67750000D02*
X178090000Y-61740000D01*
D17*
%TO.C,LED1*%
X208204500Y-60737750D02*
X208204500Y-61690250D01*
D12*
%TO.C,J7*%
X187044200Y-53476800D02*
X187044200Y-54926800D01*
X187044200Y-54926800D02*
X185244200Y-54926800D01*
X185244200Y-54926800D02*
X185244200Y-55916800D01*
X176074200Y-53476800D02*
X176074200Y-54926800D01*
X176074200Y-54926800D02*
X177874200Y-54926800D01*
X185774200Y-50656800D02*
X177344200Y-50656800D01*
%TO.C,J4*%
X200097200Y-54388800D02*
X200097200Y-54838800D01*
X200097200Y-54838800D02*
X199147200Y-54838800D01*
X199147200Y-54838800D02*
X199147200Y-56328800D01*
X190627200Y-54388800D02*
X190627200Y-54838800D01*
X190627200Y-54838800D02*
X191577200Y-54838800D01*
X200097200Y-50868800D02*
X200097200Y-50418800D01*
X200097200Y-50418800D02*
X190627200Y-50418800D01*
X190627200Y-50418800D02*
X190627200Y-50868800D01*
D17*
%TO.C,LED7*%
X208089500Y-63626250D02*
X208089500Y-64578750D01*
%TO.C,LED6*%
X208228500Y-67055250D02*
X208228500Y-68007750D01*
%TO.C,LED5*%
X208228500Y-70357250D02*
X208228500Y-71309750D01*
%TO.C,LED4*%
X129318700Y-58313150D02*
X129318700Y-59265650D01*
%TO.C,LED3*%
X129318700Y-61202350D02*
X129318700Y-62154850D01*
%TO.C,D2*%
X130727000Y-89707100D02*
X130727000Y-90957100D01*
X131597000Y-89707100D02*
X133397000Y-89707100D01*
X131597000Y-90957100D02*
X133397000Y-90957100D01*
%TO.C,LED2*%
X129294100Y-63892350D02*
X129294100Y-64844850D01*
%TO.C,R5*%
D18*
X132190680Y-93250922D02*
X131997640Y-92975151D01*
X131859754Y-93250922D02*
X131859754Y-92671802D01*
X132080371Y-92671802D01*
X132135525Y-92699380D01*
X132163102Y-92726957D01*
X132190680Y-92782111D01*
X132190680Y-92864842D01*
X132163102Y-92919997D01*
X132135525Y-92947574D01*
X132080371Y-92975151D01*
X131859754Y-92975151D01*
X132714645Y-92671802D02*
X132438874Y-92671802D01*
X132411297Y-92947574D01*
X132438874Y-92919997D01*
X132494028Y-92892420D01*
X132631914Y-92892420D01*
X132687068Y-92919997D01*
X132714645Y-92947574D01*
X132742222Y-93002728D01*
X132742222Y-93140614D01*
X132714645Y-93195768D01*
X132687068Y-93223345D01*
X132631914Y-93250922D01*
X132494028Y-93250922D01*
X132438874Y-93223345D01*
X132411297Y-93195768D01*
%TO.C,R14*%
D13*
X151632142Y-93652380D02*
X151298809Y-93176190D01*
X151060714Y-93652380D02*
X151060714Y-92652380D01*
X151441666Y-92652380D01*
X151536904Y-92700000D01*
X151584523Y-92747619D01*
X151632142Y-92842857D01*
X151632142Y-92985714D01*
X151584523Y-93080952D01*
X151536904Y-93128571D01*
X151441666Y-93176190D01*
X151060714Y-93176190D01*
X152584523Y-93652380D02*
X152013095Y-93652380D01*
X152298809Y-93652380D02*
X152298809Y-92652380D01*
X152203571Y-92795238D01*
X152108333Y-92890476D01*
X152013095Y-92938095D01*
X153441666Y-92985714D02*
X153441666Y-93652380D01*
X153203571Y-92604761D02*
X152965476Y-93319047D01*
X153584523Y-93319047D01*
%TO.C,R7*%
X181633333Y-92852380D02*
X181300000Y-92376190D01*
X181061904Y-92852380D02*
X181061904Y-91852380D01*
X181442857Y-91852380D01*
X181538095Y-91900000D01*
X181585714Y-91947619D01*
X181633333Y-92042857D01*
X181633333Y-92185714D01*
X181585714Y-92280952D01*
X181538095Y-92328571D01*
X181442857Y-92376190D01*
X181061904Y-92376190D01*
X181966666Y-91852380D02*
X182633333Y-91852380D01*
X182204761Y-92852380D01*
%TO.C,R27*%
X177077142Y-71192380D02*
X176743809Y-70716190D01*
X176505714Y-71192380D02*
X176505714Y-70192380D01*
X176886666Y-70192380D01*
X176981904Y-70240000D01*
X177029523Y-70287619D01*
X177077142Y-70382857D01*
X177077142Y-70525714D01*
X177029523Y-70620952D01*
X176981904Y-70668571D01*
X176886666Y-70716190D01*
X176505714Y-70716190D01*
X177458095Y-70287619D02*
X177505714Y-70240000D01*
X177600952Y-70192380D01*
X177839047Y-70192380D01*
X177934285Y-70240000D01*
X177981904Y-70287619D01*
X178029523Y-70382857D01*
X178029523Y-70478095D01*
X177981904Y-70620952D01*
X177410476Y-71192380D01*
X178029523Y-71192380D01*
X178362857Y-70192380D02*
X179029523Y-70192380D01*
X178600952Y-71192380D01*
%TO.C,C11*%
X190707142Y-69882142D02*
X190659523Y-69929761D01*
X190516666Y-69977380D01*
X190421428Y-69977380D01*
X190278571Y-69929761D01*
X190183333Y-69834523D01*
X190135714Y-69739285D01*
X190088095Y-69548809D01*
X190088095Y-69405952D01*
X190135714Y-69215476D01*
X190183333Y-69120238D01*
X190278571Y-69025000D01*
X190421428Y-68977380D01*
X190516666Y-68977380D01*
X190659523Y-69025000D01*
X190707142Y-69072619D01*
X191659523Y-69977380D02*
X191088095Y-69977380D01*
X191373809Y-69977380D02*
X191373809Y-68977380D01*
X191278571Y-69120238D01*
X191183333Y-69215476D01*
X191088095Y-69263095D01*
X192611904Y-69977380D02*
X192040476Y-69977380D01*
X192326190Y-69977380D02*
X192326190Y-68977380D01*
X192230952Y-69120238D01*
X192135714Y-69215476D01*
X192040476Y-69263095D01*
%TO.C,C10*%
X190782142Y-71532142D02*
X190734523Y-71579761D01*
X190591666Y-71627380D01*
X190496428Y-71627380D01*
X190353571Y-71579761D01*
X190258333Y-71484523D01*
X190210714Y-71389285D01*
X190163095Y-71198809D01*
X190163095Y-71055952D01*
X190210714Y-70865476D01*
X190258333Y-70770238D01*
X190353571Y-70675000D01*
X190496428Y-70627380D01*
X190591666Y-70627380D01*
X190734523Y-70675000D01*
X190782142Y-70722619D01*
X191734523Y-71627380D02*
X191163095Y-71627380D01*
X191448809Y-71627380D02*
X191448809Y-70627380D01*
X191353571Y-70770238D01*
X191258333Y-70865476D01*
X191163095Y-70913095D01*
X192353571Y-70627380D02*
X192448809Y-70627380D01*
X192544047Y-70675000D01*
X192591666Y-70722619D01*
X192639285Y-70817857D01*
X192686904Y-71008333D01*
X192686904Y-71246428D01*
X192639285Y-71436904D01*
X192591666Y-71532142D01*
X192544047Y-71579761D01*
X192448809Y-71627380D01*
X192353571Y-71627380D01*
X192258333Y-71579761D01*
X192210714Y-71532142D01*
X192163095Y-71436904D01*
X192115476Y-71246428D01*
X192115476Y-71008333D01*
X192163095Y-70817857D01*
X192210714Y-70722619D01*
X192258333Y-70675000D01*
X192353571Y-70627380D01*
%TO.C,C5*%
X185807142Y-69166666D02*
X185854761Y-69214285D01*
X185902380Y-69357142D01*
X185902380Y-69452380D01*
X185854761Y-69595238D01*
X185759523Y-69690476D01*
X185664285Y-69738095D01*
X185473809Y-69785714D01*
X185330952Y-69785714D01*
X185140476Y-69738095D01*
X185045238Y-69690476D01*
X184950000Y-69595238D01*
X184902380Y-69452380D01*
X184902380Y-69357142D01*
X184950000Y-69214285D01*
X184997619Y-69166666D01*
X184902380Y-68261904D02*
X184902380Y-68738095D01*
X185378571Y-68785714D01*
X185330952Y-68738095D01*
X185283333Y-68642857D01*
X185283333Y-68404761D01*
X185330952Y-68309523D01*
X185378571Y-68261904D01*
X185473809Y-68214285D01*
X185711904Y-68214285D01*
X185807142Y-68261904D01*
X185854761Y-68309523D01*
X185902380Y-68404761D01*
X185902380Y-68642857D01*
X185854761Y-68738095D01*
X185807142Y-68785714D01*
%TO.C,C4*%
X177763333Y-69507142D02*
X177715714Y-69554761D01*
X177572857Y-69602380D01*
X177477619Y-69602380D01*
X177334761Y-69554761D01*
X177239523Y-69459523D01*
X177191904Y-69364285D01*
X177144285Y-69173809D01*
X177144285Y-69030952D01*
X177191904Y-68840476D01*
X177239523Y-68745238D01*
X177334761Y-68650000D01*
X177477619Y-68602380D01*
X177572857Y-68602380D01*
X177715714Y-68650000D01*
X177763333Y-68697619D01*
X178620476Y-68935714D02*
X178620476Y-69602380D01*
X178382380Y-68554761D02*
X178144285Y-69269047D01*
X178763333Y-69269047D01*
%TO.C,C3*%
X128983333Y-95307142D02*
X128935714Y-95354761D01*
X128792857Y-95402380D01*
X128697619Y-95402380D01*
X128554761Y-95354761D01*
X128459523Y-95259523D01*
X128411904Y-95164285D01*
X128364285Y-94973809D01*
X128364285Y-94830952D01*
X128411904Y-94640476D01*
X128459523Y-94545238D01*
X128554761Y-94450000D01*
X128697619Y-94402380D01*
X128792857Y-94402380D01*
X128935714Y-94450000D01*
X128983333Y-94497619D01*
X129316666Y-94402380D02*
X129935714Y-94402380D01*
X129602380Y-94783333D01*
X129745238Y-94783333D01*
X129840476Y-94830952D01*
X129888095Y-94878571D01*
X129935714Y-94973809D01*
X129935714Y-95211904D01*
X129888095Y-95307142D01*
X129840476Y-95354761D01*
X129745238Y-95402380D01*
X129459523Y-95402380D01*
X129364285Y-95354761D01*
X129316666Y-95307142D01*
%TO.C,R13*%
D19*
X123803571Y-57776190D02*
X123636904Y-57538095D01*
X123517857Y-57776190D02*
X123517857Y-57276190D01*
X123708333Y-57276190D01*
X123755952Y-57300000D01*
X123779761Y-57323809D01*
X123803571Y-57371428D01*
X123803571Y-57442857D01*
X123779761Y-57490476D01*
X123755952Y-57514285D01*
X123708333Y-57538095D01*
X123517857Y-57538095D01*
X124279761Y-57776190D02*
X123994047Y-57776190D01*
X124136904Y-57776190D02*
X124136904Y-57276190D01*
X124089285Y-57347619D01*
X124041666Y-57395238D01*
X123994047Y-57419047D01*
X124446428Y-57276190D02*
X124755952Y-57276190D01*
X124589285Y-57466666D01*
X124660714Y-57466666D01*
X124708333Y-57490476D01*
X124732142Y-57514285D01*
X124755952Y-57561904D01*
X124755952Y-57680952D01*
X124732142Y-57728571D01*
X124708333Y-57752380D01*
X124660714Y-57776190D01*
X124517857Y-57776190D01*
X124470238Y-57752380D01*
X124446428Y-57728571D01*
%TO.C,R12*%
X123778571Y-60751190D02*
X123611904Y-60513095D01*
X123492857Y-60751190D02*
X123492857Y-60251190D01*
X123683333Y-60251190D01*
X123730952Y-60275000D01*
X123754761Y-60298809D01*
X123778571Y-60346428D01*
X123778571Y-60417857D01*
X123754761Y-60465476D01*
X123730952Y-60489285D01*
X123683333Y-60513095D01*
X123492857Y-60513095D01*
X124254761Y-60751190D02*
X123969047Y-60751190D01*
X124111904Y-60751190D02*
X124111904Y-60251190D01*
X124064285Y-60322619D01*
X124016666Y-60370238D01*
X123969047Y-60394047D01*
X124445238Y-60298809D02*
X124469047Y-60275000D01*
X124516666Y-60251190D01*
X124635714Y-60251190D01*
X124683333Y-60275000D01*
X124707142Y-60298809D01*
X124730952Y-60346428D01*
X124730952Y-60394047D01*
X124707142Y-60465476D01*
X124421428Y-60751190D01*
X124730952Y-60751190D01*
%TO.C,R11*%
X123753571Y-63451190D02*
X123586904Y-63213095D01*
X123467857Y-63451190D02*
X123467857Y-62951190D01*
X123658333Y-62951190D01*
X123705952Y-62975000D01*
X123729761Y-62998809D01*
X123753571Y-63046428D01*
X123753571Y-63117857D01*
X123729761Y-63165476D01*
X123705952Y-63189285D01*
X123658333Y-63213095D01*
X123467857Y-63213095D01*
X124229761Y-63451190D02*
X123944047Y-63451190D01*
X124086904Y-63451190D02*
X124086904Y-62951190D01*
X124039285Y-63022619D01*
X123991666Y-63070238D01*
X123944047Y-63094047D01*
X124705952Y-63451190D02*
X124420238Y-63451190D01*
X124563095Y-63451190D02*
X124563095Y-62951190D01*
X124515476Y-63022619D01*
X124467857Y-63070238D01*
X124420238Y-63094047D01*
%TO.C,TP4*%
X175469047Y-58578190D02*
X175754761Y-58578190D01*
X175611904Y-59078190D02*
X175611904Y-58578190D01*
X175921428Y-59078190D02*
X175921428Y-58578190D01*
X176111904Y-58578190D01*
X176159523Y-58602000D01*
X176183333Y-58625809D01*
X176207142Y-58673428D01*
X176207142Y-58744857D01*
X176183333Y-58792476D01*
X176159523Y-58816285D01*
X176111904Y-58840095D01*
X175921428Y-58840095D01*
X176635714Y-58744857D02*
X176635714Y-59078190D01*
X176516666Y-58554380D02*
X176397619Y-58911523D01*
X176707142Y-58911523D01*
%TO.C,R21*%
D13*
X129432142Y-73127380D02*
X129098809Y-72651190D01*
X128860714Y-73127380D02*
X128860714Y-72127380D01*
X129241666Y-72127380D01*
X129336904Y-72175000D01*
X129384523Y-72222619D01*
X129432142Y-72317857D01*
X129432142Y-72460714D01*
X129384523Y-72555952D01*
X129336904Y-72603571D01*
X129241666Y-72651190D01*
X128860714Y-72651190D01*
X129813095Y-72222619D02*
X129860714Y-72175000D01*
X129955952Y-72127380D01*
X130194047Y-72127380D01*
X130289285Y-72175000D01*
X130336904Y-72222619D01*
X130384523Y-72317857D01*
X130384523Y-72413095D01*
X130336904Y-72555952D01*
X129765476Y-73127380D01*
X130384523Y-73127380D01*
X131336904Y-73127380D02*
X130765476Y-73127380D01*
X131051190Y-73127380D02*
X131051190Y-72127380D01*
X130955952Y-72270238D01*
X130860714Y-72365476D01*
X130765476Y-72413095D01*
%TO.C,R20*%
X129682142Y-78277380D02*
X129348809Y-77801190D01*
X129110714Y-78277380D02*
X129110714Y-77277380D01*
X129491666Y-77277380D01*
X129586904Y-77325000D01*
X129634523Y-77372619D01*
X129682142Y-77467857D01*
X129682142Y-77610714D01*
X129634523Y-77705952D01*
X129586904Y-77753571D01*
X129491666Y-77801190D01*
X129110714Y-77801190D01*
X130063095Y-77372619D02*
X130110714Y-77325000D01*
X130205952Y-77277380D01*
X130444047Y-77277380D01*
X130539285Y-77325000D01*
X130586904Y-77372619D01*
X130634523Y-77467857D01*
X130634523Y-77563095D01*
X130586904Y-77705952D01*
X130015476Y-78277380D01*
X130634523Y-78277380D01*
X131253571Y-77277380D02*
X131348809Y-77277380D01*
X131444047Y-77325000D01*
X131491666Y-77372619D01*
X131539285Y-77467857D01*
X131586904Y-77658333D01*
X131586904Y-77896428D01*
X131539285Y-78086904D01*
X131491666Y-78182142D01*
X131444047Y-78229761D01*
X131348809Y-78277380D01*
X131253571Y-78277380D01*
X131158333Y-78229761D01*
X131110714Y-78182142D01*
X131063095Y-78086904D01*
X131015476Y-77896428D01*
X131015476Y-77658333D01*
X131063095Y-77467857D01*
X131110714Y-77372619D01*
X131158333Y-77325000D01*
X131253571Y-77277380D01*
%TO.C,R19*%
X129757142Y-75952380D02*
X129423809Y-75476190D01*
X129185714Y-75952380D02*
X129185714Y-74952380D01*
X129566666Y-74952380D01*
X129661904Y-75000000D01*
X129709523Y-75047619D01*
X129757142Y-75142857D01*
X129757142Y-75285714D01*
X129709523Y-75380952D01*
X129661904Y-75428571D01*
X129566666Y-75476190D01*
X129185714Y-75476190D01*
X130709523Y-75952380D02*
X130138095Y-75952380D01*
X130423809Y-75952380D02*
X130423809Y-74952380D01*
X130328571Y-75095238D01*
X130233333Y-75190476D01*
X130138095Y-75238095D01*
X131185714Y-75952380D02*
X131376190Y-75952380D01*
X131471428Y-75904761D01*
X131519047Y-75857142D01*
X131614285Y-75714285D01*
X131661904Y-75523809D01*
X131661904Y-75142857D01*
X131614285Y-75047619D01*
X131566666Y-75000000D01*
X131471428Y-74952380D01*
X131280952Y-74952380D01*
X131185714Y-75000000D01*
X131138095Y-75047619D01*
X131090476Y-75142857D01*
X131090476Y-75380952D01*
X131138095Y-75476190D01*
X131185714Y-75523809D01*
X131280952Y-75571428D01*
X131471428Y-75571428D01*
X131566666Y-75523809D01*
X131614285Y-75476190D01*
X131661904Y-75380952D01*
%TO.C,R18*%
X129482142Y-80852380D02*
X129148809Y-80376190D01*
X128910714Y-80852380D02*
X128910714Y-79852380D01*
X129291666Y-79852380D01*
X129386904Y-79900000D01*
X129434523Y-79947619D01*
X129482142Y-80042857D01*
X129482142Y-80185714D01*
X129434523Y-80280952D01*
X129386904Y-80328571D01*
X129291666Y-80376190D01*
X128910714Y-80376190D01*
X130434523Y-80852380D02*
X129863095Y-80852380D01*
X130148809Y-80852380D02*
X130148809Y-79852380D01*
X130053571Y-79995238D01*
X129958333Y-80090476D01*
X129863095Y-80138095D01*
X131005952Y-80280952D02*
X130910714Y-80233333D01*
X130863095Y-80185714D01*
X130815476Y-80090476D01*
X130815476Y-80042857D01*
X130863095Y-79947619D01*
X130910714Y-79900000D01*
X131005952Y-79852380D01*
X131196428Y-79852380D01*
X131291666Y-79900000D01*
X131339285Y-79947619D01*
X131386904Y-80042857D01*
X131386904Y-80090476D01*
X131339285Y-80185714D01*
X131291666Y-80233333D01*
X131196428Y-80280952D01*
X131005952Y-80280952D01*
X130910714Y-80328571D01*
X130863095Y-80376190D01*
X130815476Y-80471428D01*
X130815476Y-80661904D01*
X130863095Y-80757142D01*
X130910714Y-80804761D01*
X131005952Y-80852380D01*
X131196428Y-80852380D01*
X131291666Y-80804761D01*
X131339285Y-80757142D01*
X131386904Y-80661904D01*
X131386904Y-80471428D01*
X131339285Y-80376190D01*
X131291666Y-80328571D01*
X131196428Y-80280952D01*
%TO.C,R6*%
X199152380Y-71891666D02*
X198676190Y-72225000D01*
X199152380Y-72463095D02*
X198152380Y-72463095D01*
X198152380Y-72082142D01*
X198200000Y-71986904D01*
X198247619Y-71939285D01*
X198342857Y-71891666D01*
X198485714Y-71891666D01*
X198580952Y-71939285D01*
X198628571Y-71986904D01*
X198676190Y-72082142D01*
X198676190Y-72463095D01*
X198152380Y-71034523D02*
X198152380Y-71225000D01*
X198200000Y-71320238D01*
X198247619Y-71367857D01*
X198390476Y-71463095D01*
X198580952Y-71510714D01*
X198961904Y-71510714D01*
X199057142Y-71463095D01*
X199104761Y-71415476D01*
X199152380Y-71320238D01*
X199152380Y-71129761D01*
X199104761Y-71034523D01*
X199057142Y-70986904D01*
X198961904Y-70939285D01*
X198723809Y-70939285D01*
X198628571Y-70986904D01*
X198580952Y-71034523D01*
X198533333Y-71129761D01*
X198533333Y-71320238D01*
X198580952Y-71415476D01*
X198628571Y-71463095D01*
X198723809Y-71510714D01*
%TO.C,R4*%
X197377380Y-71941666D02*
X196901190Y-72275000D01*
X197377380Y-72513095D02*
X196377380Y-72513095D01*
X196377380Y-72132142D01*
X196425000Y-72036904D01*
X196472619Y-71989285D01*
X196567857Y-71941666D01*
X196710714Y-71941666D01*
X196805952Y-71989285D01*
X196853571Y-72036904D01*
X196901190Y-72132142D01*
X196901190Y-72513095D01*
X196710714Y-71084523D02*
X197377380Y-71084523D01*
X196329761Y-71322619D02*
X197044047Y-71560714D01*
X197044047Y-70941666D01*
%TO.C,C6*%
X144832142Y-71041666D02*
X144879761Y-71089285D01*
X144927380Y-71232142D01*
X144927380Y-71327380D01*
X144879761Y-71470238D01*
X144784523Y-71565476D01*
X144689285Y-71613095D01*
X144498809Y-71660714D01*
X144355952Y-71660714D01*
X144165476Y-71613095D01*
X144070238Y-71565476D01*
X143975000Y-71470238D01*
X143927380Y-71327380D01*
X143927380Y-71232142D01*
X143975000Y-71089285D01*
X144022619Y-71041666D01*
X143927380Y-70184523D02*
X143927380Y-70375000D01*
X143975000Y-70470238D01*
X144022619Y-70517857D01*
X144165476Y-70613095D01*
X144355952Y-70660714D01*
X144736904Y-70660714D01*
X144832142Y-70613095D01*
X144879761Y-70565476D01*
X144927380Y-70470238D01*
X144927380Y-70279761D01*
X144879761Y-70184523D01*
X144832142Y-70136904D01*
X144736904Y-70089285D01*
X144498809Y-70089285D01*
X144403571Y-70136904D01*
X144355952Y-70184523D01*
X144308333Y-70279761D01*
X144308333Y-70470238D01*
X144355952Y-70565476D01*
X144403571Y-70613095D01*
X144498809Y-70660714D01*
%TO.C,R32*%
D19*
X200508571Y-85386190D02*
X200341904Y-85148095D01*
X200222857Y-85386190D02*
X200222857Y-84886190D01*
X200413333Y-84886190D01*
X200460952Y-84910000D01*
X200484761Y-84933809D01*
X200508571Y-84981428D01*
X200508571Y-85052857D01*
X200484761Y-85100476D01*
X200460952Y-85124285D01*
X200413333Y-85148095D01*
X200222857Y-85148095D01*
X200675238Y-84886190D02*
X200984761Y-84886190D01*
X200818095Y-85076666D01*
X200889523Y-85076666D01*
X200937142Y-85100476D01*
X200960952Y-85124285D01*
X200984761Y-85171904D01*
X200984761Y-85290952D01*
X200960952Y-85338571D01*
X200937142Y-85362380D01*
X200889523Y-85386190D01*
X200746666Y-85386190D01*
X200699047Y-85362380D01*
X200675238Y-85338571D01*
X201175238Y-84933809D02*
X201199047Y-84910000D01*
X201246666Y-84886190D01*
X201365714Y-84886190D01*
X201413333Y-84910000D01*
X201437142Y-84933809D01*
X201460952Y-84981428D01*
X201460952Y-85029047D01*
X201437142Y-85100476D01*
X201151428Y-85386190D01*
X201460952Y-85386190D01*
%TO.C,R8*%
D13*
X158785880Y-66968666D02*
X158309690Y-67302000D01*
X158785880Y-67540095D02*
X157785880Y-67540095D01*
X157785880Y-67159142D01*
X157833500Y-67063904D01*
X157881119Y-67016285D01*
X157976357Y-66968666D01*
X158119214Y-66968666D01*
X158214452Y-67016285D01*
X158262071Y-67063904D01*
X158309690Y-67159142D01*
X158309690Y-67540095D01*
X158214452Y-66397238D02*
X158166833Y-66492476D01*
X158119214Y-66540095D01*
X158023976Y-66587714D01*
X157976357Y-66587714D01*
X157881119Y-66540095D01*
X157833500Y-66492476D01*
X157785880Y-66397238D01*
X157785880Y-66206761D01*
X157833500Y-66111523D01*
X157881119Y-66063904D01*
X157976357Y-66016285D01*
X158023976Y-66016285D01*
X158119214Y-66063904D01*
X158166833Y-66111523D01*
X158214452Y-66206761D01*
X158214452Y-66397238D01*
X158262071Y-66492476D01*
X158309690Y-66540095D01*
X158404928Y-66587714D01*
X158595404Y-66587714D01*
X158690642Y-66540095D01*
X158738261Y-66492476D01*
X158785880Y-66397238D01*
X158785880Y-66206761D01*
X158738261Y-66111523D01*
X158690642Y-66063904D01*
X158595404Y-66016285D01*
X158404928Y-66016285D01*
X158309690Y-66063904D01*
X158262071Y-66111523D01*
X158214452Y-66206761D01*
%TO.C,R25*%
X129457142Y-68202380D02*
X129123809Y-67726190D01*
X128885714Y-68202380D02*
X128885714Y-67202380D01*
X129266666Y-67202380D01*
X129361904Y-67250000D01*
X129409523Y-67297619D01*
X129457142Y-67392857D01*
X129457142Y-67535714D01*
X129409523Y-67630952D01*
X129361904Y-67678571D01*
X129266666Y-67726190D01*
X128885714Y-67726190D01*
X129838095Y-67297619D02*
X129885714Y-67250000D01*
X129980952Y-67202380D01*
X130219047Y-67202380D01*
X130314285Y-67250000D01*
X130361904Y-67297619D01*
X130409523Y-67392857D01*
X130409523Y-67488095D01*
X130361904Y-67630952D01*
X129790476Y-68202380D01*
X130409523Y-68202380D01*
X131314285Y-67202380D02*
X130838095Y-67202380D01*
X130790476Y-67678571D01*
X130838095Y-67630952D01*
X130933333Y-67583333D01*
X131171428Y-67583333D01*
X131266666Y-67630952D01*
X131314285Y-67678571D01*
X131361904Y-67773809D01*
X131361904Y-68011904D01*
X131314285Y-68107142D01*
X131266666Y-68154761D01*
X131171428Y-68202380D01*
X130933333Y-68202380D01*
X130838095Y-68154761D01*
X130790476Y-68107142D01*
%TO.C,R24*%
X129507142Y-70602380D02*
X129173809Y-70126190D01*
X128935714Y-70602380D02*
X128935714Y-69602380D01*
X129316666Y-69602380D01*
X129411904Y-69650000D01*
X129459523Y-69697619D01*
X129507142Y-69792857D01*
X129507142Y-69935714D01*
X129459523Y-70030952D01*
X129411904Y-70078571D01*
X129316666Y-70126190D01*
X128935714Y-70126190D01*
X129888095Y-69697619D02*
X129935714Y-69650000D01*
X130030952Y-69602380D01*
X130269047Y-69602380D01*
X130364285Y-69650000D01*
X130411904Y-69697619D01*
X130459523Y-69792857D01*
X130459523Y-69888095D01*
X130411904Y-70030952D01*
X129840476Y-70602380D01*
X130459523Y-70602380D01*
X131316666Y-69935714D02*
X131316666Y-70602380D01*
X131078571Y-69554761D02*
X130840476Y-70269047D01*
X131459523Y-70269047D01*
%TO.C,R33*%
D19*
X200508571Y-80326190D02*
X200341904Y-80088095D01*
X200222857Y-80326190D02*
X200222857Y-79826190D01*
X200413333Y-79826190D01*
X200460952Y-79850000D01*
X200484761Y-79873809D01*
X200508571Y-79921428D01*
X200508571Y-79992857D01*
X200484761Y-80040476D01*
X200460952Y-80064285D01*
X200413333Y-80088095D01*
X200222857Y-80088095D01*
X200675238Y-79826190D02*
X200984761Y-79826190D01*
X200818095Y-80016666D01*
X200889523Y-80016666D01*
X200937142Y-80040476D01*
X200960952Y-80064285D01*
X200984761Y-80111904D01*
X200984761Y-80230952D01*
X200960952Y-80278571D01*
X200937142Y-80302380D01*
X200889523Y-80326190D01*
X200746666Y-80326190D01*
X200699047Y-80302380D01*
X200675238Y-80278571D01*
X201151428Y-79826190D02*
X201460952Y-79826190D01*
X201294285Y-80016666D01*
X201365714Y-80016666D01*
X201413333Y-80040476D01*
X201437142Y-80064285D01*
X201460952Y-80111904D01*
X201460952Y-80230952D01*
X201437142Y-80278571D01*
X201413333Y-80302380D01*
X201365714Y-80326190D01*
X201222857Y-80326190D01*
X201175238Y-80302380D01*
X201151428Y-80278571D01*
%TO.C,R29*%
X200508571Y-87946190D02*
X200341904Y-87708095D01*
X200222857Y-87946190D02*
X200222857Y-87446190D01*
X200413333Y-87446190D01*
X200460952Y-87470000D01*
X200484761Y-87493809D01*
X200508571Y-87541428D01*
X200508571Y-87612857D01*
X200484761Y-87660476D01*
X200460952Y-87684285D01*
X200413333Y-87708095D01*
X200222857Y-87708095D01*
X200699047Y-87493809D02*
X200722857Y-87470000D01*
X200770476Y-87446190D01*
X200889523Y-87446190D01*
X200937142Y-87470000D01*
X200960952Y-87493809D01*
X200984761Y-87541428D01*
X200984761Y-87589047D01*
X200960952Y-87660476D01*
X200675238Y-87946190D01*
X200984761Y-87946190D01*
X201222857Y-87946190D02*
X201318095Y-87946190D01*
X201365714Y-87922380D01*
X201389523Y-87898571D01*
X201437142Y-87827142D01*
X201460952Y-87731904D01*
X201460952Y-87541428D01*
X201437142Y-87493809D01*
X201413333Y-87470000D01*
X201365714Y-87446190D01*
X201270476Y-87446190D01*
X201222857Y-87470000D01*
X201199047Y-87493809D01*
X201175238Y-87541428D01*
X201175238Y-87660476D01*
X201199047Y-87708095D01*
X201222857Y-87731904D01*
X201270476Y-87755714D01*
X201365714Y-87755714D01*
X201413333Y-87731904D01*
X201437142Y-87708095D01*
X201460952Y-87660476D01*
%TO.C,R28*%
X200508571Y-82956190D02*
X200341904Y-82718095D01*
X200222857Y-82956190D02*
X200222857Y-82456190D01*
X200413333Y-82456190D01*
X200460952Y-82480000D01*
X200484761Y-82503809D01*
X200508571Y-82551428D01*
X200508571Y-82622857D01*
X200484761Y-82670476D01*
X200460952Y-82694285D01*
X200413333Y-82718095D01*
X200222857Y-82718095D01*
X200699047Y-82503809D02*
X200722857Y-82480000D01*
X200770476Y-82456190D01*
X200889523Y-82456190D01*
X200937142Y-82480000D01*
X200960952Y-82503809D01*
X200984761Y-82551428D01*
X200984761Y-82599047D01*
X200960952Y-82670476D01*
X200675238Y-82956190D01*
X200984761Y-82956190D01*
X201270476Y-82670476D02*
X201222857Y-82646666D01*
X201199047Y-82622857D01*
X201175238Y-82575238D01*
X201175238Y-82551428D01*
X201199047Y-82503809D01*
X201222857Y-82480000D01*
X201270476Y-82456190D01*
X201365714Y-82456190D01*
X201413333Y-82480000D01*
X201437142Y-82503809D01*
X201460952Y-82551428D01*
X201460952Y-82575238D01*
X201437142Y-82622857D01*
X201413333Y-82646666D01*
X201365714Y-82670476D01*
X201270476Y-82670476D01*
X201222857Y-82694285D01*
X201199047Y-82718095D01*
X201175238Y-82765714D01*
X201175238Y-82860952D01*
X201199047Y-82908571D01*
X201222857Y-82932380D01*
X201270476Y-82956190D01*
X201365714Y-82956190D01*
X201413333Y-82932380D01*
X201437142Y-82908571D01*
X201460952Y-82860952D01*
X201460952Y-82765714D01*
X201437142Y-82718095D01*
X201413333Y-82694285D01*
X201365714Y-82670476D01*
%TO.C,R1*%
X200646666Y-61496190D02*
X200480000Y-61258095D01*
X200360952Y-61496190D02*
X200360952Y-60996190D01*
X200551428Y-60996190D01*
X200599047Y-61020000D01*
X200622857Y-61043809D01*
X200646666Y-61091428D01*
X200646666Y-61162857D01*
X200622857Y-61210476D01*
X200599047Y-61234285D01*
X200551428Y-61258095D01*
X200360952Y-61258095D01*
X201122857Y-61496190D02*
X200837142Y-61496190D01*
X200980000Y-61496190D02*
X200980000Y-60996190D01*
X200932380Y-61067619D01*
X200884761Y-61115238D01*
X200837142Y-61139047D01*
%TO.C,R37*%
X200170475Y-64426190D02*
X200003808Y-64188095D01*
X199884761Y-64426190D02*
X199884761Y-63926190D01*
X200075237Y-63926190D01*
X200122856Y-63950000D01*
X200146665Y-63973809D01*
X200170475Y-64021428D01*
X200170475Y-64092857D01*
X200146665Y-64140476D01*
X200122856Y-64164285D01*
X200075237Y-64188095D01*
X199884761Y-64188095D01*
X200337142Y-63926190D02*
X200646665Y-63926190D01*
X200479999Y-64116666D01*
X200551427Y-64116666D01*
X200599046Y-64140476D01*
X200622856Y-64164285D01*
X200646665Y-64211904D01*
X200646665Y-64330952D01*
X200622856Y-64378571D01*
X200599046Y-64402380D01*
X200551427Y-64426190D01*
X200408570Y-64426190D01*
X200360951Y-64402380D01*
X200337142Y-64378571D01*
X200813332Y-63926190D02*
X201146665Y-63926190D01*
X200932380Y-64426190D01*
%TO.C,R36*%
X200170475Y-67781190D02*
X200003808Y-67543095D01*
X199884761Y-67781190D02*
X199884761Y-67281190D01*
X200075237Y-67281190D01*
X200122856Y-67305000D01*
X200146665Y-67328809D01*
X200170475Y-67376428D01*
X200170475Y-67447857D01*
X200146665Y-67495476D01*
X200122856Y-67519285D01*
X200075237Y-67543095D01*
X199884761Y-67543095D01*
X200337142Y-67281190D02*
X200646665Y-67281190D01*
X200479999Y-67471666D01*
X200551427Y-67471666D01*
X200599046Y-67495476D01*
X200622856Y-67519285D01*
X200646665Y-67566904D01*
X200646665Y-67685952D01*
X200622856Y-67733571D01*
X200599046Y-67757380D01*
X200551427Y-67781190D01*
X200408570Y-67781190D01*
X200360951Y-67757380D01*
X200337142Y-67733571D01*
X201075237Y-67281190D02*
X200979999Y-67281190D01*
X200932380Y-67305000D01*
X200908570Y-67328809D01*
X200860951Y-67400238D01*
X200837142Y-67495476D01*
X200837142Y-67685952D01*
X200860951Y-67733571D01*
X200884761Y-67757380D01*
X200932380Y-67781190D01*
X201027618Y-67781190D01*
X201075237Y-67757380D01*
X201099046Y-67733571D01*
X201122856Y-67685952D01*
X201122856Y-67566904D01*
X201099046Y-67519285D01*
X201075237Y-67495476D01*
X201027618Y-67471666D01*
X200932380Y-67471666D01*
X200884761Y-67495476D01*
X200860951Y-67519285D01*
X200837142Y-67566904D01*
%TO.C,R35*%
X200170475Y-71031190D02*
X200003808Y-70793095D01*
X199884761Y-71031190D02*
X199884761Y-70531190D01*
X200075237Y-70531190D01*
X200122856Y-70555000D01*
X200146665Y-70578809D01*
X200170475Y-70626428D01*
X200170475Y-70697857D01*
X200146665Y-70745476D01*
X200122856Y-70769285D01*
X200075237Y-70793095D01*
X199884761Y-70793095D01*
X200337142Y-70531190D02*
X200646665Y-70531190D01*
X200479999Y-70721666D01*
X200551427Y-70721666D01*
X200599046Y-70745476D01*
X200622856Y-70769285D01*
X200646665Y-70816904D01*
X200646665Y-70935952D01*
X200622856Y-70983571D01*
X200599046Y-71007380D01*
X200551427Y-71031190D01*
X200408570Y-71031190D01*
X200360951Y-71007380D01*
X200337142Y-70983571D01*
X201099046Y-70531190D02*
X200860951Y-70531190D01*
X200837142Y-70769285D01*
X200860951Y-70745476D01*
X200908570Y-70721666D01*
X201027618Y-70721666D01*
X201075237Y-70745476D01*
X201099046Y-70769285D01*
X201122856Y-70816904D01*
X201122856Y-70935952D01*
X201099046Y-70983571D01*
X201075237Y-71007380D01*
X201027618Y-71031190D01*
X200908570Y-71031190D01*
X200860951Y-71007380D01*
X200837142Y-70983571D01*
%TO.C,R31*%
X200508571Y-75246190D02*
X200341904Y-75008095D01*
X200222857Y-75246190D02*
X200222857Y-74746190D01*
X200413333Y-74746190D01*
X200460952Y-74770000D01*
X200484761Y-74793809D01*
X200508571Y-74841428D01*
X200508571Y-74912857D01*
X200484761Y-74960476D01*
X200460952Y-74984285D01*
X200413333Y-75008095D01*
X200222857Y-75008095D01*
X200675238Y-74746190D02*
X200984761Y-74746190D01*
X200818095Y-74936666D01*
X200889523Y-74936666D01*
X200937142Y-74960476D01*
X200960952Y-74984285D01*
X200984761Y-75031904D01*
X200984761Y-75150952D01*
X200960952Y-75198571D01*
X200937142Y-75222380D01*
X200889523Y-75246190D01*
X200746666Y-75246190D01*
X200699047Y-75222380D01*
X200675238Y-75198571D01*
X201460952Y-75246190D02*
X201175238Y-75246190D01*
X201318095Y-75246190D02*
X201318095Y-74746190D01*
X201270476Y-74817619D01*
X201222857Y-74865238D01*
X201175238Y-74889047D01*
%TO.C,R30*%
X200508571Y-77826190D02*
X200341904Y-77588095D01*
X200222857Y-77826190D02*
X200222857Y-77326190D01*
X200413333Y-77326190D01*
X200460952Y-77350000D01*
X200484761Y-77373809D01*
X200508571Y-77421428D01*
X200508571Y-77492857D01*
X200484761Y-77540476D01*
X200460952Y-77564285D01*
X200413333Y-77588095D01*
X200222857Y-77588095D01*
X200675238Y-77326190D02*
X200984761Y-77326190D01*
X200818095Y-77516666D01*
X200889523Y-77516666D01*
X200937142Y-77540476D01*
X200960952Y-77564285D01*
X200984761Y-77611904D01*
X200984761Y-77730952D01*
X200960952Y-77778571D01*
X200937142Y-77802380D01*
X200889523Y-77826190D01*
X200746666Y-77826190D01*
X200699047Y-77802380D01*
X200675238Y-77778571D01*
X201294285Y-77326190D02*
X201341904Y-77326190D01*
X201389523Y-77350000D01*
X201413333Y-77373809D01*
X201437142Y-77421428D01*
X201460952Y-77516666D01*
X201460952Y-77635714D01*
X201437142Y-77730952D01*
X201413333Y-77778571D01*
X201389523Y-77802380D01*
X201341904Y-77826190D01*
X201294285Y-77826190D01*
X201246666Y-77802380D01*
X201222857Y-77778571D01*
X201199047Y-77730952D01*
X201175238Y-77635714D01*
X201175238Y-77516666D01*
X201199047Y-77421428D01*
X201222857Y-77373809D01*
X201246666Y-77350000D01*
X201294285Y-77326190D01*
%TO.C,R39*%
D13*
X136907142Y-76392380D02*
X136573809Y-75916190D01*
X136335714Y-76392380D02*
X136335714Y-75392380D01*
X136716666Y-75392380D01*
X136811904Y-75440000D01*
X136859523Y-75487619D01*
X136907142Y-75582857D01*
X136907142Y-75725714D01*
X136859523Y-75820952D01*
X136811904Y-75868571D01*
X136716666Y-75916190D01*
X136335714Y-75916190D01*
X137240476Y-75392380D02*
X137859523Y-75392380D01*
X137526190Y-75773333D01*
X137669047Y-75773333D01*
X137764285Y-75820952D01*
X137811904Y-75868571D01*
X137859523Y-75963809D01*
X137859523Y-76201904D01*
X137811904Y-76297142D01*
X137764285Y-76344761D01*
X137669047Y-76392380D01*
X137383333Y-76392380D01*
X137288095Y-76344761D01*
X137240476Y-76297142D01*
X138335714Y-76392380D02*
X138526190Y-76392380D01*
X138621428Y-76344761D01*
X138669047Y-76297142D01*
X138764285Y-76154285D01*
X138811904Y-75963809D01*
X138811904Y-75582857D01*
X138764285Y-75487619D01*
X138716666Y-75440000D01*
X138621428Y-75392380D01*
X138430952Y-75392380D01*
X138335714Y-75440000D01*
X138288095Y-75487619D01*
X138240476Y-75582857D01*
X138240476Y-75820952D01*
X138288095Y-75916190D01*
X138335714Y-75963809D01*
X138430952Y-76011428D01*
X138621428Y-76011428D01*
X138716666Y-75963809D01*
X138764285Y-75916190D01*
X138811904Y-75820952D01*
%TO.C,R38*%
X136837142Y-74662380D02*
X136503809Y-74186190D01*
X136265714Y-74662380D02*
X136265714Y-73662380D01*
X136646666Y-73662380D01*
X136741904Y-73710000D01*
X136789523Y-73757619D01*
X136837142Y-73852857D01*
X136837142Y-73995714D01*
X136789523Y-74090952D01*
X136741904Y-74138571D01*
X136646666Y-74186190D01*
X136265714Y-74186190D01*
X137170476Y-73662380D02*
X137789523Y-73662380D01*
X137456190Y-74043333D01*
X137599047Y-74043333D01*
X137694285Y-74090952D01*
X137741904Y-74138571D01*
X137789523Y-74233809D01*
X137789523Y-74471904D01*
X137741904Y-74567142D01*
X137694285Y-74614761D01*
X137599047Y-74662380D01*
X137313333Y-74662380D01*
X137218095Y-74614761D01*
X137170476Y-74567142D01*
X138360952Y-74090952D02*
X138265714Y-74043333D01*
X138218095Y-73995714D01*
X138170476Y-73900476D01*
X138170476Y-73852857D01*
X138218095Y-73757619D01*
X138265714Y-73710000D01*
X138360952Y-73662380D01*
X138551428Y-73662380D01*
X138646666Y-73710000D01*
X138694285Y-73757619D01*
X138741904Y-73852857D01*
X138741904Y-73900476D01*
X138694285Y-73995714D01*
X138646666Y-74043333D01*
X138551428Y-74090952D01*
X138360952Y-74090952D01*
X138265714Y-74138571D01*
X138218095Y-74186190D01*
X138170476Y-74281428D01*
X138170476Y-74471904D01*
X138218095Y-74567142D01*
X138265714Y-74614761D01*
X138360952Y-74662380D01*
X138551428Y-74662380D01*
X138646666Y-74614761D01*
X138694285Y-74567142D01*
X138741904Y-74471904D01*
X138741904Y-74281428D01*
X138694285Y-74186190D01*
X138646666Y-74138571D01*
X138551428Y-74090952D01*
%TO.C,R23*%
X168952380Y-76642857D02*
X168476190Y-76976190D01*
X168952380Y-77214285D02*
X167952380Y-77214285D01*
X167952380Y-76833333D01*
X168000000Y-76738095D01*
X168047619Y-76690476D01*
X168142857Y-76642857D01*
X168285714Y-76642857D01*
X168380952Y-76690476D01*
X168428571Y-76738095D01*
X168476190Y-76833333D01*
X168476190Y-77214285D01*
X168047619Y-76261904D02*
X168000000Y-76214285D01*
X167952380Y-76119047D01*
X167952380Y-75880952D01*
X168000000Y-75785714D01*
X168047619Y-75738095D01*
X168142857Y-75690476D01*
X168238095Y-75690476D01*
X168380952Y-75738095D01*
X168952380Y-76309523D01*
X168952380Y-75690476D01*
X167952380Y-75357142D02*
X167952380Y-74738095D01*
X168333333Y-75071428D01*
X168333333Y-74928571D01*
X168380952Y-74833333D01*
X168428571Y-74785714D01*
X168523809Y-74738095D01*
X168761904Y-74738095D01*
X168857142Y-74785714D01*
X168904761Y-74833333D01*
X168952380Y-74928571D01*
X168952380Y-75214285D01*
X168904761Y-75309523D01*
X168857142Y-75357142D01*
%TO.C,R22*%
X170852380Y-76542857D02*
X170376190Y-76876190D01*
X170852380Y-77114285D02*
X169852380Y-77114285D01*
X169852380Y-76733333D01*
X169900000Y-76638095D01*
X169947619Y-76590476D01*
X170042857Y-76542857D01*
X170185714Y-76542857D01*
X170280952Y-76590476D01*
X170328571Y-76638095D01*
X170376190Y-76733333D01*
X170376190Y-77114285D01*
X169947619Y-76161904D02*
X169900000Y-76114285D01*
X169852380Y-76019047D01*
X169852380Y-75780952D01*
X169900000Y-75685714D01*
X169947619Y-75638095D01*
X170042857Y-75590476D01*
X170138095Y-75590476D01*
X170280952Y-75638095D01*
X170852380Y-76209523D01*
X170852380Y-75590476D01*
X169947619Y-75209523D02*
X169900000Y-75161904D01*
X169852380Y-75066666D01*
X169852380Y-74828571D01*
X169900000Y-74733333D01*
X169947619Y-74685714D01*
X170042857Y-74638095D01*
X170138095Y-74638095D01*
X170280952Y-74685714D01*
X170852380Y-75257142D01*
X170852380Y-74638095D01*
%TO.C,R17*%
X152657142Y-63077380D02*
X152323809Y-62601190D01*
X152085714Y-63077380D02*
X152085714Y-62077380D01*
X152466666Y-62077380D01*
X152561904Y-62125000D01*
X152609523Y-62172619D01*
X152657142Y-62267857D01*
X152657142Y-62410714D01*
X152609523Y-62505952D01*
X152561904Y-62553571D01*
X152466666Y-62601190D01*
X152085714Y-62601190D01*
X153609523Y-63077380D02*
X153038095Y-63077380D01*
X153323809Y-63077380D02*
X153323809Y-62077380D01*
X153228571Y-62220238D01*
X153133333Y-62315476D01*
X153038095Y-62363095D01*
X153942857Y-62077380D02*
X154609523Y-62077380D01*
X154180952Y-63077380D01*
%TO.C,R16*%
X139865380Y-64053057D02*
X139389190Y-64386390D01*
X139865380Y-64624485D02*
X138865380Y-64624485D01*
X138865380Y-64243533D01*
X138913000Y-64148295D01*
X138960619Y-64100676D01*
X139055857Y-64053057D01*
X139198714Y-64053057D01*
X139293952Y-64100676D01*
X139341571Y-64148295D01*
X139389190Y-64243533D01*
X139389190Y-64624485D01*
X139865380Y-63100676D02*
X139865380Y-63672104D01*
X139865380Y-63386390D02*
X138865380Y-63386390D01*
X139008238Y-63481628D01*
X139103476Y-63576866D01*
X139151095Y-63672104D01*
X138865380Y-62243533D02*
X138865380Y-62434009D01*
X138913000Y-62529247D01*
X138960619Y-62576866D01*
X139103476Y-62672104D01*
X139293952Y-62719723D01*
X139674904Y-62719723D01*
X139770142Y-62672104D01*
X139817761Y-62624485D01*
X139865380Y-62529247D01*
X139865380Y-62338771D01*
X139817761Y-62243533D01*
X139770142Y-62195914D01*
X139674904Y-62148295D01*
X139436809Y-62148295D01*
X139341571Y-62195914D01*
X139293952Y-62243533D01*
X139246333Y-62338771D01*
X139246333Y-62529247D01*
X139293952Y-62624485D01*
X139341571Y-62672104D01*
X139436809Y-62719723D01*
%TO.C,R3*%
X168583333Y-62952380D02*
X168250000Y-62476190D01*
X168011904Y-62952380D02*
X168011904Y-61952380D01*
X168392857Y-61952380D01*
X168488095Y-62000000D01*
X168535714Y-62047619D01*
X168583333Y-62142857D01*
X168583333Y-62285714D01*
X168535714Y-62380952D01*
X168488095Y-62428571D01*
X168392857Y-62476190D01*
X168011904Y-62476190D01*
X168916666Y-61952380D02*
X169535714Y-61952380D01*
X169202380Y-62333333D01*
X169345238Y-62333333D01*
X169440476Y-62380952D01*
X169488095Y-62428571D01*
X169535714Y-62523809D01*
X169535714Y-62761904D01*
X169488095Y-62857142D01*
X169440476Y-62904761D01*
X169345238Y-62952380D01*
X169059523Y-62952380D01*
X168964285Y-62904761D01*
X168916666Y-62857142D01*
%TO.C,R2*%
X159112380Y-60186666D02*
X158636190Y-60520000D01*
X159112380Y-60758095D02*
X158112380Y-60758095D01*
X158112380Y-60377142D01*
X158160000Y-60281904D01*
X158207619Y-60234285D01*
X158302857Y-60186666D01*
X158445714Y-60186666D01*
X158540952Y-60234285D01*
X158588571Y-60281904D01*
X158636190Y-60377142D01*
X158636190Y-60758095D01*
X158207619Y-59805714D02*
X158160000Y-59758095D01*
X158112380Y-59662857D01*
X158112380Y-59424761D01*
X158160000Y-59329523D01*
X158207619Y-59281904D01*
X158302857Y-59234285D01*
X158398095Y-59234285D01*
X158540952Y-59281904D01*
X159112380Y-59853333D01*
X159112380Y-59234285D01*
%TO.C,C9*%
X162255542Y-69890566D02*
X162303161Y-69938185D01*
X162350780Y-70081042D01*
X162350780Y-70176280D01*
X162303161Y-70319138D01*
X162207923Y-70414376D01*
X162112685Y-70461995D01*
X161922209Y-70509614D01*
X161779352Y-70509614D01*
X161588876Y-70461995D01*
X161493638Y-70414376D01*
X161398400Y-70319138D01*
X161350780Y-70176280D01*
X161350780Y-70081042D01*
X161398400Y-69938185D01*
X161446019Y-69890566D01*
X162350780Y-69414376D02*
X162350780Y-69223900D01*
X162303161Y-69128661D01*
X162255542Y-69081042D01*
X162112685Y-68985804D01*
X161922209Y-68938185D01*
X161541257Y-68938185D01*
X161446019Y-68985804D01*
X161398400Y-69033423D01*
X161350780Y-69128661D01*
X161350780Y-69319138D01*
X161398400Y-69414376D01*
X161446019Y-69461995D01*
X161541257Y-69509614D01*
X161779352Y-69509614D01*
X161874590Y-69461995D01*
X161922209Y-69414376D01*
X161969828Y-69319138D01*
X161969828Y-69128661D01*
X161922209Y-69033423D01*
X161874590Y-68985804D01*
X161779352Y-68938185D01*
%TO.C,D1*%
X190661904Y-60165476D02*
X189861904Y-60165476D01*
X189861904Y-59975000D01*
X189900000Y-59860714D01*
X189976190Y-59784523D01*
X190052380Y-59746428D01*
X190204761Y-59708333D01*
X190319047Y-59708333D01*
X190471428Y-59746428D01*
X190547619Y-59784523D01*
X190623809Y-59860714D01*
X190661904Y-59975000D01*
X190661904Y-60165476D01*
X190661904Y-58946428D02*
X190661904Y-59403571D01*
X190661904Y-59175000D02*
X189861904Y-59175000D01*
X189976190Y-59251190D01*
X190052380Y-59327380D01*
X190090476Y-59403571D01*
%TO.C,C2*%
X155533333Y-70957142D02*
X155485714Y-71004761D01*
X155342857Y-71052380D01*
X155247619Y-71052380D01*
X155104761Y-71004761D01*
X155009523Y-70909523D01*
X154961904Y-70814285D01*
X154914285Y-70623809D01*
X154914285Y-70480952D01*
X154961904Y-70290476D01*
X155009523Y-70195238D01*
X155104761Y-70100000D01*
X155247619Y-70052380D01*
X155342857Y-70052380D01*
X155485714Y-70100000D01*
X155533333Y-70147619D01*
X155914285Y-70147619D02*
X155961904Y-70100000D01*
X156057142Y-70052380D01*
X156295238Y-70052380D01*
X156390476Y-70100000D01*
X156438095Y-70147619D01*
X156485714Y-70242857D01*
X156485714Y-70338095D01*
X156438095Y-70480952D01*
X155866666Y-71052380D01*
X156485714Y-71052380D01*
%TO.C,C7*%
X155533333Y-69457142D02*
X155485714Y-69504761D01*
X155342857Y-69552380D01*
X155247619Y-69552380D01*
X155104761Y-69504761D01*
X155009523Y-69409523D01*
X154961904Y-69314285D01*
X154914285Y-69123809D01*
X154914285Y-68980952D01*
X154961904Y-68790476D01*
X155009523Y-68695238D01*
X155104761Y-68600000D01*
X155247619Y-68552380D01*
X155342857Y-68552380D01*
X155485714Y-68600000D01*
X155533333Y-68647619D01*
X155866666Y-68552380D02*
X156533333Y-68552380D01*
X156104761Y-69552380D01*
%TO.C,R26*%
X165702380Y-67416857D02*
X165226190Y-67750190D01*
X165702380Y-67988285D02*
X164702380Y-67988285D01*
X164702380Y-67607333D01*
X164750000Y-67512095D01*
X164797619Y-67464476D01*
X164892857Y-67416857D01*
X165035714Y-67416857D01*
X165130952Y-67464476D01*
X165178571Y-67512095D01*
X165226190Y-67607333D01*
X165226190Y-67988285D01*
X164797619Y-67035904D02*
X164750000Y-66988285D01*
X164702380Y-66893047D01*
X164702380Y-66654952D01*
X164750000Y-66559714D01*
X164797619Y-66512095D01*
X164892857Y-66464476D01*
X164988095Y-66464476D01*
X165130952Y-66512095D01*
X165702380Y-67083523D01*
X165702380Y-66464476D01*
X164702380Y-65607333D02*
X164702380Y-65797809D01*
X164750000Y-65893047D01*
X164797619Y-65940666D01*
X164940476Y-66035904D01*
X165130952Y-66083523D01*
X165511904Y-66083523D01*
X165607142Y-66035904D01*
X165654761Y-65988285D01*
X165702380Y-65893047D01*
X165702380Y-65702571D01*
X165654761Y-65607333D01*
X165607142Y-65559714D01*
X165511904Y-65512095D01*
X165273809Y-65512095D01*
X165178571Y-65559714D01*
X165130952Y-65607333D01*
X165083333Y-65702571D01*
X165083333Y-65893047D01*
X165130952Y-65988285D01*
X165178571Y-66035904D01*
X165273809Y-66083523D01*
%TO.C,D8*%
X171611904Y-65115476D02*
X170811904Y-65115476D01*
X170811904Y-64925000D01*
X170850000Y-64810714D01*
X170926190Y-64734523D01*
X171002380Y-64696428D01*
X171154761Y-64658333D01*
X171269047Y-64658333D01*
X171421428Y-64696428D01*
X171497619Y-64734523D01*
X171573809Y-64810714D01*
X171611904Y-64925000D01*
X171611904Y-65115476D01*
X171154761Y-64201190D02*
X171116666Y-64277380D01*
X171078571Y-64315476D01*
X171002380Y-64353571D01*
X170964285Y-64353571D01*
X170888095Y-64315476D01*
X170850000Y-64277380D01*
X170811904Y-64201190D01*
X170811904Y-64048809D01*
X170850000Y-63972619D01*
X170888095Y-63934523D01*
X170964285Y-63896428D01*
X171002380Y-63896428D01*
X171078571Y-63934523D01*
X171116666Y-63972619D01*
X171154761Y-64048809D01*
X171154761Y-64201190D01*
X171192857Y-64277380D01*
X171230952Y-64315476D01*
X171307142Y-64353571D01*
X171459523Y-64353571D01*
X171535714Y-64315476D01*
X171573809Y-64277380D01*
X171611904Y-64201190D01*
X171611904Y-64048809D01*
X171573809Y-63972619D01*
X171535714Y-63934523D01*
X171459523Y-63896428D01*
X171307142Y-63896428D01*
X171230952Y-63934523D01*
X171192857Y-63972619D01*
X171154761Y-64048809D01*
%TO.C,D7*%
X171536904Y-58990476D02*
X170736904Y-58990476D01*
X170736904Y-58800000D01*
X170775000Y-58685714D01*
X170851190Y-58609523D01*
X170927380Y-58571428D01*
X171079761Y-58533333D01*
X171194047Y-58533333D01*
X171346428Y-58571428D01*
X171422619Y-58609523D01*
X171498809Y-58685714D01*
X171536904Y-58800000D01*
X171536904Y-58990476D01*
X170736904Y-58266666D02*
X170736904Y-57733333D01*
X171536904Y-58076190D01*
%TO.C,R15*%
X155257142Y-67852380D02*
X154923809Y-67376190D01*
X154685714Y-67852380D02*
X154685714Y-66852380D01*
X155066666Y-66852380D01*
X155161904Y-66900000D01*
X155209523Y-66947619D01*
X155257142Y-67042857D01*
X155257142Y-67185714D01*
X155209523Y-67280952D01*
X155161904Y-67328571D01*
X155066666Y-67376190D01*
X154685714Y-67376190D01*
X156209523Y-67852380D02*
X155638095Y-67852380D01*
X155923809Y-67852380D02*
X155923809Y-66852380D01*
X155828571Y-66995238D01*
X155733333Y-67090476D01*
X155638095Y-67138095D01*
X157114285Y-66852380D02*
X156638095Y-66852380D01*
X156590476Y-67328571D01*
X156638095Y-67280952D01*
X156733333Y-67233333D01*
X156971428Y-67233333D01*
X157066666Y-67280952D01*
X157114285Y-67328571D01*
X157161904Y-67423809D01*
X157161904Y-67661904D01*
X157114285Y-67757142D01*
X157066666Y-67804761D01*
X156971428Y-67852380D01*
X156733333Y-67852380D01*
X156638095Y-67804761D01*
X156590476Y-67757142D01*
%TO.C,R9*%
X141552580Y-68230666D02*
X141076390Y-68564000D01*
X141552580Y-68802095D02*
X140552580Y-68802095D01*
X140552580Y-68421142D01*
X140600200Y-68325904D01*
X140647819Y-68278285D01*
X140743057Y-68230666D01*
X140885914Y-68230666D01*
X140981152Y-68278285D01*
X141028771Y-68325904D01*
X141076390Y-68421142D01*
X141076390Y-68802095D01*
X141552580Y-67754476D02*
X141552580Y-67564000D01*
X141504961Y-67468761D01*
X141457342Y-67421142D01*
X141314485Y-67325904D01*
X141124009Y-67278285D01*
X140743057Y-67278285D01*
X140647819Y-67325904D01*
X140600200Y-67373523D01*
X140552580Y-67468761D01*
X140552580Y-67659238D01*
X140600200Y-67754476D01*
X140647819Y-67802095D01*
X140743057Y-67849714D01*
X140981152Y-67849714D01*
X141076390Y-67802095D01*
X141124009Y-67754476D01*
X141171628Y-67659238D01*
X141171628Y-67468761D01*
X141124009Y-67373523D01*
X141076390Y-67325904D01*
X140981152Y-67278285D01*
%TO.C,P2*%
X153736904Y-54227380D02*
X153736904Y-53227380D01*
X154117857Y-53227380D01*
X154213095Y-53275000D01*
X154260714Y-53322619D01*
X154308333Y-53417857D01*
X154308333Y-53560714D01*
X154260714Y-53655952D01*
X154213095Y-53703571D01*
X154117857Y-53751190D01*
X153736904Y-53751190D01*
X154689285Y-53322619D02*
X154736904Y-53275000D01*
X154832142Y-53227380D01*
X155070238Y-53227380D01*
X155165476Y-53275000D01*
X155213095Y-53322619D01*
X155260714Y-53417857D01*
X155260714Y-53513095D01*
X155213095Y-53655952D01*
X154641666Y-54227380D01*
X155260714Y-54227380D01*
%TO.C,P1*%
X144524504Y-59731280D02*
X144524504Y-58731280D01*
X144905457Y-58731280D01*
X145000695Y-58778900D01*
X145048314Y-58826519D01*
X145095933Y-58921757D01*
X145095933Y-59064614D01*
X145048314Y-59159852D01*
X145000695Y-59207471D01*
X144905457Y-59255090D01*
X144524504Y-59255090D01*
X146048314Y-59731280D02*
X145476885Y-59731280D01*
X145762600Y-59731280D02*
X145762600Y-58731280D01*
X145667361Y-58874138D01*
X145572123Y-58969376D01*
X145476885Y-59016995D01*
%TO.C,R10*%
X148176780Y-68631057D02*
X147700590Y-68964390D01*
X148176780Y-69202485D02*
X147176780Y-69202485D01*
X147176780Y-68821533D01*
X147224400Y-68726295D01*
X147272019Y-68678676D01*
X147367257Y-68631057D01*
X147510114Y-68631057D01*
X147605352Y-68678676D01*
X147652971Y-68726295D01*
X147700590Y-68821533D01*
X147700590Y-69202485D01*
X148176780Y-67678676D02*
X148176780Y-68250104D01*
X148176780Y-67964390D02*
X147176780Y-67964390D01*
X147319638Y-68059628D01*
X147414876Y-68154866D01*
X147462495Y-68250104D01*
X147176780Y-67059628D02*
X147176780Y-66964390D01*
X147224400Y-66869152D01*
X147272019Y-66821533D01*
X147367257Y-66773914D01*
X147557733Y-66726295D01*
X147795828Y-66726295D01*
X147986304Y-66773914D01*
X148081542Y-66821533D01*
X148129161Y-66869152D01*
X148176780Y-66964390D01*
X148176780Y-67059628D01*
X148129161Y-67154866D01*
X148081542Y-67202485D01*
X147986304Y-67250104D01*
X147795828Y-67297723D01*
X147557733Y-67297723D01*
X147367257Y-67250104D01*
X147272019Y-67202485D01*
X147224400Y-67154866D01*
X147176780Y-67059628D01*
%TO.C,D5*%
X161286904Y-60677380D02*
X161286904Y-59677380D01*
X161525000Y-59677380D01*
X161667857Y-59725000D01*
X161763095Y-59820238D01*
X161810714Y-59915476D01*
X161858333Y-60105952D01*
X161858333Y-60248809D01*
X161810714Y-60439285D01*
X161763095Y-60534523D01*
X161667857Y-60629761D01*
X161525000Y-60677380D01*
X161286904Y-60677380D01*
X162763095Y-59677380D02*
X162286904Y-59677380D01*
X162239285Y-60153571D01*
X162286904Y-60105952D01*
X162382142Y-60058333D01*
X162620238Y-60058333D01*
X162715476Y-60105952D01*
X162763095Y-60153571D01*
X162810714Y-60248809D01*
X162810714Y-60486904D01*
X162763095Y-60582142D01*
X162715476Y-60629761D01*
X162620238Y-60677380D01*
X162382142Y-60677380D01*
X162286904Y-60629761D01*
X162239285Y-60582142D01*
%TO.C,TP3*%
D19*
X137594047Y-58851190D02*
X137879761Y-58851190D01*
X137736904Y-59351190D02*
X137736904Y-58851190D01*
X138046428Y-59351190D02*
X138046428Y-58851190D01*
X138236904Y-58851190D01*
X138284523Y-58875000D01*
X138308333Y-58898809D01*
X138332142Y-58946428D01*
X138332142Y-59017857D01*
X138308333Y-59065476D01*
X138284523Y-59089285D01*
X138236904Y-59113095D01*
X138046428Y-59113095D01*
X138498809Y-58851190D02*
X138808333Y-58851190D01*
X138641666Y-59041666D01*
X138713095Y-59041666D01*
X138760714Y-59065476D01*
X138784523Y-59089285D01*
X138808333Y-59136904D01*
X138808333Y-59255952D01*
X138784523Y-59303571D01*
X138760714Y-59327380D01*
X138713095Y-59351190D01*
X138570238Y-59351190D01*
X138522619Y-59327380D01*
X138498809Y-59303571D01*
%TO.C,TP2*%
X153769047Y-58926190D02*
X154054761Y-58926190D01*
X153911904Y-59426190D02*
X153911904Y-58926190D01*
X154221428Y-59426190D02*
X154221428Y-58926190D01*
X154411904Y-58926190D01*
X154459523Y-58950000D01*
X154483333Y-58973809D01*
X154507142Y-59021428D01*
X154507142Y-59092857D01*
X154483333Y-59140476D01*
X154459523Y-59164285D01*
X154411904Y-59188095D01*
X154221428Y-59188095D01*
X154697619Y-58973809D02*
X154721428Y-58950000D01*
X154769047Y-58926190D01*
X154888095Y-58926190D01*
X154935714Y-58950000D01*
X154959523Y-58973809D01*
X154983333Y-59021428D01*
X154983333Y-59069047D01*
X154959523Y-59140476D01*
X154673809Y-59426190D01*
X154983333Y-59426190D01*
%TO.C,TP1*%
D13*
X192538095Y-66304380D02*
X193109523Y-66304380D01*
X192823809Y-67304380D02*
X192823809Y-66304380D01*
X193442857Y-67304380D02*
X193442857Y-66304380D01*
X193823809Y-66304380D01*
X193919047Y-66352000D01*
X193966666Y-66399619D01*
X194014285Y-66494857D01*
X194014285Y-66637714D01*
X193966666Y-66732952D01*
X193919047Y-66780571D01*
X193823809Y-66828190D01*
X193442857Y-66828190D01*
X194966666Y-67304380D02*
X194395238Y-67304380D01*
X194680952Y-67304380D02*
X194680952Y-66304380D01*
X194585714Y-66447238D01*
X194490476Y-66542476D01*
X194395238Y-66590095D01*
%TO.C,D6*%
X147652380Y-64238095D02*
X146652380Y-64238095D01*
X146652380Y-64000000D01*
X146700000Y-63857142D01*
X146795238Y-63761904D01*
X146890476Y-63714285D01*
X147080952Y-63666666D01*
X147223809Y-63666666D01*
X147414285Y-63714285D01*
X147509523Y-63761904D01*
X147604761Y-63857142D01*
X147652380Y-64000000D01*
X147652380Y-64238095D01*
X146652380Y-62809523D02*
X146652380Y-63000000D01*
X146700000Y-63095238D01*
X146747619Y-63142857D01*
X146890476Y-63238095D01*
X147080952Y-63285714D01*
X147461904Y-63285714D01*
X147557142Y-63238095D01*
X147604761Y-63190476D01*
X147652380Y-63095238D01*
X147652380Y-62904761D01*
X147604761Y-62809523D01*
X147557142Y-62761904D01*
X147461904Y-62714285D01*
X147223809Y-62714285D01*
X147128571Y-62761904D01*
X147080952Y-62809523D01*
X147033333Y-62904761D01*
X147033333Y-63095238D01*
X147080952Y-63190476D01*
X147128571Y-63238095D01*
X147223809Y-63285714D01*
%TO.C,U4*%
D19*
X174257304Y-71335719D02*
X174257304Y-71726395D01*
X174280285Y-71772357D01*
X174303266Y-71795338D01*
X174349228Y-71818319D01*
X174441152Y-71818319D01*
X174487114Y-71795338D01*
X174510095Y-71772357D01*
X174533076Y-71726395D01*
X174533076Y-71335719D01*
X174969714Y-71496585D02*
X174969714Y-71818319D01*
X174854809Y-71312738D02*
X174739904Y-71657452D01*
X175038657Y-71657452D01*
%TO.C,H4*%
D13*
X205738095Y-92752380D02*
X205738095Y-91752380D01*
X205738095Y-92228571D02*
X206309523Y-92228571D01*
X206309523Y-92752380D02*
X206309523Y-91752380D01*
X207214285Y-92085714D02*
X207214285Y-92752380D01*
X206976190Y-91704761D02*
X206738095Y-92419047D01*
X207357142Y-92419047D01*
%TO.C,H3*%
X205738095Y-49752380D02*
X205738095Y-48752380D01*
X205738095Y-49228571D02*
X206309523Y-49228571D01*
X206309523Y-49752380D02*
X206309523Y-48752380D01*
X206690476Y-48752380D02*
X207309523Y-48752380D01*
X206976190Y-49133333D01*
X207119047Y-49133333D01*
X207214285Y-49180952D01*
X207261904Y-49228571D01*
X207309523Y-49323809D01*
X207309523Y-49561904D01*
X207261904Y-49657142D01*
X207214285Y-49704761D01*
X207119047Y-49752380D01*
X206833333Y-49752380D01*
X206738095Y-49704761D01*
X206690476Y-49657142D01*
%TO.C,H2*%
X122738095Y-92752380D02*
X122738095Y-91752380D01*
X122738095Y-92228571D02*
X123309523Y-92228571D01*
X123309523Y-92752380D02*
X123309523Y-91752380D01*
X123738095Y-91847619D02*
X123785714Y-91800000D01*
X123880952Y-91752380D01*
X124119047Y-91752380D01*
X124214285Y-91800000D01*
X124261904Y-91847619D01*
X124309523Y-91942857D01*
X124309523Y-92038095D01*
X124261904Y-92180952D01*
X123690476Y-92752380D01*
X124309523Y-92752380D01*
%TO.C,H1*%
X122738095Y-49752380D02*
X122738095Y-48752380D01*
X122738095Y-49228571D02*
X123309523Y-49228571D01*
X123309523Y-49752380D02*
X123309523Y-48752380D01*
X124309523Y-49752380D02*
X123738095Y-49752380D01*
X124023809Y-49752380D02*
X124023809Y-48752380D01*
X123928571Y-48895238D01*
X123833333Y-48990476D01*
X123738095Y-49038095D01*
%TO.C,BT1*%
D20*
X139078205Y-97436342D02*
X139181619Y-97470814D01*
X139216091Y-97505285D01*
X139250562Y-97574228D01*
X139250562Y-97677642D01*
X139216091Y-97746585D01*
X139181619Y-97781057D01*
X139112676Y-97815528D01*
X138836905Y-97815528D01*
X138836905Y-97091628D01*
X139078205Y-97091628D01*
X139147148Y-97126100D01*
X139181619Y-97160571D01*
X139216091Y-97229514D01*
X139216091Y-97298457D01*
X139181619Y-97367400D01*
X139147148Y-97401871D01*
X139078205Y-97436342D01*
X138836905Y-97436342D01*
X139457391Y-97091628D02*
X139871048Y-97091628D01*
X139664219Y-97815528D02*
X139664219Y-97091628D01*
X140491534Y-97815528D02*
X140077876Y-97815528D01*
X140284705Y-97815528D02*
X140284705Y-97091628D01*
X140215762Y-97195042D01*
X140146819Y-97263985D01*
X140077876Y-97298457D01*
%TO.C,U3*%
D19*
X142732304Y-71535719D02*
X142732304Y-71926395D01*
X142755285Y-71972357D01*
X142778266Y-71995338D01*
X142824228Y-72018319D01*
X142916152Y-72018319D01*
X142962114Y-71995338D01*
X142985095Y-71972357D01*
X143008076Y-71926395D01*
X143008076Y-71535719D01*
X143191923Y-71535719D02*
X143490676Y-71535719D01*
X143329809Y-71719566D01*
X143398752Y-71719566D01*
X143444714Y-71742547D01*
X143467695Y-71765528D01*
X143490676Y-71811490D01*
X143490676Y-71926395D01*
X143467695Y-71972357D01*
X143444714Y-71995338D01*
X143398752Y-72018319D01*
X143260866Y-72018319D01*
X143214904Y-71995338D01*
X143191923Y-71972357D01*
%TO.C,U1*%
D13*
X180661895Y-57996980D02*
X180661895Y-58806504D01*
X180709514Y-58901742D01*
X180757133Y-58949361D01*
X180852371Y-58996980D01*
X181042847Y-58996980D01*
X181138085Y-58949361D01*
X181185704Y-58901742D01*
X181233323Y-58806504D01*
X181233323Y-57996980D01*
X182233323Y-58996980D02*
X181661895Y-58996980D01*
X181947609Y-58996980D02*
X181947609Y-57996980D01*
X181852371Y-58139838D01*
X181757133Y-58235076D01*
X181661895Y-58282695D01*
%TO.C,LED1*%
D21*
X206115476Y-62551190D02*
X205877380Y-62551190D01*
X205877380Y-62051190D01*
X206282142Y-62289285D02*
X206448809Y-62289285D01*
X206520238Y-62551190D02*
X206282142Y-62551190D01*
X206282142Y-62051190D01*
X206520238Y-62051190D01*
X206734523Y-62551190D02*
X206734523Y-62051190D01*
X206853571Y-62051190D01*
X206925000Y-62075000D01*
X206972619Y-62122619D01*
X206996428Y-62170238D01*
X207020238Y-62265476D01*
X207020238Y-62336904D01*
X206996428Y-62432142D01*
X206972619Y-62479761D01*
X206925000Y-62527380D01*
X206853571Y-62551190D01*
X206734523Y-62551190D01*
X207496428Y-62551190D02*
X207210714Y-62551190D01*
X207353571Y-62551190D02*
X207353571Y-62051190D01*
X207305952Y-62122619D01*
X207258333Y-62170238D01*
X207210714Y-62194047D01*
%TO.C,J7*%
D13*
X173783666Y-50887380D02*
X173783666Y-51601666D01*
X173736047Y-51744523D01*
X173640809Y-51839761D01*
X173497952Y-51887380D01*
X173402714Y-51887380D01*
X174164619Y-50887380D02*
X174831285Y-50887380D01*
X174402714Y-51887380D01*
%TO.C,J4*%
X200366666Y-57211980D02*
X200366666Y-57926266D01*
X200319047Y-58069123D01*
X200223809Y-58164361D01*
X200080952Y-58211980D01*
X199985714Y-58211980D01*
X201271428Y-57545314D02*
X201271428Y-58211980D01*
X201033333Y-57164361D02*
X200795238Y-57878647D01*
X201414285Y-57878647D01*
%TO.C,J2*%
D18*
X208043302Y-73389714D02*
X208456960Y-73389714D01*
X208539691Y-73417291D01*
X208594845Y-73472445D01*
X208622422Y-73555177D01*
X208622422Y-73610331D01*
X208098457Y-73141519D02*
X208070880Y-73113942D01*
X208043302Y-73058788D01*
X208043302Y-72920902D01*
X208070880Y-72865748D01*
X208098457Y-72838171D01*
X208153611Y-72810594D01*
X208208765Y-72810594D01*
X208291497Y-72838171D01*
X208622422Y-73169097D01*
X208622422Y-72810594D01*
%TO.C,FB2*%
X176417400Y-90733634D02*
X176224360Y-90733634D01*
X176224360Y-91036982D02*
X176224360Y-90457862D01*
X176500131Y-90457862D01*
X176913788Y-90733634D02*
X176996520Y-90761211D01*
X177024097Y-90788788D01*
X177051674Y-90843942D01*
X177051674Y-90926674D01*
X177024097Y-90981828D01*
X176996520Y-91009405D01*
X176941365Y-91036982D01*
X176720748Y-91036982D01*
X176720748Y-90457862D01*
X176913788Y-90457862D01*
X176968942Y-90485440D01*
X176996520Y-90513017D01*
X177024097Y-90568171D01*
X177024097Y-90623325D01*
X176996520Y-90678480D01*
X176968942Y-90706057D01*
X176913788Y-90733634D01*
X176720748Y-90733634D01*
X177272291Y-90513017D02*
X177299868Y-90485440D01*
X177355022Y-90457862D01*
X177492908Y-90457862D01*
X177548062Y-90485440D01*
X177575640Y-90513017D01*
X177603217Y-90568171D01*
X177603217Y-90623325D01*
X177575640Y-90706057D01*
X177244714Y-91036982D01*
X177603217Y-91036982D01*
%TO.C,FB1*%
X146567400Y-91408634D02*
X146374360Y-91408634D01*
X146374360Y-91711982D02*
X146374360Y-91132862D01*
X146650131Y-91132862D01*
X147063788Y-91408634D02*
X147146520Y-91436211D01*
X147174097Y-91463788D01*
X147201674Y-91518942D01*
X147201674Y-91601674D01*
X147174097Y-91656828D01*
X147146520Y-91684405D01*
X147091365Y-91711982D01*
X146870748Y-91711982D01*
X146870748Y-91132862D01*
X147063788Y-91132862D01*
X147118942Y-91160440D01*
X147146520Y-91188017D01*
X147174097Y-91243171D01*
X147174097Y-91298325D01*
X147146520Y-91353480D01*
X147118942Y-91381057D01*
X147063788Y-91408634D01*
X146870748Y-91408634D01*
X147753217Y-91711982D02*
X147422291Y-91711982D01*
X147587754Y-91711982D02*
X147587754Y-91132862D01*
X147532600Y-91215594D01*
X147477445Y-91270748D01*
X147422291Y-91298325D01*
%TO.C,LED7*%
D21*
X205965476Y-65601190D02*
X205727380Y-65601190D01*
X205727380Y-65101190D01*
X206132142Y-65339285D02*
X206298809Y-65339285D01*
X206370238Y-65601190D02*
X206132142Y-65601190D01*
X206132142Y-65101190D01*
X206370238Y-65101190D01*
X206584523Y-65601190D02*
X206584523Y-65101190D01*
X206703571Y-65101190D01*
X206775000Y-65125000D01*
X206822619Y-65172619D01*
X206846428Y-65220238D01*
X206870238Y-65315476D01*
X206870238Y-65386904D01*
X206846428Y-65482142D01*
X206822619Y-65529761D01*
X206775000Y-65577380D01*
X206703571Y-65601190D01*
X206584523Y-65601190D01*
X207036904Y-65101190D02*
X207370238Y-65101190D01*
X207155952Y-65601190D01*
%TO.C,LED6*%
X206070476Y-68926190D02*
X205832380Y-68926190D01*
X205832380Y-68426190D01*
X206237142Y-68664285D02*
X206403809Y-68664285D01*
X206475238Y-68926190D02*
X206237142Y-68926190D01*
X206237142Y-68426190D01*
X206475238Y-68426190D01*
X206689523Y-68926190D02*
X206689523Y-68426190D01*
X206808571Y-68426190D01*
X206880000Y-68450000D01*
X206927619Y-68497619D01*
X206951428Y-68545238D01*
X206975238Y-68640476D01*
X206975238Y-68711904D01*
X206951428Y-68807142D01*
X206927619Y-68854761D01*
X206880000Y-68902380D01*
X206808571Y-68926190D01*
X206689523Y-68926190D01*
X207403809Y-68426190D02*
X207308571Y-68426190D01*
X207260952Y-68450000D01*
X207237142Y-68473809D01*
X207189523Y-68545238D01*
X207165714Y-68640476D01*
X207165714Y-68830952D01*
X207189523Y-68878571D01*
X207213333Y-68902380D01*
X207260952Y-68926190D01*
X207356190Y-68926190D01*
X207403809Y-68902380D01*
X207427619Y-68878571D01*
X207451428Y-68830952D01*
X207451428Y-68711904D01*
X207427619Y-68664285D01*
X207403809Y-68640476D01*
X207356190Y-68616666D01*
X207260952Y-68616666D01*
X207213333Y-68640476D01*
X207189523Y-68664285D01*
X207165714Y-68711904D01*
%TO.C,LED5*%
X206110476Y-72186190D02*
X205872380Y-72186190D01*
X205872380Y-71686190D01*
X206277142Y-71924285D02*
X206443809Y-71924285D01*
X206515238Y-72186190D02*
X206277142Y-72186190D01*
X206277142Y-71686190D01*
X206515238Y-71686190D01*
X206729523Y-72186190D02*
X206729523Y-71686190D01*
X206848571Y-71686190D01*
X206920000Y-71710000D01*
X206967619Y-71757619D01*
X206991428Y-71805238D01*
X207015238Y-71900476D01*
X207015238Y-71971904D01*
X206991428Y-72067142D01*
X206967619Y-72114761D01*
X206920000Y-72162380D01*
X206848571Y-72186190D01*
X206729523Y-72186190D01*
X207467619Y-71686190D02*
X207229523Y-71686190D01*
X207205714Y-71924285D01*
X207229523Y-71900476D01*
X207277142Y-71876666D01*
X207396190Y-71876666D01*
X207443809Y-71900476D01*
X207467619Y-71924285D01*
X207491428Y-71971904D01*
X207491428Y-72090952D01*
X207467619Y-72138571D01*
X207443809Y-72162380D01*
X207396190Y-72186190D01*
X207277142Y-72186190D01*
X207229523Y-72162380D01*
X207205714Y-72138571D01*
%TO.C,LED4*%
X127170476Y-57776190D02*
X126932380Y-57776190D01*
X126932380Y-57276190D01*
X127337142Y-57514285D02*
X127503809Y-57514285D01*
X127575238Y-57776190D02*
X127337142Y-57776190D01*
X127337142Y-57276190D01*
X127575238Y-57276190D01*
X127789523Y-57776190D02*
X127789523Y-57276190D01*
X127908571Y-57276190D01*
X127980000Y-57300000D01*
X128027619Y-57347619D01*
X128051428Y-57395238D01*
X128075238Y-57490476D01*
X128075238Y-57561904D01*
X128051428Y-57657142D01*
X128027619Y-57704761D01*
X127980000Y-57752380D01*
X127908571Y-57776190D01*
X127789523Y-57776190D01*
X128503809Y-57442857D02*
X128503809Y-57776190D01*
X128384761Y-57252380D02*
X128265714Y-57609523D01*
X128575238Y-57609523D01*
%TO.C,LED3*%
X127215476Y-60676190D02*
X126977380Y-60676190D01*
X126977380Y-60176190D01*
X127382142Y-60414285D02*
X127548809Y-60414285D01*
X127620238Y-60676190D02*
X127382142Y-60676190D01*
X127382142Y-60176190D01*
X127620238Y-60176190D01*
X127834523Y-60676190D02*
X127834523Y-60176190D01*
X127953571Y-60176190D01*
X128025000Y-60200000D01*
X128072619Y-60247619D01*
X128096428Y-60295238D01*
X128120238Y-60390476D01*
X128120238Y-60461904D01*
X128096428Y-60557142D01*
X128072619Y-60604761D01*
X128025000Y-60652380D01*
X127953571Y-60676190D01*
X127834523Y-60676190D01*
X128286904Y-60176190D02*
X128596428Y-60176190D01*
X128429761Y-60366666D01*
X128501190Y-60366666D01*
X128548809Y-60390476D01*
X128572619Y-60414285D01*
X128596428Y-60461904D01*
X128596428Y-60580952D01*
X128572619Y-60628571D01*
X128548809Y-60652380D01*
X128501190Y-60676190D01*
X128358333Y-60676190D01*
X128310714Y-60652380D01*
X128286904Y-60628571D01*
%TO.C,D2*%
D18*
X128797554Y-90547422D02*
X128797554Y-89968302D01*
X128935440Y-89968302D01*
X129018171Y-89995880D01*
X129073325Y-90051034D01*
X129100902Y-90106188D01*
X129128480Y-90216497D01*
X129128480Y-90299228D01*
X129100902Y-90409537D01*
X129073325Y-90464691D01*
X129018171Y-90519845D01*
X128935440Y-90547422D01*
X128797554Y-90547422D01*
X129349097Y-90023457D02*
X129376674Y-89995880D01*
X129431828Y-89968302D01*
X129569714Y-89968302D01*
X129624868Y-89995880D01*
X129652445Y-90023457D01*
X129680022Y-90078611D01*
X129680022Y-90133765D01*
X129652445Y-90216497D01*
X129321520Y-90547422D01*
X129680022Y-90547422D01*
%TO.C,LED2*%
D21*
X127190476Y-63426190D02*
X126952380Y-63426190D01*
X126952380Y-62926190D01*
X127357142Y-63164285D02*
X127523809Y-63164285D01*
X127595238Y-63426190D02*
X127357142Y-63426190D01*
X127357142Y-62926190D01*
X127595238Y-62926190D01*
X127809523Y-63426190D02*
X127809523Y-62926190D01*
X127928571Y-62926190D01*
X128000000Y-62950000D01*
X128047619Y-62997619D01*
X128071428Y-63045238D01*
X128095238Y-63140476D01*
X128095238Y-63211904D01*
X128071428Y-63307142D01*
X128047619Y-63354761D01*
X128000000Y-63402380D01*
X127928571Y-63426190D01*
X127809523Y-63426190D01*
X128285714Y-62973809D02*
X128309523Y-62950000D01*
X128357142Y-62926190D01*
X128476190Y-62926190D01*
X128523809Y-62950000D01*
X128547619Y-62973809D01*
X128571428Y-63021428D01*
X128571428Y-63069047D01*
X128547619Y-63140476D01*
X128261904Y-63426190D01*
X128571428Y-63426190D01*
%TO.C,C8*%
D18*
X185428480Y-92217268D02*
X185400902Y-92244845D01*
X185318171Y-92272422D01*
X185263017Y-92272422D01*
X185180285Y-92244845D01*
X185125131Y-92189691D01*
X185097554Y-92134537D01*
X185069977Y-92024228D01*
X185069977Y-91941497D01*
X185097554Y-91831188D01*
X185125131Y-91776034D01*
X185180285Y-91720880D01*
X185263017Y-91693302D01*
X185318171Y-91693302D01*
X185400902Y-91720880D01*
X185428480Y-91748457D01*
X185759405Y-91941497D02*
X185704251Y-91913920D01*
X185676674Y-91886342D01*
X185649097Y-91831188D01*
X185649097Y-91803611D01*
X185676674Y-91748457D01*
X185704251Y-91720880D01*
X185759405Y-91693302D01*
X185869714Y-91693302D01*
X185924868Y-91720880D01*
X185952445Y-91748457D01*
X185980022Y-91803611D01*
X185980022Y-91831188D01*
X185952445Y-91886342D01*
X185924868Y-91913920D01*
X185869714Y-91941497D01*
X185759405Y-91941497D01*
X185704251Y-91969074D01*
X185676674Y-91996651D01*
X185649097Y-92051805D01*
X185649097Y-92162114D01*
X185676674Y-92217268D01*
X185704251Y-92244845D01*
X185759405Y-92272422D01*
X185869714Y-92272422D01*
X185924868Y-92244845D01*
X185952445Y-92217268D01*
X185980022Y-92162114D01*
X185980022Y-92051805D01*
X185952445Y-91996651D01*
X185924868Y-91969074D01*
X185869714Y-91941497D01*
%TO.C,C1*%
X155623480Y-92967268D02*
X155595902Y-92994845D01*
X155513171Y-93022422D01*
X155458017Y-93022422D01*
X155375285Y-92994845D01*
X155320131Y-92939691D01*
X155292554Y-92884537D01*
X155264977Y-92774228D01*
X155264977Y-92691497D01*
X155292554Y-92581188D01*
X155320131Y-92526034D01*
X155375285Y-92470880D01*
X155458017Y-92443302D01*
X155513171Y-92443302D01*
X155595902Y-92470880D01*
X155623480Y-92498457D01*
X156175022Y-93022422D02*
X155844097Y-93022422D01*
X156009560Y-93022422D02*
X156009560Y-92443302D01*
X155954405Y-92526034D01*
X155899251Y-92581188D01*
X155844097Y-92608765D01*
%TD*%
%LPC*%
D19*
%TO.C,BT1*%
G36*
X139277600Y-91412500D02*
G01*
X135077600Y-91412500D01*
X135077600Y-93112500D01*
X139277600Y-93112500D01*
X139277600Y-91412500D01*
G37*
G36*
X137497600Y-96792500D02*
G01*
X135097600Y-96792500D01*
X135097600Y-94392500D01*
X137497600Y-96792500D01*
G37*
%TO.C,FB2*%
G36*
X178215400Y-91080600D02*
G01*
X178634500Y-91080600D01*
X178634500Y-90369400D01*
X178215400Y-90369400D01*
X178215400Y-91080600D01*
G37*
G36*
X179015500Y-91080600D02*
G01*
X179434600Y-91080600D01*
X179434600Y-90369400D01*
X179015500Y-90369400D01*
X179015500Y-91080600D01*
G37*
%TO.C,FB1*%
G36*
X148690400Y-91805600D02*
G01*
X149109500Y-91805600D01*
X149109500Y-91094400D01*
X148690400Y-91094400D01*
X148690400Y-91805600D01*
G37*
G36*
X149490500Y-91805600D02*
G01*
X149909600Y-91805600D01*
X149909600Y-91094400D01*
X149490500Y-91094400D01*
X149490500Y-91805600D01*
G37*
%TD*%
D22*
%TO.C,R5*%
X131437200Y-92516500D03*
X133137200Y-92516500D03*
%TD*%
%TO.C,R14*%
G36*
G01*
X152850000Y-91737500D02*
X152850000Y-91262500D01*
G75*
G02*
X153087500Y-91025000I237500J0D01*
G01*
X153662500Y-91025000D01*
G75*
G02*
X153900000Y-91262500I0J-237500D01*
G01*
X153900000Y-91737500D01*
G75*
G02*
X153662500Y-91975000I-237500J0D01*
G01*
X153087500Y-91975000D01*
G75*
G02*
X152850000Y-91737500I0J237500D01*
G01*
G37*
G36*
G01*
X151100000Y-91737500D02*
X151100000Y-91262500D01*
G75*
G02*
X151337500Y-91025000I237500J0D01*
G01*
X151912500Y-91025000D01*
G75*
G02*
X152150000Y-91262500I0J-237500D01*
G01*
X152150000Y-91737500D01*
G75*
G02*
X151912500Y-91975000I-237500J0D01*
G01*
X151337500Y-91975000D01*
G75*
G02*
X151100000Y-91737500I0J237500D01*
G01*
G37*
%TD*%
%TO.C,R7*%
G36*
G01*
X182150000Y-90962500D02*
X182150000Y-90487500D01*
G75*
G02*
X182387500Y-90250000I237500J0D01*
G01*
X182962500Y-90250000D01*
G75*
G02*
X183200000Y-90487500I0J-237500D01*
G01*
X183200000Y-90962500D01*
G75*
G02*
X182962500Y-91200000I-237500J0D01*
G01*
X182387500Y-91200000D01*
G75*
G02*
X182150000Y-90962500I0J237500D01*
G01*
G37*
G36*
G01*
X180400000Y-90962500D02*
X180400000Y-90487500D01*
G75*
G02*
X180637500Y-90250000I237500J0D01*
G01*
X181212500Y-90250000D01*
G75*
G02*
X181450000Y-90487500I0J-237500D01*
G01*
X181450000Y-90962500D01*
G75*
G02*
X181212500Y-91200000I-237500J0D01*
G01*
X180637500Y-91200000D01*
G75*
G02*
X180400000Y-90962500I0J237500D01*
G01*
G37*
%TD*%
%TO.C,R27*%
G36*
G01*
X181200000Y-70937500D02*
X181200000Y-70462500D01*
G75*
G02*
X181437500Y-70225000I237500J0D01*
G01*
X182012500Y-70225000D01*
G75*
G02*
X182250000Y-70462500I0J-237500D01*
G01*
X182250000Y-70937500D01*
G75*
G02*
X182012500Y-71175000I-237500J0D01*
G01*
X181437500Y-71175000D01*
G75*
G02*
X181200000Y-70937500I0J237500D01*
G01*
G37*
G36*
G01*
X179450000Y-70937500D02*
X179450000Y-70462500D01*
G75*
G02*
X179687500Y-70225000I237500J0D01*
G01*
X180262500Y-70225000D01*
G75*
G02*
X180500000Y-70462500I0J-237500D01*
G01*
X180500000Y-70937500D01*
G75*
G02*
X180262500Y-71175000I-237500J0D01*
G01*
X179687500Y-71175000D01*
G75*
G02*
X179450000Y-70937500I0J237500D01*
G01*
G37*
%TD*%
%TO.C,C11*%
G36*
G01*
X187651200Y-69260900D02*
X187651200Y-69735900D01*
G75*
G02*
X187413700Y-69973400I-237500J0D01*
G01*
X186838700Y-69973400D01*
G75*
G02*
X186601200Y-69735900I0J237500D01*
G01*
X186601200Y-69260900D01*
G75*
G02*
X186838700Y-69023400I237500J0D01*
G01*
X187413700Y-69023400D01*
G75*
G02*
X187651200Y-69260900I0J-237500D01*
G01*
G37*
G36*
G01*
X189401200Y-69260900D02*
X189401200Y-69735900D01*
G75*
G02*
X189163700Y-69973400I-237500J0D01*
G01*
X188588700Y-69973400D01*
G75*
G02*
X188351200Y-69735900I0J237500D01*
G01*
X188351200Y-69260900D01*
G75*
G02*
X188588700Y-69023400I237500J0D01*
G01*
X189163700Y-69023400D01*
G75*
G02*
X189401200Y-69260900I0J-237500D01*
G01*
G37*
%TD*%
%TO.C,C10*%
G36*
G01*
X188327600Y-71412300D02*
X188327600Y-70937300D01*
G75*
G02*
X188565100Y-70699800I237500J0D01*
G01*
X189140100Y-70699800D01*
G75*
G02*
X189377600Y-70937300I0J-237500D01*
G01*
X189377600Y-71412300D01*
G75*
G02*
X189140100Y-71649800I-237500J0D01*
G01*
X188565100Y-71649800D01*
G75*
G02*
X188327600Y-71412300I0J237500D01*
G01*
G37*
G36*
G01*
X186577600Y-71412300D02*
X186577600Y-70937300D01*
G75*
G02*
X186815100Y-70699800I237500J0D01*
G01*
X187390100Y-70699800D01*
G75*
G02*
X187627600Y-70937300I0J-237500D01*
G01*
X187627600Y-71412300D01*
G75*
G02*
X187390100Y-71649800I-237500J0D01*
G01*
X186815100Y-71649800D01*
G75*
G02*
X186577600Y-71412300I0J237500D01*
G01*
G37*
%TD*%
%TO.C,C5*%
G36*
G01*
X184037500Y-69550000D02*
X183562500Y-69550000D01*
G75*
G02*
X183325000Y-69312500I0J237500D01*
G01*
X183325000Y-68737500D01*
G75*
G02*
X183562500Y-68500000I237500J0D01*
G01*
X184037500Y-68500000D01*
G75*
G02*
X184275000Y-68737500I0J-237500D01*
G01*
X184275000Y-69312500D01*
G75*
G02*
X184037500Y-69550000I-237500J0D01*
G01*
G37*
G36*
G01*
X184037500Y-71300000D02*
X183562500Y-71300000D01*
G75*
G02*
X183325000Y-71062500I0J237500D01*
G01*
X183325000Y-70487500D01*
G75*
G02*
X183562500Y-70250000I237500J0D01*
G01*
X184037500Y-70250000D01*
G75*
G02*
X184275000Y-70487500I0J-237500D01*
G01*
X184275000Y-71062500D01*
G75*
G02*
X184037500Y-71300000I-237500J0D01*
G01*
G37*
%TD*%
%TO.C,C4*%
G36*
G01*
X181200000Y-69337500D02*
X181200000Y-68862500D01*
G75*
G02*
X181437500Y-68625000I237500J0D01*
G01*
X182012500Y-68625000D01*
G75*
G02*
X182250000Y-68862500I0J-237500D01*
G01*
X182250000Y-69337500D01*
G75*
G02*
X182012500Y-69575000I-237500J0D01*
G01*
X181437500Y-69575000D01*
G75*
G02*
X181200000Y-69337500I0J237500D01*
G01*
G37*
G36*
G01*
X179450000Y-69337500D02*
X179450000Y-68862500D01*
G75*
G02*
X179687500Y-68625000I237500J0D01*
G01*
X180262500Y-68625000D01*
G75*
G02*
X180500000Y-68862500I0J-237500D01*
G01*
X180500000Y-69337500D01*
G75*
G02*
X180262500Y-69575000I-237500J0D01*
G01*
X179687500Y-69575000D01*
G75*
G02*
X179450000Y-69337500I0J237500D01*
G01*
G37*
%TD*%
%TO.C,C3*%
G36*
G01*
X131937200Y-94565000D02*
X131937200Y-95040000D01*
G75*
G02*
X131699700Y-95277500I-237500J0D01*
G01*
X131124700Y-95277500D01*
G75*
G02*
X130887200Y-95040000I0J237500D01*
G01*
X130887200Y-94565000D01*
G75*
G02*
X131124700Y-94327500I237500J0D01*
G01*
X131699700Y-94327500D01*
G75*
G02*
X131937200Y-94565000I0J-237500D01*
G01*
G37*
G36*
G01*
X133687200Y-94565000D02*
X133687200Y-95040000D01*
G75*
G02*
X133449700Y-95277500I-237500J0D01*
G01*
X132874700Y-95277500D01*
G75*
G02*
X132637200Y-95040000I0J237500D01*
G01*
X132637200Y-94565000D01*
G75*
G02*
X132874700Y-94327500I237500J0D01*
G01*
X133449700Y-94327500D01*
G75*
G02*
X133687200Y-94565000I0J-237500D01*
G01*
G37*
%TD*%
%TO.C,R13*%
G36*
G01*
X123737200Y-58551900D02*
X123737200Y-59026900D01*
G75*
G02*
X123499700Y-59264400I-237500J0D01*
G01*
X122924700Y-59264400D01*
G75*
G02*
X122687200Y-59026900I0J237500D01*
G01*
X122687200Y-58551900D01*
G75*
G02*
X122924700Y-58314400I237500J0D01*
G01*
X123499700Y-58314400D01*
G75*
G02*
X123737200Y-58551900I0J-237500D01*
G01*
G37*
G36*
G01*
X125487200Y-58551900D02*
X125487200Y-59026900D01*
G75*
G02*
X125249700Y-59264400I-237500J0D01*
G01*
X124674700Y-59264400D01*
G75*
G02*
X124437200Y-59026900I0J237500D01*
G01*
X124437200Y-58551900D01*
G75*
G02*
X124674700Y-58314400I237500J0D01*
G01*
X125249700Y-58314400D01*
G75*
G02*
X125487200Y-58551900I0J-237500D01*
G01*
G37*
%TD*%
%TO.C,R12*%
G36*
G01*
X123737200Y-61441100D02*
X123737200Y-61916100D01*
G75*
G02*
X123499700Y-62153600I-237500J0D01*
G01*
X122924700Y-62153600D01*
G75*
G02*
X122687200Y-61916100I0J237500D01*
G01*
X122687200Y-61441100D01*
G75*
G02*
X122924700Y-61203600I237500J0D01*
G01*
X123499700Y-61203600D01*
G75*
G02*
X123737200Y-61441100I0J-237500D01*
G01*
G37*
G36*
G01*
X125487200Y-61441100D02*
X125487200Y-61916100D01*
G75*
G02*
X125249700Y-62153600I-237500J0D01*
G01*
X124674700Y-62153600D01*
G75*
G02*
X124437200Y-61916100I0J237500D01*
G01*
X124437200Y-61441100D01*
G75*
G02*
X124674700Y-61203600I237500J0D01*
G01*
X125249700Y-61203600D01*
G75*
G02*
X125487200Y-61441100I0J-237500D01*
G01*
G37*
%TD*%
%TO.C,R11*%
G36*
G01*
X123737200Y-64131100D02*
X123737200Y-64606100D01*
G75*
G02*
X123499700Y-64843600I-237500J0D01*
G01*
X122924700Y-64843600D01*
G75*
G02*
X122687200Y-64606100I0J237500D01*
G01*
X122687200Y-64131100D01*
G75*
G02*
X122924700Y-63893600I237500J0D01*
G01*
X123499700Y-63893600D01*
G75*
G02*
X123737200Y-64131100I0J-237500D01*
G01*
G37*
G36*
G01*
X125487200Y-64131100D02*
X125487200Y-64606100D01*
G75*
G02*
X125249700Y-64843600I-237500J0D01*
G01*
X124674700Y-64843600D01*
G75*
G02*
X124437200Y-64606100I0J237500D01*
G01*
X124437200Y-64131100D01*
G75*
G02*
X124674700Y-63893600I237500J0D01*
G01*
X125249700Y-63893600D01*
G75*
G02*
X125487200Y-64131100I0J-237500D01*
G01*
G37*
%TD*%
D23*
%TO.C,TP4*%
X176100000Y-60300000D03*
%TD*%
%TO.C,R21*%
G36*
G01*
X126409600Y-72406500D02*
X126409600Y-72881500D01*
G75*
G02*
X126172100Y-73119000I-237500J0D01*
G01*
X125597100Y-73119000D01*
G75*
G02*
X125359600Y-72881500I0J237500D01*
G01*
X125359600Y-72406500D01*
G75*
G02*
X125597100Y-72169000I237500J0D01*
G01*
X126172100Y-72169000D01*
G75*
G02*
X126409600Y-72406500I0J-237500D01*
G01*
G37*
G36*
G01*
X128159600Y-72406500D02*
X128159600Y-72881500D01*
G75*
G02*
X127922100Y-73119000I-237500J0D01*
G01*
X127347100Y-73119000D01*
G75*
G02*
X127109600Y-72881500I0J237500D01*
G01*
X127109600Y-72406500D01*
G75*
G02*
X127347100Y-72169000I237500J0D01*
G01*
X127922100Y-72169000D01*
G75*
G02*
X128159600Y-72406500I0J-237500D01*
G01*
G37*
%TD*%
%TO.C,R20*%
G36*
G01*
X126409600Y-77486500D02*
X126409600Y-77961500D01*
G75*
G02*
X126172100Y-78199000I-237500J0D01*
G01*
X125597100Y-78199000D01*
G75*
G02*
X125359600Y-77961500I0J237500D01*
G01*
X125359600Y-77486500D01*
G75*
G02*
X125597100Y-77249000I237500J0D01*
G01*
X126172100Y-77249000D01*
G75*
G02*
X126409600Y-77486500I0J-237500D01*
G01*
G37*
G36*
G01*
X128159600Y-77486500D02*
X128159600Y-77961500D01*
G75*
G02*
X127922100Y-78199000I-237500J0D01*
G01*
X127347100Y-78199000D01*
G75*
G02*
X127109600Y-77961500I0J237500D01*
G01*
X127109600Y-77486500D01*
G75*
G02*
X127347100Y-77249000I237500J0D01*
G01*
X127922100Y-77249000D01*
G75*
G02*
X128159600Y-77486500I0J-237500D01*
G01*
G37*
%TD*%
%TO.C,R19*%
G36*
G01*
X126409600Y-74946500D02*
X126409600Y-75421500D01*
G75*
G02*
X126172100Y-75659000I-237500J0D01*
G01*
X125597100Y-75659000D01*
G75*
G02*
X125359600Y-75421500I0J237500D01*
G01*
X125359600Y-74946500D01*
G75*
G02*
X125597100Y-74709000I237500J0D01*
G01*
X126172100Y-74709000D01*
G75*
G02*
X126409600Y-74946500I0J-237500D01*
G01*
G37*
G36*
G01*
X128159600Y-74946500D02*
X128159600Y-75421500D01*
G75*
G02*
X127922100Y-75659000I-237500J0D01*
G01*
X127347100Y-75659000D01*
G75*
G02*
X127109600Y-75421500I0J237500D01*
G01*
X127109600Y-74946500D01*
G75*
G02*
X127347100Y-74709000I237500J0D01*
G01*
X127922100Y-74709000D01*
G75*
G02*
X128159600Y-74946500I0J-237500D01*
G01*
G37*
%TD*%
%TO.C,R18*%
G36*
G01*
X126409600Y-80026500D02*
X126409600Y-80501500D01*
G75*
G02*
X126172100Y-80739000I-237500J0D01*
G01*
X125597100Y-80739000D01*
G75*
G02*
X125359600Y-80501500I0J237500D01*
G01*
X125359600Y-80026500D01*
G75*
G02*
X125597100Y-79789000I237500J0D01*
G01*
X126172100Y-79789000D01*
G75*
G02*
X126409600Y-80026500I0J-237500D01*
G01*
G37*
G36*
G01*
X128159600Y-80026500D02*
X128159600Y-80501500D01*
G75*
G02*
X127922100Y-80739000I-237500J0D01*
G01*
X127347100Y-80739000D01*
G75*
G02*
X127109600Y-80501500I0J237500D01*
G01*
X127109600Y-80026500D01*
G75*
G02*
X127347100Y-79789000I237500J0D01*
G01*
X127922100Y-79789000D01*
G75*
G02*
X128159600Y-80026500I0J-237500D01*
G01*
G37*
%TD*%
%TO.C,R6*%
G36*
G01*
X198916300Y-68622800D02*
X198441300Y-68622800D01*
G75*
G02*
X198203800Y-68385300I0J237500D01*
G01*
X198203800Y-67810300D01*
G75*
G02*
X198441300Y-67572800I237500J0D01*
G01*
X198916300Y-67572800D01*
G75*
G02*
X199153800Y-67810300I0J-237500D01*
G01*
X199153800Y-68385300D01*
G75*
G02*
X198916300Y-68622800I-237500J0D01*
G01*
G37*
G36*
G01*
X198916300Y-70372800D02*
X198441300Y-70372800D01*
G75*
G02*
X198203800Y-70135300I0J237500D01*
G01*
X198203800Y-69560300D01*
G75*
G02*
X198441300Y-69322800I237500J0D01*
G01*
X198916300Y-69322800D01*
G75*
G02*
X199153800Y-69560300I0J-237500D01*
G01*
X199153800Y-70135300D01*
G75*
G02*
X198916300Y-70372800I-237500J0D01*
G01*
G37*
%TD*%
%TO.C,R4*%
G36*
G01*
X197138300Y-68622800D02*
X196663300Y-68622800D01*
G75*
G02*
X196425800Y-68385300I0J237500D01*
G01*
X196425800Y-67810300D01*
G75*
G02*
X196663300Y-67572800I237500J0D01*
G01*
X197138300Y-67572800D01*
G75*
G02*
X197375800Y-67810300I0J-237500D01*
G01*
X197375800Y-68385300D01*
G75*
G02*
X197138300Y-68622800I-237500J0D01*
G01*
G37*
G36*
G01*
X197138300Y-70372800D02*
X196663300Y-70372800D01*
G75*
G02*
X196425800Y-70135300I0J237500D01*
G01*
X196425800Y-69560300D01*
G75*
G02*
X196663300Y-69322800I237500J0D01*
G01*
X197138300Y-69322800D01*
G75*
G02*
X197375800Y-69560300I0J-237500D01*
G01*
X197375800Y-70135300D01*
G75*
G02*
X197138300Y-70372800I-237500J0D01*
G01*
G37*
%TD*%
%TO.C,C6*%
G36*
G01*
X144187500Y-68400000D02*
X144662500Y-68400000D01*
G75*
G02*
X144900000Y-68637500I0J-237500D01*
G01*
X144900000Y-69212500D01*
G75*
G02*
X144662500Y-69450000I-237500J0D01*
G01*
X144187500Y-69450000D01*
G75*
G02*
X143950000Y-69212500I0J237500D01*
G01*
X143950000Y-68637500D01*
G75*
G02*
X144187500Y-68400000I237500J0D01*
G01*
G37*
G36*
G01*
X144187500Y-66650000D02*
X144662500Y-66650000D01*
G75*
G02*
X144900000Y-66887500I0J-237500D01*
G01*
X144900000Y-67462500D01*
G75*
G02*
X144662500Y-67700000I-237500J0D01*
G01*
X144187500Y-67700000D01*
G75*
G02*
X143950000Y-67462500I0J237500D01*
G01*
X143950000Y-66887500D01*
G75*
G02*
X144187500Y-66650000I237500J0D01*
G01*
G37*
%TD*%
%TO.C,R32*%
G36*
G01*
X203883280Y-85429100D02*
X203883280Y-84954100D01*
G75*
G02*
X204120780Y-84716600I237500J0D01*
G01*
X204695780Y-84716600D01*
G75*
G02*
X204933280Y-84954100I0J-237500D01*
G01*
X204933280Y-85429100D01*
G75*
G02*
X204695780Y-85666600I-237500J0D01*
G01*
X204120780Y-85666600D01*
G75*
G02*
X203883280Y-85429100I0J237500D01*
G01*
G37*
G36*
G01*
X202133280Y-85429100D02*
X202133280Y-84954100D01*
G75*
G02*
X202370780Y-84716600I237500J0D01*
G01*
X202945780Y-84716600D01*
G75*
G02*
X203183280Y-84954100I0J-237500D01*
G01*
X203183280Y-85429100D01*
G75*
G02*
X202945780Y-85666600I-237500J0D01*
G01*
X202370780Y-85666600D01*
G75*
G02*
X202133280Y-85429100I0J237500D01*
G01*
G37*
%TD*%
%TO.C,R8*%
G36*
G01*
X159846000Y-67138000D02*
X160321000Y-67138000D01*
G75*
G02*
X160558500Y-67375500I0J-237500D01*
G01*
X160558500Y-67950500D01*
G75*
G02*
X160321000Y-68188000I-237500J0D01*
G01*
X159846000Y-68188000D01*
G75*
G02*
X159608500Y-67950500I0J237500D01*
G01*
X159608500Y-67375500D01*
G75*
G02*
X159846000Y-67138000I237500J0D01*
G01*
G37*
G36*
G01*
X159846000Y-65388000D02*
X160321000Y-65388000D01*
G75*
G02*
X160558500Y-65625500I0J-237500D01*
G01*
X160558500Y-66200500D01*
G75*
G02*
X160321000Y-66438000I-237500J0D01*
G01*
X159846000Y-66438000D01*
G75*
G02*
X159608500Y-66200500I0J237500D01*
G01*
X159608500Y-65625500D01*
G75*
G02*
X159846000Y-65388000I237500J0D01*
G01*
G37*
%TD*%
%TO.C,R25*%
G36*
G01*
X126409600Y-67326500D02*
X126409600Y-67801500D01*
G75*
G02*
X126172100Y-68039000I-237500J0D01*
G01*
X125597100Y-68039000D01*
G75*
G02*
X125359600Y-67801500I0J237500D01*
G01*
X125359600Y-67326500D01*
G75*
G02*
X125597100Y-67089000I237500J0D01*
G01*
X126172100Y-67089000D01*
G75*
G02*
X126409600Y-67326500I0J-237500D01*
G01*
G37*
G36*
G01*
X128159600Y-67326500D02*
X128159600Y-67801500D01*
G75*
G02*
X127922100Y-68039000I-237500J0D01*
G01*
X127347100Y-68039000D01*
G75*
G02*
X127109600Y-67801500I0J237500D01*
G01*
X127109600Y-67326500D01*
G75*
G02*
X127347100Y-67089000I237500J0D01*
G01*
X127922100Y-67089000D01*
G75*
G02*
X128159600Y-67326500I0J-237500D01*
G01*
G37*
%TD*%
%TO.C,R24*%
G36*
G01*
X126409600Y-69866500D02*
X126409600Y-70341500D01*
G75*
G02*
X126172100Y-70579000I-237500J0D01*
G01*
X125597100Y-70579000D01*
G75*
G02*
X125359600Y-70341500I0J237500D01*
G01*
X125359600Y-69866500D01*
G75*
G02*
X125597100Y-69629000I237500J0D01*
G01*
X126172100Y-69629000D01*
G75*
G02*
X126409600Y-69866500I0J-237500D01*
G01*
G37*
G36*
G01*
X128159600Y-69866500D02*
X128159600Y-70341500D01*
G75*
G02*
X127922100Y-70579000I-237500J0D01*
G01*
X127347100Y-70579000D01*
G75*
G02*
X127109600Y-70341500I0J237500D01*
G01*
X127109600Y-69866500D01*
G75*
G02*
X127347100Y-69629000I237500J0D01*
G01*
X127922100Y-69629000D01*
G75*
G02*
X128159600Y-69866500I0J-237500D01*
G01*
G37*
%TD*%
%TO.C,R33*%
G36*
G01*
X204014640Y-80349100D02*
X204014640Y-79874100D01*
G75*
G02*
X204252140Y-79636600I237500J0D01*
G01*
X204827140Y-79636600D01*
G75*
G02*
X205064640Y-79874100I0J-237500D01*
G01*
X205064640Y-80349100D01*
G75*
G02*
X204827140Y-80586600I-237500J0D01*
G01*
X204252140Y-80586600D01*
G75*
G02*
X204014640Y-80349100I0J237500D01*
G01*
G37*
G36*
G01*
X202264640Y-80349100D02*
X202264640Y-79874100D01*
G75*
G02*
X202502140Y-79636600I237500J0D01*
G01*
X203077140Y-79636600D01*
G75*
G02*
X203314640Y-79874100I0J-237500D01*
G01*
X203314640Y-80349100D01*
G75*
G02*
X203077140Y-80586600I-237500J0D01*
G01*
X202502140Y-80586600D01*
G75*
G02*
X202264640Y-80349100I0J237500D01*
G01*
G37*
%TD*%
%TO.C,R29*%
G36*
G01*
X203817600Y-87969100D02*
X203817600Y-87494100D01*
G75*
G02*
X204055100Y-87256600I237500J0D01*
G01*
X204630100Y-87256600D01*
G75*
G02*
X204867600Y-87494100I0J-237500D01*
G01*
X204867600Y-87969100D01*
G75*
G02*
X204630100Y-88206600I-237500J0D01*
G01*
X204055100Y-88206600D01*
G75*
G02*
X203817600Y-87969100I0J237500D01*
G01*
G37*
G36*
G01*
X202067600Y-87969100D02*
X202067600Y-87494100D01*
G75*
G02*
X202305100Y-87256600I237500J0D01*
G01*
X202880100Y-87256600D01*
G75*
G02*
X203117600Y-87494100I0J-237500D01*
G01*
X203117600Y-87969100D01*
G75*
G02*
X202880100Y-88206600I-237500J0D01*
G01*
X202305100Y-88206600D01*
G75*
G02*
X202067600Y-87969100I0J237500D01*
G01*
G37*
%TD*%
%TO.C,R28*%
G36*
G01*
X203948960Y-82889100D02*
X203948960Y-82414100D01*
G75*
G02*
X204186460Y-82176600I237500J0D01*
G01*
X204761460Y-82176600D01*
G75*
G02*
X204998960Y-82414100I0J-237500D01*
G01*
X204998960Y-82889100D01*
G75*
G02*
X204761460Y-83126600I-237500J0D01*
G01*
X204186460Y-83126600D01*
G75*
G02*
X203948960Y-82889100I0J237500D01*
G01*
G37*
G36*
G01*
X202198960Y-82889100D02*
X202198960Y-82414100D01*
G75*
G02*
X202436460Y-82176600I237500J0D01*
G01*
X203011460Y-82176600D01*
G75*
G02*
X203248960Y-82414100I0J-237500D01*
G01*
X203248960Y-82889100D01*
G75*
G02*
X203011460Y-83126600I-237500J0D01*
G01*
X202436460Y-83126600D01*
G75*
G02*
X202198960Y-82889100I0J237500D01*
G01*
G37*
%TD*%
%TO.C,R1*%
G36*
G01*
X202683200Y-61004300D02*
X202683200Y-61479300D01*
G75*
G02*
X202445700Y-61716800I-237500J0D01*
G01*
X201870700Y-61716800D01*
G75*
G02*
X201633200Y-61479300I0J237500D01*
G01*
X201633200Y-61004300D01*
G75*
G02*
X201870700Y-60766800I237500J0D01*
G01*
X202445700Y-60766800D01*
G75*
G02*
X202683200Y-61004300I0J-237500D01*
G01*
G37*
G36*
G01*
X204433200Y-61004300D02*
X204433200Y-61479300D01*
G75*
G02*
X204195700Y-61716800I-237500J0D01*
G01*
X203620700Y-61716800D01*
G75*
G02*
X203383200Y-61479300I0J237500D01*
G01*
X203383200Y-61004300D01*
G75*
G02*
X203620700Y-60766800I237500J0D01*
G01*
X204195700Y-60766800D01*
G75*
G02*
X204433200Y-61004300I0J-237500D01*
G01*
G37*
%TD*%
%TO.C,R37*%
G36*
G01*
X202833200Y-63865000D02*
X202833200Y-64340000D01*
G75*
G02*
X202595700Y-64577500I-237500J0D01*
G01*
X202020700Y-64577500D01*
G75*
G02*
X201783200Y-64340000I0J237500D01*
G01*
X201783200Y-63865000D01*
G75*
G02*
X202020700Y-63627500I237500J0D01*
G01*
X202595700Y-63627500D01*
G75*
G02*
X202833200Y-63865000I0J-237500D01*
G01*
G37*
G36*
G01*
X204583200Y-63865000D02*
X204583200Y-64340000D01*
G75*
G02*
X204345700Y-64577500I-237500J0D01*
G01*
X203770700Y-64577500D01*
G75*
G02*
X203533200Y-64340000I0J237500D01*
G01*
X203533200Y-63865000D01*
G75*
G02*
X203770700Y-63627500I237500J0D01*
G01*
X204345700Y-63627500D01*
G75*
G02*
X204583200Y-63865000I0J-237500D01*
G01*
G37*
%TD*%
%TO.C,R36*%
G36*
G01*
X202872200Y-67294000D02*
X202872200Y-67769000D01*
G75*
G02*
X202634700Y-68006500I-237500J0D01*
G01*
X202059700Y-68006500D01*
G75*
G02*
X201822200Y-67769000I0J237500D01*
G01*
X201822200Y-67294000D01*
G75*
G02*
X202059700Y-67056500I237500J0D01*
G01*
X202634700Y-67056500D01*
G75*
G02*
X202872200Y-67294000I0J-237500D01*
G01*
G37*
G36*
G01*
X204622200Y-67294000D02*
X204622200Y-67769000D01*
G75*
G02*
X204384700Y-68006500I-237500J0D01*
G01*
X203809700Y-68006500D01*
G75*
G02*
X203572200Y-67769000I0J237500D01*
G01*
X203572200Y-67294000D01*
G75*
G02*
X203809700Y-67056500I237500J0D01*
G01*
X204384700Y-67056500D01*
G75*
G02*
X204622200Y-67294000I0J-237500D01*
G01*
G37*
%TD*%
%TO.C,R35*%
G36*
G01*
X202833200Y-70596000D02*
X202833200Y-71071000D01*
G75*
G02*
X202595700Y-71308500I-237500J0D01*
G01*
X202020700Y-71308500D01*
G75*
G02*
X201783200Y-71071000I0J237500D01*
G01*
X201783200Y-70596000D01*
G75*
G02*
X202020700Y-70358500I237500J0D01*
G01*
X202595700Y-70358500D01*
G75*
G02*
X202833200Y-70596000I0J-237500D01*
G01*
G37*
G36*
G01*
X204583200Y-70596000D02*
X204583200Y-71071000D01*
G75*
G02*
X204345700Y-71308500I-237500J0D01*
G01*
X203770700Y-71308500D01*
G75*
G02*
X203533200Y-71071000I0J237500D01*
G01*
X203533200Y-70596000D01*
G75*
G02*
X203770700Y-70358500I237500J0D01*
G01*
X204345700Y-70358500D01*
G75*
G02*
X204583200Y-70596000I0J-237500D01*
G01*
G37*
%TD*%
%TO.C,R31*%
G36*
G01*
X204080320Y-75269100D02*
X204080320Y-74794100D01*
G75*
G02*
X204317820Y-74556600I237500J0D01*
G01*
X204892820Y-74556600D01*
G75*
G02*
X205130320Y-74794100I0J-237500D01*
G01*
X205130320Y-75269100D01*
G75*
G02*
X204892820Y-75506600I-237500J0D01*
G01*
X204317820Y-75506600D01*
G75*
G02*
X204080320Y-75269100I0J237500D01*
G01*
G37*
G36*
G01*
X202330320Y-75269100D02*
X202330320Y-74794100D01*
G75*
G02*
X202567820Y-74556600I237500J0D01*
G01*
X203142820Y-74556600D01*
G75*
G02*
X203380320Y-74794100I0J-237500D01*
G01*
X203380320Y-75269100D01*
G75*
G02*
X203142820Y-75506600I-237500J0D01*
G01*
X202567820Y-75506600D01*
G75*
G02*
X202330320Y-75269100I0J237500D01*
G01*
G37*
%TD*%
%TO.C,R30*%
G36*
G01*
X204146000Y-77809100D02*
X204146000Y-77334100D01*
G75*
G02*
X204383500Y-77096600I237500J0D01*
G01*
X204958500Y-77096600D01*
G75*
G02*
X205196000Y-77334100I0J-237500D01*
G01*
X205196000Y-77809100D01*
G75*
G02*
X204958500Y-78046600I-237500J0D01*
G01*
X204383500Y-78046600D01*
G75*
G02*
X204146000Y-77809100I0J237500D01*
G01*
G37*
G36*
G01*
X202396000Y-77809100D02*
X202396000Y-77334100D01*
G75*
G02*
X202633500Y-77096600I237500J0D01*
G01*
X203208500Y-77096600D01*
G75*
G02*
X203446000Y-77334100I0J-237500D01*
G01*
X203446000Y-77809100D01*
G75*
G02*
X203208500Y-78046600I-237500J0D01*
G01*
X202633500Y-78046600D01*
G75*
G02*
X202396000Y-77809100I0J237500D01*
G01*
G37*
%TD*%
%TO.C,R39*%
G36*
G01*
X140700000Y-75762500D02*
X140700000Y-76237500D01*
G75*
G02*
X140462500Y-76475000I-237500J0D01*
G01*
X139887500Y-76475000D01*
G75*
G02*
X139650000Y-76237500I0J237500D01*
G01*
X139650000Y-75762500D01*
G75*
G02*
X139887500Y-75525000I237500J0D01*
G01*
X140462500Y-75525000D01*
G75*
G02*
X140700000Y-75762500I0J-237500D01*
G01*
G37*
G36*
G01*
X142450000Y-75762500D02*
X142450000Y-76237500D01*
G75*
G02*
X142212500Y-76475000I-237500J0D01*
G01*
X141637500Y-76475000D01*
G75*
G02*
X141400000Y-76237500I0J237500D01*
G01*
X141400000Y-75762500D01*
G75*
G02*
X141637500Y-75525000I237500J0D01*
G01*
X142212500Y-75525000D01*
G75*
G02*
X142450000Y-75762500I0J-237500D01*
G01*
G37*
%TD*%
%TO.C,R38*%
G36*
G01*
X140700000Y-74012500D02*
X140700000Y-74487500D01*
G75*
G02*
X140462500Y-74725000I-237500J0D01*
G01*
X139887500Y-74725000D01*
G75*
G02*
X139650000Y-74487500I0J237500D01*
G01*
X139650000Y-74012500D01*
G75*
G02*
X139887500Y-73775000I237500J0D01*
G01*
X140462500Y-73775000D01*
G75*
G02*
X140700000Y-74012500I0J-237500D01*
G01*
G37*
G36*
G01*
X142450000Y-74012500D02*
X142450000Y-74487500D01*
G75*
G02*
X142212500Y-74725000I-237500J0D01*
G01*
X141637500Y-74725000D01*
G75*
G02*
X141400000Y-74487500I0J237500D01*
G01*
X141400000Y-74012500D01*
G75*
G02*
X141637500Y-73775000I237500J0D01*
G01*
X142212500Y-73775000D01*
G75*
G02*
X142450000Y-74012500I0J-237500D01*
G01*
G37*
%TD*%
%TO.C,R23*%
G36*
G01*
X168737500Y-72300000D02*
X168262500Y-72300000D01*
G75*
G02*
X168025000Y-72062500I0J237500D01*
G01*
X168025000Y-71487500D01*
G75*
G02*
X168262500Y-71250000I237500J0D01*
G01*
X168737500Y-71250000D01*
G75*
G02*
X168975000Y-71487500I0J-237500D01*
G01*
X168975000Y-72062500D01*
G75*
G02*
X168737500Y-72300000I-237500J0D01*
G01*
G37*
G36*
G01*
X168737500Y-74050000D02*
X168262500Y-74050000D01*
G75*
G02*
X168025000Y-73812500I0J237500D01*
G01*
X168025000Y-73237500D01*
G75*
G02*
X168262500Y-73000000I237500J0D01*
G01*
X168737500Y-73000000D01*
G75*
G02*
X168975000Y-73237500I0J-237500D01*
G01*
X168975000Y-73812500D01*
G75*
G02*
X168737500Y-74050000I-237500J0D01*
G01*
G37*
%TD*%
%TO.C,R22*%
G36*
G01*
X170637500Y-72250000D02*
X170162500Y-72250000D01*
G75*
G02*
X169925000Y-72012500I0J237500D01*
G01*
X169925000Y-71437500D01*
G75*
G02*
X170162500Y-71200000I237500J0D01*
G01*
X170637500Y-71200000D01*
G75*
G02*
X170875000Y-71437500I0J-237500D01*
G01*
X170875000Y-72012500D01*
G75*
G02*
X170637500Y-72250000I-237500J0D01*
G01*
G37*
G36*
G01*
X170637500Y-74000000D02*
X170162500Y-74000000D01*
G75*
G02*
X169925000Y-73762500I0J237500D01*
G01*
X169925000Y-73187500D01*
G75*
G02*
X170162500Y-72950000I237500J0D01*
G01*
X170637500Y-72950000D01*
G75*
G02*
X170875000Y-73187500I0J-237500D01*
G01*
X170875000Y-73762500D01*
G75*
G02*
X170637500Y-74000000I-237500J0D01*
G01*
G37*
%TD*%
%TO.C,R17*%
G36*
G01*
X149777600Y-62398900D02*
X149777600Y-62873900D01*
G75*
G02*
X149540100Y-63111400I-237500J0D01*
G01*
X148965100Y-63111400D01*
G75*
G02*
X148727600Y-62873900I0J237500D01*
G01*
X148727600Y-62398900D01*
G75*
G02*
X148965100Y-62161400I237500J0D01*
G01*
X149540100Y-62161400D01*
G75*
G02*
X149777600Y-62398900I0J-237500D01*
G01*
G37*
G36*
G01*
X151527600Y-62398900D02*
X151527600Y-62873900D01*
G75*
G02*
X151290100Y-63111400I-237500J0D01*
G01*
X150715100Y-63111400D01*
G75*
G02*
X150477600Y-62873900I0J237500D01*
G01*
X150477600Y-62398900D01*
G75*
G02*
X150715100Y-62161400I237500J0D01*
G01*
X151290100Y-62161400D01*
G75*
G02*
X151527600Y-62398900I0J-237500D01*
G01*
G37*
%TD*%
%TO.C,R16*%
G36*
G01*
X141080500Y-63060200D02*
X140605500Y-63060200D01*
G75*
G02*
X140368000Y-62822700I0J237500D01*
G01*
X140368000Y-62247700D01*
G75*
G02*
X140605500Y-62010200I237500J0D01*
G01*
X141080500Y-62010200D01*
G75*
G02*
X141318000Y-62247700I0J-237500D01*
G01*
X141318000Y-62822700D01*
G75*
G02*
X141080500Y-63060200I-237500J0D01*
G01*
G37*
G36*
G01*
X141080500Y-64810200D02*
X140605500Y-64810200D01*
G75*
G02*
X140368000Y-64572700I0J237500D01*
G01*
X140368000Y-63997700D01*
G75*
G02*
X140605500Y-63760200I237500J0D01*
G01*
X141080500Y-63760200D01*
G75*
G02*
X141318000Y-63997700I0J-237500D01*
G01*
X141318000Y-64572700D01*
G75*
G02*
X141080500Y-64810200I-237500J0D01*
G01*
G37*
%TD*%
%TO.C,R3*%
G36*
G01*
X165478100Y-62048000D02*
X165478100Y-62523000D01*
G75*
G02*
X165240600Y-62760500I-237500J0D01*
G01*
X164665600Y-62760500D01*
G75*
G02*
X164428100Y-62523000I0J237500D01*
G01*
X164428100Y-62048000D01*
G75*
G02*
X164665600Y-61810500I237500J0D01*
G01*
X165240600Y-61810500D01*
G75*
G02*
X165478100Y-62048000I0J-237500D01*
G01*
G37*
G36*
G01*
X167228100Y-62048000D02*
X167228100Y-62523000D01*
G75*
G02*
X166990600Y-62760500I-237500J0D01*
G01*
X166415600Y-62760500D01*
G75*
G02*
X166178100Y-62523000I0J237500D01*
G01*
X166178100Y-62048000D01*
G75*
G02*
X166415600Y-61810500I237500J0D01*
G01*
X166990600Y-61810500D01*
G75*
G02*
X167228100Y-62048000I0J-237500D01*
G01*
G37*
%TD*%
%TO.C,R2*%
G36*
G01*
X158835100Y-62412500D02*
X158360100Y-62412500D01*
G75*
G02*
X158122600Y-62175000I0J237500D01*
G01*
X158122600Y-61600000D01*
G75*
G02*
X158360100Y-61362500I237500J0D01*
G01*
X158835100Y-61362500D01*
G75*
G02*
X159072600Y-61600000I0J-237500D01*
G01*
X159072600Y-62175000D01*
G75*
G02*
X158835100Y-62412500I-237500J0D01*
G01*
G37*
G36*
G01*
X158835100Y-64162500D02*
X158360100Y-64162500D01*
G75*
G02*
X158122600Y-63925000I0J237500D01*
G01*
X158122600Y-63350000D01*
G75*
G02*
X158360100Y-63112500I237500J0D01*
G01*
X158835100Y-63112500D01*
G75*
G02*
X159072600Y-63350000I0J-237500D01*
G01*
X159072600Y-63925000D01*
G75*
G02*
X158835100Y-64162500I-237500J0D01*
G01*
G37*
%TD*%
%TO.C,C9*%
G36*
G01*
X161687500Y-67152000D02*
X162162500Y-67152000D01*
G75*
G02*
X162400000Y-67389500I0J-237500D01*
G01*
X162400000Y-67964500D01*
G75*
G02*
X162162500Y-68202000I-237500J0D01*
G01*
X161687500Y-68202000D01*
G75*
G02*
X161450000Y-67964500I0J237500D01*
G01*
X161450000Y-67389500D01*
G75*
G02*
X161687500Y-67152000I237500J0D01*
G01*
G37*
G36*
G01*
X161687500Y-65402000D02*
X162162500Y-65402000D01*
G75*
G02*
X162400000Y-65639500I0J-237500D01*
G01*
X162400000Y-66214500D01*
G75*
G02*
X162162500Y-66452000I-237500J0D01*
G01*
X161687500Y-66452000D01*
G75*
G02*
X161450000Y-66214500I0J237500D01*
G01*
X161450000Y-65639500D01*
G75*
G02*
X161687500Y-65402000I237500J0D01*
G01*
G37*
%TD*%
D24*
%TO.C,D1*%
X190500000Y-65725000D03*
X190500000Y-61975000D03*
%TD*%
%TO.C,C2*%
G36*
G01*
X152650000Y-70837500D02*
X152650000Y-70362500D01*
G75*
G02*
X152887500Y-70125000I237500J0D01*
G01*
X153462500Y-70125000D01*
G75*
G02*
X153700000Y-70362500I0J-237500D01*
G01*
X153700000Y-70837500D01*
G75*
G02*
X153462500Y-71075000I-237500J0D01*
G01*
X152887500Y-71075000D01*
G75*
G02*
X152650000Y-70837500I0J237500D01*
G01*
G37*
G36*
G01*
X150900000Y-70837500D02*
X150900000Y-70362500D01*
G75*
G02*
X151137500Y-70125000I237500J0D01*
G01*
X151712500Y-70125000D01*
G75*
G02*
X151950000Y-70362500I0J-237500D01*
G01*
X151950000Y-70837500D01*
G75*
G02*
X151712500Y-71075000I-237500J0D01*
G01*
X151137500Y-71075000D01*
G75*
G02*
X150900000Y-70837500I0J237500D01*
G01*
G37*
%TD*%
%TO.C,C7*%
G36*
G01*
X151950000Y-68612500D02*
X151950000Y-69087500D01*
G75*
G02*
X151712500Y-69325000I-237500J0D01*
G01*
X151137500Y-69325000D01*
G75*
G02*
X150900000Y-69087500I0J237500D01*
G01*
X150900000Y-68612500D01*
G75*
G02*
X151137500Y-68375000I237500J0D01*
G01*
X151712500Y-68375000D01*
G75*
G02*
X151950000Y-68612500I0J-237500D01*
G01*
G37*
G36*
G01*
X153700000Y-68612500D02*
X153700000Y-69087500D01*
G75*
G02*
X153462500Y-69325000I-237500J0D01*
G01*
X152887500Y-69325000D01*
G75*
G02*
X152650000Y-69087500I0J237500D01*
G01*
X152650000Y-68612500D01*
G75*
G02*
X152887500Y-68375000I237500J0D01*
G01*
X153462500Y-68375000D01*
G75*
G02*
X153700000Y-68612500I0J-237500D01*
G01*
G37*
%TD*%
%TO.C,R26*%
G36*
G01*
X163402000Y-67138000D02*
X163877000Y-67138000D01*
G75*
G02*
X164114500Y-67375500I0J-237500D01*
G01*
X164114500Y-67950500D01*
G75*
G02*
X163877000Y-68188000I-237500J0D01*
G01*
X163402000Y-68188000D01*
G75*
G02*
X163164500Y-67950500I0J237500D01*
G01*
X163164500Y-67375500D01*
G75*
G02*
X163402000Y-67138000I237500J0D01*
G01*
G37*
G36*
G01*
X163402000Y-65388000D02*
X163877000Y-65388000D01*
G75*
G02*
X164114500Y-65625500I0J-237500D01*
G01*
X164114500Y-66200500D01*
G75*
G02*
X163877000Y-66438000I-237500J0D01*
G01*
X163402000Y-66438000D01*
G75*
G02*
X163164500Y-66200500I0J237500D01*
G01*
X163164500Y-65625500D01*
G75*
G02*
X163402000Y-65388000I237500J0D01*
G01*
G37*
%TD*%
%TO.C,D8*%
X173250000Y-66375000D03*
X173250000Y-62625000D03*
%TD*%
%TO.C,D7*%
X173250000Y-56550000D03*
X173250000Y-60300000D03*
%TD*%
%TO.C,R15*%
G36*
G01*
X151950000Y-66837500D02*
X151950000Y-67312500D01*
G75*
G02*
X151712500Y-67550000I-237500J0D01*
G01*
X151137500Y-67550000D01*
G75*
G02*
X150900000Y-67312500I0J237500D01*
G01*
X150900000Y-66837500D01*
G75*
G02*
X151137500Y-66600000I237500J0D01*
G01*
X151712500Y-66600000D01*
G75*
G02*
X151950000Y-66837500I0J-237500D01*
G01*
G37*
G36*
G01*
X153700000Y-66837500D02*
X153700000Y-67312500D01*
G75*
G02*
X153462500Y-67550000I-237500J0D01*
G01*
X152887500Y-67550000D01*
G75*
G02*
X152650000Y-67312500I0J237500D01*
G01*
X152650000Y-66837500D01*
G75*
G02*
X152887500Y-66600000I237500J0D01*
G01*
X153462500Y-66600000D01*
G75*
G02*
X153700000Y-66837500I0J-237500D01*
G01*
G37*
%TD*%
%TO.C,R9*%
G36*
G01*
X142437500Y-68400000D02*
X142912500Y-68400000D01*
G75*
G02*
X143150000Y-68637500I0J-237500D01*
G01*
X143150000Y-69212500D01*
G75*
G02*
X142912500Y-69450000I-237500J0D01*
G01*
X142437500Y-69450000D01*
G75*
G02*
X142200000Y-69212500I0J237500D01*
G01*
X142200000Y-68637500D01*
G75*
G02*
X142437500Y-68400000I237500J0D01*
G01*
G37*
G36*
G01*
X142437500Y-66650000D02*
X142912500Y-66650000D01*
G75*
G02*
X143150000Y-66887500I0J-237500D01*
G01*
X143150000Y-67462500D01*
G75*
G02*
X142912500Y-67700000I-237500J0D01*
G01*
X142437500Y-67700000D01*
G75*
G02*
X142200000Y-67462500I0J237500D01*
G01*
X142200000Y-66887500D01*
G75*
G02*
X142437500Y-66650000I237500J0D01*
G01*
G37*
%TD*%
D25*
%TO.C,P2*%
X162436000Y-53178900D03*
X159636000Y-53178900D03*
D26*
X156716000Y-53178900D03*
D27*
X158036000Y-56278900D03*
D26*
X165356000Y-53178900D03*
D28*
X164036000Y-56278900D03*
D29*
X165356000Y-57003900D03*
X156716000Y-57003900D03*
D30*
X161286000Y-57378900D03*
X159286000Y-57378900D03*
X159786000Y-57378900D03*
X160286000Y-57378900D03*
X160786000Y-57378900D03*
X161786000Y-57378900D03*
X162286000Y-57378900D03*
X162786000Y-57378900D03*
D31*
X157936000Y-57378900D03*
X158686000Y-57378900D03*
X163386000Y-57378900D03*
X164136000Y-57378900D03*
X164136000Y-57378900D03*
X163386000Y-57378900D03*
X158686000Y-57378900D03*
X157936000Y-57378900D03*
%TD*%
D25*
%TO.C,P1*%
X146662600Y-53178900D03*
X143862600Y-53178900D03*
D26*
X140942600Y-53178900D03*
D27*
X142262600Y-56278900D03*
D26*
X149582600Y-53178900D03*
D28*
X148262600Y-56278900D03*
D29*
X149582600Y-57003900D03*
X140942600Y-57003900D03*
D30*
X145512600Y-57378900D03*
X143512600Y-57378900D03*
X144012600Y-57378900D03*
X144512600Y-57378900D03*
X145012600Y-57378900D03*
X146012600Y-57378900D03*
X146512600Y-57378900D03*
X147012600Y-57378900D03*
D31*
X142162600Y-57378900D03*
X142912600Y-57378900D03*
X147612600Y-57378900D03*
X148362600Y-57378900D03*
X148362600Y-57378900D03*
X147612600Y-57378900D03*
X142912600Y-57378900D03*
X142162600Y-57378900D03*
%TD*%
%TO.C,R10*%
G36*
G01*
X145937500Y-68375000D02*
X146412500Y-68375000D01*
G75*
G02*
X146650000Y-68612500I0J-237500D01*
G01*
X146650000Y-69187500D01*
G75*
G02*
X146412500Y-69425000I-237500J0D01*
G01*
X145937500Y-69425000D01*
G75*
G02*
X145700000Y-69187500I0J237500D01*
G01*
X145700000Y-68612500D01*
G75*
G02*
X145937500Y-68375000I237500J0D01*
G01*
G37*
G36*
G01*
X145937500Y-66625000D02*
X146412500Y-66625000D01*
G75*
G02*
X146650000Y-66862500I0J-237500D01*
G01*
X146650000Y-67437500D01*
G75*
G02*
X146412500Y-67675000I-237500J0D01*
G01*
X145937500Y-67675000D01*
G75*
G02*
X145700000Y-67437500I0J237500D01*
G01*
X145700000Y-66862500D01*
G75*
G02*
X145937500Y-66625000I237500J0D01*
G01*
G37*
%TD*%
D32*
%TO.C,D5*%
X161950400Y-63901500D03*
X162900400Y-63901500D03*
X161000400Y-63901500D03*
X161000400Y-61701500D03*
X161950400Y-61701500D03*
X162900400Y-61701500D03*
%TD*%
D23*
%TO.C,TP3*%
X138404600Y-60883800D03*
%TD*%
%TO.C,TP2*%
X156349700Y-60553600D03*
%TD*%
%TO.C,TP1*%
X193800000Y-68300000D03*
%TD*%
D32*
%TO.C,D6*%
X144490400Y-64760200D03*
X145440400Y-64760200D03*
X143540400Y-64760200D03*
X143540400Y-62560200D03*
X144490400Y-62560200D03*
X145440400Y-62560200D03*
%TD*%
D33*
%TO.C,U4*%
X191754000Y-82025200D03*
X189654000Y-82025200D03*
X187554000Y-82025200D03*
X185454000Y-82025200D03*
X191754000Y-84075200D03*
X189654000Y-84075200D03*
X187554000Y-84075200D03*
X185454000Y-84075200D03*
X191754000Y-86125200D03*
X189654000Y-86125200D03*
X187554000Y-86125200D03*
X185454000Y-86125200D03*
X191754000Y-75825200D03*
X189654000Y-75825200D03*
X187554000Y-75825200D03*
X185454000Y-75825200D03*
X191754000Y-77875200D03*
X189654000Y-77875200D03*
X187554000Y-77875200D03*
X185454000Y-77875200D03*
X191754000Y-79925200D03*
X189654000Y-79925200D03*
X187554000Y-79925200D03*
X185454000Y-79925200D03*
X177054000Y-79925200D03*
X179154000Y-79925200D03*
X181254000Y-79925200D03*
X183354000Y-79925200D03*
X177054000Y-77875200D03*
X179154000Y-77875200D03*
X181254000Y-77875200D03*
X183354000Y-77875200D03*
X177054000Y-75825200D03*
X179154000Y-75825200D03*
X181254000Y-75825200D03*
X183354000Y-75825200D03*
X177054000Y-86125200D03*
X179154000Y-86125200D03*
X181254000Y-86125200D03*
X183354000Y-86125200D03*
X177054000Y-84075200D03*
X179154000Y-84075200D03*
X181254000Y-84075200D03*
X183354000Y-84075200D03*
X177054000Y-82025200D03*
X179154000Y-82025200D03*
X181254000Y-82025200D03*
X183354000Y-82025200D03*
D34*
X174454000Y-87575200D03*
X174454000Y-86475200D03*
X174454000Y-85375200D03*
X174454000Y-84275200D03*
X174454000Y-83175200D03*
X174454000Y-82075200D03*
X174454000Y-80975200D03*
X174454000Y-79875200D03*
X174454000Y-78775200D03*
X174454000Y-77675200D03*
X174454000Y-76575200D03*
X174454000Y-75475200D03*
X174454000Y-74375200D03*
D35*
X177254000Y-73525200D03*
X178354000Y-73525200D03*
X179454000Y-73525200D03*
X180554000Y-73525200D03*
X181654000Y-73525200D03*
X182754000Y-73525200D03*
X183854000Y-73525200D03*
X184954000Y-73525200D03*
X186054000Y-73525200D03*
X187154000Y-73525200D03*
X188254000Y-73525200D03*
X189354000Y-73525200D03*
X190454000Y-73525200D03*
X191554000Y-73525200D03*
D34*
X194354000Y-74375200D03*
X194354000Y-75475200D03*
X194354000Y-76575200D03*
X194354000Y-77675200D03*
X194354000Y-78775200D03*
X194354000Y-79875200D03*
X194354000Y-80975200D03*
X194354000Y-82075200D03*
X194354000Y-83175200D03*
X194354000Y-84275200D03*
X194354000Y-85375200D03*
X194354000Y-86475200D03*
X194354000Y-87575200D03*
D35*
X191554000Y-88425200D03*
X190454000Y-88425200D03*
X189354000Y-88425200D03*
X188254000Y-88425200D03*
X187154000Y-88425200D03*
X186054000Y-88425200D03*
X184954000Y-88425200D03*
X183854000Y-88425200D03*
X182754000Y-88425200D03*
X181654000Y-88425200D03*
X180554000Y-88425200D03*
X179454000Y-88425200D03*
X178354000Y-88425200D03*
X177254000Y-88425200D03*
%TD*%
D36*
%TO.C,H4*%
X206500000Y-96500000D03*
%TD*%
%TO.C,H3*%
X206500000Y-53500000D03*
%TD*%
%TO.C,H2*%
X123500000Y-96500000D03*
%TD*%
%TO.C,H1*%
X123500000Y-53500000D03*
%TD*%
D37*
%TO.C,BT1*%
X135755600Y-96144500D03*
D38*
X137177600Y-92262500D03*
%TD*%
D33*
%TO.C,U3*%
X162239200Y-82076000D03*
X160139200Y-82076000D03*
X158039200Y-82076000D03*
X155939200Y-82076000D03*
X162239200Y-84126000D03*
X160139200Y-84126000D03*
X158039200Y-84126000D03*
X155939200Y-84126000D03*
X162239200Y-86176000D03*
X160139200Y-86176000D03*
X158039200Y-86176000D03*
X155939200Y-86176000D03*
X162239200Y-75876000D03*
X160139200Y-75876000D03*
X158039200Y-75876000D03*
X155939200Y-75876000D03*
X162239200Y-77926000D03*
X160139200Y-77926000D03*
X158039200Y-77926000D03*
X155939200Y-77926000D03*
X162239200Y-79976000D03*
X160139200Y-79976000D03*
X158039200Y-79976000D03*
X155939200Y-79976000D03*
X147539200Y-79976000D03*
X149639200Y-79976000D03*
X151739200Y-79976000D03*
X153839200Y-79976000D03*
X147539200Y-77926000D03*
X149639200Y-77926000D03*
X151739200Y-77926000D03*
X153839200Y-77926000D03*
X147539200Y-75876000D03*
X149639200Y-75876000D03*
X151739200Y-75876000D03*
X153839200Y-75876000D03*
X147539200Y-86176000D03*
X149639200Y-86176000D03*
X151739200Y-86176000D03*
X153839200Y-86176000D03*
X147539200Y-84126000D03*
X149639200Y-84126000D03*
X151739200Y-84126000D03*
X153839200Y-84126000D03*
X147539200Y-82076000D03*
X149639200Y-82076000D03*
X151739200Y-82076000D03*
X153839200Y-82076000D03*
D34*
X144939200Y-87626000D03*
X144939200Y-86526000D03*
X144939200Y-85426000D03*
X144939200Y-84326000D03*
X144939200Y-83226000D03*
X144939200Y-82126000D03*
X144939200Y-81026000D03*
X144939200Y-79926000D03*
X144939200Y-78826000D03*
X144939200Y-77726000D03*
X144939200Y-76626000D03*
X144939200Y-75526000D03*
X144939200Y-74426000D03*
D35*
X147739200Y-73576000D03*
X148839200Y-73576000D03*
X149939200Y-73576000D03*
X151039200Y-73576000D03*
X152139200Y-73576000D03*
X153239200Y-73576000D03*
X154339200Y-73576000D03*
X155439200Y-73576000D03*
X156539200Y-73576000D03*
X157639200Y-73576000D03*
X158739200Y-73576000D03*
X159839200Y-73576000D03*
X160939200Y-73576000D03*
X162039200Y-73576000D03*
D34*
X164839200Y-74426000D03*
X164839200Y-75526000D03*
X164839200Y-76626000D03*
X164839200Y-77726000D03*
X164839200Y-78826000D03*
X164839200Y-79926000D03*
X164839200Y-81026000D03*
X164839200Y-82126000D03*
X164839200Y-83226000D03*
X164839200Y-84326000D03*
X164839200Y-85426000D03*
X164839200Y-86526000D03*
X164839200Y-87626000D03*
D35*
X162039200Y-88476000D03*
X160939200Y-88476000D03*
X159839200Y-88476000D03*
X158739200Y-88476000D03*
X157639200Y-88476000D03*
X156539200Y-88476000D03*
X155439200Y-88476000D03*
X154339200Y-88476000D03*
X153239200Y-88476000D03*
X152139200Y-88476000D03*
X151039200Y-88476000D03*
X149939200Y-88476000D03*
X148839200Y-88476000D03*
X147739200Y-88476000D03*
%TD*%
D39*
%TO.C,U1*%
X179200000Y-66800000D03*
X183800000Y-66800000D03*
X181500000Y-66800000D03*
D40*
X181500000Y-60500000D03*
%TD*%
%TO.C,LED1*%
G36*
G01*
X205318880Y-60612400D02*
X206161120Y-60612400D01*
G75*
G02*
X206341600Y-60792880I0J-180480D01*
G01*
X206341600Y-61635120D01*
G75*
G02*
X206161120Y-61815600I-180480J0D01*
G01*
X205318880Y-61815600D01*
G75*
G02*
X205138400Y-61635120I0J180480D01*
G01*
X205138400Y-60792880D01*
G75*
G02*
X205318880Y-60612400I180480J0D01*
G01*
G37*
G36*
G01*
X207072880Y-60612400D02*
X207915120Y-60612400D01*
G75*
G02*
X208095600Y-60792880I0J-180480D01*
G01*
X208095600Y-61635120D01*
G75*
G02*
X207915120Y-61815600I-180480J0D01*
G01*
X207072880Y-61815600D01*
G75*
G02*
X206892400Y-61635120I0J180480D01*
G01*
X206892400Y-60792880D01*
G75*
G02*
X207072880Y-60612400I180480J0D01*
G01*
G37*
%TD*%
%TO.C,J7*%
G36*
G01*
X177084200Y-50766800D02*
X177084200Y-52966800D01*
G75*
G02*
X176834200Y-53216800I-250000J0D01*
G01*
X176334200Y-53216800D01*
G75*
G02*
X176084200Y-52966800I0J250000D01*
G01*
X176084200Y-50766800D01*
G75*
G02*
X176334200Y-50516800I250000J0D01*
G01*
X176834200Y-50516800D01*
G75*
G02*
X177084200Y-50766800I0J-250000D01*
G01*
G37*
G36*
G01*
X187034200Y-50766800D02*
X187034200Y-52966800D01*
G75*
G02*
X186784200Y-53216800I-250000J0D01*
G01*
X186284200Y-53216800D01*
G75*
G02*
X186034200Y-52966800I0J250000D01*
G01*
X186034200Y-50766800D01*
G75*
G02*
X186284200Y-50516800I250000J0D01*
G01*
X186784200Y-50516800D01*
G75*
G02*
X187034200Y-50766800I0J-250000D01*
G01*
G37*
G36*
G01*
X178734200Y-54366800D02*
X178734200Y-55766800D01*
G75*
G02*
X178584200Y-55916800I-150000J0D01*
G01*
X178284200Y-55916800D01*
G75*
G02*
X178134200Y-55766800I0J150000D01*
G01*
X178134200Y-54366800D01*
G75*
G02*
X178284200Y-54216800I150000J0D01*
G01*
X178584200Y-54216800D01*
G75*
G02*
X178734200Y-54366800I0J-150000D01*
G01*
G37*
G36*
G01*
X179984200Y-54366800D02*
X179984200Y-55766800D01*
G75*
G02*
X179834200Y-55916800I-150000J0D01*
G01*
X179534200Y-55916800D01*
G75*
G02*
X179384200Y-55766800I0J150000D01*
G01*
X179384200Y-54366800D01*
G75*
G02*
X179534200Y-54216800I150000J0D01*
G01*
X179834200Y-54216800D01*
G75*
G02*
X179984200Y-54366800I0J-150000D01*
G01*
G37*
G36*
G01*
X181234200Y-54366800D02*
X181234200Y-55766800D01*
G75*
G02*
X181084200Y-55916800I-150000J0D01*
G01*
X180784200Y-55916800D01*
G75*
G02*
X180634200Y-55766800I0J150000D01*
G01*
X180634200Y-54366800D01*
G75*
G02*
X180784200Y-54216800I150000J0D01*
G01*
X181084200Y-54216800D01*
G75*
G02*
X181234200Y-54366800I0J-150000D01*
G01*
G37*
G36*
G01*
X182484200Y-54366800D02*
X182484200Y-55766800D01*
G75*
G02*
X182334200Y-55916800I-150000J0D01*
G01*
X182034200Y-55916800D01*
G75*
G02*
X181884200Y-55766800I0J150000D01*
G01*
X181884200Y-54366800D01*
G75*
G02*
X182034200Y-54216800I150000J0D01*
G01*
X182334200Y-54216800D01*
G75*
G02*
X182484200Y-54366800I0J-150000D01*
G01*
G37*
G36*
G01*
X183734200Y-54366800D02*
X183734200Y-55766800D01*
G75*
G02*
X183584200Y-55916800I-150000J0D01*
G01*
X183284200Y-55916800D01*
G75*
G02*
X183134200Y-55766800I0J150000D01*
G01*
X183134200Y-54366800D01*
G75*
G02*
X183284200Y-54216800I150000J0D01*
G01*
X183584200Y-54216800D01*
G75*
G02*
X183734200Y-54366800I0J-150000D01*
G01*
G37*
G36*
G01*
X184984200Y-54366800D02*
X184984200Y-55766800D01*
G75*
G02*
X184834200Y-55916800I-150000J0D01*
G01*
X184534200Y-55916800D01*
G75*
G02*
X184384200Y-55766800I0J150000D01*
G01*
X184384200Y-54366800D01*
G75*
G02*
X184534200Y-54216800I150000J0D01*
G01*
X184834200Y-54216800D01*
G75*
G02*
X184984200Y-54366800I0J-150000D01*
G01*
G37*
%TD*%
D41*
%TO.C,J6*%
X122110500Y-80264000D03*
X122110500Y-77724000D03*
X122110500Y-75184000D03*
X122110500Y-72644000D03*
X122110500Y-70104000D03*
X122110500Y-67564000D03*
%TD*%
%TO.C,J4*%
G36*
G01*
X190737200Y-51378800D02*
X190737200Y-53878800D01*
G75*
G02*
X190487200Y-54128800I-250000J0D01*
G01*
X188887200Y-54128800D01*
G75*
G02*
X188637200Y-53878800I0J250000D01*
G01*
X188637200Y-51378800D01*
G75*
G02*
X188887200Y-51128800I250000J0D01*
G01*
X190487200Y-51128800D01*
G75*
G02*
X190737200Y-51378800I0J-250000D01*
G01*
G37*
G36*
G01*
X202087200Y-51378800D02*
X202087200Y-53878800D01*
G75*
G02*
X201837200Y-54128800I-250000J0D01*
G01*
X200237200Y-54128800D01*
G75*
G02*
X199987200Y-53878800I0J250000D01*
G01*
X199987200Y-51378800D01*
G75*
G02*
X200237200Y-51128800I250000J0D01*
G01*
X201837200Y-51128800D01*
G75*
G02*
X202087200Y-51378800I0J-250000D01*
G01*
G37*
G36*
G01*
X192637200Y-54928800D02*
X192637200Y-56128800D01*
G75*
G02*
X192437200Y-56328800I-200000J0D01*
G01*
X192037200Y-56328800D01*
G75*
G02*
X191837200Y-56128800I0J200000D01*
G01*
X191837200Y-54928800D01*
G75*
G02*
X192037200Y-54728800I200000J0D01*
G01*
X192437200Y-54728800D01*
G75*
G02*
X192637200Y-54928800I0J-200000D01*
G01*
G37*
G36*
G01*
X193887200Y-54928800D02*
X193887200Y-56128800D01*
G75*
G02*
X193687200Y-56328800I-200000J0D01*
G01*
X193287200Y-56328800D01*
G75*
G02*
X193087200Y-56128800I0J200000D01*
G01*
X193087200Y-54928800D01*
G75*
G02*
X193287200Y-54728800I200000J0D01*
G01*
X193687200Y-54728800D01*
G75*
G02*
X193887200Y-54928800I0J-200000D01*
G01*
G37*
G36*
G01*
X195137200Y-54928800D02*
X195137200Y-56128800D01*
G75*
G02*
X194937200Y-56328800I-200000J0D01*
G01*
X194537200Y-56328800D01*
G75*
G02*
X194337200Y-56128800I0J200000D01*
G01*
X194337200Y-54928800D01*
G75*
G02*
X194537200Y-54728800I200000J0D01*
G01*
X194937200Y-54728800D01*
G75*
G02*
X195137200Y-54928800I0J-200000D01*
G01*
G37*
G36*
G01*
X196387200Y-54928800D02*
X196387200Y-56128800D01*
G75*
G02*
X196187200Y-56328800I-200000J0D01*
G01*
X195787200Y-56328800D01*
G75*
G02*
X195587200Y-56128800I0J200000D01*
G01*
X195587200Y-54928800D01*
G75*
G02*
X195787200Y-54728800I200000J0D01*
G01*
X196187200Y-54728800D01*
G75*
G02*
X196387200Y-54928800I0J-200000D01*
G01*
G37*
G36*
G01*
X197637200Y-54928800D02*
X197637200Y-56128800D01*
G75*
G02*
X197437200Y-56328800I-200000J0D01*
G01*
X197037200Y-56328800D01*
G75*
G02*
X196837200Y-56128800I0J200000D01*
G01*
X196837200Y-54928800D01*
G75*
G02*
X197037200Y-54728800I200000J0D01*
G01*
X197437200Y-54728800D01*
G75*
G02*
X197637200Y-54928800I0J-200000D01*
G01*
G37*
G36*
G01*
X198887200Y-54928800D02*
X198887200Y-56128800D01*
G75*
G02*
X198687200Y-56328800I-200000J0D01*
G01*
X198287200Y-56328800D01*
G75*
G02*
X198087200Y-56128800I0J200000D01*
G01*
X198087200Y-54928800D01*
G75*
G02*
X198287200Y-54728800I200000J0D01*
G01*
X198687200Y-54728800D01*
G75*
G02*
X198887200Y-54928800I0J-200000D01*
G01*
G37*
%TD*%
%TO.C,J2*%
X208127600Y-87731600D03*
X208127600Y-85191600D03*
X208127600Y-82651600D03*
X208127600Y-80111600D03*
X208127600Y-77571600D03*
X208127600Y-75031600D03*
%TD*%
D42*
%TO.C,FB2*%
X179225000Y-90725000D03*
X178425000Y-90725000D03*
%TD*%
%TO.C,FB1*%
X149700000Y-91450000D03*
X148900000Y-91450000D03*
%TD*%
D43*
%TO.C,E3*%
X175860000Y-97800000D03*
X180940000Y-97800000D03*
X175860000Y-97800000D03*
X178400000Y-97800000D03*
X180940000Y-97800000D03*
%TD*%
D44*
%TO.C,E2*%
X122200000Y-83566000D03*
X122200000Y-88646000D03*
X122200000Y-83566000D03*
X122200000Y-86106000D03*
X122200000Y-88646000D03*
%TD*%
D43*
%TO.C,E1*%
X146260000Y-97800000D03*
X151340000Y-97800000D03*
X146260000Y-97800000D03*
X148800000Y-97800000D03*
X151340000Y-97800000D03*
%TD*%
%TO.C,LED7*%
G36*
G01*
X205203880Y-63500900D02*
X206046120Y-63500900D01*
G75*
G02*
X206226600Y-63681380I0J-180480D01*
G01*
X206226600Y-64523620D01*
G75*
G02*
X206046120Y-64704100I-180480J0D01*
G01*
X205203880Y-64704100D01*
G75*
G02*
X205023400Y-64523620I0J180480D01*
G01*
X205023400Y-63681380D01*
G75*
G02*
X205203880Y-63500900I180480J0D01*
G01*
G37*
G36*
G01*
X206957880Y-63500900D02*
X207800120Y-63500900D01*
G75*
G02*
X207980600Y-63681380I0J-180480D01*
G01*
X207980600Y-64523620D01*
G75*
G02*
X207800120Y-64704100I-180480J0D01*
G01*
X206957880Y-64704100D01*
G75*
G02*
X206777400Y-64523620I0J180480D01*
G01*
X206777400Y-63681380D01*
G75*
G02*
X206957880Y-63500900I180480J0D01*
G01*
G37*
%TD*%
%TO.C,LED6*%
G36*
G01*
X205342880Y-66929900D02*
X206185120Y-66929900D01*
G75*
G02*
X206365600Y-67110380I0J-180480D01*
G01*
X206365600Y-67952620D01*
G75*
G02*
X206185120Y-68133100I-180480J0D01*
G01*
X205342880Y-68133100D01*
G75*
G02*
X205162400Y-67952620I0J180480D01*
G01*
X205162400Y-67110380D01*
G75*
G02*
X205342880Y-66929900I180480J0D01*
G01*
G37*
G36*
G01*
X207096880Y-66929900D02*
X207939120Y-66929900D01*
G75*
G02*
X208119600Y-67110380I0J-180480D01*
G01*
X208119600Y-67952620D01*
G75*
G02*
X207939120Y-68133100I-180480J0D01*
G01*
X207096880Y-68133100D01*
G75*
G02*
X206916400Y-67952620I0J180480D01*
G01*
X206916400Y-67110380D01*
G75*
G02*
X207096880Y-66929900I180480J0D01*
G01*
G37*
%TD*%
%TO.C,LED5*%
G36*
G01*
X205342880Y-70231900D02*
X206185120Y-70231900D01*
G75*
G02*
X206365600Y-70412380I0J-180480D01*
G01*
X206365600Y-71254620D01*
G75*
G02*
X206185120Y-71435100I-180480J0D01*
G01*
X205342880Y-71435100D01*
G75*
G02*
X205162400Y-71254620I0J180480D01*
G01*
X205162400Y-70412380D01*
G75*
G02*
X205342880Y-70231900I180480J0D01*
G01*
G37*
G36*
G01*
X207096880Y-70231900D02*
X207939120Y-70231900D01*
G75*
G02*
X208119600Y-70412380I0J-180480D01*
G01*
X208119600Y-71254620D01*
G75*
G02*
X207939120Y-71435100I-180480J0D01*
G01*
X207096880Y-71435100D01*
G75*
G02*
X206916400Y-71254620I0J180480D01*
G01*
X206916400Y-70412380D01*
G75*
G02*
X207096880Y-70231900I180480J0D01*
G01*
G37*
%TD*%
%TO.C,LED4*%
G36*
G01*
X126433080Y-58187800D02*
X127275320Y-58187800D01*
G75*
G02*
X127455800Y-58368280I0J-180480D01*
G01*
X127455800Y-59210520D01*
G75*
G02*
X127275320Y-59391000I-180480J0D01*
G01*
X126433080Y-59391000D01*
G75*
G02*
X126252600Y-59210520I0J180480D01*
G01*
X126252600Y-58368280D01*
G75*
G02*
X126433080Y-58187800I180480J0D01*
G01*
G37*
G36*
G01*
X128187080Y-58187800D02*
X129029320Y-58187800D01*
G75*
G02*
X129209800Y-58368280I0J-180480D01*
G01*
X129209800Y-59210520D01*
G75*
G02*
X129029320Y-59391000I-180480J0D01*
G01*
X128187080Y-59391000D01*
G75*
G02*
X128006600Y-59210520I0J180480D01*
G01*
X128006600Y-58368280D01*
G75*
G02*
X128187080Y-58187800I180480J0D01*
G01*
G37*
%TD*%
%TO.C,LED3*%
G36*
G01*
X126433080Y-61077000D02*
X127275320Y-61077000D01*
G75*
G02*
X127455800Y-61257480I0J-180480D01*
G01*
X127455800Y-62099720D01*
G75*
G02*
X127275320Y-62280200I-180480J0D01*
G01*
X126433080Y-62280200D01*
G75*
G02*
X126252600Y-62099720I0J180480D01*
G01*
X126252600Y-61257480D01*
G75*
G02*
X126433080Y-61077000I180480J0D01*
G01*
G37*
G36*
G01*
X128187080Y-61077000D02*
X129029320Y-61077000D01*
G75*
G02*
X129209800Y-61257480I0J-180480D01*
G01*
X129209800Y-62099720D01*
G75*
G02*
X129029320Y-62280200I-180480J0D01*
G01*
X128187080Y-62280200D01*
G75*
G02*
X128006600Y-62099720I0J180480D01*
G01*
X128006600Y-61257480D01*
G75*
G02*
X128187080Y-61077000I180480J0D01*
G01*
G37*
%TD*%
D45*
%TO.C,D2*%
X133647000Y-90332100D03*
X131347000Y-90332100D03*
%TD*%
%TO.C,LED2*%
G36*
G01*
X126408480Y-63767000D02*
X127250720Y-63767000D01*
G75*
G02*
X127431200Y-63947480I0J-180480D01*
G01*
X127431200Y-64789720D01*
G75*
G02*
X127250720Y-64970200I-180480J0D01*
G01*
X126408480Y-64970200D01*
G75*
G02*
X126228000Y-64789720I0J180480D01*
G01*
X126228000Y-63947480D01*
G75*
G02*
X126408480Y-63767000I180480J0D01*
G01*
G37*
G36*
G01*
X128162480Y-63767000D02*
X129004720Y-63767000D01*
G75*
G02*
X129185200Y-63947480I0J-180480D01*
G01*
X129185200Y-64789720D01*
G75*
G02*
X129004720Y-64970200I-180480J0D01*
G01*
X128162480Y-64970200D01*
G75*
G02*
X127982000Y-64789720I0J180480D01*
G01*
X127982000Y-63947480D01*
G75*
G02*
X128162480Y-63767000I180480J0D01*
G01*
G37*
%TD*%
D46*
%TO.C,C8*%
X185705000Y-90700000D03*
X184545000Y-90700000D03*
%TD*%
%TO.C,C1*%
X156280000Y-91500000D03*
X155120000Y-91500000D03*
%TD*%
M02*
