%TF.GenerationSoftware,KiCad,Pcbnew,(5.1.6)-1*%
%TF.CreationDate,2020-10-07T18:58:12+07:00*%
%TF.ProjectId,ublox ZED-F9P (Full feature),75626c6f-7820-45a4-9544-2d4639502028,V1*%
%TF.SameCoordinates,Original*%
%TF.FileFunction,Legend,Bot*%
%TF.FilePolarity,Positive*%
%FSLAX46Y46*%
G04 Gerber Fmt 4.6, Leading zero omitted, Abs format (unit mm)*
G04 Created by KiCad (PCBNEW (5.1.6)-1) date 2020-10-07 18:58:12*
%MOMM*%
%LPD*%
G01*
G04 APERTURE LIST*
%ADD10C,0.203200*%
%ADD11C,0.100000*%
%ADD12O,1.000000X2.300000*%
%ADD13O,0.850000X0.600000*%
%ADD14C,0.600000*%
%ADD15O,1.000000X2.000000*%
%ADD16R,0.863600X1.473200*%
%ADD17C,3.200000*%
%ADD18C,2.082800*%
%ADD19R,1.703200X4.203200*%
%ADD20R,4.203200X1.703200*%
G04 APERTURE END LIST*
D10*
%TO.C,PPS2*%
X202679300Y-81178400D02*
X204203300Y-81178400D01*
X202222100Y-80721200D02*
X202222100Y-79603600D01*
X204660500Y-80721200D02*
X204660500Y-79603600D01*
X204203300Y-79146400D02*
X202679300Y-79146400D01*
X202222100Y-80721200D02*
G75*
G03*
X202679300Y-81178400I457200J0D01*
G01*
X204203300Y-81178400D02*
G75*
G03*
X204660500Y-80721200I0J457200D01*
G01*
X204203300Y-79146400D02*
G75*
G02*
X204660500Y-79603600I0J-457200D01*
G01*
X202222100Y-79603600D02*
G75*
G02*
X202679300Y-79146400I457200J0D01*
G01*
%TO.C,RTK2*%
X204059500Y-66515500D02*
X202535500Y-66515500D01*
X204516700Y-66972700D02*
X204516700Y-68090300D01*
X202078300Y-66972700D02*
X202078300Y-68090300D01*
X202535500Y-68547500D02*
X204059500Y-68547500D01*
X204516700Y-66972700D02*
G75*
G03*
X204059500Y-66515500I-457200J0D01*
G01*
X202535500Y-66515500D02*
G75*
G03*
X202078300Y-66972700I0J-457200D01*
G01*
X202535500Y-68547500D02*
G75*
G02*
X202078300Y-68090300I0J457200D01*
G01*
X204516700Y-68090300D02*
G75*
G02*
X204059500Y-68547500I-457200J0D01*
G01*
%TO.C,RTK1*%
X125153800Y-60662600D02*
X123629800Y-60662600D01*
X125611000Y-61119800D02*
X125611000Y-62237400D01*
X123172600Y-61119800D02*
X123172600Y-62237400D01*
X123629800Y-62694600D02*
X125153800Y-62694600D01*
X125611000Y-61119800D02*
G75*
G03*
X125153800Y-60662600I-457200J0D01*
G01*
X123629800Y-60662600D02*
G75*
G03*
X123172600Y-61119800I0J-457200D01*
G01*
X123629800Y-62694600D02*
G75*
G02*
X123172600Y-62237400I0J457200D01*
G01*
X125611000Y-62237400D02*
G75*
G02*
X125153800Y-62694600I-457200J0D01*
G01*
%TO.C,PPS_LED2*%
X204059500Y-69817500D02*
X202535500Y-69817500D01*
X204516700Y-70274700D02*
X204516700Y-71392300D01*
X202078300Y-70274700D02*
X202078300Y-71392300D01*
X202535500Y-71849500D02*
X204059500Y-71849500D01*
X204516700Y-70274700D02*
G75*
G03*
X204059500Y-69817500I-457200J0D01*
G01*
X202535500Y-69817500D02*
G75*
G03*
X202078300Y-70274700I0J-457200D01*
G01*
X202535500Y-71849500D02*
G75*
G02*
X202078300Y-71392300I0J457200D01*
G01*
X204516700Y-71392300D02*
G75*
G02*
X204059500Y-71849500I-457200J0D01*
G01*
%TO.C,PPS_LED1*%
X125129200Y-63352600D02*
X123605200Y-63352600D01*
X125586400Y-63809800D02*
X125586400Y-64927400D01*
X123148000Y-63809800D02*
X123148000Y-64927400D01*
X123605200Y-65384600D02*
X125129200Y-65384600D01*
X125586400Y-63809800D02*
G75*
G03*
X125129200Y-63352600I-457200J0D01*
G01*
X123605200Y-63352600D02*
G75*
G03*
X123148000Y-63809800I0J-457200D01*
G01*
X123605200Y-65384600D02*
G75*
G02*
X123148000Y-64927400I0J457200D01*
G01*
X125586400Y-64927400D02*
G75*
G02*
X125129200Y-65384600I-457200J0D01*
G01*
%TO.C,FENCE2*%
X204059500Y-63086500D02*
X202535500Y-63086500D01*
X204516700Y-63543700D02*
X204516700Y-64661300D01*
X202078300Y-63543700D02*
X202078300Y-64661300D01*
X202535500Y-65118500D02*
X204059500Y-65118500D01*
X204516700Y-63543700D02*
G75*
G03*
X204059500Y-63086500I-457200J0D01*
G01*
X202535500Y-63086500D02*
G75*
G03*
X202078300Y-63543700I0J-457200D01*
G01*
X202535500Y-65118500D02*
G75*
G02*
X202078300Y-64661300I0J457200D01*
G01*
X204516700Y-64661300D02*
G75*
G02*
X204059500Y-65118500I-457200J0D01*
G01*
%TO.C,FENCE1*%
X125153800Y-57773400D02*
X123629800Y-57773400D01*
X125611000Y-58230600D02*
X125611000Y-59348200D01*
X123172600Y-58230600D02*
X123172600Y-59348200D01*
X123629800Y-59805400D02*
X125153800Y-59805400D01*
X125611000Y-58230600D02*
G75*
G03*
X125153800Y-57773400I-457200J0D01*
G01*
X123629800Y-57773400D02*
G75*
G03*
X123172600Y-58230600I0J-457200D01*
G01*
X123629800Y-59805400D02*
G75*
G02*
X123172600Y-59348200I0J457200D01*
G01*
X125611000Y-59348200D02*
G75*
G02*
X125153800Y-59805400I-457200J0D01*
G01*
%TO.C,PPS2*%
D11*
X201787142Y-80526190D02*
X201787142Y-80026190D01*
X201596666Y-80026190D01*
X201549047Y-80050000D01*
X201525238Y-80073809D01*
X201501428Y-80121428D01*
X201501428Y-80192857D01*
X201525238Y-80240476D01*
X201549047Y-80264285D01*
X201596666Y-80288095D01*
X201787142Y-80288095D01*
X201287142Y-80526190D02*
X201287142Y-80026190D01*
X201096666Y-80026190D01*
X201049047Y-80050000D01*
X201025238Y-80073809D01*
X201001428Y-80121428D01*
X201001428Y-80192857D01*
X201025238Y-80240476D01*
X201049047Y-80264285D01*
X201096666Y-80288095D01*
X201287142Y-80288095D01*
X200810952Y-80502380D02*
X200739523Y-80526190D01*
X200620476Y-80526190D01*
X200572857Y-80502380D01*
X200549047Y-80478571D01*
X200525238Y-80430952D01*
X200525238Y-80383333D01*
X200549047Y-80335714D01*
X200572857Y-80311904D01*
X200620476Y-80288095D01*
X200715714Y-80264285D01*
X200763333Y-80240476D01*
X200787142Y-80216666D01*
X200810952Y-80169047D01*
X200810952Y-80121428D01*
X200787142Y-80073809D01*
X200763333Y-80050000D01*
X200715714Y-80026190D01*
X200596666Y-80026190D01*
X200525238Y-80050000D01*
X200334761Y-80073809D02*
X200310952Y-80050000D01*
X200263333Y-80026190D01*
X200144285Y-80026190D01*
X200096666Y-80050000D01*
X200072857Y-80073809D01*
X200049047Y-80121428D01*
X200049047Y-80169047D01*
X200072857Y-80240476D01*
X200358571Y-80526190D01*
X200049047Y-80526190D01*
%TO.C,RTK2*%
X200863809Y-67846190D02*
X201030476Y-67608095D01*
X201149523Y-67846190D02*
X201149523Y-67346190D01*
X200959047Y-67346190D01*
X200911428Y-67370000D01*
X200887619Y-67393809D01*
X200863809Y-67441428D01*
X200863809Y-67512857D01*
X200887619Y-67560476D01*
X200911428Y-67584285D01*
X200959047Y-67608095D01*
X201149523Y-67608095D01*
X200720952Y-67346190D02*
X200435238Y-67346190D01*
X200578095Y-67846190D02*
X200578095Y-67346190D01*
X200268571Y-67846190D02*
X200268571Y-67346190D01*
X199982857Y-67846190D02*
X200197142Y-67560476D01*
X199982857Y-67346190D02*
X200268571Y-67631904D01*
X199792380Y-67393809D02*
X199768571Y-67370000D01*
X199720952Y-67346190D01*
X199601904Y-67346190D01*
X199554285Y-67370000D01*
X199530476Y-67393809D01*
X199506666Y-67441428D01*
X199506666Y-67489047D01*
X199530476Y-67560476D01*
X199816190Y-67846190D01*
X199506666Y-67846190D01*
%TO.C,RTK1*%
X127673809Y-61946190D02*
X127840476Y-61708095D01*
X127959523Y-61946190D02*
X127959523Y-61446190D01*
X127769047Y-61446190D01*
X127721428Y-61470000D01*
X127697619Y-61493809D01*
X127673809Y-61541428D01*
X127673809Y-61612857D01*
X127697619Y-61660476D01*
X127721428Y-61684285D01*
X127769047Y-61708095D01*
X127959523Y-61708095D01*
X127530952Y-61446190D02*
X127245238Y-61446190D01*
X127388095Y-61946190D02*
X127388095Y-61446190D01*
X127078571Y-61946190D02*
X127078571Y-61446190D01*
X126792857Y-61946190D02*
X127007142Y-61660476D01*
X126792857Y-61446190D02*
X127078571Y-61731904D01*
X126316666Y-61946190D02*
X126602380Y-61946190D01*
X126459523Y-61946190D02*
X126459523Y-61446190D01*
X126507142Y-61517619D01*
X126554761Y-61565238D01*
X126602380Y-61589047D01*
%TO.C,PPS_LED2*%
X201206190Y-71126190D02*
X201206190Y-70626190D01*
X201015714Y-70626190D01*
X200968095Y-70650000D01*
X200944285Y-70673809D01*
X200920476Y-70721428D01*
X200920476Y-70792857D01*
X200944285Y-70840476D01*
X200968095Y-70864285D01*
X201015714Y-70888095D01*
X201206190Y-70888095D01*
X200706190Y-71126190D02*
X200706190Y-70626190D01*
X200515714Y-70626190D01*
X200468095Y-70650000D01*
X200444285Y-70673809D01*
X200420476Y-70721428D01*
X200420476Y-70792857D01*
X200444285Y-70840476D01*
X200468095Y-70864285D01*
X200515714Y-70888095D01*
X200706190Y-70888095D01*
X200230000Y-71102380D02*
X200158571Y-71126190D01*
X200039523Y-71126190D01*
X199991904Y-71102380D01*
X199968095Y-71078571D01*
X199944285Y-71030952D01*
X199944285Y-70983333D01*
X199968095Y-70935714D01*
X199991904Y-70911904D01*
X200039523Y-70888095D01*
X200134761Y-70864285D01*
X200182380Y-70840476D01*
X200206190Y-70816666D01*
X200230000Y-70769047D01*
X200230000Y-70721428D01*
X200206190Y-70673809D01*
X200182380Y-70650000D01*
X200134761Y-70626190D01*
X200015714Y-70626190D01*
X199944285Y-70650000D01*
X199849047Y-71173809D02*
X199468095Y-71173809D01*
X199110952Y-71126190D02*
X199349047Y-71126190D01*
X199349047Y-70626190D01*
X198944285Y-70864285D02*
X198777619Y-70864285D01*
X198706190Y-71126190D02*
X198944285Y-71126190D01*
X198944285Y-70626190D01*
X198706190Y-70626190D01*
X198491904Y-71126190D02*
X198491904Y-70626190D01*
X198372857Y-70626190D01*
X198301428Y-70650000D01*
X198253809Y-70697619D01*
X198230000Y-70745238D01*
X198206190Y-70840476D01*
X198206190Y-70911904D01*
X198230000Y-71007142D01*
X198253809Y-71054761D01*
X198301428Y-71102380D01*
X198372857Y-71126190D01*
X198491904Y-71126190D01*
X198015714Y-70673809D02*
X197991904Y-70650000D01*
X197944285Y-70626190D01*
X197825238Y-70626190D01*
X197777619Y-70650000D01*
X197753809Y-70673809D01*
X197730000Y-70721428D01*
X197730000Y-70769047D01*
X197753809Y-70840476D01*
X198039523Y-71126190D01*
X197730000Y-71126190D01*
%TO.C,PPS_LED1*%
X130046190Y-64576190D02*
X130046190Y-64076190D01*
X129855714Y-64076190D01*
X129808095Y-64100000D01*
X129784285Y-64123809D01*
X129760476Y-64171428D01*
X129760476Y-64242857D01*
X129784285Y-64290476D01*
X129808095Y-64314285D01*
X129855714Y-64338095D01*
X130046190Y-64338095D01*
X129546190Y-64576190D02*
X129546190Y-64076190D01*
X129355714Y-64076190D01*
X129308095Y-64100000D01*
X129284285Y-64123809D01*
X129260476Y-64171428D01*
X129260476Y-64242857D01*
X129284285Y-64290476D01*
X129308095Y-64314285D01*
X129355714Y-64338095D01*
X129546190Y-64338095D01*
X129070000Y-64552380D02*
X128998571Y-64576190D01*
X128879523Y-64576190D01*
X128831904Y-64552380D01*
X128808095Y-64528571D01*
X128784285Y-64480952D01*
X128784285Y-64433333D01*
X128808095Y-64385714D01*
X128831904Y-64361904D01*
X128879523Y-64338095D01*
X128974761Y-64314285D01*
X129022380Y-64290476D01*
X129046190Y-64266666D01*
X129070000Y-64219047D01*
X129070000Y-64171428D01*
X129046190Y-64123809D01*
X129022380Y-64100000D01*
X128974761Y-64076190D01*
X128855714Y-64076190D01*
X128784285Y-64100000D01*
X128689047Y-64623809D02*
X128308095Y-64623809D01*
X127950952Y-64576190D02*
X128189047Y-64576190D01*
X128189047Y-64076190D01*
X127784285Y-64314285D02*
X127617619Y-64314285D01*
X127546190Y-64576190D02*
X127784285Y-64576190D01*
X127784285Y-64076190D01*
X127546190Y-64076190D01*
X127331904Y-64576190D02*
X127331904Y-64076190D01*
X127212857Y-64076190D01*
X127141428Y-64100000D01*
X127093809Y-64147619D01*
X127070000Y-64195238D01*
X127046190Y-64290476D01*
X127046190Y-64361904D01*
X127070000Y-64457142D01*
X127093809Y-64504761D01*
X127141428Y-64552380D01*
X127212857Y-64576190D01*
X127331904Y-64576190D01*
X126570000Y-64576190D02*
X126855714Y-64576190D01*
X126712857Y-64576190D02*
X126712857Y-64076190D01*
X126760476Y-64147619D01*
X126808095Y-64195238D01*
X126855714Y-64219047D01*
%TO.C,J6*%
X121726190Y-65339761D02*
X122083333Y-65339761D01*
X122154761Y-65315952D01*
X122202380Y-65268333D01*
X122226190Y-65196904D01*
X122226190Y-65149285D01*
X121726190Y-65792142D02*
X121726190Y-65696904D01*
X121750000Y-65649285D01*
X121773809Y-65625476D01*
X121845238Y-65577857D01*
X121940476Y-65554047D01*
X122130952Y-65554047D01*
X122178571Y-65577857D01*
X122202380Y-65601666D01*
X122226190Y-65649285D01*
X122226190Y-65744523D01*
X122202380Y-65792142D01*
X122178571Y-65815952D01*
X122130952Y-65839761D01*
X122011904Y-65839761D01*
X121964285Y-65815952D01*
X121940476Y-65792142D01*
X121916666Y-65744523D01*
X121916666Y-65649285D01*
X121940476Y-65601666D01*
X121964285Y-65577857D01*
X122011904Y-65554047D01*
%TO.C,FENCE2*%
X201080952Y-64284285D02*
X201247619Y-64284285D01*
X201247619Y-64546190D02*
X201247619Y-64046190D01*
X201009523Y-64046190D01*
X200819047Y-64284285D02*
X200652380Y-64284285D01*
X200580952Y-64546190D02*
X200819047Y-64546190D01*
X200819047Y-64046190D01*
X200580952Y-64046190D01*
X200366666Y-64546190D02*
X200366666Y-64046190D01*
X200080952Y-64546190D01*
X200080952Y-64046190D01*
X199557142Y-64498571D02*
X199580952Y-64522380D01*
X199652380Y-64546190D01*
X199700000Y-64546190D01*
X199771428Y-64522380D01*
X199819047Y-64474761D01*
X199842857Y-64427142D01*
X199866666Y-64331904D01*
X199866666Y-64260476D01*
X199842857Y-64165238D01*
X199819047Y-64117619D01*
X199771428Y-64070000D01*
X199700000Y-64046190D01*
X199652380Y-64046190D01*
X199580952Y-64070000D01*
X199557142Y-64093809D01*
X199342857Y-64284285D02*
X199176190Y-64284285D01*
X199104761Y-64546190D02*
X199342857Y-64546190D01*
X199342857Y-64046190D01*
X199104761Y-64046190D01*
X198914285Y-64093809D02*
X198890476Y-64070000D01*
X198842857Y-64046190D01*
X198723809Y-64046190D01*
X198676190Y-64070000D01*
X198652380Y-64093809D01*
X198628571Y-64141428D01*
X198628571Y-64189047D01*
X198652380Y-64260476D01*
X198938095Y-64546190D01*
X198628571Y-64546190D01*
%TO.C,FENCE1*%
X128700952Y-58684285D02*
X128867619Y-58684285D01*
X128867619Y-58946190D02*
X128867619Y-58446190D01*
X128629523Y-58446190D01*
X128439047Y-58684285D02*
X128272380Y-58684285D01*
X128200952Y-58946190D02*
X128439047Y-58946190D01*
X128439047Y-58446190D01*
X128200952Y-58446190D01*
X127986666Y-58946190D02*
X127986666Y-58446190D01*
X127700952Y-58946190D01*
X127700952Y-58446190D01*
X127177142Y-58898571D02*
X127200952Y-58922380D01*
X127272380Y-58946190D01*
X127320000Y-58946190D01*
X127391428Y-58922380D01*
X127439047Y-58874761D01*
X127462857Y-58827142D01*
X127486666Y-58731904D01*
X127486666Y-58660476D01*
X127462857Y-58565238D01*
X127439047Y-58517619D01*
X127391428Y-58470000D01*
X127320000Y-58446190D01*
X127272380Y-58446190D01*
X127200952Y-58470000D01*
X127177142Y-58493809D01*
X126962857Y-58684285D02*
X126796190Y-58684285D01*
X126724761Y-58946190D02*
X126962857Y-58946190D01*
X126962857Y-58446190D01*
X126724761Y-58446190D01*
X126248571Y-58946190D02*
X126534285Y-58946190D01*
X126391428Y-58946190D02*
X126391428Y-58446190D01*
X126439047Y-58517619D01*
X126486666Y-58565238D01*
X126534285Y-58589047D01*
%TD*%
%LPC*%
%TO.C,PPS2*%
G36*
X203631800Y-80035400D02*
G01*
X203250800Y-80035400D01*
X203250800Y-80289400D01*
X203631800Y-80289400D01*
X203631800Y-80035400D01*
G37*
%TO.C,RTK2*%
G36*
X203107000Y-67658500D02*
G01*
X203488000Y-67658500D01*
X203488000Y-67404500D01*
X203107000Y-67404500D01*
X203107000Y-67658500D01*
G37*
%TO.C,RTK1*%
G36*
X124201300Y-61805600D02*
G01*
X124582300Y-61805600D01*
X124582300Y-61551600D01*
X124201300Y-61551600D01*
X124201300Y-61805600D01*
G37*
%TO.C,PPS_LED2*%
G36*
X203107000Y-70960500D02*
G01*
X203488000Y-70960500D01*
X203488000Y-70706500D01*
X203107000Y-70706500D01*
X203107000Y-70960500D01*
G37*
%TO.C,PPS_LED1*%
G36*
X124176700Y-64495600D02*
G01*
X124557700Y-64495600D01*
X124557700Y-64241600D01*
X124176700Y-64241600D01*
X124176700Y-64495600D01*
G37*
%TO.C,FENCE2*%
G36*
X203107000Y-64229500D02*
G01*
X203488000Y-64229500D01*
X203488000Y-63975500D01*
X203107000Y-63975500D01*
X203107000Y-64229500D01*
G37*
%TO.C,FENCE1*%
G36*
X124201300Y-58916400D02*
G01*
X124582300Y-58916400D01*
X124582300Y-58662400D01*
X124201300Y-58662400D01*
X124201300Y-58916400D01*
G37*
%TD*%
D12*
%TO.C,P2*%
X156716000Y-53178900D03*
D13*
X158036000Y-56278900D03*
D12*
X165356000Y-53178900D03*
D14*
X164036000Y-56278900D03*
D15*
X165356000Y-57003900D03*
X156716000Y-57003900D03*
%TD*%
D12*
%TO.C,P1*%
X140942600Y-53178900D03*
D13*
X142262600Y-56278900D03*
D12*
X149582600Y-53178900D03*
D14*
X148262600Y-56278900D03*
D15*
X149582600Y-57003900D03*
X140942600Y-57003900D03*
%TD*%
D16*
%TO.C,PPS2*%
X202920600Y-80162400D03*
X203962000Y-80162400D03*
%TD*%
D17*
%TO.C,H4*%
X206500000Y-96500000D03*
%TD*%
%TO.C,H3*%
X206500000Y-53500000D03*
%TD*%
%TO.C,H2*%
X123500000Y-96500000D03*
%TD*%
%TO.C,H1*%
X123500000Y-53500000D03*
%TD*%
D16*
%TO.C,RTK2*%
X203818200Y-67531500D03*
X202776800Y-67531500D03*
%TD*%
%TO.C,RTK1*%
X124912500Y-61678600D03*
X123871100Y-61678600D03*
%TD*%
%TO.C,PPS_LED2*%
X203818200Y-70833500D03*
X202776800Y-70833500D03*
%TD*%
%TO.C,PPS_LED1*%
X124887900Y-64368600D03*
X123846500Y-64368600D03*
%TD*%
D18*
%TO.C,J6*%
X122110500Y-80264000D03*
X122110500Y-77724000D03*
X122110500Y-75184000D03*
X122110500Y-72644000D03*
X122110500Y-70104000D03*
X122110500Y-67564000D03*
%TD*%
%TO.C,J2*%
X207900000Y-87700000D03*
X207900000Y-85160000D03*
X207900000Y-82620000D03*
X207900000Y-80080000D03*
X207900000Y-77540000D03*
X207900000Y-75000000D03*
%TD*%
D16*
%TO.C,FENCE2*%
X203818200Y-64102500D03*
X202776800Y-64102500D03*
%TD*%
%TO.C,FENCE1*%
X124912500Y-58789400D03*
X123871100Y-58789400D03*
%TD*%
D19*
%TO.C,E3*%
X175860000Y-97800000D03*
X180940000Y-97800000D03*
%TD*%
D20*
%TO.C,E2*%
X122200000Y-83566000D03*
X122200000Y-88646000D03*
%TD*%
D19*
%TO.C,E1*%
X146260000Y-97800000D03*
X151340000Y-97800000D03*
%TD*%
M02*
