%TF.GenerationSoftware,KiCad,Pcbnew,(5.1.6)-1*%
%TF.CreationDate,2020-10-07T18:58:12+07:00*%
%TF.ProjectId,ublox ZED-F9P (Full feature),75626c6f-7820-45a4-9544-2d4639502028,V1*%
%TF.SameCoordinates,Original*%
%TF.FileFunction,Soldermask,Top*%
%TF.FilePolarity,Negative*%
%FSLAX46Y46*%
G04 Gerber Fmt 4.6, Leading zero omitted, Abs format (unit mm)*
G04 Created by KiCad (PCBNEW (5.1.6)-1) date 2020-10-07 18:58:12*
%MOMM*%
%LPD*%
G01*
G04 APERTURE LIST*
%ADD10C,0.100000*%
%ADD11R,1.303200X1.203200*%
%ADD12C,1.000000*%
%ADD13R,2.000000X1.250000*%
%ADD14R,1.000000X2.000000*%
%ADD15O,1.000000X2.300000*%
%ADD16O,0.850000X0.600000*%
%ADD17C,0.600000*%
%ADD18O,1.000000X2.000000*%
%ADD19R,0.270000X1.000000*%
%ADD20R,0.520000X1.000000*%
%ADD21R,0.650000X1.060000*%
%ADD22R,1.303200X1.303200*%
%ADD23R,1.723200X1.053200*%
%ADD24R,1.053200X1.723200*%
%ADD25C,3.200000*%
%ADD26R,1.203200X1.203200*%
%ADD27R,4.403200X1.903200*%
%ADD28R,1.500000X2.000000*%
%ADD29R,3.800000X2.000000*%
%ADD30C,2.082800*%
%ADD31R,0.603200X0.903200*%
%ADD32R,1.703200X4.203200*%
%ADD33R,4.203200X1.703200*%
%ADD34R,0.833200X1.033200*%
%ADD35R,1.053200X1.103200*%
G04 APERTURE END LIST*
D10*
%TO.C,BT1*%
G36*
X139277600Y-91412500D02*
G01*
X135077600Y-91412500D01*
X135077600Y-93112500D01*
X139277600Y-93112500D01*
X139277600Y-91412500D01*
G37*
G36*
X137497600Y-96792500D02*
G01*
X135097600Y-96792500D01*
X135097600Y-94392500D01*
X137497600Y-96792500D01*
G37*
%TO.C,FB2*%
G36*
X178215400Y-91080600D02*
G01*
X178634500Y-91080600D01*
X178634500Y-90369400D01*
X178215400Y-90369400D01*
X178215400Y-91080600D01*
G37*
G36*
X179015500Y-91080600D02*
G01*
X179434600Y-91080600D01*
X179434600Y-90369400D01*
X179015500Y-90369400D01*
X179015500Y-91080600D01*
G37*
%TO.C,FB1*%
G36*
X148690400Y-91805600D02*
G01*
X149109500Y-91805600D01*
X149109500Y-91094400D01*
X148690400Y-91094400D01*
X148690400Y-91805600D01*
G37*
G36*
X149490500Y-91805600D02*
G01*
X149909600Y-91805600D01*
X149909600Y-91094400D01*
X149490500Y-91094400D01*
X149490500Y-91805600D01*
G37*
%TD*%
D11*
%TO.C,R5*%
X131437200Y-92516500D03*
X133137200Y-92516500D03*
%TD*%
%TO.C,R14*%
G36*
G01*
X152850000Y-91737500D02*
X152850000Y-91262500D01*
G75*
G02*
X153087500Y-91025000I237500J0D01*
G01*
X153662500Y-91025000D01*
G75*
G02*
X153900000Y-91262500I0J-237500D01*
G01*
X153900000Y-91737500D01*
G75*
G02*
X153662500Y-91975000I-237500J0D01*
G01*
X153087500Y-91975000D01*
G75*
G02*
X152850000Y-91737500I0J237500D01*
G01*
G37*
G36*
G01*
X151100000Y-91737500D02*
X151100000Y-91262500D01*
G75*
G02*
X151337500Y-91025000I237500J0D01*
G01*
X151912500Y-91025000D01*
G75*
G02*
X152150000Y-91262500I0J-237500D01*
G01*
X152150000Y-91737500D01*
G75*
G02*
X151912500Y-91975000I-237500J0D01*
G01*
X151337500Y-91975000D01*
G75*
G02*
X151100000Y-91737500I0J237500D01*
G01*
G37*
%TD*%
%TO.C,R7*%
G36*
G01*
X182150000Y-90962500D02*
X182150000Y-90487500D01*
G75*
G02*
X182387500Y-90250000I237500J0D01*
G01*
X182962500Y-90250000D01*
G75*
G02*
X183200000Y-90487500I0J-237500D01*
G01*
X183200000Y-90962500D01*
G75*
G02*
X182962500Y-91200000I-237500J0D01*
G01*
X182387500Y-91200000D01*
G75*
G02*
X182150000Y-90962500I0J237500D01*
G01*
G37*
G36*
G01*
X180400000Y-90962500D02*
X180400000Y-90487500D01*
G75*
G02*
X180637500Y-90250000I237500J0D01*
G01*
X181212500Y-90250000D01*
G75*
G02*
X181450000Y-90487500I0J-237500D01*
G01*
X181450000Y-90962500D01*
G75*
G02*
X181212500Y-91200000I-237500J0D01*
G01*
X180637500Y-91200000D01*
G75*
G02*
X180400000Y-90962500I0J237500D01*
G01*
G37*
%TD*%
%TO.C,R27*%
G36*
G01*
X181200000Y-70937500D02*
X181200000Y-70462500D01*
G75*
G02*
X181437500Y-70225000I237500J0D01*
G01*
X182012500Y-70225000D01*
G75*
G02*
X182250000Y-70462500I0J-237500D01*
G01*
X182250000Y-70937500D01*
G75*
G02*
X182012500Y-71175000I-237500J0D01*
G01*
X181437500Y-71175000D01*
G75*
G02*
X181200000Y-70937500I0J237500D01*
G01*
G37*
G36*
G01*
X179450000Y-70937500D02*
X179450000Y-70462500D01*
G75*
G02*
X179687500Y-70225000I237500J0D01*
G01*
X180262500Y-70225000D01*
G75*
G02*
X180500000Y-70462500I0J-237500D01*
G01*
X180500000Y-70937500D01*
G75*
G02*
X180262500Y-71175000I-237500J0D01*
G01*
X179687500Y-71175000D01*
G75*
G02*
X179450000Y-70937500I0J237500D01*
G01*
G37*
%TD*%
%TO.C,C11*%
G36*
G01*
X187651200Y-69260900D02*
X187651200Y-69735900D01*
G75*
G02*
X187413700Y-69973400I-237500J0D01*
G01*
X186838700Y-69973400D01*
G75*
G02*
X186601200Y-69735900I0J237500D01*
G01*
X186601200Y-69260900D01*
G75*
G02*
X186838700Y-69023400I237500J0D01*
G01*
X187413700Y-69023400D01*
G75*
G02*
X187651200Y-69260900I0J-237500D01*
G01*
G37*
G36*
G01*
X189401200Y-69260900D02*
X189401200Y-69735900D01*
G75*
G02*
X189163700Y-69973400I-237500J0D01*
G01*
X188588700Y-69973400D01*
G75*
G02*
X188351200Y-69735900I0J237500D01*
G01*
X188351200Y-69260900D01*
G75*
G02*
X188588700Y-69023400I237500J0D01*
G01*
X189163700Y-69023400D01*
G75*
G02*
X189401200Y-69260900I0J-237500D01*
G01*
G37*
%TD*%
%TO.C,C10*%
G36*
G01*
X188327600Y-71412300D02*
X188327600Y-70937300D01*
G75*
G02*
X188565100Y-70699800I237500J0D01*
G01*
X189140100Y-70699800D01*
G75*
G02*
X189377600Y-70937300I0J-237500D01*
G01*
X189377600Y-71412300D01*
G75*
G02*
X189140100Y-71649800I-237500J0D01*
G01*
X188565100Y-71649800D01*
G75*
G02*
X188327600Y-71412300I0J237500D01*
G01*
G37*
G36*
G01*
X186577600Y-71412300D02*
X186577600Y-70937300D01*
G75*
G02*
X186815100Y-70699800I237500J0D01*
G01*
X187390100Y-70699800D01*
G75*
G02*
X187627600Y-70937300I0J-237500D01*
G01*
X187627600Y-71412300D01*
G75*
G02*
X187390100Y-71649800I-237500J0D01*
G01*
X186815100Y-71649800D01*
G75*
G02*
X186577600Y-71412300I0J237500D01*
G01*
G37*
%TD*%
%TO.C,C5*%
G36*
G01*
X184037500Y-69550000D02*
X183562500Y-69550000D01*
G75*
G02*
X183325000Y-69312500I0J237500D01*
G01*
X183325000Y-68737500D01*
G75*
G02*
X183562500Y-68500000I237500J0D01*
G01*
X184037500Y-68500000D01*
G75*
G02*
X184275000Y-68737500I0J-237500D01*
G01*
X184275000Y-69312500D01*
G75*
G02*
X184037500Y-69550000I-237500J0D01*
G01*
G37*
G36*
G01*
X184037500Y-71300000D02*
X183562500Y-71300000D01*
G75*
G02*
X183325000Y-71062500I0J237500D01*
G01*
X183325000Y-70487500D01*
G75*
G02*
X183562500Y-70250000I237500J0D01*
G01*
X184037500Y-70250000D01*
G75*
G02*
X184275000Y-70487500I0J-237500D01*
G01*
X184275000Y-71062500D01*
G75*
G02*
X184037500Y-71300000I-237500J0D01*
G01*
G37*
%TD*%
%TO.C,C4*%
G36*
G01*
X181200000Y-69337500D02*
X181200000Y-68862500D01*
G75*
G02*
X181437500Y-68625000I237500J0D01*
G01*
X182012500Y-68625000D01*
G75*
G02*
X182250000Y-68862500I0J-237500D01*
G01*
X182250000Y-69337500D01*
G75*
G02*
X182012500Y-69575000I-237500J0D01*
G01*
X181437500Y-69575000D01*
G75*
G02*
X181200000Y-69337500I0J237500D01*
G01*
G37*
G36*
G01*
X179450000Y-69337500D02*
X179450000Y-68862500D01*
G75*
G02*
X179687500Y-68625000I237500J0D01*
G01*
X180262500Y-68625000D01*
G75*
G02*
X180500000Y-68862500I0J-237500D01*
G01*
X180500000Y-69337500D01*
G75*
G02*
X180262500Y-69575000I-237500J0D01*
G01*
X179687500Y-69575000D01*
G75*
G02*
X179450000Y-69337500I0J237500D01*
G01*
G37*
%TD*%
%TO.C,C3*%
G36*
G01*
X131937200Y-94565000D02*
X131937200Y-95040000D01*
G75*
G02*
X131699700Y-95277500I-237500J0D01*
G01*
X131124700Y-95277500D01*
G75*
G02*
X130887200Y-95040000I0J237500D01*
G01*
X130887200Y-94565000D01*
G75*
G02*
X131124700Y-94327500I237500J0D01*
G01*
X131699700Y-94327500D01*
G75*
G02*
X131937200Y-94565000I0J-237500D01*
G01*
G37*
G36*
G01*
X133687200Y-94565000D02*
X133687200Y-95040000D01*
G75*
G02*
X133449700Y-95277500I-237500J0D01*
G01*
X132874700Y-95277500D01*
G75*
G02*
X132637200Y-95040000I0J237500D01*
G01*
X132637200Y-94565000D01*
G75*
G02*
X132874700Y-94327500I237500J0D01*
G01*
X133449700Y-94327500D01*
G75*
G02*
X133687200Y-94565000I0J-237500D01*
G01*
G37*
%TD*%
%TO.C,R13*%
G36*
G01*
X123737200Y-58551900D02*
X123737200Y-59026900D01*
G75*
G02*
X123499700Y-59264400I-237500J0D01*
G01*
X122924700Y-59264400D01*
G75*
G02*
X122687200Y-59026900I0J237500D01*
G01*
X122687200Y-58551900D01*
G75*
G02*
X122924700Y-58314400I237500J0D01*
G01*
X123499700Y-58314400D01*
G75*
G02*
X123737200Y-58551900I0J-237500D01*
G01*
G37*
G36*
G01*
X125487200Y-58551900D02*
X125487200Y-59026900D01*
G75*
G02*
X125249700Y-59264400I-237500J0D01*
G01*
X124674700Y-59264400D01*
G75*
G02*
X124437200Y-59026900I0J237500D01*
G01*
X124437200Y-58551900D01*
G75*
G02*
X124674700Y-58314400I237500J0D01*
G01*
X125249700Y-58314400D01*
G75*
G02*
X125487200Y-58551900I0J-237500D01*
G01*
G37*
%TD*%
%TO.C,R12*%
G36*
G01*
X123737200Y-61441100D02*
X123737200Y-61916100D01*
G75*
G02*
X123499700Y-62153600I-237500J0D01*
G01*
X122924700Y-62153600D01*
G75*
G02*
X122687200Y-61916100I0J237500D01*
G01*
X122687200Y-61441100D01*
G75*
G02*
X122924700Y-61203600I237500J0D01*
G01*
X123499700Y-61203600D01*
G75*
G02*
X123737200Y-61441100I0J-237500D01*
G01*
G37*
G36*
G01*
X125487200Y-61441100D02*
X125487200Y-61916100D01*
G75*
G02*
X125249700Y-62153600I-237500J0D01*
G01*
X124674700Y-62153600D01*
G75*
G02*
X124437200Y-61916100I0J237500D01*
G01*
X124437200Y-61441100D01*
G75*
G02*
X124674700Y-61203600I237500J0D01*
G01*
X125249700Y-61203600D01*
G75*
G02*
X125487200Y-61441100I0J-237500D01*
G01*
G37*
%TD*%
%TO.C,R11*%
G36*
G01*
X123737200Y-64131100D02*
X123737200Y-64606100D01*
G75*
G02*
X123499700Y-64843600I-237500J0D01*
G01*
X122924700Y-64843600D01*
G75*
G02*
X122687200Y-64606100I0J237500D01*
G01*
X122687200Y-64131100D01*
G75*
G02*
X122924700Y-63893600I237500J0D01*
G01*
X123499700Y-63893600D01*
G75*
G02*
X123737200Y-64131100I0J-237500D01*
G01*
G37*
G36*
G01*
X125487200Y-64131100D02*
X125487200Y-64606100D01*
G75*
G02*
X125249700Y-64843600I-237500J0D01*
G01*
X124674700Y-64843600D01*
G75*
G02*
X124437200Y-64606100I0J237500D01*
G01*
X124437200Y-64131100D01*
G75*
G02*
X124674700Y-63893600I237500J0D01*
G01*
X125249700Y-63893600D01*
G75*
G02*
X125487200Y-64131100I0J-237500D01*
G01*
G37*
%TD*%
D12*
%TO.C,TP4 (5V)*%
X176100000Y-60300000D03*
%TD*%
%TO.C,R21*%
G36*
G01*
X126409600Y-72406500D02*
X126409600Y-72881500D01*
G75*
G02*
X126172100Y-73119000I-237500J0D01*
G01*
X125597100Y-73119000D01*
G75*
G02*
X125359600Y-72881500I0J237500D01*
G01*
X125359600Y-72406500D01*
G75*
G02*
X125597100Y-72169000I237500J0D01*
G01*
X126172100Y-72169000D01*
G75*
G02*
X126409600Y-72406500I0J-237500D01*
G01*
G37*
G36*
G01*
X128159600Y-72406500D02*
X128159600Y-72881500D01*
G75*
G02*
X127922100Y-73119000I-237500J0D01*
G01*
X127347100Y-73119000D01*
G75*
G02*
X127109600Y-72881500I0J237500D01*
G01*
X127109600Y-72406500D01*
G75*
G02*
X127347100Y-72169000I237500J0D01*
G01*
X127922100Y-72169000D01*
G75*
G02*
X128159600Y-72406500I0J-237500D01*
G01*
G37*
%TD*%
%TO.C,R20*%
G36*
G01*
X126409600Y-77486500D02*
X126409600Y-77961500D01*
G75*
G02*
X126172100Y-78199000I-237500J0D01*
G01*
X125597100Y-78199000D01*
G75*
G02*
X125359600Y-77961500I0J237500D01*
G01*
X125359600Y-77486500D01*
G75*
G02*
X125597100Y-77249000I237500J0D01*
G01*
X126172100Y-77249000D01*
G75*
G02*
X126409600Y-77486500I0J-237500D01*
G01*
G37*
G36*
G01*
X128159600Y-77486500D02*
X128159600Y-77961500D01*
G75*
G02*
X127922100Y-78199000I-237500J0D01*
G01*
X127347100Y-78199000D01*
G75*
G02*
X127109600Y-77961500I0J237500D01*
G01*
X127109600Y-77486500D01*
G75*
G02*
X127347100Y-77249000I237500J0D01*
G01*
X127922100Y-77249000D01*
G75*
G02*
X128159600Y-77486500I0J-237500D01*
G01*
G37*
%TD*%
%TO.C,R19*%
G36*
G01*
X126409600Y-74946500D02*
X126409600Y-75421500D01*
G75*
G02*
X126172100Y-75659000I-237500J0D01*
G01*
X125597100Y-75659000D01*
G75*
G02*
X125359600Y-75421500I0J237500D01*
G01*
X125359600Y-74946500D01*
G75*
G02*
X125597100Y-74709000I237500J0D01*
G01*
X126172100Y-74709000D01*
G75*
G02*
X126409600Y-74946500I0J-237500D01*
G01*
G37*
G36*
G01*
X128159600Y-74946500D02*
X128159600Y-75421500D01*
G75*
G02*
X127922100Y-75659000I-237500J0D01*
G01*
X127347100Y-75659000D01*
G75*
G02*
X127109600Y-75421500I0J237500D01*
G01*
X127109600Y-74946500D01*
G75*
G02*
X127347100Y-74709000I237500J0D01*
G01*
X127922100Y-74709000D01*
G75*
G02*
X128159600Y-74946500I0J-237500D01*
G01*
G37*
%TD*%
%TO.C,R18*%
G36*
G01*
X126409600Y-80026500D02*
X126409600Y-80501500D01*
G75*
G02*
X126172100Y-80739000I-237500J0D01*
G01*
X125597100Y-80739000D01*
G75*
G02*
X125359600Y-80501500I0J237500D01*
G01*
X125359600Y-80026500D01*
G75*
G02*
X125597100Y-79789000I237500J0D01*
G01*
X126172100Y-79789000D01*
G75*
G02*
X126409600Y-80026500I0J-237500D01*
G01*
G37*
G36*
G01*
X128159600Y-80026500D02*
X128159600Y-80501500D01*
G75*
G02*
X127922100Y-80739000I-237500J0D01*
G01*
X127347100Y-80739000D01*
G75*
G02*
X127109600Y-80501500I0J237500D01*
G01*
X127109600Y-80026500D01*
G75*
G02*
X127347100Y-79789000I237500J0D01*
G01*
X127922100Y-79789000D01*
G75*
G02*
X128159600Y-80026500I0J-237500D01*
G01*
G37*
%TD*%
%TO.C,R6*%
G36*
G01*
X198916300Y-68622800D02*
X198441300Y-68622800D01*
G75*
G02*
X198203800Y-68385300I0J237500D01*
G01*
X198203800Y-67810300D01*
G75*
G02*
X198441300Y-67572800I237500J0D01*
G01*
X198916300Y-67572800D01*
G75*
G02*
X199153800Y-67810300I0J-237500D01*
G01*
X199153800Y-68385300D01*
G75*
G02*
X198916300Y-68622800I-237500J0D01*
G01*
G37*
G36*
G01*
X198916300Y-70372800D02*
X198441300Y-70372800D01*
G75*
G02*
X198203800Y-70135300I0J237500D01*
G01*
X198203800Y-69560300D01*
G75*
G02*
X198441300Y-69322800I237500J0D01*
G01*
X198916300Y-69322800D01*
G75*
G02*
X199153800Y-69560300I0J-237500D01*
G01*
X199153800Y-70135300D01*
G75*
G02*
X198916300Y-70372800I-237500J0D01*
G01*
G37*
%TD*%
%TO.C,R4*%
G36*
G01*
X197138300Y-68622800D02*
X196663300Y-68622800D01*
G75*
G02*
X196425800Y-68385300I0J237500D01*
G01*
X196425800Y-67810300D01*
G75*
G02*
X196663300Y-67572800I237500J0D01*
G01*
X197138300Y-67572800D01*
G75*
G02*
X197375800Y-67810300I0J-237500D01*
G01*
X197375800Y-68385300D01*
G75*
G02*
X197138300Y-68622800I-237500J0D01*
G01*
G37*
G36*
G01*
X197138300Y-70372800D02*
X196663300Y-70372800D01*
G75*
G02*
X196425800Y-70135300I0J237500D01*
G01*
X196425800Y-69560300D01*
G75*
G02*
X196663300Y-69322800I237500J0D01*
G01*
X197138300Y-69322800D01*
G75*
G02*
X197375800Y-69560300I0J-237500D01*
G01*
X197375800Y-70135300D01*
G75*
G02*
X197138300Y-70372800I-237500J0D01*
G01*
G37*
%TD*%
%TO.C,C6*%
G36*
G01*
X144187500Y-68400000D02*
X144662500Y-68400000D01*
G75*
G02*
X144900000Y-68637500I0J-237500D01*
G01*
X144900000Y-69212500D01*
G75*
G02*
X144662500Y-69450000I-237500J0D01*
G01*
X144187500Y-69450000D01*
G75*
G02*
X143950000Y-69212500I0J237500D01*
G01*
X143950000Y-68637500D01*
G75*
G02*
X144187500Y-68400000I237500J0D01*
G01*
G37*
G36*
G01*
X144187500Y-66650000D02*
X144662500Y-66650000D01*
G75*
G02*
X144900000Y-66887500I0J-237500D01*
G01*
X144900000Y-67462500D01*
G75*
G02*
X144662500Y-67700000I-237500J0D01*
G01*
X144187500Y-67700000D01*
G75*
G02*
X143950000Y-67462500I0J237500D01*
G01*
X143950000Y-66887500D01*
G75*
G02*
X144187500Y-66650000I237500J0D01*
G01*
G37*
%TD*%
%TO.C,R32*%
G36*
G01*
X203883280Y-85429100D02*
X203883280Y-84954100D01*
G75*
G02*
X204120780Y-84716600I237500J0D01*
G01*
X204695780Y-84716600D01*
G75*
G02*
X204933280Y-84954100I0J-237500D01*
G01*
X204933280Y-85429100D01*
G75*
G02*
X204695780Y-85666600I-237500J0D01*
G01*
X204120780Y-85666600D01*
G75*
G02*
X203883280Y-85429100I0J237500D01*
G01*
G37*
G36*
G01*
X202133280Y-85429100D02*
X202133280Y-84954100D01*
G75*
G02*
X202370780Y-84716600I237500J0D01*
G01*
X202945780Y-84716600D01*
G75*
G02*
X203183280Y-84954100I0J-237500D01*
G01*
X203183280Y-85429100D01*
G75*
G02*
X202945780Y-85666600I-237500J0D01*
G01*
X202370780Y-85666600D01*
G75*
G02*
X202133280Y-85429100I0J237500D01*
G01*
G37*
%TD*%
%TO.C,R8*%
G36*
G01*
X159846000Y-67138000D02*
X160321000Y-67138000D01*
G75*
G02*
X160558500Y-67375500I0J-237500D01*
G01*
X160558500Y-67950500D01*
G75*
G02*
X160321000Y-68188000I-237500J0D01*
G01*
X159846000Y-68188000D01*
G75*
G02*
X159608500Y-67950500I0J237500D01*
G01*
X159608500Y-67375500D01*
G75*
G02*
X159846000Y-67138000I237500J0D01*
G01*
G37*
G36*
G01*
X159846000Y-65388000D02*
X160321000Y-65388000D01*
G75*
G02*
X160558500Y-65625500I0J-237500D01*
G01*
X160558500Y-66200500D01*
G75*
G02*
X160321000Y-66438000I-237500J0D01*
G01*
X159846000Y-66438000D01*
G75*
G02*
X159608500Y-66200500I0J237500D01*
G01*
X159608500Y-65625500D01*
G75*
G02*
X159846000Y-65388000I237500J0D01*
G01*
G37*
%TD*%
%TO.C,R25*%
G36*
G01*
X126409600Y-67326500D02*
X126409600Y-67801500D01*
G75*
G02*
X126172100Y-68039000I-237500J0D01*
G01*
X125597100Y-68039000D01*
G75*
G02*
X125359600Y-67801500I0J237500D01*
G01*
X125359600Y-67326500D01*
G75*
G02*
X125597100Y-67089000I237500J0D01*
G01*
X126172100Y-67089000D01*
G75*
G02*
X126409600Y-67326500I0J-237500D01*
G01*
G37*
G36*
G01*
X128159600Y-67326500D02*
X128159600Y-67801500D01*
G75*
G02*
X127922100Y-68039000I-237500J0D01*
G01*
X127347100Y-68039000D01*
G75*
G02*
X127109600Y-67801500I0J237500D01*
G01*
X127109600Y-67326500D01*
G75*
G02*
X127347100Y-67089000I237500J0D01*
G01*
X127922100Y-67089000D01*
G75*
G02*
X128159600Y-67326500I0J-237500D01*
G01*
G37*
%TD*%
%TO.C,R24*%
G36*
G01*
X126409600Y-69866500D02*
X126409600Y-70341500D01*
G75*
G02*
X126172100Y-70579000I-237500J0D01*
G01*
X125597100Y-70579000D01*
G75*
G02*
X125359600Y-70341500I0J237500D01*
G01*
X125359600Y-69866500D01*
G75*
G02*
X125597100Y-69629000I237500J0D01*
G01*
X126172100Y-69629000D01*
G75*
G02*
X126409600Y-69866500I0J-237500D01*
G01*
G37*
G36*
G01*
X128159600Y-69866500D02*
X128159600Y-70341500D01*
G75*
G02*
X127922100Y-70579000I-237500J0D01*
G01*
X127347100Y-70579000D01*
G75*
G02*
X127109600Y-70341500I0J237500D01*
G01*
X127109600Y-69866500D01*
G75*
G02*
X127347100Y-69629000I237500J0D01*
G01*
X127922100Y-69629000D01*
G75*
G02*
X128159600Y-69866500I0J-237500D01*
G01*
G37*
%TD*%
%TO.C,R33*%
G36*
G01*
X204014640Y-80349100D02*
X204014640Y-79874100D01*
G75*
G02*
X204252140Y-79636600I237500J0D01*
G01*
X204827140Y-79636600D01*
G75*
G02*
X205064640Y-79874100I0J-237500D01*
G01*
X205064640Y-80349100D01*
G75*
G02*
X204827140Y-80586600I-237500J0D01*
G01*
X204252140Y-80586600D01*
G75*
G02*
X204014640Y-80349100I0J237500D01*
G01*
G37*
G36*
G01*
X202264640Y-80349100D02*
X202264640Y-79874100D01*
G75*
G02*
X202502140Y-79636600I237500J0D01*
G01*
X203077140Y-79636600D01*
G75*
G02*
X203314640Y-79874100I0J-237500D01*
G01*
X203314640Y-80349100D01*
G75*
G02*
X203077140Y-80586600I-237500J0D01*
G01*
X202502140Y-80586600D01*
G75*
G02*
X202264640Y-80349100I0J237500D01*
G01*
G37*
%TD*%
%TO.C,R29*%
G36*
G01*
X203817600Y-87969100D02*
X203817600Y-87494100D01*
G75*
G02*
X204055100Y-87256600I237500J0D01*
G01*
X204630100Y-87256600D01*
G75*
G02*
X204867600Y-87494100I0J-237500D01*
G01*
X204867600Y-87969100D01*
G75*
G02*
X204630100Y-88206600I-237500J0D01*
G01*
X204055100Y-88206600D01*
G75*
G02*
X203817600Y-87969100I0J237500D01*
G01*
G37*
G36*
G01*
X202067600Y-87969100D02*
X202067600Y-87494100D01*
G75*
G02*
X202305100Y-87256600I237500J0D01*
G01*
X202880100Y-87256600D01*
G75*
G02*
X203117600Y-87494100I0J-237500D01*
G01*
X203117600Y-87969100D01*
G75*
G02*
X202880100Y-88206600I-237500J0D01*
G01*
X202305100Y-88206600D01*
G75*
G02*
X202067600Y-87969100I0J237500D01*
G01*
G37*
%TD*%
%TO.C,R28*%
G36*
G01*
X203948960Y-82889100D02*
X203948960Y-82414100D01*
G75*
G02*
X204186460Y-82176600I237500J0D01*
G01*
X204761460Y-82176600D01*
G75*
G02*
X204998960Y-82414100I0J-237500D01*
G01*
X204998960Y-82889100D01*
G75*
G02*
X204761460Y-83126600I-237500J0D01*
G01*
X204186460Y-83126600D01*
G75*
G02*
X203948960Y-82889100I0J237500D01*
G01*
G37*
G36*
G01*
X202198960Y-82889100D02*
X202198960Y-82414100D01*
G75*
G02*
X202436460Y-82176600I237500J0D01*
G01*
X203011460Y-82176600D01*
G75*
G02*
X203248960Y-82414100I0J-237500D01*
G01*
X203248960Y-82889100D01*
G75*
G02*
X203011460Y-83126600I-237500J0D01*
G01*
X202436460Y-83126600D01*
G75*
G02*
X202198960Y-82889100I0J237500D01*
G01*
G37*
%TD*%
%TO.C,R1*%
G36*
G01*
X202683200Y-61004300D02*
X202683200Y-61479300D01*
G75*
G02*
X202445700Y-61716800I-237500J0D01*
G01*
X201870700Y-61716800D01*
G75*
G02*
X201633200Y-61479300I0J237500D01*
G01*
X201633200Y-61004300D01*
G75*
G02*
X201870700Y-60766800I237500J0D01*
G01*
X202445700Y-60766800D01*
G75*
G02*
X202683200Y-61004300I0J-237500D01*
G01*
G37*
G36*
G01*
X204433200Y-61004300D02*
X204433200Y-61479300D01*
G75*
G02*
X204195700Y-61716800I-237500J0D01*
G01*
X203620700Y-61716800D01*
G75*
G02*
X203383200Y-61479300I0J237500D01*
G01*
X203383200Y-61004300D01*
G75*
G02*
X203620700Y-60766800I237500J0D01*
G01*
X204195700Y-60766800D01*
G75*
G02*
X204433200Y-61004300I0J-237500D01*
G01*
G37*
%TD*%
%TO.C,R37*%
G36*
G01*
X202833200Y-63865000D02*
X202833200Y-64340000D01*
G75*
G02*
X202595700Y-64577500I-237500J0D01*
G01*
X202020700Y-64577500D01*
G75*
G02*
X201783200Y-64340000I0J237500D01*
G01*
X201783200Y-63865000D01*
G75*
G02*
X202020700Y-63627500I237500J0D01*
G01*
X202595700Y-63627500D01*
G75*
G02*
X202833200Y-63865000I0J-237500D01*
G01*
G37*
G36*
G01*
X204583200Y-63865000D02*
X204583200Y-64340000D01*
G75*
G02*
X204345700Y-64577500I-237500J0D01*
G01*
X203770700Y-64577500D01*
G75*
G02*
X203533200Y-64340000I0J237500D01*
G01*
X203533200Y-63865000D01*
G75*
G02*
X203770700Y-63627500I237500J0D01*
G01*
X204345700Y-63627500D01*
G75*
G02*
X204583200Y-63865000I0J-237500D01*
G01*
G37*
%TD*%
%TO.C,R36*%
G36*
G01*
X202872200Y-67294000D02*
X202872200Y-67769000D01*
G75*
G02*
X202634700Y-68006500I-237500J0D01*
G01*
X202059700Y-68006500D01*
G75*
G02*
X201822200Y-67769000I0J237500D01*
G01*
X201822200Y-67294000D01*
G75*
G02*
X202059700Y-67056500I237500J0D01*
G01*
X202634700Y-67056500D01*
G75*
G02*
X202872200Y-67294000I0J-237500D01*
G01*
G37*
G36*
G01*
X204622200Y-67294000D02*
X204622200Y-67769000D01*
G75*
G02*
X204384700Y-68006500I-237500J0D01*
G01*
X203809700Y-68006500D01*
G75*
G02*
X203572200Y-67769000I0J237500D01*
G01*
X203572200Y-67294000D01*
G75*
G02*
X203809700Y-67056500I237500J0D01*
G01*
X204384700Y-67056500D01*
G75*
G02*
X204622200Y-67294000I0J-237500D01*
G01*
G37*
%TD*%
%TO.C,R35*%
G36*
G01*
X202833200Y-70596000D02*
X202833200Y-71071000D01*
G75*
G02*
X202595700Y-71308500I-237500J0D01*
G01*
X202020700Y-71308500D01*
G75*
G02*
X201783200Y-71071000I0J237500D01*
G01*
X201783200Y-70596000D01*
G75*
G02*
X202020700Y-70358500I237500J0D01*
G01*
X202595700Y-70358500D01*
G75*
G02*
X202833200Y-70596000I0J-237500D01*
G01*
G37*
G36*
G01*
X204583200Y-70596000D02*
X204583200Y-71071000D01*
G75*
G02*
X204345700Y-71308500I-237500J0D01*
G01*
X203770700Y-71308500D01*
G75*
G02*
X203533200Y-71071000I0J237500D01*
G01*
X203533200Y-70596000D01*
G75*
G02*
X203770700Y-70358500I237500J0D01*
G01*
X204345700Y-70358500D01*
G75*
G02*
X204583200Y-70596000I0J-237500D01*
G01*
G37*
%TD*%
%TO.C,R31*%
G36*
G01*
X204080320Y-75269100D02*
X204080320Y-74794100D01*
G75*
G02*
X204317820Y-74556600I237500J0D01*
G01*
X204892820Y-74556600D01*
G75*
G02*
X205130320Y-74794100I0J-237500D01*
G01*
X205130320Y-75269100D01*
G75*
G02*
X204892820Y-75506600I-237500J0D01*
G01*
X204317820Y-75506600D01*
G75*
G02*
X204080320Y-75269100I0J237500D01*
G01*
G37*
G36*
G01*
X202330320Y-75269100D02*
X202330320Y-74794100D01*
G75*
G02*
X202567820Y-74556600I237500J0D01*
G01*
X203142820Y-74556600D01*
G75*
G02*
X203380320Y-74794100I0J-237500D01*
G01*
X203380320Y-75269100D01*
G75*
G02*
X203142820Y-75506600I-237500J0D01*
G01*
X202567820Y-75506600D01*
G75*
G02*
X202330320Y-75269100I0J237500D01*
G01*
G37*
%TD*%
%TO.C,R30*%
G36*
G01*
X204146000Y-77809100D02*
X204146000Y-77334100D01*
G75*
G02*
X204383500Y-77096600I237500J0D01*
G01*
X204958500Y-77096600D01*
G75*
G02*
X205196000Y-77334100I0J-237500D01*
G01*
X205196000Y-77809100D01*
G75*
G02*
X204958500Y-78046600I-237500J0D01*
G01*
X204383500Y-78046600D01*
G75*
G02*
X204146000Y-77809100I0J237500D01*
G01*
G37*
G36*
G01*
X202396000Y-77809100D02*
X202396000Y-77334100D01*
G75*
G02*
X202633500Y-77096600I237500J0D01*
G01*
X203208500Y-77096600D01*
G75*
G02*
X203446000Y-77334100I0J-237500D01*
G01*
X203446000Y-77809100D01*
G75*
G02*
X203208500Y-78046600I-237500J0D01*
G01*
X202633500Y-78046600D01*
G75*
G02*
X202396000Y-77809100I0J237500D01*
G01*
G37*
%TD*%
%TO.C,R39*%
G36*
G01*
X140700000Y-75762500D02*
X140700000Y-76237500D01*
G75*
G02*
X140462500Y-76475000I-237500J0D01*
G01*
X139887500Y-76475000D01*
G75*
G02*
X139650000Y-76237500I0J237500D01*
G01*
X139650000Y-75762500D01*
G75*
G02*
X139887500Y-75525000I237500J0D01*
G01*
X140462500Y-75525000D01*
G75*
G02*
X140700000Y-75762500I0J-237500D01*
G01*
G37*
G36*
G01*
X142450000Y-75762500D02*
X142450000Y-76237500D01*
G75*
G02*
X142212500Y-76475000I-237500J0D01*
G01*
X141637500Y-76475000D01*
G75*
G02*
X141400000Y-76237500I0J237500D01*
G01*
X141400000Y-75762500D01*
G75*
G02*
X141637500Y-75525000I237500J0D01*
G01*
X142212500Y-75525000D01*
G75*
G02*
X142450000Y-75762500I0J-237500D01*
G01*
G37*
%TD*%
%TO.C,R38*%
G36*
G01*
X140700000Y-74012500D02*
X140700000Y-74487500D01*
G75*
G02*
X140462500Y-74725000I-237500J0D01*
G01*
X139887500Y-74725000D01*
G75*
G02*
X139650000Y-74487500I0J237500D01*
G01*
X139650000Y-74012500D01*
G75*
G02*
X139887500Y-73775000I237500J0D01*
G01*
X140462500Y-73775000D01*
G75*
G02*
X140700000Y-74012500I0J-237500D01*
G01*
G37*
G36*
G01*
X142450000Y-74012500D02*
X142450000Y-74487500D01*
G75*
G02*
X142212500Y-74725000I-237500J0D01*
G01*
X141637500Y-74725000D01*
G75*
G02*
X141400000Y-74487500I0J237500D01*
G01*
X141400000Y-74012500D01*
G75*
G02*
X141637500Y-73775000I237500J0D01*
G01*
X142212500Y-73775000D01*
G75*
G02*
X142450000Y-74012500I0J-237500D01*
G01*
G37*
%TD*%
%TO.C,R23*%
G36*
G01*
X168737500Y-72300000D02*
X168262500Y-72300000D01*
G75*
G02*
X168025000Y-72062500I0J237500D01*
G01*
X168025000Y-71487500D01*
G75*
G02*
X168262500Y-71250000I237500J0D01*
G01*
X168737500Y-71250000D01*
G75*
G02*
X168975000Y-71487500I0J-237500D01*
G01*
X168975000Y-72062500D01*
G75*
G02*
X168737500Y-72300000I-237500J0D01*
G01*
G37*
G36*
G01*
X168737500Y-74050000D02*
X168262500Y-74050000D01*
G75*
G02*
X168025000Y-73812500I0J237500D01*
G01*
X168025000Y-73237500D01*
G75*
G02*
X168262500Y-73000000I237500J0D01*
G01*
X168737500Y-73000000D01*
G75*
G02*
X168975000Y-73237500I0J-237500D01*
G01*
X168975000Y-73812500D01*
G75*
G02*
X168737500Y-74050000I-237500J0D01*
G01*
G37*
%TD*%
%TO.C,R22*%
G36*
G01*
X170637500Y-72250000D02*
X170162500Y-72250000D01*
G75*
G02*
X169925000Y-72012500I0J237500D01*
G01*
X169925000Y-71437500D01*
G75*
G02*
X170162500Y-71200000I237500J0D01*
G01*
X170637500Y-71200000D01*
G75*
G02*
X170875000Y-71437500I0J-237500D01*
G01*
X170875000Y-72012500D01*
G75*
G02*
X170637500Y-72250000I-237500J0D01*
G01*
G37*
G36*
G01*
X170637500Y-74000000D02*
X170162500Y-74000000D01*
G75*
G02*
X169925000Y-73762500I0J237500D01*
G01*
X169925000Y-73187500D01*
G75*
G02*
X170162500Y-72950000I237500J0D01*
G01*
X170637500Y-72950000D01*
G75*
G02*
X170875000Y-73187500I0J-237500D01*
G01*
X170875000Y-73762500D01*
G75*
G02*
X170637500Y-74000000I-237500J0D01*
G01*
G37*
%TD*%
%TO.C,R17*%
G36*
G01*
X149777600Y-62398900D02*
X149777600Y-62873900D01*
G75*
G02*
X149540100Y-63111400I-237500J0D01*
G01*
X148965100Y-63111400D01*
G75*
G02*
X148727600Y-62873900I0J237500D01*
G01*
X148727600Y-62398900D01*
G75*
G02*
X148965100Y-62161400I237500J0D01*
G01*
X149540100Y-62161400D01*
G75*
G02*
X149777600Y-62398900I0J-237500D01*
G01*
G37*
G36*
G01*
X151527600Y-62398900D02*
X151527600Y-62873900D01*
G75*
G02*
X151290100Y-63111400I-237500J0D01*
G01*
X150715100Y-63111400D01*
G75*
G02*
X150477600Y-62873900I0J237500D01*
G01*
X150477600Y-62398900D01*
G75*
G02*
X150715100Y-62161400I237500J0D01*
G01*
X151290100Y-62161400D01*
G75*
G02*
X151527600Y-62398900I0J-237500D01*
G01*
G37*
%TD*%
%TO.C,R16*%
G36*
G01*
X141080500Y-63060200D02*
X140605500Y-63060200D01*
G75*
G02*
X140368000Y-62822700I0J237500D01*
G01*
X140368000Y-62247700D01*
G75*
G02*
X140605500Y-62010200I237500J0D01*
G01*
X141080500Y-62010200D01*
G75*
G02*
X141318000Y-62247700I0J-237500D01*
G01*
X141318000Y-62822700D01*
G75*
G02*
X141080500Y-63060200I-237500J0D01*
G01*
G37*
G36*
G01*
X141080500Y-64810200D02*
X140605500Y-64810200D01*
G75*
G02*
X140368000Y-64572700I0J237500D01*
G01*
X140368000Y-63997700D01*
G75*
G02*
X140605500Y-63760200I237500J0D01*
G01*
X141080500Y-63760200D01*
G75*
G02*
X141318000Y-63997700I0J-237500D01*
G01*
X141318000Y-64572700D01*
G75*
G02*
X141080500Y-64810200I-237500J0D01*
G01*
G37*
%TD*%
%TO.C,R3*%
G36*
G01*
X165478100Y-62048000D02*
X165478100Y-62523000D01*
G75*
G02*
X165240600Y-62760500I-237500J0D01*
G01*
X164665600Y-62760500D01*
G75*
G02*
X164428100Y-62523000I0J237500D01*
G01*
X164428100Y-62048000D01*
G75*
G02*
X164665600Y-61810500I237500J0D01*
G01*
X165240600Y-61810500D01*
G75*
G02*
X165478100Y-62048000I0J-237500D01*
G01*
G37*
G36*
G01*
X167228100Y-62048000D02*
X167228100Y-62523000D01*
G75*
G02*
X166990600Y-62760500I-237500J0D01*
G01*
X166415600Y-62760500D01*
G75*
G02*
X166178100Y-62523000I0J237500D01*
G01*
X166178100Y-62048000D01*
G75*
G02*
X166415600Y-61810500I237500J0D01*
G01*
X166990600Y-61810500D01*
G75*
G02*
X167228100Y-62048000I0J-237500D01*
G01*
G37*
%TD*%
%TO.C,R2*%
G36*
G01*
X158835100Y-62412500D02*
X158360100Y-62412500D01*
G75*
G02*
X158122600Y-62175000I0J237500D01*
G01*
X158122600Y-61600000D01*
G75*
G02*
X158360100Y-61362500I237500J0D01*
G01*
X158835100Y-61362500D01*
G75*
G02*
X159072600Y-61600000I0J-237500D01*
G01*
X159072600Y-62175000D01*
G75*
G02*
X158835100Y-62412500I-237500J0D01*
G01*
G37*
G36*
G01*
X158835100Y-64162500D02*
X158360100Y-64162500D01*
G75*
G02*
X158122600Y-63925000I0J237500D01*
G01*
X158122600Y-63350000D01*
G75*
G02*
X158360100Y-63112500I237500J0D01*
G01*
X158835100Y-63112500D01*
G75*
G02*
X159072600Y-63350000I0J-237500D01*
G01*
X159072600Y-63925000D01*
G75*
G02*
X158835100Y-64162500I-237500J0D01*
G01*
G37*
%TD*%
%TO.C,C9*%
G36*
G01*
X161687500Y-67152000D02*
X162162500Y-67152000D01*
G75*
G02*
X162400000Y-67389500I0J-237500D01*
G01*
X162400000Y-67964500D01*
G75*
G02*
X162162500Y-68202000I-237500J0D01*
G01*
X161687500Y-68202000D01*
G75*
G02*
X161450000Y-67964500I0J237500D01*
G01*
X161450000Y-67389500D01*
G75*
G02*
X161687500Y-67152000I237500J0D01*
G01*
G37*
G36*
G01*
X161687500Y-65402000D02*
X162162500Y-65402000D01*
G75*
G02*
X162400000Y-65639500I0J-237500D01*
G01*
X162400000Y-66214500D01*
G75*
G02*
X162162500Y-66452000I-237500J0D01*
G01*
X161687500Y-66452000D01*
G75*
G02*
X161450000Y-66214500I0J237500D01*
G01*
X161450000Y-65639500D01*
G75*
G02*
X161687500Y-65402000I237500J0D01*
G01*
G37*
%TD*%
D13*
%TO.C,D1*%
X190500000Y-65725000D03*
X190500000Y-61975000D03*
%TD*%
%TO.C,C2*%
G36*
G01*
X152650000Y-70837500D02*
X152650000Y-70362500D01*
G75*
G02*
X152887500Y-70125000I237500J0D01*
G01*
X153462500Y-70125000D01*
G75*
G02*
X153700000Y-70362500I0J-237500D01*
G01*
X153700000Y-70837500D01*
G75*
G02*
X153462500Y-71075000I-237500J0D01*
G01*
X152887500Y-71075000D01*
G75*
G02*
X152650000Y-70837500I0J237500D01*
G01*
G37*
G36*
G01*
X150900000Y-70837500D02*
X150900000Y-70362500D01*
G75*
G02*
X151137500Y-70125000I237500J0D01*
G01*
X151712500Y-70125000D01*
G75*
G02*
X151950000Y-70362500I0J-237500D01*
G01*
X151950000Y-70837500D01*
G75*
G02*
X151712500Y-71075000I-237500J0D01*
G01*
X151137500Y-71075000D01*
G75*
G02*
X150900000Y-70837500I0J237500D01*
G01*
G37*
%TD*%
%TO.C,C7*%
G36*
G01*
X151950000Y-68612500D02*
X151950000Y-69087500D01*
G75*
G02*
X151712500Y-69325000I-237500J0D01*
G01*
X151137500Y-69325000D01*
G75*
G02*
X150900000Y-69087500I0J237500D01*
G01*
X150900000Y-68612500D01*
G75*
G02*
X151137500Y-68375000I237500J0D01*
G01*
X151712500Y-68375000D01*
G75*
G02*
X151950000Y-68612500I0J-237500D01*
G01*
G37*
G36*
G01*
X153700000Y-68612500D02*
X153700000Y-69087500D01*
G75*
G02*
X153462500Y-69325000I-237500J0D01*
G01*
X152887500Y-69325000D01*
G75*
G02*
X152650000Y-69087500I0J237500D01*
G01*
X152650000Y-68612500D01*
G75*
G02*
X152887500Y-68375000I237500J0D01*
G01*
X153462500Y-68375000D01*
G75*
G02*
X153700000Y-68612500I0J-237500D01*
G01*
G37*
%TD*%
%TO.C,R26*%
G36*
G01*
X163402000Y-67138000D02*
X163877000Y-67138000D01*
G75*
G02*
X164114500Y-67375500I0J-237500D01*
G01*
X164114500Y-67950500D01*
G75*
G02*
X163877000Y-68188000I-237500J0D01*
G01*
X163402000Y-68188000D01*
G75*
G02*
X163164500Y-67950500I0J237500D01*
G01*
X163164500Y-67375500D01*
G75*
G02*
X163402000Y-67138000I237500J0D01*
G01*
G37*
G36*
G01*
X163402000Y-65388000D02*
X163877000Y-65388000D01*
G75*
G02*
X164114500Y-65625500I0J-237500D01*
G01*
X164114500Y-66200500D01*
G75*
G02*
X163877000Y-66438000I-237500J0D01*
G01*
X163402000Y-66438000D01*
G75*
G02*
X163164500Y-66200500I0J237500D01*
G01*
X163164500Y-65625500D01*
G75*
G02*
X163402000Y-65388000I237500J0D01*
G01*
G37*
%TD*%
%TO.C,D8*%
X173250000Y-66375000D03*
X173250000Y-62625000D03*
%TD*%
%TO.C,D7*%
X173250000Y-56550000D03*
X173250000Y-60300000D03*
%TD*%
%TO.C,R15*%
G36*
G01*
X151950000Y-66837500D02*
X151950000Y-67312500D01*
G75*
G02*
X151712500Y-67550000I-237500J0D01*
G01*
X151137500Y-67550000D01*
G75*
G02*
X150900000Y-67312500I0J237500D01*
G01*
X150900000Y-66837500D01*
G75*
G02*
X151137500Y-66600000I237500J0D01*
G01*
X151712500Y-66600000D01*
G75*
G02*
X151950000Y-66837500I0J-237500D01*
G01*
G37*
G36*
G01*
X153700000Y-66837500D02*
X153700000Y-67312500D01*
G75*
G02*
X153462500Y-67550000I-237500J0D01*
G01*
X152887500Y-67550000D01*
G75*
G02*
X152650000Y-67312500I0J237500D01*
G01*
X152650000Y-66837500D01*
G75*
G02*
X152887500Y-66600000I237500J0D01*
G01*
X153462500Y-66600000D01*
G75*
G02*
X153700000Y-66837500I0J-237500D01*
G01*
G37*
%TD*%
%TO.C,R9*%
G36*
G01*
X142437500Y-68400000D02*
X142912500Y-68400000D01*
G75*
G02*
X143150000Y-68637500I0J-237500D01*
G01*
X143150000Y-69212500D01*
G75*
G02*
X142912500Y-69450000I-237500J0D01*
G01*
X142437500Y-69450000D01*
G75*
G02*
X142200000Y-69212500I0J237500D01*
G01*
X142200000Y-68637500D01*
G75*
G02*
X142437500Y-68400000I237500J0D01*
G01*
G37*
G36*
G01*
X142437500Y-66650000D02*
X142912500Y-66650000D01*
G75*
G02*
X143150000Y-66887500I0J-237500D01*
G01*
X143150000Y-67462500D01*
G75*
G02*
X142912500Y-67700000I-237500J0D01*
G01*
X142437500Y-67700000D01*
G75*
G02*
X142200000Y-67462500I0J237500D01*
G01*
X142200000Y-66887500D01*
G75*
G02*
X142437500Y-66650000I237500J0D01*
G01*
G37*
%TD*%
D14*
%TO.C,P2*%
X162436000Y-53178900D03*
X159636000Y-53178900D03*
D15*
X156716000Y-53178900D03*
D16*
X158036000Y-56278900D03*
D15*
X165356000Y-53178900D03*
D17*
X164036000Y-56278900D03*
D18*
X165356000Y-57003900D03*
X156716000Y-57003900D03*
D19*
X161286000Y-57378900D03*
X159286000Y-57378900D03*
X159786000Y-57378900D03*
X160286000Y-57378900D03*
X160786000Y-57378900D03*
X161786000Y-57378900D03*
X162286000Y-57378900D03*
X162786000Y-57378900D03*
D20*
X157936000Y-57378900D03*
X158686000Y-57378900D03*
X163386000Y-57378900D03*
X164136000Y-57378900D03*
X164136000Y-57378900D03*
X163386000Y-57378900D03*
X158686000Y-57378900D03*
X157936000Y-57378900D03*
%TD*%
D14*
%TO.C,P1*%
X146662600Y-53178900D03*
X143862600Y-53178900D03*
D15*
X140942600Y-53178900D03*
D16*
X142262600Y-56278900D03*
D15*
X149582600Y-53178900D03*
D17*
X148262600Y-56278900D03*
D18*
X149582600Y-57003900D03*
X140942600Y-57003900D03*
D19*
X145512600Y-57378900D03*
X143512600Y-57378900D03*
X144012600Y-57378900D03*
X144512600Y-57378900D03*
X145012600Y-57378900D03*
X146012600Y-57378900D03*
X146512600Y-57378900D03*
X147012600Y-57378900D03*
D20*
X142162600Y-57378900D03*
X142912600Y-57378900D03*
X147612600Y-57378900D03*
X148362600Y-57378900D03*
X148362600Y-57378900D03*
X147612600Y-57378900D03*
X142912600Y-57378900D03*
X142162600Y-57378900D03*
%TD*%
%TO.C,R10*%
G36*
G01*
X145937500Y-68375000D02*
X146412500Y-68375000D01*
G75*
G02*
X146650000Y-68612500I0J-237500D01*
G01*
X146650000Y-69187500D01*
G75*
G02*
X146412500Y-69425000I-237500J0D01*
G01*
X145937500Y-69425000D01*
G75*
G02*
X145700000Y-69187500I0J237500D01*
G01*
X145700000Y-68612500D01*
G75*
G02*
X145937500Y-68375000I237500J0D01*
G01*
G37*
G36*
G01*
X145937500Y-66625000D02*
X146412500Y-66625000D01*
G75*
G02*
X146650000Y-66862500I0J-237500D01*
G01*
X146650000Y-67437500D01*
G75*
G02*
X146412500Y-67675000I-237500J0D01*
G01*
X145937500Y-67675000D01*
G75*
G02*
X145700000Y-67437500I0J237500D01*
G01*
X145700000Y-66862500D01*
G75*
G02*
X145937500Y-66625000I237500J0D01*
G01*
G37*
%TD*%
D21*
%TO.C,D5*%
X161950400Y-63901500D03*
X162900400Y-63901500D03*
X161000400Y-63901500D03*
X161000400Y-61701500D03*
X161950400Y-61701500D03*
X162900400Y-61701500D03*
%TD*%
D12*
%TO.C,TP3 (5V)*%
X138404600Y-60883800D03*
%TD*%
%TO.C,TP2 (5V)*%
X156349700Y-60553600D03*
%TD*%
%TO.C,TP1 (3.3V)*%
X193800000Y-68300000D03*
%TD*%
D21*
%TO.C,D6*%
X144490400Y-64760200D03*
X145440400Y-64760200D03*
X143540400Y-64760200D03*
X143540400Y-62560200D03*
X144490400Y-62560200D03*
X145440400Y-62560200D03*
%TD*%
D22*
%TO.C,U4*%
X191754000Y-82025200D03*
X189654000Y-82025200D03*
X187554000Y-82025200D03*
X185454000Y-82025200D03*
X191754000Y-84075200D03*
X189654000Y-84075200D03*
X187554000Y-84075200D03*
X185454000Y-84075200D03*
X191754000Y-86125200D03*
X189654000Y-86125200D03*
X187554000Y-86125200D03*
X185454000Y-86125200D03*
X191754000Y-75825200D03*
X189654000Y-75825200D03*
X187554000Y-75825200D03*
X185454000Y-75825200D03*
X191754000Y-77875200D03*
X189654000Y-77875200D03*
X187554000Y-77875200D03*
X185454000Y-77875200D03*
X191754000Y-79925200D03*
X189654000Y-79925200D03*
X187554000Y-79925200D03*
X185454000Y-79925200D03*
X177054000Y-79925200D03*
X179154000Y-79925200D03*
X181254000Y-79925200D03*
X183354000Y-79925200D03*
X177054000Y-77875200D03*
X179154000Y-77875200D03*
X181254000Y-77875200D03*
X183354000Y-77875200D03*
X177054000Y-75825200D03*
X179154000Y-75825200D03*
X181254000Y-75825200D03*
X183354000Y-75825200D03*
X177054000Y-86125200D03*
X179154000Y-86125200D03*
X181254000Y-86125200D03*
X183354000Y-86125200D03*
X177054000Y-84075200D03*
X179154000Y-84075200D03*
X181254000Y-84075200D03*
X183354000Y-84075200D03*
X177054000Y-82025200D03*
X179154000Y-82025200D03*
X181254000Y-82025200D03*
X183354000Y-82025200D03*
D23*
X174454000Y-87575200D03*
X174454000Y-86475200D03*
X174454000Y-85375200D03*
X174454000Y-84275200D03*
X174454000Y-83175200D03*
X174454000Y-82075200D03*
X174454000Y-80975200D03*
X174454000Y-79875200D03*
X174454000Y-78775200D03*
X174454000Y-77675200D03*
X174454000Y-76575200D03*
X174454000Y-75475200D03*
X174454000Y-74375200D03*
D24*
X177254000Y-73525200D03*
X178354000Y-73525200D03*
X179454000Y-73525200D03*
X180554000Y-73525200D03*
X181654000Y-73525200D03*
X182754000Y-73525200D03*
X183854000Y-73525200D03*
X184954000Y-73525200D03*
X186054000Y-73525200D03*
X187154000Y-73525200D03*
X188254000Y-73525200D03*
X189354000Y-73525200D03*
X190454000Y-73525200D03*
X191554000Y-73525200D03*
D23*
X194354000Y-74375200D03*
X194354000Y-75475200D03*
X194354000Y-76575200D03*
X194354000Y-77675200D03*
X194354000Y-78775200D03*
X194354000Y-79875200D03*
X194354000Y-80975200D03*
X194354000Y-82075200D03*
X194354000Y-83175200D03*
X194354000Y-84275200D03*
X194354000Y-85375200D03*
X194354000Y-86475200D03*
X194354000Y-87575200D03*
D24*
X191554000Y-88425200D03*
X190454000Y-88425200D03*
X189354000Y-88425200D03*
X188254000Y-88425200D03*
X187154000Y-88425200D03*
X186054000Y-88425200D03*
X184954000Y-88425200D03*
X183854000Y-88425200D03*
X182754000Y-88425200D03*
X181654000Y-88425200D03*
X180554000Y-88425200D03*
X179454000Y-88425200D03*
X178354000Y-88425200D03*
X177254000Y-88425200D03*
%TD*%
D25*
%TO.C,H4*%
X206500000Y-96500000D03*
%TD*%
%TO.C,H3*%
X206500000Y-53500000D03*
%TD*%
%TO.C,H2*%
X123500000Y-96500000D03*
%TD*%
%TO.C,H1*%
X123500000Y-53500000D03*
%TD*%
D26*
%TO.C,BT1*%
X135755600Y-96144500D03*
D27*
X137177600Y-92262500D03*
%TD*%
D22*
%TO.C,U3*%
X162239200Y-82076000D03*
X160139200Y-82076000D03*
X158039200Y-82076000D03*
X155939200Y-82076000D03*
X162239200Y-84126000D03*
X160139200Y-84126000D03*
X158039200Y-84126000D03*
X155939200Y-84126000D03*
X162239200Y-86176000D03*
X160139200Y-86176000D03*
X158039200Y-86176000D03*
X155939200Y-86176000D03*
X162239200Y-75876000D03*
X160139200Y-75876000D03*
X158039200Y-75876000D03*
X155939200Y-75876000D03*
X162239200Y-77926000D03*
X160139200Y-77926000D03*
X158039200Y-77926000D03*
X155939200Y-77926000D03*
X162239200Y-79976000D03*
X160139200Y-79976000D03*
X158039200Y-79976000D03*
X155939200Y-79976000D03*
X147539200Y-79976000D03*
X149639200Y-79976000D03*
X151739200Y-79976000D03*
X153839200Y-79976000D03*
X147539200Y-77926000D03*
X149639200Y-77926000D03*
X151739200Y-77926000D03*
X153839200Y-77926000D03*
X147539200Y-75876000D03*
X149639200Y-75876000D03*
X151739200Y-75876000D03*
X153839200Y-75876000D03*
X147539200Y-86176000D03*
X149639200Y-86176000D03*
X151739200Y-86176000D03*
X153839200Y-86176000D03*
X147539200Y-84126000D03*
X149639200Y-84126000D03*
X151739200Y-84126000D03*
X153839200Y-84126000D03*
X147539200Y-82076000D03*
X149639200Y-82076000D03*
X151739200Y-82076000D03*
X153839200Y-82076000D03*
D23*
X144939200Y-87626000D03*
X144939200Y-86526000D03*
X144939200Y-85426000D03*
X144939200Y-84326000D03*
X144939200Y-83226000D03*
X144939200Y-82126000D03*
X144939200Y-81026000D03*
X144939200Y-79926000D03*
X144939200Y-78826000D03*
X144939200Y-77726000D03*
X144939200Y-76626000D03*
X144939200Y-75526000D03*
X144939200Y-74426000D03*
D24*
X147739200Y-73576000D03*
X148839200Y-73576000D03*
X149939200Y-73576000D03*
X151039200Y-73576000D03*
X152139200Y-73576000D03*
X153239200Y-73576000D03*
X154339200Y-73576000D03*
X155439200Y-73576000D03*
X156539200Y-73576000D03*
X157639200Y-73576000D03*
X158739200Y-73576000D03*
X159839200Y-73576000D03*
X160939200Y-73576000D03*
X162039200Y-73576000D03*
D23*
X164839200Y-74426000D03*
X164839200Y-75526000D03*
X164839200Y-76626000D03*
X164839200Y-77726000D03*
X164839200Y-78826000D03*
X164839200Y-79926000D03*
X164839200Y-81026000D03*
X164839200Y-82126000D03*
X164839200Y-83226000D03*
X164839200Y-84326000D03*
X164839200Y-85426000D03*
X164839200Y-86526000D03*
X164839200Y-87626000D03*
D24*
X162039200Y-88476000D03*
X160939200Y-88476000D03*
X159839200Y-88476000D03*
X158739200Y-88476000D03*
X157639200Y-88476000D03*
X156539200Y-88476000D03*
X155439200Y-88476000D03*
X154339200Y-88476000D03*
X153239200Y-88476000D03*
X152139200Y-88476000D03*
X151039200Y-88476000D03*
X149939200Y-88476000D03*
X148839200Y-88476000D03*
X147739200Y-88476000D03*
%TD*%
D28*
%TO.C,U1*%
X179200000Y-66800000D03*
X183800000Y-66800000D03*
X181500000Y-66800000D03*
D29*
X181500000Y-60500000D03*
%TD*%
%TO.C,LED1*%
G36*
G01*
X205318880Y-60612400D02*
X206161120Y-60612400D01*
G75*
G02*
X206341600Y-60792880I0J-180480D01*
G01*
X206341600Y-61635120D01*
G75*
G02*
X206161120Y-61815600I-180480J0D01*
G01*
X205318880Y-61815600D01*
G75*
G02*
X205138400Y-61635120I0J180480D01*
G01*
X205138400Y-60792880D01*
G75*
G02*
X205318880Y-60612400I180480J0D01*
G01*
G37*
G36*
G01*
X207072880Y-60612400D02*
X207915120Y-60612400D01*
G75*
G02*
X208095600Y-60792880I0J-180480D01*
G01*
X208095600Y-61635120D01*
G75*
G02*
X207915120Y-61815600I-180480J0D01*
G01*
X207072880Y-61815600D01*
G75*
G02*
X206892400Y-61635120I0J180480D01*
G01*
X206892400Y-60792880D01*
G75*
G02*
X207072880Y-60612400I180480J0D01*
G01*
G37*
%TD*%
%TO.C,J7*%
G36*
G01*
X177084200Y-50766800D02*
X177084200Y-52966800D01*
G75*
G02*
X176834200Y-53216800I-250000J0D01*
G01*
X176334200Y-53216800D01*
G75*
G02*
X176084200Y-52966800I0J250000D01*
G01*
X176084200Y-50766800D01*
G75*
G02*
X176334200Y-50516800I250000J0D01*
G01*
X176834200Y-50516800D01*
G75*
G02*
X177084200Y-50766800I0J-250000D01*
G01*
G37*
G36*
G01*
X187034200Y-50766800D02*
X187034200Y-52966800D01*
G75*
G02*
X186784200Y-53216800I-250000J0D01*
G01*
X186284200Y-53216800D01*
G75*
G02*
X186034200Y-52966800I0J250000D01*
G01*
X186034200Y-50766800D01*
G75*
G02*
X186284200Y-50516800I250000J0D01*
G01*
X186784200Y-50516800D01*
G75*
G02*
X187034200Y-50766800I0J-250000D01*
G01*
G37*
G36*
G01*
X178734200Y-54366800D02*
X178734200Y-55766800D01*
G75*
G02*
X178584200Y-55916800I-150000J0D01*
G01*
X178284200Y-55916800D01*
G75*
G02*
X178134200Y-55766800I0J150000D01*
G01*
X178134200Y-54366800D01*
G75*
G02*
X178284200Y-54216800I150000J0D01*
G01*
X178584200Y-54216800D01*
G75*
G02*
X178734200Y-54366800I0J-150000D01*
G01*
G37*
G36*
G01*
X179984200Y-54366800D02*
X179984200Y-55766800D01*
G75*
G02*
X179834200Y-55916800I-150000J0D01*
G01*
X179534200Y-55916800D01*
G75*
G02*
X179384200Y-55766800I0J150000D01*
G01*
X179384200Y-54366800D01*
G75*
G02*
X179534200Y-54216800I150000J0D01*
G01*
X179834200Y-54216800D01*
G75*
G02*
X179984200Y-54366800I0J-150000D01*
G01*
G37*
G36*
G01*
X181234200Y-54366800D02*
X181234200Y-55766800D01*
G75*
G02*
X181084200Y-55916800I-150000J0D01*
G01*
X180784200Y-55916800D01*
G75*
G02*
X180634200Y-55766800I0J150000D01*
G01*
X180634200Y-54366800D01*
G75*
G02*
X180784200Y-54216800I150000J0D01*
G01*
X181084200Y-54216800D01*
G75*
G02*
X181234200Y-54366800I0J-150000D01*
G01*
G37*
G36*
G01*
X182484200Y-54366800D02*
X182484200Y-55766800D01*
G75*
G02*
X182334200Y-55916800I-150000J0D01*
G01*
X182034200Y-55916800D01*
G75*
G02*
X181884200Y-55766800I0J150000D01*
G01*
X181884200Y-54366800D01*
G75*
G02*
X182034200Y-54216800I150000J0D01*
G01*
X182334200Y-54216800D01*
G75*
G02*
X182484200Y-54366800I0J-150000D01*
G01*
G37*
G36*
G01*
X183734200Y-54366800D02*
X183734200Y-55766800D01*
G75*
G02*
X183584200Y-55916800I-150000J0D01*
G01*
X183284200Y-55916800D01*
G75*
G02*
X183134200Y-55766800I0J150000D01*
G01*
X183134200Y-54366800D01*
G75*
G02*
X183284200Y-54216800I150000J0D01*
G01*
X183584200Y-54216800D01*
G75*
G02*
X183734200Y-54366800I0J-150000D01*
G01*
G37*
G36*
G01*
X184984200Y-54366800D02*
X184984200Y-55766800D01*
G75*
G02*
X184834200Y-55916800I-150000J0D01*
G01*
X184534200Y-55916800D01*
G75*
G02*
X184384200Y-55766800I0J150000D01*
G01*
X184384200Y-54366800D01*
G75*
G02*
X184534200Y-54216800I150000J0D01*
G01*
X184834200Y-54216800D01*
G75*
G02*
X184984200Y-54366800I0J-150000D01*
G01*
G37*
%TD*%
D30*
%TO.C,J6*%
X122110500Y-80264000D03*
X122110500Y-77724000D03*
X122110500Y-75184000D03*
X122110500Y-72644000D03*
X122110500Y-70104000D03*
X122110500Y-67564000D03*
%TD*%
%TO.C,J4*%
G36*
G01*
X190737200Y-51378800D02*
X190737200Y-53878800D01*
G75*
G02*
X190487200Y-54128800I-250000J0D01*
G01*
X188887200Y-54128800D01*
G75*
G02*
X188637200Y-53878800I0J250000D01*
G01*
X188637200Y-51378800D01*
G75*
G02*
X188887200Y-51128800I250000J0D01*
G01*
X190487200Y-51128800D01*
G75*
G02*
X190737200Y-51378800I0J-250000D01*
G01*
G37*
G36*
G01*
X202087200Y-51378800D02*
X202087200Y-53878800D01*
G75*
G02*
X201837200Y-54128800I-250000J0D01*
G01*
X200237200Y-54128800D01*
G75*
G02*
X199987200Y-53878800I0J250000D01*
G01*
X199987200Y-51378800D01*
G75*
G02*
X200237200Y-51128800I250000J0D01*
G01*
X201837200Y-51128800D01*
G75*
G02*
X202087200Y-51378800I0J-250000D01*
G01*
G37*
G36*
G01*
X192637200Y-54928800D02*
X192637200Y-56128800D01*
G75*
G02*
X192437200Y-56328800I-200000J0D01*
G01*
X192037200Y-56328800D01*
G75*
G02*
X191837200Y-56128800I0J200000D01*
G01*
X191837200Y-54928800D01*
G75*
G02*
X192037200Y-54728800I200000J0D01*
G01*
X192437200Y-54728800D01*
G75*
G02*
X192637200Y-54928800I0J-200000D01*
G01*
G37*
G36*
G01*
X193887200Y-54928800D02*
X193887200Y-56128800D01*
G75*
G02*
X193687200Y-56328800I-200000J0D01*
G01*
X193287200Y-56328800D01*
G75*
G02*
X193087200Y-56128800I0J200000D01*
G01*
X193087200Y-54928800D01*
G75*
G02*
X193287200Y-54728800I200000J0D01*
G01*
X193687200Y-54728800D01*
G75*
G02*
X193887200Y-54928800I0J-200000D01*
G01*
G37*
G36*
G01*
X195137200Y-54928800D02*
X195137200Y-56128800D01*
G75*
G02*
X194937200Y-56328800I-200000J0D01*
G01*
X194537200Y-56328800D01*
G75*
G02*
X194337200Y-56128800I0J200000D01*
G01*
X194337200Y-54928800D01*
G75*
G02*
X194537200Y-54728800I200000J0D01*
G01*
X194937200Y-54728800D01*
G75*
G02*
X195137200Y-54928800I0J-200000D01*
G01*
G37*
G36*
G01*
X196387200Y-54928800D02*
X196387200Y-56128800D01*
G75*
G02*
X196187200Y-56328800I-200000J0D01*
G01*
X195787200Y-56328800D01*
G75*
G02*
X195587200Y-56128800I0J200000D01*
G01*
X195587200Y-54928800D01*
G75*
G02*
X195787200Y-54728800I200000J0D01*
G01*
X196187200Y-54728800D01*
G75*
G02*
X196387200Y-54928800I0J-200000D01*
G01*
G37*
G36*
G01*
X197637200Y-54928800D02*
X197637200Y-56128800D01*
G75*
G02*
X197437200Y-56328800I-200000J0D01*
G01*
X197037200Y-56328800D01*
G75*
G02*
X196837200Y-56128800I0J200000D01*
G01*
X196837200Y-54928800D01*
G75*
G02*
X197037200Y-54728800I200000J0D01*
G01*
X197437200Y-54728800D01*
G75*
G02*
X197637200Y-54928800I0J-200000D01*
G01*
G37*
G36*
G01*
X198887200Y-54928800D02*
X198887200Y-56128800D01*
G75*
G02*
X198687200Y-56328800I-200000J0D01*
G01*
X198287200Y-56328800D01*
G75*
G02*
X198087200Y-56128800I0J200000D01*
G01*
X198087200Y-54928800D01*
G75*
G02*
X198287200Y-54728800I200000J0D01*
G01*
X198687200Y-54728800D01*
G75*
G02*
X198887200Y-54928800I0J-200000D01*
G01*
G37*
%TD*%
%TO.C,J2*%
X207900000Y-87700000D03*
X207900000Y-85160000D03*
X207900000Y-82620000D03*
X207900000Y-80080000D03*
X207900000Y-77540000D03*
X207900000Y-75000000D03*
%TD*%
D31*
%TO.C,FB2*%
X179225000Y-90725000D03*
X178425000Y-90725000D03*
%TD*%
%TO.C,FB1*%
X149700000Y-91450000D03*
X148900000Y-91450000D03*
%TD*%
D32*
%TO.C,E3*%
X175860000Y-97800000D03*
X180940000Y-97800000D03*
X175860000Y-97800000D03*
X178400000Y-97800000D03*
X180940000Y-97800000D03*
%TD*%
D33*
%TO.C,E2*%
X122200000Y-83566000D03*
X122200000Y-88646000D03*
X122200000Y-83566000D03*
X122200000Y-86106000D03*
X122200000Y-88646000D03*
%TD*%
D32*
%TO.C,E1*%
X146260000Y-97800000D03*
X151340000Y-97800000D03*
X146260000Y-97800000D03*
X148800000Y-97800000D03*
X151340000Y-97800000D03*
%TD*%
%TO.C,LED7*%
G36*
G01*
X205203880Y-63500900D02*
X206046120Y-63500900D01*
G75*
G02*
X206226600Y-63681380I0J-180480D01*
G01*
X206226600Y-64523620D01*
G75*
G02*
X206046120Y-64704100I-180480J0D01*
G01*
X205203880Y-64704100D01*
G75*
G02*
X205023400Y-64523620I0J180480D01*
G01*
X205023400Y-63681380D01*
G75*
G02*
X205203880Y-63500900I180480J0D01*
G01*
G37*
G36*
G01*
X206957880Y-63500900D02*
X207800120Y-63500900D01*
G75*
G02*
X207980600Y-63681380I0J-180480D01*
G01*
X207980600Y-64523620D01*
G75*
G02*
X207800120Y-64704100I-180480J0D01*
G01*
X206957880Y-64704100D01*
G75*
G02*
X206777400Y-64523620I0J180480D01*
G01*
X206777400Y-63681380D01*
G75*
G02*
X206957880Y-63500900I180480J0D01*
G01*
G37*
%TD*%
%TO.C,LED6*%
G36*
G01*
X205342880Y-66929900D02*
X206185120Y-66929900D01*
G75*
G02*
X206365600Y-67110380I0J-180480D01*
G01*
X206365600Y-67952620D01*
G75*
G02*
X206185120Y-68133100I-180480J0D01*
G01*
X205342880Y-68133100D01*
G75*
G02*
X205162400Y-67952620I0J180480D01*
G01*
X205162400Y-67110380D01*
G75*
G02*
X205342880Y-66929900I180480J0D01*
G01*
G37*
G36*
G01*
X207096880Y-66929900D02*
X207939120Y-66929900D01*
G75*
G02*
X208119600Y-67110380I0J-180480D01*
G01*
X208119600Y-67952620D01*
G75*
G02*
X207939120Y-68133100I-180480J0D01*
G01*
X207096880Y-68133100D01*
G75*
G02*
X206916400Y-67952620I0J180480D01*
G01*
X206916400Y-67110380D01*
G75*
G02*
X207096880Y-66929900I180480J0D01*
G01*
G37*
%TD*%
%TO.C,LED5*%
G36*
G01*
X205342880Y-70231900D02*
X206185120Y-70231900D01*
G75*
G02*
X206365600Y-70412380I0J-180480D01*
G01*
X206365600Y-71254620D01*
G75*
G02*
X206185120Y-71435100I-180480J0D01*
G01*
X205342880Y-71435100D01*
G75*
G02*
X205162400Y-71254620I0J180480D01*
G01*
X205162400Y-70412380D01*
G75*
G02*
X205342880Y-70231900I180480J0D01*
G01*
G37*
G36*
G01*
X207096880Y-70231900D02*
X207939120Y-70231900D01*
G75*
G02*
X208119600Y-70412380I0J-180480D01*
G01*
X208119600Y-71254620D01*
G75*
G02*
X207939120Y-71435100I-180480J0D01*
G01*
X207096880Y-71435100D01*
G75*
G02*
X206916400Y-71254620I0J180480D01*
G01*
X206916400Y-70412380D01*
G75*
G02*
X207096880Y-70231900I180480J0D01*
G01*
G37*
%TD*%
%TO.C,LED4*%
G36*
G01*
X126433080Y-58187800D02*
X127275320Y-58187800D01*
G75*
G02*
X127455800Y-58368280I0J-180480D01*
G01*
X127455800Y-59210520D01*
G75*
G02*
X127275320Y-59391000I-180480J0D01*
G01*
X126433080Y-59391000D01*
G75*
G02*
X126252600Y-59210520I0J180480D01*
G01*
X126252600Y-58368280D01*
G75*
G02*
X126433080Y-58187800I180480J0D01*
G01*
G37*
G36*
G01*
X128187080Y-58187800D02*
X129029320Y-58187800D01*
G75*
G02*
X129209800Y-58368280I0J-180480D01*
G01*
X129209800Y-59210520D01*
G75*
G02*
X129029320Y-59391000I-180480J0D01*
G01*
X128187080Y-59391000D01*
G75*
G02*
X128006600Y-59210520I0J180480D01*
G01*
X128006600Y-58368280D01*
G75*
G02*
X128187080Y-58187800I180480J0D01*
G01*
G37*
%TD*%
%TO.C,LED3*%
G36*
G01*
X126433080Y-61077000D02*
X127275320Y-61077000D01*
G75*
G02*
X127455800Y-61257480I0J-180480D01*
G01*
X127455800Y-62099720D01*
G75*
G02*
X127275320Y-62280200I-180480J0D01*
G01*
X126433080Y-62280200D01*
G75*
G02*
X126252600Y-62099720I0J180480D01*
G01*
X126252600Y-61257480D01*
G75*
G02*
X126433080Y-61077000I180480J0D01*
G01*
G37*
G36*
G01*
X128187080Y-61077000D02*
X129029320Y-61077000D01*
G75*
G02*
X129209800Y-61257480I0J-180480D01*
G01*
X129209800Y-62099720D01*
G75*
G02*
X129029320Y-62280200I-180480J0D01*
G01*
X128187080Y-62280200D01*
G75*
G02*
X128006600Y-62099720I0J180480D01*
G01*
X128006600Y-61257480D01*
G75*
G02*
X128187080Y-61077000I180480J0D01*
G01*
G37*
%TD*%
D34*
%TO.C,D2*%
X133647000Y-90332100D03*
X131347000Y-90332100D03*
%TD*%
%TO.C,LED2*%
G36*
G01*
X126408480Y-63767000D02*
X127250720Y-63767000D01*
G75*
G02*
X127431200Y-63947480I0J-180480D01*
G01*
X127431200Y-64789720D01*
G75*
G02*
X127250720Y-64970200I-180480J0D01*
G01*
X126408480Y-64970200D01*
G75*
G02*
X126228000Y-64789720I0J180480D01*
G01*
X126228000Y-63947480D01*
G75*
G02*
X126408480Y-63767000I180480J0D01*
G01*
G37*
G36*
G01*
X128162480Y-63767000D02*
X129004720Y-63767000D01*
G75*
G02*
X129185200Y-63947480I0J-180480D01*
G01*
X129185200Y-64789720D01*
G75*
G02*
X129004720Y-64970200I-180480J0D01*
G01*
X128162480Y-64970200D01*
G75*
G02*
X127982000Y-64789720I0J180480D01*
G01*
X127982000Y-63947480D01*
G75*
G02*
X128162480Y-63767000I180480J0D01*
G01*
G37*
%TD*%
D35*
%TO.C,C8*%
X185705000Y-90700000D03*
X184545000Y-90700000D03*
%TD*%
%TO.C,C1*%
X156280000Y-91500000D03*
X155120000Y-91500000D03*
%TD*%
M02*
